G04*
G04 #@! TF.GenerationSoftware,Altium Limited,Altium Designer,21.9.2 (33)*
G04*
G04 Layer_Physical_Order=4*
G04 Layer_Color=16711680*
%FSLAX25Y25*%
%MOIN*%
G70*
G04*
G04 #@! TF.SameCoordinates,A2EF98D1-1A14-4516-B8CD-8696FD8A9C0B*
G04*
G04*
G04 #@! TF.FilePolarity,Positive*
G04*
G01*
G75*
%ADD10C,0.00811*%
%ADD62C,0.01221*%
%ADD63C,0.01200*%
%ADD64C,0.01500*%
%ADD65C,0.00800*%
%ADD66C,0.55118*%
%ADD67C,0.19685*%
%ADD68C,0.02400*%
%ADD69C,0.02700*%
%ADD70C,0.03200*%
%ADD71C,0.02559*%
G04:AMPARAMS|DCode=73|XSize=59.06mil|YSize=48.42mil|CornerRadius=12.11mil|HoleSize=0mil|Usage=FLASHONLY|Rotation=180.000|XOffset=0mil|YOffset=0mil|HoleType=Round|Shape=RoundedRectangle|*
%AMROUNDEDRECTD73*
21,1,0.05906,0.02421,0,0,180.0*
21,1,0.03484,0.04842,0,0,180.0*
1,1,0.02421,-0.01742,0.01211*
1,1,0.02421,0.01742,0.01211*
1,1,0.02421,0.01742,-0.01211*
1,1,0.02421,-0.01742,-0.01211*
%
%ADD73ROUNDEDRECTD73*%
G04:AMPARAMS|DCode=74|XSize=19.68mil|YSize=39.37mil|CornerRadius=0mil|HoleSize=0mil|Usage=FLASHONLY|Rotation=333.000|XOffset=0mil|YOffset=0mil|HoleType=Round|Shape=Round|*
%AMOVALD74*
21,1,0.01968,0.01968,0.00000,0.00000,63.0*
1,1,0.01968,-0.00447,-0.00877*
1,1,0.01968,0.00447,0.00877*
%
%ADD74OVALD74*%

G04:AMPARAMS|DCode=75|XSize=46mil|YSize=70mil|CornerRadius=0mil|HoleSize=0mil|Usage=FLASHONLY|Rotation=153.000|XOffset=0mil|YOffset=0mil|HoleType=Round|Shape=Rectangle|*
%AMROTATEDRECTD75*
4,1,4,0.03638,0.02074,0.00460,-0.04163,-0.03638,-0.02074,-0.00460,0.04163,0.03638,0.02074,0.0*
%
%ADD75ROTATEDRECTD75*%

%ADD76C,0.01968*%
G04:AMPARAMS|DCode=77|XSize=23.62mil|YSize=21.65mil|CornerRadius=5.41mil|HoleSize=0mil|Usage=FLASHONLY|Rotation=90.000|XOffset=0mil|YOffset=0mil|HoleType=Round|Shape=RoundedRectangle|*
%AMROUNDEDRECTD77*
21,1,0.02362,0.01083,0,0,90.0*
21,1,0.01280,0.02165,0,0,90.0*
1,1,0.01083,0.00541,0.00640*
1,1,0.01083,0.00541,-0.00640*
1,1,0.01083,-0.00541,-0.00640*
1,1,0.01083,-0.00541,0.00640*
%
%ADD77ROUNDEDRECTD77*%
%ADD78C,0.03937*%
G04:AMPARAMS|DCode=79|XSize=82.68mil|YSize=118.11mil|CornerRadius=20.67mil|HoleSize=0mil|Usage=FLASHONLY|Rotation=157.500|XOffset=0mil|YOffset=0mil|HoleType=Round|Shape=RoundedRectangle|*
%AMROUNDEDRECTD79*
21,1,0.08268,0.07677,0,0,157.5*
21,1,0.04134,0.11811,0,0,157.5*
1,1,0.04134,-0.00441,0.04337*
1,1,0.04134,0.03379,0.02755*
1,1,0.04134,0.00441,-0.04337*
1,1,0.04134,-0.03379,-0.02755*
%
%ADD79ROUNDEDRECTD79*%
G04:AMPARAMS|DCode=80|XSize=31.5mil|YSize=62.99mil|CornerRadius=7.87mil|HoleSize=0mil|Usage=FLASHONLY|Rotation=337.500|XOffset=0mil|YOffset=0mil|HoleType=Round|Shape=RoundedRectangle|*
%AMROUNDEDRECTD80*
21,1,0.03150,0.04724,0,0,337.5*
21,1,0.01575,0.06299,0,0,337.5*
1,1,0.01575,-0.00177,-0.02484*
1,1,0.01575,-0.01631,-0.01881*
1,1,0.01575,0.00177,0.02484*
1,1,0.01575,0.01631,0.01881*
%
%ADD80ROUNDEDRECTD80*%
G04:AMPARAMS|DCode=81|XSize=53.15mil|YSize=37.4mil|CornerRadius=9.35mil|HoleSize=0mil|Usage=FLASHONLY|Rotation=180.000|XOffset=0mil|YOffset=0mil|HoleType=Round|Shape=RoundedRectangle|*
%AMROUNDEDRECTD81*
21,1,0.05315,0.01870,0,0,180.0*
21,1,0.03445,0.03740,0,0,180.0*
1,1,0.01870,-0.01722,0.00935*
1,1,0.01870,0.01722,0.00935*
1,1,0.01870,0.01722,-0.00935*
1,1,0.01870,-0.01722,-0.00935*
%
%ADD81ROUNDEDRECTD81*%
G04:AMPARAMS|DCode=82|XSize=24.5mil|YSize=26mil|CornerRadius=6.13mil|HoleSize=0mil|Usage=FLASHONLY|Rotation=270.000|XOffset=0mil|YOffset=0mil|HoleType=Round|Shape=RoundedRectangle|*
%AMROUNDEDRECTD82*
21,1,0.02450,0.01375,0,0,270.0*
21,1,0.01225,0.02600,0,0,270.0*
1,1,0.01225,-0.00688,-0.00613*
1,1,0.01225,-0.00688,0.00613*
1,1,0.01225,0.00688,0.00613*
1,1,0.01225,0.00688,-0.00613*
%
%ADD82ROUNDEDRECTD82*%
G04:AMPARAMS|DCode=83|XSize=19.68mil|YSize=23.62mil|CornerRadius=4.92mil|HoleSize=0mil|Usage=FLASHONLY|Rotation=270.000|XOffset=0mil|YOffset=0mil|HoleType=Round|Shape=RoundedRectangle|*
%AMROUNDEDRECTD83*
21,1,0.01968,0.01378,0,0,270.0*
21,1,0.00984,0.02362,0,0,270.0*
1,1,0.00984,-0.00689,-0.00492*
1,1,0.00984,-0.00689,0.00492*
1,1,0.00984,0.00689,0.00492*
1,1,0.00984,0.00689,-0.00492*
%
%ADD83ROUNDEDRECTD83*%
%ADD84C,0.00984*%
G04:AMPARAMS|DCode=85|XSize=19.68mil|YSize=23.62mil|CornerRadius=4.92mil|HoleSize=0mil|Usage=FLASHONLY|Rotation=135.000|XOffset=0mil|YOffset=0mil|HoleType=Round|Shape=RoundedRectangle|*
%AMROUNDEDRECTD85*
21,1,0.01968,0.01378,0,0,135.0*
21,1,0.00984,0.02362,0,0,135.0*
1,1,0.00984,0.00139,0.00835*
1,1,0.00984,0.00835,0.00139*
1,1,0.00984,-0.00139,-0.00835*
1,1,0.00984,-0.00835,-0.00139*
%
%ADD85ROUNDEDRECTD85*%
G04:AMPARAMS|DCode=86|XSize=82.68mil|YSize=118.11mil|CornerRadius=20.67mil|HoleSize=0mil|Usage=FLASHONLY|Rotation=202.413|XOffset=0mil|YOffset=0mil|HoleType=Round|Shape=RoundedRectangle|*
%AMROUNDEDRECTD86*
21,1,0.08268,0.07677,0,0,202.4*
21,1,0.04134,0.11811,0,0,202.4*
1,1,0.04134,-0.03374,0.02761*
1,1,0.04134,0.00447,0.04337*
1,1,0.04134,0.03374,-0.02761*
1,1,0.04134,-0.00447,-0.04337*
%
%ADD86ROUNDEDRECTD86*%
G04:AMPARAMS|DCode=87|XSize=31.5mil|YSize=62.99mil|CornerRadius=7.87mil|HoleSize=0mil|Usage=FLASHONLY|Rotation=22.413|XOffset=0mil|YOffset=0mil|HoleType=Round|Shape=RoundedRectangle|*
%AMROUNDEDRECTD87*
21,1,0.03150,0.04724,0,0,22.4*
21,1,0.01575,0.06299,0,0,22.4*
1,1,0.01575,0.01629,-0.01884*
1,1,0.01575,0.00173,-0.02484*
1,1,0.01575,-0.01629,0.01884*
1,1,0.01575,-0.00173,0.02484*
%
%ADD87ROUNDEDRECTD87*%
G04:AMPARAMS|DCode=88|XSize=23.62mil|YSize=21.65mil|CornerRadius=5.41mil|HoleSize=0mil|Usage=FLASHONLY|Rotation=180.000|XOffset=0mil|YOffset=0mil|HoleType=Round|Shape=RoundedRectangle|*
%AMROUNDEDRECTD88*
21,1,0.02362,0.01083,0,0,180.0*
21,1,0.01280,0.02165,0,0,180.0*
1,1,0.01083,-0.00640,0.00541*
1,1,0.01083,0.00640,0.00541*
1,1,0.01083,0.00640,-0.00541*
1,1,0.01083,-0.00640,-0.00541*
%
%ADD88ROUNDEDRECTD88*%
G04:AMPARAMS|DCode=89|XSize=23.62mil|YSize=21.65mil|CornerRadius=5.41mil|HoleSize=0mil|Usage=FLASHONLY|Rotation=246.000|XOffset=0mil|YOffset=0mil|HoleType=Round|Shape=RoundedRectangle|*
%AMROUNDEDRECTD89*
21,1,0.02362,0.01083,0,0,246.0*
21,1,0.01280,0.02165,0,0,246.0*
1,1,0.01083,-0.00755,-0.00364*
1,1,0.01083,-0.00234,0.00805*
1,1,0.01083,0.00755,0.00364*
1,1,0.01083,0.00234,-0.00805*
%
%ADD89ROUNDEDRECTD89*%
G04:AMPARAMS|DCode=90|XSize=23.62mil|YSize=21.65mil|CornerRadius=5.41mil|HoleSize=0mil|Usage=FLASHONLY|Rotation=240.000|XOffset=0mil|YOffset=0mil|HoleType=Round|Shape=RoundedRectangle|*
%AMROUNDEDRECTD90*
21,1,0.02362,0.01083,0,0,240.0*
21,1,0.01280,0.02165,0,0,240.0*
1,1,0.01083,-0.00789,-0.00283*
1,1,0.01083,-0.00149,0.00825*
1,1,0.01083,0.00789,0.00283*
1,1,0.01083,0.00149,-0.00825*
%
%ADD90ROUNDEDRECTD90*%
G04:AMPARAMS|DCode=91|XSize=19.68mil|YSize=23.62mil|CornerRadius=4.92mil|HoleSize=0mil|Usage=FLASHONLY|Rotation=270.008|XOffset=0mil|YOffset=0mil|HoleType=Round|Shape=RoundedRectangle|*
%AMROUNDEDRECTD91*
21,1,0.01968,0.01378,0,0,270.0*
21,1,0.00984,0.02362,0,0,270.0*
1,1,0.00984,-0.00689,-0.00492*
1,1,0.00984,-0.00689,0.00492*
1,1,0.00984,0.00689,0.00492*
1,1,0.00984,0.00689,-0.00492*
%
%ADD91ROUNDEDRECTD91*%
G04:AMPARAMS|DCode=92|XSize=19.68mil|YSize=23.62mil|CornerRadius=4.92mil|HoleSize=0mil|Usage=FLASHONLY|Rotation=0.000|XOffset=0mil|YOffset=0mil|HoleType=Round|Shape=RoundedRectangle|*
%AMROUNDEDRECTD92*
21,1,0.01968,0.01378,0,0,0.0*
21,1,0.00984,0.02362,0,0,0.0*
1,1,0.00984,0.00492,-0.00689*
1,1,0.00984,-0.00492,-0.00689*
1,1,0.00984,-0.00492,0.00689*
1,1,0.00984,0.00492,0.00689*
%
%ADD92ROUNDEDRECTD92*%
G04:AMPARAMS|DCode=93|XSize=23.62mil|YSize=21.65mil|CornerRadius=5.41mil|HoleSize=0mil|Usage=FLASHONLY|Rotation=315.000|XOffset=0mil|YOffset=0mil|HoleType=Round|Shape=RoundedRectangle|*
%AMROUNDEDRECTD93*
21,1,0.02362,0.01083,0,0,315.0*
21,1,0.01280,0.02165,0,0,315.0*
1,1,0.01083,0.00070,-0.00835*
1,1,0.01083,-0.00835,0.00070*
1,1,0.01083,-0.00070,0.00835*
1,1,0.01083,0.00835,-0.00070*
%
%ADD93ROUNDEDRECTD93*%
%ADD94C,0.00350*%
%ADD95C,0.00799*%
%ADD96C,0.01056*%
%ADD97C,0.01157*%
G36*
X78791Y89522D02*
X80761Y89049D01*
X82632Y88274D01*
X84360Y87215D01*
X85900Y85900D01*
X87215Y84360D01*
X88274Y82632D01*
X89049Y80761D01*
X89522Y78791D01*
X89681Y76772D01*
X89522Y74752D01*
X89049Y72782D01*
X88274Y70911D01*
X87215Y69184D01*
X86289Y68099D01*
X85899Y67664D01*
X85620Y67415D01*
X85469Y67245D01*
X83548Y65096D01*
X81749Y62560D01*
X80245Y59838D01*
X79055Y56966D01*
X78194Y53977D01*
X77673Y50912D01*
X77499Y47807D01*
X77673Y44702D01*
X78194Y41637D01*
X79049Y38670D01*
X79055Y38649D01*
X79085Y38576D01*
X79298Y38032D01*
X79298Y38032D01*
X79544Y37490D01*
X81277Y33666D01*
X83305Y28278D01*
X84976Y22769D01*
X86283Y17163D01*
X87221Y11483D01*
X87785Y5754D01*
X87973Y0D01*
X87918Y-1697D01*
X87314Y-1807D01*
X87086Y-1258D01*
X86538Y-709D01*
X85821Y-412D01*
X85045D01*
X84329Y-709D01*
X83780Y-1258D01*
X83651Y-1569D01*
X83533Y-1648D01*
X78444D01*
X78214Y-1094D01*
X80794Y1486D01*
X80794Y1486D01*
X81061Y1886D01*
X81155Y2358D01*
X81155Y2358D01*
Y3201D01*
X81574Y3620D01*
X81871Y4337D01*
Y5112D01*
X81574Y5829D01*
X81026Y6378D01*
X80309Y6674D01*
X79533D01*
X78817Y6378D01*
X78268Y5829D01*
X77971Y5112D01*
Y4337D01*
X78268Y3620D01*
X78497Y3391D01*
Y2679D01*
X76276Y458D01*
X74143D01*
X73895Y1058D01*
X73897Y1061D01*
X74194Y1777D01*
Y2553D01*
X73897Y3270D01*
X73349Y3818D01*
X73010Y3959D01*
X72869Y4666D01*
X73228Y5024D01*
X73495Y5425D01*
X73554Y5724D01*
X77580Y9750D01*
X77848Y10150D01*
X77942Y10622D01*
X77942Y10622D01*
Y35057D01*
X77942Y35058D01*
X77848Y35530D01*
X77580Y35930D01*
X77580Y35930D01*
X71706Y41804D01*
Y44809D01*
X71837Y44896D01*
X72089Y45273D01*
X72177Y45719D01*
Y46998D01*
X72089Y47443D01*
X71975Y47613D01*
X71883Y48031D01*
X71975Y48450D01*
X72089Y48620D01*
X72177Y49065D01*
Y49665D01*
X72925Y50412D01*
X73616D01*
X74333Y50709D01*
X74882Y51258D01*
X75178Y51974D01*
Y52750D01*
X74882Y53467D01*
X74333Y54015D01*
X73616Y54312D01*
X72840D01*
X72124Y54015D01*
X71575Y53467D01*
X71278Y52750D01*
Y52256D01*
X70531Y51508D01*
X69931D01*
X69486Y51420D01*
X69108Y51167D01*
X68856Y50790D01*
X68810Y50558D01*
X68198D01*
X68152Y50790D01*
X67900Y51167D01*
X68058Y51762D01*
X71213Y54917D01*
X71822D01*
X72539Y55214D01*
X73087Y55763D01*
X73384Y56479D01*
Y57255D01*
X73087Y57972D01*
X72539Y58520D01*
X71822Y58817D01*
X71046D01*
X70330Y58520D01*
X69781Y57972D01*
X69484Y57255D01*
Y56679D01*
X65663Y52858D01*
X65395Y52457D01*
X65302Y51985D01*
Y51254D01*
X65171Y51167D01*
X64919Y50790D01*
X64873Y50558D01*
X64261D01*
X64215Y50790D01*
X63963Y51167D01*
X63832Y51254D01*
Y60925D01*
X63738Y61397D01*
X63471Y61798D01*
X63471Y61798D01*
X56384Y68884D01*
X55984Y69152D01*
X55512Y69246D01*
X52508D01*
X52089Y69665D01*
X51372Y69962D01*
X50596D01*
X49880Y69665D01*
X49331Y69116D01*
X49034Y68400D01*
Y68164D01*
X48434Y67763D01*
X47510Y68146D01*
X46781Y68341D01*
X46026D01*
X45296Y68146D01*
X44643Y67768D01*
X44109Y67235D01*
X43732Y66581D01*
X42492Y63589D01*
X47073Y61691D01*
X51654Y59794D01*
X52894Y62786D01*
X53089Y63515D01*
Y64270D01*
X52894Y64999D01*
X52516Y65653D01*
X52342Y65828D01*
X52318Y65878D01*
X52360Y66630D01*
X52508Y66778D01*
X55001D01*
X61365Y60414D01*
Y51254D01*
X61234Y51167D01*
X60982Y50790D01*
X60893Y50345D01*
Y49065D01*
X60982Y48620D01*
X61095Y48450D01*
X61188Y48031D01*
X61095Y47613D01*
X60982Y47443D01*
X60893Y46998D01*
Y45719D01*
X60982Y45273D01*
X61234Y44896D01*
X61365Y44809D01*
Y44017D01*
X61458Y43545D01*
X61726Y43145D01*
X71833Y33038D01*
Y17674D01*
X67842Y13682D01*
X67574Y13282D01*
X67480Y12810D01*
Y7916D01*
X65170Y5607D01*
X65149Y5575D01*
X60028Y453D01*
X59760Y53D01*
X59666Y-419D01*
Y-4074D01*
X59602Y-4101D01*
X59087Y-4180D01*
X58766Y-3570D01*
X58715Y-3528D01*
X58696Y-3464D01*
X58262Y-2928D01*
X58204Y-2896D01*
X58173Y-2837D01*
X57643Y-2397D01*
X57579Y-2377D01*
X57537Y-2325D01*
X56931Y-1996D01*
X56865Y-1989D01*
X56814Y-1947D01*
X56156Y-1742D01*
X56089Y-1749D01*
X56031Y-1717D01*
X55688Y-1681D01*
X55688Y-1681D01*
X55211Y-1822D01*
X55201Y-1841D01*
X54826Y-1963D01*
X54525Y-2004D01*
X54199Y-1827D01*
X54158Y-2221D01*
X54401Y-2198D01*
X54744Y-2235D01*
X54744Y-2235D01*
X54012Y-9196D01*
X53669Y-9160D01*
X53436Y-9088D01*
X53395Y-9481D01*
X53685Y-9395D01*
X53839Y-9366D01*
X54378Y-9676D01*
X54384Y-9697D01*
X54416Y-9714D01*
X54429Y-9747D01*
X54630Y-9831D01*
X54776Y-9910D01*
X54127Y-12963D01*
X53486Y-13115D01*
X53446Y-13089D01*
X53284Y-12950D01*
X53284Y-12950D01*
X52956Y-12844D01*
X52890Y-12849D01*
X52832Y-12816D01*
X52147Y-12735D01*
X52083Y-12753D01*
X52020Y-12733D01*
X51332Y-12787D01*
X51273Y-12817D01*
X51207Y-12809D01*
X50543Y-12996D01*
X50491Y-13037D01*
X50425Y-13043D01*
X49810Y-13356D01*
X49767Y-13406D01*
X49703Y-13424D01*
X49162Y-13851D01*
X48603Y-13638D01*
X47236Y-12271D01*
X46906Y-12050D01*
X46516Y-11972D01*
X44602D01*
X44567Y-11888D01*
X44018Y-11339D01*
X43301Y-11042D01*
X42526D01*
X41809Y-11339D01*
X41260Y-11888D01*
X40963Y-12604D01*
Y-13380D01*
X41260Y-14097D01*
X41809Y-14645D01*
X42526Y-14942D01*
X43301D01*
X44018Y-14645D01*
X44567Y-14097D01*
X44602Y-14012D01*
X46093D01*
X47967Y-15886D01*
X47949Y-15942D01*
X47954Y-16008D01*
X47921Y-16066D01*
X47840Y-16751D01*
X47858Y-16815D01*
X47838Y-16878D01*
X47892Y-17566D01*
X47922Y-17625D01*
X47914Y-17691D01*
X48101Y-18354D01*
X48142Y-18407D01*
X48148Y-18473D01*
X48461Y-19087D01*
X48511Y-19130D01*
X48529Y-19195D01*
X48956Y-19736D01*
X49014Y-19769D01*
X49044Y-19828D01*
X49569Y-20276D01*
X49632Y-20296D01*
X49673Y-20348D01*
X50275Y-20685D01*
X50341Y-20693D01*
X50391Y-20736D01*
X50719Y-20843D01*
X50719Y-20843D01*
X50988Y-20821D01*
X51414Y-21316D01*
X50254Y-23920D01*
X49591Y-23937D01*
X49541Y-23894D01*
X49427Y-23745D01*
X49427D01*
X49128Y-23573D01*
X49062Y-23564D01*
X49012Y-23520D01*
X48360Y-23299D01*
X48293Y-23303D01*
X48236Y-23270D01*
X47552Y-23180D01*
X47488Y-23197D01*
X47425Y-23176D01*
X46737Y-23221D01*
X46677Y-23250D01*
X46611Y-23242D01*
X45945Y-23420D01*
X45893Y-23460D01*
X45826Y-23465D01*
X45208Y-23770D01*
X45164Y-23820D01*
X45100Y-23837D01*
X44698Y-24145D01*
X43455Y-22901D01*
X43432Y-22886D01*
X43614Y-22286D01*
X44119D01*
X44836Y-21989D01*
X45384Y-21441D01*
X45681Y-20724D01*
Y-19948D01*
X45384Y-19231D01*
X44836Y-18683D01*
X44119Y-18386D01*
X43343D01*
X42627Y-18683D01*
X42078Y-19231D01*
X41781Y-19948D01*
Y-20724D01*
X42078Y-21441D01*
X42627Y-21989D01*
X42659Y-22003D01*
X42540Y-22603D01*
X37515D01*
X37480Y-22517D01*
X36931Y-21969D01*
X36215Y-21672D01*
X35439D01*
X34722Y-21969D01*
X34174Y-22517D01*
X33877Y-23234D01*
Y-24010D01*
X34174Y-24727D01*
X34722Y-25275D01*
X35439Y-25572D01*
X36215D01*
X36931Y-25275D01*
X37480Y-24727D01*
X37515Y-24642D01*
X42311D01*
X43487Y-25817D01*
X43312Y-26331D01*
X43316Y-26398D01*
X43283Y-26455D01*
X43193Y-27139D01*
X43210Y-27203D01*
X43189Y-27266D01*
X43234Y-27954D01*
X43264Y-28014D01*
X43255Y-28080D01*
X43405Y-28641D01*
X43187Y-29091D01*
X42994Y-29241D01*
X42647D01*
X41931Y-29537D01*
X41382Y-30086D01*
X41085Y-30803D01*
Y-31578D01*
X41206Y-31870D01*
X40952Y-32317D01*
X40885Y-32385D01*
X40791Y-32435D01*
X40760Y-32425D01*
X40072Y-32461D01*
X40012Y-32489D01*
X39946Y-32480D01*
X39278Y-32649D01*
X39225Y-32689D01*
X39158Y-32693D01*
X38536Y-32990D01*
X38491Y-33039D01*
X38427Y-33055D01*
X37874Y-33468D01*
X37840Y-33525D01*
X37780Y-33554D01*
X37550Y-33810D01*
X37550Y-33810D01*
X37319Y-34066D01*
X37297Y-34129D01*
X37244Y-34169D01*
X36891Y-34761D01*
X36882Y-34827D01*
X36837Y-34876D01*
X36607Y-35526D01*
X36610Y-35593D01*
X36576Y-35650D01*
X36501Y-36169D01*
X31742D01*
Y-24038D01*
X36306Y-19475D01*
X36573Y-19075D01*
X36667Y-18602D01*
X36667Y-18602D01*
Y3630D01*
X37267Y3852D01*
X37520Y3683D01*
X37992Y3589D01*
X37992Y3589D01*
X50811D01*
X50896Y3432D01*
X50948Y3391D01*
X50967Y3327D01*
X51408Y2797D01*
X51467Y2766D01*
X51499Y2708D01*
X52035Y2274D01*
X52098Y2255D01*
X52141Y2204D01*
X52184Y2181D01*
X52430Y1382D01*
X52395Y1315D01*
X48130D01*
X47740Y1237D01*
X47409Y1016D01*
X39728Y-6665D01*
X39728Y-6665D01*
X39012D01*
X38350Y-6939D01*
X37844Y-7445D01*
X37570Y-8106D01*
Y-8823D01*
X37844Y-9484D01*
X38350Y-9990D01*
X39012Y-10265D01*
X39728D01*
X40390Y-9990D01*
X40896Y-9484D01*
X41170Y-8823D01*
Y-8106D01*
X41170Y-8106D01*
X48552Y-724D01*
X55315D01*
X55705Y-647D01*
X56036Y-426D01*
X57379Y918D01*
X57600Y1249D01*
X57678Y1639D01*
Y2426D01*
X58173Y2838D01*
X58204Y2897D01*
X58262Y2928D01*
X58696Y3464D01*
X58715Y3528D01*
X58766Y3570D01*
X59087Y4180D01*
X59093Y4247D01*
X59135Y4298D01*
X59331Y4959D01*
X59324Y5026D01*
X59355Y5085D01*
X59418Y5771D01*
X59398Y5835D01*
X59417Y5898D01*
X59381Y6241D01*
X59381Y6241D01*
X59345Y6584D01*
X59313Y6642D01*
X59319Y6709D01*
X59115Y7367D01*
X59072Y7418D01*
X59065Y7484D01*
X58736Y8090D01*
X58685Y8132D01*
X58665Y8196D01*
X58224Y8726D01*
X58165Y8757D01*
X58134Y8815D01*
X57598Y9249D01*
X57534Y9268D01*
X57491Y9319D01*
X56922Y9619D01*
X56353Y12295D01*
X56929Y12473D01*
X57008Y12281D01*
X57557Y11733D01*
X58274Y11436D01*
X59049D01*
X59766Y11733D01*
X60315Y12281D01*
X60611Y12998D01*
Y13774D01*
X60315Y14490D01*
X59766Y15039D01*
X59049Y15336D01*
X58274D01*
X57557Y15039D01*
X57008Y14490D01*
X56711Y13774D01*
Y13496D01*
X56111Y13432D01*
X55913Y14365D01*
X56312Y14870D01*
X56330Y14934D01*
X56380Y14978D01*
X56693Y15592D01*
X56698Y15658D01*
X56739Y15710D01*
X56927Y16374D01*
X56919Y16440D01*
X56949Y16499D01*
X57003Y17187D01*
X56983Y17250D01*
X57001Y17314D01*
X56920Y17999D01*
X56887Y18057D01*
X56892Y18123D01*
X56786Y18451D01*
Y18451D01*
X56679Y18779D01*
X56636Y18829D01*
X56628Y18895D01*
X56291Y19497D01*
X56239Y19538D01*
X56219Y19601D01*
X55771Y20126D01*
X55712Y20156D01*
X55679Y20214D01*
X55138Y20641D01*
X55074Y20659D01*
X55030Y20709D01*
X54416Y21022D01*
X54350Y21027D01*
X54298Y21069D01*
X53678Y21243D01*
X51705Y25676D01*
X51989Y26253D01*
X51994Y26320D01*
X52034Y26372D01*
X52213Y27038D01*
X52204Y27104D01*
X52233Y27164D01*
X52278Y27852D01*
X52257Y27915D01*
X52274Y27979D01*
X52184Y28663D01*
X52151Y28720D01*
X52155Y28787D01*
X51934Y29440D01*
X51890Y29490D01*
X51881Y29556D01*
X51709Y29854D01*
X51709Y29854D01*
X51536Y30153D01*
X51484Y30193D01*
X51462Y30256D01*
X51008Y30775D01*
X50948Y30804D01*
X50915Y30861D01*
X50368Y31281D01*
X50304Y31299D01*
X50260Y31348D01*
X49641Y31653D01*
X49575Y31658D01*
X49522Y31698D01*
X48856Y31877D01*
X48790Y31868D01*
X48731Y31897D01*
X48088Y31940D01*
X45236Y35865D01*
X45395Y36489D01*
X45385Y36555D01*
X45414Y36615D01*
X45450Y37303D01*
X45428Y37366D01*
X45444Y37430D01*
X45345Y38113D01*
X45311Y38170D01*
X45315Y38236D01*
X45085Y38886D01*
X45040Y38936D01*
X45031Y39001D01*
X44678Y39594D01*
X44625Y39634D01*
X44602Y39696D01*
X44372Y39952D01*
X44372Y39952D01*
X44141Y40209D01*
X44081Y40237D01*
X44047Y40295D01*
X43495Y40707D01*
X43430Y40723D01*
X43386Y40773D01*
X42763Y41070D01*
X42697Y41073D01*
X42644Y41113D01*
X41976Y41283D01*
X41910Y41273D01*
X41850Y41302D01*
X41161Y41338D01*
X41098Y41316D01*
X41034Y41332D01*
X40352Y41233D01*
X40294Y41199D01*
X40228Y41203D01*
X39578Y40972D01*
X39529Y40928D01*
X39463Y40918D01*
X38870Y40566D01*
X38831Y40512D01*
X38768Y40490D01*
X38512Y40260D01*
X38401Y40027D01*
X38342Y39904D01*
X38298Y39811D01*
X38298Y39811D01*
Y39811D01*
X38305Y39791D01*
X38137Y39415D01*
X37983Y39182D01*
X37898Y39152D01*
X37624Y39055D01*
X37889Y38761D01*
X38035Y38957D01*
X38291Y39187D01*
X38291Y39187D01*
X42975Y33985D01*
X42719Y33755D01*
X42509Y33630D01*
X42774Y33336D01*
X42901Y33602D01*
X42973Y33740D01*
X43577Y33936D01*
X43596Y33926D01*
X43613Y33933D01*
X43630Y33926D01*
X43845Y34015D01*
X44016Y34075D01*
X45835Y31572D01*
X45809Y31512D01*
X45520Y30985D01*
X45445Y30954D01*
X45278Y30932D01*
X45277Y30932D01*
X44979Y30760D01*
X44938Y30707D01*
X44875Y30686D01*
X44357Y30231D01*
X44328Y30171D01*
X44270Y30138D01*
X43850Y29591D01*
X43833Y29527D01*
X43783Y29483D01*
X43478Y28865D01*
X43474Y28798D01*
X43433Y28746D01*
X43255Y28080D01*
X43264Y28014D01*
X43234Y27954D01*
X43189Y27266D01*
X43210Y27203D01*
X43193Y27139D01*
X43283Y26455D01*
X43317Y26398D01*
X43312Y26331D01*
X43487Y25817D01*
X42503Y24833D01*
X42063Y25220D01*
X42360Y25937D01*
Y26713D01*
X42063Y27430D01*
X41515Y27978D01*
X40798Y28275D01*
X40022D01*
X39305Y27978D01*
X38757Y27430D01*
X38460Y26713D01*
Y25937D01*
X38757Y25220D01*
X39305Y24672D01*
X40022Y24375D01*
X40798D01*
X41515Y24672D01*
X41902Y24232D01*
X39591Y21922D01*
X39355Y22019D01*
X38579D01*
X37863Y21723D01*
X37314Y21174D01*
X37017Y20457D01*
Y19681D01*
X37314Y18965D01*
X37863Y18416D01*
X38579Y18119D01*
X39355D01*
X40072Y18416D01*
X40620Y18965D01*
X40917Y19681D01*
Y20364D01*
X44698Y24145D01*
X45100Y23837D01*
X45164Y23820D01*
X45208Y23770D01*
X45826Y23465D01*
X45893Y23460D01*
X45945Y23420D01*
X46450Y23285D01*
X46604Y23032D01*
X46693Y22827D01*
X46718Y22701D01*
X46715Y22621D01*
X46475Y22041D01*
Y21266D01*
X46772Y20549D01*
X47321Y20000D01*
X48037Y19703D01*
X48167D01*
X48362Y19430D01*
X48480Y19193D01*
X48480Y19104D01*
X48461Y19087D01*
X48148Y18473D01*
X48143Y18407D01*
X48101Y18354D01*
X47914Y17691D01*
X47922Y17625D01*
X47892Y17566D01*
X47838Y16878D01*
X47858Y16815D01*
X47840Y16751D01*
X47921Y16066D01*
X47954Y16008D01*
X47949Y15942D01*
X47967Y15886D01*
X43810Y11728D01*
X43779Y11734D01*
X43231Y12283D01*
X42514Y12580D01*
X41738D01*
X41021Y12283D01*
X40473Y11734D01*
X40176Y11018D01*
Y10242D01*
X40473Y9525D01*
X41021Y8977D01*
X41738Y8680D01*
X42514D01*
X43231Y8977D01*
X43779Y9525D01*
X43814Y9610D01*
X44153D01*
X44543Y9688D01*
X44874Y9909D01*
X48603Y13638D01*
X49162Y13851D01*
X49703Y13424D01*
X49767Y13406D01*
X49810Y13355D01*
X50425Y13043D01*
X50491Y13037D01*
X50543Y12996D01*
X51207Y12809D01*
X51273Y12817D01*
X51332Y12787D01*
X52020Y12733D01*
X52083Y12753D01*
X52147Y12735D01*
X52832Y12816D01*
X52890Y12849D01*
X52956Y12843D01*
X53284Y12950D01*
X53442Y13085D01*
X54032Y12971D01*
X54192Y12653D01*
X54716Y10190D01*
X54189Y9785D01*
X54120Y9790D01*
X53944Y9842D01*
X53601Y9806D01*
X53543Y9774D01*
X53477Y9780D01*
X52818Y9576D01*
X52767Y9533D01*
X52701Y9526D01*
X52095Y9198D01*
X52053Y9146D01*
X51990Y9126D01*
X51460Y8685D01*
X51429Y8626D01*
X51370Y8595D01*
X50936Y8059D01*
X50918Y7995D01*
X50866Y7953D01*
X50545Y7342D01*
X50539Y7276D01*
X50497Y7224D01*
X50302Y6563D01*
X49917Y6057D01*
X38503D01*
X36306Y8254D01*
X15869Y28691D01*
X17045Y30900D01*
X18577Y30119D01*
X18588Y30094D01*
X18632Y30076D01*
X18657Y30034D01*
X18657Y30034D01*
X18702Y30022D01*
X18732Y29986D01*
X18732Y29986D01*
X18742Y29985D01*
X18748Y29976D01*
X19055Y29818D01*
X19122Y29812D01*
X19174Y29770D01*
X19838Y29580D01*
X19905Y29588D01*
X19964Y29557D01*
X20653Y29501D01*
X20717Y29521D01*
X20781Y29503D01*
X21467Y29583D01*
X21525Y29616D01*
X21592Y29610D01*
X22249Y29824D01*
X22300Y29867D01*
X22367Y29875D01*
X22969Y30214D01*
X23010Y30266D01*
X23074Y30287D01*
X23597Y30737D01*
X23628Y30797D01*
X23686Y30830D01*
X24111Y31374D01*
X24129Y31439D01*
X24180Y31483D01*
X24331Y31784D01*
X24331Y31784D01*
X24489Y32091D01*
X24495Y32158D01*
X24537Y32210D01*
X24727Y32874D01*
X24720Y32941D01*
X24751Y33000D01*
X24807Y33689D01*
X24786Y33752D01*
X24805Y33817D01*
X24725Y34503D01*
X24692Y34561D01*
X24697Y34628D01*
X24484Y35285D01*
X24440Y35336D01*
X24433Y35396D01*
X25656Y41179D01*
X25911Y41469D01*
X26550Y42577D01*
X26696Y43007D01*
X26683Y43210D01*
X26877Y43824D01*
X27285Y44025D01*
X27584Y44367D01*
X27807Y44754D01*
X30320D01*
X30711Y44831D01*
X31041Y45052D01*
X34288Y48298D01*
X34288Y48298D01*
X35004D01*
X35665Y48572D01*
X36172Y49079D01*
X36446Y49740D01*
Y50457D01*
X36172Y51118D01*
X35665Y51624D01*
X35138Y51843D01*
X34966Y52359D01*
X34948Y52390D01*
X34941Y52426D01*
X34850Y52562D01*
X34826Y52604D01*
X36138Y55770D01*
X36245Y56312D01*
X36138Y56853D01*
X35831Y57312D01*
X35372Y57619D01*
X33917Y58221D01*
X33376Y58329D01*
X32835Y58221D01*
X32376Y57915D01*
X32204Y57657D01*
X31638Y57891D01*
X31699Y58195D01*
X31591Y58736D01*
X31284Y59195D01*
X30825Y59502D01*
X29371Y60105D01*
X28829Y60212D01*
X28288Y60105D01*
X27829Y59798D01*
X27657Y59540D01*
X27092Y59774D01*
X27152Y60078D01*
X27044Y60620D01*
X26738Y61079D01*
X26279Y61385D01*
X24824Y61988D01*
X24283Y62095D01*
X23741Y61988D01*
X23378Y61745D01*
X22973Y61899D01*
X22797Y62024D01*
X22686Y62581D01*
X22335Y63106D01*
X21810Y63457D01*
X21637Y63529D01*
X20114Y59851D01*
X18590Y56173D01*
X18764Y56101D01*
X19383Y55978D01*
X20002Y56101D01*
X20124Y56183D01*
X20719Y55859D01*
X20717Y55710D01*
X20703Y55704D01*
X20084Y55085D01*
X19749Y54276D01*
Y53401D01*
X20084Y52592D01*
X20703Y51973D01*
X21511Y51639D01*
X22386D01*
X23195Y51973D01*
X23814Y52592D01*
X24149Y53401D01*
Y54276D01*
X24189Y54350D01*
X24471Y54407D01*
X24930Y54713D01*
X25102Y54971D01*
X25667Y54737D01*
X25607Y54433D01*
X25714Y53891D01*
X26021Y53433D01*
X26199Y53314D01*
X26454Y52905D01*
X26407Y52507D01*
X26251Y52130D01*
Y51414D01*
X26251Y51414D01*
X24142Y49305D01*
X23189D01*
X23097Y49450D01*
X22726Y49712D01*
X21737Y50153D01*
X21294Y50253D01*
X20846Y50176D01*
X20462Y49934D01*
X20200Y49563D01*
X19680Y48394D01*
X19580Y47951D01*
X19614Y47750D01*
X19485Y47119D01*
X19101Y46876D01*
X18839Y46506D01*
X18319Y45337D01*
X18234Y44960D01*
X14274Y40571D01*
X14222Y40543D01*
X14155Y40548D01*
X13498Y40334D01*
X13447Y40291D01*
X13381Y40283D01*
X12779Y39944D01*
X12737Y39892D01*
X12674Y39871D01*
X12150Y39421D01*
X12120Y39361D01*
X12061Y39328D01*
X11636Y38783D01*
X11618Y38719D01*
X11568Y38675D01*
X11416Y38373D01*
X11258Y38067D01*
X11252Y38000D01*
X11210Y37948D01*
X11020Y37284D01*
X11027Y37217D01*
X10997Y37158D01*
X10940Y36469D01*
X10961Y36406D01*
X10943Y36341D01*
X11023Y35655D01*
X11055Y35597D01*
X11050Y35530D01*
X11264Y34873D01*
X11307Y34822D01*
X11315Y34755D01*
X11653Y34153D01*
X11706Y34112D01*
X11727Y34048D01*
X12177Y33525D01*
X12237Y33494D01*
X12270Y33436D01*
X12814Y33011D01*
X12879Y32993D01*
X12923Y32942D01*
X12923Y32942D01*
X13231Y32787D01*
X13333Y32780D01*
X13428Y32742D01*
X13428Y32743D01*
X14464Y32215D01*
X14645Y31642D01*
X14281Y30961D01*
X13688Y30872D01*
X10420Y34140D01*
X10019Y34408D01*
X9547Y34502D01*
X-15631D01*
X-17675Y36546D01*
X-17426Y37146D01*
X-12979D01*
X-12740Y37245D01*
X-12680D01*
X-12138Y37470D01*
X-11681D01*
X-11138Y37245D01*
X-11079D01*
X-10840Y37146D01*
X-4416D01*
X-3956Y37336D01*
X-3900Y37393D01*
X-3477Y37568D01*
X-3019D01*
X-2596Y37393D01*
X-2540Y37336D01*
X-2080Y37146D01*
X3331D01*
X3450Y37195D01*
X3579D01*
X4003Y37371D01*
X4461D01*
X4885Y37195D01*
X5015D01*
X5134Y37146D01*
X7080D01*
X7199Y37195D01*
X7329D01*
X7420Y37287D01*
X7539Y37336D01*
X7589Y37455D01*
X7680Y37547D01*
X7686Y37561D01*
X8101Y37976D01*
X8142Y38074D01*
X8258Y38188D01*
X12305Y47654D01*
X12306Y47787D01*
X12357Y47909D01*
X12309Y48025D01*
X12310Y48151D01*
X12233Y48230D01*
Y48232D01*
X12009Y48774D01*
Y49232D01*
X12184Y49655D01*
X12507Y49979D01*
X12930Y50154D01*
X12945D01*
X13061Y50202D01*
X13186Y50200D01*
X13281Y50293D01*
X13404Y50344D01*
X13452Y50460D01*
X13542Y50548D01*
X13966Y51539D01*
X13966Y51608D01*
X14005Y51664D01*
X13969Y51849D01*
X13971Y52036D01*
X14220Y52561D01*
X14294Y52591D01*
X14842Y53140D01*
X15139Y53857D01*
Y54632D01*
X15125Y54666D01*
X15328Y55209D01*
X15464Y55343D01*
X15624Y55448D01*
X15637Y55512D01*
X15683Y55557D01*
X16222Y56816D01*
X16381Y56884D01*
X16933Y56955D01*
X17309Y56704D01*
X17482Y56632D01*
X19005Y60310D01*
X20528Y63988D01*
X20355Y64060D01*
X20001Y64130D01*
X19601Y64721D01*
X19854Y65313D01*
X19857Y65544D01*
X19873Y65774D01*
X19860Y65789D01*
X19860Y65810D01*
X19699Y65975D01*
X19547Y66149D01*
X16260Y67793D01*
X16402Y68393D01*
X16995D01*
X17711Y68690D01*
X18260Y69238D01*
X18557Y69955D01*
Y70731D01*
X18260Y71447D01*
X17711Y71996D01*
X16995Y72293D01*
X16219D01*
X15502Y71996D01*
X14954Y71447D01*
X14657Y70731D01*
Y69955D01*
X14954Y69238D01*
X15196Y68996D01*
X14840Y68503D01*
X12905Y69471D01*
X12752Y70167D01*
X12842Y70256D01*
X13219Y70910D01*
X14458Y73902D01*
X9877Y75800D01*
X5296Y77697D01*
X4057Y74705D01*
X3861Y73976D01*
Y73221D01*
X4057Y72492D01*
X4434Y71838D01*
X4968Y71304D01*
X5450Y71026D01*
X5464Y70904D01*
X5390Y70434D01*
X5371Y70393D01*
X4801Y70157D01*
X4252Y69608D01*
X3955Y68892D01*
Y68116D01*
X4252Y67399D01*
X4801Y66851D01*
X5518Y66554D01*
X6293D01*
X7010Y66851D01*
X7559Y67399D01*
X7856Y68116D01*
Y68892D01*
X7625Y69447D01*
X7998Y69913D01*
X8025Y69932D01*
X9441Y69345D01*
X10170Y69150D01*
X10591D01*
X10987Y68575D01*
X4932Y55412D01*
X4932Y55405D01*
X4927Y55401D01*
X4922Y55158D01*
X4913Y54915D01*
X4434Y54881D01*
X4433Y54880D01*
X4348Y54845D01*
X3717Y54584D01*
X3168Y54035D01*
X2871Y53318D01*
Y52543D01*
X3168Y51826D01*
X3163Y51550D01*
X3150Y51539D01*
X1288Y47490D01*
X1082Y47474D01*
X961Y47557D01*
X576Y48036D01*
Y48597D01*
X279Y49313D01*
X-269Y49862D01*
X-986Y50159D01*
X-1762D01*
X-2478Y49862D01*
X-3027Y49313D01*
X-3324Y48597D01*
Y47821D01*
X-3027Y47104D01*
X-3067Y46719D01*
X-3401Y46219D01*
X-3414Y46154D01*
X-3461Y46107D01*
Y45917D01*
X-3498Y45732D01*
X-3461Y45676D01*
Y45610D01*
X-3377Y45406D01*
Y44948D01*
X-3552Y44525D01*
X-3876Y44202D01*
X-4299Y44027D01*
X-4756D01*
X-5179Y44202D01*
X-5503Y44525D01*
X-5678Y44948D01*
Y45406D01*
X-5594Y45610D01*
Y45676D01*
X-5557Y45732D01*
X-5594Y45917D01*
Y46107D01*
X-5641Y46154D01*
X-5654Y46219D01*
X-5988Y46719D01*
X-6043Y46756D01*
X-6069Y46817D01*
X-6244Y46890D01*
X-6401Y46995D01*
X-6466Y46982D01*
X-6528Y47008D01*
X-16340D01*
X-16799Y46817D01*
X-17035Y46582D01*
X-17458Y46406D01*
X-17915D01*
X-18338Y46582D01*
X-18574Y46817D01*
X-19033Y47008D01*
X-26667D01*
X-28761Y51662D01*
X-28655Y51875D01*
X-28364Y52242D01*
X-27866Y52341D01*
X-27692Y52412D01*
X-29210Y56092D01*
X-30728Y59772D01*
X-30901Y59701D01*
X-31427Y59351D01*
X-31550Y59166D01*
X-31854Y59181D01*
X-32192Y59286D01*
X-32993Y61066D01*
X-33170Y61233D01*
X-33344Y61402D01*
X-33350Y61402D01*
X-33355Y61406D01*
X-33598Y61399D01*
X-33841Y61396D01*
X-35487Y60692D01*
X-36077Y61092D01*
Y61491D01*
X-36374Y62208D01*
X-36923Y62756D01*
X-37639Y63053D01*
X-38415D01*
X-39132Y62756D01*
X-39680Y62208D01*
X-39977Y61491D01*
Y60715D01*
X-39680Y59999D01*
X-39366Y59684D01*
X-39466Y58988D01*
X-40044Y58741D01*
X-40687Y59118D01*
X-40792Y59513D01*
X-42026Y62507D01*
X-46611Y60617D01*
X-51195Y58726D01*
X-49960Y55732D01*
X-49583Y55078D01*
X-49050Y54543D01*
X-48397Y54165D01*
X-47668Y53968D01*
X-47364Y53968D01*
X-46900Y53893D01*
X-46810Y53394D01*
Y53102D01*
X-46513Y52386D01*
X-45965Y51837D01*
X-45926Y51645D01*
X-55326Y42246D01*
X-55375Y42127D01*
X-55467Y42035D01*
Y41906D01*
X-55516Y41787D01*
X-55467Y41667D01*
Y41538D01*
X-55471Y40964D01*
X-55979Y40624D01*
X-56318Y40117D01*
X-56893Y40113D01*
X-57022D01*
X-57141Y40162D01*
X-57448Y40684D01*
X-57449Y40688D01*
X-57383Y40754D01*
X-56980Y41157D01*
X-56683Y41874D01*
Y42649D01*
X-56980Y43366D01*
X-57529Y43915D01*
X-58245Y44212D01*
X-59021D01*
X-59738Y43915D01*
X-60286Y43366D01*
X-60583Y42649D01*
Y41874D01*
X-60286Y41157D01*
X-59738Y40608D01*
X-59021Y40312D01*
X-58245D01*
X-57972Y40425D01*
X-57902Y40454D01*
X-57606Y39980D01*
X-57702Y39870D01*
X-58333Y39239D01*
X-58523Y38780D01*
Y37008D01*
X-58333Y36549D01*
X-57415Y35630D01*
X-58432Y34613D01*
X-58622Y34154D01*
Y21752D01*
X-58432Y21293D01*
X-54888Y17749D01*
X-54429Y17559D01*
X-51476D01*
X-51017Y17749D01*
X-48753Y20013D01*
X-48563Y20472D01*
Y24568D01*
X-47835D01*
X-47330Y24669D01*
X-46903Y24954D01*
X-46617Y25382D01*
X-46517Y25886D01*
Y25975D01*
X-48327D01*
Y27175D01*
X-46517D01*
Y27264D01*
X-46617Y27768D01*
X-46903Y28195D01*
X-47330Y28481D01*
X-47835Y28581D01*
X-48563D01*
Y31578D01*
X-48162Y31866D01*
X-47963Y31936D01*
X-47539Y31852D01*
X-47450Y31852D01*
X-47450Y33661D01*
X-46850Y33661D01*
X-46850Y34261D01*
X-44865Y34262D01*
X-44897Y34423D01*
X-44896Y34432D01*
X-44882Y34480D01*
X-44543Y34916D01*
X-44443Y34980D01*
X-35630D01*
X-35171Y35171D01*
X-33915Y36426D01*
X-33315Y36178D01*
Y35547D01*
X-33230Y35121D01*
X-32989Y34760D01*
X-32936Y34725D01*
X-32972Y34027D01*
X-33133Y33920D01*
X-33419Y33492D01*
X-33497Y33096D01*
X-31512D01*
X-29528D01*
X-29606Y33492D01*
X-29892Y33920D01*
X-29770Y34536D01*
X-29513Y34805D01*
X-28033D01*
X-27940Y34665D01*
X-27855Y34609D01*
Y33895D01*
X-27940Y33839D01*
X-28208Y33438D01*
X-28302Y32965D01*
Y31740D01*
X-28208Y31266D01*
X-27940Y30865D01*
X-27538Y30597D01*
X-27065Y30503D01*
X-25690D01*
X-25217Y30597D01*
X-24816Y30865D01*
X-24548Y31266D01*
X-24454Y31740D01*
Y31915D01*
X-24187Y32093D01*
X-23472Y32808D01*
X-22873Y32559D01*
Y31988D01*
X-22772Y31484D01*
X-22487Y31057D01*
X-22059Y30771D01*
X-21555Y30671D01*
X-21466D01*
Y32480D01*
X-20866D01*
Y33080D01*
X-18881D01*
X-18960Y33477D01*
X-18992Y33524D01*
X-18526Y33907D01*
X-17014Y32395D01*
X-16614Y32128D01*
X-16142Y32034D01*
X9036D01*
X13477Y27593D01*
X34199Y6871D01*
Y-18091D01*
X29636Y-22655D01*
X29368Y-23055D01*
X29274Y-23527D01*
Y-36169D01*
X27557D01*
X27085Y-36263D01*
X26685Y-36531D01*
X23537Y-39679D01*
X23269Y-40079D01*
X23176Y-40551D01*
Y-43234D01*
X23045Y-43321D01*
X23042Y-43326D01*
X20678D01*
X20290Y-42937D01*
X19928Y-42696D01*
X19502Y-42611D01*
X19440Y-42623D01*
X18972Y-42105D01*
X19010Y-41915D01*
X18910Y-41411D01*
X18685Y-41075D01*
X17282Y-42479D01*
X16433Y-41630D01*
X17837Y-40227D01*
X17501Y-40002D01*
X17387Y-39979D01*
X16943Y-39390D01*
X16937Y-39325D01*
Y-29781D01*
X21689Y-25028D01*
X21689Y-25028D01*
X22405D01*
X23067Y-24754D01*
X23573Y-24248D01*
X23847Y-23586D01*
Y-22870D01*
X23573Y-22209D01*
X23067Y-21702D01*
X22405Y-21428D01*
X21689D01*
X21028Y-21702D01*
X20521Y-22209D01*
X20247Y-22870D01*
Y-23586D01*
X20247Y-23586D01*
X15196Y-28638D01*
X14975Y-28968D01*
X14897Y-29359D01*
Y-38959D01*
X14491Y-39365D01*
X13910Y-39098D01*
Y-38041D01*
X13821Y-37596D01*
X13569Y-37218D01*
X13874Y-36701D01*
X14010Y-36498D01*
X14114Y-35974D01*
Y-35935D01*
X12205D01*
Y-35335D01*
X11605D01*
Y-33288D01*
X11191Y-32948D01*
Y-31725D01*
X11496Y-31420D01*
X11793Y-30703D01*
Y-29927D01*
X11496Y-29210D01*
X10947Y-28662D01*
X10230Y-28365D01*
X9455D01*
X8738Y-28662D01*
X8189Y-29210D01*
X7892Y-29927D01*
Y-30703D01*
X7679Y-31023D01*
X7056Y-31156D01*
X6576Y-30813D01*
X6279Y-30096D01*
X5731Y-29548D01*
X5014Y-29251D01*
X4238D01*
X3521Y-29548D01*
X2973Y-30096D01*
X2676Y-30813D01*
Y-31589D01*
X2973Y-32305D01*
X3521Y-32854D01*
X3606Y-32889D01*
Y-35728D01*
X3684Y-36119D01*
X3905Y-36449D01*
X5870Y-38414D01*
Y-39591D01*
X5316Y-39821D01*
X-5144Y-29361D01*
X-5545Y-29094D01*
X-6017Y-29000D01*
X-24562D01*
X-51931Y-1630D01*
Y2370D01*
X-51577Y2725D01*
X-51325Y3102D01*
X-51236Y3547D01*
X-51325Y3993D01*
X-51577Y4370D01*
X-52482Y5275D01*
X-52859Y5527D01*
X-53304Y5616D01*
X-53602Y5914D01*
X-53691Y6359D01*
X-53943Y6737D01*
X-54848Y7641D01*
X-55225Y7894D01*
X-55671Y7982D01*
X-55825Y7952D01*
X-61935Y14062D01*
Y27062D01*
X-61935Y27062D01*
X-62029Y27535D01*
X-62296Y27935D01*
X-62296Y27935D01*
X-63481Y29119D01*
Y29712D01*
X-63778Y30429D01*
X-64326Y30977D01*
X-65043Y31274D01*
X-65819D01*
X-66535Y30977D01*
X-67084Y30429D01*
X-67381Y29712D01*
Y28936D01*
X-67084Y28220D01*
X-67015Y28150D01*
X-67077Y27947D01*
X-67309Y27596D01*
X-67961D01*
X-68678Y27299D01*
X-69227Y26751D01*
X-69524Y26034D01*
Y25258D01*
X-69227Y24542D01*
X-68678Y23993D01*
X-67961Y23696D01*
X-67186D01*
X-66469Y23993D01*
X-65920Y24542D01*
X-65623Y25258D01*
Y26034D01*
X-65904Y26711D01*
X-65763Y27012D01*
X-65612Y27264D01*
X-65146Y27295D01*
X-64403Y26551D01*
Y13551D01*
X-64309Y13079D01*
X-64042Y12678D01*
X-57569Y6207D01*
X-57600Y6053D01*
X-57512Y5608D01*
X-57380Y5411D01*
X-57812Y4978D01*
X-58009Y5110D01*
X-58455Y5198D01*
X-58608Y5168D01*
X-70026Y16585D01*
Y22047D01*
X-70120Y22520D01*
X-70387Y22920D01*
X-73641Y26173D01*
Y26766D01*
X-73937Y27483D01*
X-74486Y28031D01*
X-75203Y28328D01*
X-75978D01*
X-76695Y28031D01*
X-77244Y27483D01*
X-77540Y26766D01*
Y25990D01*
X-77244Y25273D01*
X-76695Y24725D01*
X-75978Y24428D01*
X-75386D01*
X-72494Y21536D01*
Y16820D01*
X-73094Y16571D01*
X-79940Y23417D01*
Y24010D01*
X-80237Y24727D01*
X-80785Y25275D01*
X-81502Y25572D01*
X-82278D01*
X-82994Y25275D01*
X-83543Y24727D01*
X-83840Y24010D01*
Y23234D01*
X-83543Y22517D01*
X-82994Y21969D01*
X-82278Y21672D01*
X-81685D01*
X-64093Y4081D01*
Y2106D01*
X-63999Y1634D01*
X-63732Y1233D01*
X-63137Y639D01*
X-63168Y485D01*
X-63079Y40D01*
X-62827Y-338D01*
X-61922Y-1242D01*
X-61545Y-1495D01*
X-61344Y-1535D01*
X-60983Y-1765D01*
X-60753Y-2126D01*
X-60713Y-2327D01*
X-60461Y-2704D01*
X-59556Y-3609D01*
X-59178Y-3861D01*
X-58733Y-3950D01*
X-58579Y-3919D01*
X-27077Y-35422D01*
X-26832Y-35585D01*
X-27014Y-36185D01*
X-38925D01*
X-54272Y-20839D01*
X-54672Y-20571D01*
X-55144Y-20477D01*
X-55794D01*
X-55919Y-20289D01*
X-56297Y-20037D01*
X-56742Y-19949D01*
X-58022D01*
X-58467Y-20037D01*
X-58637Y-20151D01*
X-59055Y-20243D01*
X-59473Y-20151D01*
X-59643Y-20037D01*
X-60089Y-19949D01*
X-61153D01*
X-61211Y-19937D01*
X-61465D01*
X-65876Y-15526D01*
X-66276Y-15258D01*
X-66748Y-15164D01*
X-71910D01*
X-71910Y-15164D01*
X-72382Y-15258D01*
X-72783Y-15526D01*
X-75996Y-18739D01*
X-81744D01*
X-82164Y-18320D01*
X-82880Y-18023D01*
X-83656D01*
X-84373Y-18320D01*
X-84921Y-18868D01*
X-85144Y-19406D01*
X-85772Y-19354D01*
X-86283Y-17163D01*
X-87221Y-11483D01*
X-87785Y-5754D01*
X-87973Y0D01*
X-87785Y5754D01*
X-87221Y11483D01*
X-86283Y17163D01*
X-84976Y22769D01*
X-83305Y28278D01*
X-81277Y33666D01*
X-79299Y38032D01*
X-79299Y38032D01*
X-79273Y38121D01*
X-79055Y38649D01*
X-79049Y38670D01*
X-78194Y41637D01*
X-77673Y44702D01*
X-77499Y47807D01*
X-77673Y50912D01*
X-78194Y53977D01*
X-79055Y56966D01*
X-80245Y59838D01*
X-81749Y62560D01*
X-83548Y65096D01*
X-85469Y67245D01*
X-85620Y67415D01*
X-85899Y67664D01*
X-86289Y68099D01*
X-87215Y69184D01*
X-88274Y70911D01*
X-89049Y72782D01*
X-89522Y74752D01*
X-89681Y76772D01*
X-89522Y78791D01*
X-89049Y80761D01*
X-88274Y82632D01*
X-87215Y84360D01*
X-85900Y85900D01*
X-84360Y87215D01*
X-82632Y88274D01*
X-80761Y89049D01*
X-78791Y89522D01*
X-76772Y89681D01*
X-74752Y89522D01*
X-72782Y89049D01*
X-70911Y88274D01*
X-69184Y87215D01*
X-68099Y86289D01*
X-67664Y85899D01*
X-67415Y85620D01*
X-67245Y85469D01*
X-65096Y83548D01*
X-62560Y81749D01*
X-59838Y80245D01*
X-56966Y79055D01*
X-53977Y78194D01*
X-50912Y77673D01*
X-49068Y77570D01*
X-48834Y76955D01*
X-48897Y76892D01*
X-49194Y76175D01*
Y75400D01*
X-48897Y74683D01*
X-48349Y74134D01*
X-47632Y73837D01*
X-46856D01*
X-46139Y74134D01*
X-45591Y74683D01*
X-45294Y75400D01*
Y76175D01*
X-45591Y76892D01*
X-45714Y77015D01*
X-45480Y77629D01*
X-44702Y77673D01*
X-41637Y78194D01*
X-38670Y79049D01*
X-38649Y79055D01*
X-38576Y79085D01*
X-38032Y79298D01*
X-38032Y79298D01*
X-37490Y79544D01*
X-33666Y81277D01*
X-28278Y83305D01*
X-22769Y84976D01*
X-17163Y86283D01*
X-11483Y87221D01*
X-5754Y87785D01*
X0Y87973D01*
X5754Y87785D01*
X11483Y87221D01*
X17163Y86283D01*
X22769Y84976D01*
X28278Y83305D01*
X33666Y81277D01*
X38032Y79299D01*
X38032Y79299D01*
X38121Y79273D01*
X38649Y79055D01*
X38670Y79049D01*
X41637Y78194D01*
X44702Y77673D01*
X47807Y77499D01*
X50912Y77673D01*
X53977Y78194D01*
X56966Y79055D01*
X59838Y80245D01*
X62560Y81749D01*
X65096Y83548D01*
X67245Y85469D01*
X67415Y85620D01*
X67664Y85899D01*
X68099Y86289D01*
X69184Y87215D01*
X70911Y88274D01*
X72782Y89049D01*
X74752Y89522D01*
X76772Y89681D01*
X78791Y89522D01*
D02*
G37*
G36*
X19257Y65568D02*
X18692Y64247D01*
X18172Y64302D01*
X18139Y64464D01*
X17789Y64989D01*
X17264Y65340D01*
X17090Y65412D01*
X15567Y61734D01*
X14044Y58056D01*
X14217Y57985D01*
X14836Y57862D01*
X15456Y57985D01*
X15477Y57999D01*
X15879Y57666D01*
X15086Y55812D01*
X14493Y55698D01*
X14294Y55898D01*
X13577Y56195D01*
X12801D01*
X12084Y55898D01*
X11536Y55349D01*
X11239Y54632D01*
Y53857D01*
X11536Y53140D01*
X12084Y52591D01*
X12801Y52294D01*
X13038D01*
X13368Y51794D01*
X12945Y50803D01*
X12801D01*
X12140Y50529D01*
X11633Y50023D01*
X11359Y49361D01*
Y48645D01*
X11633Y47984D01*
X11708Y47909D01*
X7660Y38443D01*
X7642Y38435D01*
X7136Y37929D01*
X7080Y37795D01*
X5134D01*
X4590Y38021D01*
X3874D01*
X3331Y37795D01*
X-2080D01*
X-2228Y37943D01*
X-2890Y38217D01*
X-3606D01*
X-4268Y37943D01*
X-4416Y37795D01*
X-10840D01*
X-10890Y37845D01*
X-11551Y38119D01*
X-12268D01*
X-12929Y37845D01*
X-12979Y37795D01*
X-25051Y37795D01*
X-25217Y37907D01*
X-25690Y38001D01*
X-27065D01*
X-27538Y37907D01*
X-27705Y37795D01*
X-29638D01*
X-29845Y38295D01*
X-29647Y38493D01*
X-29313Y39302D01*
Y40177D01*
X-29647Y40985D01*
X-30266Y41604D01*
X-31075Y41939D01*
X-31950D01*
X-32759Y41604D01*
X-33378Y40985D01*
X-33713Y40177D01*
Y39302D01*
X-33378Y38493D01*
X-33072Y38188D01*
X-35630Y35630D01*
X-44730D01*
X-44997Y36130D01*
X-44944Y36209D01*
X-44866Y36605D01*
X-46850Y36605D01*
X-48835Y36604D01*
X-48757Y36208D01*
X-48704Y36130D01*
X-48971Y35630D01*
X-49672D01*
X-49836Y35794D01*
X-50047Y35882D01*
X-50140Y36252D01*
X-50143Y36446D01*
X-49793Y36971D01*
X-49658Y37648D01*
Y37983D01*
X-53150D01*
X-56641D01*
Y37648D01*
X-56506Y36971D01*
X-56181Y36484D01*
X-56281Y36164D01*
X-56364Y36041D01*
X-56870Y36004D01*
X-57874Y37008D01*
Y38780D01*
X-57141Y39513D01*
X-56641Y39305D01*
Y39183D01*
X-53750D01*
Y41287D01*
X-54660D01*
X-54867Y41787D01*
X-45113Y51540D01*
X-44472D01*
X-43755Y51837D01*
X-43207Y52386D01*
X-42910Y53102D01*
Y53744D01*
X-40730Y55924D01*
X-41170Y57051D01*
X-40981Y57378D01*
X-40903Y57667D01*
X-33585Y60799D01*
X-32744Y58930D01*
X-33094Y58491D01*
X-33375Y58547D01*
X-33995Y58425D01*
X-34168Y58353D01*
X-32650Y54673D01*
X-31133Y50993D01*
X-30959Y51065D01*
X-30434Y51415D01*
X-30121Y51882D01*
X-29858Y51921D01*
X-29580Y51899D01*
X-27087Y46358D01*
X-19033D01*
X-18706Y46031D01*
X-18045Y45757D01*
X-17328D01*
X-16667Y46031D01*
X-16340Y46358D01*
X-6528D01*
X-6194Y45858D01*
X-6328Y45535D01*
Y44819D01*
X-6053Y44157D01*
X-5547Y43651D01*
X-4886Y43377D01*
X-4169D01*
X-3508Y43651D01*
X-3002Y44157D01*
X-2728Y44819D01*
Y45535D01*
X-2861Y45858D01*
X-2527Y46358D01*
X-2002D01*
X-1762Y46259D01*
X-986D01*
X-746Y46358D01*
X1482D01*
X3740Y51267D01*
X4433Y50981D01*
X5209D01*
X5926Y51277D01*
X6474Y51826D01*
X6771Y52543D01*
Y53318D01*
X6474Y54035D01*
X5926Y54584D01*
X5705Y54675D01*
X5522Y55141D01*
X11840Y68875D01*
X12312Y69041D01*
X19257Y65568D01*
D02*
G37*
G36*
X15730Y39954D02*
X16394Y39763D01*
X16700Y39605D01*
X16701Y39605D01*
X13523Y33368D01*
X13214Y33523D01*
X12670Y33948D01*
X12219Y34472D01*
X11881Y35074D01*
X11668Y35730D01*
X11588Y36416D01*
X11644Y37105D01*
X11835Y37769D01*
X11993Y38075D01*
X11993Y38075D01*
X12148Y38384D01*
X12573Y38928D01*
X13097Y39378D01*
X13699Y39717D01*
X14356Y39930D01*
X15042Y40010D01*
X15730Y39954D01*
D02*
G37*
G36*
X41816Y40653D02*
X42484Y40483D01*
X43106Y40187D01*
X43659Y39774D01*
X43889Y39518D01*
X43889Y39518D01*
X44120Y39262D01*
X44472Y38669D01*
X44703Y38019D01*
X44801Y37337D01*
X44765Y36649D01*
X44596Y35980D01*
X44299Y35358D01*
X43886Y34806D01*
X43630Y34575D01*
X43630Y34575D01*
X38946Y39777D01*
X39202Y40008D01*
X39795Y40360D01*
X40445Y40590D01*
X41127Y40689D01*
X41816Y40653D01*
D02*
G37*
G36*
X22533Y36635D02*
X23078Y36210D01*
X23528Y35686D01*
X23866Y35084D01*
X24080Y34427D01*
X24160Y33742D01*
X24103Y33053D01*
X23913Y32389D01*
X23754Y32083D01*
X23754Y32083D01*
X23599Y31774D01*
X23174Y31230D01*
X22650Y30780D01*
X22048Y30441D01*
X21392Y30228D01*
X20706Y30148D01*
X20017Y30204D01*
X19354Y30395D01*
X19047Y30553D01*
X22224Y36790D01*
X22533Y36635D01*
D02*
G37*
G36*
X19047Y30553D02*
X19047Y30553D01*
X19047Y30553D01*
X19047Y30553D01*
D02*
G37*
G36*
X-49213Y34252D02*
Y28299D01*
X-49245Y28293D01*
X-49606Y28051D01*
X-49841Y27700D01*
X-49896Y27690D01*
X-50301D01*
X-50356Y27700D01*
X-50591Y28051D01*
X-50952Y28293D01*
X-51120Y28326D01*
Y26575D01*
Y24824D01*
X-50952Y24857D01*
X-50591Y25098D01*
X-50356Y25450D01*
X-50301Y25460D01*
X-49896D01*
X-49841Y25450D01*
X-49606Y25098D01*
X-49245Y24857D01*
X-49213Y24851D01*
Y20472D01*
X-51476Y18209D01*
X-54429D01*
X-57972Y21752D01*
Y34154D01*
X-56791Y35335D01*
X-50295D01*
X-49213Y34252D01*
D02*
G37*
G36*
X48688Y31249D02*
X49354Y31071D01*
X49972Y30766D01*
X50519Y30346D01*
X50974Y29828D01*
X51146Y29529D01*
X51146Y29529D01*
X51319Y29231D01*
X51540Y28578D01*
X51630Y27894D01*
X51585Y27207D01*
X51407Y26540D01*
X51102Y25922D01*
X50682Y25375D01*
X50164Y24921D01*
X49865Y24748D01*
X49865Y24748D01*
X46365Y30810D01*
X46664Y30983D01*
X47317Y31205D01*
X48000Y31295D01*
X48688Y31249D01*
D02*
G37*
G36*
X49102Y24308D02*
X48804Y24135D01*
X48151Y23914D01*
X47467Y23824D01*
X46779Y23869D01*
X46113Y24047D01*
X45495Y24352D01*
X44948Y24772D01*
X44493Y25290D01*
X44321Y25589D01*
X44321Y25589D01*
X44149Y25887D01*
X43927Y26540D01*
X43837Y27224D01*
X43882Y27912D01*
X44061Y28578D01*
X44366Y29196D01*
X44785Y29743D01*
X45304Y30198D01*
X45602Y30370D01*
X45602Y30370D01*
X49102Y24308D01*
D02*
G37*
G36*
X53458Y20631D02*
X54121Y20444D01*
X54736Y20131D01*
X55277Y19704D01*
X55725Y19180D01*
X56062Y18578D01*
X56168Y18250D01*
X56168Y18250D01*
X56275Y17922D01*
X56356Y17238D01*
X56302Y16550D01*
X56115Y15887D01*
X55801Y15272D01*
X55375Y14731D01*
X54850Y14283D01*
X54249Y13946D01*
X53921Y13840D01*
Y13840D01*
X51758Y20497D01*
X52086Y20604D01*
X52770Y20685D01*
X53458Y20631D01*
D02*
G37*
G36*
X50920Y20225D02*
X53083Y13568D01*
X52755Y13461D01*
X52070Y13380D01*
X51383Y13434D01*
X50720Y13621D01*
X50105Y13934D01*
X49564Y14361D01*
X49116Y14885D01*
X48779Y15487D01*
X48673Y15815D01*
X48673Y15815D01*
X48566Y16143D01*
X48485Y16827D01*
X48539Y17515D01*
X48726Y18178D01*
X49039Y18792D01*
X49466Y19334D01*
X49990Y19782D01*
X50592Y20119D01*
X50920Y20225D01*
X50920Y20225D01*
D02*
G37*
G36*
X55918Y9261D02*
X56579Y9065D01*
X57189Y8744D01*
X57725Y8311D01*
X58166Y7780D01*
X58495Y7175D01*
X58699Y6516D01*
X58735Y6173D01*
X58735Y6173D01*
X58771Y5830D01*
X58708Y5144D01*
X58512Y4483D01*
X58191Y3873D01*
X57757Y3337D01*
X57227Y2896D01*
X56621Y2567D01*
X55963Y2363D01*
X55620Y2327D01*
X55620Y2327D01*
X54888Y9288D01*
X55231Y9324D01*
X55918Y9261D01*
D02*
G37*
G36*
X54012Y9196D02*
X54744Y2235D01*
X54401Y2198D01*
X53715Y2262D01*
X53053Y2457D01*
X52443Y2778D01*
X51907Y3212D01*
X51467Y3742D01*
X51138Y4348D01*
X50933Y5007D01*
X50897Y5350D01*
X50897Y5350D01*
X50861Y5692D01*
X50924Y6379D01*
X51120Y7040D01*
X51441Y7650D01*
X51875Y8186D01*
X52405Y8627D01*
X53011Y8956D01*
X53669Y9160D01*
X54012Y9196D01*
X54012Y9196D01*
D02*
G37*
G36*
X87871Y-3141D02*
X87785Y-5754D01*
X87221Y-11483D01*
X86283Y-17163D01*
X84976Y-22769D01*
X83305Y-28278D01*
X81277Y-33666D01*
X79299Y-38032D01*
X79299Y-38032D01*
X79273Y-38121D01*
X79055Y-38649D01*
X79049Y-38670D01*
X78194Y-41637D01*
X77673Y-44702D01*
X77499Y-47807D01*
X77673Y-50912D01*
X78194Y-53977D01*
X79055Y-56966D01*
X80245Y-59838D01*
X81749Y-62560D01*
X83548Y-65096D01*
X85469Y-67245D01*
X85620Y-67415D01*
X85899Y-67664D01*
X86289Y-68099D01*
X87215Y-69184D01*
X88274Y-70911D01*
X89049Y-72782D01*
X89522Y-74752D01*
X89681Y-76772D01*
X89522Y-78791D01*
X89049Y-80761D01*
X88274Y-82632D01*
X87215Y-84360D01*
X85900Y-85900D01*
X84360Y-87215D01*
X82632Y-88274D01*
X80761Y-89049D01*
X78791Y-89522D01*
X76772Y-89681D01*
X74752Y-89522D01*
X72782Y-89049D01*
X70911Y-88274D01*
X69184Y-87215D01*
X68099Y-86289D01*
X67664Y-85899D01*
X67415Y-85620D01*
X67245Y-85469D01*
X65096Y-83548D01*
X62560Y-81749D01*
X59838Y-80245D01*
X56966Y-79055D01*
X53977Y-78194D01*
X50912Y-77673D01*
X48136Y-77517D01*
X47902Y-76903D01*
X47913Y-76892D01*
X48210Y-76175D01*
Y-75400D01*
X47913Y-74683D01*
X47364Y-74134D01*
X46648Y-73837D01*
X45872D01*
X45155Y-74134D01*
X44607Y-74683D01*
X44310Y-75400D01*
Y-76175D01*
X44607Y-76892D01*
X44782Y-77068D01*
X44745Y-77347D01*
X44563Y-77697D01*
X41637Y-78194D01*
X38670Y-79049D01*
X38649Y-79055D01*
X38576Y-79085D01*
X38032Y-79298D01*
X38032Y-79298D01*
X37490Y-79544D01*
X33666Y-81277D01*
X32435Y-81740D01*
X32419Y-81728D01*
X32039Y-81248D01*
X32265Y-80703D01*
Y-79927D01*
X31968Y-79210D01*
X31420Y-78662D01*
X30703Y-78365D01*
X30110D01*
X28432Y-76687D01*
X28031Y-76419D01*
X27559Y-76325D01*
X24876D01*
X24789Y-76195D01*
X24412Y-75943D01*
X24180Y-75896D01*
Y-75285D01*
X24412Y-75239D01*
X24789Y-74986D01*
X25399Y-75071D01*
X25702Y-75374D01*
X26419Y-75670D01*
X27194D01*
X27911Y-75374D01*
X28460Y-74825D01*
X28756Y-74108D01*
Y-73333D01*
X28460Y-72616D01*
X27911Y-72067D01*
X27725Y-71990D01*
X27844Y-71390D01*
X28888D01*
X29333Y-71302D01*
X29503Y-71188D01*
X29921Y-71096D01*
X30340Y-71188D01*
X30509Y-71302D01*
X30955Y-71390D01*
X32234D01*
X32489Y-71339D01*
X32980Y-71630D01*
X33089Y-71749D01*
Y-72041D01*
X33386Y-72758D01*
X33935Y-73307D01*
X34651Y-73603D01*
X35427D01*
X36144Y-73307D01*
X36693Y-72758D01*
X36989Y-72041D01*
Y-71266D01*
X36693Y-70549D01*
X36144Y-70000D01*
X35427Y-69704D01*
X35020D01*
X34437Y-69120D01*
X34036Y-68853D01*
X33564Y-68759D01*
X33321D01*
X33309Y-68698D01*
X33057Y-68321D01*
X32680Y-68069D01*
X32234Y-67980D01*
X31190D01*
X30931Y-67390D01*
X31300Y-67021D01*
X31597Y-66304D01*
Y-65528D01*
X31300Y-64812D01*
X31223Y-64734D01*
X31397Y-64060D01*
X31410Y-64056D01*
X38306Y-70951D01*
X38706Y-71219D01*
X39178Y-71313D01*
X39178Y-71313D01*
X44021D01*
X44108Y-71443D01*
X44486Y-71695D01*
X44931Y-71784D01*
X46211D01*
X46656Y-71695D01*
X46826Y-71582D01*
X47244Y-71489D01*
X47662Y-71582D01*
X47832Y-71695D01*
X48278Y-71784D01*
X49557D01*
X50002Y-71695D01*
X50380Y-71443D01*
X50467Y-71313D01*
X51181D01*
X51653Y-71219D01*
X52054Y-70951D01*
X63865Y-59140D01*
X63865Y-59140D01*
X64132Y-58740D01*
X64226Y-58268D01*
Y-49330D01*
X74877Y-38679D01*
X75144Y-38279D01*
X75238Y-37807D01*
Y-16823D01*
X75238Y-16823D01*
X75144Y-16351D01*
X74877Y-15951D01*
X72735Y-13809D01*
Y-13124D01*
X73154Y-12705D01*
X73451Y-11988D01*
Y-11212D01*
X73154Y-10496D01*
X72605Y-9947D01*
X72313Y-9826D01*
X72303Y-9468D01*
X72373Y-9201D01*
X73013Y-8936D01*
X73562Y-8388D01*
X73859Y-7671D01*
Y-6895D01*
X73562Y-6178D01*
X73013Y-5630D01*
X72297Y-5333D01*
X71670D01*
X71406Y-4894D01*
X71376Y-4779D01*
X72039Y-4116D01*
X83980D01*
X84380Y-4036D01*
X85045Y-4312D01*
X85821D01*
X86538Y-4015D01*
X87086Y-3467D01*
X87274Y-3012D01*
X87871Y-3141D01*
D02*
G37*
G36*
X55963Y-2363D02*
X56621Y-2567D01*
X57227Y-2896D01*
X57758Y-3337D01*
X58191Y-3873D01*
X58512Y-4483D01*
X58708Y-5144D01*
X58771Y-5830D01*
X58735Y-6173D01*
X58699Y-6516D01*
X58495Y-7175D01*
X58166Y-7780D01*
X57725Y-8311D01*
X57189Y-8744D01*
X56579Y-9065D01*
X55918Y-9261D01*
X55231Y-9324D01*
X54888Y-9288D01*
X54888D01*
X55620Y-2327D01*
X55963Y-2363D01*
D02*
G37*
G36*
X52755Y-13461D02*
X53083Y-13568D01*
X53083Y-13568D01*
X50920Y-20225D01*
X50592Y-20119D01*
X49990Y-19782D01*
X49466Y-19334D01*
X49039Y-18792D01*
X48726Y-18178D01*
X48539Y-17515D01*
X48485Y-16827D01*
X48566Y-16143D01*
X48673Y-15815D01*
X48779Y-15487D01*
X49116Y-14885D01*
X49564Y-14361D01*
X50105Y-13934D01*
X50720Y-13621D01*
X51383Y-13434D01*
X52070Y-13380D01*
X52755Y-13461D01*
D02*
G37*
G36*
X54249Y-13946D02*
X54850Y-14283D01*
X55375Y-14731D01*
X55801Y-15272D01*
X56115Y-15887D01*
X56302Y-16550D01*
X56356Y-17238D01*
X56275Y-17922D01*
X56168Y-18250D01*
X56168Y-18250D01*
X56062Y-18578D01*
X55725Y-19180D01*
X55277Y-19704D01*
X54736Y-20131D01*
X54121Y-20444D01*
X53458Y-20631D01*
X52770Y-20685D01*
X52086Y-20604D01*
X51758Y-20497D01*
X51758Y-20497D01*
X53921Y-13840D01*
X54249Y-13946D01*
D02*
G37*
G36*
X-62848Y-22043D02*
X-62518Y-22264D01*
X-62443Y-22640D01*
X-62191Y-23018D01*
X-61813Y-23270D01*
X-61581Y-23316D01*
Y-23928D01*
X-61813Y-23974D01*
X-62191Y-24226D01*
X-62278Y-24357D01*
X-65423D01*
X-65849Y-23930D01*
X-66566Y-23633D01*
X-67342D01*
X-68058Y-23930D01*
X-68607Y-24479D01*
X-68904Y-25195D01*
Y-25971D01*
X-68607Y-26688D01*
X-68058Y-27236D01*
X-67349Y-27530D01*
X-67326Y-27586D01*
X-67160Y-28133D01*
X-67569Y-28543D01*
X-67866Y-29259D01*
Y-30035D01*
X-67569Y-30752D01*
X-67021Y-31300D01*
X-66304Y-31597D01*
X-65528D01*
X-65463Y-31570D01*
X-65123Y-32079D01*
X-66338Y-33294D01*
X-69247D01*
X-69666Y-32875D01*
X-70383Y-32578D01*
X-71159D01*
X-71876Y-32875D01*
X-72424Y-33423D01*
X-72721Y-34140D01*
Y-34916D01*
X-72424Y-35632D01*
X-71876Y-36181D01*
X-71159Y-36478D01*
X-70383D01*
X-69666Y-36181D01*
X-69247Y-35762D01*
X-65827D01*
X-65355Y-35668D01*
X-64954Y-35400D01*
X-60787Y-31233D01*
X-60089D01*
X-59643Y-31144D01*
X-59473Y-31030D01*
X-59055Y-30938D01*
X-58637Y-31030D01*
X-58467Y-31144D01*
X-58022Y-31233D01*
X-56742D01*
X-56297Y-31144D01*
X-55919Y-30892D01*
X-55832Y-30762D01*
X-53053D01*
X-41882Y-41933D01*
X-41579Y-42135D01*
X-41444Y-42578D01*
X-41420Y-42824D01*
X-45071Y-46475D01*
X-45663D01*
X-46380Y-46772D01*
X-46929Y-47321D01*
X-47226Y-48037D01*
Y-48813D01*
X-46929Y-49530D01*
X-46380Y-50078D01*
X-45663Y-50375D01*
X-44888D01*
X-44171Y-50078D01*
X-43622Y-49530D01*
X-43326Y-48813D01*
Y-48510D01*
X-43101Y-48350D01*
X-42501Y-48659D01*
Y-48813D01*
X-42204Y-49530D01*
X-41993Y-49741D01*
X-42070Y-50090D01*
X-42223Y-50360D01*
X-42598Y-50435D01*
X-42998Y-50702D01*
X-48510Y-56214D01*
X-48778Y-56614D01*
X-48872Y-57087D01*
Y-60163D01*
X-49002Y-60250D01*
X-49254Y-60628D01*
X-49343Y-61073D01*
Y-62352D01*
X-49254Y-62798D01*
X-49141Y-62967D01*
X-49049Y-63386D01*
X-49141Y-63804D01*
X-49254Y-63974D01*
X-49343Y-64419D01*
Y-65699D01*
X-49254Y-66144D01*
X-49002Y-66522D01*
X-48625Y-66774D01*
X-48179Y-66862D01*
X-47096D01*
X-46651Y-66774D01*
X-46392Y-66601D01*
X-46204Y-66530D01*
X-45617Y-66603D01*
X-45281Y-66939D01*
X-44564Y-67236D01*
X-43788D01*
X-43072Y-66939D01*
X-42523Y-66391D01*
X-42226Y-65674D01*
Y-64898D01*
X-42523Y-64181D01*
X-43072Y-63633D01*
X-43788Y-63336D01*
X-44564D01*
X-45281Y-63633D01*
X-45320Y-63672D01*
X-45985Y-63613D01*
X-46199Y-63257D01*
X-46135Y-62967D01*
X-46021Y-62798D01*
X-45933Y-62352D01*
Y-61073D01*
X-46021Y-60628D01*
X-46274Y-60250D01*
X-46404Y-60163D01*
Y-57598D01*
X-41615Y-52809D01*
X-39031D01*
X-38763Y-53390D01*
X-42057Y-56683D01*
X-42649D01*
X-43366Y-56980D01*
X-43915Y-57529D01*
X-44212Y-58245D01*
Y-59021D01*
X-43915Y-59738D01*
X-43366Y-60286D01*
X-42649Y-60583D01*
X-41874D01*
X-41157Y-60286D01*
X-40608Y-59738D01*
X-40312Y-59021D01*
Y-58428D01*
X-38329Y-56445D01*
X-37729Y-56694D01*
Y-57431D01*
X-37640Y-57876D01*
X-37527Y-58046D01*
X-37434Y-58465D01*
X-37527Y-58883D01*
X-37640Y-59053D01*
X-37642Y-59063D01*
X-37831Y-59617D01*
X-38547D01*
X-39209Y-59891D01*
X-39715Y-60398D01*
X-39989Y-61059D01*
Y-61775D01*
X-39715Y-62437D01*
X-39209Y-62943D01*
X-38547Y-63217D01*
X-37831D01*
X-37169Y-62943D01*
X-36663Y-62437D01*
X-36627Y-62349D01*
X-36469D01*
X-36068Y-62950D01*
X-36197Y-63260D01*
Y-64036D01*
X-35900Y-64752D01*
X-35351Y-65301D01*
X-34635Y-65598D01*
X-33859D01*
X-33142Y-65301D01*
X-32594Y-64752D01*
X-32297Y-64036D01*
Y-63260D01*
X-32594Y-62543D01*
X-33142Y-61995D01*
X-33859Y-61698D01*
X-34003D01*
X-34154Y-61521D01*
X-34382Y-61098D01*
X-34319Y-60778D01*
Y-59498D01*
X-34407Y-59053D01*
X-34521Y-58883D01*
X-34613Y-58465D01*
X-34521Y-58046D01*
X-34407Y-57876D01*
X-34319Y-57431D01*
Y-56831D01*
X-32454Y-54966D01*
X-22810D01*
X-22581Y-55521D01*
X-23392Y-56332D01*
X-23583Y-56791D01*
X-23583Y-66043D01*
X-23392Y-66502D01*
X-21128Y-68766D01*
X-20669Y-68957D01*
X-17618D01*
X-17159Y-68766D01*
X-13714Y-65321D01*
X-13714Y-65321D01*
X-12400Y-64007D01*
X-12210Y-63548D01*
Y-63390D01*
X-12162Y-63153D01*
X-12065Y-63007D01*
X-11918Y-62909D01*
X-11681Y-62862D01*
X-11524D01*
X-11065Y-62672D01*
X-10558Y-62165D01*
X-3615D01*
X-3586Y-62185D01*
Y-70539D01*
X-4186Y-70860D01*
X-4668Y-70660D01*
X-5444D01*
X-6161Y-70956D01*
X-6709Y-71505D01*
X-7006Y-72222D01*
Y-72997D01*
X-6709Y-73714D01*
X-6161Y-74263D01*
X-5444Y-74560D01*
X-4668D01*
X-4186Y-74360D01*
X-3586Y-74681D01*
Y-76298D01*
X-3726Y-76392D01*
X-3979Y-76769D01*
X-4067Y-77215D01*
Y-78494D01*
X-3979Y-78939D01*
X-3865Y-79109D01*
X-3773Y-79528D01*
X-3865Y-79946D01*
X-3979Y-80116D01*
X-4067Y-80561D01*
Y-81840D01*
X-3979Y-82286D01*
X-3726Y-82663D01*
X-3596Y-82750D01*
Y-84099D01*
X-3991Y-84493D01*
X-4287Y-85210D01*
Y-85986D01*
X-3991Y-86703D01*
X-3442Y-87251D01*
X-3418Y-87261D01*
X-3547Y-87857D01*
X-5754Y-87785D01*
X-11483Y-87221D01*
X-17163Y-86283D01*
X-22769Y-84976D01*
X-28278Y-83305D01*
X-33666Y-81277D01*
X-38032Y-79299D01*
X-38032Y-79299D01*
X-38121Y-79273D01*
X-38649Y-79055D01*
X-38670Y-79049D01*
X-41637Y-78194D01*
X-44702Y-77673D01*
X-47807Y-77499D01*
X-50912Y-77673D01*
X-53977Y-78194D01*
X-56966Y-79055D01*
X-59838Y-80245D01*
X-62560Y-81749D01*
X-65096Y-83548D01*
X-67245Y-85469D01*
X-67415Y-85620D01*
X-67664Y-85899D01*
X-68099Y-86289D01*
X-69184Y-87215D01*
X-70911Y-88274D01*
X-72782Y-89049D01*
X-74752Y-89522D01*
X-76772Y-89681D01*
X-78791Y-89522D01*
X-80761Y-89049D01*
X-82632Y-88274D01*
X-84360Y-87215D01*
X-85900Y-85900D01*
X-87215Y-84360D01*
X-88274Y-82632D01*
X-89049Y-80761D01*
X-89522Y-78791D01*
X-89681Y-76772D01*
X-89522Y-74752D01*
X-89049Y-72782D01*
X-88274Y-70911D01*
X-87215Y-69184D01*
X-86289Y-68099D01*
X-85899Y-67664D01*
X-85620Y-67415D01*
X-85469Y-67245D01*
X-83548Y-65096D01*
X-81749Y-62560D01*
X-80245Y-59838D01*
X-79055Y-56966D01*
X-78194Y-53977D01*
X-77673Y-50912D01*
X-77499Y-47807D01*
X-77673Y-44702D01*
X-78194Y-41637D01*
X-79049Y-38670D01*
X-79055Y-38649D01*
X-79085Y-38576D01*
X-79298Y-38032D01*
X-79298Y-38032D01*
X-79544Y-37490D01*
X-81277Y-33666D01*
X-83305Y-28278D01*
X-84976Y-22769D01*
X-85249Y-21599D01*
X-84703Y-21295D01*
X-84373Y-21626D01*
X-83656Y-21923D01*
X-82880D01*
X-82164Y-21626D01*
X-81744Y-21207D01*
X-75485D01*
X-75012Y-21113D01*
X-74612Y-20845D01*
X-71399Y-17632D01*
X-67259D01*
X-62848Y-22043D01*
D02*
G37*
G36*
X48151Y-23914D02*
X48804Y-24135D01*
X49102Y-24308D01*
X49102Y-24308D01*
X45602Y-30370D01*
X45304Y-30198D01*
X44785Y-29743D01*
X44366Y-29196D01*
X44061Y-28578D01*
X43882Y-27912D01*
X43837Y-27224D01*
X43927Y-26540D01*
X44149Y-25887D01*
X44321Y-25589D01*
X44321Y-25589D01*
X44493Y-25290D01*
X44948Y-24772D01*
X45495Y-24352D01*
X46113Y-24047D01*
X46779Y-23869D01*
X47467Y-23824D01*
X48151Y-23914D01*
D02*
G37*
G36*
X50164Y-24921D02*
X50682Y-25375D01*
X51102Y-25922D01*
X51407Y-26540D01*
X51585Y-27206D01*
X51630Y-27894D01*
X51540Y-28578D01*
X51319Y-29231D01*
X51146Y-29529D01*
X51146Y-29529D01*
X50974Y-29828D01*
X50519Y-30346D01*
X49972Y-30766D01*
X49354Y-31071D01*
X48688Y-31249D01*
X48000Y-31294D01*
X47317Y-31204D01*
X46664Y-30983D01*
X46365Y-30810D01*
X46365Y-30810D01*
X49865Y-24748D01*
X50164Y-24921D01*
D02*
G37*
G36*
X59652Y-7566D02*
X59666Y-7571D01*
Y-25990D01*
X48040Y-37617D01*
X47773Y-38017D01*
X47679Y-38489D01*
Y-41199D01*
X47624Y-41234D01*
X47079Y-41383D01*
X46689Y-40994D01*
X46027Y-40720D01*
X45311D01*
X44650Y-40994D01*
X44143Y-41500D01*
X43869Y-42162D01*
Y-42878D01*
X44143Y-43539D01*
X44650Y-44046D01*
X45311Y-44320D01*
X45803D01*
X46068Y-44903D01*
X42376Y-48594D01*
X41799Y-48323D01*
X41525Y-47662D01*
X40977Y-47114D01*
X40260Y-46817D01*
X39484D01*
X38767Y-47114D01*
X38219Y-47662D01*
X37922Y-48379D01*
Y-49155D01*
X38219Y-49872D01*
X38337Y-49990D01*
X38088Y-50590D01*
X20614D01*
X20384Y-50035D01*
X21207Y-49213D01*
X22793D01*
X22793Y-49215D01*
X23045Y-49593D01*
X23423Y-49845D01*
X23868Y-49933D01*
X24951D01*
X25396Y-49845D01*
X25774Y-49593D01*
X25841Y-49492D01*
X26466D01*
X26476Y-49508D01*
X26838Y-49749D01*
X27264Y-49834D01*
X28642D01*
X29068Y-49749D01*
X29429Y-49508D01*
X29671Y-49147D01*
X29755Y-48720D01*
Y-47736D01*
X29671Y-47310D01*
X29429Y-46949D01*
X29377Y-46914D01*
X29413Y-46216D01*
X29573Y-46109D01*
X29859Y-45681D01*
X29938Y-45285D01*
X27953D01*
Y-44685D01*
X27353D01*
Y-42875D01*
X27264D01*
X26760Y-42976D01*
X26417Y-43204D01*
X26231Y-43242D01*
X25685Y-42847D01*
X25643Y-42761D01*
Y-41062D01*
X28069Y-38637D01*
X37014D01*
X37036Y-38684D01*
X37086Y-38728D01*
X37102Y-38793D01*
X37515Y-39345D01*
X37572Y-39379D01*
X37601Y-39439D01*
X37857Y-39670D01*
X37998Y-39720D01*
X38065Y-39909D01*
X38075Y-40384D01*
X37647Y-40811D01*
X37373Y-41473D01*
Y-42189D01*
X37647Y-42850D01*
X38154Y-43357D01*
X38815Y-43631D01*
X39531D01*
X40193Y-43357D01*
X40699Y-42850D01*
X40973Y-42189D01*
Y-41919D01*
X40976Y-41895D01*
X41131Y-41429D01*
X41528Y-41319D01*
X41849Y-41302D01*
X41910Y-41273D01*
X41975Y-41283D01*
X42644Y-41113D01*
X42697Y-41073D01*
X42763Y-41070D01*
X43386Y-40773D01*
X43430Y-40723D01*
X43495Y-40707D01*
X44047Y-40295D01*
X44081Y-40237D01*
X44141Y-40209D01*
X44372Y-39953D01*
X44372Y-39953D01*
X44602Y-39696D01*
X44625Y-39634D01*
X44678Y-39594D01*
X45031Y-39001D01*
X45040Y-38936D01*
X45085Y-38886D01*
X45315Y-38236D01*
X45311Y-38170D01*
X45345Y-38113D01*
X45444Y-37430D01*
X45428Y-37366D01*
X45450Y-37303D01*
X45414Y-36615D01*
X45385Y-36555D01*
X45395Y-36489D01*
X45237Y-35865D01*
X48089Y-31939D01*
X48731Y-31897D01*
X48790Y-31868D01*
X48856Y-31877D01*
X49522Y-31698D01*
X49575Y-31658D01*
X49641Y-31653D01*
X50260Y-31348D01*
X50304Y-31298D01*
X50368Y-31281D01*
X50915Y-30861D01*
X50948Y-30804D01*
X51008Y-30774D01*
X51462Y-30256D01*
X51484Y-30193D01*
X51536Y-30153D01*
X51709Y-29854D01*
X51709Y-29854D01*
X51881Y-29556D01*
X51890Y-29490D01*
X51934Y-29440D01*
X52155Y-28787D01*
X52151Y-28720D01*
X52184Y-28663D01*
X52274Y-27979D01*
X52257Y-27915D01*
X52279Y-27852D01*
X52233Y-27164D01*
X52204Y-27104D01*
X52213Y-27038D01*
X52034Y-26372D01*
X51994Y-26320D01*
X51989Y-26253D01*
X51705Y-25676D01*
X53678Y-21243D01*
X54298Y-21069D01*
X54350Y-21027D01*
X54416Y-21022D01*
X55030Y-20709D01*
X55074Y-20659D01*
X55138Y-20641D01*
X55679Y-20214D01*
X55712Y-20156D01*
X55771Y-20125D01*
X56219Y-19601D01*
X56239Y-19538D01*
X56291Y-19497D01*
X56628Y-18895D01*
X56636Y-18829D01*
X56679Y-18779D01*
X56786Y-18451D01*
X56786Y-18451D01*
X56892Y-18123D01*
X56887Y-18057D01*
X56920Y-17999D01*
X57001Y-17314D01*
X56983Y-17250D01*
X57003Y-17187D01*
X56949Y-16499D01*
X56919Y-16440D01*
X56927Y-16374D01*
X56740Y-15710D01*
X56698Y-15658D01*
X56693Y-15592D01*
X56380Y-14978D01*
X56330Y-14934D01*
X56312Y-14870D01*
X55913Y-14365D01*
X56922Y-9619D01*
X57491Y-9319D01*
X57534Y-9268D01*
X57598Y-9249D01*
X58134Y-8815D01*
X58165Y-8757D01*
X58224Y-8726D01*
X58665Y-8196D01*
X58685Y-8132D01*
X58736Y-8090D01*
X59065Y-7485D01*
X59652Y-7566D01*
D02*
G37*
G36*
X41477Y-33172D02*
X42127Y-33402D01*
X42719Y-33755D01*
X42975Y-33985D01*
X42975D01*
X38291Y-39187D01*
X38035Y-38957D01*
X37623Y-38404D01*
X37326Y-37782D01*
X37156Y-37114D01*
X37120Y-36425D01*
X37219Y-35743D01*
X37449Y-35093D01*
X37802Y-34501D01*
X38032Y-34244D01*
X38032Y-34244D01*
X38263Y-33988D01*
X38815Y-33576D01*
X39438Y-33279D01*
X40106Y-33109D01*
X40794Y-33073D01*
X41477Y-33172D01*
D02*
G37*
G36*
X43886Y-34806D02*
X44299Y-35358D01*
X44596Y-35980D01*
X44765Y-36649D01*
X44802Y-37337D01*
X44703Y-38019D01*
X44472Y-38669D01*
X44120Y-39262D01*
X43889Y-39518D01*
X43889Y-39518D01*
X43659Y-39774D01*
X43106Y-40187D01*
X42484Y-40483D01*
X41816Y-40653D01*
X41127Y-40689D01*
X40445Y-40590D01*
X39795Y-40360D01*
X39202Y-40008D01*
X38946Y-39777D01*
X38946Y-39777D01*
X43630Y-34575D01*
X43886Y-34806D01*
D02*
G37*
G36*
X-11166Y-56459D02*
X-10766Y-56727D01*
X-10563Y-56767D01*
X-9967Y-57364D01*
X-9634Y-57586D01*
X-9241Y-57664D01*
X-1774D01*
X-1381Y-57586D01*
X-1049Y-57364D01*
X-386Y-56701D01*
X-21Y-57065D01*
X-167Y-57627D01*
X-392Y-57778D01*
X-3235Y-60620D01*
X-3502Y-61020D01*
X-3596Y-61492D01*
X-3615Y-61516D01*
X-10827D01*
X-11524Y-62213D01*
X-11745D01*
X-12172Y-62297D01*
X-12533Y-62539D01*
X-12774Y-62900D01*
X-12859Y-63326D01*
Y-63548D01*
X-14173Y-64862D01*
X-17618Y-68307D01*
X-20669D01*
X-22933Y-66043D01*
X-22933Y-56791D01*
X-21161Y-55020D01*
X-12606D01*
X-11166Y-56459D01*
D02*
G37*
%LPC*%
G36*
X10044Y83558D02*
X9289D01*
X8560Y83363D01*
X7906Y82985D01*
X7372Y82452D01*
X6995Y81798D01*
X5755Y78806D01*
X9782Y77138D01*
X12128Y82801D01*
X10773Y83363D01*
X10044Y83558D01*
D02*
G37*
G36*
X-10005Y83537D02*
X-10735Y83343D01*
X-12091Y82783D01*
X-9753Y77116D01*
X-5724Y78778D01*
X-6959Y81772D01*
X-7335Y82426D01*
X-7868Y82961D01*
X-8522Y83339D01*
X-9250Y83536D01*
X-10005Y83537D01*
D02*
G37*
G36*
X13237Y82342D02*
X10891Y76679D01*
X14918Y75011D01*
X16157Y78003D01*
X16352Y78732D01*
Y79487D01*
X16157Y80216D01*
X15779Y80870D01*
X15246Y81403D01*
X14592Y81781D01*
X13237Y82342D01*
D02*
G37*
G36*
X-13200Y82326D02*
X-14556Y81766D01*
X-15211Y81390D01*
X-15745Y80857D01*
X-16124Y80204D01*
X-16320Y79475D01*
X-16321Y78720D01*
X-16127Y77991D01*
X-14892Y74997D01*
X-10863Y76659D01*
X-13200Y82326D01*
D02*
G37*
G36*
X50068Y74914D02*
X49292D01*
X48576Y74617D01*
X48027Y74068D01*
X47730Y73351D01*
Y72576D01*
X48027Y71859D01*
X48576Y71310D01*
X49292Y71013D01*
X50068D01*
X50785Y71310D01*
X51333Y71859D01*
X51630Y72576D01*
Y73351D01*
X51333Y74068D01*
X50785Y74617D01*
X50068Y74914D01*
D02*
G37*
G36*
X-5267Y77669D02*
X-9296Y76007D01*
X-6959Y70340D01*
X-5602Y70899D01*
X-4948Y71275D01*
X-4414Y71808D01*
X-4035Y72462D01*
X-3839Y73190D01*
X-3838Y73945D01*
X-4032Y74675D01*
X-5267Y77669D01*
D02*
G37*
G36*
X-741Y73477D02*
X-1517D01*
X-2233Y73180D01*
X-2782Y72631D01*
X-3079Y71915D01*
Y71139D01*
X-2782Y70422D01*
X-2233Y69874D01*
X-1517Y69577D01*
X-741D01*
X-24Y69874D01*
X524Y70422D01*
X821Y71139D01*
Y71915D01*
X524Y72631D01*
X-24Y73180D01*
X-741Y73477D01*
D02*
G37*
G36*
X-10405Y75549D02*
X-14435Y73887D01*
X-13608Y71883D01*
X-14074Y71438D01*
X-14758D01*
X-15475Y71141D01*
X-16023Y70593D01*
X-16320Y69876D01*
Y69100D01*
X-16023Y68384D01*
X-15475Y67835D01*
X-14758Y67538D01*
X-13982D01*
X-13265Y67835D01*
X-12717Y68384D01*
X-12425Y69089D01*
X-12419Y69101D01*
X-11820Y69432D01*
X-11637Y69326D01*
X-10908Y69130D01*
X-10153Y69129D01*
X-9424Y69323D01*
X-8068Y69882D01*
X-10405Y75549D01*
D02*
G37*
G36*
X77593Y87214D02*
X75950D01*
X74326Y86957D01*
X72763Y86449D01*
X71299Y85703D01*
X69969Y84737D01*
X68806Y83574D01*
X67840Y82245D01*
X67094Y80780D01*
X66586Y79217D01*
X66329Y77593D01*
Y75950D01*
X66586Y74326D01*
X67094Y72763D01*
X67840Y71299D01*
X68806Y69969D01*
X69969Y68806D01*
X71299Y67840D01*
X72763Y67094D01*
X74326Y66586D01*
X75950Y66329D01*
X77593D01*
X79217Y66586D01*
X80780Y67094D01*
X82245Y67840D01*
X83574Y68806D01*
X84737Y69969D01*
X85703Y71299D01*
X86449Y72763D01*
X86957Y74326D01*
X87214Y75950D01*
Y77593D01*
X86957Y79217D01*
X86449Y80780D01*
X85703Y82245D01*
X84737Y83574D01*
X83574Y84737D01*
X82245Y85703D01*
X80780Y86449D01*
X79217Y86957D01*
X77593Y87214D01*
D02*
G37*
G36*
X-75950D02*
X-77593D01*
X-79217Y86957D01*
X-80780Y86449D01*
X-82245Y85703D01*
X-83574Y84737D01*
X-84737Y83574D01*
X-85703Y82245D01*
X-86449Y80780D01*
X-86957Y79217D01*
X-87214Y77593D01*
Y75950D01*
X-86957Y74326D01*
X-86449Y72763D01*
X-85703Y71299D01*
X-84737Y69969D01*
X-83574Y68806D01*
X-82245Y67840D01*
X-80780Y67094D01*
X-79217Y66586D01*
X-77593Y66329D01*
X-75950D01*
X-74326Y66586D01*
X-72763Y67094D01*
X-71299Y67840D01*
X-69969Y68806D01*
X-68806Y69969D01*
X-67840Y71299D01*
X-67094Y72763D01*
X-66586Y74326D01*
X-66329Y75950D01*
Y77593D01*
X-66586Y79217D01*
X-67094Y80780D01*
X-67840Y82245D01*
X-68806Y83574D01*
X-69969Y84737D01*
X-71299Y85703D01*
X-72763Y86449D01*
X-74326Y86957D01*
X-75950Y87214D01*
D02*
G37*
G36*
X25885Y69877D02*
X25109D01*
X24393Y69580D01*
X23844Y69031D01*
X23547Y68315D01*
Y67539D01*
X23844Y66822D01*
X24393Y66274D01*
X25109Y65977D01*
X25885D01*
X26602Y66274D01*
X27150Y66822D01*
X27447Y67539D01*
Y68315D01*
X27150Y69031D01*
X26602Y69580D01*
X25885Y69877D01*
D02*
G37*
G36*
X-29259Y67866D02*
X-30035D01*
X-30752Y67569D01*
X-31300Y67021D01*
X-31597Y66304D01*
Y65528D01*
X-31300Y64812D01*
X-30752Y64263D01*
X-30035Y63966D01*
X-29259D01*
X-28543Y64263D01*
X-27994Y64812D01*
X-27697Y65528D01*
Y66304D01*
X-27994Y67021D01*
X-28543Y67569D01*
X-29259Y67866D01*
D02*
G37*
G36*
X-15178Y65849D02*
X-15719Y65742D01*
X-17175Y65141D01*
X-17634Y64835D01*
X-17942Y64377D01*
X-18050Y63836D01*
X-17990Y63532D01*
X-18556Y63298D01*
X-18728Y63556D01*
X-19186Y63864D01*
X-19727Y63972D01*
X-20269Y63865D01*
X-21724Y63265D01*
X-22184Y62959D01*
X-22491Y62500D01*
X-22600Y61959D01*
X-22540Y61655D01*
X-23105Y61422D01*
X-23277Y61680D01*
X-23735Y61987D01*
X-24277Y62096D01*
X-24818Y61989D01*
X-26274Y61388D01*
X-26733Y61083D01*
X-27041Y60624D01*
X-27127Y60196D01*
X-27522Y60019D01*
X-27735Y59983D01*
X-28207Y60299D01*
X-28826Y60423D01*
X-29445Y60301D01*
X-29619Y60229D01*
X-28101Y56550D01*
X-26583Y52869D01*
X-26410Y52941D01*
X-25884Y53291D01*
X-25533Y53816D01*
X-25421Y54373D01*
X-25244Y54497D01*
X-24839Y54650D01*
X-24477Y54407D01*
X-23935Y54299D01*
X-23767Y54332D01*
X-23006Y52755D01*
X-23190Y52312D01*
Y51437D01*
X-22855Y50628D01*
X-22236Y50009D01*
X-21427Y49674D01*
X-20552D01*
X-19743Y50009D01*
X-19125Y50628D01*
X-18790Y51437D01*
Y52312D01*
X-19125Y53120D01*
X-19743Y53739D01*
X-20552Y54074D01*
X-20586D01*
X-21307Y55568D01*
X-21171Y55770D01*
X-21063Y56312D01*
X-21123Y56616D01*
X-20557Y56849D01*
X-20386Y56591D01*
X-19927Y56283D01*
X-19442Y56186D01*
Y55562D01*
X-19145Y54845D01*
X-18596Y54296D01*
X-17880Y54000D01*
X-17104D01*
X-16387Y54296D01*
X-15839Y54845D01*
X-15542Y55562D01*
Y56337D01*
X-15839Y57054D01*
X-16387Y57603D01*
X-16612Y57696D01*
X-16513Y58188D01*
X-16573Y58492D01*
X-16008Y58725D01*
X-15836Y58467D01*
X-15378Y58160D01*
X-14837Y58051D01*
X-14295Y58158D01*
X-13039Y58676D01*
X-12785Y58507D01*
X-12395Y58429D01*
X-11728D01*
X-11693Y58344D01*
X-11144Y57796D01*
X-10427Y57499D01*
X-9651D01*
X-8935Y57796D01*
X-8386Y58344D01*
X-8089Y59061D01*
Y59837D01*
X-8386Y60553D01*
X-8935Y61102D01*
X-9651Y61399D01*
X-10427D01*
X-11144Y61102D01*
X-11499Y60747D01*
X-11547Y60735D01*
X-12157Y60845D01*
X-12174Y60856D01*
X-13872Y64973D01*
X-14178Y65433D01*
X-14637Y65740D01*
X-15178Y65849D01*
D02*
G37*
G36*
X-46765Y68375D02*
X-47495Y68181D01*
X-48851Y67622D01*
X-46513Y61955D01*
X-42484Y63617D01*
X-43719Y66610D01*
X-44095Y67265D01*
X-44628Y67799D01*
X-45281Y68178D01*
X-46010Y68374D01*
X-46765Y68375D01*
D02*
G37*
G36*
X34635Y65598D02*
X33859D01*
X33142Y65301D01*
X32594Y64752D01*
X32297Y64036D01*
Y63260D01*
X32594Y62543D01*
X33142Y61995D01*
X33859Y61698D01*
X34635D01*
X35351Y61995D01*
X35900Y62543D01*
X36197Y63260D01*
Y64036D01*
X35900Y64752D01*
X35351Y65301D01*
X34635Y65598D01*
D02*
G37*
G36*
X42033Y62480D02*
X41515Y61230D01*
X40808Y61089D01*
X40702Y61195D01*
X39986Y61492D01*
X39210D01*
X38493Y61195D01*
X37945Y60646D01*
X37648Y59929D01*
Y59154D01*
X37945Y58437D01*
X38493Y57888D01*
X39210Y57591D01*
X39986D01*
X40216Y57687D01*
X40754Y57422D01*
X40794Y57275D01*
X41171Y56621D01*
X41705Y56087D01*
X42359Y55710D01*
X43714Y55149D01*
X46060Y60812D01*
X42033Y62480D01*
D02*
G37*
G36*
X-49960Y67164D02*
X-51316Y66605D01*
X-51971Y66228D01*
X-52505Y65696D01*
X-52884Y65042D01*
X-53080Y64314D01*
X-53081Y63559D01*
X-52887Y62829D01*
X-51652Y59835D01*
X-47623Y61497D01*
X-49960Y67164D01*
D02*
G37*
G36*
X47168Y60353D02*
X44823Y54689D01*
X46178Y54128D01*
X46907Y53933D01*
X47662D01*
X48391Y54128D01*
X49045Y54505D01*
X49578Y55039D01*
X49956Y55693D01*
X51195Y58685D01*
X47168Y60353D01*
D02*
G37*
G36*
X-52227Y51503D02*
X-53003D01*
X-53720Y51206D01*
X-54268Y50658D01*
X-54565Y49941D01*
Y49165D01*
X-54268Y48449D01*
X-53720Y47900D01*
X-53003Y47603D01*
X-52227D01*
X-51511Y47900D01*
X-50962Y48449D01*
X-50665Y49165D01*
Y49941D01*
X-50962Y50658D01*
X-51511Y51206D01*
X-52227Y51503D01*
D02*
G37*
G36*
X43585Y47797D02*
X42810D01*
X42093Y47501D01*
X41544Y46952D01*
X41247Y46235D01*
Y45459D01*
X41544Y44743D01*
X42093Y44194D01*
X42810Y43897D01*
X43585D01*
X44302Y44194D01*
X44851Y44743D01*
X45147Y45459D01*
Y46235D01*
X44851Y46952D01*
X44302Y47501D01*
X43585Y47797D01*
D02*
G37*
G36*
X56385Y47647D02*
X55609D01*
X54892Y47350D01*
X54344Y46802D01*
X54047Y46085D01*
Y45309D01*
X54344Y44593D01*
X54892Y44044D01*
X55609Y43747D01*
X56385D01*
X57102Y44044D01*
X57650Y44593D01*
X57947Y45309D01*
Y46085D01*
X57650Y46802D01*
X57102Y47350D01*
X56385Y47647D01*
D02*
G37*
G36*
X36733Y38252D02*
X36541Y37851D01*
X36504Y37142D01*
X36652Y36723D01*
X37177Y37195D01*
X37288Y37635D01*
X36733Y38252D01*
D02*
G37*
G36*
X61870Y39947D02*
X61095D01*
X60378Y39650D01*
X59829Y39102D01*
X59532Y38385D01*
Y37609D01*
X59829Y36893D01*
X60378Y36344D01*
X61095Y36047D01*
X61870D01*
X62587Y36344D01*
X63136Y36893D01*
X63433Y37609D01*
Y38385D01*
X63136Y39102D01*
X62587Y39650D01*
X61870Y39947D01*
D02*
G37*
G36*
X37253Y35649D02*
X37099Y35510D01*
X37039Y35386D01*
X37002Y34677D01*
X37150Y34258D01*
X37669Y34724D01*
X37449Y35093D01*
X37253Y35649D01*
D02*
G37*
G36*
X38472Y33833D02*
X37953Y33366D01*
X38355Y33175D01*
X39064Y33138D01*
X39193Y33184D01*
X39347Y33322D01*
X38815Y33576D01*
X38472Y33833D01*
D02*
G37*
G36*
X41326Y33150D02*
X40878Y33085D01*
X40353Y32613D01*
X40754Y32422D01*
X41463Y32384D01*
X41882Y32533D01*
X41326Y33150D01*
D02*
G37*
G36*
X-63260Y36197D02*
X-64036D01*
X-64752Y35900D01*
X-65301Y35351D01*
X-65598Y34635D01*
Y33859D01*
X-65301Y33142D01*
X-64752Y32594D01*
X-64036Y32297D01*
X-63260D01*
X-62543Y32594D01*
X-61995Y33142D01*
X-61698Y33859D01*
Y34635D01*
X-61995Y35351D01*
X-62543Y35900D01*
X-63260Y36197D01*
D02*
G37*
G36*
X-29528Y31896D02*
X-30913D01*
Y30686D01*
X-30823D01*
X-30319Y30787D01*
X-29892Y31072D01*
X-29606Y31500D01*
X-29528Y31896D01*
D02*
G37*
G36*
X-32113D02*
X-33497D01*
X-33419Y31500D01*
X-33133Y31072D01*
X-32706Y30787D01*
X-32201Y30686D01*
X-32113D01*
Y31896D01*
D02*
G37*
G36*
X-18881Y31880D02*
X-20266D01*
Y30671D01*
X-20177D01*
X-19673Y30771D01*
X-19246Y31057D01*
X-18960Y31484D01*
X-18881Y31880D01*
D02*
G37*
G36*
X-44865Y33062D02*
X-46250Y33062D01*
X-46250Y31852D01*
X-46161Y31852D01*
X-45657Y31952D01*
X-45643Y31962D01*
X-45165Y31560D01*
X-45393Y31007D01*
Y30231D01*
X-45097Y29515D01*
X-44548Y28966D01*
X-43831Y28669D01*
X-43056D01*
X-42339Y28966D01*
X-41790Y29515D01*
X-41493Y30231D01*
Y31007D01*
X-41790Y31724D01*
X-42339Y32272D01*
X-43056Y32569D01*
X-43831D01*
X-44461Y32309D01*
X-44767Y32521D01*
X-44935Y32712D01*
X-44865Y33062D01*
D02*
G37*
G36*
X66304Y31597D02*
X65528D01*
X64812Y31300D01*
X64263Y30752D01*
X63966Y30035D01*
Y29259D01*
X64263Y28543D01*
X64812Y27994D01*
X65528Y27697D01*
X66304D01*
X67021Y27994D01*
X67569Y28543D01*
X67866Y29259D01*
Y30035D01*
X67569Y30752D01*
X67021Y31300D01*
X66304Y31597D01*
D02*
G37*
G36*
X-41830Y25265D02*
X-42606D01*
X-43323Y24969D01*
X-43871Y24420D01*
X-44168Y23703D01*
Y22928D01*
X-43871Y22211D01*
X-43323Y21662D01*
X-42606Y21365D01*
X-41830D01*
X-41113Y21662D01*
X-40565Y22211D01*
X-40268Y22928D01*
Y23703D01*
X-40565Y24420D01*
X-41113Y24969D01*
X-41830Y25265D01*
D02*
G37*
G36*
X69610Y22740D02*
X68834D01*
X68117Y22443D01*
X67569Y21894D01*
X67272Y21178D01*
Y20402D01*
X67569Y19685D01*
X68117Y19137D01*
X68834Y18840D01*
X69610D01*
X70327Y19137D01*
X70875Y19685D01*
X71172Y20402D01*
Y21178D01*
X70875Y21894D01*
X70327Y22443D01*
X69610Y22740D01*
D02*
G37*
G36*
X-83274Y18682D02*
X-84049D01*
X-84766Y18385D01*
X-85315Y17837D01*
X-85611Y17120D01*
Y16344D01*
X-85315Y15628D01*
X-84766Y15079D01*
X-84049Y14782D01*
X-83274D01*
X-82557Y15079D01*
X-82008Y15628D01*
X-81711Y16344D01*
Y17120D01*
X-82008Y17837D01*
X-82557Y18385D01*
X-83274Y18682D01*
D02*
G37*
G36*
X62512Y12372D02*
X61736D01*
X61019Y12075D01*
X60471Y11527D01*
X60174Y10810D01*
Y10034D01*
X60471Y9318D01*
X61019Y8769D01*
X61736Y8472D01*
X62512D01*
X63228Y8769D01*
X63777Y9318D01*
X64074Y10034D01*
Y10810D01*
X63777Y11527D01*
X63228Y12075D01*
X62512Y12372D01*
D02*
G37*
G36*
X-71521Y9233D02*
X-72297D01*
X-73013Y8936D01*
X-73562Y8388D01*
X-73859Y7671D01*
Y6895D01*
X-73562Y6178D01*
X-73013Y5630D01*
X-72297Y5333D01*
X-71521D01*
X-70804Y5630D01*
X-70256Y6178D01*
X-69959Y6895D01*
Y7671D01*
X-70256Y8388D01*
X-70804Y8936D01*
X-71521Y9233D01*
D02*
G37*
G36*
X53006Y-1702D02*
X52580Y-1828D01*
X52028Y-2275D01*
X51816Y-2665D01*
X52518Y-2739D01*
X52919Y-2528D01*
X53006Y-1702D01*
D02*
G37*
G36*
X-71856Y-215D02*
X-72632D01*
X-73349Y-512D01*
X-73897Y-1061D01*
X-74194Y-1777D01*
Y-2553D01*
X-73897Y-3270D01*
X-73349Y-3818D01*
X-72632Y-4115D01*
X-71856D01*
X-71139Y-3818D01*
X-70591Y-3270D01*
X-70294Y-2553D01*
Y-1777D01*
X-70591Y-1061D01*
X-71139Y-512D01*
X-71856Y-215D01*
D02*
G37*
G36*
X51213Y-3809D02*
X51081Y-3848D01*
X50529Y-4295D01*
X50317Y-4685D01*
X51010Y-4758D01*
X51138Y-4348D01*
X51419Y-3830D01*
X51213Y-3809D01*
D02*
G37*
G36*
X50191Y-5879D02*
X50318Y-6305D01*
X50765Y-6857D01*
X50886Y-6922D01*
X51092Y-6944D01*
X50924Y-6379D01*
X50885Y-5951D01*
X50191Y-5879D01*
D02*
G37*
G36*
X-41788Y305D02*
X-42464D01*
X-43117Y130D01*
X-43703Y-209D01*
X-44181Y-687D01*
X-44519Y-1272D01*
X-44695Y-1926D01*
Y-2602D01*
X-44519Y-3255D01*
X-44181Y-3841D01*
X-43703Y-4319D01*
X-43146Y-4641D01*
Y-5079D01*
X-43073Y-5446D01*
X-43237Y-5843D01*
Y-6559D01*
X-42963Y-7220D01*
X-42457Y-7727D01*
X-41795Y-8001D01*
X-41079D01*
X-40417Y-7727D01*
X-39911Y-7220D01*
X-39637Y-6559D01*
Y-5843D01*
X-39911Y-5181D01*
X-40252Y-4840D01*
X-40400Y-4581D01*
X-40303Y-4073D01*
X-40071Y-3841D01*
X-39733Y-3255D01*
X-39557Y-2602D01*
Y-1926D01*
X-39733Y-1272D01*
X-40071Y-687D01*
X-40549Y-209D01*
X-41135Y130D01*
X-41788Y305D01*
D02*
G37*
G36*
X51238Y-8166D02*
X51364Y-8592D01*
X51811Y-9144D01*
X52201Y-9356D01*
X52288Y-8530D01*
X51939Y-8240D01*
X51238Y-8166D01*
D02*
G37*
G36*
X-61807Y-8041D02*
X-62583D01*
X-63299Y-8338D01*
X-63848Y-8887D01*
X-64145Y-9603D01*
Y-10379D01*
X-63848Y-11096D01*
X-63299Y-11644D01*
X-62583Y-11941D01*
X-61807D01*
X-61090Y-11644D01*
X-60542Y-11096D01*
X-60245Y-10379D01*
Y-9603D01*
X-60542Y-8887D01*
X-61090Y-8338D01*
X-61807Y-8041D01*
D02*
G37*
G36*
X-70955Y-9627D02*
X-71731D01*
X-72448Y-9923D01*
X-72996Y-10472D01*
X-73293Y-11189D01*
Y-11964D01*
X-72996Y-12681D01*
X-72448Y-13230D01*
X-71731Y-13527D01*
X-70955D01*
X-70239Y-13230D01*
X-69690Y-12681D01*
X-69393Y-11964D01*
Y-11189D01*
X-69690Y-10472D01*
X-70239Y-9923D01*
X-70955Y-9627D01*
D02*
G37*
G36*
X-55416Y-14117D02*
X-56192D01*
X-56909Y-14414D01*
X-57457Y-14962D01*
X-57754Y-15679D01*
Y-16455D01*
X-57457Y-17171D01*
X-56909Y-17720D01*
X-56192Y-18017D01*
X-55416D01*
X-54699Y-17720D01*
X-54151Y-17171D01*
X-53854Y-16455D01*
Y-15679D01*
X-54151Y-14962D01*
X-54699Y-14414D01*
X-55416Y-14117D01*
D02*
G37*
G36*
X-48258Y-19462D02*
X-49034D01*
X-49751Y-19759D01*
X-50299Y-20307D01*
X-50596Y-21024D01*
Y-21800D01*
X-50299Y-22516D01*
X-49751Y-23065D01*
X-49034Y-23362D01*
X-48258D01*
X-47541Y-23065D01*
X-46993Y-22516D01*
X-46696Y-21800D01*
Y-21024D01*
X-46993Y-20307D01*
X-47541Y-19759D01*
X-48258Y-19462D01*
D02*
G37*
G36*
X-40178Y-24134D02*
X-40954D01*
X-41670Y-24431D01*
X-42219Y-24980D01*
X-42516Y-25696D01*
Y-26472D01*
X-42219Y-27189D01*
X-41670Y-27737D01*
X-40954Y-28034D01*
X-40178D01*
X-39461Y-27737D01*
X-38913Y-27189D01*
X-38616Y-26472D01*
Y-25696D01*
X-38913Y-24980D01*
X-39461Y-24431D01*
X-40178Y-24134D01*
D02*
G37*
G36*
X1581Y28159D02*
X-1581D01*
X-4724Y27805D01*
X-7808Y27101D01*
X-10793Y26057D01*
X-13643Y24684D01*
X-16320Y23002D01*
X-18793Y21030D01*
X-21030Y18793D01*
X-23002Y16320D01*
X-24684Y13643D01*
X-26057Y10793D01*
X-27101Y7808D01*
X-27805Y4724D01*
X-28159Y1581D01*
Y-1581D01*
X-27805Y-4724D01*
X-27101Y-7808D01*
X-26057Y-10793D01*
X-24684Y-13643D01*
X-23002Y-16320D01*
X-21030Y-18793D01*
X-18793Y-21030D01*
X-16320Y-23002D01*
X-13643Y-24684D01*
X-10793Y-26057D01*
X-7808Y-27101D01*
X-4724Y-27805D01*
X-1581Y-28159D01*
X1581D01*
X4724Y-27805D01*
X7808Y-27101D01*
X10793Y-26057D01*
X13643Y-24684D01*
X16320Y-23002D01*
X18793Y-21030D01*
X21030Y-18793D01*
X23002Y-16320D01*
X24684Y-13643D01*
X26057Y-10793D01*
X27101Y-7808D01*
X27805Y-4724D01*
X28159Y-1581D01*
Y1581D01*
X27805Y4724D01*
X27101Y7808D01*
X26057Y10793D01*
X24684Y13643D01*
X23002Y16320D01*
X21030Y18793D01*
X18793Y21030D01*
X16320Y23002D01*
X13643Y24684D01*
X10793Y26057D01*
X7808Y27101D01*
X4724Y27805D01*
X1581Y28159D01*
D02*
G37*
G36*
X12805Y-33339D02*
Y-34735D01*
X14114D01*
Y-34695D01*
X14010Y-34172D01*
X13713Y-33728D01*
X13269Y-33431D01*
X12805Y-33339D01*
D02*
G37*
G36*
X15189Y66066D02*
X14570Y65943D01*
X14045Y65592D01*
X13694Y65067D01*
X13020Y63439D01*
X14688Y62748D01*
X15982Y65871D01*
X15809Y65943D01*
X15189Y66066D01*
D02*
G37*
G36*
X12560Y62330D02*
X11886Y60702D01*
X11763Y60083D01*
X11886Y59463D01*
X12237Y58938D01*
X12762Y58587D01*
X12935Y58516D01*
X14229Y61639D01*
X12560Y62330D01*
D02*
G37*
G36*
X-35278Y57896D02*
X-35451Y57824D01*
X-35976Y57474D01*
X-36328Y56950D01*
X-36452Y56330D01*
X-36330Y55711D01*
X-35658Y54082D01*
X-33988Y54770D01*
X-35278Y57896D01*
D02*
G37*
G36*
X-33531Y53661D02*
X-35200Y52972D01*
X-34625Y51576D01*
X-34528Y51343D01*
X-34179Y50818D01*
X-33896Y50628D01*
X-33654Y50466D01*
X-33035Y50342D01*
X-32415Y50464D01*
X-32242Y50536D01*
X-33531Y53661D01*
D02*
G37*
G36*
X-39596Y50390D02*
X-40372D01*
X-41089Y50093D01*
X-41637Y49545D01*
X-41934Y48828D01*
Y48052D01*
X-41637Y47336D01*
X-41089Y46787D01*
X-40372Y46490D01*
X-39596D01*
X-38880Y46787D01*
X-38331Y47336D01*
X-38034Y48052D01*
Y48828D01*
X-38331Y49545D01*
X-38880Y50093D01*
X-39596Y50390D01*
D02*
G37*
G36*
X-51427Y41287D02*
X-52550D01*
Y39183D01*
X-49658D01*
Y39518D01*
X-49793Y40195D01*
X-50176Y40769D01*
X-50750Y41152D01*
X-51427Y41287D01*
D02*
G37*
G36*
X-41832Y41821D02*
X-42608D01*
X-43325Y41524D01*
X-43873Y40976D01*
X-44170Y40259D01*
Y39483D01*
X-43873Y38767D01*
X-43325Y38218D01*
X-42608Y37921D01*
X-41832D01*
X-41115Y38218D01*
X-40567Y38767D01*
X-40270Y39483D01*
Y40259D01*
X-40567Y40976D01*
X-41115Y41524D01*
X-41832Y41821D01*
D02*
G37*
G36*
X-46162Y39014D02*
X-46251Y39014D01*
X-46251Y37805D01*
X-44866Y37805D01*
X-44945Y38201D01*
X-45230Y38629D01*
X-45658Y38914D01*
X-46162Y39014D01*
D02*
G37*
G36*
X-47451Y39014D02*
X-47540Y39014D01*
X-48044Y38914D01*
X-48471Y38628D01*
X-48757Y38201D01*
X-48836Y37804D01*
X-47451Y37805D01*
X-47451Y39014D01*
D02*
G37*
G36*
X-51427Y34784D02*
X-52400D01*
Y33033D01*
X-49862D01*
Y33219D01*
X-49981Y33817D01*
X-50321Y34325D01*
X-50828Y34664D01*
X-51427Y34784D01*
D02*
G37*
G36*
X-53900D02*
X-54872D01*
X-55471Y34664D01*
X-55979Y34325D01*
X-56318Y33817D01*
X-56437Y33219D01*
Y33033D01*
X-53900D01*
Y34784D01*
D02*
G37*
G36*
X-49862Y31533D02*
X-52400D01*
Y29783D01*
X-51427D01*
X-50828Y29902D01*
X-50321Y30242D01*
X-49981Y30749D01*
X-49862Y31348D01*
Y31533D01*
D02*
G37*
G36*
X-53900D02*
X-56437D01*
Y31348D01*
X-56318Y30749D01*
X-55979Y30242D01*
X-55471Y29902D01*
X-54872Y29783D01*
X-53900D01*
Y31533D01*
D02*
G37*
G36*
X-52620Y28326D02*
X-52788Y28293D01*
X-53150Y28051D01*
X-53391Y27690D01*
X-53464Y27325D01*
X-52620D01*
Y28326D01*
D02*
G37*
G36*
Y25825D02*
X-53464D01*
X-53391Y25460D01*
X-53150Y25098D01*
X-52788Y24857D01*
X-52620Y24824D01*
Y25825D01*
D02*
G37*
G36*
X83223Y-14601D02*
X82447D01*
X81731Y-14898D01*
X81182Y-15446D01*
X80885Y-16163D01*
Y-16939D01*
X81182Y-17655D01*
X81731Y-18204D01*
X82447Y-18501D01*
X83223D01*
X83940Y-18204D01*
X84488Y-17655D01*
X84785Y-16939D01*
Y-16163D01*
X84488Y-15446D01*
X83940Y-14898D01*
X83223Y-14601D01*
D02*
G37*
G36*
X77593Y-66329D02*
X75950D01*
X74326Y-66586D01*
X72763Y-67094D01*
X71299Y-67840D01*
X69969Y-68806D01*
X68806Y-69969D01*
X67840Y-71299D01*
X67094Y-72763D01*
X66586Y-74326D01*
X66329Y-75950D01*
Y-77593D01*
X66586Y-79217D01*
X67094Y-80780D01*
X67840Y-82245D01*
X68806Y-83574D01*
X69969Y-84737D01*
X71299Y-85703D01*
X72763Y-86449D01*
X74326Y-86957D01*
X75950Y-87214D01*
X77593D01*
X79217Y-86957D01*
X80780Y-86449D01*
X82245Y-85703D01*
X83574Y-84737D01*
X84737Y-83574D01*
X85703Y-82245D01*
X86449Y-80780D01*
X86957Y-79217D01*
X87214Y-77593D01*
Y-75950D01*
X86957Y-74326D01*
X86449Y-72763D01*
X85703Y-71299D01*
X84737Y-69969D01*
X83574Y-68806D01*
X82245Y-67840D01*
X80780Y-67094D01*
X79217Y-66586D01*
X77593Y-66329D01*
D02*
G37*
G36*
X-68834Y-18840D02*
X-69610D01*
X-70327Y-19137D01*
X-70875Y-19685D01*
X-71172Y-20402D01*
Y-21178D01*
X-70875Y-21894D01*
X-70327Y-22443D01*
X-69610Y-22740D01*
X-68834D01*
X-68117Y-22443D01*
X-67569Y-21894D01*
X-67272Y-21178D01*
Y-20402D01*
X-67569Y-19685D01*
X-68117Y-19137D01*
X-68834Y-18840D01*
D02*
G37*
G36*
X-61095Y-36047D02*
X-61870D01*
X-62587Y-36344D01*
X-63136Y-36893D01*
X-63433Y-37609D01*
Y-38385D01*
X-63136Y-39102D01*
X-62587Y-39650D01*
X-61870Y-39947D01*
X-61095D01*
X-60378Y-39650D01*
X-59829Y-39102D01*
X-59532Y-38385D01*
Y-37609D01*
X-59829Y-36893D01*
X-60378Y-36344D01*
X-61095Y-36047D01*
D02*
G37*
G36*
X-55609Y-43747D02*
X-56385D01*
X-57102Y-44044D01*
X-57650Y-44593D01*
X-57947Y-45309D01*
Y-46085D01*
X-57650Y-46802D01*
X-57102Y-47350D01*
X-56385Y-47647D01*
X-55609D01*
X-54892Y-47350D01*
X-54344Y-46802D01*
X-54047Y-46085D01*
Y-45309D01*
X-54344Y-44593D01*
X-54892Y-44044D01*
X-55609Y-43747D01*
D02*
G37*
G36*
X-26348Y-64510D02*
X-27124D01*
X-27841Y-64807D01*
X-28389Y-65356D01*
X-28686Y-66072D01*
Y-66848D01*
X-28389Y-67565D01*
X-27841Y-68113D01*
X-27124Y-68410D01*
X-26348D01*
X-25631Y-68113D01*
X-25083Y-67565D01*
X-24786Y-66848D01*
Y-66072D01*
X-25083Y-65356D01*
X-25631Y-64807D01*
X-26348Y-64510D01*
D02*
G37*
G36*
X-13953Y-69265D02*
X-14729D01*
X-15445Y-69562D01*
X-15994Y-70111D01*
X-16291Y-70828D01*
Y-71603D01*
X-15994Y-72320D01*
X-15445Y-72869D01*
X-14729Y-73165D01*
X-13953D01*
X-13236Y-72869D01*
X-12688Y-72320D01*
X-12391Y-71603D01*
Y-70828D01*
X-12688Y-70111D01*
X-13236Y-69562D01*
X-13953Y-69265D01*
D02*
G37*
G36*
X-46856Y-72853D02*
X-47632D01*
X-48349Y-73150D01*
X-48897Y-73699D01*
X-49194Y-74415D01*
Y-75191D01*
X-48897Y-75908D01*
X-48349Y-76456D01*
X-47632Y-76753D01*
X-46856D01*
X-46139Y-76456D01*
X-45591Y-75908D01*
X-45294Y-75191D01*
Y-74415D01*
X-45591Y-73699D01*
X-46139Y-73150D01*
X-46856Y-72853D01*
D02*
G37*
G36*
X-75950Y-66329D02*
X-77593D01*
X-79217Y-66586D01*
X-80780Y-67094D01*
X-82245Y-67840D01*
X-83574Y-68806D01*
X-84737Y-69969D01*
X-85703Y-71299D01*
X-86449Y-72763D01*
X-86957Y-74326D01*
X-87214Y-75950D01*
Y-77593D01*
X-86957Y-79217D01*
X-86449Y-80780D01*
X-85703Y-82245D01*
X-84737Y-83574D01*
X-83574Y-84737D01*
X-82245Y-85703D01*
X-80780Y-86449D01*
X-79217Y-86957D01*
X-77593Y-87214D01*
X-75950D01*
X-74326Y-86957D01*
X-72763Y-86449D01*
X-71299Y-85703D01*
X-69969Y-84737D01*
X-68806Y-83574D01*
X-67840Y-82245D01*
X-67094Y-80780D01*
X-66586Y-79217D01*
X-66329Y-77593D01*
Y-75950D01*
X-66586Y-74326D01*
X-67094Y-72763D01*
X-67840Y-71299D01*
X-68806Y-69969D01*
X-69969Y-68806D01*
X-71299Y-67840D01*
X-72763Y-67094D01*
X-74326Y-66586D01*
X-75950Y-66329D01*
D02*
G37*
G36*
X28642Y-42875D02*
X28553D01*
Y-44085D01*
X29938D01*
X29859Y-43689D01*
X29573Y-43261D01*
X29146Y-42976D01*
X28642Y-42875D01*
D02*
G37*
%LPD*%
D10*
X-1774Y-56639D02*
X-1061Y-55927D01*
X-9241Y-56639D02*
X-1774D01*
X-10294Y-55587D02*
X-9241Y-56639D01*
X-7374Y-53387D02*
X-7077Y-53684D01*
X-3627D01*
D62*
X-26650Y36039D02*
G03*
X-26378Y36152I0J385D01*
G01*
X-32965Y-53732D02*
X-12148D01*
X-10294Y-55587D01*
X-35453Y-56221D02*
X-32965Y-53732D01*
X-38809Y-51575D02*
X-37326Y-50091D01*
X-10640D01*
X-42261Y-58633D02*
X-35540Y-51912D01*
X-11394D01*
X-36024Y-56791D02*
Y-56693D01*
X-35551Y-56221D01*
X-35453D01*
X-16142Y33268D02*
X9547D01*
X-20838Y35995D02*
X-18869D01*
X-16142Y33268D01*
X-20866Y36024D02*
X-20838Y35995D01*
X9547Y33268D02*
X14350Y28465D01*
X-8201Y-41060D02*
X-2780Y-46481D01*
X-41009Y-41060D02*
X-8201D01*
X-1712Y-44871D02*
X-1691D01*
X1912Y-43312D02*
Y-43312D01*
X-6531Y-32293D02*
X3851Y-42676D01*
X-25885Y-32293D02*
X-6531D01*
X-6850Y-34549D02*
X574Y-41974D01*
X-6017Y-30233D02*
X5139Y-41389D01*
X-25073Y-30233D02*
X-6017D01*
X-1691Y-44871D02*
X-1283Y-45279D01*
X574Y-41974D02*
X574D01*
X1912Y-43312D01*
X-6555Y-37419D02*
X208Y-44182D01*
X55512Y68012D02*
X62598Y60925D01*
X50984Y68012D02*
X55512D01*
X62598Y49705D02*
Y60925D01*
X24409Y-40551D02*
X27557Y-37403D01*
X24409Y-44560D02*
Y-40551D01*
X41937Y-53354D02*
X50787Y-44503D01*
X48913Y-43803D02*
Y-38489D01*
X41640Y-56224D02*
X52764Y-45101D01*
X50787Y-44503D02*
Y-39764D01*
X41504Y-51211D02*
X48913Y-43803D01*
X-31512Y36039D02*
Y39739D01*
X17619Y-58625D02*
X39390D01*
X42970Y-62205D01*
X15645Y-48603D02*
X17411D01*
X14670Y-49386D02*
X15141Y-48915D01*
X15334D01*
X15645Y-48603D01*
X13686Y-45194D02*
X14213Y-44667D01*
Y-44603D01*
X16406Y-42410D01*
X13686Y-45369D02*
Y-45194D01*
X15770Y-61842D02*
X16361Y-62433D01*
X31532D01*
X17045Y-60543D02*
X32848D01*
X12169Y-46886D02*
X13686Y-45369D01*
X-39436Y-37419D02*
X-6555D01*
X-7343Y-39240D02*
X-1712Y-44871D01*
X16406Y-42410D02*
X16501D01*
X16858Y-42054D01*
X-415Y-62119D02*
X2358Y-59346D01*
X-415Y-75945D02*
Y-62119D01*
X-2362Y-61492D02*
X480Y-58650D01*
X17411Y-48603D02*
X19224Y-46791D01*
X-8565Y-43271D02*
X-4560Y-47276D01*
X-26204Y-34549D02*
X-6850D01*
X-40219Y-39240D02*
X-7343D01*
X-27165Y-43271D02*
X-8565D01*
X42970Y-62205D02*
X45571D01*
X39178Y-70079D02*
X45472D01*
X31532Y-62433D02*
X39178Y-70079D01*
X32848Y-60543D02*
X38576Y-66271D01*
X41886D01*
X11909Y-63583D02*
X17341Y-69015D01*
X21060D01*
X22769Y-65288D02*
X26683Y-69202D01*
X18021Y-56224D02*
X41640D01*
X62721Y-1173D02*
X67863Y3969D01*
Y3980D02*
X70534Y6651D01*
X50787Y-39764D02*
X62721Y-27831D01*
X70534Y7024D02*
X74887Y11376D01*
X62721Y-27831D02*
Y-1173D01*
X74887Y11376D02*
Y34303D01*
X67863Y3969D02*
Y3980D01*
X66535Y42655D02*
X74887Y34303D01*
X70534Y6651D02*
Y7024D01*
X66535Y42655D02*
Y46358D01*
X19224Y-46791D02*
Y-44699D01*
X19502Y-44421D01*
X23937Y-48193D02*
X24000Y-48130D01*
X28020D01*
X4903Y-70651D02*
X11811Y-77559D01*
X4903Y-70651D02*
Y-66131D01*
X-7835Y-52926D02*
X-7374Y-53387D01*
X-7835Y-52926D02*
Y-52896D01*
X-28064Y-45993D02*
X-8731D01*
X-29528Y-43271D02*
X-29407Y-43150D01*
X-9886Y-48271D02*
X-9614Y-48543D01*
X-27286Y-43150D02*
X-27165Y-43271D01*
X-28346Y-45711D02*
X-28064Y-45993D01*
X-10640Y-50091D02*
X-7835Y-52896D01*
X-40121Y-43271D02*
X-29528D01*
X-29407Y-43150D02*
X-27286D01*
X-9614Y-48543D02*
X-9331D01*
X-40433D02*
X-38352D01*
X-38080Y-48271D01*
X-11394Y-51912D02*
X-9655Y-53650D01*
X-38080Y-48271D02*
X-9886D01*
X-45276Y-48425D02*
X-40121Y-43271D01*
X-57324Y-21711D02*
X-55144D01*
X-39436Y-37419D01*
X-53340Y-27707D02*
X-51752D01*
X-55373Y-25674D02*
X-53340Y-27707D01*
X-52542Y-29528D02*
X-41009Y-41060D01*
X-51752Y-27707D02*
X-40219Y-39240D01*
X-57382Y-29528D02*
X-52542D01*
X-55949Y-2230D02*
Y764D01*
X-53165Y-2141D02*
X-25073Y-30233D01*
X-53235Y3617D02*
X-53165Y3547D01*
Y-2141D02*
Y3547D01*
X-55949Y-2230D02*
X-25885Y-32293D01*
X-58733Y-2020D02*
X-26204Y-34549D01*
X-56019Y833D02*
X-55949Y764D01*
X41906Y-66250D02*
X45462D01*
X41886Y-66271D02*
X41906Y-66250D01*
X52764Y-45101D02*
Y-40488D01*
X58661Y-46457D02*
X70363Y-34755D01*
X71501Y-14320D02*
X74004Y-16823D01*
X68725Y-14628D02*
X72184Y-18087D01*
X66886Y-15363D02*
X70363Y-18841D01*
Y-34755D02*
Y-18841D01*
X62992Y-48819D02*
X74004Y-37807D01*
Y-16823D01*
X72184Y-35919D02*
Y-18087D01*
X60725Y-47379D02*
X72184Y-35919D01*
X68725Y-14628D02*
Y-5684D01*
X71527Y-2882D02*
X83980D01*
X66886Y-15363D02*
Y-4410D01*
X66043Y4734D02*
X68714Y7405D01*
X60900Y-419D02*
X66043Y4723D01*
X69684Y3215D02*
Y3226D01*
X72355Y5897D02*
Y6269D01*
X69684Y3226D02*
X72355Y5897D01*
X64541Y-1927D02*
X69684Y3215D01*
X68714Y7405D02*
Y12810D01*
X66043Y4723D02*
Y4734D01*
X64541Y-28711D02*
Y-1927D01*
X60900Y-26501D02*
Y-419D01*
X72355Y6269D02*
X76708Y10622D01*
Y35058D01*
X48913Y-38489D02*
X60900Y-26501D01*
X52764Y-40488D02*
X64541Y-28711D01*
X73067Y17163D02*
Y33549D01*
X68714Y12810D02*
X73067Y17163D01*
X62598Y44017D02*
X73067Y33549D01*
X70472Y41293D02*
X76708Y35058D01*
X62598Y44017D02*
Y46358D01*
X70472Y41293D02*
Y46358D01*
X-25765Y32965D02*
X-25060D01*
X-22376Y35650D01*
X-26378Y32352D02*
X-25765Y32965D01*
X-22376Y35650D02*
X-21240D01*
X-20866Y36024D01*
X-9331Y-48543D02*
X-7639Y-50235D01*
X-8731Y-45993D02*
X-5444Y-49280D01*
X66535Y51985D02*
X71426Y56876D01*
X66535Y49705D02*
Y51985D01*
X70472Y49803D02*
X70955Y50286D01*
X71053D02*
X73130Y52362D01*
X70472Y49705D02*
Y49803D01*
X70955Y50286D02*
X71053D01*
X73130Y52362D02*
X73228D01*
X-71910Y-16398D02*
X-66748D01*
X-83268Y-19973D02*
X-75485D01*
X-71910Y-16398D01*
X-31512Y36039D02*
X-26650D01*
X-57382Y-21654D02*
X-57324Y-21711D01*
X-66748Y-16398D02*
X-61976Y-21171D01*
X-61211D02*
X-60728Y-21654D01*
X-61976Y-21171D02*
X-61211D01*
X6318Y-82677D02*
X22047D01*
X-415Y-75945D02*
X6318Y-82677D01*
X70521Y-776D02*
X76787D01*
X79921Y2358D02*
Y4724D01*
X76787Y-776D02*
X79921Y2358D01*
X66886Y-4410D02*
X70521Y-776D01*
X85146Y-2649D02*
X85433Y-2362D01*
X83980Y-2882D02*
X84213Y-2649D01*
X68725Y-5684D02*
X71527Y-2882D01*
X84213Y-2649D02*
X85146D01*
X-63169Y13551D02*
Y27062D01*
Y13551D02*
X-55601Y5983D01*
X-71260Y16074D02*
X-58455Y3269D01*
X-75590Y26378D02*
X-71260Y22047D01*
Y16074D02*
Y22047D01*
X-65431Y29324D02*
X-63169Y27062D01*
X48917Y-70079D02*
X51181D01*
X62992Y-58268D02*
Y-48819D01*
X51181Y-70079D02*
X62992Y-58268D01*
X48917Y-66142D02*
X51181D01*
X60725Y-56598D02*
Y-47379D01*
X51181Y-66142D02*
X60725Y-56598D01*
X58661Y-54724D02*
Y-46457D01*
X51181Y-62205D02*
X58661Y-54724D01*
X48917Y-62205D02*
X51181D01*
X-57382Y-25591D02*
X-57298Y-25674D01*
X-55373D01*
X-62859Y2106D02*
X-61169Y416D01*
X-81890Y23622D02*
X-62859Y4592D01*
Y2106D02*
Y4592D01*
X-58455Y3269D02*
X-58455D01*
X-65827Y-34528D02*
X-60827Y-29528D01*
X-70771Y-34528D02*
X-65827D01*
X-47638Y-65059D02*
X-44403D01*
X-44176Y-65286D01*
X-47638Y-57087D02*
X-42126Y-51575D01*
X-38809D01*
X-47638Y-61713D02*
Y-57087D01*
X-40551Y-48425D02*
X-40433Y-48543D01*
X-2362Y-85573D02*
X-2338Y-85598D01*
X-2362Y-85573D02*
Y-81201D01*
X31902Y-69993D02*
X33564D01*
X35039Y-71653D02*
Y-71468D01*
X33564Y-69993D02*
X35039Y-71468D01*
X31594Y-69685D02*
X31902Y-69993D01*
X27765Y-69202D02*
X28248Y-69685D01*
X26683Y-69202D02*
X27765D01*
X23327Y-77559D02*
X27559D01*
X30315Y-80315D01*
X26447Y-73622D02*
X26806Y-73981D01*
X26259Y-73433D02*
X26447Y-73622D01*
X26708D01*
X23327D02*
X26447D01*
X26708D02*
X26806Y-73720D01*
X11811Y-77559D02*
X19980D01*
X45462Y-66250D02*
X45571Y-66142D01*
X71501Y-14320D02*
Y-11600D01*
X20185Y-44560D02*
X24409D01*
X30508Y-23527D02*
X35433Y-18602D01*
Y7382D01*
X14350Y28465D02*
X35433Y7382D01*
X37992Y4823D01*
X51085D02*
X51720Y5458D01*
X51928D01*
X37992Y4823D02*
X51085D01*
X17028Y33491D02*
X17335Y34069D01*
X17874Y35079D01*
X14350Y28465D02*
X16510Y32519D01*
X17028Y33491D01*
X13151Y37485D02*
X19727Y44774D01*
X13151Y37485D02*
X13151Y37485D01*
X19727Y44774D02*
X20137Y45228D01*
X22805Y33661D02*
X24627Y42277D01*
X22596Y32673D02*
X23039Y33542D01*
X24627Y42277D02*
X24754Y42875D01*
X24627Y42277D02*
X24627Y42277D01*
X22805Y33661D02*
X23039Y33542D01*
X30508Y-37403D02*
X38304D01*
X27557D02*
X30508D01*
Y-23527D01*
X20046Y-44421D02*
X20185Y-44560D01*
X19502Y-44421D02*
X20046D01*
X-60827Y-29528D02*
X-60728D01*
X-66946Y-25591D02*
X-60728D01*
X-66954Y-25583D02*
X-66946Y-25591D01*
D63*
X13309Y49322D02*
G03*
X13253Y49211I1038J-603D01*
G01*
X-36506Y-60719D02*
X-36024Y-60236D01*
X-37166Y-60719D02*
X-36506D01*
X-37864Y-61417D02*
X-37166Y-60719D01*
X-38189Y-61417D02*
X-37864D01*
X-36024Y-60236D02*
Y-60138D01*
X20310Y62326D02*
X22244Y68110D01*
X19559Y60080D02*
X20310Y62326D01*
X18573Y57890D02*
X18588Y57926D01*
X19559Y60080D01*
X16437Y53150D02*
X18573Y57890D01*
X13159Y49003D02*
X13253Y49211D01*
X18345Y58027D02*
X19559Y60080D01*
X18290Y57896D02*
X18345Y58027D01*
X18701Y-51813D02*
X40903D01*
X41504Y-51211D01*
X13510Y-62281D02*
Y-61935D01*
X13287Y-61713D02*
X13510Y-61935D01*
Y-62281D02*
X16517Y-65288D01*
X9744Y-64567D02*
Y-62697D01*
X9154Y-62106D02*
X9744Y-62697D01*
X-2362Y-77854D02*
Y-61492D01*
X17995Y-54232D02*
X41058D01*
X41937Y-53354D01*
X16517Y-65288D02*
X22769D01*
X9744Y-64567D02*
X18344Y-73167D01*
X19525D01*
X19980Y-73622D01*
D64*
X-21214Y52211D02*
G03*
X-20990Y51874I1348J657D01*
G01*
X22995Y55953D02*
X23033Y56044D01*
X21949Y53839D02*
X22995Y55953D01*
X23033Y56044D02*
X24106Y58197D01*
X-23061Y56033D02*
X-21214Y52211D01*
X-24106Y58197D02*
X-23061Y56033D01*
D65*
X-17724Y56234D02*
G03*
X-17492Y55949I720J349D01*
G01*
X4626Y-35728D02*
Y-31201D01*
Y-35728D02*
X6890Y-37992D01*
X-904Y-49011D02*
X-866Y-48974D01*
X-1829Y-49011D02*
X-904D01*
X-2446Y-48974D02*
X-1867D01*
X-2701Y-46481D02*
X-1327Y-47855D01*
X-2862Y-48974D02*
X-2446D01*
X-866D02*
X1730D01*
X-1867D02*
X-1829Y-49011D01*
X-17Y-46545D02*
X59Y-46620D01*
X-1283Y-45279D02*
X-17Y-46545D01*
X5631Y-41927D02*
Y-41881D01*
X1889Y-43288D02*
X1912Y-43312D01*
X5631Y-41927D02*
X5906Y-42201D01*
X6890Y-41606D02*
Y-37992D01*
X1776Y-43401D02*
X1814Y-43363D01*
X208Y-44182D02*
X1277Y-45251D01*
X5139Y-41389D02*
X5631Y-41881D01*
X1912Y-43312D02*
X3213Y-44612D01*
X59Y-46620D02*
X2159D01*
X-4560Y-47276D02*
X-2862Y-48974D01*
X-3627Y-53684D02*
X-3465Y-53522D01*
X-7639Y-50235D02*
X-6116Y-51758D01*
X-5230D01*
X-41437Y-6201D02*
Y-5768D01*
X-42126Y-5079D02*
Y-2264D01*
Y-5079D02*
X-41437Y-5768D01*
X15917Y-29359D02*
X22047Y-23228D01*
X15917Y-39381D02*
Y-29359D01*
X10171Y-34085D02*
Y-30643D01*
X9767Y-34490D02*
X10171Y-34085D01*
X7821Y-36944D02*
Y-33112D01*
X9843Y-30315D02*
X10171Y-30643D01*
X9767Y-42791D02*
Y-34490D01*
X5906Y-44798D02*
Y-42201D01*
X7821Y-36944D02*
X8337Y-37460D01*
Y-42138D02*
Y-37460D01*
X30320Y45773D02*
X34646Y50098D01*
X26427Y45773D02*
X30320D01*
X24564Y48285D02*
X28051Y51772D01*
X21498Y48285D02*
X24564D01*
X-17492Y55949D02*
X-17492Y55949D01*
X28051Y51772D02*
X28279Y53492D01*
X28653Y56314D01*
X33999Y52036D02*
X34646Y50098D01*
X33631Y52403D02*
X33999Y52036D01*
X33199Y54431D02*
X33631Y52403D01*
X-19557Y60074D02*
X-18884Y58665D01*
X-17724Y56234D01*
X-14896Y61950D02*
X-12395Y59449D01*
X-15007Y61950D02*
X-14896D01*
X-12395Y59449D02*
X-10039D01*
X14666Y-56322D02*
X16968Y-58625D01*
X17619D01*
X18765Y-50213D02*
X20785Y-48193D01*
X23937D01*
X16312Y-50213D02*
X18765D01*
X17028Y-51772D02*
X18659D01*
X18701Y-51813D01*
X16001Y-50525D02*
X16312Y-50213D01*
X14551Y-47304D02*
X15663Y-46193D01*
X14156Y-47304D02*
X14551D01*
X13372Y-48088D02*
X14156Y-47304D01*
X15663Y-46193D02*
X16096D01*
X15727Y-53072D02*
X16888Y-54232D01*
X12865Y-51758D02*
X17014D01*
X11473Y-50366D02*
X12206Y-49633D01*
X15808Y-50525D02*
X16001D01*
X12206Y-49633D02*
X14423D01*
X14254Y-52965D02*
X15621D01*
X17027Y-51771D02*
X17028Y-51772D01*
X14423Y-49633D02*
X14670Y-49386D01*
X15621Y-52965D02*
X15727Y-53072D01*
X17014Y-51758D02*
X17027Y-51771D01*
X11031Y-45747D02*
Y-45495D01*
X12911Y-43615D01*
Y-42388D01*
X8725Y-47416D02*
X9913Y-46227D01*
Y-44624D02*
X11314Y-43223D01*
X9913Y-46227D02*
Y-44630D01*
X11314Y-43223D02*
Y-40266D01*
X8920Y-43637D02*
X9767Y-42791D01*
X9913Y-44630D02*
Y-44624D01*
X7915Y-42561D02*
X8337Y-42138D01*
X7915Y-42631D02*
Y-42561D01*
X9086Y-59773D02*
Y-59713D01*
X10051Y-57295D02*
X11223D01*
X11909Y-63583D02*
Y-62596D01*
X13571Y-55228D02*
X14666Y-56322D01*
X9086Y-59713D02*
Y-59114D01*
X7298Y-57325D02*
X9086Y-59114D01*
X13287Y-61713D02*
Y-61637D01*
X10225Y-58574D02*
X13287Y-61637D01*
X9086Y-59773D02*
X11909Y-62596D01*
X16976Y-60612D02*
X17115D01*
X11363Y-57436D02*
X15770Y-61842D01*
X14666Y-56322D02*
X14666D01*
X10224Y-54634D02*
X10660Y-55071D01*
X12581Y-56218D02*
X16976Y-60612D01*
X13414Y-55071D02*
X13571Y-55228D01*
X10660Y-55071D02*
X13414D01*
X8689Y-55933D02*
X10051Y-57295D01*
X7908Y-60891D02*
X9123Y-62106D01*
X9154D01*
X16888Y-54232D02*
X17995D01*
X16808Y-56224D02*
X18021D01*
X14665Y-54134D02*
X14717D01*
X11473Y-53150D02*
X14070D01*
X14254Y-52965D01*
X14717Y-54134D02*
X16808Y-56224D01*
X10081Y-54542D02*
X10131D01*
X10223Y-54634D01*
X10224D01*
X10081Y-48974D02*
X12169Y-46886D01*
X12911Y-42388D02*
X15917Y-39381D01*
X11314Y-40266D02*
X11816Y-39764D01*
X3213Y-44889D02*
X4514Y-46190D01*
X3213Y-44889D02*
Y-44612D01*
X2159Y-46620D02*
X3120Y-47582D01*
X8725Y-47547D02*
Y-47416D01*
X2358Y-59346D02*
X2912Y-58793D01*
Y-57477D01*
X4029Y-60213D02*
Y-57940D01*
X2380Y-61862D02*
X4029Y-60213D01*
Y-57940D02*
X4421Y-57548D01*
Y-57467D02*
X4514Y-57375D01*
X4421Y-57548D02*
Y-57467D01*
X4514Y-57375D02*
Y-57325D01*
X3122Y-57268D02*
Y-55933D01*
X2912Y-57477D02*
X3122Y-57268D01*
X-67Y-56920D02*
X563Y-56290D01*
X-461Y-57314D02*
X-67Y-56920D01*
X563Y-56290D02*
Y-55839D01*
X1637Y-54764D02*
Y-54684D01*
X1730Y-54591D01*
Y-54542D01*
X563Y-55839D02*
X1637Y-54764D01*
X-8101Y-55233D02*
X-2453D01*
X-1372Y-54153D01*
X-665D02*
X338Y-53150D01*
X-1372Y-54153D02*
X-665D01*
X4903Y-66131D02*
Y-62814D01*
X4922Y-62796D02*
Y-61909D01*
X4903Y-62814D02*
X4922Y-62796D01*
X3120Y-47582D02*
X3122D01*
X8689D02*
X8725Y-47547D01*
X-9655Y-53679D02*
X-8101Y-55233D01*
X2380Y-65047D02*
Y-61862D01*
X5906Y-60999D02*
X6540Y-61633D01*
Y-62259D02*
Y-61633D01*
X-9655Y-53679D02*
Y-53650D01*
X-1783Y-50366D02*
X338D01*
X-3840Y-50367D02*
X-1785D01*
X-1783Y-50366D01*
X-4357Y-50367D02*
X-3840D01*
X-5444Y-49280D02*
X-4357Y-50367D01*
X5906Y-60999D02*
Y-58717D01*
X39370Y-8465D02*
X48130Y295D01*
X55315D01*
X40719Y-39678D02*
Y-39578D01*
X39479Y-40918D02*
X40719Y-39678D01*
X39479Y-41525D02*
Y-40918D01*
X39173Y-41831D02*
X39479Y-41525D01*
X56659Y1639D02*
Y3778D01*
X55315Y295D02*
X56659Y1639D01*
X35827Y-23622D02*
X42734D01*
X44153Y10630D02*
X49658Y16135D01*
X42126Y10630D02*
X44153D01*
X42734Y-23622D02*
X45219Y-26107D01*
X39181Y20069D02*
X45219Y26107D01*
X38967Y20069D02*
X39181D01*
X42913Y-12992D02*
X46516D01*
X49658Y-16135D01*
X54635Y15475D02*
X56206Y8085D01*
X54635Y-15475D02*
X56206Y-8085D01*
X50223Y-26496D02*
X53297Y-19594D01*
X43617Y-36359D02*
X48058Y-30247D01*
X50223Y26496D02*
X53297Y19594D01*
X43617Y36359D02*
X48058Y30247D01*
X26806Y-73981D02*
Y-73720D01*
D66*
X0Y0D02*
D03*
D67*
X76772Y76772D02*
D03*
Y-76772D02*
D03*
X-76772D02*
D03*
Y76772D02*
D03*
D68*
X78740Y-62992D02*
D03*
X76772Y59055D02*
D03*
X74803Y47244D02*
D03*
Y-47244D02*
D03*
Y-55118D02*
D03*
X76772Y-59055D02*
D03*
X74803Y-62992D02*
D03*
X70866Y62992D02*
D03*
X72835Y-51181D02*
D03*
X70866Y-55118D02*
D03*
X72835Y-59055D02*
D03*
X68898Y66929D02*
D03*
Y-59055D02*
D03*
X66929Y-62992D02*
D03*
X68898Y-66929D02*
D03*
X62992Y78740D02*
D03*
X64961Y74803D02*
D03*
X62992Y70866D02*
D03*
X64961Y66929D02*
D03*
X62992Y-62992D02*
D03*
X64961Y-66929D02*
D03*
X62992Y-70866D02*
D03*
X64961Y-74803D02*
D03*
X62992Y-78740D02*
D03*
X61024Y74803D02*
D03*
X59055Y70866D02*
D03*
X61024Y-66929D02*
D03*
X59055Y-70866D02*
D03*
X61024Y-74803D02*
D03*
X57087Y74803D02*
D03*
X55118Y70866D02*
D03*
Y-70866D02*
D03*
X57087Y-74803D02*
D03*
X53150Y74803D02*
D03*
Y-74803D02*
D03*
X39370Y7874D02*
D03*
X41339Y-27559D02*
D03*
X35433Y15748D02*
D03*
X37402Y11811D02*
D03*
X35433Y-31496D02*
D03*
X31496Y15748D02*
D03*
Y0D02*
D03*
Y-7874D02*
D03*
X27559Y31496D02*
D03*
X29528Y27559D02*
D03*
X27559Y23622D02*
D03*
X29528Y19685D02*
D03*
Y3937D02*
D03*
Y-3937D02*
D03*
Y-11811D02*
D03*
Y-19685D02*
D03*
X27559Y-23622D02*
D03*
X25591Y27559D02*
D03*
X23622Y23622D02*
D03*
X21654Y27559D02*
D03*
X-13779D02*
D03*
X-17716D02*
D03*
X-19685Y23622D02*
D03*
X-21653Y82677D02*
D03*
Y27559D02*
D03*
X-23622Y23622D02*
D03*
X-25590Y82677D02*
D03*
X-27559Y23622D02*
D03*
X-25590Y19685D02*
D03*
X-27559Y15748D02*
D03*
X-31496Y23622D02*
D03*
X-29527Y19685D02*
D03*
X-31496Y15748D02*
D03*
X-29527Y11811D02*
D03*
X-31496Y7874D02*
D03*
X-29527Y3937D02*
D03*
X-31496Y0D02*
D03*
X-29527Y-3937D02*
D03*
X-35433Y23622D02*
D03*
X-33464Y19685D02*
D03*
X-35433Y15748D02*
D03*
X-33464Y11811D02*
D03*
X-35433Y7874D02*
D03*
X-33464Y3937D02*
D03*
X-35433Y0D02*
D03*
X-33464Y-3937D02*
D03*
X-37401Y19685D02*
D03*
X-39370Y15748D02*
D03*
X-37401Y11811D02*
D03*
X-39370Y7874D02*
D03*
X-37401Y3937D02*
D03*
X-41338Y11811D02*
D03*
X-43307Y7874D02*
D03*
X-41338Y3937D02*
D03*
X-53149Y74803D02*
D03*
X-55118Y70866D02*
D03*
Y-70866D02*
D03*
X-53149Y-74803D02*
D03*
X-57086Y74803D02*
D03*
X-59055Y70866D02*
D03*
Y-62992D02*
D03*
X-57086Y-66929D02*
D03*
X-59055Y-70866D02*
D03*
X-62992Y78740D02*
D03*
Y70866D02*
D03*
X-61023Y66929D02*
D03*
X-62992Y62992D02*
D03*
Y-62992D02*
D03*
X-61023Y-66929D02*
D03*
X-62992Y-70866D02*
D03*
X-61023Y-74803D02*
D03*
X-62992Y-78740D02*
D03*
X-64960Y74803D02*
D03*
Y66929D02*
D03*
X-66929Y62992D02*
D03*
Y-62992D02*
D03*
X-64960Y-66929D02*
D03*
Y-74803D02*
D03*
X-68897Y66929D02*
D03*
X-70866Y62992D02*
D03*
X-68897Y59055D02*
D03*
X-70866Y55118D02*
D03*
Y-55118D02*
D03*
X-68897Y-59055D02*
D03*
X-70866Y-62992D02*
D03*
X-68897Y-66929D02*
D03*
X-74803Y62992D02*
D03*
X-72834Y59055D02*
D03*
X-74803Y55118D02*
D03*
X-72834Y51181D02*
D03*
X-74803Y47244D02*
D03*
Y-47244D02*
D03*
X-72834Y-51181D02*
D03*
X-74803Y-55118D02*
D03*
X-72834Y-59055D02*
D03*
X-74803Y-62992D02*
D03*
X-78740Y62992D02*
D03*
X-76771Y59055D02*
D03*
X-78740Y-62992D02*
D03*
X-25197Y-56595D02*
D03*
X-32165Y-58189D02*
D03*
X-27748Y-56259D02*
D03*
X-31137Y-64151D02*
D03*
X-8407Y50001D02*
D03*
X-4528Y45177D02*
D03*
X4232Y36220D02*
D03*
X-3248Y36417D02*
D03*
X-11909Y36319D02*
D03*
X8661Y36909D02*
D03*
X-22933Y67126D02*
D03*
X-17686Y47557D02*
D03*
X-26969Y51968D02*
D03*
X22244Y68110D02*
D03*
X16437Y53150D02*
D03*
X13159Y49003D02*
D03*
X-41437Y-6201D02*
D03*
X23228Y-36220D02*
D03*
X19291D02*
D03*
X21260Y-38189D02*
D03*
X29134Y-40551D02*
D03*
X45669Y-42520D02*
D03*
X70866Y-63386D02*
D03*
X28051Y51772D02*
D03*
X34646Y50098D02*
D03*
X16096Y-46193D02*
D03*
X-8268Y-70866D02*
D03*
X-32283Y28346D02*
D03*
X-28346D02*
D03*
X0Y-31496D02*
D03*
X39370Y-3937D02*
D03*
Y1181D02*
D03*
X32677Y-48819D02*
D03*
X32283Y-43701D02*
D03*
X33465Y-40551D02*
D03*
X-60236Y74410D02*
D03*
X76378Y62205D02*
D03*
X-56299Y-75984D02*
D03*
X-75984Y-57874D02*
D03*
X-38189Y-61417D02*
D03*
X39370Y-8465D02*
D03*
X22047Y-23228D02*
D03*
X39173Y-41831D02*
D03*
X-52085Y19397D02*
D03*
X-51233Y21705D02*
D03*
X-55512Y24213D02*
D03*
X-56402Y21890D02*
D03*
X5297Y22215D02*
D03*
X10656Y20200D02*
D03*
X15344Y16915D02*
D03*
X19069Y12568D02*
D03*
X21595Y7431D02*
D03*
X22765Y1827D02*
D03*
X22504Y-3892D02*
D03*
X20829Y-9366D02*
D03*
X17845Y-14252D02*
D03*
X13740Y-18242D02*
D03*
X8772Y-21086D02*
D03*
X3252Y-22605D02*
D03*
X-2471Y-22704D02*
D03*
X-8040Y-21376D02*
D03*
X-13103Y-18705D02*
D03*
X-17344Y-14859D02*
D03*
X-20494Y-10079D02*
D03*
X-22356Y-4665D02*
D03*
X-22814Y1041D02*
D03*
X-21839Y6682D02*
D03*
X-19491Y11903D02*
D03*
X-15918Y16376D02*
D03*
X-11346Y19820D02*
D03*
X-6060Y22019D02*
D03*
X-394Y22835D02*
D03*
D69*
X-21404Y-64625D02*
D03*
X-26736Y-66460D02*
D03*
X4626Y-31201D02*
D03*
X50984Y68012D02*
D03*
X49680Y72964D02*
D03*
X39598Y59541D02*
D03*
X-14370Y69488D02*
D03*
X7821Y-33112D02*
D03*
X9843Y-30315D02*
D03*
X52615Y-49553D02*
D03*
X13189Y54245D02*
D03*
X-17492Y55949D02*
D03*
X-10039Y59449D02*
D03*
X-5056Y-72610D02*
D03*
X7480Y-65748D02*
D03*
X2380Y-65047D02*
D03*
X-28346Y-45711D02*
D03*
X5906Y68504D02*
D03*
X-1129Y71527D02*
D03*
X-44860Y53490D02*
D03*
X-39984Y48440D02*
D03*
X-40551Y-48425D02*
D03*
X39872Y-48767D02*
D03*
X-2338Y-85598D02*
D03*
X43198Y45847D02*
D03*
X-15945Y-64764D02*
D03*
X-20177Y-66929D02*
D03*
X-18799Y-64665D02*
D03*
X-14341Y-71215D02*
D03*
X35827Y-23622D02*
D03*
X42126Y10630D02*
D03*
X38967Y20069D02*
D03*
X42913Y-12992D02*
D03*
X58661Y13386D02*
D03*
X43731Y-20336D02*
D03*
X43035Y-31191D02*
D03*
X48425Y21654D02*
D03*
X4821Y52930D02*
D03*
X-44176Y-65286D02*
D03*
X21060Y-69015D02*
D03*
X22047Y-82677D02*
D03*
X-45276Y-48425D02*
D03*
X67573Y-25646D02*
D03*
X-40566Y-26084D02*
D03*
X-70771Y-34528D02*
D03*
X-66954Y-25583D02*
D03*
X-83268Y-19973D02*
D03*
X-65431Y29324D02*
D03*
X-75590Y26378D02*
D03*
X-81890Y23622D02*
D03*
X71434Y56867D02*
D03*
X73228Y52362D02*
D03*
X79921Y4724D02*
D03*
X85433Y-2362D02*
D03*
X71501Y-11600D02*
D03*
X30315Y-80315D02*
D03*
X26806Y-73720D02*
D03*
X40410Y26325D02*
D03*
X35039Y-71653D02*
D03*
X-42218Y23315D02*
D03*
X-1374Y48209D02*
D03*
X25497Y67927D02*
D03*
X-42220Y39871D02*
D03*
X-48646Y-21412D02*
D03*
X-55804Y-16067D02*
D03*
X-43444Y30619D02*
D03*
X-62195Y-9991D02*
D03*
X62124Y10422D02*
D03*
X-47244Y-74803D02*
D03*
X-83661Y16732D02*
D03*
X-47244Y75787D02*
D03*
X82835Y-16551D02*
D03*
X46260Y-75787D02*
D03*
X65916Y29647D02*
D03*
X-42261Y-58633D02*
D03*
X-55997Y-45697D02*
D03*
X-65916Y-29647D02*
D03*
X-71343Y-11577D02*
D03*
X-71909Y7283D02*
D03*
X-67573Y25646D02*
D03*
X-58633Y42261D02*
D03*
X-29647Y65916D02*
D03*
X55997Y45697D02*
D03*
X71343Y11577D02*
D03*
X71909Y-7283D02*
D03*
X58633Y-42261D02*
D03*
X45697Y-55997D02*
D03*
X29647Y-65916D02*
D03*
X11577Y-71343D02*
D03*
X-61483Y-37997D02*
D03*
X-69222Y-20790D02*
D03*
X-34247Y-63648D02*
D03*
X-72244Y-2165D02*
D03*
X-63648Y34247D02*
D03*
X-52615Y49553D02*
D03*
X-38027Y61103D02*
D03*
X16607Y70343D02*
D03*
X34247Y63648D02*
D03*
X61483Y37997D02*
D03*
X69222Y20790D02*
D03*
X72244Y2165D02*
D03*
X63648Y-34247D02*
D03*
X37997Y-61483D02*
D03*
X2165Y-72244D02*
D03*
D70*
X21949Y53839D02*
D03*
X-31512Y39739D02*
D03*
X-20990Y51874D02*
D03*
D71*
X84465Y77684D02*
D03*
X83578Y72898D02*
D03*
X80047Y69547D02*
D03*
X75221Y68911D02*
D03*
X70942Y71234D02*
D03*
X68846Y75627D02*
D03*
X69733Y80414D02*
D03*
X73264Y83765D02*
D03*
X78091Y84401D02*
D03*
X82369Y82078D02*
D03*
X77684Y-84465D02*
D03*
X72898Y-83578D02*
D03*
X69547Y-80047D02*
D03*
X68911Y-75221D02*
D03*
X71234Y-70942D02*
D03*
X75627Y-68846D02*
D03*
X80414Y-69733D02*
D03*
X83765Y-73264D02*
D03*
X84401Y-78091D02*
D03*
X82078Y-82369D02*
D03*
X-84465Y-77684D02*
D03*
X-83578Y-72898D02*
D03*
X-80047Y-69547D02*
D03*
X-75221Y-68911D02*
D03*
X-70942Y-71234D02*
D03*
X-68846Y-75627D02*
D03*
X-69733Y-80414D02*
D03*
X-73264Y-83765D02*
D03*
X-78091Y-84401D02*
D03*
X-82369Y-82078D02*
D03*
X-82078Y82369D02*
D03*
X-84401Y78091D02*
D03*
X-83765Y73264D02*
D03*
X-80414Y69733D02*
D03*
X-75627Y68846D02*
D03*
X-71234Y70942D02*
D03*
X-68911Y75221D02*
D03*
X-69547Y80047D02*
D03*
X-72898Y83578D02*
D03*
X-77684Y84465D02*
D03*
D73*
X-17913Y-60236D02*
D03*
X-26969Y-60236D02*
D03*
D74*
X13151Y37485D02*
D03*
X22596Y32673D02*
D03*
D75*
X17874Y35079D02*
D03*
D76*
X52974Y7745D02*
D03*
X53427Y3438D02*
D03*
X51928Y5458D02*
D03*
X56659Y3778D02*
D03*
X56206Y8085D02*
D03*
X57705Y6065D02*
D03*
X43119Y-38825D02*
D03*
X43617Y-36359D02*
D03*
X40719Y-39578D02*
D03*
X38802Y-34938D02*
D03*
X38304Y-37403D02*
D03*
X41202Y-34185D02*
D03*
X38304Y37403D02*
D03*
X41202Y34185D02*
D03*
X38802Y34938D02*
D03*
X43617Y36359D02*
D03*
X40719Y39578D02*
D03*
X43119Y38825D02*
D03*
X45244Y28622D02*
D03*
X47409Y24871D02*
D03*
X45219Y26107D02*
D03*
X50223Y26496D02*
D03*
X48058Y30247D02*
D03*
X50249Y29011D02*
D03*
X50206Y18590D02*
D03*
X51544Y14471D02*
D03*
X49658Y16135D02*
D03*
X54635Y15475D02*
D03*
X53297Y19594D02*
D03*
X55183Y17930D02*
D03*
X57705Y-6065D02*
D03*
X56659Y-3778D02*
D03*
X56206Y-8085D02*
D03*
X51928Y-5458D02*
D03*
X52974Y-7745D02*
D03*
X53427Y-3438D02*
D03*
X55183Y-17930D02*
D03*
X54635Y-15475D02*
D03*
X53297Y-19594D02*
D03*
X49658Y-16135D02*
D03*
X50206Y-18590D02*
D03*
X51544Y-14471D02*
D03*
X50249Y-29011D02*
D03*
X50223Y-26496D02*
D03*
X48058Y-30247D02*
D03*
X45219Y-26107D02*
D03*
X45244Y-28622D02*
D03*
X47409Y-24871D02*
D03*
D77*
X-47638Y-65059D02*
D03*
Y-61713D02*
D03*
X24409Y-44783D02*
D03*
Y-48130D02*
D03*
X12205Y-38681D02*
D03*
Y-35335D02*
D03*
X70472Y49705D02*
D03*
Y46358D02*
D03*
X66535Y49705D02*
D03*
Y46358D02*
D03*
X62598Y49705D02*
D03*
X62598Y46358D02*
D03*
X-36024Y-60138D02*
D03*
Y-56791D02*
D03*
X-2362Y-81201D02*
D03*
Y-77854D02*
D03*
D78*
X-42126Y-2264D02*
D03*
D79*
X46844Y61137D02*
D03*
X10107Y76354D02*
D03*
D80*
X33199Y54431D02*
D03*
X28653Y56314D02*
D03*
X24106Y58197D02*
D03*
X19559Y60080D02*
D03*
X15013Y61964D02*
D03*
D81*
X-53150Y38583D02*
D03*
Y32283D02*
D03*
D82*
X-26378Y32352D02*
D03*
X-26378Y36152D02*
D03*
D83*
X-20866Y32480D02*
D03*
X-20866Y36024D02*
D03*
X-11056Y-63818D02*
D03*
X-11056Y-60275D02*
D03*
X-6299Y-63976D02*
D03*
X-6299Y-60433D02*
D03*
X27953Y-44685D02*
D03*
X27953Y-48228D02*
D03*
X-31512Y32496D02*
D03*
Y36039D02*
D03*
D84*
X12865Y-51758D02*
D03*
X11473Y-50366D02*
D03*
X-1054Y-51758D02*
D03*
X338Y-53150D02*
D03*
X1730Y-54542D02*
D03*
X3122Y-55933D02*
D03*
X4514Y-57325D02*
D03*
X5906Y-58717D02*
D03*
X338Y-50366D02*
D03*
X1730Y-51758D02*
D03*
X3122Y-53150D02*
D03*
X4514Y-54541D02*
D03*
X5906Y-55933D02*
D03*
X7298Y-57325D02*
D03*
X1730Y-48974D02*
D03*
X3122Y-50366D02*
D03*
X4514Y-51758D02*
D03*
X5906Y-53150D02*
D03*
X7298Y-54541D02*
D03*
X8689Y-55933D02*
D03*
X3122Y-47582D02*
D03*
X4514Y-48974D02*
D03*
X5906Y-50366D02*
D03*
X7298Y-51758D02*
D03*
X8689Y-53150D02*
D03*
X10081Y-54542D02*
D03*
X4514Y-46190D02*
D03*
X5906Y-47582D02*
D03*
X7298Y-48974D02*
D03*
X8689Y-50366D02*
D03*
X10081Y-51758D02*
D03*
X11473Y-53150D02*
D03*
X5906Y-44798D02*
D03*
X7298Y-46190D02*
D03*
X8689Y-47582D02*
D03*
X10081Y-48974D02*
D03*
D85*
X16858Y-42054D02*
D03*
X19363Y-44560D02*
D03*
D86*
X-10079Y76333D02*
D03*
X-46839Y61171D02*
D03*
D87*
X-15007Y61950D02*
D03*
X-19557Y60074D02*
D03*
X-24106Y58197D02*
D03*
X-28655Y56321D02*
D03*
X-33205Y54444D02*
D03*
D88*
X19980Y-73622D02*
D03*
X23327D02*
D03*
Y-77559D02*
D03*
X19980D02*
D03*
X31594Y-69685D02*
D03*
X28248D02*
D03*
X48917Y-70079D02*
D03*
X45571D02*
D03*
X48917Y-66142D02*
D03*
X45571D02*
D03*
X48917Y-62205D02*
D03*
X45571D02*
D03*
X-60728Y-25591D02*
D03*
X-57382D02*
D03*
X-60728Y-21654D02*
D03*
X-57382D02*
D03*
X-60728Y-29528D02*
D03*
X-57382D02*
D03*
D89*
X20137Y45228D02*
D03*
X21498Y48285D02*
D03*
D90*
X24754Y42875D02*
D03*
X26427Y45773D02*
D03*
D91*
X-46850Y33661D02*
D03*
X-46851Y37205D02*
D03*
D92*
X-48327Y26575D02*
D03*
X-51870D02*
D03*
D93*
X-55601Y5983D02*
D03*
X-53235Y3617D02*
D03*
X-61169Y416D02*
D03*
X-58803Y-1951D02*
D03*
X-58385Y3199D02*
D03*
X-56019Y833D02*
D03*
D94*
X6313Y-57733D02*
X7315Y-58735D01*
X-1287Y-47894D02*
X2042D01*
X3851Y-42676D02*
X4921Y-43746D01*
Y-45206D02*
Y-43746D01*
X-3465Y-53522D02*
X-2987Y-53044D01*
X11961Y-48486D02*
X12974D01*
X13372Y-48088D01*
X10117Y-50331D02*
X11961Y-48486D01*
X12706Y-50525D02*
X15808D01*
X11473Y-51758D02*
X12706Y-50525D01*
X11031Y-46633D02*
Y-45747D01*
X8777Y-43780D02*
X8920Y-43637D01*
X8777Y-46102D02*
Y-43780D01*
X7298Y-46140D02*
X7915Y-45523D01*
Y-42631D01*
X1277Y-45251D02*
X2183D01*
X4514Y-47582D01*
X9938Y-58574D02*
X10225D01*
X10146Y-55998D02*
X12361D01*
X12581Y-56218D01*
X7333Y-55969D02*
X9938Y-58574D01*
X7315Y-60298D02*
X7908Y-60891D01*
X10081Y-53150D02*
X11066Y-54134D01*
X14665D01*
X7315Y-60298D02*
Y-58735D01*
X7333Y-50331D02*
X11031Y-46633D01*
X7333Y-51722D02*
Y-50331D01*
X7298Y-51758D02*
X7333Y-51722D01*
X5906Y-48974D02*
X6890Y-47989D01*
X6890Y-45206D02*
Y-41606D01*
X7705Y-47174D02*
X8777Y-46102D01*
X7298Y-46190D02*
Y-46140D01*
X4922Y-61909D02*
Y-59125D01*
X4921Y-59125D02*
X4922Y-59125D01*
X4921Y-59125D02*
Y-58310D01*
X5498Y-57733D01*
X307Y-54559D02*
X321D01*
X-1061Y-55927D02*
X307Y-54559D01*
X1071Y-58059D02*
X2137Y-56993D01*
Y-55526D01*
X321Y-54559D02*
X3122Y-51758D01*
X6313Y-45782D02*
X6890Y-45206D01*
X-949Y-53044D02*
X338Y-51758D01*
X-2987Y-53044D02*
X-949D01*
X2137Y-55526D02*
X3122Y-54542D01*
X4549Y-55969D02*
X5498Y-56918D01*
X6890Y-47989D02*
Y-47174D01*
X6313Y-46598D02*
X6890Y-47174D01*
X6313Y-46598D02*
Y-45782D01*
X2042Y-47894D02*
X3122Y-48974D01*
Y-54542D02*
Y-53150D01*
X7333Y-55969D02*
Y-54577D01*
X7298Y-53150D02*
X10146Y-55998D01*
X7298Y-54541D02*
X7333Y-54577D01*
X3122Y-51758D02*
X4514D01*
X4921Y-45206D02*
X5498Y-45782D01*
Y-47174D02*
X5906Y-47582D01*
X5498Y-47174D02*
Y-45782D01*
X5906Y-53150D02*
X7298D01*
X8689D02*
X10081D01*
X4514Y-48974D02*
Y-47582D01*
X3122Y-50366D02*
Y-48974D01*
X5498Y-57733D02*
Y-56918D01*
X8725Y-50331D02*
X10117D01*
X8689Y-50366D02*
X8725Y-50331D01*
X7298Y-48924D02*
X7705Y-48516D01*
X7298Y-48974D02*
Y-48924D01*
X7705Y-48516D02*
Y-47174D01*
X5906Y-50366D02*
Y-48974D01*
X10081Y-51758D02*
X11473D01*
X6313Y-57733D02*
Y-56341D01*
X5906Y-55933D02*
X6313Y-56341D01*
X338Y-51758D02*
X1730D01*
X4514Y-54541D02*
X4549Y-54577D01*
Y-55969D02*
Y-54577D01*
D95*
X-5230Y-51758D02*
X-1054D01*
D96*
X480Y-58650D02*
X1071Y-58059D01*
D97*
X7382Y-65748D02*
Y-65232D01*
X6540Y-64390D02*
X7382Y-65232D01*
X6540Y-64390D02*
Y-62259D01*
M02*
