G04*
G04 #@! TF.GenerationSoftware,Altium Limited,Altium Designer,21.9.2 (33)*
G04*
G04 Layer_Physical_Order=3*
G04 Layer_Color=16440176*
%FSLAX25Y25*%
%MOIN*%
G70*
G04*
G04 #@! TF.SameCoordinates,A2EF98D1-1A14-4516-B8CD-8696FD8A9C0B*
G04*
G04*
G04 #@! TF.FilePolarity,Positive*
G04*
G01*
G75*
%ADD62C,0.01221*%
%ADD64C,0.01500*%
%ADD65C,0.00800*%
%ADD68C,0.02400*%
%ADD69C,0.02700*%
%ADD70C,0.03200*%
%ADD72C,0.01221*%
G36*
X78791Y89522D02*
X80761Y89049D01*
X82632Y88274D01*
X84360Y87215D01*
X85900Y85900D01*
X87215Y84360D01*
X88274Y82632D01*
X89049Y80761D01*
X89522Y78791D01*
X89681Y76772D01*
X89522Y74752D01*
X89049Y72782D01*
X88274Y70911D01*
X87215Y69184D01*
X86226Y68026D01*
X85899Y67664D01*
X85620Y67415D01*
X85538Y67322D01*
X83548Y65096D01*
X81749Y62560D01*
X80245Y59838D01*
X79055Y56966D01*
X78194Y53977D01*
X77673Y50912D01*
X77499Y47807D01*
X77673Y44702D01*
X78194Y41637D01*
X79055Y38649D01*
X79123Y38485D01*
X79298Y38032D01*
X79298Y38032D01*
X79503Y37581D01*
X81277Y33666D01*
X83305Y28278D01*
X84976Y22769D01*
X86283Y17163D01*
X87221Y11483D01*
X87785Y5754D01*
X87973Y0D01*
X87785Y-5754D01*
X87221Y-11483D01*
X86283Y-17163D01*
X84976Y-22769D01*
X83305Y-28278D01*
X81277Y-33666D01*
X79299Y-38032D01*
X79299D01*
X79273Y-38121D01*
X79273Y-38121D01*
X79055Y-38649D01*
X78194Y-41637D01*
X77673Y-44702D01*
X77499Y-47807D01*
X77673Y-50912D01*
X78194Y-53977D01*
X79055Y-56966D01*
X80245Y-59838D01*
X81749Y-62560D01*
X83548Y-65096D01*
X85538Y-67322D01*
X85620Y-67415D01*
X85899Y-67664D01*
X86226Y-68026D01*
X87215Y-69184D01*
X88274Y-70911D01*
X89049Y-72782D01*
X89522Y-74752D01*
X89681Y-76772D01*
X89522Y-78791D01*
X89049Y-80761D01*
X88274Y-82632D01*
X87215Y-84360D01*
X85900Y-85900D01*
X84360Y-87215D01*
X82632Y-88274D01*
X80761Y-89049D01*
X78791Y-89522D01*
X76772Y-89681D01*
X74752Y-89522D01*
X72782Y-89049D01*
X70911Y-88274D01*
X69184Y-87215D01*
X68026Y-86226D01*
X67664Y-85899D01*
X67415Y-85620D01*
X67322Y-85538D01*
X65096Y-83548D01*
X62560Y-81749D01*
X59838Y-80245D01*
X56966Y-79055D01*
X53977Y-78194D01*
X50912Y-77673D01*
X48002Y-77510D01*
X47799Y-77038D01*
X47799Y-77006D01*
X47913Y-76892D01*
X48210Y-76175D01*
Y-75400D01*
X47913Y-74683D01*
X47364Y-74134D01*
X46648Y-73837D01*
X46558D01*
X39822Y-62174D01*
X39947Y-61870D01*
Y-61095D01*
X39650Y-60378D01*
X39102Y-59829D01*
X38385Y-59532D01*
X37609D01*
X36893Y-59829D01*
X36344Y-60378D01*
X36047Y-61095D01*
Y-61870D01*
X36344Y-62587D01*
X36893Y-63136D01*
X37609Y-63433D01*
X37699D01*
X44436Y-75096D01*
X44310Y-75400D01*
Y-76175D01*
X44607Y-76892D01*
X44877Y-77162D01*
X44717Y-77628D01*
X44684Y-77676D01*
X41637Y-78194D01*
X38649Y-79055D01*
X38485Y-79123D01*
X38032Y-79298D01*
X38032Y-79298D01*
X37581Y-79503D01*
X33666Y-81277D01*
X32306Y-81788D01*
X32066Y-81526D01*
X31987Y-81375D01*
X32265Y-80703D01*
Y-79927D01*
X31968Y-79210D01*
X31420Y-78662D01*
X30703Y-78365D01*
X29927D01*
X29210Y-78662D01*
X28662Y-79210D01*
X28365Y-79927D01*
Y-80703D01*
X28662Y-81419D01*
X29210Y-81968D01*
X29781Y-82205D01*
X29813Y-82727D01*
X28278Y-83305D01*
X23259Y-84827D01*
X23090Y-84356D01*
X23152Y-84330D01*
X23700Y-83782D01*
X23997Y-83065D01*
Y-82289D01*
X23700Y-81573D01*
X23152Y-81024D01*
X22435Y-80727D01*
X21659D01*
X20943Y-81024D01*
X20394Y-81573D01*
X20097Y-82289D01*
Y-83065D01*
X20394Y-83782D01*
X20943Y-84330D01*
X21659Y-84627D01*
X22062D01*
X22119Y-85127D01*
X17163Y-86283D01*
X11483Y-87221D01*
X5754Y-87785D01*
X0Y-87973D01*
X-1548Y-87923D01*
X-1639Y-87419D01*
X-1233Y-87251D01*
X-684Y-86703D01*
X-387Y-85986D01*
Y-85210D01*
X-684Y-84493D01*
X-1233Y-83945D01*
X-1950Y-83648D01*
X-2725D01*
X-3442Y-83945D01*
X-3991Y-84493D01*
X-4287Y-85210D01*
Y-85986D01*
X-3991Y-86703D01*
X-3442Y-87251D01*
X-3156Y-87370D01*
X-3263Y-87866D01*
X-5754Y-87785D01*
X-11483Y-87221D01*
X-17163Y-86283D01*
X-22769Y-84976D01*
X-28278Y-83305D01*
X-33666Y-81277D01*
X-38032Y-79299D01*
Y-79299D01*
X-38121Y-79273D01*
X-38121Y-79273D01*
X-38649Y-79055D01*
X-41637Y-78194D01*
X-44702Y-77673D01*
X-47807Y-77499D01*
X-50912Y-77673D01*
X-53977Y-78194D01*
X-56966Y-79055D01*
X-59838Y-80245D01*
X-62560Y-81749D01*
X-65096Y-83548D01*
X-67322Y-85538D01*
X-67415Y-85620D01*
X-67664Y-85899D01*
X-68026Y-86226D01*
X-69184Y-87215D01*
X-70911Y-88274D01*
X-72782Y-89049D01*
X-74752Y-89522D01*
X-76772Y-89681D01*
X-78791Y-89522D01*
X-80761Y-89049D01*
X-82632Y-88274D01*
X-84360Y-87215D01*
X-85900Y-85900D01*
X-87215Y-84360D01*
X-88274Y-82632D01*
X-89049Y-80761D01*
X-89522Y-78791D01*
X-89681Y-76772D01*
X-89522Y-74752D01*
X-89049Y-72782D01*
X-88274Y-70911D01*
X-87215Y-69184D01*
X-86226Y-68026D01*
X-85899Y-67664D01*
X-85620Y-67415D01*
X-85538Y-67322D01*
X-83548Y-65096D01*
X-81749Y-62560D01*
X-80245Y-59838D01*
X-79055Y-56966D01*
X-78194Y-53977D01*
X-77673Y-50912D01*
X-77499Y-47807D01*
X-77673Y-44702D01*
X-78194Y-41637D01*
X-79055Y-38649D01*
X-79123Y-38485D01*
X-79298Y-38032D01*
X-79298Y-38032D01*
X-79503Y-37581D01*
X-81277Y-33666D01*
X-83305Y-28278D01*
X-84976Y-22769D01*
X-85304Y-21359D01*
X-84837Y-21162D01*
X-84373Y-21626D01*
X-83656Y-21923D01*
X-82880D01*
X-82164Y-21626D01*
X-81615Y-21078D01*
X-81318Y-20361D01*
Y-19585D01*
X-81615Y-18868D01*
X-82164Y-18320D01*
X-82880Y-18023D01*
X-83656D01*
X-84373Y-18320D01*
X-84921Y-18868D01*
X-85210Y-19565D01*
X-85249Y-19580D01*
X-85724Y-19561D01*
X-86283Y-17163D01*
X-87221Y-11483D01*
X-87785Y-5754D01*
X-87973Y0D01*
X-87785Y5754D01*
X-87221Y11483D01*
X-86283Y17163D01*
X-84976Y22769D01*
X-83305Y28278D01*
X-81277Y33666D01*
X-79299Y38032D01*
X-79299D01*
X-79273Y38121D01*
X-79273Y38121D01*
X-79055Y38649D01*
X-78194Y41637D01*
X-77673Y44702D01*
X-77499Y47807D01*
X-77673Y50912D01*
X-78194Y53977D01*
X-79055Y56966D01*
X-80245Y59838D01*
X-81749Y62560D01*
X-83548Y65096D01*
X-85538Y67322D01*
X-85620Y67415D01*
X-85899Y67664D01*
X-86226Y68026D01*
X-87215Y69184D01*
X-88274Y70911D01*
X-89049Y72782D01*
X-89522Y74752D01*
X-89681Y76772D01*
X-89522Y78791D01*
X-89049Y80761D01*
X-88274Y82632D01*
X-87215Y84360D01*
X-85900Y85900D01*
X-84360Y87215D01*
X-82632Y88274D01*
X-80761Y89049D01*
X-78791Y89522D01*
X-76772Y89681D01*
X-74752Y89522D01*
X-72782Y89049D01*
X-70911Y88274D01*
X-69184Y87215D01*
X-68026Y86226D01*
X-67664Y85899D01*
X-67415Y85620D01*
X-67322Y85538D01*
X-65096Y83548D01*
X-62560Y81749D01*
X-59838Y80245D01*
X-56966Y79055D01*
X-53977Y78194D01*
X-50912Y77673D01*
X-48934Y77562D01*
X-48739Y77050D01*
X-48897Y76892D01*
X-49194Y76175D01*
Y75400D01*
X-48897Y74683D01*
X-48349Y74134D01*
X-47632Y73837D01*
X-47477D01*
X-39878Y61731D01*
X-39977Y61491D01*
Y60715D01*
X-39680Y59999D01*
X-39132Y59450D01*
X-38415Y59153D01*
X-37639D01*
X-36923Y59450D01*
X-36374Y59999D01*
X-36077Y60715D01*
Y61491D01*
X-36374Y62208D01*
X-36923Y62756D01*
X-37639Y63053D01*
X-37794D01*
X-45393Y75160D01*
X-45294Y75400D01*
Y76175D01*
X-45591Y76892D01*
X-45809Y77110D01*
X-45614Y77622D01*
X-44702Y77673D01*
X-41637Y78194D01*
X-38649Y79055D01*
X-38485Y79123D01*
X-38032Y79298D01*
X-38032Y79298D01*
X-37581Y79503D01*
X-33666Y81277D01*
X-28278Y83305D01*
X-22769Y84976D01*
X-17163Y86283D01*
X-11483Y87221D01*
X-5754Y87785D01*
X0Y87973D01*
X5754Y87785D01*
X11483Y87221D01*
X17163Y86283D01*
X22769Y84976D01*
X28278Y83305D01*
X33666Y81277D01*
X38032Y79299D01*
Y79299D01*
X38121Y79273D01*
X38121Y79273D01*
X38649Y79055D01*
X41637Y78194D01*
X44702Y77673D01*
X47807Y77499D01*
X50912Y77673D01*
X53977Y78194D01*
X56966Y79055D01*
X59838Y80245D01*
X62560Y81749D01*
X65096Y83548D01*
X67322Y85538D01*
X67415Y85620D01*
X67664Y85899D01*
X68026Y86226D01*
X69184Y87215D01*
X70911Y88274D01*
X72782Y89049D01*
X74752Y89522D01*
X76772Y89681D01*
X78791Y89522D01*
D02*
G37*
%LPC*%
G36*
X50068Y74914D02*
X49292D01*
X48789Y74705D01*
X48779Y74707D01*
X44072D01*
X43600Y74613D01*
X43199Y74345D01*
X34452Y65598D01*
X33859D01*
X33142Y65301D01*
X32594Y64752D01*
X32297Y64036D01*
Y63260D01*
X32594Y62543D01*
X33142Y61995D01*
X33859Y61698D01*
X34635D01*
X35351Y61995D01*
X35900Y62543D01*
X36197Y63260D01*
Y63853D01*
X44583Y72239D01*
X47870D01*
X48027Y71859D01*
X48576Y71310D01*
X49292Y71013D01*
X50068D01*
X50785Y71310D01*
X51333Y71859D01*
X51630Y72576D01*
Y73351D01*
X51333Y74068D01*
X50785Y74617D01*
X50068Y74914D01*
D02*
G37*
G36*
X-13982Y71438D02*
X-14758D01*
X-15475Y71141D01*
X-16023Y70593D01*
X-16320Y69876D01*
Y69100D01*
X-16023Y68384D01*
X-15475Y67835D01*
X-14758Y67538D01*
X-13982D01*
X-13265Y67835D01*
X-12717Y68384D01*
X-12420Y69100D01*
Y69876D01*
X-12717Y70593D01*
X-13265Y71141D01*
X-13982Y71438D01*
D02*
G37*
G36*
X77593Y87214D02*
X75950D01*
X74326Y86957D01*
X72763Y86449D01*
X71299Y85703D01*
X69969Y84737D01*
X68806Y83574D01*
X67840Y82245D01*
X67094Y80780D01*
X66586Y79217D01*
X66329Y77593D01*
Y75950D01*
X66586Y74326D01*
X67094Y72763D01*
X67840Y71299D01*
X68806Y69969D01*
X69969Y68806D01*
X71299Y67840D01*
X72763Y67094D01*
X74326Y66586D01*
X75950Y66329D01*
X77593D01*
X79217Y66586D01*
X80780Y67094D01*
X82245Y67840D01*
X83574Y68806D01*
X84737Y69969D01*
X85703Y71299D01*
X86449Y72763D01*
X86957Y74326D01*
X87214Y75950D01*
Y77593D01*
X86957Y79217D01*
X86449Y80780D01*
X85703Y82245D01*
X84737Y83574D01*
X83574Y84737D01*
X82245Y85703D01*
X80780Y86449D01*
X79217Y86957D01*
X77593Y87214D01*
D02*
G37*
G36*
X-75950D02*
X-77593D01*
X-79217Y86957D01*
X-80780Y86449D01*
X-82245Y85703D01*
X-83574Y84737D01*
X-84737Y83574D01*
X-85703Y82245D01*
X-86449Y80780D01*
X-86957Y79217D01*
X-87214Y77593D01*
Y75950D01*
X-86957Y74326D01*
X-86449Y72763D01*
X-85703Y71299D01*
X-84737Y69969D01*
X-83574Y68806D01*
X-82245Y67840D01*
X-80780Y67094D01*
X-79217Y66586D01*
X-77593Y66329D01*
X-75950D01*
X-74326Y66586D01*
X-72763Y67094D01*
X-71299Y67840D01*
X-69969Y68806D01*
X-68806Y69969D01*
X-67840Y71299D01*
X-67094Y72763D01*
X-66586Y74326D01*
X-66329Y75950D01*
Y77593D01*
X-66586Y79217D01*
X-67094Y80780D01*
X-67840Y82245D01*
X-68806Y83574D01*
X-69969Y84737D01*
X-71299Y85703D01*
X-72763Y86449D01*
X-74326Y86957D01*
X-75950Y87214D01*
D02*
G37*
G36*
X51372Y69962D02*
X50596D01*
X49880Y69665D01*
X49331Y69116D01*
X49034Y68400D01*
Y67624D01*
X49331Y66907D01*
X49880Y66359D01*
X50596Y66062D01*
X51372D01*
X52089Y66359D01*
X52637Y66907D01*
X52934Y67624D01*
Y68400D01*
X52637Y69116D01*
X52089Y69665D01*
X51372Y69962D01*
D02*
G37*
G36*
X-29259Y67866D02*
X-30035D01*
X-30752Y67569D01*
X-31300Y67021D01*
X-31597Y66304D01*
Y65528D01*
X-31300Y64812D01*
X-30752Y64263D01*
X-30035Y63966D01*
X-29259D01*
X-28543Y64263D01*
X-27994Y64812D01*
X-27697Y65528D01*
Y66304D01*
X-27994Y67021D01*
X-28543Y67569D01*
X-29259Y67866D01*
D02*
G37*
G36*
X39986Y61492D02*
X39210D01*
X38493Y61195D01*
X37945Y60646D01*
X37648Y59929D01*
Y59154D01*
X37945Y58437D01*
X38493Y57888D01*
X39210Y57591D01*
X39986D01*
X40702Y57888D01*
X41251Y58437D01*
X41548Y59154D01*
Y59929D01*
X41251Y60646D01*
X40702Y61195D01*
X39986Y61492D01*
D02*
G37*
G36*
X-9651Y61399D02*
X-10427D01*
X-11144Y61102D01*
X-11693Y60553D01*
X-11989Y59837D01*
Y59061D01*
X-11693Y58344D01*
X-11144Y57796D01*
X-10427Y57499D01*
X-9651D01*
X-8935Y57796D01*
X-8386Y58344D01*
X-8089Y59061D01*
Y59837D01*
X-8386Y60553D01*
X-8935Y61102D01*
X-9651Y61399D01*
D02*
G37*
G36*
X71822Y58817D02*
X71046D01*
X70330Y58520D01*
X69781Y57972D01*
X69484Y57255D01*
Y56479D01*
X69781Y55763D01*
X70330Y55214D01*
X71046Y54917D01*
X71822D01*
X72539Y55214D01*
X73087Y55763D01*
X73384Y56479D01*
Y57255D01*
X73087Y57972D01*
X72539Y58520D01*
X71822Y58817D01*
D02*
G37*
G36*
X-17104Y57899D02*
X-17880D01*
X-18596Y57603D01*
X-19145Y57054D01*
X-19442Y56337D01*
Y55562D01*
X-19145Y54845D01*
X-18596Y54296D01*
X-17880Y54000D01*
X-17104D01*
X-16387Y54296D01*
X-15839Y54845D01*
X-15542Y55562D01*
Y56337D01*
X-15839Y57054D01*
X-16387Y57603D01*
X-17104Y57899D01*
D02*
G37*
G36*
X16995Y72293D02*
X16219D01*
X15502Y71996D01*
X14954Y71447D01*
X14657Y70731D01*
Y69955D01*
X14954Y69238D01*
X15083Y69109D01*
X12297Y55986D01*
X12084Y55898D01*
X11536Y55349D01*
X11239Y54632D01*
Y53857D01*
X11536Y53140D01*
X12084Y52591D01*
X12801Y52294D01*
X13577D01*
X14294Y52591D01*
X14842Y53140D01*
X15139Y53857D01*
Y54632D01*
X14842Y55349D01*
X14713Y55479D01*
X17498Y68602D01*
X17711Y68690D01*
X18260Y69238D01*
X18557Y69955D01*
Y70731D01*
X18260Y71447D01*
X17711Y71996D01*
X16995Y72293D01*
D02*
G37*
G36*
X6293Y70454D02*
X5518D01*
X4801Y70157D01*
X4252Y69608D01*
X3955Y68892D01*
Y68116D01*
X4252Y67399D01*
X4570Y67082D01*
X3698Y54565D01*
X3168Y54035D01*
X2871Y53318D01*
Y52543D01*
X3168Y51826D01*
X3717Y51277D01*
X4433Y50981D01*
X5209D01*
X5926Y51277D01*
X6474Y51826D01*
X6771Y52543D01*
Y53318D01*
X6474Y54035D01*
X6157Y54352D01*
X7029Y66869D01*
X7559Y67399D01*
X7856Y68116D01*
Y68892D01*
X7559Y69608D01*
X7010Y70157D01*
X6293Y70454D01*
D02*
G37*
G36*
X73616Y54312D02*
X72840D01*
X72124Y54015D01*
X71575Y53467D01*
X71278Y52750D01*
Y51974D01*
X71575Y51258D01*
X72124Y50709D01*
X72840Y50412D01*
X73616D01*
X74333Y50709D01*
X74882Y51258D01*
X75178Y51974D01*
Y52750D01*
X74882Y53467D01*
X74333Y54015D01*
X73616Y54312D01*
D02*
G37*
G36*
X-44472Y55440D02*
X-45248D01*
X-45965Y55143D01*
X-46513Y54595D01*
X-46810Y53878D01*
Y53102D01*
X-46513Y52386D01*
X-45965Y51837D01*
X-45248Y51540D01*
X-44693D01*
X-41934Y48683D01*
Y48052D01*
X-41637Y47336D01*
X-41089Y46787D01*
X-40372Y46490D01*
X-39596D01*
X-38880Y46787D01*
X-38331Y47336D01*
X-38034Y48052D01*
Y48828D01*
X-38331Y49545D01*
X-38880Y50093D01*
X-39596Y50390D01*
X-40152D01*
X-42910Y53247D01*
Y53878D01*
X-43207Y54595D01*
X-43755Y55143D01*
X-44472Y55440D01*
D02*
G37*
G36*
X-741Y73477D02*
X-1517D01*
X-2233Y73180D01*
X-2782Y72631D01*
X-3079Y71915D01*
Y71139D01*
X-2782Y70422D01*
X-2379Y70019D01*
X-2592Y49749D01*
X-3027Y49313D01*
X-3324Y48597D01*
Y47821D01*
X-3027Y47104D01*
X-2478Y46556D01*
X-1762Y46259D01*
X-986D01*
X-269Y46556D01*
X279Y47104D01*
X576Y47821D01*
Y48597D01*
X279Y49313D01*
X-124Y49717D01*
X89Y69987D01*
X524Y70422D01*
X821Y71139D01*
Y71915D01*
X524Y72631D01*
X-24Y73180D01*
X-741Y73477D01*
D02*
G37*
G36*
X25885Y69877D02*
X25109D01*
X24393Y69580D01*
X23844Y69031D01*
X23547Y68315D01*
Y67539D01*
X23844Y66822D01*
X24263Y66403D01*
Y62987D01*
X24357Y62515D01*
X24625Y62114D01*
X30977Y55763D01*
X30977Y55763D01*
X31377Y55495D01*
X31849Y55401D01*
X35964D01*
X41964Y49402D01*
Y47371D01*
X41544Y46952D01*
X41247Y46235D01*
Y45459D01*
X41544Y44743D01*
X42093Y44194D01*
X42810Y43897D01*
X43585D01*
X44302Y44194D01*
X44851Y44743D01*
X45147Y45459D01*
Y46235D01*
X44851Y46952D01*
X44431Y47371D01*
Y49913D01*
X44337Y50385D01*
X44070Y50785D01*
X37348Y57508D01*
X36947Y57775D01*
X36475Y57869D01*
X32360D01*
X26731Y63498D01*
Y66403D01*
X27150Y66822D01*
X27447Y67539D01*
Y68315D01*
X27150Y69031D01*
X26602Y69580D01*
X25885Y69877D01*
D02*
G37*
G36*
X56385Y47647D02*
X55609D01*
X54892Y47350D01*
X54344Y46802D01*
X54047Y46085D01*
Y45309D01*
X54344Y44593D01*
X54892Y44044D01*
X55609Y43747D01*
X56385D01*
X57102Y44044D01*
X57650Y44593D01*
X57947Y45309D01*
Y46085D01*
X57650Y46802D01*
X57102Y47350D01*
X56385Y47647D01*
D02*
G37*
G36*
X22386Y56039D02*
X21511D01*
X20703Y55704D01*
X20084Y55085D01*
X19749Y54276D01*
Y53401D01*
X20084Y52592D01*
X20572Y52104D01*
Y51161D01*
X15178Y45766D01*
X2854D01*
X2328Y45661D01*
X1881Y45363D01*
X45Y43527D01*
X-19574D01*
Y50179D01*
X-19125Y50628D01*
X-18790Y51437D01*
Y52312D01*
X-19125Y53120D01*
X-19743Y53739D01*
X-20552Y54074D01*
X-21427D01*
X-22236Y53739D01*
X-22855Y53120D01*
X-23190Y52312D01*
Y51437D01*
X-22855Y50628D01*
X-22327Y50100D01*
Y43527D01*
X-29101D01*
X-29628Y43422D01*
X-30074Y43124D01*
X-31259Y41939D01*
X-31950D01*
X-32759Y41604D01*
X-33378Y40985D01*
X-33713Y40177D01*
Y39302D01*
X-33378Y38493D01*
X-32759Y37874D01*
X-31950Y37539D01*
X-31075D01*
X-30266Y37874D01*
X-29647Y38493D01*
X-29313Y39302D01*
Y39993D01*
X-28531Y40774D01*
X615D01*
X1142Y40879D01*
X1588Y41177D01*
X3424Y43013D01*
X15748D01*
X16275Y43118D01*
X16721Y43417D01*
X22922Y49617D01*
X22922Y49617D01*
X23221Y50064D01*
X23325Y50591D01*
X23325Y50591D01*
Y52104D01*
X23814Y52592D01*
X24149Y53401D01*
Y54276D01*
X23814Y55085D01*
X23195Y55704D01*
X22386Y56039D01*
D02*
G37*
G36*
X-52227Y51503D02*
X-53003D01*
X-53720Y51206D01*
X-54268Y50658D01*
X-54565Y49941D01*
Y49165D01*
X-54268Y48449D01*
X-53720Y47900D01*
X-53003Y47603D01*
X-52332D01*
X-44170Y40001D01*
Y39483D01*
X-43873Y38767D01*
X-43325Y38218D01*
X-42608Y37921D01*
X-41832D01*
X-41115Y38218D01*
X-40567Y38767D01*
X-40270Y39483D01*
Y40259D01*
X-40567Y40976D01*
X-41115Y41524D01*
X-41832Y41821D01*
X-42503D01*
X-50665Y49423D01*
Y49941D01*
X-50962Y50658D01*
X-51511Y51206D01*
X-52227Y51503D01*
D02*
G37*
G36*
X61870Y39947D02*
X61095D01*
X60378Y39650D01*
X59829Y39102D01*
X59532Y38385D01*
Y38328D01*
X41133Y28136D01*
X40798Y28275D01*
X40022D01*
X39305Y27978D01*
X38757Y27430D01*
X38460Y26713D01*
Y25937D01*
X38757Y25220D01*
X39305Y24672D01*
X40022Y24375D01*
X40798D01*
X41515Y24672D01*
X42063Y25220D01*
X42360Y25937D01*
Y25995D01*
X60759Y36186D01*
X61095Y36047D01*
X61870D01*
X62587Y36344D01*
X63136Y36893D01*
X63433Y37609D01*
Y38385D01*
X63136Y39102D01*
X62587Y39650D01*
X61870Y39947D01*
D02*
G37*
G36*
X-58245Y44212D02*
X-59021D01*
X-59738Y43915D01*
X-60286Y43366D01*
X-60583Y42649D01*
Y41874D01*
X-60286Y41157D01*
X-59738Y40608D01*
X-59021Y40312D01*
X-58245D01*
X-58162Y40346D01*
X-45393Y30559D01*
Y30231D01*
X-45097Y29515D01*
X-44548Y28966D01*
X-43831Y28669D01*
X-43056D01*
X-42339Y28966D01*
X-41790Y29515D01*
X-41493Y30231D01*
Y31007D01*
X-41790Y31724D01*
X-42339Y32272D01*
X-43056Y32569D01*
X-43831D01*
X-43914Y32535D01*
X-56683Y42322D01*
Y42649D01*
X-56980Y43366D01*
X-57529Y43915D01*
X-58245Y44212D01*
D02*
G37*
G36*
X66304Y31597D02*
X65528D01*
X64812Y31300D01*
X64263Y30752D01*
X64006Y30131D01*
X49291Y23406D01*
X48813Y23604D01*
X48037D01*
X47321Y23307D01*
X46772Y22758D01*
X46475Y22041D01*
Y21266D01*
X46772Y20549D01*
X47321Y20000D01*
X48037Y19703D01*
X48813D01*
X49530Y20000D01*
X50078Y20549D01*
X50336Y21170D01*
X65051Y27895D01*
X65528Y27697D01*
X66304D01*
X67021Y27994D01*
X67569Y28543D01*
X67866Y29259D01*
Y30035D01*
X67569Y30752D01*
X67021Y31300D01*
X66304Y31597D01*
D02*
G37*
G36*
X-65043Y31274D02*
X-65819D01*
X-66535Y30977D01*
X-67084Y30429D01*
X-67381Y29712D01*
Y28936D01*
X-67084Y28220D01*
X-66871Y28007D01*
X-67154Y27583D01*
X-67186Y27596D01*
X-67961D01*
X-68678Y27299D01*
X-69227Y26751D01*
X-69524Y26034D01*
Y25258D01*
X-69227Y24542D01*
X-68678Y23993D01*
X-67961Y23696D01*
X-67186D01*
X-66469Y23993D01*
X-65920Y24542D01*
X-65623Y25258D01*
Y26034D01*
X-65920Y26751D01*
X-66133Y26963D01*
X-65850Y27387D01*
X-65819Y27374D01*
X-65043D01*
X-64326Y27671D01*
X-63778Y28220D01*
X-63481Y28936D01*
Y29712D01*
X-63778Y30429D01*
X-64326Y30977D01*
X-65043Y31274D01*
D02*
G37*
G36*
X-75203Y28328D02*
X-75978D01*
X-76695Y28031D01*
X-77244Y27483D01*
X-77540Y26766D01*
Y25990D01*
X-77244Y25273D01*
X-76695Y24725D01*
X-75978Y24428D01*
X-75203D01*
X-74486Y24725D01*
X-73937Y25273D01*
X-73641Y25990D01*
Y26766D01*
X-73937Y27483D01*
X-74486Y28031D01*
X-75203Y28328D01*
D02*
G37*
G36*
X-81502Y25572D02*
X-82278D01*
X-82994Y25275D01*
X-83543Y24727D01*
X-83840Y24010D01*
Y23234D01*
X-83543Y22517D01*
X-82994Y21969D01*
X-82278Y21672D01*
X-81502D01*
X-80785Y21969D01*
X-80237Y22517D01*
X-79940Y23234D01*
Y24010D01*
X-80237Y24727D01*
X-80785Y25275D01*
X-81502Y25572D01*
D02*
G37*
G36*
X-63260Y36197D02*
X-64036D01*
X-64752Y35900D01*
X-65301Y35351D01*
X-65598Y34635D01*
Y33859D01*
X-65301Y33142D01*
X-64752Y32594D01*
X-64036Y32297D01*
X-63260D01*
X-62863Y32461D01*
X-44167Y22924D01*
X-43871Y22211D01*
X-43323Y21662D01*
X-42606Y21365D01*
X-41830D01*
X-41113Y21662D01*
X-40565Y22211D01*
X-40268Y22928D01*
Y23703D01*
X-40565Y24420D01*
X-41113Y24969D01*
X-41830Y25265D01*
X-42606D01*
X-43003Y25101D01*
X-61699Y34638D01*
X-61995Y35351D01*
X-62543Y35900D01*
X-63260Y36197D01*
D02*
G37*
G36*
X-36Y24635D02*
X-752D01*
X-1413Y24361D01*
X-1920Y23854D01*
X-2194Y23193D01*
Y22477D01*
X-1920Y21815D01*
X-1413Y21309D01*
X-752Y21035D01*
X-36D01*
X626Y21309D01*
X1132Y21815D01*
X1406Y22477D01*
Y23193D01*
X1132Y23854D01*
X626Y24361D01*
X-36Y24635D01*
D02*
G37*
G36*
X5655Y24015D02*
X4939D01*
X4278Y23741D01*
X3771Y23235D01*
X3497Y22573D01*
Y21857D01*
X3771Y21196D01*
X4278Y20689D01*
X4939Y20415D01*
X5655D01*
X6317Y20689D01*
X6823Y21196D01*
X7097Y21857D01*
Y22573D01*
X6823Y23235D01*
X6317Y23741D01*
X5655Y24015D01*
D02*
G37*
G36*
X-5702Y23819D02*
X-6418D01*
X-7080Y23545D01*
X-7586Y23039D01*
X-7860Y22377D01*
Y21661D01*
X-7586Y21000D01*
X-7080Y20493D01*
X-6418Y20219D01*
X-5702D01*
X-5040Y20493D01*
X-4534Y21000D01*
X-4260Y21661D01*
Y22377D01*
X-4534Y23039D01*
X-5040Y23545D01*
X-5702Y23819D01*
D02*
G37*
G36*
X69610Y22740D02*
X68834D01*
X68117Y22443D01*
X67569Y21894D01*
X67272Y21178D01*
Y20930D01*
X59203Y15272D01*
X59049Y15336D01*
X58274D01*
X57557Y15039D01*
X57008Y14490D01*
X56711Y13774D01*
Y12998D01*
X57008Y12281D01*
X57557Y11733D01*
X58274Y11436D01*
X59049D01*
X59766Y11733D01*
X60315Y12281D01*
X60611Y12998D01*
Y13246D01*
X68681Y18903D01*
X68834Y18840D01*
X69610D01*
X70327Y19137D01*
X70875Y19685D01*
X71172Y20402D01*
Y21178D01*
X70875Y21894D01*
X70327Y22443D01*
X69610Y22740D01*
D02*
G37*
G36*
X11014Y22000D02*
X10298D01*
X9636Y21726D01*
X9130Y21219D01*
X8856Y20558D01*
Y19842D01*
X9130Y19180D01*
X9636Y18674D01*
X10298Y18400D01*
X11014D01*
X11675Y18674D01*
X12182Y19180D01*
X12456Y19842D01*
Y20558D01*
X12182Y21219D01*
X11675Y21726D01*
X11014Y22000D01*
D02*
G37*
G36*
X-10988Y21621D02*
X-11704D01*
X-12365Y21346D01*
X-12872Y20840D01*
X-13146Y20178D01*
Y19463D01*
X-12872Y18801D01*
X-12365Y18294D01*
X-11704Y18021D01*
X-10988D01*
X-10326Y18294D01*
X-9820Y18801D01*
X-9546Y19463D01*
Y20178D01*
X-9820Y20840D01*
X-10326Y21346D01*
X-10988Y21621D01*
D02*
G37*
G36*
X15702Y18715D02*
X14986D01*
X14325Y18441D01*
X13818Y17935D01*
X13544Y17273D01*
Y16557D01*
X13818Y15896D01*
X14325Y15389D01*
X14986Y15115D01*
X15702D01*
X16364Y15389D01*
X16870Y15896D01*
X17144Y16557D01*
Y17273D01*
X16870Y17935D01*
X16364Y18441D01*
X15702Y18715D01*
D02*
G37*
G36*
X-15560Y18176D02*
X-16276D01*
X-16938Y17902D01*
X-17444Y17396D01*
X-17718Y16734D01*
Y16018D01*
X-17444Y15357D01*
X-16938Y14850D01*
X-16276Y14576D01*
X-15560D01*
X-14899Y14850D01*
X-14392Y15357D01*
X-14118Y16018D01*
Y16734D01*
X-14392Y17396D01*
X-14899Y17902D01*
X-15560Y18176D01*
D02*
G37*
G36*
X71731Y13527D02*
X70955D01*
X70239Y13230D01*
X69690Y12681D01*
X69661Y12609D01*
X63470Y11834D01*
X63228Y12075D01*
X62512Y12372D01*
X61736D01*
X61019Y12075D01*
X60471Y11527D01*
X60174Y10810D01*
Y10034D01*
X60471Y9318D01*
X61019Y8769D01*
X61736Y8472D01*
X62512D01*
X63228Y8769D01*
X63777Y9318D01*
X63807Y9389D01*
X69998Y10165D01*
X70239Y9923D01*
X70955Y9627D01*
X71731D01*
X72448Y9923D01*
X72996Y10472D01*
X73293Y11189D01*
Y11964D01*
X72996Y12681D01*
X72448Y13230D01*
X71731Y13527D01*
D02*
G37*
G36*
X19427Y14368D02*
X18711D01*
X18049Y14094D01*
X17543Y13588D01*
X17269Y12926D01*
Y12210D01*
X17543Y11548D01*
X18049Y11042D01*
X18711Y10768D01*
X19427D01*
X20089Y11042D01*
X20595Y11548D01*
X20869Y12210D01*
Y12926D01*
X20595Y13588D01*
X20089Y14094D01*
X19427Y14368D01*
D02*
G37*
G36*
X-19133Y13703D02*
X-19849D01*
X-20511Y13429D01*
X-21017Y12923D01*
X-21291Y12261D01*
Y11545D01*
X-21017Y10883D01*
X-20511Y10377D01*
X-19849Y10103D01*
X-19133D01*
X-18471Y10377D01*
X-17965Y10883D01*
X-17691Y11545D01*
Y12261D01*
X-17965Y12923D01*
X-18471Y13429D01*
X-19133Y13703D01*
D02*
G37*
G36*
X21953Y9231D02*
X21237D01*
X20576Y8957D01*
X20069Y8450D01*
X19795Y7789D01*
Y7073D01*
X20069Y6411D01*
X20576Y5905D01*
X21237Y5631D01*
X21953D01*
X22615Y5905D01*
X23121Y6411D01*
X23395Y7073D01*
Y7789D01*
X23121Y8450D01*
X22615Y8957D01*
X21953Y9231D01*
D02*
G37*
G36*
X-71521Y9233D02*
X-72297D01*
X-73013Y8936D01*
X-73562Y8388D01*
X-73859Y7671D01*
Y6895D01*
X-73562Y6178D01*
X-73013Y5630D01*
X-72297Y5333D01*
X-71521D01*
X-70804Y5630D01*
X-70256Y6178D01*
X-69959Y6895D01*
Y7671D01*
X-70256Y8388D01*
X-70804Y8936D01*
X-71521Y9233D01*
D02*
G37*
G36*
X-21481Y8482D02*
X-22197D01*
X-22858Y8208D01*
X-23365Y7701D01*
X-23639Y7040D01*
Y6324D01*
X-23365Y5662D01*
X-22858Y5156D01*
X-22197Y4882D01*
X-21481D01*
X-20819Y5156D01*
X-20313Y5662D01*
X-20039Y6324D01*
Y7040D01*
X-20313Y7701D01*
X-20819Y8208D01*
X-21481Y8482D01*
D02*
G37*
G36*
X80309Y6674D02*
X79533D01*
X78817Y6378D01*
X78268Y5829D01*
X77971Y5112D01*
Y4337D01*
X78268Y3620D01*
X78817Y3071D01*
X79533Y2774D01*
X80309D01*
X81026Y3071D01*
X81574Y3620D01*
X81871Y4337D01*
Y5112D01*
X81574Y5829D01*
X81026Y6378D01*
X80309Y6674D01*
D02*
G37*
G36*
X23123Y3627D02*
X22407D01*
X21745Y3353D01*
X21239Y2846D01*
X20965Y2185D01*
Y1469D01*
X21239Y807D01*
X21745Y301D01*
X22407Y27D01*
X23123D01*
X23785Y301D01*
X24291Y807D01*
X24565Y1469D01*
Y2185D01*
X24291Y2846D01*
X23785Y3353D01*
X23123Y3627D01*
D02*
G37*
G36*
X-22456Y2841D02*
X-23172D01*
X-23834Y2567D01*
X-24340Y2060D01*
X-24614Y1399D01*
Y683D01*
X-24340Y21D01*
X-23834Y-485D01*
X-23172Y-759D01*
X-22456D01*
X-21795Y-485D01*
X-21288Y21D01*
X-21014Y683D01*
Y1399D01*
X-21288Y2060D01*
X-21795Y2567D01*
X-22456Y2841D01*
D02*
G37*
G36*
X-83274Y18682D02*
X-84049D01*
X-84766Y18385D01*
X-85315Y17837D01*
X-85611Y17120D01*
Y16344D01*
X-85315Y15628D01*
X-84895Y15209D01*
Y9252D01*
X-84801Y8780D01*
X-84534Y8380D01*
X-74194Y-1960D01*
Y-2553D01*
X-73897Y-3270D01*
X-73349Y-3818D01*
X-72632Y-4115D01*
X-71856D01*
X-71139Y-3818D01*
X-70591Y-3270D01*
X-70294Y-2553D01*
Y-1777D01*
X-70591Y-1061D01*
X-71139Y-512D01*
X-71856Y-215D01*
X-72449D01*
X-82428Y9763D01*
Y15209D01*
X-82008Y15628D01*
X-81711Y16344D01*
Y17120D01*
X-82008Y17837D01*
X-82557Y18385D01*
X-83274Y18682D01*
D02*
G37*
G36*
X85821Y-412D02*
X85045D01*
X84329Y-709D01*
X83780Y-1258D01*
X83483Y-1974D01*
Y-2750D01*
X83780Y-3467D01*
X84329Y-4015D01*
X85045Y-4312D01*
X85821D01*
X86538Y-4015D01*
X87086Y-3467D01*
X87383Y-2750D01*
Y-1974D01*
X87086Y-1258D01*
X86538Y-709D01*
X85821Y-412D01*
D02*
G37*
G36*
X22862Y-2092D02*
X22146D01*
X21484Y-2366D01*
X20978Y-2872D01*
X20704Y-3534D01*
Y-4250D01*
X20978Y-4912D01*
X21484Y-5418D01*
X22146Y-5692D01*
X22862D01*
X23524Y-5418D01*
X24030Y-4912D01*
X24304Y-4250D01*
Y-3534D01*
X24030Y-2872D01*
X23524Y-2366D01*
X22862Y-2092D01*
D02*
G37*
G36*
X-21998Y-2866D02*
X-22714D01*
X-23376Y-3139D01*
X-23882Y-3646D01*
X-24156Y-4307D01*
Y-5024D01*
X-23882Y-5685D01*
X-23376Y-6191D01*
X-22714Y-6465D01*
X-21998D01*
X-21337Y-6191D01*
X-20830Y-5685D01*
X-20556Y-5024D01*
Y-4307D01*
X-20830Y-3646D01*
X-21337Y-3139D01*
X-21998Y-2866D01*
D02*
G37*
G36*
X28409Y53572D02*
X27693D01*
X27032Y53298D01*
X26525Y52791D01*
X26251Y52130D01*
Y51414D01*
X26525Y50752D01*
X27032Y50246D01*
X27693Y49972D01*
X28409D01*
X28409Y49972D01*
X32445Y45936D01*
Y21654D01*
X32523Y21263D01*
X32744Y20933D01*
X40902Y12775D01*
X41021Y12283D01*
X40473Y11734D01*
X40176Y11018D01*
Y10242D01*
X40473Y9525D01*
X41021Y8977D01*
X41697Y8697D01*
Y-8874D01*
X41635Y-8908D01*
X41170Y-8589D01*
Y-8106D01*
X40896Y-7445D01*
X40390Y-6939D01*
X39728Y-6665D01*
X39012D01*
X38350Y-6939D01*
X37844Y-7445D01*
X37844Y-7445D01*
X36811D01*
X36421Y-7523D01*
X36090Y-7744D01*
X22405Y-21428D01*
X22405Y-21428D01*
X21689D01*
X21028Y-21702D01*
X20521Y-22209D01*
X20247Y-22870D01*
Y-23586D01*
X20521Y-24248D01*
X21028Y-24754D01*
X21689Y-25028D01*
X22405D01*
X23067Y-24754D01*
X23573Y-24248D01*
X23847Y-23586D01*
Y-22870D01*
X23847Y-22870D01*
X37233Y-9484D01*
X37844D01*
X37844Y-9484D01*
X38350Y-9990D01*
X39012Y-10265D01*
X39728D01*
X39964Y-10167D01*
X40247Y-10591D01*
X39830Y-11008D01*
X39609Y-11338D01*
X39532Y-11729D01*
Y-14145D01*
X35106Y-18570D01*
X34885Y-18901D01*
X34807Y-19291D01*
Y-21934D01*
X34722Y-21969D01*
X34174Y-22517D01*
X33877Y-23234D01*
Y-24010D01*
X33912Y-24095D01*
X31074Y-26933D01*
X7283D01*
X6893Y-27011D01*
X6562Y-27232D01*
X4613Y-29181D01*
X4566Y-29251D01*
X4238D01*
X3521Y-29548D01*
X2973Y-30096D01*
X2676Y-30813D01*
Y-31589D01*
X2864Y-32043D01*
X2558Y-32543D01*
X1044D01*
X654Y-32621D01*
X571Y-32677D01*
X-7319D01*
X-34515Y-5480D01*
X-34846Y-5259D01*
X-35236Y-5181D01*
X-36119D01*
X-36380Y-4719D01*
X-36430Y-4600D01*
Y-4471D01*
X-36521Y-4379D01*
X-36571Y-4260D01*
X-45512Y4681D01*
Y18701D01*
X-45702Y19160D01*
X-52592Y26050D01*
X-53051Y26240D01*
X-57087D01*
X-57546Y26050D01*
X-60400Y23195D01*
X-60590Y22736D01*
Y-3051D01*
X-60400Y-3510D01*
X-40276Y-23634D01*
X-40483Y-24134D01*
X-40954D01*
X-41670Y-24431D01*
X-42219Y-24980D01*
X-42516Y-25696D01*
Y-25775D01*
X-60781Y-36177D01*
X-61095Y-36047D01*
X-61870D01*
X-62587Y-36344D01*
X-63136Y-36893D01*
X-63433Y-37609D01*
Y-38385D01*
X-63136Y-39102D01*
X-62587Y-39650D01*
X-61870Y-39947D01*
X-61095D01*
X-60378Y-39650D01*
X-59829Y-39102D01*
X-59532Y-38385D01*
Y-38307D01*
X-41268Y-27904D01*
X-40954Y-28034D01*
X-40178D01*
X-39461Y-27737D01*
X-38913Y-27189D01*
X-38616Y-26472D01*
Y-26002D01*
X-38116Y-25795D01*
X-36083Y-27828D01*
Y-58760D01*
X-35892Y-59219D01*
X-33913Y-61198D01*
X-34121Y-61698D01*
X-34635D01*
X-35351Y-61995D01*
X-35900Y-62543D01*
X-36197Y-63260D01*
Y-63853D01*
X-45789Y-73445D01*
X-45845D01*
X-46139Y-73150D01*
X-46856Y-72853D01*
X-47632D01*
X-48349Y-73150D01*
X-48897Y-73699D01*
X-49194Y-74415D01*
Y-75191D01*
X-48897Y-75908D01*
X-48349Y-76456D01*
X-47632Y-76753D01*
X-46856D01*
X-46139Y-76456D01*
X-45596Y-75912D01*
X-45278D01*
X-44805Y-75819D01*
X-44405Y-75551D01*
X-34452Y-65598D01*
X-33859D01*
X-33142Y-65301D01*
X-32594Y-64752D01*
X-32297Y-64036D01*
Y-63425D01*
X-32085Y-63168D01*
X-31838Y-63061D01*
X-31741Y-63102D01*
X-31621Y-63052D01*
X-31492D01*
X-31366Y-63000D01*
X-30908D01*
X-30485Y-63175D01*
X-30162Y-63499D01*
X-29987Y-63922D01*
Y-64379D01*
X-30039Y-64505D01*
Y-64635D01*
X-30088Y-64754D01*
X-30039Y-64873D01*
Y-65003D01*
X-29948Y-65094D01*
X-29898Y-65213D01*
X-29333Y-65778D01*
X-29286Y-65798D01*
X-29259Y-65842D01*
X-29144Y-65870D01*
X-28863Y-65994D01*
X-28694Y-66412D01*
X-28686Y-66453D01*
Y-66848D01*
X-28389Y-67565D01*
X-27841Y-68113D01*
X-27124Y-68410D01*
X-26348D01*
X-25862Y-68209D01*
X-25718Y-68556D01*
X-25627Y-68647D01*
X-25577Y-68766D01*
X-25458Y-68816D01*
X-25366Y-68907D01*
X-25237D01*
X-25118Y-68957D01*
X-17028Y-68957D01*
X-16568Y-68766D01*
X-14009Y-66207D01*
X-13819Y-65748D01*
Y-29713D01*
X-13357Y-29522D01*
X-8462Y-34417D01*
X-8131Y-34638D01*
X-7741Y-34716D01*
X911D01*
X1301Y-34638D01*
X1384Y-34583D01*
X6402D01*
X6513Y-34561D01*
X6717Y-34765D01*
X7433Y-35062D01*
X8209D01*
X8926Y-34765D01*
X9474Y-34216D01*
X9771Y-33500D01*
Y-32724D01*
X9753Y-32681D01*
X10031Y-32265D01*
X10230D01*
X10722Y-32061D01*
X10868Y-32158D01*
X11258Y-32236D01*
X32158D01*
X32548Y-32158D01*
X32879Y-31937D01*
X38904Y-25912D01*
X39125Y-25581D01*
X39203Y-25191D01*
Y-19719D01*
X43419Y-15504D01*
X43640Y-15173D01*
X43717Y-14783D01*
Y-14770D01*
X44018Y-14645D01*
X44567Y-14097D01*
X44863Y-13380D01*
Y-12604D01*
X44713Y-12241D01*
X45209Y-11745D01*
X45430Y-11414D01*
X45508Y-11024D01*
Y14567D01*
X45430Y14957D01*
X45209Y15288D01*
X40887Y19610D01*
X40917Y19681D01*
Y20457D01*
X40620Y21174D01*
X40072Y21723D01*
X39355Y22019D01*
X38579D01*
X38507Y21990D01*
X36453Y24044D01*
Y48878D01*
X36375Y49268D01*
X36298Y49384D01*
X36446Y49740D01*
Y50457D01*
X36172Y51118D01*
X35665Y51624D01*
X35004Y51898D01*
X34288D01*
X33626Y51624D01*
X33120Y51118D01*
X32846Y50457D01*
Y49740D01*
X33120Y49079D01*
X33626Y48572D01*
X34288Y48298D01*
X34413D01*
Y47558D01*
X33913Y47351D01*
X29851Y51414D01*
X29851Y51414D01*
Y52130D01*
X29577Y52791D01*
X29071Y53298D01*
X28409Y53572D01*
D02*
G37*
G36*
X-61807Y-8041D02*
X-62583D01*
X-63299Y-8338D01*
X-63848Y-8887D01*
X-63910Y-9036D01*
X-70060Y-10102D01*
X-70239Y-9923D01*
X-70955Y-9627D01*
X-71731D01*
X-72448Y-9923D01*
X-72996Y-10472D01*
X-73293Y-11189D01*
Y-11964D01*
X-72996Y-12681D01*
X-72448Y-13230D01*
X-71731Y-13527D01*
X-70955D01*
X-70239Y-13230D01*
X-69690Y-12681D01*
X-69628Y-12532D01*
X-63478Y-11466D01*
X-63299Y-11644D01*
X-62583Y-11941D01*
X-61807D01*
X-61090Y-11644D01*
X-60542Y-11096D01*
X-60245Y-10379D01*
Y-9603D01*
X-60542Y-8887D01*
X-61090Y-8338D01*
X-61807Y-8041D01*
D02*
G37*
G36*
X21187Y-7566D02*
X20471D01*
X19809Y-7840D01*
X19303Y-8347D01*
X19029Y-9008D01*
Y-9724D01*
X19303Y-10386D01*
X19809Y-10892D01*
X20471Y-11166D01*
X21187D01*
X21849Y-10892D01*
X22355Y-10386D01*
X22629Y-9724D01*
Y-9008D01*
X22355Y-8347D01*
X21849Y-7840D01*
X21187Y-7566D01*
D02*
G37*
G36*
X-20136Y-8279D02*
X-20852D01*
X-21513Y-8553D01*
X-22020Y-9059D01*
X-22294Y-9721D01*
Y-10437D01*
X-22020Y-11098D01*
X-21513Y-11605D01*
X-20852Y-11879D01*
X-20136D01*
X-19474Y-11605D01*
X-18968Y-11098D01*
X-18694Y-10437D01*
Y-9721D01*
X-18968Y-9059D01*
X-19474Y-8553D01*
X-20136Y-8279D01*
D02*
G37*
G36*
X72297Y-5333D02*
X71521D01*
X70804Y-5630D01*
X70256Y-6178D01*
X69959Y-6895D01*
Y-7671D01*
X70256Y-8388D01*
X70804Y-8936D01*
X71321Y-9150D01*
X71222Y-9650D01*
X71113D01*
X70396Y-9947D01*
X69848Y-10496D01*
X69551Y-11212D01*
Y-11988D01*
X69848Y-12705D01*
X70396Y-13253D01*
X71113Y-13550D01*
X71889D01*
X72605Y-13253D01*
X73154Y-12705D01*
X73451Y-11988D01*
Y-11212D01*
X73154Y-10496D01*
X72605Y-9947D01*
X72088Y-9733D01*
X72188Y-9233D01*
X72297D01*
X73013Y-8936D01*
X73562Y-8388D01*
X73859Y-7671D01*
Y-6895D01*
X73562Y-6178D01*
X73013Y-5630D01*
X72297Y-5333D01*
D02*
G37*
G36*
X18203Y-12452D02*
X17487D01*
X16826Y-12726D01*
X16319Y-13232D01*
X16045Y-13894D01*
Y-14610D01*
X16319Y-15272D01*
X16826Y-15778D01*
X17487Y-16052D01*
X18203D01*
X18865Y-15778D01*
X19371Y-15272D01*
X19645Y-14610D01*
Y-13894D01*
X19371Y-13232D01*
X18865Y-12726D01*
X18203Y-12452D01*
D02*
G37*
G36*
X-16985Y-13059D02*
X-17702D01*
X-18363Y-13333D01*
X-18869Y-13839D01*
X-19143Y-14501D01*
Y-15217D01*
X-18869Y-15878D01*
X-18363Y-16385D01*
X-17702Y-16659D01*
X-16985D01*
X-16324Y-16385D01*
X-15818Y-15878D01*
X-15543Y-15217D01*
Y-14501D01*
X-15818Y-13839D01*
X-16324Y-13333D01*
X-16985Y-13059D01*
D02*
G37*
G36*
X-55416Y-14117D02*
X-56192D01*
X-56909Y-14414D01*
X-57457Y-14962D01*
X-57641Y-15405D01*
X-68174Y-19113D01*
X-68834Y-18840D01*
X-69610D01*
X-70327Y-19137D01*
X-70875Y-19685D01*
X-71172Y-20402D01*
Y-21178D01*
X-70875Y-21894D01*
X-70327Y-22443D01*
X-69610Y-22740D01*
X-68834D01*
X-68117Y-22443D01*
X-67569Y-21894D01*
X-67385Y-21451D01*
X-56851Y-17744D01*
X-56192Y-18017D01*
X-55416D01*
X-54699Y-17720D01*
X-54151Y-17171D01*
X-53854Y-16455D01*
Y-15679D01*
X-54151Y-14962D01*
X-54699Y-14414D01*
X-55416Y-14117D01*
D02*
G37*
G36*
X1201Y18316D02*
X-1201D01*
X-3581Y18003D01*
X-5900Y17382D01*
X-8119Y16463D01*
X-10198Y15262D01*
X-12103Y13801D01*
X-13801Y12103D01*
X-15262Y10198D01*
X-16463Y8119D01*
X-17382Y5900D01*
X-18003Y3581D01*
X-18316Y1201D01*
Y-1201D01*
X-18003Y-3581D01*
X-17382Y-5900D01*
X-16463Y-8119D01*
X-15262Y-10198D01*
X-13801Y-12103D01*
X-12103Y-13801D01*
X-10198Y-15262D01*
X-8119Y-16463D01*
X-5900Y-17382D01*
X-3581Y-18003D01*
X-1201Y-18316D01*
X1201D01*
X3581Y-18003D01*
X5900Y-17382D01*
X8119Y-16463D01*
X10198Y-15262D01*
X12103Y-13801D01*
X13801Y-12103D01*
X15262Y-10198D01*
X16463Y-8119D01*
X17382Y-5900D01*
X18003Y-3581D01*
X18316Y-1201D01*
Y1201D01*
X18003Y3581D01*
X17382Y5900D01*
X16463Y8119D01*
X15262Y10198D01*
X13801Y12103D01*
X12103Y13801D01*
X10198Y15262D01*
X8119Y16463D01*
X5900Y17382D01*
X3581Y18003D01*
X1201Y18316D01*
D02*
G37*
G36*
X72632Y4115D02*
X71856D01*
X71139Y3818D01*
X70591Y3270D01*
X70294Y2553D01*
Y1777D01*
X70591Y1061D01*
X71139Y512D01*
X71856Y215D01*
X71930D01*
X81017Y-15844D01*
X80885Y-16163D01*
Y-16939D01*
X81182Y-17655D01*
X81731Y-18204D01*
X82447Y-18501D01*
X83223D01*
X83940Y-18204D01*
X84488Y-17655D01*
X84785Y-16939D01*
Y-16163D01*
X84488Y-15446D01*
X83940Y-14898D01*
X83223Y-14601D01*
X83149D01*
X74062Y1458D01*
X74194Y1777D01*
Y2553D01*
X73897Y3270D01*
X73349Y3818D01*
X72632Y4115D01*
D02*
G37*
G36*
X14098Y-16442D02*
X13382D01*
X12721Y-16716D01*
X12214Y-17223D01*
X11940Y-17884D01*
Y-18600D01*
X12214Y-19262D01*
X12721Y-19768D01*
X13382Y-20042D01*
X14098D01*
X14760Y-19768D01*
X15266Y-19262D01*
X15540Y-18600D01*
Y-17884D01*
X15266Y-17223D01*
X14760Y-16716D01*
X14098Y-16442D01*
D02*
G37*
G36*
X-12745Y-16905D02*
X-13461D01*
X-14123Y-17179D01*
X-14629Y-17685D01*
X-14903Y-18347D01*
Y-19063D01*
X-14629Y-19725D01*
X-14123Y-20231D01*
X-13461Y-20505D01*
X-12745D01*
X-12084Y-20231D01*
X-11577Y-19725D01*
X-11303Y-19063D01*
Y-18347D01*
X-11577Y-17685D01*
X-12084Y-17179D01*
X-12745Y-16905D01*
D02*
G37*
G36*
X9130Y-19286D02*
X8414D01*
X7752Y-19560D01*
X7246Y-20067D01*
X6972Y-20728D01*
Y-21444D01*
X7246Y-22106D01*
X7752Y-22612D01*
X8414Y-22886D01*
X9130D01*
X9792Y-22612D01*
X10298Y-22106D01*
X10572Y-21444D01*
Y-20728D01*
X10298Y-20067D01*
X9792Y-19560D01*
X9130Y-19286D01*
D02*
G37*
G36*
X-7682Y-19576D02*
X-8398D01*
X-9060Y-19850D01*
X-9566Y-20356D01*
X-9840Y-21018D01*
Y-21734D01*
X-9566Y-22396D01*
X-9060Y-22902D01*
X-8398Y-23176D01*
X-7682D01*
X-7020Y-22902D01*
X-6514Y-22396D01*
X-6240Y-21734D01*
Y-21018D01*
X-6514Y-20356D01*
X-7020Y-19850D01*
X-7682Y-19576D01*
D02*
G37*
G36*
X-48258Y-19462D02*
X-49034D01*
X-49751Y-19759D01*
X-50299Y-20307D01*
X-50570Y-20962D01*
X-65082Y-27882D01*
X-65528Y-27697D01*
X-65657D01*
X-65790Y-27378D01*
X-65810Y-27197D01*
X-65301Y-26688D01*
X-65004Y-25971D01*
Y-25195D01*
X-65301Y-24479D01*
X-65849Y-23930D01*
X-66566Y-23633D01*
X-67342D01*
X-68058Y-23930D01*
X-68607Y-24479D01*
X-68904Y-25195D01*
Y-25971D01*
X-68607Y-26688D01*
X-68058Y-27236D01*
X-67342Y-27533D01*
X-67213D01*
X-67080Y-27852D01*
X-67060Y-28033D01*
X-67569Y-28543D01*
X-67866Y-29259D01*
Y-30035D01*
X-67569Y-30752D01*
X-67021Y-31300D01*
X-66304Y-31597D01*
X-65528D01*
X-64812Y-31300D01*
X-64263Y-30752D01*
X-63992Y-30097D01*
X-49480Y-23177D01*
X-49034Y-23362D01*
X-48258D01*
X-47541Y-23065D01*
X-46993Y-22516D01*
X-46696Y-21800D01*
Y-21024D01*
X-46993Y-20307D01*
X-47541Y-19759D01*
X-48258Y-19462D01*
D02*
G37*
G36*
X3611Y-20805D02*
X2895D01*
X2233Y-21079D01*
X1727Y-21586D01*
X1453Y-22247D01*
Y-22963D01*
X1727Y-23625D01*
X2233Y-24131D01*
X2895Y-24405D01*
X3611D01*
X4272Y-24131D01*
X4778Y-23625D01*
X5052Y-22963D01*
Y-22247D01*
X4778Y-21586D01*
X4272Y-21079D01*
X3611Y-20805D01*
D02*
G37*
G36*
X-2113Y-20904D02*
X-2829D01*
X-3491Y-21178D01*
X-3997Y-21684D01*
X-4271Y-22346D01*
Y-23062D01*
X-3997Y-23724D01*
X-3491Y-24230D01*
X-2829Y-24504D01*
X-2113D01*
X-1452Y-24230D01*
X-945Y-23724D01*
X-671Y-23062D01*
Y-22346D01*
X-945Y-21684D01*
X-1452Y-21178D01*
X-2113Y-20904D01*
D02*
G37*
G36*
X67961Y-23696D02*
X67186D01*
X66469Y-23993D01*
X65920Y-24542D01*
X65623Y-25258D01*
Y-26034D01*
X65920Y-26751D01*
X66469Y-27299D01*
X67186Y-27596D01*
X67961D01*
X68678Y-27299D01*
X69227Y-26751D01*
X69524Y-26034D01*
Y-25258D01*
X69227Y-24542D01*
X68678Y-23993D01*
X67961Y-23696D01*
D02*
G37*
G36*
X44119Y-18386D02*
X43343D01*
X42627Y-18683D01*
X42078Y-19231D01*
X41781Y-19948D01*
Y-20724D01*
X42078Y-21441D01*
X42627Y-21989D01*
X43343Y-22286D01*
X44119D01*
X44276Y-22221D01*
X61698Y-34390D01*
Y-34635D01*
X61995Y-35351D01*
X62543Y-35900D01*
X63260Y-36197D01*
X64036D01*
X64752Y-35900D01*
X65301Y-35351D01*
X65598Y-34635D01*
Y-33859D01*
X65301Y-33142D01*
X64752Y-32594D01*
X64036Y-32297D01*
X63260D01*
X63104Y-32362D01*
X45681Y-20193D01*
Y-19948D01*
X45384Y-19231D01*
X44836Y-18683D01*
X44119Y-18386D01*
D02*
G37*
G36*
X-70383Y-32578D02*
X-71159D01*
X-71876Y-32875D01*
X-72424Y-33423D01*
X-72721Y-34140D01*
Y-34916D01*
X-72424Y-35632D01*
X-71876Y-36181D01*
X-71159Y-36478D01*
X-70383D01*
X-69666Y-36181D01*
X-69118Y-35632D01*
X-68821Y-34916D01*
Y-34140D01*
X-69118Y-33423D01*
X-69666Y-32875D01*
X-70383Y-32578D01*
D02*
G37*
G36*
X39531Y-40031D02*
X38815D01*
X38154Y-40305D01*
X37647Y-40811D01*
X37373Y-41473D01*
Y-42189D01*
X37373Y-42189D01*
X34347Y-45215D01*
X17639D01*
X17622Y-45173D01*
X17116Y-44667D01*
X16454Y-44393D01*
X15738D01*
X15076Y-44667D01*
X14570Y-45173D01*
X14296Y-45835D01*
Y-46551D01*
X14570Y-47212D01*
X15076Y-47719D01*
X15738Y-47993D01*
X16454D01*
X17116Y-47719D01*
X17580Y-47255D01*
X34769D01*
X35159Y-47177D01*
X35490Y-46956D01*
X38815Y-43631D01*
X38815Y-43631D01*
X39531D01*
X40193Y-43357D01*
X40699Y-42850D01*
X40973Y-42189D01*
Y-41473D01*
X40699Y-40811D01*
X40193Y-40305D01*
X39531Y-40031D01*
D02*
G37*
G36*
X43423Y-29241D02*
X42647D01*
X41931Y-29537D01*
X41382Y-30086D01*
X41085Y-30803D01*
Y-31578D01*
X41382Y-32295D01*
X41931Y-32844D01*
X42647Y-33141D01*
X43423D01*
X43567Y-33081D01*
X56683Y-42391D01*
Y-42649D01*
X56980Y-43366D01*
X57529Y-43915D01*
X58245Y-44212D01*
X59021D01*
X59738Y-43915D01*
X60286Y-43366D01*
X60583Y-42649D01*
Y-41874D01*
X60286Y-41157D01*
X59738Y-40608D01*
X59021Y-40312D01*
X58245D01*
X58102Y-40371D01*
X44985Y-31062D01*
Y-30803D01*
X44688Y-30086D01*
X44140Y-29537D01*
X43423Y-29241D01*
D02*
G37*
G36*
X-55609Y-43747D02*
X-56385D01*
X-57102Y-44044D01*
X-57650Y-44593D01*
X-57947Y-45309D01*
Y-46085D01*
X-57650Y-46802D01*
X-57102Y-47350D01*
X-56385Y-47647D01*
X-55609D01*
X-54892Y-47350D01*
X-54344Y-46802D01*
X-54047Y-46085D01*
Y-45309D01*
X-54344Y-44593D01*
X-54892Y-44044D01*
X-55609Y-43747D01*
D02*
G37*
G36*
X-40163Y-46475D02*
X-40939D01*
X-41656Y-46772D01*
X-42204Y-47321D01*
X-42501Y-48037D01*
Y-48813D01*
X-42204Y-49530D01*
X-41656Y-50078D01*
X-40939Y-50375D01*
X-40163D01*
X-39447Y-50078D01*
X-38898Y-49530D01*
X-38601Y-48813D01*
Y-48037D01*
X-38898Y-47321D01*
X-39447Y-46772D01*
X-40163Y-46475D01*
D02*
G37*
G36*
X-44888D02*
X-45663D01*
X-46380Y-46772D01*
X-46929Y-47321D01*
X-47226Y-48037D01*
Y-48813D01*
X-46929Y-49530D01*
X-46380Y-50078D01*
X-45663Y-50375D01*
X-44888D01*
X-44171Y-50078D01*
X-43622Y-49530D01*
X-43326Y-48813D01*
Y-48037D01*
X-43622Y-47321D01*
X-44171Y-46772D01*
X-44888Y-46475D01*
D02*
G37*
G36*
X46027Y-40720D02*
X45311D01*
X44650Y-40994D01*
X44143Y-41500D01*
X43869Y-42162D01*
Y-42878D01*
X44143Y-43539D01*
X44650Y-44046D01*
X45311Y-44320D01*
X45637D01*
X50665Y-49348D01*
Y-49941D01*
X50962Y-50658D01*
X51511Y-51206D01*
X52227Y-51503D01*
X53003D01*
X53720Y-51206D01*
X54268Y-50658D01*
X54565Y-49941D01*
Y-49165D01*
X54268Y-48449D01*
X53720Y-47900D01*
X53003Y-47603D01*
X52410D01*
X47469Y-42662D01*
Y-42162D01*
X47195Y-41500D01*
X46689Y-40994D01*
X46027Y-40720D01*
D02*
G37*
G36*
X40260Y-46817D02*
X39484D01*
X38767Y-47114D01*
X38219Y-47662D01*
X37922Y-48379D01*
Y-49155D01*
X38219Y-49872D01*
X38767Y-50420D01*
X39484Y-50717D01*
X39858D01*
X40747Y-51820D01*
X43765Y-55566D01*
X43747Y-55609D01*
Y-56385D01*
X44044Y-57102D01*
X44593Y-57650D01*
X45309Y-57947D01*
X46085D01*
X46802Y-57650D01*
X47350Y-57102D01*
X47647Y-56385D01*
Y-55609D01*
X47350Y-54892D01*
X46802Y-54344D01*
X46085Y-54047D01*
X45711D01*
X42669Y-50271D01*
X42669Y-50271D01*
X41804Y-49198D01*
X41822Y-49155D01*
Y-48379D01*
X41525Y-47662D01*
X40977Y-47114D01*
X40260Y-46817D01*
D02*
G37*
G36*
X-41874Y-56683D02*
X-42649D01*
X-43366Y-56980D01*
X-43915Y-57529D01*
X-44212Y-58245D01*
Y-59021D01*
X-43915Y-59738D01*
X-43366Y-60286D01*
X-42649Y-60583D01*
X-41874D01*
X-41157Y-60286D01*
X-40608Y-59738D01*
X-40312Y-59021D01*
Y-58245D01*
X-40608Y-57529D01*
X-41157Y-56980D01*
X-41874Y-56683D01*
D02*
G37*
G36*
X-37831Y-59617D02*
X-38547D01*
X-39209Y-59891D01*
X-39715Y-60398D01*
X-39989Y-61059D01*
Y-61775D01*
X-39715Y-62437D01*
X-39209Y-62943D01*
X-38547Y-63217D01*
X-37831D01*
X-37169Y-62943D01*
X-36663Y-62437D01*
X-36389Y-61775D01*
Y-61059D01*
X-36663Y-60398D01*
X-37169Y-59891D01*
X-37831Y-59617D01*
D02*
G37*
G36*
X2768Y-63097D02*
X1992D01*
X1276Y-63394D01*
X943Y-63727D01*
X-8086D01*
X-8086Y-63727D01*
X-8558Y-63821D01*
X-8958Y-64088D01*
X-8958Y-64088D01*
X-14136Y-69265D01*
X-14729D01*
X-15445Y-69562D01*
X-15994Y-70111D01*
X-16291Y-70828D01*
Y-71603D01*
X-15994Y-72320D01*
X-15445Y-72869D01*
X-14729Y-73165D01*
X-13953D01*
X-13236Y-72869D01*
X-12688Y-72320D01*
X-12391Y-71603D01*
Y-71011D01*
X-7575Y-66195D01*
X770D01*
X1276Y-66700D01*
X1992Y-66997D01*
X2768D01*
X3485Y-66700D01*
X4033Y-66152D01*
X4330Y-65435D01*
Y-64659D01*
X4033Y-63943D01*
X3485Y-63394D01*
X2768Y-63097D01*
D02*
G37*
G36*
X-43788Y-63336D02*
X-44564D01*
X-45281Y-63633D01*
X-45829Y-64181D01*
X-46126Y-64898D01*
Y-65674D01*
X-45829Y-66391D01*
X-45281Y-66939D01*
X-44564Y-67236D01*
X-43788D01*
X-43072Y-66939D01*
X-42523Y-66391D01*
X-42226Y-65674D01*
Y-64898D01*
X-42523Y-64181D01*
X-43072Y-63633D01*
X-43788Y-63336D01*
D02*
G37*
G36*
X7868Y-63798D02*
X7092D01*
X6376Y-64095D01*
X5827Y-64643D01*
X5530Y-65360D01*
Y-66136D01*
X5827Y-66853D01*
X6376Y-67401D01*
X7092Y-67698D01*
X7868D01*
X8585Y-67401D01*
X9133Y-66853D01*
X9430Y-66136D01*
Y-65360D01*
X9133Y-64643D01*
X8585Y-64095D01*
X7868Y-63798D01*
D02*
G37*
G36*
X30035Y-63966D02*
X29259D01*
X28543Y-64263D01*
X27994Y-64812D01*
X27697Y-65528D01*
Y-66304D01*
X27994Y-67021D01*
X28543Y-67569D01*
X29259Y-67866D01*
X30035D01*
X30752Y-67569D01*
X31300Y-67021D01*
X31597Y-66304D01*
Y-65528D01*
X31300Y-64812D01*
X30752Y-64263D01*
X30035Y-63966D01*
D02*
G37*
G36*
X21448Y-67065D02*
X20672D01*
X19955Y-67361D01*
X19407Y-67910D01*
X19110Y-68627D01*
Y-69402D01*
X19407Y-70119D01*
X19955Y-70668D01*
X20672Y-70965D01*
X21448D01*
X22164Y-70668D01*
X22713Y-70119D01*
X23010Y-69402D01*
Y-68627D01*
X22713Y-67910D01*
X22164Y-67361D01*
X21448Y-67065D01*
D02*
G37*
G36*
X11964Y-69393D02*
X11189D01*
X10472Y-69690D01*
X9923Y-70239D01*
X9627Y-70955D01*
Y-71731D01*
X9923Y-72448D01*
X10472Y-72996D01*
X11189Y-73293D01*
X11964D01*
X12681Y-72996D01*
X13230Y-72448D01*
X13527Y-71731D01*
Y-70955D01*
X13230Y-70239D01*
X12681Y-69690D01*
X11964Y-69393D01*
D02*
G37*
G36*
X35427Y-69704D02*
X34651D01*
X33935Y-70000D01*
X33386Y-70549D01*
X33089Y-71266D01*
Y-72041D01*
X33386Y-72758D01*
X33935Y-73307D01*
X34651Y-73603D01*
X35427D01*
X36144Y-73307D01*
X36693Y-72758D01*
X36989Y-72041D01*
Y-71266D01*
X36693Y-70549D01*
X36144Y-70000D01*
X35427Y-69704D01*
D02*
G37*
G36*
X2553Y-70294D02*
X1777D01*
X1061Y-70591D01*
X512Y-71140D01*
X215Y-71856D01*
Y-72632D01*
X512Y-73349D01*
X1061Y-73897D01*
X1777Y-74194D01*
X2553D01*
X3270Y-73897D01*
X3819Y-73349D01*
X4115Y-72632D01*
Y-71856D01*
X3819Y-71140D01*
X3270Y-70591D01*
X2553Y-70294D01*
D02*
G37*
G36*
X-4668Y-70660D02*
X-5444D01*
X-6161Y-70956D01*
X-6709Y-71505D01*
X-7006Y-72222D01*
Y-72997D01*
X-6709Y-73714D01*
X-6161Y-74263D01*
X-5444Y-74560D01*
X-4668D01*
X-3952Y-74263D01*
X-3403Y-73714D01*
X-3106Y-72997D01*
Y-72222D01*
X-3403Y-71505D01*
X-3952Y-70956D01*
X-4668Y-70660D01*
D02*
G37*
G36*
X27194Y-71770D02*
X26419D01*
X25702Y-72067D01*
X25153Y-72616D01*
X24856Y-73333D01*
Y-74108D01*
X25153Y-74825D01*
X25702Y-75374D01*
X26419Y-75670D01*
X27194D01*
X27911Y-75374D01*
X28460Y-74825D01*
X28756Y-74108D01*
Y-73333D01*
X28460Y-72616D01*
X27911Y-72067D01*
X27194Y-71770D01*
D02*
G37*
G36*
X77593Y-66329D02*
X75950D01*
X74326Y-66586D01*
X72763Y-67094D01*
X71299Y-67840D01*
X69969Y-68806D01*
X68806Y-69969D01*
X67840Y-71299D01*
X67094Y-72763D01*
X66586Y-74326D01*
X66329Y-75950D01*
Y-77593D01*
X66586Y-79217D01*
X67094Y-80780D01*
X67840Y-82245D01*
X68806Y-83574D01*
X69969Y-84737D01*
X71299Y-85703D01*
X72763Y-86449D01*
X74326Y-86957D01*
X75950Y-87214D01*
X77593D01*
X79217Y-86957D01*
X80780Y-86449D01*
X82245Y-85703D01*
X83574Y-84737D01*
X84737Y-83574D01*
X85703Y-82245D01*
X86449Y-80780D01*
X86957Y-79217D01*
X87214Y-77593D01*
Y-75950D01*
X86957Y-74326D01*
X86449Y-72763D01*
X85703Y-71299D01*
X84737Y-69969D01*
X83574Y-68806D01*
X82245Y-67840D01*
X80780Y-67094D01*
X79217Y-66586D01*
X77593Y-66329D01*
D02*
G37*
G36*
X-75950D02*
X-77593D01*
X-79217Y-66586D01*
X-80780Y-67094D01*
X-82245Y-67840D01*
X-83574Y-68806D01*
X-84737Y-69969D01*
X-85703Y-71299D01*
X-86449Y-72763D01*
X-86957Y-74326D01*
X-87214Y-75950D01*
Y-77593D01*
X-86957Y-79217D01*
X-86449Y-80780D01*
X-85703Y-82245D01*
X-84737Y-83574D01*
X-83574Y-84737D01*
X-82245Y-85703D01*
X-80780Y-86449D01*
X-79217Y-86957D01*
X-77593Y-87214D01*
X-75950D01*
X-74326Y-86957D01*
X-72763Y-86449D01*
X-71299Y-85703D01*
X-69969Y-84737D01*
X-68806Y-83574D01*
X-67840Y-82245D01*
X-67094Y-80780D01*
X-66586Y-79217D01*
X-66329Y-77593D01*
Y-75950D01*
X-66586Y-74326D01*
X-67094Y-72763D01*
X-67840Y-71299D01*
X-68806Y-69969D01*
X-69969Y-68806D01*
X-71299Y-67840D01*
X-72763Y-67094D01*
X-74326Y-66586D01*
X-75950Y-66329D01*
D02*
G37*
%LPD*%
G36*
X-46161Y18701D02*
Y4412D01*
X-37030Y-4719D01*
X-37221Y-5181D01*
X-39911D01*
X-39911Y-5181D01*
X-40417Y-4675D01*
X-41079Y-4401D01*
X-41795D01*
X-42457Y-4675D01*
X-42963Y-5181D01*
X-43237Y-5843D01*
Y-6559D01*
X-42963Y-7220D01*
X-42457Y-7727D01*
X-41795Y-8001D01*
X-41079D01*
X-40417Y-7727D01*
X-39911Y-7220D01*
X-39911Y-7220D01*
X-35659D01*
X-14469Y-28410D01*
Y-65748D01*
X-17028Y-68307D01*
X-25118Y-68307D01*
X-25325Y-67807D01*
X-25083Y-67565D01*
X-24786Y-66848D01*
Y-66072D01*
X-25083Y-65356D01*
X-25631Y-64807D01*
X-26348Y-64510D01*
X-27124D01*
X-27841Y-64807D01*
X-28260Y-65226D01*
X-28874Y-65319D01*
X-29439Y-64754D01*
X-29337Y-64508D01*
Y-63792D01*
X-29611Y-63131D01*
X-30117Y-62625D01*
X-30779Y-62350D01*
X-31495D01*
X-31741Y-62452D01*
X-35433Y-58760D01*
Y-27559D01*
X-59941Y-3051D01*
Y22736D01*
X-57087Y25591D01*
X-53051D01*
X-46161Y18701D01*
D02*
G37*
%LPC*%
G36*
X-27959Y-43761D02*
X-28734D01*
X-29451Y-44058D01*
X-30000Y-44606D01*
X-30296Y-45323D01*
Y-46099D01*
X-30000Y-46815D01*
X-29451Y-47364D01*
X-28734Y-47661D01*
X-27959D01*
X-27242Y-47364D01*
X-26693Y-46815D01*
X-26397Y-46099D01*
Y-45323D01*
X-26693Y-44606D01*
X-27242Y-44058D01*
X-27959Y-43761D01*
D02*
G37*
G36*
X-27390Y-54459D02*
X-28106D01*
X-28767Y-54733D01*
X-29274Y-55240D01*
X-29548Y-55901D01*
Y-56617D01*
X-29274Y-57279D01*
X-28767Y-57785D01*
X-28106Y-58059D01*
X-27390D01*
X-26728Y-57785D01*
X-26640Y-57697D01*
X-26217Y-58121D01*
X-25555Y-58394D01*
X-24839D01*
X-24177Y-58121D01*
X-23671Y-57614D01*
X-23397Y-56953D01*
Y-56236D01*
X-23671Y-55575D01*
X-24177Y-55068D01*
X-24839Y-54795D01*
X-25555D01*
X-26217Y-55068D01*
X-26305Y-55157D01*
X-26728Y-54733D01*
X-27390Y-54459D01*
D02*
G37*
G36*
X-31807Y-56389D02*
X-32523D01*
X-33184Y-56663D01*
X-33691Y-57170D01*
X-33965Y-57831D01*
Y-58547D01*
X-33691Y-59209D01*
X-33184Y-59715D01*
X-32523Y-59989D01*
X-31807D01*
X-31145Y-59715D01*
X-30639Y-59209D01*
X-30365Y-58547D01*
Y-57831D01*
X-30639Y-57170D01*
X-31145Y-56663D01*
X-31807Y-56389D01*
D02*
G37*
%LPD*%
D62*
X48942Y73310D02*
G03*
X49680Y72964I858J868D01*
G01*
X45669Y-42520D02*
G03*
X45731Y-42668I211J0D01*
G01*
D02*
G03*
X45731Y-42669I150J149D01*
G01*
X48937Y73315D02*
X48942Y73310D01*
X49680Y72964D02*
Y72964D01*
X48779Y73473D02*
X48937Y73315D01*
X44072Y73473D02*
X48779D01*
X45731Y-42669D02*
X52615Y-49553D01*
X45731Y-42668D02*
X45731Y-42669D01*
X2294Y-64961D02*
X2380Y-65047D01*
X-8086Y-64961D02*
X2294D01*
X4821Y52930D02*
X5906Y68504D01*
X-1374Y48209D02*
X-1129Y71527D01*
X-44860Y53490D02*
X-39984Y48440D01*
X-14341Y-71215D02*
X-8086Y-64961D01*
X-83661Y9252D02*
Y16732D01*
Y9252D02*
X-72244Y-2165D01*
X31849Y56635D02*
X36475D01*
X43198Y49913D01*
X25497Y62987D02*
X31849Y56635D01*
X72244Y2165D02*
X82677Y-16272D01*
X82835Y-16551D01*
X58661Y13386D02*
X69222Y20790D01*
X48425Y21654D02*
X65916Y29647D01*
X34247Y63648D02*
X44072Y73473D01*
X25497Y62987D02*
Y67927D01*
X43198Y45847D02*
Y49913D01*
X43731Y-20336D02*
X63648Y-34247D01*
X43035Y-31191D02*
X58633Y-42261D01*
X-61483Y-37997D02*
X-40566Y-26084D01*
X-45278Y-74678D02*
X-34247Y-63648D01*
X39872Y-48767D02*
X41708Y-51045D01*
X45697Y-55997D01*
X-63648Y34247D02*
X-42218Y23315D01*
X40410Y26325D02*
X61483Y37997D01*
X-52615Y49553D02*
X-42220Y39871D01*
X-65916Y-29647D02*
X-48646Y-21412D01*
X-69222Y-20790D02*
X-55804Y-16067D01*
X-58633Y42261D02*
X-43444Y30619D01*
X-71343Y-11577D02*
X-62195Y-9991D01*
X62124Y10422D02*
X71343Y11577D01*
X-47120Y-74678D02*
X-45278D01*
X-47244Y-74803D02*
X-47120Y-74678D01*
X-47244Y75787D02*
X-38027Y61103D01*
X37997Y-61483D02*
X46260Y-75787D01*
D64*
X-29101Y42151D02*
X-20950D01*
X-31512Y39739D02*
X-29101Y42151D01*
X615D02*
X2854Y44390D01*
X15748D02*
X21949Y50591D01*
X2854Y44390D02*
X15748D01*
X21949Y50591D02*
Y53839D01*
X-20950Y42151D02*
X615D01*
X-20990Y51874D02*
X-20950Y51835D01*
Y42151D02*
Y51835D01*
D65*
X-35236Y-6201D02*
X-7741Y-33696D01*
X911D01*
X-41437Y-6201D02*
X-35236D01*
X4626Y-31201D02*
Y-30687D01*
X5334Y-29979D02*
Y-29902D01*
X4626Y-30687D02*
X5334Y-29979D01*
Y-29902D02*
X7283Y-27953D01*
X6490Y-33475D02*
X7458D01*
X6402Y-33563D02*
X6490Y-33475D01*
X1044Y-33563D02*
X6402D01*
X911Y-33696D02*
X1044Y-33563D01*
X7458Y-33475D02*
X7821Y-33112D01*
X7283Y-27953D02*
X31496D01*
X7821Y-33112D02*
X7862Y-33071D01*
X9843Y-30315D02*
X10357D01*
X33465Y21654D02*
Y46358D01*
X28051Y51772D02*
X33465Y46358D01*
X35433Y23622D02*
Y48878D01*
X34646Y49665D02*
X35433Y48878D01*
X34646Y49665D02*
Y50098D01*
X16096Y-46193D02*
X16138Y-46235D01*
X34769D01*
X39173Y-41831D01*
X42717Y-9563D02*
Y9525D01*
X40551Y-11729D02*
X42717Y-9563D01*
X40551Y-14567D02*
Y-11729D01*
X11258Y-31216D02*
X32158D01*
X38183Y-25191D01*
X10357Y-30315D02*
X11258Y-31216D01*
X36811Y-8465D02*
X39370D01*
X42126Y10116D02*
Y12992D01*
X22047Y-23228D02*
X36811Y-8465D01*
X33465Y21654D02*
X42126Y12992D01*
X38183Y-25191D02*
Y-19297D01*
X31496Y-27953D02*
X35827Y-23622D01*
Y-19291D01*
X35433Y23622D02*
X44488Y14567D01*
X35827Y-19291D02*
X40551Y-14567D01*
X44488Y-11024D02*
Y14567D01*
X42698Y-14783D02*
Y-12814D01*
X44488Y-11024D01*
X38183Y-19297D02*
X42698Y-14783D01*
D68*
X78740Y-62992D02*
D03*
X76772Y59055D02*
D03*
X74803Y47244D02*
D03*
Y-47244D02*
D03*
Y-55118D02*
D03*
X76772Y-59055D02*
D03*
X74803Y-62992D02*
D03*
X70866Y62992D02*
D03*
X72835Y-51181D02*
D03*
X70866Y-55118D02*
D03*
X72835Y-59055D02*
D03*
X68898Y66929D02*
D03*
Y-59055D02*
D03*
X66929Y-62992D02*
D03*
X68898Y-66929D02*
D03*
X62992Y78740D02*
D03*
X64961Y74803D02*
D03*
X62992Y70866D02*
D03*
X64961Y66929D02*
D03*
X62992Y-62992D02*
D03*
X64961Y-66929D02*
D03*
X62992Y-70866D02*
D03*
X64961Y-74803D02*
D03*
X62992Y-78740D02*
D03*
X61024Y74803D02*
D03*
X59055Y70866D02*
D03*
X61024Y-66929D02*
D03*
X59055Y-70866D02*
D03*
X61024Y-74803D02*
D03*
X57087Y74803D02*
D03*
X55118Y70866D02*
D03*
Y-70866D02*
D03*
X57087Y-74803D02*
D03*
X53150Y74803D02*
D03*
Y-74803D02*
D03*
X39370Y7874D02*
D03*
X41339Y-27559D02*
D03*
X35433Y15748D02*
D03*
X37402Y11811D02*
D03*
X35433Y-31496D02*
D03*
X31496Y15748D02*
D03*
Y0D02*
D03*
Y-7874D02*
D03*
X27559Y31496D02*
D03*
X29528Y27559D02*
D03*
X27559Y23622D02*
D03*
X29528Y19685D02*
D03*
Y3937D02*
D03*
Y-3937D02*
D03*
Y-11811D02*
D03*
Y-19685D02*
D03*
X27559Y-23622D02*
D03*
X25591Y27559D02*
D03*
X23622Y23622D02*
D03*
X21654Y27559D02*
D03*
X-13779D02*
D03*
X-17716D02*
D03*
X-19685Y23622D02*
D03*
X-21653Y82677D02*
D03*
Y27559D02*
D03*
X-23622Y23622D02*
D03*
X-25590Y82677D02*
D03*
X-27559Y23622D02*
D03*
X-25590Y19685D02*
D03*
X-27559Y15748D02*
D03*
X-31496Y23622D02*
D03*
X-29527Y19685D02*
D03*
X-31496Y15748D02*
D03*
X-29527Y11811D02*
D03*
X-31496Y7874D02*
D03*
X-29527Y3937D02*
D03*
X-31496Y0D02*
D03*
X-29527Y-3937D02*
D03*
X-35433Y23622D02*
D03*
X-33464Y19685D02*
D03*
X-35433Y15748D02*
D03*
X-33464Y11811D02*
D03*
X-35433Y7874D02*
D03*
X-33464Y3937D02*
D03*
X-35433Y0D02*
D03*
X-33464Y-3937D02*
D03*
X-37401Y19685D02*
D03*
X-39370Y15748D02*
D03*
X-37401Y11811D02*
D03*
X-39370Y7874D02*
D03*
X-37401Y3937D02*
D03*
X-41338Y11811D02*
D03*
X-43307Y7874D02*
D03*
X-41338Y3937D02*
D03*
X-53149Y74803D02*
D03*
X-55118Y70866D02*
D03*
Y-70866D02*
D03*
X-53149Y-74803D02*
D03*
X-57086Y74803D02*
D03*
X-59055Y70866D02*
D03*
Y-62992D02*
D03*
X-57086Y-66929D02*
D03*
X-59055Y-70866D02*
D03*
X-62992Y78740D02*
D03*
Y70866D02*
D03*
X-61023Y66929D02*
D03*
X-62992Y62992D02*
D03*
Y-62992D02*
D03*
X-61023Y-66929D02*
D03*
X-62992Y-70866D02*
D03*
X-61023Y-74803D02*
D03*
X-62992Y-78740D02*
D03*
X-64960Y74803D02*
D03*
Y66929D02*
D03*
X-66929Y62992D02*
D03*
Y-62992D02*
D03*
X-64960Y-66929D02*
D03*
Y-74803D02*
D03*
X-68897Y66929D02*
D03*
X-70866Y62992D02*
D03*
X-68897Y59055D02*
D03*
X-70866Y55118D02*
D03*
Y-55118D02*
D03*
X-68897Y-59055D02*
D03*
X-70866Y-62992D02*
D03*
X-68897Y-66929D02*
D03*
X-74803Y62992D02*
D03*
X-72834Y59055D02*
D03*
X-74803Y55118D02*
D03*
X-72834Y51181D02*
D03*
X-74803Y47244D02*
D03*
Y-47244D02*
D03*
X-72834Y-51181D02*
D03*
X-74803Y-55118D02*
D03*
X-72834Y-59055D02*
D03*
X-74803Y-62992D02*
D03*
X-78740Y62992D02*
D03*
X-76771Y59055D02*
D03*
X-78740Y-62992D02*
D03*
X-31137Y-64151D02*
D03*
X-8407Y50001D02*
D03*
X-4528Y45177D02*
D03*
X4232Y36220D02*
D03*
X-3248Y36417D02*
D03*
X-11909Y36319D02*
D03*
X8661Y36909D02*
D03*
X-22933Y67126D02*
D03*
X-17686Y47557D02*
D03*
X-26969Y51968D02*
D03*
X22244Y68110D02*
D03*
X16437Y53150D02*
D03*
X13159Y49003D02*
D03*
X-41437Y-6201D02*
D03*
X23228Y-36220D02*
D03*
X19291D02*
D03*
X21260Y-38189D02*
D03*
X29134Y-40551D02*
D03*
X45669Y-42520D02*
D03*
X70866Y-63386D02*
D03*
X28051Y51772D02*
D03*
X34646Y50098D02*
D03*
X16096Y-46193D02*
D03*
X-8268Y-70866D02*
D03*
X-32283Y28346D02*
D03*
X-28346D02*
D03*
X0Y-31496D02*
D03*
X39370Y-3937D02*
D03*
Y1181D02*
D03*
X32677Y-48819D02*
D03*
X32283Y-43701D02*
D03*
X33465Y-40551D02*
D03*
X-60236Y74410D02*
D03*
X76378Y62205D02*
D03*
X-56299Y-75984D02*
D03*
X-75984Y-57874D02*
D03*
X39370Y-8465D02*
D03*
X22047Y-23228D02*
D03*
X39173Y-41831D02*
D03*
X-52085Y19397D02*
D03*
X-51233Y21705D02*
D03*
X-55512Y24213D02*
D03*
X-56402Y21890D02*
D03*
D69*
X-21404Y-64625D02*
D03*
X4626Y-31201D02*
D03*
X49680Y72964D02*
D03*
X7821Y-33112D02*
D03*
X9843Y-30315D02*
D03*
X52615Y-49553D02*
D03*
X13189Y54245D02*
D03*
X2380Y-65047D02*
D03*
X5906Y68504D02*
D03*
X-1129Y71527D02*
D03*
X-44860Y53490D02*
D03*
X-39984Y48440D02*
D03*
X39872Y-48767D02*
D03*
X43198Y45847D02*
D03*
X-15945Y-64764D02*
D03*
X-20177Y-66929D02*
D03*
X-18799Y-64665D02*
D03*
X-14341Y-71215D02*
D03*
X35827Y-23622D02*
D03*
X42126Y10630D02*
D03*
X38967Y20069D02*
D03*
X42913Y-12992D02*
D03*
X58661Y13386D02*
D03*
X43731Y-20336D02*
D03*
X43035Y-31191D02*
D03*
X48425Y21654D02*
D03*
X4821Y52930D02*
D03*
X-40566Y-26084D02*
D03*
X40410Y26325D02*
D03*
X-42218Y23315D02*
D03*
X-1374Y48209D02*
D03*
X25497Y67927D02*
D03*
X-42220Y39871D02*
D03*
X-48646Y-21412D02*
D03*
X-55804Y-16067D02*
D03*
X-43444Y30619D02*
D03*
X-62195Y-9991D02*
D03*
X62124Y10422D02*
D03*
X-47244Y-74803D02*
D03*
X-83661Y16732D02*
D03*
X-47244Y75787D02*
D03*
X82835Y-16551D02*
D03*
X46260Y-75787D02*
D03*
X65916Y29647D02*
D03*
X-65916Y-29647D02*
D03*
X-71343Y-11577D02*
D03*
X-58633Y42261D02*
D03*
X71343Y11577D02*
D03*
X58633Y-42261D02*
D03*
X45697Y-55997D02*
D03*
X-61483Y-37997D02*
D03*
X-69222Y-20790D02*
D03*
X-34247Y-63648D02*
D03*
X-72244Y-2165D02*
D03*
X-63648Y34247D02*
D03*
X-52615Y49553D02*
D03*
X-38027Y61103D02*
D03*
X16607Y70343D02*
D03*
X34247Y63648D02*
D03*
X61483Y37997D02*
D03*
X69222Y20790D02*
D03*
X72244Y2165D02*
D03*
X63648Y-34247D02*
D03*
X37997Y-61483D02*
D03*
D70*
X21949Y53839D02*
D03*
X-31512Y39739D02*
D03*
X-20990Y51874D02*
D03*
D72*
X13189Y54245D02*
X16607Y70343D01*
M02*
