G04*
G04 #@! TF.GenerationSoftware,Altium Limited,Altium Designer,21.9.2 (33)*
G04*
G04 Layer_Color=16711935*
%FSLAX25Y25*%
%MOIN*%
G70*
G04*
G04 #@! TF.SameCoordinates,566D7FF9-8C5A-44BD-93FD-671ACA51C2D0*
G04*
G04*
G04 #@! TF.FilePolarity,Negative*
G04*
G01*
G75*
%ADD60C,0.55918*%
%ADD61C,0.20485*%
%ADD98C,0.00100*%
G04:AMPARAMS|DCode=99|XSize=67.06mil|YSize=56.42mil|CornerRadius=16.11mil|HoleSize=0mil|Usage=FLASHONLY|Rotation=180.000|XOffset=0mil|YOffset=0mil|HoleType=Round|Shape=RoundedRectangle|*
%AMROUNDEDRECTD99*
21,1,0.06706,0.02421,0,0,180.0*
21,1,0.03484,0.05642,0,0,180.0*
1,1,0.03221,-0.01742,0.01211*
1,1,0.03221,0.01742,0.01211*
1,1,0.03221,0.01742,-0.01211*
1,1,0.03221,-0.01742,-0.01211*
%
%ADD99ROUNDEDRECTD99*%
G04:AMPARAMS|DCode=100|XSize=27.69mil|YSize=47.37mil|CornerRadius=0mil|HoleSize=0mil|Usage=FLASHONLY|Rotation=333.000|XOffset=0mil|YOffset=0mil|HoleType=Round|Shape=Round|*
%AMOVALD100*
21,1,0.01968,0.02769,0.00000,0.00000,63.0*
1,1,0.02769,-0.00447,-0.00877*
1,1,0.02769,0.00447,0.00877*
%
%ADD100OVALD100*%

G04:AMPARAMS|DCode=101|XSize=54mil|YSize=78mil|CornerRadius=0mil|HoleSize=0mil|Usage=FLASHONLY|Rotation=153.000|XOffset=0mil|YOffset=0mil|HoleType=Round|Shape=Rectangle|*
%AMROTATEDRECTD101*
4,1,4,0.04176,0.02249,0.00635,-0.04701,-0.04176,-0.02249,-0.00635,0.04701,0.04176,0.02249,0.0*
%
%ADD101ROTATEDRECTD101*%

%ADD102C,0.02769*%
G04:AMPARAMS|DCode=103|XSize=31.62mil|YSize=29.65mil|CornerRadius=9.41mil|HoleSize=0mil|Usage=FLASHONLY|Rotation=90.000|XOffset=0mil|YOffset=0mil|HoleType=Round|Shape=RoundedRectangle|*
%AMROUNDEDRECTD103*
21,1,0.03162,0.01083,0,0,90.0*
21,1,0.01280,0.02965,0,0,90.0*
1,1,0.01883,0.00541,0.00640*
1,1,0.01883,0.00541,-0.00640*
1,1,0.01883,-0.00541,-0.00640*
1,1,0.01883,-0.00541,0.00640*
%
%ADD103ROUNDEDRECTD103*%
%ADD104C,0.04737*%
G04:AMPARAMS|DCode=105|XSize=90.68mil|YSize=126.11mil|CornerRadius=24.67mil|HoleSize=0mil|Usage=FLASHONLY|Rotation=157.500|XOffset=0mil|YOffset=0mil|HoleType=Round|Shape=RoundedRectangle|*
%AMROUNDEDRECTD105*
21,1,0.09068,0.07677,0,0,157.5*
21,1,0.04134,0.12611,0,0,157.5*
1,1,0.04934,-0.00441,0.04337*
1,1,0.04934,0.03379,0.02755*
1,1,0.04934,0.00441,-0.04337*
1,1,0.04934,-0.03379,-0.02755*
%
%ADD105ROUNDEDRECTD105*%
G04:AMPARAMS|DCode=106|XSize=39.5mil|YSize=70.99mil|CornerRadius=11.87mil|HoleSize=0mil|Usage=FLASHONLY|Rotation=337.500|XOffset=0mil|YOffset=0mil|HoleType=Round|Shape=RoundedRectangle|*
%AMROUNDEDRECTD106*
21,1,0.03950,0.04724,0,0,337.5*
21,1,0.01575,0.07099,0,0,337.5*
1,1,0.02375,-0.00177,-0.02484*
1,1,0.02375,-0.01631,-0.01881*
1,1,0.02375,0.00177,0.02484*
1,1,0.02375,0.01631,0.01881*
%
%ADD106ROUNDEDRECTD106*%
G04:AMPARAMS|DCode=107|XSize=61.15mil|YSize=45.4mil|CornerRadius=13.35mil|HoleSize=0mil|Usage=FLASHONLY|Rotation=180.000|XOffset=0mil|YOffset=0mil|HoleType=Round|Shape=RoundedRectangle|*
%AMROUNDEDRECTD107*
21,1,0.06115,0.01870,0,0,180.0*
21,1,0.03445,0.04540,0,0,180.0*
1,1,0.02670,-0.01722,0.00935*
1,1,0.02670,0.01722,0.00935*
1,1,0.02670,0.01722,-0.00935*
1,1,0.02670,-0.01722,-0.00935*
%
%ADD107ROUNDEDRECTD107*%
G04:AMPARAMS|DCode=108|XSize=32.5mil|YSize=34mil|CornerRadius=10.13mil|HoleSize=0mil|Usage=FLASHONLY|Rotation=270.000|XOffset=0mil|YOffset=0mil|HoleType=Round|Shape=RoundedRectangle|*
%AMROUNDEDRECTD108*
21,1,0.03250,0.01375,0,0,270.0*
21,1,0.01225,0.03400,0,0,270.0*
1,1,0.02025,-0.00688,-0.00613*
1,1,0.02025,-0.00688,0.00613*
1,1,0.02025,0.00688,0.00613*
1,1,0.02025,0.00688,-0.00613*
%
%ADD108ROUNDEDRECTD108*%
G04:AMPARAMS|DCode=109|XSize=27.69mil|YSize=31.62mil|CornerRadius=8.92mil|HoleSize=0mil|Usage=FLASHONLY|Rotation=270.000|XOffset=0mil|YOffset=0mil|HoleType=Round|Shape=RoundedRectangle|*
%AMROUNDEDRECTD109*
21,1,0.02769,0.01378,0,0,270.0*
21,1,0.00984,0.03162,0,0,270.0*
1,1,0.01784,-0.00689,-0.00492*
1,1,0.01784,-0.00689,0.00492*
1,1,0.01784,0.00689,0.00492*
1,1,0.01784,0.00689,-0.00492*
%
%ADD109ROUNDEDRECTD109*%
%ADD110C,0.01476*%
G04:AMPARAMS|DCode=111|XSize=27.69mil|YSize=31.62mil|CornerRadius=8.92mil|HoleSize=0mil|Usage=FLASHONLY|Rotation=135.000|XOffset=0mil|YOffset=0mil|HoleType=Round|Shape=RoundedRectangle|*
%AMROUNDEDRECTD111*
21,1,0.02769,0.01378,0,0,135.0*
21,1,0.00984,0.03162,0,0,135.0*
1,1,0.01784,0.00139,0.00835*
1,1,0.01784,0.00835,0.00139*
1,1,0.01784,-0.00139,-0.00835*
1,1,0.01784,-0.00835,-0.00139*
%
%ADD111ROUNDEDRECTD111*%
G04:AMPARAMS|DCode=112|XSize=90.68mil|YSize=126.11mil|CornerRadius=24.67mil|HoleSize=0mil|Usage=FLASHONLY|Rotation=202.413|XOffset=0mil|YOffset=0mil|HoleType=Round|Shape=RoundedRectangle|*
%AMROUNDEDRECTD112*
21,1,0.09068,0.07677,0,0,202.4*
21,1,0.04134,0.12611,0,0,202.4*
1,1,0.04934,-0.03374,0.02761*
1,1,0.04934,0.00447,0.04337*
1,1,0.04934,0.03374,-0.02761*
1,1,0.04934,-0.00447,-0.04337*
%
%ADD112ROUNDEDRECTD112*%
G04:AMPARAMS|DCode=113|XSize=39.5mil|YSize=70.99mil|CornerRadius=11.87mil|HoleSize=0mil|Usage=FLASHONLY|Rotation=22.413|XOffset=0mil|YOffset=0mil|HoleType=Round|Shape=RoundedRectangle|*
%AMROUNDEDRECTD113*
21,1,0.03950,0.04724,0,0,22.4*
21,1,0.01575,0.07099,0,0,22.4*
1,1,0.02375,0.01629,-0.01884*
1,1,0.02375,0.00173,-0.02484*
1,1,0.02375,-0.01629,0.01884*
1,1,0.02375,-0.00173,0.02484*
%
%ADD113ROUNDEDRECTD113*%
G04:AMPARAMS|DCode=114|XSize=31.62mil|YSize=29.65mil|CornerRadius=9.41mil|HoleSize=0mil|Usage=FLASHONLY|Rotation=180.000|XOffset=0mil|YOffset=0mil|HoleType=Round|Shape=RoundedRectangle|*
%AMROUNDEDRECTD114*
21,1,0.03162,0.01083,0,0,180.0*
21,1,0.01280,0.02965,0,0,180.0*
1,1,0.01883,-0.00640,0.00541*
1,1,0.01883,0.00640,0.00541*
1,1,0.01883,0.00640,-0.00541*
1,1,0.01883,-0.00640,-0.00541*
%
%ADD114ROUNDEDRECTD114*%
G04:AMPARAMS|DCode=115|XSize=31.62mil|YSize=29.65mil|CornerRadius=9.41mil|HoleSize=0mil|Usage=FLASHONLY|Rotation=246.000|XOffset=0mil|YOffset=0mil|HoleType=Round|Shape=RoundedRectangle|*
%AMROUNDEDRECTD115*
21,1,0.03162,0.01083,0,0,246.0*
21,1,0.01280,0.02965,0,0,246.0*
1,1,0.01883,-0.00755,-0.00364*
1,1,0.01883,-0.00234,0.00805*
1,1,0.01883,0.00755,0.00364*
1,1,0.01883,0.00234,-0.00805*
%
%ADD115ROUNDEDRECTD115*%
G04:AMPARAMS|DCode=116|XSize=31.62mil|YSize=29.65mil|CornerRadius=9.41mil|HoleSize=0mil|Usage=FLASHONLY|Rotation=240.000|XOffset=0mil|YOffset=0mil|HoleType=Round|Shape=RoundedRectangle|*
%AMROUNDEDRECTD116*
21,1,0.03162,0.01083,0,0,240.0*
21,1,0.01280,0.02965,0,0,240.0*
1,1,0.01883,-0.00789,-0.00283*
1,1,0.01883,-0.00149,0.00825*
1,1,0.01883,0.00789,0.00283*
1,1,0.01883,0.00149,-0.00825*
%
%ADD116ROUNDEDRECTD116*%
G04:AMPARAMS|DCode=117|XSize=27.69mil|YSize=31.62mil|CornerRadius=8.92mil|HoleSize=0mil|Usage=FLASHONLY|Rotation=270.008|XOffset=0mil|YOffset=0mil|HoleType=Round|Shape=RoundedRectangle|*
%AMROUNDEDRECTD117*
21,1,0.02769,0.01378,0,0,270.0*
21,1,0.00984,0.03162,0,0,270.0*
1,1,0.01784,-0.00689,-0.00492*
1,1,0.01784,-0.00689,0.00492*
1,1,0.01784,0.00689,0.00492*
1,1,0.01784,0.00689,-0.00492*
%
%ADD117ROUNDEDRECTD117*%
G04:AMPARAMS|DCode=118|XSize=27.69mil|YSize=31.62mil|CornerRadius=8.92mil|HoleSize=0mil|Usage=FLASHONLY|Rotation=0.000|XOffset=0mil|YOffset=0mil|HoleType=Round|Shape=RoundedRectangle|*
%AMROUNDEDRECTD118*
21,1,0.02769,0.01378,0,0,0.0*
21,1,0.00984,0.03162,0,0,0.0*
1,1,0.01784,0.00492,-0.00689*
1,1,0.01784,-0.00492,-0.00689*
1,1,0.01784,-0.00492,0.00689*
1,1,0.01784,0.00492,0.00689*
%
%ADD118ROUNDEDRECTD118*%
G04:AMPARAMS|DCode=119|XSize=31.62mil|YSize=29.65mil|CornerRadius=9.41mil|HoleSize=0mil|Usage=FLASHONLY|Rotation=315.000|XOffset=0mil|YOffset=0mil|HoleType=Round|Shape=RoundedRectangle|*
%AMROUNDEDRECTD119*
21,1,0.03162,0.01083,0,0,315.0*
21,1,0.01280,0.02965,0,0,315.0*
1,1,0.01883,0.00070,-0.00835*
1,1,0.01883,-0.00835,0.00070*
1,1,0.01883,-0.00070,0.00835*
1,1,0.01883,0.00835,-0.00070*
%
%ADD119ROUNDEDRECTD119*%
G36*
X15061Y40410D02*
X15074Y40410D01*
X15763Y40353D01*
X15776Y40351D01*
X15789Y40350D01*
X15802Y40348D01*
X15814Y40346D01*
X15827Y40342D01*
X15841Y40339D01*
X16504Y40149D01*
X16517Y40144D01*
X16530Y40140D01*
X16542Y40135D01*
X16554Y40131D01*
X16566Y40125D01*
X16578Y40119D01*
X16882Y39962D01*
X16882Y39962D01*
X16883Y39961D01*
X16885Y39961D01*
X16895Y39954D01*
X16898Y39952D01*
X16915Y39944D01*
X16921Y39939D01*
X16928Y39935D01*
X16929Y39934D01*
X16929Y39934D01*
X16939Y39926D01*
X16942Y39924D01*
X16957Y39913D01*
X16963Y39907D01*
X16969Y39903D01*
X16970Y39901D01*
X16971Y39901D01*
X16979Y39892D01*
X16982Y39889D01*
X16995Y39876D01*
X17000Y39871D01*
X17005Y39865D01*
X17006Y39863D01*
X17007Y39863D01*
X17014Y39853D01*
X17016Y39850D01*
X17028Y39836D01*
X17032Y39829D01*
X17037Y39823D01*
X17038Y39821D01*
X17038Y39821D01*
X17044Y39809D01*
X17046Y39807D01*
X17055Y39791D01*
X17059Y39784D01*
X17062Y39777D01*
X17063Y39776D01*
X17063Y39775D01*
X17069Y39761D01*
X17069Y39760D01*
X17077Y39743D01*
X17079Y39736D01*
X17082Y39729D01*
X17082Y39727D01*
X17082Y39726D01*
X17086Y39711D01*
X17086Y39711D01*
X17091Y39693D01*
X17093Y39685D01*
X17095Y39678D01*
X17095Y39676D01*
X17095Y39675D01*
X17097Y39659D01*
X17100Y39641D01*
X17100Y39633D01*
X17101Y39626D01*
X17101Y39624D01*
X17101Y39623D01*
X17100Y39607D01*
X17101Y39589D01*
X17100Y39581D01*
X17100Y39573D01*
X17100Y39572D01*
X17100Y39571D01*
X17097Y39554D01*
X17095Y39536D01*
X17094Y39529D01*
X17093Y39521D01*
X17092Y39520D01*
X17092Y39519D01*
X17087Y39503D01*
X17083Y39485D01*
X17080Y39478D01*
X17078Y39471D01*
X17078Y39470D01*
X17077Y39469D01*
X17071Y39453D01*
X17064Y39437D01*
X17061Y39430D01*
X17058Y39423D01*
X13880Y33186D01*
X13867Y33164D01*
X13855Y33143D01*
X13854Y33142D01*
X13853Y33141D01*
X13838Y33122D01*
X13822Y33102D01*
X13821Y33101D01*
X13821Y33100D01*
X13803Y33082D01*
X13785Y33065D01*
X13784Y33064D01*
X13783Y33063D01*
X13762Y33048D01*
X13743Y33033D01*
X13742Y33033D01*
X13741Y33032D01*
X13719Y33019D01*
X13698Y33007D01*
X13696Y33007D01*
X13695Y33006D01*
X13672Y32997D01*
X13649Y32988D01*
X13648Y32987D01*
X13647Y32987D01*
X13622Y32981D01*
X13598Y32974D01*
X13597Y32974D01*
X13596Y32974D01*
X13571Y32971D01*
X13546Y32968D01*
X13545Y32968D01*
X13544Y32968D01*
X13519Y32968D01*
X13494Y32968D01*
X13492Y32968D01*
X13491Y32968D01*
X13466Y32972D01*
X13442Y32975D01*
X13441Y32976D01*
X13439Y32976D01*
X13415Y32983D01*
X13391Y32989D01*
X13390Y32990D01*
X13389Y32990D01*
X13366Y33000D01*
X13343Y33010D01*
X13034Y33165D01*
X13023Y33171D01*
X13011Y33177D01*
X13000Y33185D01*
X12989Y33191D01*
X12979Y33199D01*
X12967Y33207D01*
X12423Y33632D01*
X12413Y33641D01*
X12402Y33649D01*
X12393Y33658D01*
X12384Y33667D01*
X12375Y33677D01*
X12366Y33687D01*
X11916Y34210D01*
X11908Y34221D01*
X11899Y34231D01*
X11892Y34242D01*
X11884Y34252D01*
X11878Y34264D01*
X11870Y34275D01*
X11532Y34877D01*
X11526Y34889D01*
X11519Y34901D01*
X11515Y34913D01*
X11509Y34925D01*
X11505Y34937D01*
X11500Y34950D01*
X11287Y35607D01*
X11283Y35620D01*
X11279Y35632D01*
X11277Y35645D01*
X11274Y35657D01*
X11272Y35671D01*
X11270Y35684D01*
X11190Y36370D01*
X11189Y36384D01*
X11187Y36397D01*
X11187Y36409D01*
X11187Y36422D01*
X11188Y36436D01*
X11188Y36449D01*
X11244Y37137D01*
X11246Y37151D01*
X11248Y37164D01*
X11250Y37177D01*
X11252Y37189D01*
X11256Y37202D01*
X11259Y37215D01*
X11449Y37879D01*
X11454Y37892D01*
X11458Y37905D01*
X11463Y37916D01*
X11467Y37929D01*
X11473Y37940D01*
X11479Y37953D01*
X11637Y38259D01*
X11637Y38260D01*
X11790Y38564D01*
X11797Y38575D01*
X11803Y38587D01*
X11810Y38598D01*
X11816Y38609D01*
X11825Y38619D01*
X11832Y38631D01*
X12257Y39175D01*
X12266Y39185D01*
X12274Y39195D01*
X12284Y39204D01*
X12292Y39214D01*
X12302Y39223D01*
X12312Y39232D01*
X12836Y39682D01*
X12846Y39690D01*
X12857Y39699D01*
X12867Y39706D01*
X12878Y39714D01*
X12889Y39720D01*
X12900Y39728D01*
X13502Y40066D01*
X13515Y40072D01*
X13526Y40078D01*
X13538Y40083D01*
X13550Y40089D01*
X13563Y40093D01*
X13575Y40098D01*
X14232Y40311D01*
X14245Y40315D01*
X14258Y40319D01*
X14270Y40321D01*
X14283Y40324D01*
X14296Y40326D01*
X14309Y40328D01*
X14995Y40408D01*
X15009Y40409D01*
X15022Y40411D01*
X15035Y40410D01*
X15047Y40411D01*
X15061Y40410D01*
D02*
G37*
G36*
X22227Y37190D02*
X22253Y37190D01*
X22255Y37190D01*
X22256Y37189D01*
X22280Y37186D01*
X22305Y37183D01*
X22307Y37182D01*
X22308Y37182D01*
X22331Y37175D01*
X22356Y37169D01*
X22357Y37168D01*
X22358Y37168D01*
X22380Y37158D01*
X22404Y37148D01*
X22713Y36993D01*
X22725Y36987D01*
X22737Y36981D01*
X22747Y36973D01*
X22758Y36967D01*
X22769Y36959D01*
X22780Y36951D01*
X23324Y36526D01*
X23334Y36517D01*
X23345Y36509D01*
X23354Y36500D01*
X23363Y36491D01*
X23372Y36481D01*
X23382Y36471D01*
X23832Y35948D01*
X23840Y35937D01*
X23848Y35927D01*
X23855Y35916D01*
X23863Y35906D01*
X23870Y35894D01*
X23877Y35883D01*
X24216Y35281D01*
X24221Y35269D01*
X24228Y35257D01*
X24233Y35245D01*
X24238Y35233D01*
X24242Y35221D01*
X24247Y35208D01*
X24461Y34551D01*
X24464Y34538D01*
X24468Y34526D01*
X24471Y34513D01*
X24474Y34501D01*
X24475Y34487D01*
X24478Y34474D01*
X24558Y33788D01*
X24558Y33775D01*
X24560Y33761D01*
X24560Y33749D01*
X24560Y33736D01*
X24559Y33722D01*
X24559Y33709D01*
X24503Y33020D01*
X24501Y33007D01*
X24500Y32994D01*
X24497Y32981D01*
X24495Y32969D01*
X24491Y32956D01*
X24489Y32943D01*
X24298Y32279D01*
X24293Y32266D01*
X24290Y32253D01*
X24285Y32241D01*
X24280Y32230D01*
X24274Y32217D01*
X24269Y32205D01*
X24110Y31898D01*
X24110Y31898D01*
X23957Y31594D01*
X23951Y31583D01*
X23945Y31571D01*
X23937Y31560D01*
X23931Y31549D01*
X23923Y31539D01*
X23915Y31528D01*
X23490Y30983D01*
X23481Y30973D01*
X23473Y30963D01*
X23464Y30954D01*
X23455Y30944D01*
X23445Y30935D01*
X23435Y30926D01*
X22912Y30476D01*
X22901Y30468D01*
X22891Y30459D01*
X22880Y30452D01*
X22870Y30444D01*
X22858Y30438D01*
X22847Y30430D01*
X22245Y30092D01*
X22233Y30086D01*
X22221Y30080D01*
X22209Y30075D01*
X22197Y30069D01*
X22185Y30065D01*
X22172Y30060D01*
X21515Y29847D01*
X21502Y29843D01*
X21490Y29839D01*
X21477Y29837D01*
X21465Y29834D01*
X21451Y29832D01*
X21438Y29830D01*
X20752Y29750D01*
X20739Y29749D01*
X20725Y29748D01*
X20713Y29748D01*
X20700Y29747D01*
X20686Y29748D01*
X20673Y29748D01*
X19985Y29805D01*
X19971Y29807D01*
X19958Y29808D01*
X19945Y29811D01*
X19933Y29812D01*
X19920Y29816D01*
X19907Y29819D01*
X19243Y30009D01*
X19230Y30014D01*
X19217Y30018D01*
X19206Y30023D01*
X19194Y30027D01*
X19182Y30033D01*
X19169Y30039D01*
X18865Y30196D01*
X18865Y30196D01*
X18865Y30196D01*
X18863Y30197D01*
X18857Y30201D01*
X18850Y30204D01*
X18835Y30214D01*
X18820Y30223D01*
X18819Y30224D01*
X18818Y30224D01*
X18812Y30229D01*
X18806Y30233D01*
X18806Y30233D01*
X18793Y30244D01*
X18779Y30255D01*
X18778Y30256D01*
X18777Y30257D01*
X18772Y30262D01*
X18767Y30267D01*
X18754Y30280D01*
X18742Y30293D01*
X18742Y30294D01*
X18740Y30295D01*
X18736Y30301D01*
X18732Y30306D01*
X18721Y30321D01*
X18711Y30335D01*
X18710Y30336D01*
X18709Y30337D01*
X18706Y30343D01*
X18702Y30349D01*
X18693Y30366D01*
X18685Y30381D01*
X18685Y30382D01*
X18684Y30383D01*
X18681Y30390D01*
X18678Y30396D01*
X18672Y30414D01*
X18672Y30415D01*
X18666Y30430D01*
X18665Y30430D01*
X18665Y30432D01*
X18663Y30439D01*
X18661Y30445D01*
X18657Y30464D01*
X18656Y30467D01*
X18653Y30480D01*
X18653Y30481D01*
X18652Y30483D01*
X18652Y30490D01*
X18650Y30497D01*
X18649Y30516D01*
X18648Y30519D01*
X18647Y30532D01*
X18647Y30533D01*
X18646Y30535D01*
X18647Y30542D01*
X18646Y30549D01*
X18647Y30568D01*
X18647Y30573D01*
X18647Y30585D01*
X18647Y30585D01*
X18647Y30587D01*
X18649Y30594D01*
X18649Y30601D01*
X18652Y30620D01*
X18653Y30627D01*
X18655Y30637D01*
X18655Y30637D01*
X18655Y30639D01*
X18657Y30646D01*
X18658Y30653D01*
X18665Y30671D01*
X18666Y30678D01*
X18669Y30687D01*
X18669Y30688D01*
X18670Y30690D01*
X18673Y30696D01*
X18675Y30703D01*
X18683Y30720D01*
X18687Y30728D01*
X18690Y30735D01*
X18690Y30736D01*
X18691Y30738D01*
X18692Y30739D01*
X21867Y36972D01*
X21880Y36993D01*
X21893Y37015D01*
X21894Y37016D01*
X21894Y37017D01*
X21909Y37036D01*
X21925Y37056D01*
X21926Y37057D01*
X21927Y37058D01*
X21945Y37076D01*
X21962Y37093D01*
X21963Y37094D01*
X21964Y37095D01*
X21985Y37110D01*
X22004Y37125D01*
X22005Y37125D01*
X22006Y37126D01*
X22028Y37138D01*
X22050Y37151D01*
X22051Y37151D01*
X22052Y37152D01*
X22074Y37161D01*
X22098Y37170D01*
X22100Y37171D01*
X22101Y37171D01*
X22124Y37177D01*
X22149Y37184D01*
X22150Y37184D01*
X22151Y37184D01*
X22175Y37187D01*
X22201Y37190D01*
X22202Y37190D01*
X22204Y37190D01*
X22227Y37190D01*
D02*
G37*
G36*
X41135Y41089D02*
X41148Y41090D01*
X41837Y41054D01*
X41850Y41052D01*
X41863Y41051D01*
X41876Y41049D01*
X41889Y41047D01*
X41901Y41044D01*
X41914Y41042D01*
X42582Y40872D01*
X42595Y40868D01*
X42608Y40865D01*
X42620Y40860D01*
X42632Y40856D01*
X42644Y40850D01*
X42656Y40845D01*
X43279Y40549D01*
X43290Y40542D01*
X43302Y40536D01*
X43313Y40529D01*
X43324Y40523D01*
X43335Y40515D01*
X43346Y40508D01*
X43898Y40095D01*
X43908Y40087D01*
X43919Y40079D01*
X43928Y40070D01*
X43938Y40061D01*
X43947Y40051D01*
X43956Y40042D01*
X44187Y39786D01*
X44187Y39786D01*
X44418Y39530D01*
X44426Y39520D01*
X44435Y39510D01*
X44442Y39499D01*
X44450Y39489D01*
X44457Y39478D01*
X44464Y39467D01*
X44817Y38874D01*
X44823Y38863D01*
X44829Y38851D01*
X44835Y38839D01*
X44841Y38827D01*
X44845Y38815D01*
X44850Y38803D01*
X45080Y38153D01*
X45084Y38140D01*
X45088Y38128D01*
X45091Y38115D01*
X45095Y38103D01*
X45096Y38090D01*
X45099Y38077D01*
X45198Y37395D01*
X45199Y37382D01*
X45201Y37369D01*
X45201Y37355D01*
X45202Y37342D01*
X45202Y37329D01*
X45202Y37316D01*
X45166Y36628D01*
X45164Y36615D01*
X45163Y36601D01*
X45161Y36589D01*
X45160Y36575D01*
X45156Y36563D01*
X45154Y36550D01*
X44984Y35882D01*
X44980Y35869D01*
X44977Y35857D01*
X44972Y35844D01*
X44968Y35832D01*
X44962Y35820D01*
X44957Y35808D01*
X44661Y35186D01*
X44654Y35174D01*
X44649Y35162D01*
X44641Y35151D01*
X44635Y35140D01*
X44627Y35129D01*
X44620Y35118D01*
X44208Y34566D01*
X44199Y34556D01*
X44191Y34545D01*
X44182Y34536D01*
X44173Y34526D01*
X44164Y34517D01*
X44155Y34508D01*
X43898Y34277D01*
X43898Y34277D01*
X43886Y34267D01*
X43874Y34257D01*
X43865Y34251D01*
X43857Y34245D01*
X43844Y34236D01*
X43830Y34228D01*
X43821Y34223D01*
X43812Y34218D01*
X43797Y34212D01*
X43784Y34205D01*
X43774Y34201D01*
X43764Y34197D01*
X43749Y34193D01*
X43734Y34188D01*
X43724Y34186D01*
X43714Y34183D01*
X43698Y34181D01*
X43682Y34178D01*
X43672Y34177D01*
X43662Y34175D01*
X43646Y34175D01*
X43630Y34174D01*
X43620Y34175D01*
X43609Y34175D01*
X43593Y34176D01*
X43578Y34178D01*
X43567Y34180D01*
X43557Y34181D01*
X43542Y34185D01*
X43526Y34188D01*
X43517Y34191D01*
X43506Y34194D01*
X43492Y34200D01*
X43477Y34205D01*
X43467Y34209D01*
X43457Y34213D01*
X43444Y34221D01*
X43430Y34228D01*
X43421Y34234D01*
X43412Y34239D01*
X43399Y34248D01*
X43386Y34257D01*
X43378Y34264D01*
X43370Y34270D01*
X43358Y34281D01*
X43347Y34292D01*
X43340Y34299D01*
X43332Y34307D01*
X38648Y39509D01*
X38631Y39531D01*
X38616Y39550D01*
X38616Y39550D01*
X38616Y39550D01*
X38589Y39595D01*
X38572Y39633D01*
X38568Y39643D01*
X38568Y39643D01*
Y39643D01*
X38554Y39694D01*
X38550Y39723D01*
X38547Y39746D01*
X38546Y39798D01*
D01*
Y39798D01*
X38552Y39850D01*
X38562Y39889D01*
X38565Y39901D01*
X38565Y39901D01*
Y39901D01*
X38584Y39950D01*
X38610Y39995D01*
X38641Y40037D01*
X38676Y40073D01*
X38678Y40075D01*
D01*
X38678Y40075D01*
X38678Y40075D01*
X38934Y40306D01*
X38945Y40314D01*
X38954Y40322D01*
X38965Y40330D01*
X38975Y40338D01*
X38987Y40345D01*
X38997Y40352D01*
X39590Y40705D01*
X39602Y40711D01*
X39613Y40717D01*
X39625Y40723D01*
X39637Y40729D01*
X39649Y40733D01*
X39661Y40738D01*
X40311Y40968D01*
X40324Y40972D01*
X40336Y40976D01*
X40349Y40979D01*
X40361Y40982D01*
X40374Y40984D01*
X40387Y40987D01*
X41070Y41086D01*
X41083Y41087D01*
X41096Y41089D01*
X41109Y41089D01*
X41122Y41090D01*
X41135Y41089D01*
D02*
G37*
G36*
X38302Y39588D02*
X38312Y39588D01*
X38328Y39586D01*
X38344Y39585D01*
X38354Y39583D01*
X38364Y39582D01*
X38380Y39578D01*
X38395Y39575D01*
X38405Y39571D01*
X38415Y39569D01*
X38430Y39563D01*
X38445Y39558D01*
X38454Y39553D01*
X38464Y39549D01*
X38478Y39542D01*
X38492Y39535D01*
X38501Y39529D01*
X38510Y39524D01*
X38522Y39514D01*
X38535Y39505D01*
X38543Y39498D01*
X38552Y39492D01*
X38563Y39481D01*
X38575Y39471D01*
X38582Y39463D01*
X38589Y39456D01*
X43273Y34254D01*
X43291Y34232D01*
X43306Y34212D01*
X43306Y34212D01*
X43306Y34212D01*
X43332Y34167D01*
X43353Y34119D01*
X43367Y34069D01*
X43372Y34040D01*
X43375Y34017D01*
X43376Y33964D01*
D01*
Y33964D01*
X43369Y33912D01*
X43361Y33878D01*
X43357Y33862D01*
X43357Y33862D01*
Y33862D01*
X43337Y33813D01*
X43312Y33767D01*
X43296Y33746D01*
X43280Y33725D01*
X43244Y33688D01*
D01*
X43244Y33687D01*
X43244Y33687D01*
X42987Y33457D01*
X42977Y33449D01*
X42967Y33440D01*
X42957Y33433D01*
X42946Y33424D01*
X42935Y33418D01*
X42924Y33410D01*
X42332Y33058D01*
X42320Y33052D01*
X42309Y33045D01*
X42297Y33040D01*
X42285Y33034D01*
X42272Y33029D01*
X42261Y33024D01*
X41611Y32794D01*
X41598Y32791D01*
X41586Y32786D01*
X41573Y32783D01*
X41560Y32780D01*
X41547Y32778D01*
X41534Y32775D01*
X40852Y32676D01*
X40839Y32675D01*
X40826Y32673D01*
X40813Y32673D01*
X40800Y32672D01*
X40786Y32673D01*
X40773Y32673D01*
X40085Y32709D01*
X40072Y32710D01*
X40059Y32711D01*
X40046Y32713D01*
X40033Y32715D01*
X40020Y32718D01*
X40007Y32721D01*
X39339Y32890D01*
X39327Y32895D01*
X39314Y32898D01*
X39302Y32903D01*
X39289Y32907D01*
X39277Y32912D01*
X39265Y32917D01*
X38643Y33214D01*
X38631Y33220D01*
X38620Y33226D01*
X38609Y33233D01*
X38597Y33240D01*
X38587Y33247D01*
X38576Y33255D01*
X38023Y33667D01*
X38013Y33676D01*
X38003Y33683D01*
X37993Y33693D01*
X37983Y33701D01*
X37975Y33711D01*
X37965Y33720D01*
X37735Y33976D01*
X37734Y33976D01*
X37504Y34232D01*
X37496Y34243D01*
X37487Y34253D01*
X37479Y34263D01*
X37471Y34274D01*
X37465Y34285D01*
X37457Y34296D01*
X37105Y34888D01*
X37099Y34900D01*
X37092Y34911D01*
X37087Y34923D01*
X37081Y34935D01*
X37077Y34947D01*
X37071Y34959D01*
X36841Y35609D01*
X36838Y35622D01*
X36833Y35634D01*
X36830Y35647D01*
X36827Y35660D01*
X36825Y35673D01*
X36822Y35686D01*
X36723Y36368D01*
X36722Y36381D01*
X36720Y36394D01*
X36720Y36407D01*
X36719Y36420D01*
X36720Y36433D01*
X36720Y36446D01*
X36756Y37135D01*
X36757Y37148D01*
X36758Y37161D01*
X36761Y37174D01*
X36762Y37187D01*
X36765Y37200D01*
X36768Y37212D01*
X36937Y37881D01*
X36941Y37893D01*
X36945Y37906D01*
X36950Y37918D01*
X36954Y37931D01*
X36959Y37942D01*
X36964Y37955D01*
X37261Y38577D01*
X37267Y38588D01*
X37273Y38600D01*
X37280Y38611D01*
X37286Y38623D01*
X37294Y38633D01*
X37301Y38644D01*
X37714Y39197D01*
X37723Y39206D01*
X37730Y39217D01*
X37740Y39227D01*
X37748Y39237D01*
X37758Y39245D01*
X37767Y39255D01*
X38023Y39485D01*
X38023Y39485D01*
X38036Y39495D01*
X38047Y39505D01*
X38056Y39511D01*
X38064Y39518D01*
X38078Y39526D01*
X38091Y39535D01*
X38100Y39539D01*
X38109Y39545D01*
X38124Y39551D01*
X38138Y39558D01*
X38148Y39561D01*
X38158Y39565D01*
X38173Y39570D01*
X38188Y39575D01*
X38198Y39577D01*
X38208Y39580D01*
X38224Y39582D01*
X38239Y39585D01*
X38250Y39586D01*
X38260Y39587D01*
X38276Y39587D01*
X38291Y39588D01*
X38302Y39588D01*
D02*
G37*
G36*
X48013Y31694D02*
X48026D01*
X48714Y31649D01*
X48727Y31648D01*
X48740Y31647D01*
X48753Y31644D01*
X48766Y31642D01*
X48779Y31639D01*
X48792Y31637D01*
X49458Y31458D01*
X49470Y31454D01*
X49483Y31451D01*
X49495Y31446D01*
X49507Y31441D01*
X49519Y31435D01*
X49531Y31431D01*
X50150Y31126D01*
X50161Y31119D01*
X50173Y31113D01*
X50184Y31106D01*
X50195Y31099D01*
X50205Y31091D01*
X50217Y31084D01*
X50763Y30664D01*
X50773Y30656D01*
X50784Y30648D01*
X50793Y30638D01*
X50803Y30630D01*
X50811Y30620D01*
X50821Y30611D01*
X51275Y30092D01*
X51283Y30082D01*
X51292Y30072D01*
X51299Y30061D01*
X51307Y30051D01*
X51314Y30039D01*
X51321Y30028D01*
X51493Y29730D01*
X51494Y29730D01*
X51666Y29431D01*
X51672Y29419D01*
X51678Y29408D01*
X51683Y29396D01*
X51689Y29384D01*
X51693Y29372D01*
X51698Y29360D01*
X51920Y28707D01*
X51923Y28694D01*
X51928Y28682D01*
X51930Y28669D01*
X51933Y28656D01*
X51935Y28643D01*
X51938Y28630D01*
X52028Y27947D01*
X52029Y27934D01*
X52030Y27921D01*
Y27908D01*
X52031Y27894D01*
X52030Y27881D01*
Y27868D01*
X51985Y27180D01*
X51983Y27167D01*
X51983Y27154D01*
X51980Y27141D01*
X51978Y27128D01*
X51975Y27116D01*
X51972Y27103D01*
X51794Y26437D01*
X51790Y26424D01*
X51786Y26412D01*
X51781Y26400D01*
X51777Y26387D01*
X51771Y26375D01*
X51766Y26363D01*
X51461Y25745D01*
X51455Y25734D01*
X51449Y25722D01*
X51442Y25711D01*
X51435Y25699D01*
X51427Y25689D01*
X51420Y25678D01*
X51000Y25131D01*
X50991Y25121D01*
X50984Y25111D01*
X50974Y25102D01*
X50966Y25092D01*
X50956Y25083D01*
X50946Y25074D01*
X50428Y24619D01*
X50418Y24611D01*
X50408Y24603D01*
X50397Y24595D01*
X50387Y24587D01*
X50375Y24581D01*
X50364Y24574D01*
X50066Y24401D01*
X50066Y24401D01*
X50019Y24378D01*
X49969Y24361D01*
X49918Y24351D01*
X49865Y24347D01*
X49813Y24351D01*
X49762Y24361D01*
X49712Y24378D01*
X49680Y24394D01*
X49665Y24401D01*
X49621Y24430D01*
X49582Y24465D01*
X49547Y24504D01*
X49518Y24548D01*
X46018Y30610D01*
X46018Y30610D01*
X46018Y30610D01*
D01*
X46017Y30611D01*
X45995Y30657D01*
X45994Y30660D01*
X45978Y30707D01*
X45973Y30733D01*
X45968Y30758D01*
X45964Y30810D01*
X45967Y30852D01*
X45968Y30863D01*
X45973Y30888D01*
X45978Y30914D01*
X45995Y30964D01*
X46018Y31011D01*
X46047Y31054D01*
X46082Y31094D01*
X46082Y31094D01*
X46082Y31094D01*
X46093Y31104D01*
X46121Y31128D01*
X46165Y31158D01*
X46463Y31330D01*
X46475Y31336D01*
X46486Y31342D01*
X46499Y31347D01*
X46510Y31353D01*
X46523Y31357D01*
X46535Y31362D01*
X47188Y31584D01*
X47200Y31587D01*
X47213Y31592D01*
X47226Y31594D01*
X47238Y31598D01*
X47251Y31599D01*
X47264Y31602D01*
X47948Y31692D01*
X47961Y31693D01*
X47974Y31694D01*
X47987D01*
X48000Y31695D01*
X48013Y31694D01*
D02*
G37*
G36*
X45654Y30767D02*
X45706Y30757D01*
X45756Y30740D01*
X45803Y30717D01*
X45846Y30688D01*
X45886Y30653D01*
X45920Y30614D01*
X45949Y30570D01*
X45949Y30570D01*
X49449Y24508D01*
X49472Y24461D01*
X49489Y24413D01*
X49489Y24411D01*
D01*
X49489Y24411D01*
X49494Y24391D01*
X49500Y24360D01*
X49503Y24308D01*
Y24308D01*
Y24308D01*
X49500Y24255D01*
X49493Y24221D01*
X49489Y24204D01*
X49489Y24204D01*
D01*
X49472Y24154D01*
X49461Y24132D01*
X49449Y24107D01*
X49449Y24107D01*
D01*
X49449Y24107D01*
X49420Y24064D01*
X49386Y24024D01*
X49386Y24024D01*
X49386Y24024D01*
X49346Y23990D01*
X49303Y23961D01*
X49303Y23961D01*
D01*
X49303Y23960D01*
X49303Y23960D01*
X49004Y23788D01*
X48992Y23782D01*
X48981Y23776D01*
X48969Y23771D01*
X48957Y23765D01*
X48945Y23761D01*
X48932Y23756D01*
X48280Y23534D01*
X48267Y23531D01*
X48255Y23527D01*
X48242Y23524D01*
X48229Y23520D01*
X48216Y23519D01*
X48203Y23516D01*
X47520Y23426D01*
X47506Y23425D01*
X47493Y23424D01*
X47480D01*
X47467Y23423D01*
X47454Y23424D01*
X47441D01*
X46753Y23469D01*
X46740Y23470D01*
X46727Y23471D01*
X46714Y23474D01*
X46701Y23476D01*
X46688Y23479D01*
X46676Y23482D01*
X46010Y23660D01*
X45997Y23664D01*
X45985Y23668D01*
X45972Y23673D01*
X45960Y23677D01*
X45948Y23683D01*
X45936Y23688D01*
X45318Y23993D01*
X45306Y23999D01*
X45294Y24005D01*
X45284Y24012D01*
X45272Y24019D01*
X45262Y24027D01*
X45251Y24034D01*
X44704Y24454D01*
X44694Y24463D01*
X44684Y24471D01*
X44674Y24480D01*
X44665Y24488D01*
X44656Y24498D01*
X44647Y24508D01*
X44192Y25026D01*
X44184Y25036D01*
X44175Y25046D01*
X44168Y25057D01*
X44160Y25067D01*
X44154Y25079D01*
X44146Y25090D01*
X43974Y25388D01*
X43974Y25388D01*
X43802Y25687D01*
X43796Y25699D01*
X43789Y25710D01*
X43784Y25722D01*
X43778Y25734D01*
X43774Y25746D01*
X43769Y25758D01*
X43547Y26411D01*
X43544Y26424D01*
X43540Y26436D01*
X43537Y26449D01*
X43534Y26462D01*
X43532Y26475D01*
X43530Y26488D01*
X43440Y27171D01*
X43439Y27185D01*
X43437Y27198D01*
Y27211D01*
X43436Y27224D01*
X43437Y27237D01*
Y27250D01*
X43482Y27938D01*
X43484Y27951D01*
X43485Y27964D01*
X43487Y27977D01*
X43489Y27990D01*
X43492Y28003D01*
X43495Y28015D01*
X43673Y28681D01*
X43678Y28694D01*
X43681Y28706D01*
X43686Y28719D01*
X43690Y28731D01*
X43696Y28743D01*
X43701Y28755D01*
X44006Y29373D01*
X44013Y29385D01*
X44018Y29396D01*
X44026Y29407D01*
X44032Y29419D01*
X44040Y29429D01*
X44048Y29440D01*
X44467Y29987D01*
X44476Y29997D01*
X44484Y30007D01*
X44493Y30016D01*
X44502Y30026D01*
X44512Y30035D01*
X44521Y30044D01*
X45039Y30499D01*
X45050Y30507D01*
X45060Y30516D01*
X45070Y30523D01*
X45081Y30531D01*
X45092Y30537D01*
X45103Y30545D01*
X45401Y30717D01*
X45402Y30717D01*
X45449Y30740D01*
X45498Y30757D01*
X45550Y30767D01*
X45602Y30771D01*
X45654Y30767D01*
D02*
G37*
G36*
X52789Y21085D02*
X52802Y21084D01*
X53489Y21030D01*
X53502Y21028D01*
X53515Y21027D01*
X53528Y21025D01*
X53541Y21023D01*
X53554Y21019D01*
X53567Y21017D01*
X54230Y20830D01*
X54242Y20825D01*
X54255Y20821D01*
X54267Y20816D01*
X54280Y20812D01*
X54291Y20806D01*
X54303Y20801D01*
X54918Y20488D01*
X54929Y20481D01*
X54941Y20475D01*
X54951Y20468D01*
X54963Y20461D01*
X54973Y20453D01*
X54984Y20446D01*
X55525Y20019D01*
X55535Y20010D01*
X55545Y20002D01*
X55554Y19992D01*
X55564Y19984D01*
X55573Y19974D01*
X55582Y19964D01*
X56030Y19440D01*
X56037Y19429D01*
X56046Y19419D01*
X56053Y19408D01*
X56061Y19398D01*
X56067Y19386D01*
X56075Y19375D01*
X56411Y18774D01*
X56417Y18762D01*
X56423Y18751D01*
X56428Y18738D01*
X56434Y18726D01*
X56438Y18714D01*
X56443Y18702D01*
X56549Y18374D01*
X56550Y18374D01*
X56656Y18046D01*
X56659Y18033D01*
X56663Y18021D01*
X56666Y18008D01*
X56669Y17995D01*
X56670Y17982D01*
X56673Y17969D01*
X56754Y17285D01*
X56754Y17272D01*
X56756Y17259D01*
X56756Y17245D01*
X56757Y17232D01*
X56756Y17219D01*
X56755Y17206D01*
X56701Y16519D01*
X56699Y16506D01*
X56698Y16493D01*
X56696Y16480D01*
X56694Y16467D01*
X56690Y16454D01*
X56687Y16442D01*
X56500Y15778D01*
X56496Y15766D01*
X56492Y15753D01*
X56487Y15741D01*
X56483Y15729D01*
X56477Y15717D01*
X56472Y15705D01*
X56159Y15090D01*
X56152Y15079D01*
X56146Y15067D01*
X56138Y15057D01*
X56132Y15045D01*
X56124Y15035D01*
X56116Y15024D01*
X55690Y14483D01*
X55681Y14473D01*
X55673Y14463D01*
X55663Y14454D01*
X55654Y14444D01*
X55645Y14435D01*
X55635Y14426D01*
X55111Y13979D01*
X55100Y13971D01*
X55090Y13962D01*
X55079Y13955D01*
X55069Y13947D01*
X55057Y13941D01*
X55046Y13934D01*
X54445Y13597D01*
X54433Y13591D01*
X54422Y13585D01*
X54409Y13580D01*
X54397Y13574D01*
X54385Y13570D01*
X54373Y13565D01*
X54045Y13459D01*
X54035Y13456D01*
X54025Y13453D01*
X54009Y13450D01*
X53994Y13446D01*
X53984Y13444D01*
X53973Y13442D01*
X53958Y13441D01*
X53942Y13440D01*
X53931Y13440D01*
X53921Y13439D01*
X53905Y13440D01*
X53890Y13440D01*
X53879Y13442D01*
X53869Y13442D01*
X53853Y13446D01*
X53838Y13448D01*
X53828Y13451D01*
X53817Y13453D01*
X53802Y13458D01*
X53787Y13462D01*
X53778Y13466D01*
X53768Y13469D01*
X53754Y13476D01*
X53739Y13483D01*
X53730Y13488D01*
X53721Y13493D01*
X53708Y13501D01*
X53694Y13510D01*
X53686Y13516D01*
X53677Y13522D01*
X53665Y13532D01*
X53653Y13542D01*
X53645Y13550D01*
X53638Y13556D01*
X53627Y13568D01*
X53616Y13580D01*
X53610Y13588D01*
X53603Y13596D01*
X53594Y13609D01*
X53585Y13622D01*
X53580Y13631D01*
X53574Y13640D01*
X53567Y13654D01*
X53559Y13667D01*
X53555Y13677D01*
X53551Y13687D01*
X53546Y13701D01*
X53540Y13716D01*
X53540Y13716D01*
X51377Y20373D01*
X51364Y20424D01*
X51359Y20464D01*
X51358Y20476D01*
Y20476D01*
D01*
X51358Y20529D01*
X51366Y20581D01*
X51380Y20631D01*
X51399Y20674D01*
X51401Y20679D01*
X51401Y20679D01*
Y20679D01*
X51428Y20724D01*
X51460Y20765D01*
X51498Y20802D01*
X51540Y20833D01*
X51575Y20854D01*
X51585Y20859D01*
X51585D01*
X51585Y20859D01*
X51634Y20878D01*
X51634Y20878D01*
X51962Y20985D01*
X51975Y20988D01*
X51987Y20992D01*
X52000Y20995D01*
X52013Y20998D01*
X52026Y21000D01*
X52039Y21002D01*
X52723Y21083D01*
X52736Y21084D01*
X52749Y21085D01*
X52763Y21085D01*
X52776Y21086D01*
X52789Y21085D01*
D02*
G37*
G36*
X50936Y20625D02*
X50951Y20625D01*
X50962Y20623D01*
X50972Y20622D01*
X50988Y20619D01*
X51003Y20617D01*
X51013Y20614D01*
X51024Y20612D01*
X51039Y20607D01*
X51054Y20603D01*
X51063Y20599D01*
X51073Y20595D01*
X51087Y20588D01*
X51102Y20582D01*
X51111Y20577D01*
X51120Y20572D01*
X51133Y20563D01*
X51147Y20555D01*
X51155Y20549D01*
X51164Y20543D01*
X51176Y20533D01*
X51188Y20523D01*
X51195Y20515D01*
X51203Y20508D01*
X51203Y20508D01*
X51214Y20497D01*
X51225Y20485D01*
X51231Y20477D01*
X51238Y20469D01*
X51247Y20456D01*
X51256Y20443D01*
X51261Y20434D01*
X51267Y20425D01*
X51274Y20411D01*
X51282Y20398D01*
X51286Y20388D01*
X51290Y20378D01*
X51295Y20364D01*
X51301Y20349D01*
X53464Y13691D01*
X53477Y13641D01*
X53482Y13600D01*
X53483Y13589D01*
Y13589D01*
D01*
X53483Y13536D01*
X53475Y13484D01*
X53470Y13464D01*
X53461Y13434D01*
X53440Y13386D01*
X53413Y13341D01*
X53381Y13299D01*
X53381Y13299D01*
D01*
X53343Y13263D01*
X53329Y13252D01*
X53301Y13231D01*
X53256Y13206D01*
X53256D01*
X53256Y13206D01*
X53207Y13186D01*
X53207Y13186D01*
X52879Y13080D01*
X52866Y13077D01*
X52854Y13073D01*
X52841Y13070D01*
X52828Y13067D01*
X52815Y13065D01*
X52802Y13063D01*
X52118Y12982D01*
X52105Y12981D01*
X52091Y12980D01*
X52078Y12980D01*
X52065Y12979D01*
X52052Y12980D01*
X52039Y12980D01*
X51352Y13034D01*
X51339Y13036D01*
X51326Y13037D01*
X51313Y13040D01*
X51300Y13042D01*
X51287Y13046D01*
X51274Y13048D01*
X50611Y13235D01*
X50599Y13240D01*
X50586Y13243D01*
X50574Y13249D01*
X50561Y13253D01*
X50550Y13259D01*
X50538Y13264D01*
X49923Y13577D01*
X49912Y13584D01*
X49900Y13590D01*
X49889Y13597D01*
X49878Y13604D01*
X49868Y13612D01*
X49857Y13619D01*
X49316Y14046D01*
X49306Y14055D01*
X49296Y14063D01*
X49286Y14073D01*
X49277Y14081D01*
X49268Y14091D01*
X49259Y14101D01*
X48811Y14625D01*
X48803Y14636D01*
X48795Y14646D01*
X48788Y14657D01*
X48780Y14667D01*
X48774Y14678D01*
X48766Y14690D01*
X48430Y15291D01*
X48424Y15303D01*
X48417Y15314D01*
X48413Y15326D01*
X48407Y15338D01*
X48403Y15351D01*
X48398Y15363D01*
X48292Y15688D01*
X48292Y15688D01*
X48292Y15688D01*
X48292Y15691D01*
X48292Y15691D01*
X48185Y16019D01*
X48182Y16032D01*
X48178Y16044D01*
X48175Y16057D01*
X48172Y16070D01*
X48171Y16082D01*
X48168Y16095D01*
X48087Y16780D01*
X48087Y16793D01*
X48085Y16806D01*
X48085Y16819D01*
X48084Y16833D01*
X48085Y16846D01*
X48086Y16859D01*
X48140Y17546D01*
X48142Y17559D01*
X48143Y17572D01*
X48145Y17585D01*
X48147Y17598D01*
X48151Y17611D01*
X48153Y17623D01*
X48341Y18287D01*
X48345Y18299D01*
X48349Y18312D01*
X48354Y18324D01*
X48358Y18336D01*
X48364Y18348D01*
X48369Y18360D01*
X48682Y18974D01*
X48689Y18986D01*
X48695Y18997D01*
X48702Y19008D01*
X48709Y19019D01*
X48717Y19030D01*
X48725Y19041D01*
X49152Y19582D01*
X49160Y19592D01*
X49168Y19602D01*
X49178Y19611D01*
X49187Y19621D01*
X49196Y19629D01*
X49206Y19639D01*
X49730Y20086D01*
X49741Y20094D01*
X49751Y20103D01*
X49762Y20110D01*
X49772Y20118D01*
X49784Y20124D01*
X49795Y20131D01*
X50396Y20468D01*
X50408Y20474D01*
X50419Y20480D01*
X50432Y20485D01*
X50444Y20491D01*
X50456Y20495D01*
X50468Y20500D01*
X50796Y20606D01*
X50806Y20609D01*
X50816Y20612D01*
X50832Y20615D01*
X50847Y20619D01*
X50857Y20620D01*
X50868Y20622D01*
X50883Y20623D01*
X50899Y20625D01*
X50909Y20625D01*
X50920Y20626D01*
X50936Y20625D01*
D02*
G37*
G36*
X55255Y9724D02*
X55268Y9724D01*
X55954Y9660D01*
X55967Y9658D01*
X55981Y9657D01*
X55993Y9654D01*
X56006Y9652D01*
X56019Y9648D01*
X56032Y9646D01*
X56693Y9450D01*
X56705Y9445D01*
X56718Y9442D01*
X56730Y9436D01*
X56742Y9432D01*
X56753Y9426D01*
X56766Y9420D01*
X57376Y9099D01*
X57387Y9092D01*
X57398Y9086D01*
X57409Y9079D01*
X57420Y9072D01*
X57431Y9064D01*
X57441Y9056D01*
X57977Y8622D01*
X57987Y8613D01*
X57997Y8605D01*
X58006Y8595D01*
X58016Y8586D01*
X58024Y8576D01*
X58033Y8567D01*
X58474Y8037D01*
X58482Y8026D01*
X58490Y8016D01*
X58497Y8005D01*
X58505Y7994D01*
X58511Y7983D01*
X58518Y7972D01*
X58847Y7366D01*
X58852Y7354D01*
X58859Y7342D01*
X58864Y7330D01*
X58869Y7318D01*
X58873Y7306D01*
X58877Y7293D01*
X59082Y6635D01*
X59085Y6622D01*
X59089Y6610D01*
X59091Y6597D01*
X59094Y6584D01*
X59096Y6571D01*
X59098Y6558D01*
X59134Y6215D01*
X59134Y6215D01*
X59170Y5872D01*
X59170Y5859D01*
X59172Y5846D01*
X59171Y5833D01*
X59172Y5820D01*
X59171Y5807D01*
X59170Y5794D01*
X59107Y5107D01*
X59105Y5094D01*
X59104Y5081D01*
X59101Y5068D01*
X59099Y5055D01*
X59095Y5043D01*
X59092Y5030D01*
X58897Y4369D01*
X58892Y4357D01*
X58888Y4344D01*
X58883Y4332D01*
X58878Y4320D01*
X58872Y4308D01*
X58867Y4296D01*
X58546Y3686D01*
X58539Y3675D01*
X58533Y3663D01*
X58526Y3652D01*
X58519Y3641D01*
X58510Y3631D01*
X58503Y3621D01*
X58069Y3085D01*
X58060Y3075D01*
X58052Y3065D01*
X58042Y3056D01*
X58033Y3046D01*
X58023Y3038D01*
X58014Y3029D01*
X57484Y2588D01*
X57473Y2580D01*
X57463Y2572D01*
X57452Y2565D01*
X57441Y2557D01*
X57430Y2551D01*
X57419Y2544D01*
X56813Y2215D01*
X56801Y2209D01*
X56789Y2203D01*
X56777Y2198D01*
X56765Y2193D01*
X56753Y2189D01*
X56740Y2184D01*
X56082Y1980D01*
X56069Y1977D01*
X56057Y1973D01*
X56044Y1971D01*
X56031Y1968D01*
X56018Y1966D01*
X56005Y1964D01*
X55662Y1928D01*
X55641Y1927D01*
X55620Y1926D01*
X55615Y1926D01*
X55610Y1926D01*
X55589Y1928D01*
X55568Y1929D01*
X55563Y1930D01*
X55558Y1931D01*
X55537Y1935D01*
X55516Y1939D01*
X55511Y1941D01*
X55506Y1942D01*
X55487Y1949D01*
X55467Y1956D01*
X55462Y1959D01*
X55457Y1960D01*
X55439Y1970D01*
X55420Y1980D01*
X55415Y1982D01*
X55411Y1985D01*
X55394Y1997D01*
X55376Y2009D01*
X55372Y2012D01*
X55368Y2015D01*
X55352Y2029D01*
X55337Y2043D01*
X55337Y2043D01*
X55333Y2047D01*
X55329Y2051D01*
X55316Y2067D01*
X55302Y2083D01*
X55299Y2087D01*
X55296Y2091D01*
X55285Y2109D01*
X55273Y2126D01*
X55271Y2131D01*
X55268Y2135D01*
X55259Y2154D01*
X55250Y2173D01*
X55248Y2178D01*
X55246Y2183D01*
X55240Y2203D01*
X55233Y2223D01*
X55232Y2228D01*
X55230Y2233D01*
X55227Y2254D01*
X55223Y2274D01*
X55222Y2280D01*
X55221Y2285D01*
X54490Y9246D01*
X54490Y9246D01*
X54488Y9299D01*
Y9299D01*
Y9299D01*
X54489Y9313D01*
X54492Y9351D01*
X54496Y9367D01*
X54504Y9402D01*
X54519Y9442D01*
X54522Y9451D01*
X54522Y9451D01*
D01*
X54547Y9498D01*
X54577Y9540D01*
X54607Y9573D01*
X54612Y9579D01*
X54612Y9579D01*
X54612Y9579D01*
X54653Y9613D01*
X54697Y9641D01*
X54745Y9663D01*
X54759Y9667D01*
X54795Y9678D01*
X54847Y9687D01*
X55189Y9723D01*
X55203Y9724D01*
X55216Y9725D01*
X55229Y9725D01*
X55242Y9725D01*
X55255Y9724D01*
D02*
G37*
G36*
X54032Y9596D02*
X54041Y9596D01*
X54058Y9594D01*
X54075Y9592D01*
X54084Y9590D01*
X54093Y9589D01*
X54109Y9584D01*
X54126Y9580D01*
X54135Y9577D01*
X54143Y9575D01*
X54159Y9568D01*
X54175Y9562D01*
X54183Y9558D01*
X54191Y9555D01*
X54191Y9555D01*
X54206Y9546D01*
X54222Y9538D01*
X54229Y9533D01*
X54237Y9528D01*
X54250Y9518D01*
X54264Y9508D01*
X54271Y9502D01*
X54278Y9496D01*
X54290Y9484D01*
X54303Y9472D01*
X54309Y9465D01*
X54315Y9459D01*
X54325Y9445D01*
X54337Y9432D01*
X54341Y9424D01*
X54347Y9417D01*
X54355Y9402D01*
X54365Y9387D01*
X54368Y9379D01*
X54373Y9371D01*
X54379Y9356D01*
X54387Y9340D01*
X54389Y9331D01*
X54392Y9323D01*
X54397Y9306D01*
X54402Y9290D01*
X54404Y9281D01*
X54406Y9272D01*
X54408Y9255D01*
X54411Y9238D01*
X55143Y2276D01*
X55143Y2276D01*
X55145Y2224D01*
Y2224D01*
Y2224D01*
X55143Y2210D01*
X55140Y2172D01*
X55136Y2155D01*
X55128Y2121D01*
X55110Y2072D01*
X55086Y2025D01*
X55055Y1982D01*
X55025Y1950D01*
X55020Y1944D01*
X55020Y1944D01*
X55020Y1944D01*
X54979Y1910D01*
X54935Y1882D01*
X54888Y1860D01*
X54838Y1845D01*
X54786Y1836D01*
X54786D01*
X54443Y1800D01*
X54430Y1799D01*
X54417Y1798D01*
X54404Y1798D01*
X54391Y1798D01*
X54378Y1799D01*
X54364Y1799D01*
X53678Y1862D01*
X53665Y1864D01*
X53652Y1866D01*
X53639Y1869D01*
X53626Y1871D01*
X53614Y1874D01*
X53601Y1877D01*
X52940Y2073D01*
X52927Y2077D01*
X52915Y2081D01*
X52903Y2087D01*
X52890Y2091D01*
X52879Y2097D01*
X52867Y2103D01*
X52257Y2424D01*
X52245Y2430D01*
X52234Y2437D01*
X52223Y2444D01*
X52212Y2451D01*
X52202Y2459D01*
X52191Y2467D01*
X51655Y2901D01*
X51646Y2910D01*
X51635Y2918D01*
X51626Y2927D01*
X51617Y2936D01*
X51608Y2946D01*
X51599Y2956D01*
X51158Y3486D01*
X51151Y3497D01*
X51142Y3507D01*
X51135Y3518D01*
X51128Y3528D01*
X51121Y3540D01*
X51114Y3551D01*
X50785Y4157D01*
X50780Y4169D01*
X50774Y4180D01*
X50769Y4193D01*
X50763Y4205D01*
X50760Y4217D01*
X50755Y4229D01*
X50550Y4888D01*
X50547Y4901D01*
X50543Y4913D01*
X50541Y4926D01*
X50538Y4939D01*
X50537Y4952D01*
X50535Y4965D01*
X50499Y5307D01*
X50499Y5308D01*
X50463Y5650D01*
X50462Y5663D01*
X50461Y5677D01*
X50461Y5690D01*
X50460Y5703D01*
X50462Y5716D01*
X50462Y5729D01*
X50525Y6416D01*
X50527Y6429D01*
X50528Y6442D01*
X50531Y6454D01*
X50533Y6467D01*
X50537Y6480D01*
X50540Y6493D01*
X50736Y7154D01*
X50740Y7166D01*
X50744Y7179D01*
X50749Y7191D01*
X50754Y7203D01*
X50760Y7215D01*
X50765Y7227D01*
X51086Y7837D01*
X51093Y7848D01*
X51099Y7859D01*
X51107Y7870D01*
X51114Y7881D01*
X51122Y7892D01*
X51130Y7902D01*
X51563Y8438D01*
X51572Y8448D01*
X51581Y8458D01*
X51590Y8467D01*
X51599Y8477D01*
X51609Y8485D01*
X51619Y8494D01*
X52149Y8935D01*
X52159Y8943D01*
X52169Y8951D01*
X52180Y8958D01*
X52191Y8966D01*
X52203Y8972D01*
X52214Y8979D01*
X52820Y9308D01*
X52832Y9313D01*
X52843Y9320D01*
X52855Y9324D01*
X52867Y9330D01*
X52880Y9334D01*
X52892Y9339D01*
X53550Y9543D01*
X53563Y9546D01*
X53576Y9550D01*
X53589Y9552D01*
X53601Y9555D01*
X53615Y9557D01*
X53627Y9559D01*
X53970Y9595D01*
X53979Y9595D01*
X53988Y9596D01*
X54005Y9596D01*
X54023Y9597D01*
X54032Y9596D01*
D02*
G37*
G36*
X55614Y-1926D02*
X55662Y-1928D01*
X56005Y-1964D01*
X56018Y-1966D01*
X56031Y-1968D01*
X56044Y-1971D01*
X56057Y-1973D01*
X56069Y-1977D01*
X56082Y-1980D01*
X56740Y-2184D01*
X56753Y-2189D01*
X56765Y-2193D01*
X56777Y-2198D01*
X56789Y-2203D01*
X56801Y-2209D01*
X56813Y-2215D01*
X57419Y-2544D01*
X57430Y-2551D01*
X57441Y-2557D01*
X57452Y-2565D01*
X57463Y-2572D01*
X57473Y-2580D01*
X57484Y-2588D01*
X58014Y-3029D01*
X58023Y-3038D01*
X58033Y-3046D01*
X58042Y-3056D01*
X58052Y-3065D01*
X58060Y-3075D01*
X58069Y-3085D01*
X58503Y-3620D01*
X58510Y-3631D01*
X58519Y-3641D01*
X58526Y-3653D01*
X58533Y-3663D01*
X58539Y-3675D01*
X58546Y-3686D01*
X58867Y-4296D01*
X58872Y-4308D01*
X58879Y-4320D01*
X58883Y-4332D01*
X58888Y-4344D01*
X58892Y-4357D01*
X58897Y-4369D01*
X59092Y-5030D01*
X59095Y-5043D01*
X59099Y-5055D01*
X59101Y-5068D01*
X59104Y-5081D01*
X59105Y-5094D01*
X59107Y-5107D01*
X59170Y-5794D01*
X59171Y-5807D01*
X59172Y-5820D01*
X59171Y-5833D01*
X59172Y-5846D01*
X59170Y-5859D01*
X59170Y-5872D01*
X59134Y-6215D01*
Y-6215D01*
X59098Y-6558D01*
X59096Y-6571D01*
X59094Y-6584D01*
X59091Y-6597D01*
X59089Y-6610D01*
X59085Y-6622D01*
X59082Y-6635D01*
X58877Y-7293D01*
X58873Y-7306D01*
X58869Y-7318D01*
X58864Y-7330D01*
X58859Y-7342D01*
X58852Y-7354D01*
X58847Y-7366D01*
X58518Y-7972D01*
X58511Y-7983D01*
X58505Y-7994D01*
X58497Y-8005D01*
X58490Y-8016D01*
X58482Y-8026D01*
X58474Y-8037D01*
X58033Y-8567D01*
X58024Y-8576D01*
X58016Y-8586D01*
X58006Y-8595D01*
X57997Y-8605D01*
X57987Y-8613D01*
X57977Y-8622D01*
X57441Y-9056D01*
X57431Y-9064D01*
X57420Y-9072D01*
X57409Y-9079D01*
X57398Y-9086D01*
X57387Y-9092D01*
X57376Y-9099D01*
X56766Y-9420D01*
X56753Y-9426D01*
X56742Y-9432D01*
X56730Y-9436D01*
X56718Y-9442D01*
X56705Y-9445D01*
X56693Y-9450D01*
X56032Y-9646D01*
X56019Y-9648D01*
X56006Y-9652D01*
X55993Y-9654D01*
X55981Y-9657D01*
X55968Y-9658D01*
X55955Y-9660D01*
X55268Y-9724D01*
X55255Y-9724D01*
X55242Y-9725D01*
X55229Y-9725D01*
X55216Y-9725D01*
X55203Y-9724D01*
X55189Y-9723D01*
X54847Y-9687D01*
X54847D01*
X54842Y-9686D01*
X54836Y-9686D01*
X54815Y-9682D01*
X54795Y-9678D01*
X54790Y-9676D01*
X54785Y-9675D01*
X54765Y-9669D01*
X54745Y-9663D01*
X54740Y-9660D01*
X54735Y-9659D01*
X54716Y-9649D01*
X54697Y-9641D01*
X54693Y-9638D01*
X54688Y-9635D01*
X54671Y-9624D01*
X54653Y-9613D01*
X54649Y-9609D01*
X54645Y-9606D01*
X54629Y-9592D01*
X54613Y-9579D01*
X54609Y-9575D01*
X54605Y-9572D01*
X54591Y-9556D01*
X54577Y-9541D01*
X54574Y-9536D01*
X54571Y-9532D01*
X54559Y-9515D01*
X54547Y-9498D01*
X54544Y-9493D01*
X54541Y-9489D01*
X54532Y-9470D01*
X54522Y-9451D01*
X54520Y-9446D01*
X54518Y-9442D01*
X54511Y-9422D01*
X54504Y-9402D01*
X54503Y-9397D01*
X54501Y-9392D01*
X54497Y-9371D01*
X54493Y-9351D01*
X54492Y-9346D01*
X54491Y-9341D01*
X54490Y-9320D01*
X54488Y-9299D01*
X54488Y-9294D01*
X54488Y-9288D01*
X54489Y-9267D01*
X54490Y-9246D01*
X55221Y-2285D01*
X55221Y-2285D01*
X55230Y-2233D01*
X55246Y-2183D01*
X55258Y-2157D01*
X55268Y-2135D01*
X55279Y-2118D01*
X55296Y-2091D01*
X55329Y-2051D01*
X55329Y-2051D01*
D01*
X55332Y-2048D01*
X55368Y-2015D01*
X55411Y-1985D01*
X55457Y-1960D01*
X55506Y-1942D01*
X55558Y-1931D01*
X55610Y-1926D01*
X55610D01*
X55610D01*
X55614Y-1926D01*
D02*
G37*
G36*
X54404Y-1798D02*
X54417Y-1798D01*
X54430Y-1799D01*
X54443Y-1800D01*
X54786Y-1836D01*
X54786Y-1836D01*
X54803Y-1839D01*
X54820Y-1841D01*
X54829Y-1843D01*
X54838Y-1845D01*
X54854Y-1850D01*
X54871Y-1854D01*
X54879Y-1858D01*
X54887Y-1860D01*
X54903Y-1867D01*
X54919Y-1874D01*
X54927Y-1878D01*
X54935Y-1882D01*
X54950Y-1891D01*
X54965Y-1900D01*
X54972Y-1905D01*
X54979Y-1910D01*
X54993Y-1921D01*
X55007Y-1932D01*
X55013Y-1938D01*
X55020Y-1944D01*
X55032Y-1956D01*
X55044Y-1969D01*
X55049Y-1976D01*
X55055Y-1982D01*
X55065Y-1996D01*
X55076Y-2010D01*
X55080Y-2018D01*
X55086Y-2025D01*
X55094Y-2040D01*
X55102Y-2055D01*
X55106Y-2063D01*
X55110Y-2072D01*
X55116Y-2088D01*
X55123Y-2104D01*
X55125Y-2112D01*
X55128Y-2121D01*
X55132Y-2138D01*
X55137Y-2154D01*
X55138Y-2163D01*
X55140Y-2172D01*
X55141Y-2189D01*
X55144Y-2206D01*
X55144Y-2215D01*
X55145Y-2224D01*
X55144Y-2241D01*
X55144Y-2259D01*
X55143Y-2267D01*
X55143Y-2276D01*
X54411Y-9238D01*
X54411Y-9238D01*
X54402Y-9290D01*
X54387Y-9340D01*
X54375Y-9365D01*
X54365Y-9387D01*
X54354Y-9405D01*
X54337Y-9432D01*
X54303Y-9472D01*
X54303Y-9472D01*
D01*
X54300Y-9475D01*
X54264Y-9508D01*
X54222Y-9538D01*
X54175Y-9562D01*
X54126Y-9581D01*
X54075Y-9592D01*
X54023Y-9597D01*
X54023D01*
X54023D01*
X54019Y-9597D01*
X53970Y-9595D01*
X53628Y-9559D01*
X53614Y-9557D01*
X53601Y-9555D01*
X53589Y-9552D01*
X53576Y-9550D01*
X53563Y-9546D01*
X53550Y-9543D01*
X52892Y-9339D01*
X52880Y-9334D01*
X52867Y-9330D01*
X52855Y-9324D01*
X52843Y-9320D01*
X52832Y-9313D01*
X52820Y-9308D01*
X52214Y-8979D01*
X52203Y-8972D01*
X52191Y-8966D01*
X52180Y-8958D01*
X52169Y-8951D01*
X52159Y-8943D01*
X52149Y-8935D01*
X51619Y-8494D01*
X51609Y-8485D01*
X51599Y-8477D01*
X51590Y-8467D01*
X51581Y-8458D01*
X51572Y-8448D01*
X51563Y-8438D01*
X51130Y-7902D01*
X51122Y-7892D01*
X51114Y-7881D01*
X51107Y-7870D01*
X51099Y-7860D01*
X51093Y-7848D01*
X51086Y-7837D01*
X50765Y-7227D01*
X50760Y-7215D01*
X50754Y-7203D01*
X50749Y-7191D01*
X50744Y-7179D01*
X50740Y-7166D01*
X50736Y-7154D01*
X50540Y-6493D01*
X50537Y-6480D01*
X50533Y-6467D01*
X50531Y-6454D01*
X50528Y-6442D01*
X50527Y-6429D01*
X50525Y-6416D01*
X50462Y-5729D01*
X50462Y-5716D01*
X50460Y-5703D01*
X50461Y-5690D01*
X50461Y-5677D01*
X50462Y-5663D01*
X50463Y-5650D01*
X50499Y-5308D01*
X50499Y-5308D01*
X50535Y-4965D01*
X50537Y-4952D01*
X50538Y-4939D01*
X50541Y-4926D01*
X50543Y-4913D01*
X50547Y-4901D01*
X50550Y-4888D01*
X50755Y-4229D01*
X50760Y-4217D01*
X50763Y-4205D01*
X50769Y-4193D01*
X50774Y-4180D01*
X50780Y-4169D01*
X50785Y-4157D01*
X51114Y-3551D01*
X51121Y-3540D01*
X51128Y-3528D01*
X51135Y-3518D01*
X51142Y-3507D01*
X51151Y-3497D01*
X51158Y-3486D01*
X51599Y-2956D01*
X51608Y-2946D01*
X51617Y-2936D01*
X51626Y-2927D01*
X51635Y-2918D01*
X51646Y-2910D01*
X51655Y-2901D01*
X52191Y-2467D01*
X52202Y-2459D01*
X52212Y-2451D01*
X52223Y-2444D01*
X52234Y-2437D01*
X52245Y-2431D01*
X52257Y-2424D01*
X52867Y-2103D01*
X52879Y-2097D01*
X52890Y-2091D01*
X52903Y-2087D01*
X52915Y-2081D01*
X52927Y-2078D01*
X52940Y-2073D01*
X53601Y-1877D01*
X53613Y-1874D01*
X53626Y-1871D01*
X53639Y-1869D01*
X53652Y-1866D01*
X53665Y-1864D01*
X53678Y-1862D01*
X54364Y-1799D01*
X54378Y-1799D01*
X54391Y-1798D01*
X54404Y-1798D01*
D02*
G37*
G36*
X53954Y-13441D02*
X53994Y-13446D01*
X54045Y-13459D01*
X54373Y-13565D01*
X54385Y-13570D01*
X54397Y-13574D01*
X54409Y-13580D01*
X54421Y-13585D01*
X54433Y-13591D01*
X54445Y-13597D01*
X55046Y-13934D01*
X55057Y-13941D01*
X55069Y-13947D01*
X55079Y-13955D01*
X55090Y-13962D01*
X55100Y-13971D01*
X55111Y-13978D01*
X55635Y-14426D01*
X55644Y-14435D01*
X55654Y-14444D01*
X55663Y-14454D01*
X55673Y-14463D01*
X55681Y-14473D01*
X55690Y-14483D01*
X56116Y-15024D01*
X56124Y-15035D01*
X56132Y-15045D01*
X56139Y-15057D01*
X56146Y-15067D01*
X56152Y-15079D01*
X56159Y-15090D01*
X56472Y-15705D01*
X56477Y-15717D01*
X56483Y-15729D01*
X56487Y-15741D01*
X56492Y-15753D01*
X56496Y-15766D01*
X56500Y-15778D01*
X56687Y-16442D01*
X56690Y-16454D01*
X56694Y-16467D01*
X56696Y-16480D01*
X56698Y-16493D01*
X56699Y-16506D01*
X56701Y-16519D01*
X56755Y-17206D01*
X56756Y-17219D01*
X56757Y-17232D01*
X56756Y-17245D01*
X56756Y-17259D01*
X56754Y-17272D01*
X56754Y-17285D01*
X56673Y-17969D01*
X56670Y-17982D01*
X56669Y-17995D01*
X56666Y-18008D01*
X56663Y-18021D01*
X56659Y-18034D01*
X56656Y-18046D01*
X56550Y-18374D01*
X56549Y-18374D01*
X56443Y-18702D01*
X56438Y-18714D01*
X56434Y-18726D01*
X56428Y-18738D01*
X56423Y-18751D01*
X56417Y-18762D01*
X56411Y-18774D01*
X56075Y-19375D01*
X56067Y-19386D01*
X56061Y-19398D01*
X56053Y-19408D01*
X56046Y-19419D01*
X56037Y-19429D01*
X56030Y-19440D01*
X55582Y-19964D01*
X55573Y-19974D01*
X55564Y-19984D01*
X55554Y-19992D01*
X55545Y-20002D01*
X55535Y-20010D01*
X55525Y-20019D01*
X54984Y-20445D01*
X54973Y-20453D01*
X54963Y-20461D01*
X54951Y-20468D01*
X54940Y-20475D01*
X54929Y-20481D01*
X54918Y-20488D01*
X54303Y-20801D01*
X54291Y-20806D01*
X54280Y-20812D01*
X54267Y-20816D01*
X54255Y-20821D01*
X54242Y-20825D01*
X54230Y-20829D01*
X53567Y-21016D01*
X53554Y-21019D01*
X53541Y-21023D01*
X53528Y-21025D01*
X53515Y-21027D01*
X53502Y-21028D01*
X53489Y-21030D01*
X52802Y-21084D01*
X52789Y-21085D01*
X52776Y-21086D01*
X52763Y-21085D01*
X52750Y-21085D01*
X52736Y-21084D01*
X52723Y-21083D01*
X52039Y-21002D01*
X52026Y-21000D01*
X52013Y-20998D01*
X52000Y-20995D01*
X51987Y-20992D01*
X51975Y-20988D01*
X51962Y-20985D01*
X51634Y-20879D01*
X51634Y-20878D01*
X51633Y-20878D01*
X51631Y-20878D01*
X51608Y-20868D01*
X51585Y-20859D01*
X51584Y-20858D01*
X51583Y-20858D01*
X51561Y-20846D01*
X51540Y-20833D01*
X51538Y-20832D01*
X51537Y-20832D01*
X51518Y-20817D01*
X51498Y-20802D01*
X51496Y-20801D01*
X51495Y-20800D01*
X51477Y-20782D01*
X51460Y-20765D01*
X51459Y-20764D01*
X51458Y-20763D01*
X51443Y-20744D01*
X51428Y-20724D01*
X51427Y-20723D01*
X51426Y-20722D01*
X51414Y-20701D01*
X51401Y-20679D01*
X51400Y-20678D01*
X51399Y-20676D01*
X51390Y-20653D01*
X51380Y-20631D01*
X51380Y-20630D01*
X51379Y-20628D01*
X51372Y-20604D01*
X51366Y-20581D01*
X51366Y-20579D01*
X51365Y-20578D01*
X51362Y-20554D01*
X51358Y-20529D01*
X51358Y-20527D01*
X51358Y-20526D01*
X51358Y-20502D01*
X51358Y-20476D01*
X51358Y-20475D01*
X51358Y-20473D01*
X51361Y-20450D01*
X51364Y-20424D01*
X51364Y-20423D01*
X51364Y-20421D01*
X51371Y-20397D01*
X51377Y-20373D01*
X53540Y-13716D01*
X53540Y-13716D01*
X53559Y-13667D01*
X53559Y-13667D01*
Y-13667D01*
X53565Y-13657D01*
X53585Y-13622D01*
X53616Y-13580D01*
X53653Y-13542D01*
D01*
X53653Y-13542D01*
X53694Y-13510D01*
X53712Y-13499D01*
X53739Y-13483D01*
X53787Y-13462D01*
X53838Y-13448D01*
X53890Y-13440D01*
X53942Y-13440D01*
D01*
X53942D01*
X53954Y-13441D01*
D02*
G37*
G36*
X52078Y-12980D02*
X52091Y-12980D01*
X52105Y-12981D01*
X52118Y-12982D01*
X52802Y-13063D01*
X52815Y-13065D01*
X52828Y-13067D01*
X52841Y-13070D01*
X52854Y-13073D01*
X52866Y-13077D01*
X52879Y-13080D01*
X53206Y-13186D01*
X53207Y-13186D01*
X53210Y-13187D01*
X53212Y-13188D01*
X53234Y-13197D01*
X53256Y-13206D01*
X53258Y-13207D01*
X53261Y-13208D01*
X53281Y-13220D01*
X53301Y-13231D01*
X53304Y-13233D01*
X53306Y-13235D01*
X53325Y-13249D01*
X53343Y-13263D01*
X53345Y-13265D01*
X53348Y-13266D01*
X53364Y-13283D01*
X53381Y-13299D01*
X53383Y-13302D01*
X53385Y-13304D01*
X53399Y-13323D01*
X53413Y-13341D01*
X53415Y-13343D01*
X53417Y-13345D01*
X53428Y-13366D01*
X53440Y-13386D01*
X53441Y-13388D01*
X53443Y-13391D01*
X53452Y-13413D01*
X53461Y-13434D01*
X53462Y-13437D01*
X53463Y-13439D01*
X53469Y-13462D01*
X53475Y-13484D01*
X53475Y-13487D01*
X53476Y-13490D01*
X53479Y-13513D01*
X53483Y-13536D01*
X53483Y-13539D01*
X53483Y-13542D01*
X53483Y-13565D01*
X53483Y-13589D01*
X53483Y-13591D01*
Y-13594D01*
X53480Y-13618D01*
X53477Y-13641D01*
X53477Y-13643D01*
X53476Y-13646D01*
X53470Y-13669D01*
X53464Y-13691D01*
X51301Y-20349D01*
X51301Y-20349D01*
X51282Y-20398D01*
X51282Y-20398D01*
Y-20398D01*
X51276Y-20407D01*
X51256Y-20443D01*
X51245Y-20458D01*
X51225Y-20485D01*
X51190Y-20521D01*
X51188Y-20523D01*
D01*
X51188Y-20523D01*
X51147Y-20555D01*
X51102Y-20582D01*
X51054Y-20603D01*
X51003Y-20617D01*
X50965Y-20623D01*
X50951Y-20625D01*
X50899Y-20625D01*
D01*
X50899D01*
X50847Y-20619D01*
X50821Y-20613D01*
X50796Y-20606D01*
X50468Y-20500D01*
X50456Y-20495D01*
X50444Y-20491D01*
X50432Y-20485D01*
X50419Y-20480D01*
X50408Y-20474D01*
X50396Y-20468D01*
X49795Y-20131D01*
X49784Y-20124D01*
X49772Y-20118D01*
X49762Y-20110D01*
X49751Y-20103D01*
X49741Y-20094D01*
X49730Y-20087D01*
X49206Y-19639D01*
X49196Y-19630D01*
X49187Y-19621D01*
X49178Y-19611D01*
X49168Y-19602D01*
X49160Y-19592D01*
X49151Y-19582D01*
X48725Y-19041D01*
X48717Y-19030D01*
X48709Y-19019D01*
X48702Y-19008D01*
X48695Y-18997D01*
X48689Y-18986D01*
X48682Y-18974D01*
X48369Y-18360D01*
X48364Y-18348D01*
X48358Y-18336D01*
X48354Y-18324D01*
X48349Y-18312D01*
X48345Y-18299D01*
X48341Y-18287D01*
X48153Y-17623D01*
X48151Y-17610D01*
X48147Y-17598D01*
X48145Y-17585D01*
X48142Y-17572D01*
X48142Y-17559D01*
X48140Y-17546D01*
X48086Y-16859D01*
X48085Y-16846D01*
X48084Y-16833D01*
X48085Y-16819D01*
X48085Y-16806D01*
X48086Y-16793D01*
X48087Y-16780D01*
X48168Y-16095D01*
X48171Y-16082D01*
X48172Y-16070D01*
X48175Y-16057D01*
X48178Y-16044D01*
X48182Y-16031D01*
X48185Y-16019D01*
X48292Y-15691D01*
X48292Y-15691D01*
X48398Y-15363D01*
X48403Y-15351D01*
X48407Y-15338D01*
X48413Y-15327D01*
X48417Y-15314D01*
X48424Y-15303D01*
X48430Y-15291D01*
X48766Y-14690D01*
X48774Y-14679D01*
X48780Y-14667D01*
X48788Y-14657D01*
X48795Y-14646D01*
X48803Y-14636D01*
X48811Y-14625D01*
X49259Y-14101D01*
X49268Y-14091D01*
X49277Y-14081D01*
X49286Y-14073D01*
X49296Y-14063D01*
X49306Y-14055D01*
X49316Y-14046D01*
X49857Y-13620D01*
X49868Y-13612D01*
X49878Y-13604D01*
X49890Y-13597D01*
X49900Y-13590D01*
X49912Y-13584D01*
X49923Y-13577D01*
X50538Y-13264D01*
X50550Y-13259D01*
X50561Y-13253D01*
X50574Y-13249D01*
X50586Y-13243D01*
X50599Y-13240D01*
X50611Y-13236D01*
X51274Y-13048D01*
X51287Y-13046D01*
X51300Y-13042D01*
X51313Y-13040D01*
X51326Y-13037D01*
X51339Y-13036D01*
X51352Y-13035D01*
X52039Y-12980D01*
X52052Y-12980D01*
X52065Y-12979D01*
X52078Y-12980D01*
D02*
G37*
G36*
X49876Y-24348D02*
X49918Y-24351D01*
X49969Y-24361D01*
X49969Y-24361D01*
D01*
X49970Y-24361D01*
X50019Y-24378D01*
X50066Y-24401D01*
X50364Y-24573D01*
X50375Y-24581D01*
X50387Y-24587D01*
X50397Y-24595D01*
X50408Y-24602D01*
X50418Y-24611D01*
X50428Y-24619D01*
X50946Y-25074D01*
X50956Y-25083D01*
X50966Y-25092D01*
X50974Y-25102D01*
X50984Y-25111D01*
X50992Y-25121D01*
X51000Y-25131D01*
X51420Y-25678D01*
X51427Y-25689D01*
X51435Y-25699D01*
X51442Y-25711D01*
X51449Y-25722D01*
X51455Y-25733D01*
X51461Y-25745D01*
X51766Y-26363D01*
X51771Y-26375D01*
X51777Y-26387D01*
X51781Y-26399D01*
X51787Y-26412D01*
X51790Y-26424D01*
X51794Y-26437D01*
X51973Y-27103D01*
X51975Y-27115D01*
X51978Y-27128D01*
X51980Y-27141D01*
X51983Y-27154D01*
X51984Y-27167D01*
X51985Y-27180D01*
X52030Y-27868D01*
Y-27881D01*
X52031Y-27894D01*
X52030Y-27907D01*
Y-27921D01*
X52029Y-27934D01*
X52028Y-27947D01*
X51938Y-28630D01*
X51935Y-28643D01*
X51933Y-28656D01*
X51930Y-28669D01*
X51928Y-28682D01*
X51923Y-28694D01*
X51920Y-28707D01*
X51698Y-29360D01*
X51693Y-29372D01*
X51689Y-29384D01*
X51683Y-29396D01*
X51678Y-29408D01*
X51672Y-29419D01*
X51666Y-29431D01*
X51494Y-29730D01*
X51493Y-29730D01*
X51321Y-30028D01*
X51314Y-30039D01*
X51307Y-30051D01*
X51299Y-30061D01*
X51292Y-30072D01*
X51283Y-30082D01*
X51275Y-30092D01*
X50821Y-30610D01*
X50811Y-30620D01*
X50803Y-30630D01*
X50793Y-30638D01*
X50784Y-30648D01*
X50773Y-30656D01*
X50763Y-30664D01*
X50216Y-31084D01*
X50205Y-31091D01*
X50195Y-31099D01*
X50184Y-31106D01*
X50173Y-31113D01*
X50161Y-31119D01*
X50150Y-31126D01*
X49531Y-31430D01*
X49519Y-31435D01*
X49507Y-31441D01*
X49495Y-31445D01*
X49483Y-31450D01*
X49470Y-31454D01*
X49458Y-31458D01*
X48792Y-31637D01*
X48779Y-31639D01*
X48766Y-31642D01*
X48753Y-31644D01*
X48740Y-31647D01*
X48727Y-31648D01*
X48714Y-31649D01*
X48026Y-31694D01*
X48013D01*
X48000Y-31695D01*
X47987Y-31694D01*
X47974D01*
X47961Y-31693D01*
X47948Y-31692D01*
X47264Y-31602D01*
X47251Y-31599D01*
X47238Y-31598D01*
X47226Y-31594D01*
X47213Y-31592D01*
X47201Y-31587D01*
X47188Y-31584D01*
X46535Y-31362D01*
X46523Y-31357D01*
X46510Y-31353D01*
X46499Y-31347D01*
X46486Y-31342D01*
X46475Y-31336D01*
X46463Y-31330D01*
X46165Y-31158D01*
X46121Y-31128D01*
X46082Y-31094D01*
X46082Y-31094D01*
X46047Y-31054D01*
X46036Y-31038D01*
X46018Y-31011D01*
X45995Y-30964D01*
X45978Y-30914D01*
X45968Y-30863D01*
X45964Y-30810D01*
X45968Y-30758D01*
X45978Y-30707D01*
X45995Y-30657D01*
X46018Y-30610D01*
X46018Y-30610D01*
X49518Y-24548D01*
X49518Y-24548D01*
X49547Y-24505D01*
X49547Y-24504D01*
X49572Y-24476D01*
X49582Y-24465D01*
X49582Y-24465D01*
X49582Y-24465D01*
X49621Y-24430D01*
X49665Y-24401D01*
X49665Y-24401D01*
D01*
X49665Y-24401D01*
X49689Y-24389D01*
X49712Y-24378D01*
X49762Y-24361D01*
D01*
X49762Y-24361D01*
X49813Y-24351D01*
X49855Y-24348D01*
X49865Y-24347D01*
X49865D01*
X49865D01*
X49876Y-24348D01*
D02*
G37*
G36*
X47480Y-23424D02*
X47493D01*
X47506Y-23426D01*
X47520Y-23426D01*
X48203Y-23516D01*
X48216Y-23519D01*
X48229Y-23521D01*
X48242Y-23524D01*
X48254Y-23527D01*
X48267Y-23531D01*
X48280Y-23534D01*
X48932Y-23756D01*
X48945Y-23761D01*
X48957Y-23765D01*
X48969Y-23771D01*
X48981Y-23776D01*
X48992Y-23782D01*
X49004Y-23788D01*
X49303Y-23961D01*
X49303Y-23961D01*
D01*
X49313Y-23967D01*
X49323Y-23973D01*
X49334Y-23982D01*
X49346Y-23990D01*
X49355Y-23998D01*
X49365Y-24005D01*
X49375Y-24015D01*
X49386Y-24024D01*
X49394Y-24033D01*
X49402Y-24042D01*
X49411Y-24053D01*
X49420Y-24064D01*
X49427Y-24074D01*
X49434Y-24083D01*
X49441Y-24095D01*
X49449Y-24107D01*
X49455Y-24118D01*
X49461Y-24128D01*
X49466Y-24142D01*
X49473Y-24154D01*
X49476Y-24166D01*
X49481Y-24177D01*
X49485Y-24191D01*
X49489Y-24204D01*
X49492Y-24216D01*
X49495Y-24227D01*
X49497Y-24241D01*
X49500Y-24255D01*
X49500Y-24267D01*
X49502Y-24279D01*
X49502Y-24294D01*
X49503Y-24308D01*
X49502Y-24320D01*
X49502Y-24332D01*
X49501Y-24346D01*
X49500Y-24360D01*
X49497Y-24372D01*
X49496Y-24384D01*
X49492Y-24397D01*
X49489Y-24411D01*
X49486Y-24423D01*
X49483Y-24434D01*
X49477Y-24448D01*
X49473Y-24461D01*
X49467Y-24472D01*
X49463Y-24483D01*
X49456Y-24495D01*
X49449Y-24508D01*
X45949Y-30570D01*
X45949Y-30570D01*
X45920Y-30614D01*
X45920Y-30614D01*
X45895Y-30642D01*
X45886Y-30653D01*
X45886Y-30653D01*
X45886Y-30653D01*
X45876Y-30662D01*
X45846Y-30688D01*
X45803Y-30717D01*
X45757Y-30740D01*
X45756Y-30740D01*
X45709Y-30756D01*
X45706Y-30757D01*
D01*
X45706Y-30757D01*
X45654Y-30767D01*
X45612Y-30770D01*
X45602Y-30771D01*
X45602D01*
X45602D01*
X45592Y-30770D01*
X45550Y-30767D01*
X45498Y-30757D01*
X45498Y-30757D01*
D01*
X45498Y-30757D01*
X45449Y-30740D01*
X45402Y-30717D01*
X45103Y-30545D01*
X45092Y-30538D01*
X45081Y-30531D01*
X45070Y-30523D01*
X45060Y-30516D01*
X45050Y-30507D01*
X45039Y-30499D01*
X44521Y-30044D01*
X44512Y-30035D01*
X44502Y-30027D01*
X44493Y-30017D01*
X44484Y-30007D01*
X44476Y-29997D01*
X44467Y-29987D01*
X44047Y-29440D01*
X44040Y-29429D01*
X44032Y-29419D01*
X44026Y-29408D01*
X44018Y-29397D01*
X44013Y-29385D01*
X44006Y-29373D01*
X43701Y-28755D01*
X43696Y-28743D01*
X43690Y-28731D01*
X43686Y-28719D01*
X43681Y-28707D01*
X43678Y-28694D01*
X43673Y-28681D01*
X43495Y-28016D01*
X43492Y-28003D01*
X43489Y-27990D01*
X43487Y-27977D01*
X43485Y-27964D01*
X43484Y-27951D01*
X43482Y-27938D01*
X43437Y-27250D01*
Y-27237D01*
X43436Y-27224D01*
X43437Y-27211D01*
Y-27198D01*
X43439Y-27185D01*
X43440Y-27171D01*
X43530Y-26488D01*
X43532Y-26475D01*
X43534Y-26462D01*
X43537Y-26449D01*
X43540Y-26436D01*
X43544Y-26424D01*
X43547Y-26411D01*
X43769Y-25758D01*
X43774Y-25746D01*
X43778Y-25734D01*
X43784Y-25722D01*
X43789Y-25710D01*
X43796Y-25699D01*
X43802Y-25687D01*
X43974Y-25388D01*
X44146Y-25090D01*
X44154Y-25079D01*
X44160Y-25068D01*
X44168Y-25057D01*
X44175Y-25046D01*
X44184Y-25036D01*
X44192Y-25026D01*
X44647Y-24508D01*
X44656Y-24498D01*
X44665Y-24488D01*
X44675Y-24480D01*
X44684Y-24471D01*
X44694Y-24463D01*
X44704Y-24454D01*
X45251Y-24034D01*
X45262Y-24027D01*
X45272Y-24019D01*
X45284Y-24012D01*
X45295Y-24005D01*
X45306Y-23999D01*
X45318Y-23993D01*
X45936Y-23688D01*
X45948Y-23683D01*
X45960Y-23677D01*
X45972Y-23673D01*
X45985Y-23668D01*
X45997Y-23664D01*
X46010Y-23660D01*
X46676Y-23482D01*
X46688Y-23479D01*
X46701Y-23476D01*
X46714Y-23474D01*
X46727Y-23471D01*
X46740Y-23471D01*
X46753Y-23469D01*
X47441Y-23424D01*
X47454D01*
X47467Y-23423D01*
X47480Y-23424D01*
D02*
G37*
G36*
X40813Y-32673D02*
X40826Y-32674D01*
X40839Y-32675D01*
X40852Y-32677D01*
X41534Y-32775D01*
X41547Y-32778D01*
X41560Y-32780D01*
X41573Y-32784D01*
X41586Y-32786D01*
X41598Y-32791D01*
X41611Y-32794D01*
X42260Y-33024D01*
X42272Y-33030D01*
X42285Y-33034D01*
X42297Y-33040D01*
X42309Y-33045D01*
X42320Y-33052D01*
X42332Y-33058D01*
X42924Y-33410D01*
X42935Y-33418D01*
X42946Y-33424D01*
X42957Y-33432D01*
X42967Y-33440D01*
X42977Y-33449D01*
X42987Y-33457D01*
X43243Y-33687D01*
X43244Y-33687D01*
X43251Y-33695D01*
X43259Y-33702D01*
X43269Y-33714D01*
X43280Y-33725D01*
X43286Y-33733D01*
X43293Y-33741D01*
X43302Y-33755D01*
X43312Y-33767D01*
X43317Y-33776D01*
X43323Y-33785D01*
X43329Y-33799D01*
X43337Y-33813D01*
X43341Y-33823D01*
X43346Y-33832D01*
X43351Y-33847D01*
X43357Y-33862D01*
X43359Y-33872D01*
X43363Y-33882D01*
X43366Y-33897D01*
X43369Y-33912D01*
X43371Y-33923D01*
X43373Y-33933D01*
X43374Y-33949D01*
X43376Y-33964D01*
X43376Y-33975D01*
X43376Y-33985D01*
X43375Y-34001D01*
X43375Y-34017D01*
X43374Y-34027D01*
X43373Y-34038D01*
X43370Y-34053D01*
X43367Y-34069D01*
X43365Y-34079D01*
X43363Y-34089D01*
X43358Y-34104D01*
X43353Y-34119D01*
X43349Y-34129D01*
X43346Y-34139D01*
X43339Y-34153D01*
X43332Y-34167D01*
X43327Y-34176D01*
X43323Y-34186D01*
X43314Y-34199D01*
X43306Y-34212D01*
X43299Y-34221D01*
X43293Y-34229D01*
X43283Y-34241D01*
X43273Y-34254D01*
X38589Y-39456D01*
X38589Y-39456D01*
X38589Y-39456D01*
D01*
X38587Y-39458D01*
X38552Y-39492D01*
X38510Y-39524D01*
X38510Y-39524D01*
X38510Y-39524D01*
X38495Y-39532D01*
X38464Y-39549D01*
X38415Y-39569D01*
X38415D01*
X38415Y-39569D01*
X38364Y-39582D01*
X38331Y-39586D01*
X38312Y-39588D01*
X38312D01*
D01*
X38310Y-39588D01*
X38260Y-39587D01*
X38231Y-39583D01*
X38208Y-39580D01*
X38165Y-39568D01*
X38158Y-39565D01*
X38158D01*
X38158Y-39565D01*
X38109Y-39545D01*
X38064Y-39518D01*
X38041Y-39499D01*
X38023Y-39485D01*
X37767Y-39255D01*
X37758Y-39245D01*
X37748Y-39237D01*
X37740Y-39227D01*
X37730Y-39217D01*
X37723Y-39207D01*
X37714Y-39197D01*
X37301Y-38644D01*
X37294Y-38633D01*
X37286Y-38623D01*
X37280Y-38611D01*
X37273Y-38600D01*
X37267Y-38588D01*
X37261Y-38577D01*
X36964Y-37955D01*
X36959Y-37942D01*
X36953Y-37931D01*
X36950Y-37918D01*
X36945Y-37906D01*
X36941Y-37893D01*
X36937Y-37881D01*
X36768Y-37213D01*
X36765Y-37200D01*
X36762Y-37187D01*
X36760Y-37174D01*
X36758Y-37161D01*
X36757Y-37148D01*
X36756Y-37135D01*
X36720Y-36446D01*
X36720Y-36433D01*
X36719Y-36420D01*
X36720Y-36407D01*
X36720Y-36394D01*
X36722Y-36381D01*
X36723Y-36368D01*
X36822Y-35686D01*
X36825Y-35673D01*
X36827Y-35660D01*
X36830Y-35647D01*
X36833Y-35634D01*
X36838Y-35622D01*
X36841Y-35609D01*
X37071Y-34959D01*
X37077Y-34947D01*
X37081Y-34935D01*
X37087Y-34923D01*
X37092Y-34911D01*
X37099Y-34900D01*
X37105Y-34888D01*
X37457Y-34296D01*
X37465Y-34285D01*
X37471Y-34274D01*
X37479Y-34263D01*
X37487Y-34253D01*
X37496Y-34243D01*
X37504Y-34232D01*
X37734Y-33976D01*
X37735Y-33976D01*
X37965Y-33720D01*
X37975Y-33711D01*
X37983Y-33701D01*
X37993Y-33693D01*
X38003Y-33683D01*
X38013Y-33676D01*
X38023Y-33667D01*
X38576Y-33255D01*
X38587Y-33247D01*
X38597Y-33240D01*
X38609Y-33233D01*
X38620Y-33226D01*
X38631Y-33220D01*
X38643Y-33214D01*
X39265Y-32917D01*
X39277Y-32912D01*
X39289Y-32907D01*
X39302Y-32903D01*
X39314Y-32898D01*
X39327Y-32895D01*
X39339Y-32890D01*
X40007Y-32721D01*
X40020Y-32718D01*
X40033Y-32715D01*
X40046Y-32714D01*
X40059Y-32711D01*
X40072Y-32710D01*
X40085Y-32709D01*
X40773Y-32673D01*
X40787Y-32673D01*
X40800Y-32672D01*
X40813Y-32673D01*
D02*
G37*
G36*
X43661Y-34175D02*
X43713Y-34183D01*
X43756Y-34195D01*
X43764Y-34197D01*
X43764D01*
X43764Y-34197D01*
X43812Y-34218D01*
X43857Y-34245D01*
X43881Y-34263D01*
X43898Y-34277D01*
X44155Y-34508D01*
X44164Y-34517D01*
X44173Y-34526D01*
X44182Y-34536D01*
X44191Y-34545D01*
X44199Y-34556D01*
X44208Y-34566D01*
X44620Y-35118D01*
X44627Y-35129D01*
X44635Y-35140D01*
X44641Y-35151D01*
X44649Y-35162D01*
X44654Y-35174D01*
X44661Y-35186D01*
X44958Y-35808D01*
X44962Y-35820D01*
X44968Y-35832D01*
X44972Y-35844D01*
X44977Y-35857D01*
X44980Y-35869D01*
X44984Y-35882D01*
X45154Y-36550D01*
X45156Y-36563D01*
X45160Y-36575D01*
X45161Y-36589D01*
X45164Y-36601D01*
X45164Y-36615D01*
X45166Y-36628D01*
X45202Y-37316D01*
X45202Y-37329D01*
X45202Y-37342D01*
X45201Y-37355D01*
X45201Y-37369D01*
X45199Y-37382D01*
X45198Y-37395D01*
X45099Y-38077D01*
X45096Y-38090D01*
X45095Y-38103D01*
X45091Y-38115D01*
X45088Y-38128D01*
X45084Y-38141D01*
X45080Y-38153D01*
X44850Y-38803D01*
X44845Y-38815D01*
X44841Y-38828D01*
X44835Y-38839D01*
X44829Y-38851D01*
X44823Y-38863D01*
X44817Y-38874D01*
X44464Y-39467D01*
X44457Y-39478D01*
X44450Y-39489D01*
X44442Y-39499D01*
X44435Y-39510D01*
X44426Y-39520D01*
X44418Y-39530D01*
X44187Y-39786D01*
X44187Y-39786D01*
X43956Y-40042D01*
X43947Y-40052D01*
X43938Y-40061D01*
X43928Y-40070D01*
X43919Y-40079D01*
X43908Y-40087D01*
X43898Y-40095D01*
X43346Y-40508D01*
X43335Y-40515D01*
X43324Y-40523D01*
X43313Y-40529D01*
X43302Y-40536D01*
X43290Y-40542D01*
X43279Y-40549D01*
X42656Y-40845D01*
X42644Y-40850D01*
X42632Y-40856D01*
X42620Y-40860D01*
X42608Y-40865D01*
X42595Y-40868D01*
X42582Y-40872D01*
X41914Y-41042D01*
X41901Y-41044D01*
X41889Y-41047D01*
X41875Y-41049D01*
X41863Y-41051D01*
X41850Y-41052D01*
X41837Y-41054D01*
X41148Y-41090D01*
X41135Y-41089D01*
X41122Y-41090D01*
X41109Y-41089D01*
X41096Y-41089D01*
X41083Y-41087D01*
X41069Y-41086D01*
X40387Y-40987D01*
X40374Y-40984D01*
X40361Y-40982D01*
X40349Y-40979D01*
X40336Y-40976D01*
X40324Y-40972D01*
X40311Y-40968D01*
X39661Y-40738D01*
X39649Y-40733D01*
X39637Y-40729D01*
X39625Y-40723D01*
X39613Y-40717D01*
X39601Y-40711D01*
X39590Y-40705D01*
X38997Y-40352D01*
X38987Y-40345D01*
X38975Y-40338D01*
X38965Y-40330D01*
X38954Y-40323D01*
X38945Y-40314D01*
X38934Y-40306D01*
X38678Y-40075D01*
X38678Y-40075D01*
X38661Y-40057D01*
X38643Y-40040D01*
X38642Y-40038D01*
X38641Y-40037D01*
X38627Y-40018D01*
X38612Y-39998D01*
X38611Y-39997D01*
X38610Y-39995D01*
X38598Y-39974D01*
X38586Y-39952D01*
X38585Y-39951D01*
X38584Y-39950D01*
X38575Y-39926D01*
X38566Y-39904D01*
X38565Y-39902D01*
X38565Y-39901D01*
X38559Y-39877D01*
X38553Y-39853D01*
X38552Y-39852D01*
X38552Y-39850D01*
X38549Y-39825D01*
X38546Y-39801D01*
X38546Y-39800D01*
X38546Y-39798D01*
X38546Y-39773D01*
X38546Y-39749D01*
X38546Y-39747D01*
X38547Y-39746D01*
X38550Y-39721D01*
X38553Y-39697D01*
X38554Y-39695D01*
X38554Y-39694D01*
X38561Y-39670D01*
X38567Y-39646D01*
X38568Y-39645D01*
X38568Y-39643D01*
X38578Y-39620D01*
X38588Y-39598D01*
X38588Y-39597D01*
X38589Y-39595D01*
X38602Y-39573D01*
X38614Y-39553D01*
X38615Y-39551D01*
X38616Y-39550D01*
X38632Y-39530D01*
X38646Y-39511D01*
X38647Y-39510D01*
X38648Y-39509D01*
X43332Y-34307D01*
X43332Y-34307D01*
X43368Y-34272D01*
X43370Y-34270D01*
X43398Y-34249D01*
X43412Y-34239D01*
X43412Y-34239D01*
X43412Y-34239D01*
X43426Y-34231D01*
X43457Y-34213D01*
X43506Y-34194D01*
X43506D01*
X43506Y-34194D01*
X43554Y-34182D01*
X43557Y-34181D01*
D01*
X43557Y-34181D01*
X43588Y-34177D01*
X43609Y-34175D01*
X43609D01*
D01*
X43661Y-34175D01*
D02*
G37*
D60*
X0Y0D02*
D03*
D61*
X76772Y76772D02*
D03*
Y-76772D02*
D03*
X-76772D02*
D03*
Y76772D02*
D03*
D98*
X-75791Y-15614D02*
X-75790Y12386D01*
X-75891Y-15814D02*
Y12586D01*
X-75991Y-16014D02*
X-75991Y12786D01*
X-76091Y-15214D02*
X-76091Y-16114D01*
X-76091Y-5914D02*
X-76091Y12886D01*
X-76191Y-16214D02*
X-76191Y-15614D01*
X-76191Y12986D02*
X-76191Y-5814D01*
X-76291Y-15814D02*
X-76291Y-16314D01*
X-76291Y13086D02*
X-76291Y-5814D01*
X-76391Y-15914D02*
X-76390Y-16414D01*
X-76391Y-5814D02*
X-76390Y13186D01*
X-76490Y-16014D02*
X-76490Y-16414D01*
X-76491Y13186D02*
X-76491Y-5814D01*
X-76591Y-16514D02*
X-76590Y-16114D01*
X-76591Y13286D02*
X-76591Y-5814D01*
X-76691Y-16514D02*
X-76691Y-16214D01*
X-76691Y13286D02*
X-76691Y-5814D01*
X-76791Y-16214D02*
X-76790Y-16614D01*
X-76791Y-5814D02*
X-76790Y13386D01*
X-76890Y-16214D02*
X-76890Y-16614D01*
X-76890Y-14414D02*
X-76890Y-15314D01*
X-76891Y-12614D02*
X-76890Y-11814D01*
X-76890Y-6814D02*
Y-6414D01*
X-76891Y-5814D02*
X-76891Y-4414D01*
X-76891Y13386D02*
X-76891Y-3514D01*
X-76990Y-16614D02*
X-76990Y-16214D01*
X-76991Y-14214D02*
X-76990Y-15614D01*
Y-13014D02*
Y-11514D01*
X-76991Y-9514D02*
X-76990Y-10314D01*
X-76990Y-8514D02*
X-76990Y-7714D01*
X-76991Y-6214D02*
X-76991Y-7014D01*
X-76990Y-5614D02*
X-76990Y-5814D01*
X-76991Y-4914D02*
X-76991Y-4614D01*
X-76991Y-3314D02*
X-76990Y86D01*
X-76991Y986D02*
X-76991Y3886D01*
Y5386D02*
X-76990Y4786D01*
X-76990Y6286D02*
X-76990Y6686D01*
X-76991Y9886D02*
X-76990Y7686D01*
X-76991Y13386D02*
X-76990Y12286D01*
X-77091Y-16214D02*
X-77091Y-16614D01*
X-77091Y-14114D02*
X-77091Y-15614D01*
X-77091Y-13114D02*
X-77091Y-11314D01*
X-77091Y-9514D02*
X-77091Y-10314D01*
X-77091Y-8514D02*
X-77091Y-7714D01*
X-77091Y-6214D02*
X-77091Y-7114D01*
X-77091Y-5814D02*
X-77091Y-5714D01*
X-77091Y-4814D02*
X-77091Y-4914D01*
X-77091Y86D02*
X-77091Y-3214D01*
X-77091Y3886D02*
X-77091Y986D01*
X-77091Y4786D02*
Y5386D01*
X-77091Y6486D02*
X-77091Y6286D01*
X-77091Y7886D02*
X-77091Y9686D01*
X-77091Y12286D02*
X-77091Y13386D01*
X-77191Y-16614D02*
X-77190Y-16314D01*
X-77191Y-15614D02*
X-77191Y-14114D01*
X-77191Y-11214D02*
X-77191Y-13314D01*
X-77191Y-9514D02*
X-77190Y-10314D01*
X-77191Y-7714D02*
X-77190Y-8514D01*
X-77191Y-6114D02*
X-77191Y-7114D01*
X-77191Y-5714D02*
X-77191Y-5814D01*
X-77191Y86D02*
X-77191Y-3014D01*
X-77191Y3886D02*
X-77191Y986D01*
X-77191Y4786D02*
X-77191Y5386D01*
X-77191Y6386D02*
X-77191Y6286D01*
X-77191Y9486D02*
X-77191Y7986D01*
X-77191Y12286D02*
X-77191Y13386D01*
X-77291Y-16314D02*
X-77290Y-16614D01*
X-77291Y-15614D02*
X-77290Y-14014D01*
X-77290Y-13414D02*
X-77290Y-11114D01*
X-77290Y-9514D02*
X-77290Y-10314D01*
X-77290Y-8514D02*
X-77290Y-7714D01*
X-77291Y-6114D02*
X-77290Y-7114D01*
X-77290Y-5814D02*
X-77290Y-5714D01*
X-77290Y-3014D02*
X-77290Y86D01*
X-77291Y986D02*
X-77290Y3886D01*
X-77290Y5386D02*
X-77290Y4786D01*
X-77291Y8086D02*
X-77290Y9386D01*
X-77291Y12286D02*
X-77291Y13386D01*
X-77391Y-16614D02*
X-77390Y-16314D01*
X-77391Y-14014D02*
X-77391Y-15614D01*
X-77390Y-13414D02*
X-77390Y-11014D01*
X-77391Y-10314D02*
X-77390Y-9514D01*
X-77390Y-8514D02*
Y-7714D01*
X-77391Y-6114D02*
X-77391Y-7114D01*
X-77390Y-5814D02*
X-77390Y-5714D01*
X-77391Y86D02*
X-77391Y-2914D01*
X-77391Y986D02*
X-77390Y3886D01*
X-77390Y5386D02*
X-77390Y4786D01*
X-77390Y8086D02*
X-77390Y9286D01*
X-77390Y13386D02*
X-77390Y12286D01*
X-77491Y-16314D02*
X-77491Y-16614D01*
X-77491Y-14014D02*
X-77491Y-15614D01*
X-77491Y-13414D02*
X-77491Y-10914D01*
X-77491Y-10314D02*
X-77491Y-9514D01*
X-77491Y-8514D02*
X-77491Y-7714D01*
X-77491Y-6114D02*
X-77491Y-7114D01*
X-77491Y-5814D02*
Y-5714D01*
X-77491Y-2814D02*
X-77491Y86D01*
X-77491Y986D02*
X-77491Y3886D01*
X-77491Y5386D02*
X-77491Y4786D01*
X-77491Y9186D02*
X-77490Y8186D01*
X-77491Y13386D02*
X-77491Y12286D01*
X-77591Y-16614D02*
X-77591Y-16314D01*
X-77591Y-15314D02*
X-77590Y-15614D01*
X-77591Y-14014D02*
X-77591Y-14914D01*
X-77591Y-13314D02*
X-77591Y-12614D01*
X-77591Y-11914D02*
X-77591Y-10914D01*
X-77591Y-10314D02*
X-77591Y-9514D01*
X-77591Y-8514D02*
X-77591Y-7714D01*
X-77591Y-6214D02*
X-77591Y-7114D01*
X-77591Y-5814D02*
Y-5714D01*
X-77591Y-4014D02*
X-77591Y-4314D01*
X-77591Y-2814D02*
X-77591Y86D01*
X-77591Y986D02*
X-77591Y3886D01*
X-77591Y5386D02*
X-77591Y4786D01*
X-77591Y9086D02*
X-77591Y8186D01*
X-77591Y12286D02*
Y13386D01*
X-77691Y-16314D02*
X-77690Y-16614D01*
X-77691Y-14014D02*
X-77691Y-14814D01*
Y-12814D02*
X-77690Y-13314D01*
X-77691Y-10814D02*
X-77691Y-11814D01*
X-77691Y-10314D02*
X-77690Y-9514D01*
X-77691Y-8514D02*
Y-7714D01*
X-77691Y-7014D02*
X-77691Y-6214D01*
X-77691Y-5714D02*
X-77691Y-5814D01*
X-77691Y-4514D02*
X-77691Y-3814D01*
X-77691Y-2714D02*
X-77691Y86D01*
X-77691Y986D02*
X-77691Y3886D01*
X-77691Y5386D02*
X-77691Y4786D01*
X-77691Y6986D02*
X-77691Y6786D01*
X-77691Y8986D02*
X-77690Y8186D01*
X-77691Y11286D02*
X-77691Y10486D01*
X-77691Y12286D02*
Y13386D01*
X-77790Y-16314D02*
X-77790Y-16614D01*
X-77791Y-14814D02*
X-77790Y-14014D01*
X-77791Y-13014D02*
X-77790Y-13214D01*
X-77790Y-11614D02*
X-77790Y-10814D01*
X-77791Y-9614D02*
X-77791Y-10314D01*
X-77791Y-7714D02*
X-77790Y-8514D01*
X-77790Y-6414D02*
X-77790Y-6914D01*
X-77791Y-5814D02*
X-77790Y-5614D01*
X-77791Y-3714D02*
X-77790Y-4614D01*
X-77791Y-2714D02*
X-77790Y86D01*
X-77791Y3886D02*
X-77790Y986D01*
X-77791Y4786D02*
X-77790Y5386D01*
X-77790Y7186D02*
X-77790Y6586D01*
X-77791Y8886D02*
X-77790Y8186D01*
X-77791Y10086D02*
X-77791Y11386D01*
X-77791Y13386D02*
X-77790Y12286D01*
X-77890Y-16614D02*
X-77890Y-16314D01*
X-77890Y-14014D02*
X-77890Y-14714D01*
X-77891Y-10814D02*
X-77890Y-11614D01*
X-77891Y-9614D02*
X-77890Y-10314D01*
X-77891Y-8514D02*
X-77890Y-7714D01*
X-77891Y-5614D02*
X-77890Y-5814D01*
X-77891Y-4714D02*
X-77891Y-3614D01*
X-77891Y-2714D02*
X-77890Y86D01*
X-77891Y986D02*
X-77891Y3886D01*
X-77890Y4786D02*
X-77890Y5386D01*
X-77890Y6486D02*
X-77890Y7286D01*
X-77891Y8886D02*
X-77890Y8186D01*
X-77891Y9986D02*
X-77891Y11386D01*
X-77890Y13386D02*
X-77890Y12286D01*
X-77991Y-16614D02*
X-77991Y-16314D01*
X-77991Y-14014D02*
X-77991Y-14714D01*
X-77991Y-11814D02*
X-77991Y-10714D01*
X-77991Y-9614D02*
X-77991Y-10314D01*
Y-8514D02*
X-77991Y-7714D01*
X-77991Y-5814D02*
X-77991Y-5614D01*
X-77991Y-3514D02*
X-77991Y-4714D01*
Y-2614D02*
X-77991Y-1514D01*
X-77991Y986D02*
X-77991Y2286D01*
X-77991Y4786D02*
X-77991Y5386D01*
X-77991Y6386D02*
Y7286D01*
X-77991Y8786D02*
X-77991Y8186D01*
X-77991Y9886D02*
X-77991Y11386D01*
X-77991Y13386D02*
X-77991Y12286D01*
X-78091Y-16614D02*
X-78091Y-16314D01*
Y-14714D02*
X-78090Y-14014D01*
X-78091Y-10714D02*
X-78091Y-12814D01*
X-78091Y-9614D02*
X-78091Y-10314D01*
X-78091Y-8514D02*
X-78091Y-7714D01*
X-78091Y-5814D02*
X-78091Y-5614D01*
X-78091Y-4814D02*
X-78091Y-3514D01*
X-78091Y-2614D02*
X-78091Y-1714D01*
X-78091Y2086D02*
X-78091Y986D01*
X-78091Y4786D02*
X-78091Y5386D01*
X-78091Y6286D02*
X-78091Y7386D01*
X-78091Y8186D02*
X-78091Y8786D01*
X-78091Y11386D02*
X-78091Y9786D01*
X-78091Y12286D02*
X-78091Y13386D01*
X-78191Y-16614D02*
X-78191Y-16314D01*
X-78191Y-14714D02*
X-78190Y-14014D01*
X-78190Y-10714D02*
X-78190Y-13314D01*
X-78190Y-10314D02*
X-78190Y-9614D01*
X-78191Y-8514D02*
X-78190Y-7714D01*
X-78191Y-5814D02*
X-78190Y-5614D01*
X-78191Y-4814D02*
X-78190Y-3514D01*
X-78190Y-2614D02*
Y-1814D01*
X-78191Y986D02*
X-78191Y1986D01*
X-78190Y4786D02*
X-78190Y5386D01*
X-78191Y7386D02*
X-78190Y6286D01*
X-78190Y8186D02*
X-78190Y8786D01*
X-78190Y11386D02*
X-78190Y9786D01*
X-78190Y13386D02*
X-78190Y12286D01*
X-78291Y-16314D02*
X-78291Y-16614D01*
X-78290Y-14014D02*
X-78290Y-14714D01*
X-78291Y-13414D02*
X-78291Y-10714D01*
Y-9614D02*
X-78290Y-10314D01*
X-78290Y-8514D02*
Y-7714D01*
X-78291Y-5814D02*
X-78291Y-5614D01*
X-78291Y-4814D02*
X-78290Y-3514D01*
X-78291Y-2014D02*
X-78290Y-2614D01*
X-78291Y986D02*
X-78290Y1786D01*
X-78291Y5386D02*
X-78291Y4786D01*
X-78291Y6286D02*
X-78291Y7386D01*
X-78291Y8286D02*
X-78290Y8686D01*
X-78291Y9686D02*
X-78290Y11386D01*
X-78291Y13386D02*
X-78291Y12286D01*
X-78391Y-16614D02*
X-78391Y-16314D01*
X-78391Y-14714D02*
X-78391Y-14014D01*
X-78391Y-13414D02*
X-78390Y-10714D01*
X-78391Y-9514D02*
X-78391Y-10314D01*
X-78391Y-8514D02*
X-78391Y-7714D01*
X-78391Y-5814D02*
X-78391Y-5614D01*
X-78391Y-3514D02*
X-78391Y-4814D01*
X-78391Y-2114D02*
X-78391Y-2614D01*
X-78391Y1686D02*
X-78391Y986D01*
X-78391Y4786D02*
X-78391Y5386D01*
X-78391Y7386D02*
X-78391Y6286D01*
X-78391Y8286D02*
X-78390Y8686D01*
X-78391Y9686D02*
X-78391Y11386D01*
X-78391Y12286D02*
X-78391Y13386D01*
X-78491Y-16614D02*
X-78491Y-16314D01*
X-78491Y-14014D02*
X-78491Y-14714D01*
X-78491Y-13414D02*
X-78490Y-10714D01*
X-78491Y-9514D02*
X-78491Y-10314D01*
X-78491Y-8514D02*
X-78491Y-7714D01*
X-78491Y-5614D02*
X-78491Y-5814D01*
X-78491Y-4814D02*
X-78491Y-3514D01*
X-78491Y-2614D02*
X-78491Y-2114D01*
X-78491Y986D02*
X-78490Y1686D01*
X-78491Y4786D02*
Y5386D01*
X-78491Y6286D02*
X-78491Y7386D01*
X-78491Y8286D02*
X-78491Y8686D01*
X-78491Y9586D02*
X-78491Y11386D01*
X-78491Y12286D02*
X-78491Y13386D01*
X-78591Y-16614D02*
X-78591Y-16314D01*
Y-14014D02*
X-78591Y-14714D01*
X-78591Y-13414D02*
X-78591Y-12214D01*
X-78591Y-10714D02*
X-78591Y-11514D01*
X-78591Y-10314D02*
X-78591Y-9514D01*
X-78591Y-8514D02*
X-78590Y-7714D01*
X-78591Y-5614D02*
X-78591Y-5814D01*
X-78591Y-4814D02*
X-78591Y-3514D01*
X-78591Y-2214D02*
X-78591Y-2614D01*
X-78591Y986D02*
Y1586D01*
X-78591Y4786D02*
X-78591Y5386D01*
X-78591Y6286D02*
X-78591Y7386D01*
X-78591Y8686D02*
X-78590Y8286D01*
X-78591Y11386D02*
X-78591Y9586D01*
X-78591Y12286D02*
X-78590Y13386D01*
X-78690Y-16314D02*
X-78690Y-16614D01*
X-78690Y-14014D02*
X-78690Y-14714D01*
X-78691Y-13414D02*
X-78690Y-12614D01*
X-78691Y-10814D02*
X-78690Y-11514D01*
X-78690Y-9514D02*
X-78690Y-10314D01*
X-78690Y-8514D02*
Y-7714D01*
X-78691Y-5614D02*
X-78690Y-5814D01*
X-78691Y-4714D02*
X-78690Y-3514D01*
X-78691Y-2614D02*
X-78691Y-2214D01*
X-78690Y-914D02*
X-78690Y-14D01*
X-78691Y1586D02*
X-78690Y986D01*
X-78691Y3786D02*
X-78690Y2886D01*
X-78691Y5386D02*
X-78690Y4786D01*
X-78691Y7386D02*
X-78691Y6286D01*
X-78691Y8686D02*
X-78691Y8286D01*
X-78691Y9586D02*
X-78690Y11386D01*
X-78691Y13386D02*
X-78691Y12286D01*
X-78791Y-16314D02*
X-78790Y-16614D01*
X-78791Y-14714D02*
X-78790Y-14014D01*
X-78791Y-12614D02*
X-78790Y-13414D01*
X-78791Y-11614D02*
X-78790Y-10814D01*
Y-10314D02*
X-78790Y-9514D01*
X-78791Y-7714D02*
X-78791Y-8514D01*
X-78791Y-5614D02*
X-78790Y-5814D01*
X-78791Y-3614D02*
X-78790Y-4714D01*
X-78791Y-2314D02*
X-78790Y-2714D01*
X-78791Y86D02*
X-78791Y-1214D01*
X-78791Y986D02*
X-78791Y1486D01*
X-78791Y2586D02*
X-78790Y3886D01*
Y4786D02*
X-78790Y5386D01*
X-78791Y6286D02*
X-78790Y7386D01*
Y8586D02*
X-78790Y8186D01*
X-78790Y9486D02*
X-78790Y11386D01*
X-78791Y13386D02*
X-78790Y12286D01*
X-78891Y-16314D02*
X-78891Y-16614D01*
X-78891Y-14014D02*
X-78891Y-14814D01*
X-78891Y-13414D02*
X-78891Y-12514D01*
X-78891Y-11614D02*
X-78891Y-10814D01*
X-78891Y-10314D02*
X-78891Y-9514D01*
X-78891Y-8614D02*
X-78891Y-7714D01*
X-78891Y-5614D02*
X-78891Y-5814D01*
X-78891Y-3714D02*
X-78891Y-4614D01*
X-78891Y-2314D02*
X-78890Y-2714D01*
X-78891Y-1314D02*
X-78891Y86D01*
X-78891Y1486D02*
X-78891Y986D01*
X-78891Y3886D02*
X-78891Y2486D01*
X-78891Y5386D02*
X-78891Y4786D01*
X-78891Y7386D02*
X-78890Y6286D01*
X-78891Y8186D02*
X-78891Y8586D01*
X-78891Y9486D02*
X-78891Y11386D01*
X-78891Y12286D02*
X-78891Y13386D01*
X-78991Y-16314D02*
X-78991Y-16614D01*
X-78991Y-15114D02*
X-78990Y-15614D01*
X-78991Y-14814D02*
X-78991Y-14014D01*
X-78991Y-12414D02*
X-78991Y-13414D01*
X-78991Y-11814D02*
Y-10814D01*
X-78991Y-9414D02*
X-78991Y-10314D01*
X-78991Y-8814D02*
X-78991Y-7714D01*
X-78991Y-5814D02*
X-78991Y-5614D01*
X-78991Y-4514D02*
X-78991Y-3814D01*
X-78991Y-2314D02*
X-78990Y-2714D01*
X-78991Y86D02*
X-78991Y-1314D01*
X-78991Y986D02*
X-78991Y1486D01*
X-78991Y2486D02*
Y3886D01*
X-78991Y4786D02*
X-78990Y5386D01*
X-78991Y6286D02*
X-78991Y7386D01*
X-78991Y8186D02*
X-78991Y8586D01*
X-78991Y9486D02*
X-78990Y11386D01*
X-78991Y13386D02*
X-78991Y12286D01*
X-79090Y-16314D02*
X-79090Y-16614D01*
X-79090Y-15614D02*
X-79090Y-13714D01*
X-79091Y-12314D02*
X-79090Y-13314D01*
X-79091Y-10914D02*
X-79090Y-11914D01*
X-79091Y-9314D02*
X-79091Y-10314D01*
X-79090Y-7714D02*
X-79090Y-8914D01*
X-79091Y-5714D02*
X-79090Y-5814D01*
X-79091Y-4014D02*
X-79090Y-4314D01*
X-79091Y-2414D02*
X-79090Y-2814D01*
X-79091Y-1414D02*
X-79091Y86D01*
X-79090Y986D02*
X-79090Y1386D01*
X-79091Y3886D02*
X-79090Y2386D01*
X-79091Y4786D02*
X-79090Y5386D01*
X-79091Y6286D02*
X-79091Y7386D01*
X-79091Y8586D02*
X-79090Y8186D01*
X-79090Y9486D02*
X-79090Y11386D01*
X-79091Y12286D02*
Y13386D01*
X-79191Y-16614D02*
X-79190Y-16314D01*
X-79191Y-15614D02*
X-79191Y-13614D01*
Y-13314D02*
X-79191Y-11014D01*
X-79191Y-7714D02*
X-79191Y-10314D01*
X-79191Y-5714D02*
X-79190Y-5814D01*
X-79191Y-2814D02*
X-79190Y-2414D01*
Y86D02*
X-79190Y-1414D01*
X-79191Y986D02*
X-79191Y1386D01*
Y3886D02*
X-79190Y2386D01*
X-79190Y5386D02*
X-79190Y4786D01*
X-79190Y6286D02*
X-79190Y7286D01*
X-79191Y8186D02*
X-79191Y8586D01*
X-79190Y11386D02*
X-79190Y9486D01*
X-79191Y12286D02*
X-79190Y13386D01*
X-79291Y-16614D02*
X-79290Y-16314D01*
X-79290Y-15614D02*
X-79290Y-13614D01*
X-79291Y-13214D02*
X-79291Y-11014D01*
X-79291Y-10314D02*
X-79290Y-7614D01*
X-79291Y-5814D02*
X-79290Y-5714D01*
X-79290Y-2414D02*
X-79290Y-2914D01*
X-79290Y86D02*
X-79290Y-1514D01*
X-79290Y986D02*
X-79290Y1386D01*
X-79291Y2286D02*
X-79290Y3886D01*
X-79290Y5386D02*
X-79290Y4786D01*
X-79291Y6286D02*
X-79290Y7286D01*
X-79290Y8186D02*
X-79290Y8586D01*
X-79291Y11386D02*
X-79291Y9586D01*
X-79291Y12286D02*
X-79290Y13386D01*
X-79391Y-16314D02*
X-79391Y-16614D01*
X-79391Y-15614D02*
X-79391Y-13614D01*
X-79391Y-11114D02*
X-79391Y-13114D01*
X-79391Y-10214D02*
X-79391Y-7614D01*
X-79391Y-5814D02*
X-79391Y-5714D01*
X-79391Y-3014D02*
X-79391Y-2414D01*
X-79391Y-1514D02*
X-79391Y86D01*
Y1386D02*
X-79390Y986D01*
X-79391Y3886D02*
X-79391Y2286D01*
X-79391Y4786D02*
X-79391Y5386D01*
X-79391Y7286D02*
X-79391Y6286D01*
X-79391Y8686D02*
X-79391Y8186D01*
X-79391Y11386D02*
X-79391Y9586D01*
X-79391Y13386D02*
X-79391Y12286D01*
X-79491Y-16614D02*
X-79491Y-16314D01*
X-79491Y-13614D02*
X-79490Y-15614D01*
X-79491Y-13014D02*
X-79491Y-11214D01*
X-79491Y-7614D02*
X-79491Y-10214D01*
X-79491Y-5814D02*
X-79491Y-5714D01*
X-79491Y-2414D02*
X-79491Y-3014D01*
X-79491Y-1514D02*
X-79490Y86D01*
X-79491Y1386D02*
X-79491Y986D01*
X-79491Y3886D02*
X-79491Y2286D01*
X-79491Y4786D02*
X-79490Y5386D01*
X-79491Y6286D02*
X-79491Y7286D01*
X-79491Y8186D02*
X-79491Y8686D01*
X-79491Y11386D02*
X-79491Y9586D01*
X-79491Y12286D02*
Y13386D01*
X-79590Y-16314D02*
X-79590Y-16614D01*
X-79590Y-15614D02*
X-79590Y-13614D01*
X-79590Y-11314D02*
X-79590Y-12914D01*
X-79590Y-8714D02*
X-79590Y-10114D01*
X-79591Y-8414D02*
X-79590Y-7614D01*
X-79591Y-5814D02*
X-79590Y-5714D01*
X-79590Y-4814D02*
X-79590Y-4914D01*
X-79590Y-2414D02*
X-79590Y-3214D01*
X-79591Y86D02*
X-79590Y-1514D01*
X-79591Y986D02*
X-79590Y1386D01*
X-79590Y2286D02*
X-79590Y3886D01*
X-79591Y4786D02*
X-79591Y5386D01*
X-79591Y6286D02*
X-79590Y7286D01*
X-79591Y8086D02*
X-79591Y8686D01*
X-79591Y9586D02*
Y11386D01*
X-79591Y13386D02*
X-79590Y12286D01*
X-79691Y-16614D02*
X-79690Y-16314D01*
X-79691Y-15614D02*
X-79691Y-13914D01*
X-79691Y-11514D02*
X-79690Y-12814D01*
X-79691Y-8814D02*
X-79690Y-10014D01*
X-79691Y-8414D02*
X-79690Y-8114D01*
X-79691Y-5714D02*
X-79690Y-5814D01*
Y-5014D02*
X-79690Y-4714D01*
X-79691Y-2414D02*
X-79691Y-3314D01*
X-79691Y-1414D02*
X-79691Y86D01*
X-79690Y1386D02*
X-79690Y986D01*
X-79691Y2386D02*
Y3886D01*
X-79691Y4786D02*
X-79690Y5386D01*
X-79691Y6186D02*
X-79690Y7286D01*
X-79691Y8686D02*
X-79691Y8086D01*
X-79691Y11386D02*
X-79690Y9686D01*
X-79691Y13386D02*
X-79690Y12286D01*
X-79791Y-16314D02*
X-79791Y-16614D01*
X-79791Y-14814D02*
X-79791Y-14014D01*
X-79791Y-12514D02*
X-79790Y-11814D01*
X-79791Y-9814D02*
X-79791Y-9114D01*
X-79791Y-5814D02*
X-79791Y-4514D01*
X-79791Y-3514D02*
X-79791Y-2414D01*
X-79791Y86D02*
X-79791Y-1414D01*
X-79791Y1386D02*
X-79791Y986D01*
X-79791Y2386D02*
X-79790Y3886D01*
X-79791Y4786D02*
X-79791Y8786D01*
X-79791Y9786D02*
X-79791Y11386D01*
X-79791Y12286D02*
X-79791Y13386D01*
X-79891Y-16614D02*
X-79891Y-16314D01*
X-79891Y-14014D02*
X-79891Y-14814D01*
X-79891Y-2414D02*
X-79891Y-5814D01*
X-79891Y-1414D02*
X-79891Y86D01*
X-79891Y986D02*
X-79891Y1386D01*
X-79891Y2386D02*
X-79891Y3886D01*
X-79891Y8786D02*
X-79891Y4786D01*
X-79891Y11386D02*
X-79891Y9786D01*
X-79891Y13386D02*
X-79891Y12286D01*
X-79991Y-16614D02*
X-79991Y-16314D01*
X-79991Y-14014D02*
X-79991Y-14814D01*
X-79991Y-2314D02*
X-79991Y-5814D01*
X-79991Y-1314D02*
X-79991Y86D01*
X-79991Y1486D02*
X-79991Y986D01*
X-79991Y3886D02*
X-79991Y2486D01*
X-79991Y4786D02*
X-79991Y8786D01*
X-79991Y11386D02*
X-79991Y9886D01*
X-79991Y12286D02*
X-79990Y13386D01*
X-80091Y-16614D02*
X-80091Y-16314D01*
Y-14014D02*
X-80090Y-14814D01*
X-80091Y-5814D02*
X-80091Y-2314D01*
X-80091Y86D02*
X-80091Y-1214D01*
X-80091Y986D02*
X-80091Y1486D01*
X-80090Y2586D02*
X-80090Y3886D01*
X-80091Y4786D02*
X-80091Y8886D01*
X-80091Y11386D02*
X-80090Y9986D01*
X-80091Y12286D02*
X-80091Y13386D01*
X-80191Y-16314D02*
X-80190Y-16614D01*
X-80191Y-14814D02*
X-80190Y-14014D01*
X-80191Y-5814D02*
X-80191Y-2314D01*
Y-1114D02*
X-80190Y86D01*
X-80191Y1486D02*
X-80190Y986D01*
X-80191Y3886D02*
X-80191Y2686D01*
X-80191Y8886D02*
X-80190Y4786D01*
X-80191Y10186D02*
X-80190Y11386D01*
X-80191Y13386D02*
X-80191Y12286D01*
X-80291Y-16614D02*
X-80291Y-16314D01*
X-80291Y-14814D02*
X-80290Y-14014D01*
X-80291Y-2214D02*
X-80291Y-5814D01*
X-80291Y-214D02*
X-80291Y-914D01*
X-80291Y1586D02*
X-80291Y986D01*
X-80291Y2886D02*
X-80291Y3586D01*
X-80291Y4786D02*
Y8986D01*
X-80291Y11286D02*
X-80291Y10586D01*
X-80291Y13386D02*
X-80291Y12286D01*
X-80391Y-16614D02*
X-80391Y-16314D01*
X-80391Y-14014D02*
X-80390Y-14814D01*
X-80391Y-5814D02*
X-80390Y-2214D01*
X-80391Y1586D02*
X-80391Y986D01*
X-80391Y4786D02*
X-80391Y9086D01*
X-80391Y12286D02*
X-80391Y13386D01*
X-80490Y-16614D02*
X-80490Y-16314D01*
X-80490Y-14814D02*
X-80490Y-14014D01*
X-80491Y-5814D02*
X-80491Y-2114D01*
Y986D02*
Y1686D01*
X-80491Y4786D02*
X-80490Y9186D01*
X-80491Y13386D02*
X-80490Y12286D01*
X-80591Y-16314D02*
X-80591Y-16614D01*
X-80591Y-14014D02*
X-80590Y-14814D01*
X-80591Y-5814D02*
X-80590Y-2014D01*
X-80591Y1786D02*
X-80590Y986D01*
X-80591Y4786D02*
X-80590Y9286D01*
X-80591Y12286D02*
X-80591Y13386D01*
X-80691Y-16614D02*
Y-16314D01*
X-80690Y-14414D02*
X-80690Y-14014D01*
X-80691Y-1914D02*
X-80691Y-5814D01*
X-80690Y986D02*
X-80690Y1886D01*
X-80691Y4786D02*
X-80690Y9386D01*
X-80691Y13386D02*
X-80691Y12286D01*
X-80791Y-16314D02*
X-80791Y-16614D01*
Y-5814D02*
X-80791Y-1814D01*
X-80791Y986D02*
Y1986D01*
X-80791Y9486D02*
X-80790Y4786D01*
X-80791Y13386D02*
X-80791Y12286D01*
X-80891Y-16614D02*
Y-16314D01*
X-80891Y-5814D02*
X-80890Y-1714D01*
X-80891Y2086D02*
X-80891Y986D01*
X-80891Y4786D02*
X-80891Y9686D01*
X-80891Y12286D02*
X-80891Y13386D01*
X-80990Y-16314D02*
X-80990Y-16614D01*
X-80990Y-5814D02*
X-80990Y-1514D01*
X-80991Y2286D02*
X-80990Y986D01*
X-80991Y10086D02*
X-80990Y4786D01*
X-80990Y12286D02*
X-80990Y13386D01*
X-81090Y-16214D02*
X-81090Y-16614D01*
X-81091Y13386D02*
X-81091Y-5814D01*
X-81191Y-16214D02*
X-81191Y-16614D01*
X-81191Y13386D02*
X-81191Y-5814D01*
X-81291Y-16614D02*
Y-16214D01*
X-81291Y13386D02*
X-81291Y-5814D01*
X-81391Y-16214D02*
X-81391Y-16614D01*
X-81391Y13386D02*
X-81390Y-5814D01*
X-81491Y-16514D02*
X-81490Y-16214D01*
X-81491Y13286D02*
X-81490Y-5814D01*
X-81590Y-16514D02*
X-81590Y-16114D01*
X-81591Y13286D02*
X-81590Y-5814D01*
X-81691Y-16414D02*
X-81691Y-16014D01*
X-81691Y13186D02*
X-81691Y-5814D01*
X-81791Y-16414D02*
X-81791Y-15914D01*
X-81791Y13186D02*
X-81790Y-5814D01*
X-81891Y-16314D02*
X-81890Y-15814D01*
X-81890Y13086D02*
X-81890Y-5814D01*
X-81991Y-16214D02*
X-81990Y-15614D01*
X-81991Y12986D02*
X-81990Y-5814D01*
X-82091Y-15214D02*
X-82091Y-16114D01*
X-82091Y12886D02*
X-82091Y-5914D01*
X-82191Y12786D02*
X-82191Y-16014D01*
X-82291Y12586D02*
X-82291Y-15814D01*
X-82391Y12386D02*
X-82391Y-15614D01*
D99*
X-17913Y-60236D02*
D03*
X-26969Y-60236D02*
D03*
D100*
X13151Y37485D02*
D03*
X22596Y32673D02*
D03*
D101*
X17874Y35079D02*
D03*
D102*
X52974Y7745D02*
D03*
X53427Y3438D02*
D03*
X51928Y5458D02*
D03*
X56659Y3778D02*
D03*
X56206Y8085D02*
D03*
X57705Y6065D02*
D03*
X43119Y-38825D02*
D03*
X43617Y-36359D02*
D03*
X40719Y-39578D02*
D03*
X38802Y-34938D02*
D03*
X38304Y-37403D02*
D03*
X41202Y-34185D02*
D03*
X38304Y37403D02*
D03*
X41202Y34185D02*
D03*
X38802Y34938D02*
D03*
X43617Y36359D02*
D03*
X40719Y39578D02*
D03*
X43119Y38825D02*
D03*
X45244Y28622D02*
D03*
X47409Y24871D02*
D03*
X45219Y26107D02*
D03*
X50223Y26496D02*
D03*
X48058Y30247D02*
D03*
X50249Y29011D02*
D03*
X50206Y18590D02*
D03*
X51544Y14471D02*
D03*
X49658Y16135D02*
D03*
X54635Y15475D02*
D03*
X53297Y19594D02*
D03*
X55183Y17930D02*
D03*
X57705Y-6065D02*
D03*
X56659Y-3778D02*
D03*
X56206Y-8085D02*
D03*
X51928Y-5458D02*
D03*
X52974Y-7745D02*
D03*
X53427Y-3438D02*
D03*
X55183Y-17930D02*
D03*
X54635Y-15475D02*
D03*
X53297Y-19594D02*
D03*
X49658Y-16135D02*
D03*
X50206Y-18590D02*
D03*
X51544Y-14471D02*
D03*
X50249Y-29011D02*
D03*
X50223Y-26496D02*
D03*
X48058Y-30247D02*
D03*
X45219Y-26107D02*
D03*
X45244Y-28622D02*
D03*
X47409Y-24871D02*
D03*
D103*
X-47638Y-65059D02*
D03*
Y-61713D02*
D03*
X24409Y-44783D02*
D03*
Y-48130D02*
D03*
X12205Y-38681D02*
D03*
Y-35335D02*
D03*
X70472Y49705D02*
D03*
Y46358D02*
D03*
X66535Y49705D02*
D03*
Y46358D02*
D03*
X62598Y49705D02*
D03*
X62598Y46358D02*
D03*
X-36024Y-60138D02*
D03*
Y-56791D02*
D03*
X-2362Y-81201D02*
D03*
Y-77854D02*
D03*
D104*
X-42126Y-2264D02*
D03*
D105*
X46844Y61137D02*
D03*
X10107Y76354D02*
D03*
D106*
X33199Y54431D02*
D03*
X28653Y56314D02*
D03*
X24106Y58197D02*
D03*
X19559Y60080D02*
D03*
X15013Y61964D02*
D03*
D107*
X-53150Y38583D02*
D03*
Y32283D02*
D03*
D108*
X-26378Y32352D02*
D03*
X-26378Y36152D02*
D03*
D109*
X-20866Y32480D02*
D03*
X-20866Y36024D02*
D03*
X-11056Y-63818D02*
D03*
X-11056Y-60275D02*
D03*
X-6299Y-63976D02*
D03*
X-6299Y-60433D02*
D03*
X27953Y-44685D02*
D03*
X27953Y-48228D02*
D03*
X-31512Y32496D02*
D03*
Y36039D02*
D03*
D110*
X12865Y-51758D02*
D03*
X11473Y-50366D02*
D03*
X-1054Y-51758D02*
D03*
X338Y-53150D02*
D03*
X1730Y-54542D02*
D03*
X3122Y-55933D02*
D03*
X4514Y-57325D02*
D03*
X5906Y-58717D02*
D03*
X338Y-50366D02*
D03*
X1730Y-51758D02*
D03*
X3122Y-53150D02*
D03*
X4514Y-54541D02*
D03*
X5906Y-55933D02*
D03*
X7298Y-57325D02*
D03*
X1730Y-48974D02*
D03*
X3122Y-50366D02*
D03*
X4514Y-51758D02*
D03*
X5906Y-53150D02*
D03*
X7298Y-54541D02*
D03*
X8689Y-55933D02*
D03*
X3122Y-47582D02*
D03*
X4514Y-48974D02*
D03*
X5906Y-50366D02*
D03*
X7298Y-51758D02*
D03*
X8689Y-53150D02*
D03*
X10081Y-54542D02*
D03*
X4514Y-46190D02*
D03*
X5906Y-47582D02*
D03*
X7298Y-48974D02*
D03*
X8689Y-50366D02*
D03*
X10081Y-51758D02*
D03*
X11473Y-53150D02*
D03*
X5906Y-44798D02*
D03*
X7298Y-46190D02*
D03*
X8689Y-47582D02*
D03*
X10081Y-48974D02*
D03*
D111*
X16858Y-42054D02*
D03*
X19363Y-44560D02*
D03*
D112*
X-10079Y76333D02*
D03*
X-46839Y61171D02*
D03*
D113*
X-15007Y61950D02*
D03*
X-19557Y60074D02*
D03*
X-24106Y58197D02*
D03*
X-28655Y56321D02*
D03*
X-33205Y54444D02*
D03*
D114*
X19980Y-73622D02*
D03*
X23327D02*
D03*
Y-77559D02*
D03*
X19980D02*
D03*
X31594Y-69685D02*
D03*
X28248D02*
D03*
X48917Y-70079D02*
D03*
X45571D02*
D03*
X48917Y-66142D02*
D03*
X45571D02*
D03*
X48917Y-62205D02*
D03*
X45571D02*
D03*
X-60728Y-25591D02*
D03*
X-57382D02*
D03*
X-60728Y-21654D02*
D03*
X-57382D02*
D03*
X-60728Y-29528D02*
D03*
X-57382D02*
D03*
D115*
X20137Y45228D02*
D03*
X21498Y48285D02*
D03*
D116*
X24754Y42875D02*
D03*
X26427Y45773D02*
D03*
D117*
X-46850Y33661D02*
D03*
X-46851Y37205D02*
D03*
D118*
X-48327Y26575D02*
D03*
X-51870D02*
D03*
D119*
X-55601Y5983D02*
D03*
X-53235Y3617D02*
D03*
X-61169Y416D02*
D03*
X-58803Y-1951D02*
D03*
X-58385Y3199D02*
D03*
X-56019Y833D02*
D03*
M02*
