G04*
G04 #@! TF.GenerationSoftware,Altium Limited,Altium Designer,20.1.11 (218)*
G04*
G04 Layer_Color=8388736*
%FSLAX25Y25*%
%MOIN*%
G70*
G04*
G04 #@! TF.SameCoordinates,A89DC92D-1D16-4819-8E46-697129492B70*
G04*
G04*
G04 #@! TF.FilePolarity,Negative*
G04*
G01*
G75*
G04:AMPARAMS|DCode=37|XSize=41.47mil|YSize=39.5mil|CornerRadius=7.94mil|HoleSize=0mil|Usage=FLASHONLY|Rotation=285.000|XOffset=0mil|YOffset=0mil|HoleType=Round|Shape=RoundedRectangle|*
%AMROUNDEDRECTD37*
21,1,0.04147,0.02362,0,0,285.0*
21,1,0.02559,0.03950,0,0,285.0*
1,1,0.01587,-0.00810,-0.01542*
1,1,0.01587,-0.01472,0.00930*
1,1,0.01587,0.00810,0.01542*
1,1,0.01587,0.01472,-0.00930*
%
%ADD37ROUNDEDRECTD37*%
G04:AMPARAMS|DCode=38|XSize=41.47mil|YSize=39.5mil|CornerRadius=7.94mil|HoleSize=0mil|Usage=FLASHONLY|Rotation=277.500|XOffset=0mil|YOffset=0mil|HoleType=Round|Shape=RoundedRectangle|*
%AMROUNDEDRECTD38*
21,1,0.04147,0.02362,0,0,277.5*
21,1,0.02559,0.03950,0,0,277.5*
1,1,0.01587,-0.01004,-0.01423*
1,1,0.01587,-0.01338,0.01114*
1,1,0.01587,0.01004,0.01423*
1,1,0.01587,0.01338,-0.01114*
%
%ADD38ROUNDEDRECTD38*%
G04:AMPARAMS|DCode=39|XSize=41.47mil|YSize=39.5mil|CornerRadius=7.94mil|HoleSize=0mil|Usage=FLASHONLY|Rotation=270.000|XOffset=0mil|YOffset=0mil|HoleType=Round|Shape=RoundedRectangle|*
%AMROUNDEDRECTD39*
21,1,0.04147,0.02362,0,0,270.0*
21,1,0.02559,0.03950,0,0,270.0*
1,1,0.01587,-0.01181,-0.01280*
1,1,0.01587,-0.01181,0.01280*
1,1,0.01587,0.01181,0.01280*
1,1,0.01587,0.01181,-0.01280*
%
%ADD39ROUNDEDRECTD39*%
G04:AMPARAMS|DCode=40|XSize=41.47mil|YSize=39.5mil|CornerRadius=7.94mil|HoleSize=0mil|Usage=FLASHONLY|Rotation=262.500|XOffset=0mil|YOffset=0mil|HoleType=Round|Shape=RoundedRectangle|*
%AMROUNDEDRECTD40*
21,1,0.04147,0.02362,0,0,262.5*
21,1,0.02559,0.03950,0,0,262.5*
1,1,0.01587,-0.01338,-0.01114*
1,1,0.01587,-0.01004,0.01423*
1,1,0.01587,0.01338,0.01114*
1,1,0.01587,0.01004,-0.01423*
%
%ADD40ROUNDEDRECTD40*%
G04:AMPARAMS|DCode=41|XSize=41.47mil|YSize=39.5mil|CornerRadius=7.94mil|HoleSize=0mil|Usage=FLASHONLY|Rotation=255.000|XOffset=0mil|YOffset=0mil|HoleType=Round|Shape=RoundedRectangle|*
%AMROUNDEDRECTD41*
21,1,0.04147,0.02362,0,0,255.0*
21,1,0.02559,0.03950,0,0,255.0*
1,1,0.01587,-0.01472,-0.00930*
1,1,0.01587,-0.00810,0.01542*
1,1,0.01587,0.01472,0.00930*
1,1,0.01587,0.00810,-0.01542*
%
%ADD41ROUNDEDRECTD41*%
G04:AMPARAMS|DCode=42|XSize=41.47mil|YSize=39.5mil|CornerRadius=7.94mil|HoleSize=0mil|Usage=FLASHONLY|Rotation=247.500|XOffset=0mil|YOffset=0mil|HoleType=Round|Shape=RoundedRectangle|*
%AMROUNDEDRECTD42*
21,1,0.04147,0.02362,0,0,247.5*
21,1,0.02559,0.03950,0,0,247.5*
1,1,0.01587,-0.01581,-0.00730*
1,1,0.01587,-0.00602,0.01634*
1,1,0.01587,0.01581,0.00730*
1,1,0.01587,0.00602,-0.01634*
%
%ADD42ROUNDEDRECTD42*%
G04:AMPARAMS|DCode=43|XSize=41.47mil|YSize=39.5mil|CornerRadius=7.94mil|HoleSize=0mil|Usage=FLASHONLY|Rotation=240.000|XOffset=0mil|YOffset=0mil|HoleType=Round|Shape=RoundedRectangle|*
%AMROUNDEDRECTD43*
21,1,0.04147,0.02362,0,0,240.0*
21,1,0.02559,0.03950,0,0,240.0*
1,1,0.01587,-0.01663,-0.00518*
1,1,0.01587,-0.00383,0.01699*
1,1,0.01587,0.01663,0.00518*
1,1,0.01587,0.00383,-0.01699*
%
%ADD43ROUNDEDRECTD43*%
G04:AMPARAMS|DCode=44|XSize=41.47mil|YSize=39.5mil|CornerRadius=7.94mil|HoleSize=0mil|Usage=FLASHONLY|Rotation=232.500|XOffset=0mil|YOffset=0mil|HoleType=Round|Shape=RoundedRectangle|*
%AMROUNDEDRECTD44*
21,1,0.04147,0.02362,0,0,232.5*
21,1,0.02559,0.03950,0,0,232.5*
1,1,0.01587,-0.01716,-0.00296*
1,1,0.01587,-0.00158,0.01734*
1,1,0.01587,0.01716,0.00296*
1,1,0.01587,0.00158,-0.01734*
%
%ADD44ROUNDEDRECTD44*%
G04:AMPARAMS|DCode=45|XSize=41.47mil|YSize=39.5mil|CornerRadius=7.94mil|HoleSize=0mil|Usage=FLASHONLY|Rotation=225.000|XOffset=0mil|YOffset=0mil|HoleType=Round|Shape=RoundedRectangle|*
%AMROUNDEDRECTD45*
21,1,0.04147,0.02362,0,0,225.0*
21,1,0.02559,0.03950,0,0,225.0*
1,1,0.01587,-0.01740,-0.00070*
1,1,0.01587,0.00070,0.01740*
1,1,0.01587,0.01740,0.00070*
1,1,0.01587,-0.00070,-0.01740*
%
%ADD45ROUNDEDRECTD45*%
G04:AMPARAMS|DCode=46|XSize=41.47mil|YSize=39.5mil|CornerRadius=7.94mil|HoleSize=0mil|Usage=FLASHONLY|Rotation=217.500|XOffset=0mil|YOffset=0mil|HoleType=Round|Shape=RoundedRectangle|*
%AMROUNDEDRECTD46*
21,1,0.04147,0.02362,0,0,217.5*
21,1,0.02559,0.03950,0,0,217.5*
1,1,0.01587,-0.01734,0.00158*
1,1,0.01587,0.00296,0.01716*
1,1,0.01587,0.01734,-0.00158*
1,1,0.01587,-0.00296,-0.01716*
%
%ADD46ROUNDEDRECTD46*%
G04:AMPARAMS|DCode=47|XSize=41.47mil|YSize=39.5mil|CornerRadius=7.94mil|HoleSize=0mil|Usage=FLASHONLY|Rotation=210.000|XOffset=0mil|YOffset=0mil|HoleType=Round|Shape=RoundedRectangle|*
%AMROUNDEDRECTD47*
21,1,0.04147,0.02362,0,0,210.0*
21,1,0.02559,0.03950,0,0,210.0*
1,1,0.01587,-0.01699,0.00383*
1,1,0.01587,0.00518,0.01663*
1,1,0.01587,0.01699,-0.00383*
1,1,0.01587,-0.00518,-0.01663*
%
%ADD47ROUNDEDRECTD47*%
G04:AMPARAMS|DCode=48|XSize=41.47mil|YSize=39.5mil|CornerRadius=7.94mil|HoleSize=0mil|Usage=FLASHONLY|Rotation=202.500|XOffset=0mil|YOffset=0mil|HoleType=Round|Shape=RoundedRectangle|*
%AMROUNDEDRECTD48*
21,1,0.04147,0.02362,0,0,202.5*
21,1,0.02559,0.03950,0,0,202.5*
1,1,0.01587,-0.01634,0.00602*
1,1,0.01587,0.00730,0.01581*
1,1,0.01587,0.01634,-0.00602*
1,1,0.01587,-0.00730,-0.01581*
%
%ADD48ROUNDEDRECTD48*%
G04:AMPARAMS|DCode=49|XSize=41.47mil|YSize=39.5mil|CornerRadius=7.94mil|HoleSize=0mil|Usage=FLASHONLY|Rotation=195.000|XOffset=0mil|YOffset=0mil|HoleType=Round|Shape=RoundedRectangle|*
%AMROUNDEDRECTD49*
21,1,0.04147,0.02362,0,0,195.0*
21,1,0.02559,0.03950,0,0,195.0*
1,1,0.01587,-0.01542,0.00810*
1,1,0.01587,0.00930,0.01472*
1,1,0.01587,0.01542,-0.00810*
1,1,0.01587,-0.00930,-0.01472*
%
%ADD49ROUNDEDRECTD49*%
G04:AMPARAMS|DCode=50|XSize=41.47mil|YSize=39.5mil|CornerRadius=7.94mil|HoleSize=0mil|Usage=FLASHONLY|Rotation=187.500|XOffset=0mil|YOffset=0mil|HoleType=Round|Shape=RoundedRectangle|*
%AMROUNDEDRECTD50*
21,1,0.04147,0.02362,0,0,187.5*
21,1,0.02559,0.03950,0,0,187.5*
1,1,0.01587,-0.01423,0.01004*
1,1,0.01587,0.01114,0.01338*
1,1,0.01587,0.01423,-0.01004*
1,1,0.01587,-0.01114,-0.01338*
%
%ADD50ROUNDEDRECTD50*%
G04:AMPARAMS|DCode=51|XSize=41.47mil|YSize=39.5mil|CornerRadius=7.94mil|HoleSize=0mil|Usage=FLASHONLY|Rotation=180.000|XOffset=0mil|YOffset=0mil|HoleType=Round|Shape=RoundedRectangle|*
%AMROUNDEDRECTD51*
21,1,0.04147,0.02362,0,0,180.0*
21,1,0.02559,0.03950,0,0,180.0*
1,1,0.01587,-0.01280,0.01181*
1,1,0.01587,0.01280,0.01181*
1,1,0.01587,0.01280,-0.01181*
1,1,0.01587,-0.01280,-0.01181*
%
%ADD51ROUNDEDRECTD51*%
G04:AMPARAMS|DCode=52|XSize=41.47mil|YSize=39.5mil|CornerRadius=7.94mil|HoleSize=0mil|Usage=FLASHONLY|Rotation=172.500|XOffset=0mil|YOffset=0mil|HoleType=Round|Shape=RoundedRectangle|*
%AMROUNDEDRECTD52*
21,1,0.04147,0.02362,0,0,172.5*
21,1,0.02559,0.03950,0,0,172.5*
1,1,0.01587,-0.01114,0.01338*
1,1,0.01587,0.01423,0.01004*
1,1,0.01587,0.01114,-0.01338*
1,1,0.01587,-0.01423,-0.01004*
%
%ADD52ROUNDEDRECTD52*%
G04:AMPARAMS|DCode=53|XSize=41.47mil|YSize=39.5mil|CornerRadius=7.94mil|HoleSize=0mil|Usage=FLASHONLY|Rotation=165.000|XOffset=0mil|YOffset=0mil|HoleType=Round|Shape=RoundedRectangle|*
%AMROUNDEDRECTD53*
21,1,0.04147,0.02362,0,0,165.0*
21,1,0.02559,0.03950,0,0,165.0*
1,1,0.01587,-0.00930,0.01472*
1,1,0.01587,0.01542,0.00810*
1,1,0.01587,0.00930,-0.01472*
1,1,0.01587,-0.01542,-0.00810*
%
%ADD53ROUNDEDRECTD53*%
G04:AMPARAMS|DCode=54|XSize=41.47mil|YSize=39.5mil|CornerRadius=7.94mil|HoleSize=0mil|Usage=FLASHONLY|Rotation=157.500|XOffset=0mil|YOffset=0mil|HoleType=Round|Shape=RoundedRectangle|*
%AMROUNDEDRECTD54*
21,1,0.04147,0.02362,0,0,157.5*
21,1,0.02559,0.03950,0,0,157.5*
1,1,0.01587,-0.00730,0.01581*
1,1,0.01587,0.01634,0.00602*
1,1,0.01587,0.00730,-0.01581*
1,1,0.01587,-0.01634,-0.00602*
%
%ADD54ROUNDEDRECTD54*%
G04:AMPARAMS|DCode=55|XSize=41.47mil|YSize=39.5mil|CornerRadius=7.94mil|HoleSize=0mil|Usage=FLASHONLY|Rotation=150.000|XOffset=0mil|YOffset=0mil|HoleType=Round|Shape=RoundedRectangle|*
%AMROUNDEDRECTD55*
21,1,0.04147,0.02362,0,0,150.0*
21,1,0.02559,0.03950,0,0,150.0*
1,1,0.01587,-0.00518,0.01663*
1,1,0.01587,0.01699,0.00383*
1,1,0.01587,0.00518,-0.01663*
1,1,0.01587,-0.01699,-0.00383*
%
%ADD55ROUNDEDRECTD55*%
G04:AMPARAMS|DCode=56|XSize=41.47mil|YSize=39.5mil|CornerRadius=7.94mil|HoleSize=0mil|Usage=FLASHONLY|Rotation=142.500|XOffset=0mil|YOffset=0mil|HoleType=Round|Shape=RoundedRectangle|*
%AMROUNDEDRECTD56*
21,1,0.04147,0.02362,0,0,142.5*
21,1,0.02559,0.03950,0,0,142.5*
1,1,0.01587,-0.00296,0.01716*
1,1,0.01587,0.01734,0.00158*
1,1,0.01587,0.00296,-0.01716*
1,1,0.01587,-0.01734,-0.00158*
%
%ADD56ROUNDEDRECTD56*%
G04:AMPARAMS|DCode=57|XSize=41.47mil|YSize=39.5mil|CornerRadius=7.94mil|HoleSize=0mil|Usage=FLASHONLY|Rotation=135.000|XOffset=0mil|YOffset=0mil|HoleType=Round|Shape=RoundedRectangle|*
%AMROUNDEDRECTD57*
21,1,0.04147,0.02362,0,0,135.0*
21,1,0.02559,0.03950,0,0,135.0*
1,1,0.01587,-0.00070,0.01740*
1,1,0.01587,0.01740,-0.00070*
1,1,0.01587,0.00070,-0.01740*
1,1,0.01587,-0.01740,0.00070*
%
%ADD57ROUNDEDRECTD57*%
G04:AMPARAMS|DCode=58|XSize=41.47mil|YSize=39.5mil|CornerRadius=7.94mil|HoleSize=0mil|Usage=FLASHONLY|Rotation=127.500|XOffset=0mil|YOffset=0mil|HoleType=Round|Shape=RoundedRectangle|*
%AMROUNDEDRECTD58*
21,1,0.04147,0.02362,0,0,127.5*
21,1,0.02559,0.03950,0,0,127.5*
1,1,0.01587,0.00158,0.01734*
1,1,0.01587,0.01716,-0.00296*
1,1,0.01587,-0.00158,-0.01734*
1,1,0.01587,-0.01716,0.00296*
%
%ADD58ROUNDEDRECTD58*%
G04:AMPARAMS|DCode=59|XSize=41.47mil|YSize=39.5mil|CornerRadius=7.94mil|HoleSize=0mil|Usage=FLASHONLY|Rotation=120.000|XOffset=0mil|YOffset=0mil|HoleType=Round|Shape=RoundedRectangle|*
%AMROUNDEDRECTD59*
21,1,0.04147,0.02362,0,0,120.0*
21,1,0.02559,0.03950,0,0,120.0*
1,1,0.01587,0.00383,0.01699*
1,1,0.01587,0.01663,-0.00518*
1,1,0.01587,-0.00383,-0.01699*
1,1,0.01587,-0.01663,0.00518*
%
%ADD59ROUNDEDRECTD59*%
G04:AMPARAMS|DCode=60|XSize=41.47mil|YSize=39.5mil|CornerRadius=7.94mil|HoleSize=0mil|Usage=FLASHONLY|Rotation=112.500|XOffset=0mil|YOffset=0mil|HoleType=Round|Shape=RoundedRectangle|*
%AMROUNDEDRECTD60*
21,1,0.04147,0.02362,0,0,112.5*
21,1,0.02559,0.03950,0,0,112.5*
1,1,0.01587,0.00602,0.01634*
1,1,0.01587,0.01581,-0.00730*
1,1,0.01587,-0.00602,-0.01634*
1,1,0.01587,-0.01581,0.00730*
%
%ADD60ROUNDEDRECTD60*%
%ADD61C,0.55918*%
%ADD62C,0.20485*%
D37*
X23312Y-78634D02*
D03*
X19128Y-79755D02*
D03*
X21630Y-72359D02*
D03*
X17447Y-73480D02*
D03*
X-23312Y78634D02*
D03*
X-19128Y79755D02*
D03*
X-21630Y72359D02*
D03*
X-17447Y73480D02*
D03*
D38*
X12848Y-81004D02*
D03*
X8555Y-81569D02*
D03*
X12000Y-74564D02*
D03*
X7707Y-75129D02*
D03*
X-12848Y81004D02*
D03*
X-8555Y81569D02*
D03*
X-12000Y74564D02*
D03*
X-7707Y75129D02*
D03*
D39*
X2165Y-81988D02*
D03*
X-2165Y-81988D02*
D03*
X2165Y-75492D02*
D03*
X-2165D02*
D03*
X-2165Y81988D02*
D03*
X2165Y81988D02*
D03*
X-2165Y75492D02*
D03*
X2165D02*
D03*
D40*
X-8555Y-81569D02*
D03*
X-12848Y-81004D02*
D03*
X-7707Y-75129D02*
D03*
X-12000Y-74564D02*
D03*
X8555Y81569D02*
D03*
X12848Y81004D02*
D03*
X7707Y75129D02*
D03*
X12000Y74564D02*
D03*
D41*
X-19128Y-79755D02*
D03*
X-23312Y-78634D02*
D03*
X-17447Y-73480D02*
D03*
X-21630Y-72359D02*
D03*
X19128Y79755D02*
D03*
X23312Y78634D02*
D03*
X17447Y73480D02*
D03*
X21630Y72359D02*
D03*
D42*
X-29375Y-76576D02*
D03*
X-33376Y-74919D02*
D03*
X-26889Y-70574D02*
D03*
X-30890Y-68917D02*
D03*
X29375Y76576D02*
D03*
X33376Y74919D02*
D03*
X26889Y70574D02*
D03*
X30890Y68917D02*
D03*
D43*
X-39119Y-72087D02*
D03*
X-42869Y-69921D02*
D03*
X-35871Y-66461D02*
D03*
X-39621Y-64295D02*
D03*
X39119Y72087D02*
D03*
X42869Y69921D02*
D03*
X35871Y66461D02*
D03*
X39621Y64295D02*
D03*
D44*
X-48193Y-66364D02*
D03*
X-51629Y-63727D02*
D03*
X-44239Y-61210D02*
D03*
X-47675Y-58574D02*
D03*
X48193Y66364D02*
D03*
X51629Y63727D02*
D03*
X44239Y61210D02*
D03*
X47675Y58574D02*
D03*
D45*
X-56443Y-59505D02*
D03*
X-59505Y-56443D02*
D03*
X-51850Y-54912D02*
D03*
X-54912Y-51850D02*
D03*
X56443Y59505D02*
D03*
X59505Y56443D02*
D03*
X51850Y54912D02*
D03*
X54912Y51850D02*
D03*
D46*
X-63727Y-51629D02*
D03*
X-66364Y-48193D02*
D03*
X-58574Y-47675D02*
D03*
X-61210Y-44239D02*
D03*
X63727Y51629D02*
D03*
X66364Y48193D02*
D03*
X58574Y47675D02*
D03*
X61210Y44239D02*
D03*
D47*
X-69921Y-42869D02*
D03*
X-72087Y-39119D02*
D03*
X-64295Y-39621D02*
D03*
X-66461Y-35871D02*
D03*
X69921Y42869D02*
D03*
X72087Y39119D02*
D03*
X64295Y39621D02*
D03*
X66461Y35871D02*
D03*
D48*
X-74919Y-33376D02*
D03*
X-76576Y-29375D02*
D03*
X-68917Y-30890D02*
D03*
X-70574Y-26889D02*
D03*
X74919Y33376D02*
D03*
X76576Y29375D02*
D03*
X68917Y30890D02*
D03*
X70574Y26889D02*
D03*
D49*
X-78634Y-23312D02*
D03*
X-79755Y-19128D02*
D03*
X-72359Y-21630D02*
D03*
X-73480Y-17447D02*
D03*
X78634Y23312D02*
D03*
X79755Y19128D02*
D03*
X72359Y21630D02*
D03*
X73480Y17447D02*
D03*
D50*
X-81004Y-12848D02*
D03*
X-81569Y-8555D02*
D03*
X-74564Y-12000D02*
D03*
X-75129Y-7707D02*
D03*
X81004Y12848D02*
D03*
X81569Y8555D02*
D03*
X74564Y12000D02*
D03*
X75129Y7707D02*
D03*
D51*
X-81988Y-2165D02*
D03*
X-81988Y2165D02*
D03*
X-75492Y-2165D02*
D03*
Y2165D02*
D03*
X81988Y2165D02*
D03*
X81988Y-2165D02*
D03*
X75492Y2165D02*
D03*
Y-2165D02*
D03*
D52*
X-81569Y8555D02*
D03*
X-81004Y12848D02*
D03*
X-75129Y7707D02*
D03*
X-74564Y12000D02*
D03*
X81569Y-8555D02*
D03*
X81004Y-12848D02*
D03*
X75129Y-7707D02*
D03*
X74564Y-12000D02*
D03*
D53*
X-79755Y19128D02*
D03*
X-78634Y23312D02*
D03*
X-73480Y17447D02*
D03*
X-72359Y21630D02*
D03*
X79755Y-19128D02*
D03*
X78634Y-23312D02*
D03*
X73480Y-17447D02*
D03*
X72359Y-21630D02*
D03*
D54*
X-76576Y29375D02*
D03*
X-74919Y33376D02*
D03*
X-70574Y26889D02*
D03*
X-68917Y30890D02*
D03*
X76576Y-29375D02*
D03*
X74919Y-33376D02*
D03*
X70574Y-26889D02*
D03*
X68917Y-30890D02*
D03*
D55*
X-72087Y39119D02*
D03*
X-69921Y42869D02*
D03*
X-66461Y35871D02*
D03*
X-64295Y39621D02*
D03*
X72087Y-39119D02*
D03*
X69921Y-42869D02*
D03*
X66461Y-35871D02*
D03*
X64295Y-39621D02*
D03*
D56*
X-66364Y48193D02*
D03*
X-63727Y51629D02*
D03*
X-61210Y44239D02*
D03*
X-58574Y47675D02*
D03*
X66364Y-48193D02*
D03*
X63727Y-51629D02*
D03*
X61210Y-44239D02*
D03*
X58574Y-47675D02*
D03*
D57*
X-59505Y56443D02*
D03*
X-56443Y59505D02*
D03*
X-54912Y51850D02*
D03*
X-51850Y54912D02*
D03*
X59505Y-56443D02*
D03*
X56443Y-59505D02*
D03*
X54912Y-51850D02*
D03*
X51850Y-54912D02*
D03*
D58*
X-51629Y63727D02*
D03*
X-48193Y66364D02*
D03*
X-47675Y58574D02*
D03*
X-44239Y61210D02*
D03*
X51629Y-63727D02*
D03*
X48193Y-66364D02*
D03*
X47675Y-58574D02*
D03*
X44239Y-61210D02*
D03*
D59*
X-42869Y69921D02*
D03*
X-39119Y72087D02*
D03*
X-39621Y64295D02*
D03*
X-35871Y66461D02*
D03*
X42869Y-69921D02*
D03*
X39119Y-72087D02*
D03*
X39621Y-64295D02*
D03*
X35871Y-66461D02*
D03*
D60*
X-33376Y74919D02*
D03*
X-29375Y76576D02*
D03*
X-30890Y68917D02*
D03*
X-26889Y70574D02*
D03*
X33376Y-74919D02*
D03*
X29375Y-76576D02*
D03*
X30890Y-68917D02*
D03*
X26889Y-70574D02*
D03*
D61*
X0Y0D02*
D03*
D62*
X76772Y76772D02*
D03*
Y-76772D02*
D03*
X-76772D02*
D03*
Y76772D02*
D03*
M02*
