M48
;Layer_Color=9474304
;FILE_FORMAT=2:5
INCH,LZ
;TYPE=PLATED
T1F00S00C0.01200
T2F00S00C0.01500
T3F00S00C0.01575
%
T01
X-0037795Y-004252
X-0033071Y-0044882
X-0027953Y-0042913
X-0024409Y-003937
X-0024705Y-0050492
X-0025295Y-0052854
X-0027067Y-0051279
X-0026575Y-0048917
X-0028839Y-0049705
X-002313Y-0055413
X-0020768Y-0056791
X0Y-0055118
Y-0047244
Y-003937
X0003937Y-0043307
Y-0051181
X-0003937
Y-0043307
X-0007874Y-0047244
X0007874
X0015748
X0018701Y-0048228
X0019685Y-0045276
X0033465Y-004626
X0041339Y-0045669
X0038978Y-0033762
X0036285Y-003615
X0037795Y-0025591
X0052362Y-0024409
X0003252Y-0022605
X-0002471Y-0022704
X-0002756Y-003061
X0000197Y-0030709
X-0006004Y-003061
X-0017224Y-0025295
X-0022817Y-0027065
X0018406Y-0064862
X0019488Y-0067126
X0018209Y-0069193
X0021555Y-0068405
X0021626Y-0065847
X0032677Y-0063779
X003189Y-0080315
X-0070401Y-00246
X-0080315Y-0032677
X-0048228Y-0016732
X-0049213Y-0011811
Y-0005906
X-004465Y0001476
X-0045037Y0006143
X-0033465Y0005512
X-0037402Y0001575
X-0033858Y-0003937
X-0041676
X-0040276Y-0006937
X-003189Y-0009843
X-0029921Y-0015748
X-0017344Y-0014859
X-0020494Y-0010079
X-0022356Y-0004665
X-0022814Y0001041
X-0021839Y0006682
X-0019491Y0011903
X-0015918Y0016376
X-0011346Y001982
X-000606Y0022019
X-0000394Y0022835
X0005297Y0022215
X0010656Y00202
X0015344Y0016915
X0019069Y0012568
X0021595Y0007431
X0022765Y0001827
X0022504Y-0003892
X0020829Y-0009366
X0017845Y-0014252
X001374Y-0018242
X0008772Y-0021086
X-000804Y-0021376
X-0013103Y-0018705
X0026378Y-0019685
X003359Y-0015906
X0033465Y-0007874
X0035433Y0005512
X0038583Y0017717
X0031496
X0023622Y0023622
X0025591Y0033071
X0029134Y003189
X0015748Y0029528
X0012992Y004252
X0011811Y0046457
X0003937Y0047244
X-0002756
X-0007087Y0046021
X-0011243Y0043272
X-0013655Y0040309
X-0016535Y0032446
X-0011811Y0029528
X-0009449Y0033465
X-000315Y0039764
X0003937Y003937
X-0024016Y0038583
X-0025984Y0037402
X-0027165Y0044882
X-0029331Y0043898
X-003622Y003937
Y003622
X-0029528Y0024409
X-0022441Y0025984
X-0027559Y0014961
X-0031102Y0080709
X0080709Y0031102
X0052756Y-0007874
T02
X-0036911Y-0075479
X-003455Y-0064192
X-0025908Y-0068452
X-0026759Y-0079651
X-0016118Y-008246
X-0016433Y-0071605
X-000704Y-0073325
X0000787Y-0072638
X0004921Y-0072146
X0005774Y-0083822
X-0005217Y-0083858
X-0004331Y-0064669
X-0001031Y-0064324
X0000098Y-0061024
X-0013583Y-0056105
X-0016929Y-0056102
X-0016732Y-0041133
X0022071Y-0030363
X0024774Y-0032255
X0027534Y-0034064
X0030709Y-0035433
X0031398Y-005374
X0035138Y-0052658
X003448Y-0056267
X0034252Y-0059646
X0029429Y-006064
X0026576Y-0062477
X0029857Y-0066434
X0038071Y-0062035
X0038484Y-0051476
X0043996Y-0050984
X0045836Y-0056603
X0047599Y-0045328
X0050867Y-0038723
X0059073Y-0042605
X0064069Y-0034642
X006893Y-0026122
X0079651Y-0026743
X0075479Y-0036911
X0070015Y-0046447
X0063354Y-0055188
X0055608Y-0062985
X0046911Y-0069705
X0045225Y-0074001
X0037407Y-0075223
X0024089Y-0074137
X0027272Y-0079715
X0016665Y-0082351
X005292Y-0050044
X0054651Y-002955
X-0066434Y-0029857
X-0061901Y-0038381
X-0056282Y-004623
X-0050044Y-005292
X-0042605Y-0059073
X-0046447Y-0070015
X-0055188Y-0063354
X-0062985Y-0055608
X-0069705Y-0046911
X-0075232Y-0037411
X-0078809Y-0035855
X-0079471Y-0027272
X-0074759Y-0024344
X-0076008Y-0019114
X-0082224Y-0017314
X-0085541Y-0013217
X-0083822Y-0005774
X-0083858Y0005217
X-008246Y0016118
X-0070852Y0016879
X-0072462Y000736
X-0072806Y-0002034
X-0071711Y-0011506
X-0052434Y-0008122
X-0054394Y-0001924
X-0056194Y0006101
X-0056671Y0014069
X-0055909Y0022285
X-0054324Y0029865
X-005305Y0035523
X-0052168Y0044399
X-0058924Y0042811
X-0064069Y0034642
X-0068088Y0025864
X-0079651Y0026743
X-0075479Y0036911
X-0070015Y0046447
X-0063354Y0055188
X-0055608Y0062985
X-0046911Y0069705
X-0041874Y0057635
X-0042028Y0019291
X-0045079Y0018996
X-0043701Y0016535
X-0046457
X-0040945
X-0038976Y0018504
X-0039665Y0021161
X-0037008Y0020472
X-0038381Y0061901
X-0029857Y0066434
X-0024147Y0074316
X-0027272Y0079471
X-0016665Y0082351
X-0005774Y0083822
X0005217Y0083858
X0016118Y008246
X0016632Y007091
X000736Y0072462
X-0001017Y0072827
X-0013381Y0071543
X-0037411Y0075232
X-0004075Y0052757
X-0001152Y0054918
X0005333Y0056427
X0013508Y0056694
X0018898Y0057087
X003031Y0054233
X0034642Y0064069
X0025864Y0068088
X0026743Y0079651
X0036911Y0075479
X0046447Y0070015
X0042605Y0059073
X0040945Y0048819
X0045161Y0047757
X0049859Y0053094
X0056282Y004623
X0054037Y0040498
X0061004Y0038164
X0066434Y0029857
X0068292Y0024722
X0074512Y002421
X0079471Y0027272
X0082351Y0016665
X0077165Y0015354
X0071898Y0011645
X0072806Y0002034
X0072462Y-000736
X0070852Y-0016879
X008246Y-0016118
X0083858Y-0005217
X0083822Y0005774
X0054831Y0001376
X0056561Y-0004154
X0057126Y-0012738
X0056471Y-0021226
X0052458Y0008121
X0047213Y0014992
X0075061Y0037437
X0074001Y0045225
X0069705Y0046911
X0062985Y0055608
X0055188Y0063354
T03
X0072898Y-0083578
X0077684Y-0084465
X0082078Y-0082369
X0084401Y-0078091
X0083765Y-0073264
X0080414Y-0069733
X0075627Y-0068846
X0071234Y-0070942
X0068911Y-0075221
X0069547Y-0080047
X-0069733Y-0080414
X-0068846Y-0075627
X-0070942Y-0071234
X-0075221Y-0068911
X-0080047Y-0069547
X-0083578Y-0072898
X-0084465Y-0077684
X-0082369Y-0082078
X-0078091Y-0084401
X-0073264Y-0083765
X-0075627Y0068846
X-0080414Y0069733
X-0083765Y0073264
X-0084401Y0078091
X-0082078Y0082369
X-0077684Y0084465
X-0072898Y0083578
X-0069547Y0080047
X-0068911Y0075221
X-0071234Y0070942
X0070942Y0071234
X0068846Y0075627
X0069733Y0080414
X0073264Y0083765
X0078091Y0084401
X0082369Y0082078
X0084465Y0077684
X0083578Y0072898
X0080047Y0069547
X0075221Y0068911
M30
