G04*
G04 #@! TF.GenerationSoftware,Altium Limited,Altium Designer,20.1.11 (218)*
G04*
G04 Layer_Physical_Order=1*
G04 Layer_Color=255*
%FSLAX25Y25*%
%MOIN*%
G70*
G04*
G04 #@! TF.SameCoordinates,A89DC92D-1D16-4819-8E46-697129492B70*
G04*
G04*
G04 #@! TF.FilePolarity,Positive*
G04*
G01*
G75*
G04:AMPARAMS|DCode=13|XSize=33.47mil|YSize=31.5mil|CornerRadius=3.94mil|HoleSize=0mil|Usage=FLASHONLY|Rotation=285.000|XOffset=0mil|YOffset=0mil|HoleType=Round|Shape=RoundedRectangle|*
%AMROUNDEDRECTD13*
21,1,0.03347,0.02362,0,0,285.0*
21,1,0.02559,0.03150,0,0,285.0*
1,1,0.00787,-0.00810,-0.01542*
1,1,0.00787,-0.01472,0.00930*
1,1,0.00787,0.00810,0.01542*
1,1,0.00787,0.01472,-0.00930*
%
%ADD13ROUNDEDRECTD13*%
G04:AMPARAMS|DCode=14|XSize=33.47mil|YSize=31.5mil|CornerRadius=3.94mil|HoleSize=0mil|Usage=FLASHONLY|Rotation=277.500|XOffset=0mil|YOffset=0mil|HoleType=Round|Shape=RoundedRectangle|*
%AMROUNDEDRECTD14*
21,1,0.03347,0.02362,0,0,277.5*
21,1,0.02559,0.03150,0,0,277.5*
1,1,0.00787,-0.01004,-0.01423*
1,1,0.00787,-0.01338,0.01114*
1,1,0.00787,0.01004,0.01423*
1,1,0.00787,0.01338,-0.01114*
%
%ADD14ROUNDEDRECTD14*%
G04:AMPARAMS|DCode=15|XSize=33.47mil|YSize=31.5mil|CornerRadius=3.94mil|HoleSize=0mil|Usage=FLASHONLY|Rotation=270.000|XOffset=0mil|YOffset=0mil|HoleType=Round|Shape=RoundedRectangle|*
%AMROUNDEDRECTD15*
21,1,0.03347,0.02362,0,0,270.0*
21,1,0.02559,0.03150,0,0,270.0*
1,1,0.00787,-0.01181,-0.01280*
1,1,0.00787,-0.01181,0.01280*
1,1,0.00787,0.01181,0.01280*
1,1,0.00787,0.01181,-0.01280*
%
%ADD15ROUNDEDRECTD15*%
G04:AMPARAMS|DCode=16|XSize=33.47mil|YSize=31.5mil|CornerRadius=3.94mil|HoleSize=0mil|Usage=FLASHONLY|Rotation=262.500|XOffset=0mil|YOffset=0mil|HoleType=Round|Shape=RoundedRectangle|*
%AMROUNDEDRECTD16*
21,1,0.03347,0.02362,0,0,262.5*
21,1,0.02559,0.03150,0,0,262.5*
1,1,0.00787,-0.01338,-0.01114*
1,1,0.00787,-0.01004,0.01423*
1,1,0.00787,0.01338,0.01114*
1,1,0.00787,0.01004,-0.01423*
%
%ADD16ROUNDEDRECTD16*%
G04:AMPARAMS|DCode=17|XSize=33.47mil|YSize=31.5mil|CornerRadius=3.94mil|HoleSize=0mil|Usage=FLASHONLY|Rotation=255.000|XOffset=0mil|YOffset=0mil|HoleType=Round|Shape=RoundedRectangle|*
%AMROUNDEDRECTD17*
21,1,0.03347,0.02362,0,0,255.0*
21,1,0.02559,0.03150,0,0,255.0*
1,1,0.00787,-0.01472,-0.00930*
1,1,0.00787,-0.00810,0.01542*
1,1,0.00787,0.01472,0.00930*
1,1,0.00787,0.00810,-0.01542*
%
%ADD17ROUNDEDRECTD17*%
G04:AMPARAMS|DCode=18|XSize=33.47mil|YSize=31.5mil|CornerRadius=3.94mil|HoleSize=0mil|Usage=FLASHONLY|Rotation=247.500|XOffset=0mil|YOffset=0mil|HoleType=Round|Shape=RoundedRectangle|*
%AMROUNDEDRECTD18*
21,1,0.03347,0.02362,0,0,247.5*
21,1,0.02559,0.03150,0,0,247.5*
1,1,0.00787,-0.01581,-0.00730*
1,1,0.00787,-0.00602,0.01634*
1,1,0.00787,0.01581,0.00730*
1,1,0.00787,0.00602,-0.01634*
%
%ADD18ROUNDEDRECTD18*%
G04:AMPARAMS|DCode=19|XSize=33.47mil|YSize=31.5mil|CornerRadius=3.94mil|HoleSize=0mil|Usage=FLASHONLY|Rotation=240.000|XOffset=0mil|YOffset=0mil|HoleType=Round|Shape=RoundedRectangle|*
%AMROUNDEDRECTD19*
21,1,0.03347,0.02362,0,0,240.0*
21,1,0.02559,0.03150,0,0,240.0*
1,1,0.00787,-0.01663,-0.00518*
1,1,0.00787,-0.00383,0.01699*
1,1,0.00787,0.01663,0.00518*
1,1,0.00787,0.00383,-0.01699*
%
%ADD19ROUNDEDRECTD19*%
G04:AMPARAMS|DCode=20|XSize=33.47mil|YSize=31.5mil|CornerRadius=3.94mil|HoleSize=0mil|Usage=FLASHONLY|Rotation=232.500|XOffset=0mil|YOffset=0mil|HoleType=Round|Shape=RoundedRectangle|*
%AMROUNDEDRECTD20*
21,1,0.03347,0.02362,0,0,232.5*
21,1,0.02559,0.03150,0,0,232.5*
1,1,0.00787,-0.01716,-0.00296*
1,1,0.00787,-0.00158,0.01734*
1,1,0.00787,0.01716,0.00296*
1,1,0.00787,0.00158,-0.01734*
%
%ADD20ROUNDEDRECTD20*%
G04:AMPARAMS|DCode=21|XSize=33.47mil|YSize=31.5mil|CornerRadius=3.94mil|HoleSize=0mil|Usage=FLASHONLY|Rotation=225.000|XOffset=0mil|YOffset=0mil|HoleType=Round|Shape=RoundedRectangle|*
%AMROUNDEDRECTD21*
21,1,0.03347,0.02362,0,0,225.0*
21,1,0.02559,0.03150,0,0,225.0*
1,1,0.00787,-0.01740,-0.00070*
1,1,0.00787,0.00070,0.01740*
1,1,0.00787,0.01740,0.00070*
1,1,0.00787,-0.00070,-0.01740*
%
%ADD21ROUNDEDRECTD21*%
G04:AMPARAMS|DCode=22|XSize=33.47mil|YSize=31.5mil|CornerRadius=3.94mil|HoleSize=0mil|Usage=FLASHONLY|Rotation=217.500|XOffset=0mil|YOffset=0mil|HoleType=Round|Shape=RoundedRectangle|*
%AMROUNDEDRECTD22*
21,1,0.03347,0.02362,0,0,217.5*
21,1,0.02559,0.03150,0,0,217.5*
1,1,0.00787,-0.01734,0.00158*
1,1,0.00787,0.00296,0.01716*
1,1,0.00787,0.01734,-0.00158*
1,1,0.00787,-0.00296,-0.01716*
%
%ADD22ROUNDEDRECTD22*%
G04:AMPARAMS|DCode=23|XSize=33.47mil|YSize=31.5mil|CornerRadius=3.94mil|HoleSize=0mil|Usage=FLASHONLY|Rotation=210.000|XOffset=0mil|YOffset=0mil|HoleType=Round|Shape=RoundedRectangle|*
%AMROUNDEDRECTD23*
21,1,0.03347,0.02362,0,0,210.0*
21,1,0.02559,0.03150,0,0,210.0*
1,1,0.00787,-0.01699,0.00383*
1,1,0.00787,0.00518,0.01663*
1,1,0.00787,0.01699,-0.00383*
1,1,0.00787,-0.00518,-0.01663*
%
%ADD23ROUNDEDRECTD23*%
G04:AMPARAMS|DCode=24|XSize=33.47mil|YSize=31.5mil|CornerRadius=3.94mil|HoleSize=0mil|Usage=FLASHONLY|Rotation=202.500|XOffset=0mil|YOffset=0mil|HoleType=Round|Shape=RoundedRectangle|*
%AMROUNDEDRECTD24*
21,1,0.03347,0.02362,0,0,202.5*
21,1,0.02559,0.03150,0,0,202.5*
1,1,0.00787,-0.01634,0.00602*
1,1,0.00787,0.00730,0.01581*
1,1,0.00787,0.01634,-0.00602*
1,1,0.00787,-0.00730,-0.01581*
%
%ADD24ROUNDEDRECTD24*%
G04:AMPARAMS|DCode=25|XSize=33.47mil|YSize=31.5mil|CornerRadius=3.94mil|HoleSize=0mil|Usage=FLASHONLY|Rotation=195.000|XOffset=0mil|YOffset=0mil|HoleType=Round|Shape=RoundedRectangle|*
%AMROUNDEDRECTD25*
21,1,0.03347,0.02362,0,0,195.0*
21,1,0.02559,0.03150,0,0,195.0*
1,1,0.00787,-0.01542,0.00810*
1,1,0.00787,0.00930,0.01472*
1,1,0.00787,0.01542,-0.00810*
1,1,0.00787,-0.00930,-0.01472*
%
%ADD25ROUNDEDRECTD25*%
G04:AMPARAMS|DCode=26|XSize=33.47mil|YSize=31.5mil|CornerRadius=3.94mil|HoleSize=0mil|Usage=FLASHONLY|Rotation=187.500|XOffset=0mil|YOffset=0mil|HoleType=Round|Shape=RoundedRectangle|*
%AMROUNDEDRECTD26*
21,1,0.03347,0.02362,0,0,187.5*
21,1,0.02559,0.03150,0,0,187.5*
1,1,0.00787,-0.01423,0.01004*
1,1,0.00787,0.01114,0.01338*
1,1,0.00787,0.01423,-0.01004*
1,1,0.00787,-0.01114,-0.01338*
%
%ADD26ROUNDEDRECTD26*%
G04:AMPARAMS|DCode=27|XSize=33.47mil|YSize=31.5mil|CornerRadius=3.94mil|HoleSize=0mil|Usage=FLASHONLY|Rotation=180.000|XOffset=0mil|YOffset=0mil|HoleType=Round|Shape=RoundedRectangle|*
%AMROUNDEDRECTD27*
21,1,0.03347,0.02362,0,0,180.0*
21,1,0.02559,0.03150,0,0,180.0*
1,1,0.00787,-0.01280,0.01181*
1,1,0.00787,0.01280,0.01181*
1,1,0.00787,0.01280,-0.01181*
1,1,0.00787,-0.01280,-0.01181*
%
%ADD27ROUNDEDRECTD27*%
G04:AMPARAMS|DCode=28|XSize=33.47mil|YSize=31.5mil|CornerRadius=3.94mil|HoleSize=0mil|Usage=FLASHONLY|Rotation=172.500|XOffset=0mil|YOffset=0mil|HoleType=Round|Shape=RoundedRectangle|*
%AMROUNDEDRECTD28*
21,1,0.03347,0.02362,0,0,172.5*
21,1,0.02559,0.03150,0,0,172.5*
1,1,0.00787,-0.01114,0.01338*
1,1,0.00787,0.01423,0.01004*
1,1,0.00787,0.01114,-0.01338*
1,1,0.00787,-0.01423,-0.01004*
%
%ADD28ROUNDEDRECTD28*%
G04:AMPARAMS|DCode=29|XSize=33.47mil|YSize=31.5mil|CornerRadius=3.94mil|HoleSize=0mil|Usage=FLASHONLY|Rotation=165.000|XOffset=0mil|YOffset=0mil|HoleType=Round|Shape=RoundedRectangle|*
%AMROUNDEDRECTD29*
21,1,0.03347,0.02362,0,0,165.0*
21,1,0.02559,0.03150,0,0,165.0*
1,1,0.00787,-0.00930,0.01472*
1,1,0.00787,0.01542,0.00810*
1,1,0.00787,0.00930,-0.01472*
1,1,0.00787,-0.01542,-0.00810*
%
%ADD29ROUNDEDRECTD29*%
G04:AMPARAMS|DCode=30|XSize=33.47mil|YSize=31.5mil|CornerRadius=3.94mil|HoleSize=0mil|Usage=FLASHONLY|Rotation=157.500|XOffset=0mil|YOffset=0mil|HoleType=Round|Shape=RoundedRectangle|*
%AMROUNDEDRECTD30*
21,1,0.03347,0.02362,0,0,157.5*
21,1,0.02559,0.03150,0,0,157.5*
1,1,0.00787,-0.00730,0.01581*
1,1,0.00787,0.01634,0.00602*
1,1,0.00787,0.00730,-0.01581*
1,1,0.00787,-0.01634,-0.00602*
%
%ADD30ROUNDEDRECTD30*%
G04:AMPARAMS|DCode=31|XSize=33.47mil|YSize=31.5mil|CornerRadius=3.94mil|HoleSize=0mil|Usage=FLASHONLY|Rotation=150.000|XOffset=0mil|YOffset=0mil|HoleType=Round|Shape=RoundedRectangle|*
%AMROUNDEDRECTD31*
21,1,0.03347,0.02362,0,0,150.0*
21,1,0.02559,0.03150,0,0,150.0*
1,1,0.00787,-0.00518,0.01663*
1,1,0.00787,0.01699,0.00383*
1,1,0.00787,0.00518,-0.01663*
1,1,0.00787,-0.01699,-0.00383*
%
%ADD31ROUNDEDRECTD31*%
G04:AMPARAMS|DCode=32|XSize=33.47mil|YSize=31.5mil|CornerRadius=3.94mil|HoleSize=0mil|Usage=FLASHONLY|Rotation=142.500|XOffset=0mil|YOffset=0mil|HoleType=Round|Shape=RoundedRectangle|*
%AMROUNDEDRECTD32*
21,1,0.03347,0.02362,0,0,142.5*
21,1,0.02559,0.03150,0,0,142.5*
1,1,0.00787,-0.00296,0.01716*
1,1,0.00787,0.01734,0.00158*
1,1,0.00787,0.00296,-0.01716*
1,1,0.00787,-0.01734,-0.00158*
%
%ADD32ROUNDEDRECTD32*%
G04:AMPARAMS|DCode=33|XSize=33.47mil|YSize=31.5mil|CornerRadius=3.94mil|HoleSize=0mil|Usage=FLASHONLY|Rotation=135.000|XOffset=0mil|YOffset=0mil|HoleType=Round|Shape=RoundedRectangle|*
%AMROUNDEDRECTD33*
21,1,0.03347,0.02362,0,0,135.0*
21,1,0.02559,0.03150,0,0,135.0*
1,1,0.00787,-0.00070,0.01740*
1,1,0.00787,0.01740,-0.00070*
1,1,0.00787,0.00070,-0.01740*
1,1,0.00787,-0.01740,0.00070*
%
%ADD33ROUNDEDRECTD33*%
G04:AMPARAMS|DCode=34|XSize=33.47mil|YSize=31.5mil|CornerRadius=3.94mil|HoleSize=0mil|Usage=FLASHONLY|Rotation=127.500|XOffset=0mil|YOffset=0mil|HoleType=Round|Shape=RoundedRectangle|*
%AMROUNDEDRECTD34*
21,1,0.03347,0.02362,0,0,127.5*
21,1,0.02559,0.03150,0,0,127.5*
1,1,0.00787,0.00158,0.01734*
1,1,0.00787,0.01716,-0.00296*
1,1,0.00787,-0.00158,-0.01734*
1,1,0.00787,-0.01716,0.00296*
%
%ADD34ROUNDEDRECTD34*%
G04:AMPARAMS|DCode=35|XSize=33.47mil|YSize=31.5mil|CornerRadius=3.94mil|HoleSize=0mil|Usage=FLASHONLY|Rotation=120.000|XOffset=0mil|YOffset=0mil|HoleType=Round|Shape=RoundedRectangle|*
%AMROUNDEDRECTD35*
21,1,0.03347,0.02362,0,0,120.0*
21,1,0.02559,0.03150,0,0,120.0*
1,1,0.00787,0.00383,0.01699*
1,1,0.00787,0.01663,-0.00518*
1,1,0.00787,-0.00383,-0.01699*
1,1,0.00787,-0.01663,0.00518*
%
%ADD35ROUNDEDRECTD35*%
G04:AMPARAMS|DCode=36|XSize=33.47mil|YSize=31.5mil|CornerRadius=3.94mil|HoleSize=0mil|Usage=FLASHONLY|Rotation=112.500|XOffset=0mil|YOffset=0mil|HoleType=Round|Shape=RoundedRectangle|*
%AMROUNDEDRECTD36*
21,1,0.03347,0.02362,0,0,112.5*
21,1,0.02559,0.03150,0,0,112.5*
1,1,0.00787,0.00602,0.01634*
1,1,0.00787,0.01581,-0.00730*
1,1,0.00787,-0.00602,-0.01634*
1,1,0.00787,-0.01581,0.00730*
%
%ADD36ROUNDEDRECTD36*%
%ADD63C,0.01200*%
%ADD64C,0.01500*%
%ADD65C,0.01181*%
%ADD66C,0.55118*%
%ADD67C,0.19685*%
%ADD68C,0.02700*%
%ADD69C,0.02400*%
%ADD70C,0.02559*%
G36*
X-23513Y84123D02*
X-23602Y84007D01*
X-23629Y83940D01*
X-23664Y83896D01*
X-24787Y81736D01*
X-24827Y81598D01*
X-25011Y81154D01*
X-25063Y80756D01*
X-25688Y80611D01*
X-25866Y80877D01*
X-26511Y81308D01*
X-27272Y81459D01*
X-28033Y81308D01*
X-28678Y80877D01*
X-29109Y80232D01*
X-29260Y79471D01*
X-29193Y79133D01*
X-31344Y78242D01*
X-31672Y78022D01*
X-31892Y77694D01*
X-32387Y77489D01*
X-32774Y77566D01*
X-32967Y77528D01*
X-32984Y77568D01*
X-33119Y77772D01*
X-33248Y77979D01*
X-33268Y77994D01*
X-33282Y78015D01*
X-33485Y78151D01*
X-33684Y78294D01*
X-36230Y79456D01*
X-36229Y80115D01*
X-33666Y81277D01*
X-28278Y83305D01*
X-23871Y84641D01*
X-23513Y84123D01*
D02*
G37*
G36*
X-4662Y77440D02*
X-4331Y76916D01*
X-4360Y76772D01*
Y74213D01*
X-4282Y73825D01*
X-4063Y73496D01*
X-3734Y73277D01*
X-3535Y73237D01*
X-3005Y72827D01*
X-2854Y72067D01*
X-2423Y71421D01*
X-1778Y70991D01*
X-1017Y70839D01*
X-256Y70991D01*
X389Y71421D01*
X820Y72067D01*
X971Y72827D01*
X1509Y73199D01*
X3347D01*
X3734Y73277D01*
X4063Y73496D01*
X4282Y73825D01*
X4360Y74213D01*
Y76772D01*
X4357Y76783D01*
X4776Y77323D01*
X5370Y77313D01*
X5638Y76972D01*
X5710Y76719D01*
X5698Y76684D01*
X5364Y74147D01*
X5390Y73752D01*
X5565Y73398D01*
X5613Y73356D01*
X5523Y73223D01*
X5372Y72462D01*
X5523Y71701D01*
X5954Y71056D01*
X6600Y70625D01*
X7360Y70473D01*
X8121Y70625D01*
X8766Y71056D01*
X9197Y71701D01*
X9349Y72462D01*
X9838Y72795D01*
X9893Y72803D01*
X10156Y72572D01*
X10530Y72445D01*
X12872Y72136D01*
X13267Y72162D01*
X13621Y72337D01*
X13882Y72634D01*
X14009Y73009D01*
X14343Y75543D01*
X14343Y75546D01*
X14813Y75995D01*
X15407Y75883D01*
X15669Y75304D01*
X15659Y75284D01*
X14997Y72812D01*
X14971Y72418D01*
X15080Y72097D01*
X14795Y71671D01*
X14644Y70910D01*
X14795Y70149D01*
X15226Y69504D01*
X15871Y69073D01*
X16632Y68922D01*
X17393Y69073D01*
X18038Y69504D01*
X18469Y70149D01*
X18620Y70910D01*
X19190Y70935D01*
X19281Y70922D01*
X19542Y70625D01*
X19896Y70451D01*
X22178Y69839D01*
X22572Y69813D01*
X22947Y69940D01*
X23244Y70201D01*
X23419Y70556D01*
X24080Y73022D01*
X24081Y73027D01*
X24590Y73389D01*
X25172Y73193D01*
X25353Y72598D01*
X25352Y72596D01*
X24372Y70232D01*
X24295Y69844D01*
X24372Y69456D01*
X24403Y69411D01*
X24027Y68848D01*
X23876Y68088D01*
X24027Y67327D01*
X24458Y66682D01*
X25103Y66251D01*
X25864Y66099D01*
X26625Y66251D01*
X27270Y66682D01*
X27701Y67327D01*
X27778Y67715D01*
X28237Y67780D01*
X28399Y67761D01*
X28593Y67470D01*
X28922Y67251D01*
X31104Y66347D01*
X31492Y66270D01*
X31879Y66347D01*
X32208Y66566D01*
X32428Y66895D01*
X33407Y69259D01*
X33408Y69262D01*
X33956Y69554D01*
X34506Y69282D01*
X34610Y68666D01*
X34608Y68661D01*
X33331Y66450D01*
X33204Y66075D01*
X33230Y65681D01*
X33308Y65522D01*
X33236Y65475D01*
X32805Y64830D01*
X32654Y64069D01*
X32805Y63308D01*
X33236Y62663D01*
X33881Y62232D01*
X34642Y62081D01*
X35403Y62232D01*
X36048Y62663D01*
X36442Y63253D01*
X36722Y63303D01*
X37088Y63296D01*
X37155Y63161D01*
X37452Y62900D01*
X39498Y61719D01*
X39872Y61592D01*
X40267Y61618D01*
X40621Y61793D01*
X40882Y62090D01*
X42161Y64306D01*
X42169Y64328D01*
X42763Y64552D01*
X43262Y64211D01*
X43277Y63561D01*
X43275Y63559D01*
X41719Y61531D01*
X41544Y61176D01*
X41518Y60782D01*
X41543Y60709D01*
X41199Y60479D01*
X40768Y59834D01*
X40617Y59073D01*
X40768Y58313D01*
X41199Y57668D01*
X41844Y57237D01*
X42605Y57085D01*
X43366Y57237D01*
X44011Y57668D01*
X44356Y58184D01*
X44791Y58156D01*
X44928Y58119D01*
X44969Y58103D01*
X45081Y57771D01*
X45342Y57474D01*
X47216Y56036D01*
X47570Y55861D01*
X47965Y55835D01*
X48339Y55962D01*
X48636Y56223D01*
X50194Y58253D01*
X50211Y58286D01*
X50441Y58414D01*
X50871Y58466D01*
X51299Y58053D01*
X51213Y57375D01*
X51203Y57368D01*
X49393Y55559D01*
X49174Y55230D01*
X49115Y54934D01*
X49098Y54931D01*
X48453Y54500D01*
X48022Y53855D01*
X47870Y53094D01*
X48022Y52333D01*
X48453Y51688D01*
X49098Y51257D01*
X49859Y51106D01*
X50620Y51257D01*
X51265Y51688D01*
X51333Y51790D01*
X52092Y51847D01*
X52159Y51780D01*
X52236Y51393D01*
X52456Y51064D01*
X54126Y49393D01*
X54455Y49174D01*
X54843Y49097D01*
X55230Y49174D01*
X55559Y49393D01*
X57368Y51203D01*
X57375Y51213D01*
X58053Y51299D01*
X58466Y50871D01*
X58414Y50441D01*
X58286Y50211D01*
X58253Y50194D01*
X56223Y48636D01*
X55962Y48339D01*
X55895Y48142D01*
X55521Y48067D01*
X54876Y47636D01*
X54445Y46991D01*
X54294Y46230D01*
X54445Y45469D01*
X54876Y44824D01*
X55521Y44393D01*
X56282Y44242D01*
X57042Y44393D01*
X57687Y44824D01*
X58316Y44685D01*
X58472Y44529D01*
X58497Y44135D01*
X58672Y43780D01*
X60110Y41906D01*
X60407Y41645D01*
X60782Y41518D01*
X61176Y41544D01*
X61531Y41719D01*
X63559Y43275D01*
X63561Y43277D01*
X64211Y43262D01*
X64552Y42763D01*
X64328Y42169D01*
X64306Y42161D01*
X62090Y40882D01*
X61793Y40621D01*
X61618Y40267D01*
X61374Y40079D01*
X61004Y40152D01*
X60243Y40001D01*
X59598Y39570D01*
X59167Y38925D01*
X59016Y38164D01*
X59167Y37403D01*
X59598Y36758D01*
X60243Y36327D01*
X61004Y36176D01*
X61765Y36327D01*
X62410Y36758D01*
X62540Y36953D01*
X63161Y37155D01*
X63516Y36980D01*
X63773Y36362D01*
X63758Y36122D01*
X63885Y35747D01*
X65066Y33702D01*
X65326Y33404D01*
X65681Y33230D01*
X66075Y33204D01*
X66450Y33331D01*
X68666Y34610D01*
X68679Y34622D01*
X69365Y34531D01*
X69657Y34017D01*
X69564Y33750D01*
X69302Y33415D01*
X69259Y33407D01*
X66895Y32428D01*
X66566Y32208D01*
X66347Y31879D01*
X66336Y31825D01*
X65673Y31693D01*
X65028Y31262D01*
X64597Y30617D01*
X64446Y29857D01*
X64597Y29096D01*
X65028Y28451D01*
X65673Y28020D01*
X66434Y27868D01*
X67195Y28020D01*
X67524Y28240D01*
X67895Y27961D01*
X67995Y27833D01*
X67927Y27491D01*
X67973Y27258D01*
X67715Y26595D01*
X67531Y26559D01*
X66886Y26128D01*
X66455Y25483D01*
X66303Y24722D01*
X66455Y23961D01*
X66886Y23316D01*
X67531Y22885D01*
X68292Y22734D01*
X69052Y22885D01*
X69354Y23086D01*
X69857Y22701D01*
X69813Y22572D01*
X69839Y22178D01*
X70451Y19896D01*
X70625Y19542D01*
X70922Y19281D01*
X71012Y18617D01*
X70934Y18389D01*
X70960Y17995D01*
X71571Y15713D01*
X71746Y15358D01*
X72043Y15098D01*
X72418Y14971D01*
X72812Y14997D01*
X74638Y15486D01*
X75242Y15026D01*
X75265Y14911D01*
X74887Y14256D01*
X73009Y14009D01*
X72634Y13882D01*
X72337Y13621D01*
X72303Y13552D01*
X71898Y13633D01*
X71137Y13482D01*
X70492Y13051D01*
X70061Y12406D01*
X69909Y11645D01*
X70061Y10884D01*
X70492Y10239D01*
X71137Y9808D01*
X71898Y9657D01*
X72387Y9754D01*
X72834Y9330D01*
X72834Y9189D01*
X72728Y8973D01*
X72702Y8579D01*
X73010Y6237D01*
X73137Y5862D01*
X73398Y5565D01*
X73752Y5390D01*
X74147Y5364D01*
X76684Y5698D01*
X76719Y5710D01*
X76972Y5638D01*
X77313Y5370D01*
X77323Y4776D01*
X76783Y4357D01*
X76772Y4360D01*
X74213D01*
X73825Y4282D01*
X73496Y4063D01*
X73391Y3906D01*
X72806Y4022D01*
X72045Y3870D01*
X71400Y3440D01*
X70969Y2795D01*
X70818Y2034D01*
X70969Y1273D01*
X71400Y628D01*
X72045Y197D01*
X72806Y46D01*
X73036Y91D01*
X73372Y-454D01*
X73277Y-597D01*
X73199Y-984D01*
Y-3347D01*
X73277Y-3734D01*
X73496Y-4063D01*
X73825Y-4282D01*
X74213Y-4360D01*
X76772D01*
X76783Y-4357D01*
X77323Y-4776D01*
X77313Y-5370D01*
X76972Y-5638D01*
X76719Y-5710D01*
X76684Y-5698D01*
X74147Y-5364D01*
X73752Y-5390D01*
X73398Y-5565D01*
X73356Y-5613D01*
X73223Y-5523D01*
X72462Y-5372D01*
X71701Y-5523D01*
X71056Y-5954D01*
X70625Y-6600D01*
X70473Y-7360D01*
X70625Y-8121D01*
X71056Y-8766D01*
X71701Y-9197D01*
X72462Y-9349D01*
X72795Y-9838D01*
X72803Y-9893D01*
X72572Y-10156D01*
X72445Y-10530D01*
X72136Y-12872D01*
X72162Y-13267D01*
X72337Y-13621D01*
X72634Y-13882D01*
X73009Y-14009D01*
X75543Y-14343D01*
X75546Y-14343D01*
X75995Y-14813D01*
X75883Y-15407D01*
X75304Y-15669D01*
X75284Y-15659D01*
X72812Y-14997D01*
X72418Y-14971D01*
X72043Y-15098D01*
X71893Y-15230D01*
X71613Y-15042D01*
X70852Y-14891D01*
X70091Y-15042D01*
X69446Y-15473D01*
X69015Y-16118D01*
X68863Y-16879D01*
X69015Y-17640D01*
X69446Y-18285D01*
X70091Y-18716D01*
X70577Y-18813D01*
X70725Y-19454D01*
X70625Y-19542D01*
X70451Y-19896D01*
X69839Y-22178D01*
X69813Y-22572D01*
X69940Y-22947D01*
X70201Y-23244D01*
X70556Y-23419D01*
X73022Y-24080D01*
X73027Y-24081D01*
X73389Y-24590D01*
X73193Y-25172D01*
X72598Y-25353D01*
X72596Y-25352D01*
X70232Y-24372D01*
X69844Y-24295D01*
X69738Y-24316D01*
X69691Y-24285D01*
X68930Y-24134D01*
X68169Y-24285D01*
X67524Y-24716D01*
X67093Y-25361D01*
X66942Y-26122D01*
X67093Y-26883D01*
X67524Y-27528D01*
X67857Y-27750D01*
X67810Y-28346D01*
X67799Y-28373D01*
X67470Y-28593D01*
X67251Y-28922D01*
X66347Y-31104D01*
X66270Y-31492D01*
X66347Y-31879D01*
X66566Y-32208D01*
X66895Y-32428D01*
X69259Y-33407D01*
X69262Y-33408D01*
X69554Y-33956D01*
X69282Y-34506D01*
X68666Y-34610D01*
X68661Y-34608D01*
X66450Y-33331D01*
X66075Y-33204D01*
X65681Y-33230D01*
X65522Y-33308D01*
X65475Y-33236D01*
X64830Y-32805D01*
X64069Y-32654D01*
X63308Y-32805D01*
X62663Y-33236D01*
X62232Y-33881D01*
X62081Y-34642D01*
X62232Y-35403D01*
X62663Y-36048D01*
X63253Y-36442D01*
X63303Y-36722D01*
X63296Y-37088D01*
X63161Y-37155D01*
X62900Y-37452D01*
X61719Y-39498D01*
X61592Y-39872D01*
X61618Y-40267D01*
X61793Y-40621D01*
X62090Y-40882D01*
X64306Y-42161D01*
X64328Y-42169D01*
X64552Y-42763D01*
X64211Y-43262D01*
X63561Y-43277D01*
X63559Y-43275D01*
X61531Y-41719D01*
X61176Y-41544D01*
X60782Y-41518D01*
X60709Y-41543D01*
X60479Y-41199D01*
X59834Y-40768D01*
X59073Y-40617D01*
X58313Y-40768D01*
X57668Y-41199D01*
X57237Y-41844D01*
X57085Y-42605D01*
X57237Y-43366D01*
X57668Y-44011D01*
X58184Y-44356D01*
X58156Y-44791D01*
X58119Y-44928D01*
X58103Y-44969D01*
X57771Y-45081D01*
X57474Y-45342D01*
X56036Y-47216D01*
X55861Y-47570D01*
X55835Y-47965D01*
X55962Y-48339D01*
X56223Y-48636D01*
X58253Y-50194D01*
X58286Y-50211D01*
X58414Y-50441D01*
X58466Y-50871D01*
X58053Y-51299D01*
X57375Y-51213D01*
X57368Y-51203D01*
X55559Y-49393D01*
X55230Y-49174D01*
X54843Y-49097D01*
X54657Y-49134D01*
X54326Y-48638D01*
X53681Y-48207D01*
X52920Y-48055D01*
X52159Y-48207D01*
X51514Y-48638D01*
X51083Y-49283D01*
X50932Y-50044D01*
X51083Y-50805D01*
X51514Y-51450D01*
X51708Y-51579D01*
X51561Y-52203D01*
X51393Y-52236D01*
X51064Y-52456D01*
X49393Y-54126D01*
X49174Y-54455D01*
X49097Y-54843D01*
X49174Y-55230D01*
X49393Y-55559D01*
X51203Y-57368D01*
X51213Y-57375D01*
X51299Y-58053D01*
X50871Y-58466D01*
X50441Y-58414D01*
X50211Y-58286D01*
X50194Y-58253D01*
X48636Y-56223D01*
X48339Y-55962D01*
X47965Y-55835D01*
X47675Y-55854D01*
X47673Y-55842D01*
X47242Y-55197D01*
X46597Y-54766D01*
X45836Y-54615D01*
X45075Y-54766D01*
X44430Y-55197D01*
X43999Y-55842D01*
X43848Y-56603D01*
X43999Y-57364D01*
X44346Y-57882D01*
X44186Y-58412D01*
X44135Y-58497D01*
X43780Y-58672D01*
X41906Y-60110D01*
X41645Y-60407D01*
X41518Y-60782D01*
X41544Y-61176D01*
X41719Y-61531D01*
X43275Y-63559D01*
X43277Y-63561D01*
X43262Y-64211D01*
X42763Y-64552D01*
X42169Y-64328D01*
X42161Y-64306D01*
X40882Y-62090D01*
X40621Y-61793D01*
X40267Y-61618D01*
X39973Y-61599D01*
X39908Y-61274D01*
X39477Y-60629D01*
X38832Y-60198D01*
X38071Y-60047D01*
X37310Y-60198D01*
X36665Y-60629D01*
X36234Y-61274D01*
X36083Y-62035D01*
X36234Y-62796D01*
X36491Y-63181D01*
X36157Y-63760D01*
X36122Y-63758D01*
X35747Y-63885D01*
X33702Y-65066D01*
X33404Y-65326D01*
X33230Y-65681D01*
X33204Y-66075D01*
X33331Y-66450D01*
X34610Y-68666D01*
X34622Y-68679D01*
X34531Y-69365D01*
X34017Y-69657D01*
X33750Y-69564D01*
X33415Y-69302D01*
X33407Y-69259D01*
X32428Y-66895D01*
X32208Y-66566D01*
X31879Y-66347D01*
X31825Y-66336D01*
X31693Y-65673D01*
X31262Y-65028D01*
X30617Y-64597D01*
X29857Y-64446D01*
X29096Y-64597D01*
X28451Y-65028D01*
X28020Y-65673D01*
X27868Y-66434D01*
X28020Y-67195D01*
X28240Y-67524D01*
X27961Y-67895D01*
X27868Y-67967D01*
X27255Y-67893D01*
X27163Y-67755D01*
X25250Y-65842D01*
Y-64626D01*
X25745Y-64319D01*
X25850Y-64320D01*
X26576Y-64465D01*
X27337Y-64314D01*
X27982Y-63883D01*
X28413Y-63238D01*
X28460Y-63001D01*
X28662Y-62493D01*
X29112Y-62565D01*
X29429Y-62628D01*
X30190Y-62477D01*
X30835Y-62046D01*
X31266Y-61401D01*
X31417Y-60640D01*
X31266Y-59879D01*
X30835Y-59234D01*
X30190Y-58803D01*
X29429Y-58652D01*
X28668Y-58803D01*
X28023Y-59234D01*
X27592Y-59879D01*
X27545Y-60116D01*
X27343Y-60624D01*
X26893Y-60552D01*
X26576Y-60489D01*
X25850Y-60633D01*
X25745Y-60635D01*
X25250Y-60327D01*
Y-59650D01*
X29775Y-55125D01*
X29992Y-55146D01*
X30637Y-55577D01*
X31398Y-55728D01*
X32011Y-55606D01*
X32403Y-55881D01*
X32536Y-56047D01*
X32492Y-56267D01*
X32643Y-57028D01*
X32932Y-57461D01*
X32887Y-58177D01*
X32845Y-58242D01*
X32415Y-58885D01*
X32264Y-59646D01*
X32415Y-60407D01*
X32846Y-61051D01*
X33491Y-61483D01*
X34252Y-61634D01*
X35013Y-61483D01*
X35658Y-61051D01*
X36089Y-60407D01*
X36240Y-59646D01*
X36089Y-58885D01*
X35800Y-58452D01*
X35844Y-57736D01*
X35887Y-57671D01*
X36317Y-57028D01*
X36468Y-56267D01*
X36317Y-55507D01*
X36028Y-55075D01*
X35951Y-54731D01*
X36157Y-54321D01*
X36544Y-54063D01*
X36921Y-53499D01*
X37139Y-53346D01*
X37530Y-53184D01*
X37723Y-53313D01*
X38484Y-53465D01*
X39245Y-53313D01*
X39890Y-52882D01*
X40321Y-52237D01*
X40472Y-51476D01*
X40321Y-50716D01*
X39890Y-50071D01*
X39245Y-49639D01*
X38484Y-49488D01*
X37723Y-49639D01*
X37078Y-50071D01*
X36701Y-50635D01*
X36483Y-50788D01*
X36092Y-50950D01*
X35899Y-50821D01*
X35138Y-50669D01*
X34377Y-50821D01*
X33732Y-51252D01*
X33301Y-51897D01*
X33283Y-51988D01*
X33176Y-52065D01*
X32626Y-52215D01*
X32158Y-51903D01*
X31398Y-51752D01*
X30637Y-51903D01*
X29992Y-52334D01*
X29870Y-52517D01*
X29429D01*
X28961Y-52610D01*
X28564Y-52875D01*
X23161Y-58278D01*
X22896Y-58675D01*
X22803Y-59143D01*
Y-63801D01*
X22203Y-64126D01*
X21626Y-64011D01*
X20924Y-64151D01*
X20736Y-64276D01*
X20101Y-64160D01*
X19703Y-63564D01*
X19108Y-63167D01*
X18406Y-63027D01*
X17703Y-63167D01*
X17108Y-63564D01*
X16710Y-64160D01*
X16570Y-64862D01*
X16710Y-65565D01*
X17108Y-66160D01*
X17703Y-66558D01*
X17764Y-66570D01*
X17653Y-67126D01*
X17718Y-67455D01*
X17506Y-67497D01*
X16911Y-67895D01*
X16513Y-68491D01*
X16373Y-69193D01*
X16513Y-69895D01*
X16911Y-70491D01*
X17059Y-70590D01*
X16952Y-71239D01*
X15713Y-71571D01*
X15358Y-71746D01*
X15098Y-72043D01*
X14971Y-72418D01*
X14997Y-72812D01*
X15659Y-75284D01*
X15693Y-75354D01*
X15421Y-75992D01*
X15399Y-76011D01*
X14856Y-76100D01*
X14341Y-75577D01*
X14343Y-75546D01*
X14009Y-73009D01*
X13882Y-72634D01*
X13621Y-72337D01*
X13267Y-72162D01*
X12987Y-72144D01*
X12866Y-71962D01*
X11593Y-70690D01*
X11197Y-70425D01*
X10728Y-70332D01*
X6480D01*
X6263Y-70375D01*
X6046Y-70411D01*
X5911Y-70462D01*
X5682Y-70309D01*
X4921Y-70157D01*
X4160Y-70309D01*
X3515Y-70740D01*
X3084Y-71385D01*
X3069Y-71463D01*
X2432Y-71589D01*
X2193Y-71232D01*
X1548Y-70801D01*
X787Y-70650D01*
X27Y-70801D01*
X-618Y-71232D01*
X-1049Y-71877D01*
X-1201Y-72638D01*
X-1181Y-72736D01*
X-1562Y-73199D01*
X-3347D01*
X-3734Y-73277D01*
X-4063Y-73496D01*
X-4282Y-73825D01*
X-4360Y-74213D01*
Y-76772D01*
X-4357Y-76783D01*
X-4776Y-77323D01*
X-5370Y-77313D01*
X-5638Y-76972D01*
X-5710Y-76719D01*
X-5698Y-76684D01*
X-5394Y-74371D01*
X-5203Y-74086D01*
X-5052Y-73325D01*
X-5203Y-72564D01*
X-5634Y-71919D01*
X-6279Y-71488D01*
X-7040Y-71337D01*
X-7801Y-71488D01*
X-8446Y-71919D01*
X-8877Y-72564D01*
X-8909Y-72723D01*
X-8973Y-72728D01*
X-9189Y-72834D01*
X-9859Y-72832D01*
X-10156Y-72572D01*
X-10530Y-72445D01*
X-12872Y-72136D01*
X-13267Y-72162D01*
X-13621Y-72337D01*
X-13882Y-72634D01*
X-14009Y-73009D01*
X-14343Y-75543D01*
X-14343Y-75546D01*
X-14813Y-75995D01*
X-15407Y-75883D01*
X-15669Y-75304D01*
X-15659Y-75284D01*
X-15055Y-73029D01*
X-15027Y-73011D01*
X-14596Y-72366D01*
X-14445Y-71605D01*
X-14596Y-70845D01*
X-15027Y-70200D01*
X-15673Y-69769D01*
X-16433Y-69617D01*
X-17194Y-69769D01*
X-17839Y-70200D01*
X-18270Y-70845D01*
X-18289Y-70941D01*
X-18389Y-70934D01*
X-18617Y-71012D01*
X-19281Y-70922D01*
X-19542Y-70625D01*
X-19896Y-70451D01*
X-22178Y-69839D01*
X-22572Y-69813D01*
X-22947Y-69940D01*
X-23244Y-70201D01*
X-23419Y-70556D01*
X-24080Y-73022D01*
X-24081Y-73027D01*
X-24590Y-73389D01*
X-25172Y-73193D01*
X-25353Y-72598D01*
X-25352Y-72596D01*
X-24372Y-70232D01*
X-24295Y-69844D01*
X-24340Y-69616D01*
X-24071Y-69213D01*
X-23920Y-68452D01*
X-24071Y-67691D01*
X-24502Y-67046D01*
X-25147Y-66615D01*
X-25908Y-66464D01*
X-26669Y-66615D01*
X-27314Y-67046D01*
X-27744Y-67691D01*
X-27764Y-67788D01*
X-28351Y-67799D01*
X-28377Y-67794D01*
X-28593Y-67470D01*
X-28922Y-67251D01*
X-31104Y-66347D01*
X-31492Y-66270D01*
X-31879Y-66347D01*
X-32208Y-66566D01*
X-32428Y-66895D01*
X-33407Y-69259D01*
X-33408Y-69262D01*
X-33956Y-69554D01*
X-34506Y-69282D01*
X-34610Y-68666D01*
X-34608Y-68661D01*
X-33331Y-66450D01*
X-33204Y-66075D01*
X-33230Y-65681D01*
X-33239Y-65662D01*
X-33144Y-65598D01*
X-32713Y-64953D01*
X-32561Y-64192D01*
X-32713Y-63432D01*
X-33144Y-62787D01*
X-33789Y-62356D01*
X-34550Y-62204D01*
X-35311Y-62356D01*
X-35956Y-62787D01*
X-36386Y-63432D01*
X-36952Y-63477D01*
X-37005Y-63465D01*
X-37155Y-63161D01*
X-37452Y-62900D01*
X-39498Y-61719D01*
X-39872Y-61592D01*
X-40267Y-61618D01*
X-40621Y-61793D01*
X-40882Y-62090D01*
X-42161Y-64306D01*
X-42169Y-64328D01*
X-42763Y-64552D01*
X-43262Y-64211D01*
X-43277Y-63561D01*
X-43275Y-63559D01*
X-41719Y-61531D01*
X-41544Y-61176D01*
X-41518Y-60782D01*
X-41543Y-60709D01*
X-41199Y-60479D01*
X-40768Y-59834D01*
X-40617Y-59073D01*
X-40768Y-58313D01*
X-41199Y-57668D01*
X-41844Y-57237D01*
X-42605Y-57085D01*
X-43366Y-57237D01*
X-44011Y-57668D01*
X-44356Y-58184D01*
X-44791Y-58156D01*
X-44928Y-58119D01*
X-44969Y-58103D01*
X-45081Y-57771D01*
X-45342Y-57474D01*
X-47216Y-56036D01*
X-47570Y-55861D01*
X-47965Y-55835D01*
X-48339Y-55962D01*
X-48636Y-56223D01*
X-50194Y-58253D01*
X-50211Y-58286D01*
X-50441Y-58414D01*
X-50871Y-58466D01*
X-51299Y-58053D01*
X-51213Y-57375D01*
X-51203Y-57368D01*
X-49393Y-55559D01*
X-49174Y-55230D01*
X-49097Y-54843D01*
X-49134Y-54657D01*
X-48638Y-54326D01*
X-48207Y-53681D01*
X-48055Y-52920D01*
X-48207Y-52159D01*
X-48638Y-51514D01*
X-49283Y-51083D01*
X-50044Y-50932D01*
X-50805Y-51083D01*
X-51450Y-51514D01*
X-51579Y-51708D01*
X-52203Y-51561D01*
X-52236Y-51393D01*
X-52456Y-51064D01*
X-54126Y-49393D01*
X-54455Y-49174D01*
X-54843Y-49097D01*
X-55230Y-49174D01*
X-55559Y-49393D01*
X-57368Y-51203D01*
X-57375Y-51213D01*
X-58053Y-51299D01*
X-58466Y-50871D01*
X-58414Y-50441D01*
X-58286Y-50211D01*
X-58253Y-50194D01*
X-56223Y-48636D01*
X-55962Y-48339D01*
X-55895Y-48142D01*
X-55521Y-48067D01*
X-54876Y-47636D01*
X-54445Y-46991D01*
X-54294Y-46230D01*
X-54445Y-45469D01*
X-54876Y-44824D01*
X-55521Y-44393D01*
X-56282Y-44242D01*
X-57042Y-44393D01*
X-57687Y-44824D01*
X-58316Y-44685D01*
X-58472Y-44529D01*
X-58497Y-44135D01*
X-58672Y-43780D01*
X-60110Y-41906D01*
X-60407Y-41645D01*
X-60782Y-41518D01*
X-61176Y-41544D01*
X-61531Y-41719D01*
X-63559Y-43275D01*
X-63561Y-43277D01*
X-64211Y-43262D01*
X-64552Y-42763D01*
X-64328Y-42169D01*
X-64306Y-42161D01*
X-62090Y-40882D01*
X-61793Y-40621D01*
X-61643Y-40317D01*
X-61141Y-40217D01*
X-60496Y-39786D01*
X-60065Y-39141D01*
X-59913Y-38381D01*
X-60065Y-37620D01*
X-60496Y-36975D01*
X-61141Y-36544D01*
X-61901Y-36392D01*
X-62662Y-36544D01*
X-62964Y-36745D01*
X-63693Y-36554D01*
X-63773Y-36362D01*
X-63758Y-36122D01*
X-63885Y-35747D01*
X-65066Y-33702D01*
X-65326Y-33404D01*
X-65681Y-33230D01*
X-66075Y-33204D01*
X-66450Y-33331D01*
X-68666Y-34610D01*
X-68679Y-34622D01*
X-69365Y-34531D01*
X-69657Y-34017D01*
X-69564Y-33750D01*
X-69302Y-33415D01*
X-69259Y-33407D01*
X-66895Y-32428D01*
X-66566Y-32208D01*
X-66347Y-31879D01*
X-66336Y-31825D01*
X-65673Y-31693D01*
X-65028Y-31262D01*
X-64597Y-30617D01*
X-64446Y-29857D01*
X-64597Y-29096D01*
X-65028Y-28451D01*
X-65673Y-28020D01*
X-66434Y-27868D01*
X-67195Y-28020D01*
X-67524Y-28240D01*
X-67895Y-27961D01*
X-67995Y-27833D01*
X-67927Y-27491D01*
X-68004Y-27103D01*
X-68733Y-25343D01*
X-68706Y-25302D01*
X-68566Y-24600D01*
X-68706Y-23897D01*
X-69103Y-23302D01*
X-69699Y-22904D01*
X-69842Y-22656D01*
X-69813Y-22572D01*
X-69839Y-22178D01*
X-70451Y-19896D01*
X-70625Y-19542D01*
X-70922Y-19281D01*
X-71012Y-18617D01*
X-70934Y-18389D01*
X-70960Y-17995D01*
X-71571Y-15713D01*
X-71746Y-15358D01*
X-72043Y-15098D01*
X-72418Y-14971D01*
X-72812Y-14997D01*
X-75284Y-15659D01*
X-75321Y-15677D01*
X-75885Y-15416D01*
X-75991Y-14820D01*
X-75548Y-14346D01*
X-75524Y-14340D01*
X-73009Y-14009D01*
X-72634Y-13882D01*
X-72337Y-13621D01*
X-72224Y-13392D01*
X-71711Y-13494D01*
X-70951Y-13342D01*
X-70306Y-12911D01*
X-69875Y-12266D01*
X-69723Y-11506D01*
X-69875Y-10745D01*
X-70306Y-10100D01*
X-70951Y-9669D01*
X-71711Y-9517D01*
X-72444Y-9663D01*
X-72548Y-9569D01*
X-72834Y-9189D01*
X-72728Y-8973D01*
X-72702Y-8579D01*
X-73010Y-6237D01*
X-73137Y-5862D01*
X-73398Y-5565D01*
X-73752Y-5390D01*
X-74147Y-5364D01*
X-76684Y-5698D01*
X-76719Y-5710D01*
X-76972Y-5638D01*
X-77313Y-5370D01*
X-77323Y-4776D01*
X-76783Y-4357D01*
X-76772Y-4360D01*
X-74213D01*
X-73825Y-4282D01*
X-73496Y-4063D01*
X-73391Y-3906D01*
X-72806Y-4022D01*
X-72045Y-3870D01*
X-71400Y-3440D01*
X-70969Y-2795D01*
X-70818Y-2034D01*
X-70969Y-1273D01*
X-71400Y-628D01*
X-72045Y-197D01*
X-72806Y-46D01*
X-73036Y-91D01*
X-73372Y454D01*
X-73277Y597D01*
X-73199Y984D01*
Y3347D01*
X-73277Y3734D01*
X-73496Y4063D01*
X-73825Y4282D01*
X-74213Y4360D01*
X-76772D01*
X-76783Y4357D01*
X-77323Y4776D01*
X-77313Y5370D01*
X-76972Y5638D01*
X-76719Y5710D01*
X-76684Y5698D01*
X-74147Y5364D01*
X-73752Y5390D01*
X-73398Y5565D01*
X-73356Y5613D01*
X-73223Y5523D01*
X-72462Y5372D01*
X-71701Y5523D01*
X-71056Y5954D01*
X-70625Y6600D01*
X-70473Y7360D01*
X-70625Y8121D01*
X-71056Y8766D01*
X-71701Y9197D01*
X-72462Y9349D01*
X-72795Y9838D01*
X-72803Y9893D01*
X-72572Y10156D01*
X-72445Y10530D01*
X-72136Y12872D01*
X-72162Y13267D01*
X-72337Y13621D01*
X-72634Y13882D01*
X-73009Y14009D01*
X-75543Y14343D01*
X-75546Y14343D01*
X-75995Y14813D01*
X-75883Y15407D01*
X-75304Y15669D01*
X-75284Y15659D01*
X-72812Y14997D01*
X-72418Y14971D01*
X-72043Y15098D01*
X-71893Y15230D01*
X-71613Y15042D01*
X-70852Y14891D01*
X-70091Y15042D01*
X-69446Y15473D01*
X-69015Y16118D01*
X-68863Y16879D01*
X-69015Y17640D01*
X-69446Y18285D01*
X-70091Y18716D01*
X-70577Y18813D01*
X-70725Y19454D01*
X-70625Y19542D01*
X-70451Y19896D01*
X-69839Y22178D01*
X-69813Y22572D01*
X-69940Y22947D01*
X-70201Y23244D01*
X-70556Y23419D01*
X-73022Y24080D01*
X-73027Y24081D01*
X-73389Y24590D01*
X-73193Y25172D01*
X-72598Y25353D01*
X-72596Y25352D01*
X-70232Y24372D01*
X-69844Y24295D01*
X-69456Y24372D01*
X-69411Y24403D01*
X-68848Y24027D01*
X-68088Y23876D01*
X-67327Y24027D01*
X-66682Y24458D01*
X-66251Y25103D01*
X-66099Y25864D01*
X-66251Y26625D01*
X-66682Y27270D01*
X-67327Y27701D01*
X-67715Y27778D01*
X-67780Y28237D01*
X-67761Y28399D01*
X-67470Y28593D01*
X-67251Y28922D01*
X-66347Y31104D01*
X-66270Y31492D01*
X-66347Y31879D01*
X-66566Y32208D01*
X-66895Y32428D01*
X-69259Y33407D01*
X-69262Y33408D01*
X-69554Y33956D01*
X-69282Y34506D01*
X-68666Y34610D01*
X-68661Y34608D01*
X-66450Y33331D01*
X-66075Y33204D01*
X-65681Y33230D01*
X-65522Y33308D01*
X-65475Y33236D01*
X-64830Y32805D01*
X-64069Y32654D01*
X-63308Y32805D01*
X-62663Y33236D01*
X-62232Y33881D01*
X-62081Y34642D01*
X-62232Y35403D01*
X-62663Y36048D01*
X-63253Y36442D01*
X-63303Y36722D01*
X-63296Y37088D01*
X-63161Y37155D01*
X-62900Y37452D01*
X-61719Y39498D01*
X-61592Y39872D01*
X-61618Y40267D01*
X-61793Y40621D01*
X-62090Y40882D01*
X-64306Y42161D01*
X-64328Y42169D01*
X-64552Y42763D01*
X-64211Y43262D01*
X-63561Y43277D01*
X-63559Y43275D01*
X-61531Y41719D01*
X-61176Y41544D01*
X-60782Y41518D01*
X-60475Y41622D01*
X-60330Y41405D01*
X-59685Y40974D01*
X-58924Y40823D01*
X-58163Y40974D01*
X-57519Y41405D01*
X-57087Y42050D01*
X-56936Y42811D01*
X-57087Y43572D01*
X-57519Y44217D01*
X-57832Y44427D01*
X-57771Y45081D01*
X-57474Y45342D01*
X-56036Y47216D01*
X-55861Y47570D01*
X-55835Y47965D01*
X-55962Y48339D01*
X-56223Y48636D01*
X-58253Y50194D01*
X-58286Y50211D01*
X-58414Y50441D01*
X-58466Y50871D01*
X-58053Y51299D01*
X-57375Y51213D01*
X-57368Y51203D01*
X-55559Y49393D01*
X-55230Y49174D01*
X-54843Y49097D01*
X-54455Y49174D01*
X-54198Y49345D01*
X-53844Y49024D01*
X-53422Y48609D01*
X-53407Y48571D01*
X-53401Y48568D01*
X-53392Y48013D01*
X-53392Y45926D01*
X-53574Y45805D01*
X-54005Y45160D01*
X-54157Y44399D01*
X-54005Y43638D01*
X-53574Y42993D01*
X-52929Y42562D01*
X-52168Y42410D01*
X-51407Y42562D01*
X-50762Y42993D01*
X-50331Y43638D01*
X-50180Y44399D01*
X-50331Y45160D01*
X-50762Y45805D01*
X-50945Y45926D01*
X-50945Y48009D01*
X-50921Y48609D01*
X-50921D01*
X-51108Y49545D01*
X-51581Y50253D01*
X-51675Y50632D01*
X-51995Y51064D01*
X-52135Y51190D01*
X-52094Y51845D01*
X-51780Y52159D01*
X-51393Y52236D01*
X-51064Y52456D01*
X-49393Y54126D01*
X-49174Y54455D01*
X-49097Y54843D01*
X-49174Y55230D01*
X-49393Y55559D01*
X-51203Y57368D01*
X-51213Y57375D01*
X-51299Y58053D01*
X-50871Y58466D01*
X-50441Y58414D01*
X-50211Y58286D01*
X-50194Y58253D01*
X-48636Y56223D01*
X-48339Y55962D01*
X-47965Y55835D01*
X-47570Y55861D01*
X-47216Y56036D01*
X-46218Y56801D01*
X-45901Y56590D01*
X-44965Y56403D01*
Y56403D01*
X-44365Y56427D01*
X-43412Y56427D01*
X-43280Y56229D01*
X-42635Y55798D01*
X-41874Y55647D01*
X-41113Y55798D01*
X-40468Y56229D01*
X-40037Y56874D01*
X-39886Y57635D01*
X-40037Y58396D01*
X-40468Y59041D01*
X-41113Y59472D01*
X-41621Y59573D01*
X-41756Y59826D01*
X-41830Y60197D01*
X-41645Y60407D01*
X-41518Y60782D01*
X-41544Y61176D01*
X-41719Y61531D01*
X-43275Y63559D01*
X-43277Y63561D01*
X-43262Y64211D01*
X-42763Y64552D01*
X-42169Y64328D01*
X-42161Y64306D01*
X-40882Y62090D01*
X-40621Y61793D01*
X-40317Y61643D01*
X-40217Y61141D01*
X-39786Y60496D01*
X-39141Y60065D01*
X-38381Y59913D01*
X-37620Y60065D01*
X-36975Y60496D01*
X-36544Y61141D01*
X-36392Y61901D01*
X-36544Y62662D01*
X-36745Y62964D01*
X-36554Y63693D01*
X-36362Y63773D01*
X-36122Y63758D01*
X-35747Y63885D01*
X-33702Y65066D01*
X-33404Y65326D01*
X-33230Y65681D01*
X-33204Y66075D01*
X-33331Y66450D01*
X-34610Y68666D01*
X-34622Y68679D01*
X-34531Y69365D01*
X-34017Y69657D01*
X-33750Y69564D01*
X-33415Y69302D01*
X-33407Y69259D01*
X-32428Y66895D01*
X-32208Y66566D01*
X-31879Y66347D01*
X-31825Y66336D01*
X-31693Y65673D01*
X-31262Y65028D01*
X-30617Y64597D01*
X-29857Y64446D01*
X-29096Y64597D01*
X-28451Y65028D01*
X-28020Y65673D01*
X-27868Y66434D01*
X-28020Y67195D01*
X-28240Y67524D01*
X-27961Y67895D01*
X-27833Y67995D01*
X-27491Y67927D01*
X-27103Y68004D01*
X-24920Y68908D01*
X-24592Y69128D01*
X-24372Y69456D01*
X-24295Y69844D01*
X-24372Y70232D01*
X-25073Y71923D01*
X-24631Y72424D01*
X-24147Y72328D01*
X-23906Y72376D01*
X-23419Y70556D01*
X-23244Y70201D01*
X-22947Y69940D01*
X-22572Y69813D01*
X-22178Y69839D01*
X-19896Y70451D01*
X-19542Y70625D01*
X-19281Y70922D01*
X-18617Y71012D01*
X-18389Y70934D01*
X-17995Y70960D01*
X-15941Y71510D01*
X-15405Y71243D01*
X-15284Y71114D01*
X-15218Y70782D01*
X-14787Y70137D01*
X-14142Y69706D01*
X-13381Y69554D01*
X-12620Y69706D01*
X-11975Y70137D01*
X-11544Y70782D01*
X-11393Y71543D01*
X-11428Y71721D01*
X-10949Y72390D01*
X-10530Y72445D01*
X-10156Y72572D01*
X-9859Y72832D01*
X-9189Y72834D01*
X-8973Y72728D01*
X-8579Y72702D01*
X-6237Y73010D01*
X-5862Y73137D01*
X-5565Y73398D01*
X-5390Y73752D01*
X-5364Y74147D01*
X-5698Y76684D01*
X-5777Y76916D01*
X-5565Y77359D01*
X-5429Y77516D01*
X-4766D01*
X-4662Y77440D01*
D02*
G37*
G36*
X81277Y33666D02*
X83305Y28278D01*
X84906Y22998D01*
X84381Y22663D01*
X81827Y24947D01*
X81704Y25020D01*
X81598Y25113D01*
X81475Y25155D01*
X81365Y25220D01*
X81224Y25240D01*
X81089Y25286D01*
X80910Y25634D01*
X80877Y25866D01*
X81308Y26511D01*
X81459Y27272D01*
X81308Y28033D01*
X80877Y28678D01*
X80232Y29109D01*
X79471Y29260D01*
X79133Y29193D01*
X78242Y31344D01*
X78022Y31672D01*
X77694Y31892D01*
X77489Y32387D01*
X77566Y32774D01*
X77489Y33162D01*
X77271Y33688D01*
X78108Y34469D01*
X78135Y34507D01*
X78180Y34541D01*
X78636Y35136D01*
X78923Y35829D01*
X78951Y36040D01*
X78993Y36157D01*
X79115Y36983D01*
X79734Y37070D01*
X81277Y33666D01*
D02*
G37*
G36*
X-83780Y-24402D02*
X-83726Y-24443D01*
X-83669Y-24517D01*
X-83074Y-24973D01*
X-82381Y-25261D01*
X-81637Y-25359D01*
X-81092Y-25287D01*
X-81090Y-25287D01*
X-80915Y-25601D01*
X-80869Y-25860D01*
X-80877Y-25866D01*
X-81308Y-26511D01*
X-81459Y-27272D01*
X-81308Y-28033D01*
X-80877Y-28678D01*
X-80232Y-29109D01*
X-79471Y-29260D01*
X-79133Y-29193D01*
X-78242Y-31344D01*
X-78022Y-31672D01*
X-77694Y-31892D01*
X-77489Y-32387D01*
X-77566Y-32774D01*
X-77528Y-32967D01*
X-78713Y-33458D01*
X-78890Y-33576D01*
X-79075Y-33678D01*
X-79111Y-33724D01*
X-79160Y-33757D01*
X-79278Y-33933D01*
X-79304Y-33966D01*
X-79570Y-34019D01*
X-80215Y-34450D01*
X-80293Y-34567D01*
X-80891Y-34518D01*
X-81277Y-33666D01*
X-83305Y-28278D01*
X-84427Y-24579D01*
X-83891Y-24278D01*
X-83780Y-24402D01*
D02*
G37*
G36*
X32774Y-77566D02*
X33014Y-77518D01*
X33074Y-77605D01*
X33122Y-77720D01*
X33226Y-77823D01*
X33310Y-77944D01*
X33415Y-78011D01*
X33503Y-78098D01*
X35825Y-79640D01*
X35862Y-80061D01*
X35800Y-80310D01*
X33666Y-81277D01*
X28278Y-83305D01*
X24536Y-84440D01*
X24149Y-83930D01*
X25172Y-82317D01*
X25176Y-82308D01*
X25182Y-82302D01*
X25272Y-82058D01*
X25366Y-81816D01*
X25366Y-81807D01*
X25369Y-81798D01*
X25359Y-81539D01*
X25357Y-81440D01*
X25716Y-81215D01*
X25793Y-81185D01*
X25927Y-81162D01*
X26511Y-81552D01*
X27272Y-81704D01*
X28033Y-81552D01*
X28678Y-81121D01*
X29109Y-80476D01*
X29260Y-79715D01*
X29147Y-79149D01*
X29161Y-79146D01*
X31344Y-78242D01*
X31672Y-78022D01*
X31892Y-77694D01*
X32387Y-77489D01*
X32774Y-77566D01*
D02*
G37*
%LPC*%
G36*
X18898Y59075D02*
X18137Y58924D01*
X17492Y58492D01*
X17061Y57847D01*
X16909Y57087D01*
X17061Y56326D01*
X17492Y55681D01*
X18137Y55250D01*
X18898Y55098D01*
X19658Y55250D01*
X20303Y55681D01*
X20734Y56326D01*
X20886Y57087D01*
X20734Y57847D01*
X20303Y58492D01*
X19658Y58924D01*
X18898Y59075D01*
D02*
G37*
G36*
X13508Y58682D02*
X12747Y58531D01*
X12102Y58100D01*
X11671Y57455D01*
X11520Y56694D01*
X11671Y55933D01*
X12102Y55288D01*
X12747Y54857D01*
X13508Y54706D01*
X14269Y54857D01*
X14914Y55288D01*
X15345Y55933D01*
X15496Y56694D01*
X15345Y57455D01*
X14914Y58100D01*
X14269Y58531D01*
X13508Y58682D01*
D02*
G37*
G36*
X-1152Y56907D02*
X-1913Y56755D01*
X-2558Y56324D01*
X-2989Y55679D01*
X-3101Y55117D01*
X-3191Y54896D01*
X-3703Y54671D01*
X-4075Y54745D01*
X-4836Y54594D01*
X-5481Y54163D01*
X-5912Y53518D01*
X-6063Y52757D01*
X-5912Y51996D01*
X-5481Y51351D01*
X-4836Y50920D01*
X-4075Y50769D01*
X-3314Y50920D01*
X-2669Y51351D01*
X-2238Y51996D01*
X-2126Y52559D01*
X-2036Y52779D01*
X-1524Y53004D01*
X-1152Y52930D01*
X-391Y53082D01*
X254Y53513D01*
X685Y54158D01*
X836Y54918D01*
X685Y55679D01*
X254Y56324D01*
X-391Y56755D01*
X-1152Y56907D01*
D02*
G37*
G36*
X5333Y58415D02*
X4572Y58264D01*
X3927Y57833D01*
X3496Y57188D01*
X3345Y56427D01*
X3496Y55666D01*
X3927Y55021D01*
X4572Y54590D01*
X5333Y54439D01*
X6094Y54590D01*
X6739Y55021D01*
X7170Y55666D01*
X7321Y56427D01*
X7170Y57188D01*
X6739Y57833D01*
X6094Y58264D01*
X5333Y58415D01*
D02*
G37*
G36*
X30310Y56222D02*
X29549Y56070D01*
X28904Y55639D01*
X28473Y54994D01*
X28322Y54233D01*
X28473Y53473D01*
X28904Y52828D01*
X29549Y52397D01*
X30310Y52245D01*
X31071Y52397D01*
X31716Y52828D01*
X32147Y53473D01*
X32298Y54233D01*
X32147Y54994D01*
X31716Y55639D01*
X31071Y56070D01*
X30310Y56222D01*
D02*
G37*
G36*
X40945Y50807D02*
X40184Y50656D01*
X39539Y50225D01*
X39108Y49580D01*
X38957Y48819D01*
X39108Y48058D01*
X39539Y47413D01*
X40184Y46982D01*
X40945Y46831D01*
X41706Y46982D01*
X42351Y47413D01*
X42602Y47789D01*
X42713Y47782D01*
X43203Y47608D01*
X43324Y46996D01*
X43755Y46351D01*
X44401Y45920D01*
X45161Y45768D01*
X45922Y45920D01*
X46567Y46351D01*
X46998Y46996D01*
X47150Y47757D01*
X46998Y48518D01*
X46567Y49163D01*
X45922Y49594D01*
X45161Y49745D01*
X44401Y49594D01*
X43755Y49163D01*
X43505Y48787D01*
X43394Y48793D01*
X42904Y48968D01*
X42782Y49580D01*
X42351Y50225D01*
X41706Y50656D01*
X40945Y50807D01*
D02*
G37*
G36*
X-7087Y47857D02*
X-7789Y47717D01*
X-8384Y47319D01*
X-8782Y46724D01*
X-8922Y46021D01*
X-8782Y45319D01*
X-8384Y44723D01*
X-7789Y44326D01*
X-7087Y44186D01*
X-6384Y44326D01*
X-5789Y44723D01*
X-5391Y45319D01*
X-5251Y46021D01*
X-5391Y46724D01*
X-5789Y47319D01*
X-6384Y47717D01*
X-7087Y47857D01*
D02*
G37*
G36*
X-11243Y45108D02*
X-11945Y44968D01*
X-12540Y44570D01*
X-12938Y43975D01*
X-13078Y43272D01*
X-12938Y42570D01*
X-13333Y42080D01*
X-13655Y42144D01*
X-14357Y42005D01*
X-14953Y41607D01*
X-15350Y41011D01*
X-15490Y40309D01*
X-15350Y39607D01*
X-14953Y39011D01*
X-14357Y38614D01*
X-13655Y38474D01*
X-12953Y38614D01*
X-12357Y39011D01*
X-11959Y39607D01*
X-11820Y40309D01*
X-11959Y41011D01*
X-11565Y41501D01*
X-11243Y41437D01*
X-10540Y41577D01*
X-9945Y41975D01*
X-9547Y42570D01*
X-9408Y43272D01*
X-9547Y43975D01*
X-9945Y44570D01*
X-10540Y44968D01*
X-11243Y45108D01*
D02*
G37*
G36*
X11811Y48292D02*
X11109Y48152D01*
X10513Y47754D01*
X10115Y47159D01*
X9976Y46457D01*
X10115Y45754D01*
X10513Y45159D01*
X11109Y44761D01*
X11811Y44621D01*
X11821Y44623D01*
X12055Y44058D01*
X11694Y43817D01*
X11297Y43222D01*
X11157Y42520D01*
X11297Y41817D01*
X11694Y41222D01*
X12290Y40824D01*
X12992Y40684D01*
X13694Y40824D01*
X14290Y41222D01*
X14688Y41817D01*
X14827Y42520D01*
X14688Y43222D01*
X14290Y43817D01*
X13694Y44215D01*
X12992Y44355D01*
X12983Y44353D01*
X12749Y44918D01*
X13109Y45159D01*
X13507Y45754D01*
X13646Y46457D01*
X13507Y47159D01*
X13109Y47754D01*
X12513Y48152D01*
X11811Y48292D01*
D02*
G37*
G36*
X54037Y42487D02*
X53276Y42335D01*
X52631Y41904D01*
X52200Y41259D01*
X52049Y40498D01*
X52200Y39738D01*
X52631Y39093D01*
X53276Y38662D01*
X54037Y38510D01*
X54798Y38662D01*
X55443Y39093D01*
X55874Y39738D01*
X56025Y40498D01*
X55874Y41259D01*
X55443Y41904D01*
X54798Y42335D01*
X54037Y42487D01*
D02*
G37*
G36*
X-53050Y37511D02*
X-53811Y37360D01*
X-54456Y36929D01*
X-54887Y36284D01*
X-55038Y35523D01*
X-54887Y34762D01*
X-54456Y34117D01*
X-53811Y33686D01*
X-53050Y33535D01*
X-52289Y33686D01*
X-51644Y34117D01*
X-51213Y34762D01*
X-51061Y35523D01*
X-51213Y36284D01*
X-51644Y36929D01*
X-52289Y37360D01*
X-53050Y37511D01*
D02*
G37*
G36*
X-16535Y34281D02*
X-17238Y34141D01*
X-17833Y33743D01*
X-18231Y33148D01*
X-18371Y32446D01*
X-18231Y31743D01*
X-17833Y31148D01*
X-17238Y30750D01*
X-16535Y30610D01*
X-15833Y30750D01*
X-15238Y31148D01*
X-14840Y31743D01*
X-14700Y32446D01*
X-14840Y33148D01*
X-15238Y33743D01*
X-15833Y34141D01*
X-16535Y34281D01*
D02*
G37*
G36*
X25591Y34906D02*
X24888Y34766D01*
X24293Y34369D01*
X23895Y33773D01*
X23755Y33071D01*
X23895Y32368D01*
X24293Y31773D01*
X24888Y31375D01*
X25591Y31236D01*
X26293Y31375D01*
X26731Y31668D01*
X27242Y31538D01*
X27388Y31441D01*
X27438Y31187D01*
X27836Y30592D01*
X28431Y30194D01*
X29134Y30055D01*
X29836Y30194D01*
X30432Y30592D01*
X30829Y31187D01*
X30969Y31890D01*
X30829Y32592D01*
X30432Y33187D01*
X29836Y33585D01*
X29134Y33725D01*
X28431Y33585D01*
X27994Y33293D01*
X27483Y33422D01*
X27336Y33520D01*
X27286Y33773D01*
X26888Y34369D01*
X26293Y34766D01*
X25591Y34906D01*
D02*
G37*
G36*
X-54324Y31853D02*
X-55084Y31702D01*
X-55729Y31271D01*
X-56160Y30626D01*
X-56312Y29865D01*
X-56160Y29104D01*
X-55729Y28459D01*
X-55084Y28028D01*
X-54324Y27877D01*
X-53563Y28028D01*
X-52918Y28459D01*
X-52487Y29104D01*
X-52335Y29865D01*
X-52487Y30626D01*
X-52918Y31271D01*
X-53563Y31702D01*
X-54324Y31853D01*
D02*
G37*
G36*
X-39665Y23150D02*
X-40426Y22998D01*
X-41071Y22567D01*
X-41502Y21922D01*
X-41645Y21204D01*
X-42028Y21280D01*
X-42788Y21128D01*
X-43433Y20697D01*
X-43631Y20402D01*
X-43673D01*
X-44318Y20833D01*
X-45079Y20984D01*
X-45840Y20833D01*
X-46485Y20402D01*
X-46916Y19757D01*
X-47067Y18996D01*
X-46953Y18425D01*
X-47218Y18372D01*
X-47863Y17941D01*
X-48294Y17296D01*
X-48445Y16535D01*
X-48294Y15775D01*
X-47863Y15130D01*
X-47218Y14699D01*
X-46457Y14547D01*
X-45696Y14699D01*
X-45079Y15111D01*
X-44462Y14699D01*
X-43701Y14547D01*
X-42940Y14699D01*
X-42323Y15111D01*
X-41706Y14699D01*
X-40945Y14547D01*
X-40184Y14699D01*
X-39539Y15130D01*
X-39108Y15775D01*
X-38960Y16519D01*
X-38216Y16667D01*
X-37571Y17098D01*
X-37139Y17743D01*
X-36991Y18487D01*
X-36247Y18636D01*
X-35602Y19067D01*
X-35171Y19712D01*
X-35020Y20472D01*
X-35171Y21233D01*
X-35602Y21878D01*
X-36247Y22309D01*
X-37008Y22461D01*
X-37769Y22309D01*
X-37989Y22162D01*
X-38260Y22567D01*
X-38905Y22998D01*
X-39665Y23150D01*
D02*
G37*
G36*
X-55909Y24274D02*
X-56670Y24122D01*
X-57315Y23691D01*
X-57746Y23046D01*
X-57897Y22285D01*
X-57746Y21524D01*
X-57315Y20879D01*
X-56670Y20448D01*
X-55909Y20297D01*
X-55148Y20448D01*
X-54503Y20879D01*
X-54072Y21524D01*
X-53921Y22285D01*
X-54072Y23046D01*
X-54503Y23691D01*
X-55148Y24122D01*
X-55909Y24274D01*
D02*
G37*
G36*
X-27559Y16796D02*
X-28261Y16656D01*
X-28857Y16258D01*
X-29255Y15663D01*
X-29394Y14961D01*
X-29255Y14258D01*
X-28857Y13663D01*
X-28261Y13265D01*
X-27559Y13125D01*
X-26857Y13265D01*
X-26261Y13663D01*
X-25864Y14258D01*
X-25724Y14961D01*
X-25864Y15663D01*
X-26261Y16258D01*
X-26857Y16656D01*
X-27559Y16796D01*
D02*
G37*
G36*
X47213Y16980D02*
X46452Y16829D01*
X45807Y16398D01*
X45376Y15753D01*
X45224Y14992D01*
X45376Y14231D01*
X45807Y13586D01*
X46452Y13155D01*
X47213Y13004D01*
X47973Y13155D01*
X48619Y13586D01*
X49049Y14231D01*
X49201Y14992D01*
X49049Y15753D01*
X48619Y16398D01*
X47973Y16829D01*
X47213Y16980D01*
D02*
G37*
G36*
X-56671Y16058D02*
X-57432Y15906D01*
X-58077Y15475D01*
X-58508Y14830D01*
X-58659Y14069D01*
X-58508Y13309D01*
X-58077Y12664D01*
X-57432Y12233D01*
X-56671Y12081D01*
X-55910Y12233D01*
X-55265Y12664D01*
X-54834Y13309D01*
X-54682Y14069D01*
X-54834Y14830D01*
X-55265Y15475D01*
X-55910Y15906D01*
X-56671Y16058D01*
D02*
G37*
G36*
X52458Y10109D02*
X51697Y9958D01*
X51052Y9527D01*
X50621Y8882D01*
X50470Y8121D01*
X50621Y7360D01*
X51052Y6715D01*
X51697Y6284D01*
X52458Y6133D01*
X53219Y6284D01*
X53864Y6715D01*
X54295Y7360D01*
X54446Y8121D01*
X54295Y8882D01*
X53864Y9527D01*
X53219Y9958D01*
X52458Y10109D01*
D02*
G37*
G36*
X-45037Y7978D02*
X-45739Y7839D01*
X-46335Y7441D01*
X-46733Y6846D01*
X-46872Y6143D01*
X-46733Y5441D01*
X-46335Y4846D01*
X-45739Y4448D01*
X-45037Y4308D01*
X-44335Y4448D01*
X-43739Y4846D01*
X-43341Y5441D01*
X-43202Y6143D01*
X-43341Y6846D01*
X-43739Y7441D01*
X-44335Y7839D01*
X-45037Y7978D01*
D02*
G37*
G36*
X-56194Y8089D02*
X-56954Y7938D01*
X-57600Y7507D01*
X-58030Y6862D01*
X-58182Y6101D01*
X-58030Y5340D01*
X-57600Y4695D01*
X-56954Y4264D01*
X-56194Y4112D01*
X-55433Y4264D01*
X-54788Y4695D01*
X-54357Y5340D01*
X-54205Y6101D01*
X-54357Y6862D01*
X-54788Y7507D01*
X-55433Y7938D01*
X-56194Y8089D01*
D02*
G37*
G36*
X-44650Y3312D02*
X-45353Y3172D01*
X-45948Y2774D01*
X-46346Y2179D01*
X-46486Y1476D01*
X-46346Y774D01*
X-45948Y179D01*
X-45353Y-219D01*
X-44650Y-359D01*
X-43948Y-219D01*
X-43353Y179D01*
X-42955Y774D01*
X-42815Y1476D01*
X-42955Y2179D01*
X-43353Y2774D01*
X-43948Y3172D01*
X-44650Y3312D01*
D02*
G37*
G36*
X54831Y3364D02*
X54071Y3212D01*
X53426Y2781D01*
X52995Y2136D01*
X52843Y1376D01*
X52995Y615D01*
X53426Y-30D01*
X54071Y-461D01*
X54831Y-613D01*
X55592Y-461D01*
X56237Y-30D01*
X56668Y615D01*
X56820Y1376D01*
X56668Y2136D01*
X56237Y2781D01*
X55592Y3212D01*
X54831Y3364D01*
D02*
G37*
G36*
X-54394Y65D02*
X-55155Y-87D01*
X-55800Y-518D01*
X-56230Y-1163D01*
X-56382Y-1924D01*
X-56230Y-2684D01*
X-55800Y-3330D01*
X-55155Y-3760D01*
X-54394Y-3912D01*
X-53633Y-3760D01*
X-52988Y-3330D01*
X-52557Y-2684D01*
X-52405Y-1924D01*
X-52557Y-1163D01*
X-52988Y-518D01*
X-53633Y-87D01*
X-54394Y65D01*
D02*
G37*
G36*
X56561Y-2165D02*
X55800Y-2317D01*
X55155Y-2748D01*
X54724Y-3393D01*
X54572Y-4154D01*
X54724Y-4914D01*
X55155Y-5559D01*
X55800Y-5991D01*
X56561Y-6142D01*
X57322Y-5991D01*
X57967Y-5559D01*
X58398Y-4914D01*
X58549Y-4154D01*
X58398Y-3393D01*
X57967Y-2748D01*
X57322Y-2317D01*
X56561Y-2165D01*
D02*
G37*
G36*
X-41676Y-2102D02*
X-42378Y-2241D01*
X-42973Y-2639D01*
X-43371Y-3235D01*
X-43511Y-3937D01*
X-43371Y-4639D01*
X-42973Y-5235D01*
X-42378Y-5633D01*
X-42301Y-5648D01*
X-41971Y-6235D01*
X-41980Y-6277D01*
X-42111Y-6937D01*
X-41971Y-7639D01*
X-41573Y-8235D01*
X-40978Y-8633D01*
X-40276Y-8772D01*
X-39573Y-8633D01*
X-38978Y-8235D01*
X-38580Y-7639D01*
X-38440Y-6937D01*
X-38580Y-6235D01*
X-38978Y-5639D01*
X-39573Y-5241D01*
X-39650Y-5226D01*
X-39980Y-4639D01*
X-39972Y-4597D01*
X-39840Y-3937D01*
X-39980Y-3235D01*
X-40378Y-2639D01*
X-40973Y-2241D01*
X-41676Y-2102D01*
D02*
G37*
G36*
X-52434Y-6134D02*
X-53195Y-6285D01*
X-53840Y-6716D01*
X-54271Y-7361D01*
X-54422Y-8122D01*
X-54271Y-8883D01*
X-53840Y-9528D01*
X-53195Y-9959D01*
X-52434Y-10110D01*
X-51673Y-9959D01*
X-51028Y-9528D01*
X-50597Y-8883D01*
X-50446Y-8122D01*
X-50597Y-7361D01*
X-51028Y-6716D01*
X-51673Y-6285D01*
X-52434Y-6134D01*
D02*
G37*
G36*
X57126Y-10749D02*
X56365Y-10901D01*
X55720Y-11332D01*
X55289Y-11977D01*
X55138Y-12738D01*
X55289Y-13498D01*
X55720Y-14143D01*
X56365Y-14574D01*
X57126Y-14726D01*
X57887Y-14574D01*
X58532Y-14143D01*
X58963Y-13498D01*
X59114Y-12738D01*
X58963Y-11977D01*
X58532Y-11332D01*
X57887Y-10901D01*
X57126Y-10749D01*
D02*
G37*
G36*
X56471Y-19238D02*
X55710Y-19389D01*
X55065Y-19820D01*
X54634Y-20465D01*
X54483Y-21226D01*
X54634Y-21987D01*
X55065Y-22632D01*
X55710Y-23063D01*
X56471Y-23214D01*
X57232Y-23063D01*
X57877Y-22632D01*
X58308Y-21987D01*
X58459Y-21226D01*
X58308Y-20465D01*
X57877Y-19820D01*
X57232Y-19389D01*
X56471Y-19238D01*
D02*
G37*
G36*
X0Y28203D02*
X-3158Y28026D01*
X-6276Y27496D01*
X-9315Y26621D01*
X-12237Y25410D01*
X-15005Y23880D01*
X-17584Y22050D01*
X-19943Y19943D01*
X-22050Y17584D01*
X-23880Y15005D01*
X-25410Y12237D01*
X-26621Y9315D01*
X-27496Y6276D01*
X-28026Y3158D01*
X-28203Y0D01*
X-28026Y-3158D01*
X-27496Y-6276D01*
X-26621Y-9315D01*
X-25410Y-12237D01*
X-23880Y-15005D01*
X-22050Y-17584D01*
X-19943Y-19943D01*
X-17584Y-22050D01*
X-15005Y-23880D01*
X-12237Y-25410D01*
X-9315Y-26621D01*
X-6276Y-27496D01*
X-3158Y-28026D01*
X0Y-28203D01*
X3158Y-28026D01*
X6276Y-27496D01*
X9315Y-26621D01*
X12237Y-25410D01*
X15005Y-23880D01*
X17584Y-22050D01*
X19943Y-19943D01*
X22050Y-17584D01*
X23880Y-15005D01*
X25410Y-12237D01*
X26621Y-9315D01*
X27496Y-6276D01*
X28026Y-3158D01*
X28203Y0D01*
X28026Y3158D01*
X27496Y6276D01*
X26621Y9315D01*
X25410Y12237D01*
X23880Y15005D01*
X22050Y17584D01*
X19943Y19943D01*
X17584Y22050D01*
X15005Y23880D01*
X12237Y25410D01*
X9315Y26621D01*
X6276Y27496D01*
X3158Y28026D01*
X0Y28203D01*
D02*
G37*
G36*
X-22817Y-25229D02*
X-23519Y-25369D01*
X-24114Y-25767D01*
X-24512Y-26362D01*
X-24652Y-27065D01*
X-24512Y-27767D01*
X-24114Y-28362D01*
X-23519Y-28760D01*
X-22817Y-28900D01*
X-22114Y-28760D01*
X-21519Y-28362D01*
X-21121Y-27767D01*
X-20981Y-27065D01*
X-21121Y-26362D01*
X-21519Y-25767D01*
X-22114Y-25369D01*
X-22817Y-25229D01*
D02*
G37*
G36*
X54651Y-27562D02*
X53891Y-27713D01*
X53246Y-28144D01*
X52815Y-28789D01*
X52663Y-29550D01*
X52815Y-30311D01*
X53246Y-30956D01*
X53891Y-31387D01*
X54651Y-31538D01*
X55412Y-31387D01*
X56057Y-30956D01*
X56488Y-30311D01*
X56639Y-29550D01*
X56488Y-28789D01*
X56057Y-28144D01*
X55412Y-27713D01*
X54651Y-27562D01*
D02*
G37*
G36*
X38978Y-31926D02*
X38276Y-32066D01*
X37681Y-32464D01*
X37283Y-33059D01*
X37143Y-33762D01*
X37173Y-33912D01*
X36656Y-34389D01*
X36285Y-34315D01*
X35583Y-34455D01*
X34987Y-34852D01*
X34589Y-35448D01*
X34449Y-36150D01*
X34589Y-36852D01*
X34987Y-37448D01*
X35583Y-37846D01*
X36285Y-37986D01*
X36987Y-37846D01*
X37582Y-37448D01*
X37980Y-36852D01*
X38120Y-36150D01*
X38090Y-36000D01*
X38607Y-35523D01*
X38978Y-35597D01*
X39681Y-35457D01*
X40276Y-35059D01*
X40674Y-34464D01*
X40813Y-33762D01*
X40674Y-33059D01*
X40276Y-32464D01*
X39681Y-32066D01*
X38978Y-31926D01*
D02*
G37*
G36*
X22071Y-28374D02*
X21310Y-28526D01*
X20665Y-28957D01*
X20234Y-29602D01*
X20083Y-30363D01*
X20234Y-31124D01*
X20665Y-31769D01*
X21310Y-32199D01*
X22071Y-32351D01*
X22207Y-32324D01*
X22894Y-32799D01*
X22938Y-33016D01*
X23369Y-33661D01*
X24014Y-34092D01*
X24774Y-34243D01*
X24962Y-34205D01*
X25666Y-34671D01*
X25697Y-34825D01*
X26128Y-35470D01*
X26773Y-35901D01*
X27534Y-36052D01*
X28205Y-35919D01*
X28456Y-35958D01*
X28770Y-36088D01*
X28892Y-36224D01*
X29303Y-36839D01*
X29948Y-37270D01*
X30709Y-37421D01*
X31470Y-37270D01*
X32114Y-36839D01*
X32546Y-36194D01*
X32697Y-35433D01*
X32546Y-34672D01*
X32114Y-34027D01*
X31470Y-33596D01*
X30709Y-33445D01*
X30037Y-33578D01*
X29787Y-33539D01*
X29473Y-33409D01*
X29351Y-33273D01*
X28940Y-32658D01*
X28295Y-32227D01*
X27534Y-32076D01*
X27346Y-32113D01*
X26642Y-31648D01*
X26611Y-31494D01*
X26180Y-30849D01*
X25535Y-30418D01*
X24774Y-30266D01*
X24638Y-30294D01*
X23951Y-29819D01*
X23908Y-29602D01*
X23477Y-28957D01*
X22831Y-28526D01*
X22071Y-28374D01*
D02*
G37*
G36*
X50867Y-36735D02*
X50106Y-36886D01*
X49461Y-37317D01*
X49030Y-37962D01*
X48878Y-38723D01*
X49030Y-39484D01*
X49461Y-40129D01*
X50106Y-40560D01*
X50867Y-40711D01*
X51627Y-40560D01*
X52272Y-40129D01*
X52703Y-39484D01*
X52855Y-38723D01*
X52703Y-37962D01*
X52272Y-37317D01*
X51627Y-36886D01*
X50867Y-36735D01*
D02*
G37*
G36*
X-16732Y-39145D02*
X-17493Y-39296D01*
X-18138Y-39727D01*
X-18569Y-40372D01*
X-18721Y-41133D01*
X-18569Y-41894D01*
X-18138Y-42538D01*
X-17493Y-42970D01*
X-16732Y-43121D01*
X-15971Y-42970D01*
X-15326Y-42538D01*
X-14895Y-41894D01*
X-14744Y-41133D01*
X-14895Y-40372D01*
X-15326Y-39727D01*
X-15971Y-39296D01*
X-16732Y-39145D01*
D02*
G37*
G36*
X47599Y-43339D02*
X46838Y-43491D01*
X46193Y-43922D01*
X45762Y-44567D01*
X45611Y-45328D01*
X45762Y-46089D01*
X46193Y-46734D01*
X46838Y-47165D01*
X47599Y-47316D01*
X48360Y-47165D01*
X49005Y-46734D01*
X49436Y-46089D01*
X49587Y-45328D01*
X49436Y-44567D01*
X49005Y-43922D01*
X48360Y-43491D01*
X47599Y-43339D01*
D02*
G37*
G36*
X-26575Y-47082D02*
X-27277Y-47222D01*
X-27872Y-47620D01*
X-28134Y-48011D01*
X-28136Y-48009D01*
X-28839Y-47870D01*
X-29541Y-48009D01*
X-30136Y-48407D01*
X-30534Y-49002D01*
X-30674Y-49705D01*
X-30534Y-50407D01*
X-30136Y-51002D01*
X-29541Y-51400D01*
X-28851Y-51538D01*
X-28763Y-51982D01*
X-28365Y-52577D01*
X-27769Y-52975D01*
X-27079Y-53112D01*
X-26991Y-53557D01*
X-26593Y-54152D01*
X-25998Y-54550D01*
X-25295Y-54690D01*
X-24593Y-54550D01*
X-23998Y-54152D01*
X-23600Y-53557D01*
X-23460Y-52854D01*
X-23600Y-52152D01*
X-23708Y-51991D01*
X-23407Y-51790D01*
X-23009Y-51195D01*
X-22870Y-50492D01*
X-23009Y-49790D01*
X-23407Y-49194D01*
X-24002Y-48797D01*
X-24705Y-48657D01*
X-24788Y-48673D01*
X-24879Y-48215D01*
X-25277Y-47620D01*
X-25872Y-47222D01*
X-26575Y-47082D01*
D02*
G37*
G36*
X43996Y-48996D02*
X43235Y-49147D01*
X42590Y-49578D01*
X42159Y-50223D01*
X42008Y-50984D01*
X42159Y-51745D01*
X42590Y-52390D01*
X43235Y-52821D01*
X43996Y-52973D01*
X44757Y-52821D01*
X45402Y-52390D01*
X45833Y-51745D01*
X45984Y-50984D01*
X45833Y-50223D01*
X45402Y-49578D01*
X44757Y-49147D01*
X43996Y-48996D01*
D02*
G37*
G36*
X-16929Y-54114D02*
X-17690Y-54265D01*
X-18335Y-54697D01*
X-18766Y-55342D01*
X-18917Y-56102D01*
X-18766Y-56863D01*
X-18335Y-57508D01*
X-17690Y-57939D01*
X-16929Y-58091D01*
X-16168Y-57939D01*
X-15654Y-57596D01*
X-14989Y-57511D01*
X-14344Y-57942D01*
X-13583Y-58093D01*
X-12822Y-57942D01*
X-12178Y-57511D01*
X-11746Y-56866D01*
X-11595Y-56105D01*
X-11746Y-55344D01*
X-12178Y-54699D01*
X-12822Y-54268D01*
X-13583Y-54117D01*
X-14344Y-54268D01*
X-14858Y-54612D01*
X-15523Y-54697D01*
X-16168Y-54265D01*
X-16929Y-54114D01*
D02*
G37*
G36*
X98Y-59035D02*
X-662Y-59187D01*
X-1307Y-59618D01*
X-1738Y-60263D01*
X-1890Y-61024D01*
X-1738Y-61784D01*
X-1592Y-62004D01*
X-1792Y-62487D01*
X-2437Y-62918D01*
X-2463Y-62957D01*
X-3196Y-63082D01*
X-3570Y-62832D01*
X-4331Y-62680D01*
X-5092Y-62832D01*
X-5737Y-63263D01*
X-6168Y-63908D01*
X-6319Y-64669D01*
X-6168Y-65429D01*
X-5737Y-66074D01*
X-5092Y-66505D01*
X-4331Y-66657D01*
X-3570Y-66505D01*
X-2925Y-66074D01*
X-2899Y-66035D01*
X-2165Y-65911D01*
X-1792Y-66161D01*
X-1031Y-66312D01*
X-270Y-66161D01*
X375Y-65729D01*
X806Y-65084D01*
X958Y-64324D01*
X806Y-63563D01*
X720Y-63434D01*
X997Y-62768D01*
X1504Y-62429D01*
X1935Y-61784D01*
X2087Y-61024D01*
X1935Y-60263D01*
X1504Y-59618D01*
X859Y-59187D01*
X98Y-59035D01*
D02*
G37*
%LPD*%
D13*
X23312Y-78634D02*
D03*
X19128Y-79755D02*
D03*
X21630Y-72359D02*
D03*
X17447Y-73480D02*
D03*
X-23312Y78634D02*
D03*
X-19128Y79755D02*
D03*
X-21630Y72359D02*
D03*
X-17447Y73480D02*
D03*
D14*
X12848Y-81004D02*
D03*
X8555Y-81569D02*
D03*
X12000Y-74564D02*
D03*
X7707Y-75129D02*
D03*
X-12848Y81004D02*
D03*
X-8555Y81569D02*
D03*
X-12000Y74564D02*
D03*
X-7707Y75129D02*
D03*
D15*
X2165Y-81988D02*
D03*
X-2165Y-81988D02*
D03*
X2165Y-75492D02*
D03*
X-2165D02*
D03*
X-2165Y81988D02*
D03*
X2165Y81988D02*
D03*
X-2165Y75492D02*
D03*
X2165D02*
D03*
D16*
X-8555Y-81569D02*
D03*
X-12848Y-81004D02*
D03*
X-7707Y-75129D02*
D03*
X-12000Y-74564D02*
D03*
X8555Y81569D02*
D03*
X12848Y81004D02*
D03*
X7707Y75129D02*
D03*
X12000Y74564D02*
D03*
D17*
X-19128Y-79755D02*
D03*
X-23312Y-78634D02*
D03*
X-17447Y-73480D02*
D03*
X-21630Y-72359D02*
D03*
X19128Y79755D02*
D03*
X23312Y78634D02*
D03*
X17447Y73480D02*
D03*
X21630Y72359D02*
D03*
D18*
X-29375Y-76576D02*
D03*
X-33376Y-74919D02*
D03*
X-26889Y-70574D02*
D03*
X-30890Y-68917D02*
D03*
X29375Y76576D02*
D03*
X33376Y74919D02*
D03*
X26889Y70574D02*
D03*
X30890Y68917D02*
D03*
D19*
X-39119Y-72087D02*
D03*
X-42869Y-69921D02*
D03*
X-35871Y-66461D02*
D03*
X-39621Y-64295D02*
D03*
X39119Y72087D02*
D03*
X42869Y69921D02*
D03*
X35871Y66461D02*
D03*
X39621Y64295D02*
D03*
D20*
X-48193Y-66364D02*
D03*
X-51629Y-63727D02*
D03*
X-44239Y-61210D02*
D03*
X-47675Y-58574D02*
D03*
X48193Y66364D02*
D03*
X51629Y63727D02*
D03*
X44239Y61210D02*
D03*
X47675Y58574D02*
D03*
D21*
X-56443Y-59505D02*
D03*
X-59505Y-56443D02*
D03*
X-51850Y-54912D02*
D03*
X-54912Y-51850D02*
D03*
X56443Y59505D02*
D03*
X59505Y56443D02*
D03*
X51850Y54912D02*
D03*
X54912Y51850D02*
D03*
D22*
X-63727Y-51629D02*
D03*
X-66364Y-48193D02*
D03*
X-58574Y-47675D02*
D03*
X-61210Y-44239D02*
D03*
X63727Y51629D02*
D03*
X66364Y48193D02*
D03*
X58574Y47675D02*
D03*
X61210Y44239D02*
D03*
D23*
X-69921Y-42869D02*
D03*
X-72087Y-39119D02*
D03*
X-64295Y-39621D02*
D03*
X-66461Y-35871D02*
D03*
X69921Y42869D02*
D03*
X72087Y39119D02*
D03*
X64295Y39621D02*
D03*
X66461Y35871D02*
D03*
D24*
X-74919Y-33376D02*
D03*
X-76576Y-29375D02*
D03*
X-68917Y-30890D02*
D03*
X-70574Y-26889D02*
D03*
X74919Y33376D02*
D03*
X76576Y29375D02*
D03*
X68917Y30890D02*
D03*
X70574Y26889D02*
D03*
D25*
X-78634Y-23312D02*
D03*
X-79755Y-19128D02*
D03*
X-72359Y-21630D02*
D03*
X-73480Y-17447D02*
D03*
X78634Y23312D02*
D03*
X79755Y19128D02*
D03*
X72359Y21630D02*
D03*
X73480Y17447D02*
D03*
D26*
X-81004Y-12848D02*
D03*
X-81569Y-8555D02*
D03*
X-74564Y-12000D02*
D03*
X-75129Y-7707D02*
D03*
X81004Y12848D02*
D03*
X81569Y8555D02*
D03*
X74564Y12000D02*
D03*
X75129Y7707D02*
D03*
D27*
X-81988Y-2165D02*
D03*
X-81988Y2165D02*
D03*
X-75492Y-2165D02*
D03*
Y2165D02*
D03*
X81988Y2165D02*
D03*
X81988Y-2165D02*
D03*
X75492Y2165D02*
D03*
Y-2165D02*
D03*
D28*
X-81569Y8555D02*
D03*
X-81004Y12848D02*
D03*
X-75129Y7707D02*
D03*
X-74564Y12000D02*
D03*
X81569Y-8555D02*
D03*
X81004Y-12848D02*
D03*
X75129Y-7707D02*
D03*
X74564Y-12000D02*
D03*
D29*
X-79755Y19128D02*
D03*
X-78634Y23312D02*
D03*
X-73480Y17447D02*
D03*
X-72359Y21630D02*
D03*
X79755Y-19128D02*
D03*
X78634Y-23312D02*
D03*
X73480Y-17447D02*
D03*
X72359Y-21630D02*
D03*
D30*
X-76576Y29375D02*
D03*
X-74919Y33376D02*
D03*
X-70574Y26889D02*
D03*
X-68917Y30890D02*
D03*
X76576Y-29375D02*
D03*
X74919Y-33376D02*
D03*
X70574Y-26889D02*
D03*
X68917Y-30890D02*
D03*
D31*
X-72087Y39119D02*
D03*
X-69921Y42869D02*
D03*
X-66461Y35871D02*
D03*
X-64295Y39621D02*
D03*
X72087Y-39119D02*
D03*
X69921Y-42869D02*
D03*
X66461Y-35871D02*
D03*
X64295Y-39621D02*
D03*
D32*
X-66364Y48193D02*
D03*
X-63727Y51629D02*
D03*
X-61210Y44239D02*
D03*
X-58574Y47675D02*
D03*
X66364Y-48193D02*
D03*
X63727Y-51629D02*
D03*
X61210Y-44239D02*
D03*
X58574Y-47675D02*
D03*
D33*
X-59505Y56443D02*
D03*
X-56443Y59505D02*
D03*
X-54912Y51850D02*
D03*
X-51850Y54912D02*
D03*
X59505Y-56443D02*
D03*
X56443Y-59505D02*
D03*
X54912Y-51850D02*
D03*
X51850Y-54912D02*
D03*
D34*
X-51629Y63727D02*
D03*
X-48193Y66364D02*
D03*
X-47675Y58574D02*
D03*
X-44239Y61210D02*
D03*
X51629Y-63727D02*
D03*
X48193Y-66364D02*
D03*
X47675Y-58574D02*
D03*
X44239Y-61210D02*
D03*
D35*
X-42869Y69921D02*
D03*
X-39119Y72087D02*
D03*
X-39621Y64295D02*
D03*
X-35871Y66461D02*
D03*
X42869Y-69921D02*
D03*
X39119Y-72087D02*
D03*
X39621Y-64295D02*
D03*
X35871Y-66461D02*
D03*
D36*
X-33376Y74919D02*
D03*
X-29375Y76576D02*
D03*
X-30890Y68917D02*
D03*
X-26889Y70574D02*
D03*
X33376Y-74919D02*
D03*
X29375Y-76576D02*
D03*
X30890Y-68917D02*
D03*
X26889Y-70574D02*
D03*
D63*
X76360Y17281D02*
G03*
X75570Y17447I-790J-1793D01*
G01*
X77049Y16423D02*
G03*
X76360Y17281I-1176J-238D01*
G01*
X78329Y8035D02*
G03*
X77049Y16423I-85819J-8804D01*
G01*
X78707Y-2258D02*
G03*
X78329Y8035I-78707J2258D01*
G01*
X77739Y-12512D02*
G03*
X78707Y-2258I-77739J12512D01*
G01*
X75441Y-22552D02*
G03*
X77739Y-12512I-75441J22552D01*
G01*
X71852Y-32206D02*
G03*
X75441Y-22552I-71852J32206D01*
G01*
X67034Y-41309D02*
G03*
X71852Y-32206I-67034J41309D01*
G01*
X61068Y-49705D02*
G03*
X67034Y-41309I-61068J49705D01*
G01*
X54058Y-57251D02*
G03*
X61068Y-49705I-54058J57251D01*
G01*
X46123Y-63817D02*
G03*
X54058Y-57251I-46123J63817D01*
G01*
X37399Y-69291D02*
G03*
X46123Y-63817I-37399J69291D01*
G01*
X29537Y-73051D02*
G03*
X37399Y-69291I-34557J82354D01*
G01*
X27891Y-72731D02*
G03*
X29531Y-73054I1061J1061D01*
G01*
X26889Y-71232D02*
G03*
X27240Y-72080I1200J0D01*
G01*
X-17281Y76360D02*
G03*
X-17447Y75570I1793J-790D01*
G01*
X-16423Y77049D02*
G03*
X-17281Y76360I238J-1176D01*
G01*
X-8035Y78329D02*
G03*
X-16423Y77049I8804J-85819D01*
G01*
X12512Y77739D02*
G03*
X2258Y78707I-12512J-77739D01*
G01*
X22552Y75441D02*
G03*
X12512Y77739I-22552J-75441D01*
G01*
X32206Y71852D02*
G03*
X22552Y75441I-32206J-71852D01*
G01*
X41309Y67034D02*
G03*
X32206Y71852I-41309J-67034D01*
G01*
X49705Y61068D02*
G03*
X41309Y67034I-49705J-61068D01*
G01*
X57251Y54058D02*
G03*
X49705Y61068I-57251J-54058D01*
G01*
X63817Y46123D02*
G03*
X57251Y54058I-63817J-46123D01*
G01*
X69291Y37399D02*
G03*
X63817Y46123I-69291J-37399D01*
G01*
X73051Y29537D02*
G03*
X69291Y37399I-82354J-34557D01*
G01*
X72731Y27891D02*
G03*
X73054Y29531I-1061J1061D01*
G01*
X71232Y26889D02*
G03*
X72080Y27240I0J1200D01*
G01*
X-26889Y71232D02*
G03*
X-27240Y72080I-1200J0D01*
G01*
X-27891Y72731D02*
G03*
X-29531Y73054I-1061J-1061D01*
G01*
X-29537Y73051D02*
G03*
X-37399Y69291I34558J-82354D01*
G01*
X-37399Y69291D02*
G03*
X-46123Y63817I37399J-69291D01*
G01*
D02*
G03*
X-54058Y57251I46123J-63817D01*
G01*
D02*
G03*
X-61068Y49705I54058J-57251D01*
G01*
D02*
G03*
X-67034Y41309I61068J-49705D01*
G01*
D02*
G03*
X-71852Y32206I67034J-41309D01*
G01*
D02*
G03*
X-75441Y22552I71852J-32206D01*
G01*
Y22552D02*
G03*
X-77739Y12512I75441J-22552D01*
G01*
Y12512D02*
G03*
X-78707Y2258I77739J-12512D01*
G01*
D02*
G03*
X-78329Y-8035I78707J-2258D01*
G01*
X16418Y-77050D02*
G03*
X17048Y-76705I-235J1177D01*
G01*
Y-76705D02*
G03*
X17284Y-76353I-862J835D01*
G01*
X17285Y-76350D02*
G03*
X17447Y-75570I-1798J780D01*
G01*
X8035Y-78329D02*
G03*
X16418Y-77050I-8804J85819D01*
G01*
X-2258Y-78707D02*
G03*
X8035Y-78329I2258J78707D01*
G01*
X-12512Y-77739D02*
G03*
X-2258Y-78707I12512J77739D01*
G01*
X-22552Y-75441D02*
G03*
X-12512Y-77739I22552J75441D01*
G01*
X-32206Y-71852D02*
G03*
X-22552Y-75441I32206J71852D01*
G01*
X-41309Y-67034D02*
G03*
X-32206Y-71852I41309J67034D01*
G01*
X-49705Y-61068D02*
G03*
X-41309Y-67034I49705J61068D01*
G01*
X-57251Y-54058D02*
G03*
X-49705Y-61068I57251J54058D01*
G01*
X-63817Y-46123D02*
G03*
X-57251Y-54058I63817J46123D01*
G01*
X-69291Y-37399D02*
G03*
X-63817Y-46123I69291J37399D01*
G01*
X-73051Y-29537D02*
G03*
X-69291Y-37399I82354J34557D01*
G01*
X-72917Y-28376D02*
G03*
X-73052Y-29537I974J-701D01*
G01*
X-71232Y-26889D02*
G03*
X-72205Y-27388I0J-1200D01*
G01*
X42961Y59932D02*
G03*
X42605Y59073I859J-859D01*
G01*
X-68088Y25864D02*
G03*
X-70562Y26889I-2475J-2475D01*
G01*
X75174Y2034D02*
G03*
X75492Y2165I0J450D01*
G01*
X-74504Y-23923D02*
G03*
X-74759Y-24344I876J-820D01*
G01*
X-13070Y72324D02*
G03*
X-12919Y72907I-1049J583D01*
G01*
X-13232Y72033D02*
G03*
X-13381Y71543I1048J-585D01*
G01*
X-45811Y57999D02*
G03*
X-44965Y57650I846J851D01*
G01*
X-12568Y73997D02*
G03*
X-12919Y73148I848J-848D01*
G01*
X-24147Y74316D02*
G03*
X-23804Y73931I1046J588D01*
G01*
X-1304Y73606D02*
G03*
X-1017Y72827I1200J0D01*
G01*
X-1304Y74136D02*
G03*
X-1655Y74981I-1200J-2D01*
G01*
X-1655Y74981D02*
G03*
X-1665Y74992I-857J-840D01*
G01*
X-46035Y58223D02*
G03*
X-46882Y58574I-848J-849D01*
G01*
X-41949Y57644D02*
G03*
X-42067Y57650I-118J-1194D01*
G01*
X-52168Y48609D02*
G03*
X-52519Y49457I-1200J-0D01*
G01*
X73480Y17447D02*
X75570Y17447D01*
X75129Y7707D02*
X78329Y8035D01*
X78329D01*
X75492Y-2165D02*
X78707Y-2258D01*
X74564Y-12000D02*
X77739Y-12512D01*
X77739D01*
X75441Y-22552D02*
X75441D01*
X72359Y-21630D02*
X75441Y-22552D01*
X68917Y-30890D02*
X71852Y-32206D01*
X71852Y-32206D01*
X64295Y-39621D02*
X67034Y-41309D01*
X58574Y-47675D02*
X61068Y-49705D01*
X51850Y-54912D02*
X54058Y-57251D01*
X44239Y-61210D02*
X46123Y-63817D01*
X37399Y-69291D02*
Y-69291D01*
X35871Y-66461D02*
X37399Y-69291D01*
X37399Y-69291D01*
X27240Y-72080D02*
X27891Y-72731D01*
X26298Y-70640D02*
X26889Y-71232D01*
X26298Y-70640D02*
Y-68621D01*
X24026Y-66349D02*
X26298Y-68621D01*
X24026Y-66349D02*
Y-59143D01*
X29429Y-53740D01*
X31398D01*
X-17447Y75570D02*
X-17447Y73480D01*
X-8035Y78329D02*
X-7707Y75129D01*
X-8035Y78329D02*
X-7624Y78740D01*
X2225D01*
X2165Y75492D02*
X2258Y78707D01*
Y78707D01*
X2225Y78740D02*
X2258Y78707D01*
Y78707D02*
Y78707D01*
X12000Y74564D02*
X12512Y77739D01*
X21630Y72359D02*
X22552Y75441D01*
Y75441D01*
X30890Y68917D02*
X32206Y71852D01*
X32206Y71852D01*
X39621Y64295D02*
X41309Y67034D01*
X47675Y58574D02*
X49705Y61068D01*
X54912Y51850D02*
X57251Y54058D01*
X61210Y44239D02*
X63817Y46123D01*
X66461Y35871D02*
X69291Y37399D01*
X69291Y37399D01*
X69291Y37399D02*
X69291Y37399D01*
X73051Y29537D02*
X73054Y29531D01*
X72080Y27240D02*
X72731Y27891D01*
X70574Y26889D02*
X71232D01*
X70490D02*
X70574D01*
X68323Y24722D02*
X70490Y26889D01*
X68292Y24722D02*
X68323D01*
X-26889Y70574D02*
Y71232D01*
X-27240Y72080D02*
Y72080D01*
X-27891Y72731D02*
X-27240Y72080D01*
X-29537Y73051D02*
X-29531Y73054D01*
X-37399Y69291D02*
X-35871Y66461D01*
X-37399Y69291D02*
X-37399Y69291D01*
X-46123Y63817D02*
X-44239Y61210D01*
X-54058Y57251D02*
X-51850Y54912D01*
X-61068Y49705D02*
X-58574Y47675D01*
X-67034Y41309D02*
X-64295Y39621D01*
X-71852Y32206D02*
X-71852Y32206D01*
X-68917Y30890D01*
X-75441Y22552D02*
X-72359Y21630D01*
X-75441Y22552D02*
X-75441D01*
X-77739Y12512D02*
X-74564Y12000D01*
X-77739Y12512D02*
X-77739D01*
X-78707Y2258D02*
X-78707D01*
X-75492Y2165D01*
X-78329Y-8035D02*
X-78329Y-8035D01*
X-78329Y-8035D02*
X-78329Y-8035D01*
X-78329Y-8035D02*
Y-8035D01*
X-78329D01*
X-75129Y-7707D01*
X-76008Y-19114D02*
X-73480Y-17447D01*
X-78329Y-8035D02*
X-76902Y-17411D01*
X-76870Y-17618D02*
X-76120Y-19002D01*
X-76902Y-17411D02*
X-76870Y-17618D01*
X17447Y-73480D02*
X17447Y-75570D01*
X17284Y-76353D02*
X17285Y-76350D01*
X7707Y-75129D02*
X8035Y-78329D01*
Y-78329D02*
Y-78329D01*
X-2258Y-78707D02*
Y-78707D01*
X-2165Y-75492D01*
X-12512Y-77739D02*
Y-77739D01*
X-12000Y-74564D01*
X-22552Y-75441D02*
Y-75441D01*
X-21630Y-72359D01*
X-32206Y-71852D02*
X-30890Y-68917D01*
X-32206Y-71852D02*
X-32206Y-71852D01*
X-41309Y-67034D02*
X-39621Y-64295D01*
X-49705Y-61068D02*
X-47675Y-58574D01*
X-57251Y-54058D02*
X-54912Y-51850D01*
X-63817Y-46123D02*
X-63817Y-46123D01*
X-61210Y-44239D01*
X-69291Y-37399D02*
X-66461Y-35871D01*
X-69291Y-37399D02*
X-69291D01*
X-69291Y-37399D01*
X-72917Y-28376D02*
X-72205Y-27388D01*
X-70574Y-26889D02*
X-70469Y-26784D01*
X-71232Y-26889D02*
X-70574D01*
X-70469Y-26784D02*
Y-24667D01*
X-70401Y-24600D01*
X51629Y-63727D02*
X54497Y-67465D01*
X81988Y2165D02*
X86699Y2165D01*
X76576Y-29375D02*
X80928Y-31178D01*
X54497Y-67465D02*
Y-67465D01*
X79755Y-19128D02*
X84305Y-20348D01*
X81004Y12848D02*
X85675Y13463D01*
X59505Y-56443D02*
X62837Y-59774D01*
X44877Y-73398D02*
X45225Y-74001D01*
X66364Y-48193D02*
X70101Y-51061D01*
X72087Y-39119D02*
X76166Y-41474D01*
X42869Y-69921D02*
X44877Y-73398D01*
X81569Y-8555D02*
X86240Y-9170D01*
X55608Y-62985D02*
X56443Y-59505D01*
X42961Y59932D02*
X44239Y61210D01*
X-70574Y26889D02*
X-70562D01*
X68930Y-26122D02*
X70574Y-26889D01*
X56282Y46230D02*
X58574Y47675D01*
X-26759Y-79651D02*
X-26744D01*
X-26743Y-79651D01*
X-23312Y-78634D01*
X-66461Y35871D02*
X-64069Y34642D01*
X4921Y-72146D02*
X6480Y-71555D01*
X787Y-72638D02*
X2165Y-75492D01*
X-26889Y-70574D02*
X-25908Y-68452D01*
X-17447Y-73480D02*
X-16433Y-71605D01*
X-7707Y-75129D02*
X-7040Y-73325D01*
X-35871Y-66461D02*
X-34550Y-64192D01*
X-64295Y-39621D02*
X-61901Y-38381D01*
X-68917Y-30890D02*
X-66434Y-29857D01*
X-74564Y-12000D02*
X-71711Y-11506D01*
X-75492Y-2165D02*
X-72806Y-2034D01*
X-75129Y7707D02*
X-72462Y7360D01*
X-73480Y17447D02*
X-70852Y16879D01*
X72462Y-7360D02*
X75129Y-7707D01*
X64069Y-34642D02*
X66461Y-35871D01*
X45836Y-56603D02*
X47675Y-58574D01*
X38071Y-62035D02*
X39621Y-64295D01*
X29857Y-66434D02*
X30890Y-68917D01*
X-30890Y68917D02*
X-29857Y66434D01*
X25864Y68088D02*
X26889Y70574D01*
X34642Y64069D02*
X35871Y66461D01*
X66434Y29857D02*
X68917Y30890D01*
X71898Y11645D02*
X74564Y12000D01*
X72806Y2034D02*
X75174D01*
X-39621Y64295D02*
X-38381Y61901D01*
X-74504Y-23923D02*
X-72359Y-21630D01*
X-13381Y71543D02*
X-13381D01*
X-13232Y72033D02*
X-13070Y72324D01*
X12848Y-81004D02*
X13463Y-85675D01*
Y-85675D02*
Y-85675D01*
X-20348Y-84305D02*
X-19128Y-79755D01*
X-9170Y-86240D02*
X-8555Y-81569D01*
X-67465Y-54497D02*
X-63727Y-51629D01*
X-67465Y-54497D02*
X-67465D01*
X-74001Y-45225D02*
X-69921Y-42869D01*
X-74001Y-45225D02*
X-74001D01*
X-41474Y-76166D02*
X-39119Y-72087D01*
X-31178Y-80928D02*
X-29375Y-76576D01*
X-41474Y-76166D02*
Y-76166D01*
X-51061Y-70101D02*
X-48193Y-66364D01*
X-81960Y-17036D02*
X-79755Y-19128D01*
X-45225Y74001D02*
Y74001D01*
Y74001D02*
X-42869Y69921D01*
X-54497Y67465D02*
Y67465D01*
Y67465D02*
X-51629Y63727D01*
X-62837Y59774D02*
X-59505Y56443D01*
X-70101Y51061D02*
X-66364Y48193D01*
X-76166Y41474D02*
X-76166D01*
X-72087Y39119D01*
X-80928Y31178D02*
X-76576Y29375D01*
X-84305Y20348D02*
X-79755Y19128D01*
X-86240Y9170D02*
X-81569Y8555D01*
X-86699Y-2165D02*
X-81988Y-2165D01*
X-85512Y-13442D02*
X-81004Y-12848D01*
X-85512Y-13442D02*
X-85512D01*
X2165Y-86614D02*
Y-81988D01*
X-59099Y-62161D02*
X-56443Y-59505D01*
X-59665Y-62727D02*
X-59099Y-62161D01*
X-29375Y76576D02*
X-27272Y79471D01*
X-39119Y72087D02*
X-37411Y75232D01*
X-48193Y66364D02*
X-46911Y69705D01*
X-56443Y59506D02*
X-55608Y62985D01*
X-63727Y51629D02*
X-63354Y55188D01*
X-70015Y46447D02*
X-69921Y42869D01*
X-75479Y36911D02*
X-74919Y33376D01*
X-79651Y26743D02*
X-78634Y23312D01*
X-82460Y16118D02*
X-81004Y12848D01*
X-83858Y5217D02*
X-81988Y2165D01*
X-83822Y-5774D02*
X-81569Y-8555D01*
X-82224Y-17314D02*
Y-17300D01*
X-81960Y-17036D01*
X-75232Y-37411D02*
X-72087Y-39119D01*
X-44965Y57650D02*
X-42067Y57650D01*
X-46035Y58223D02*
X-45811Y57999D01*
X16665Y-82351D02*
X19128Y-79755D01*
X5774Y-83822D02*
X8555Y-81569D01*
X-5217Y-83858D02*
X-2165Y-81988D01*
X6480Y-71555D02*
X10728D01*
X12000Y-74564D02*
Y-72827D01*
X10728Y-71555D02*
X12000Y-72827D01*
X27272Y-79715D02*
Y-79471D01*
X72359Y21630D02*
X74512Y24210D01*
X-12568Y73997D02*
X-12000Y74564D01*
X-12919Y72907D02*
Y73148D01*
X-24147Y74316D02*
X-24147Y74316D01*
X-23804Y73931D02*
X-21630Y72359D01*
X-61210Y44239D02*
X-58924Y42811D01*
X67465Y54497D02*
X67465D01*
X63727Y51629D02*
X67465Y54497D01*
X48193Y66364D02*
X51061Y70101D01*
X41474Y76166D02*
Y76166D01*
X56443Y59505D02*
X59774Y62837D01*
X8555Y81569D02*
X9170Y86240D01*
X19128Y79755D02*
X20348Y84305D01*
X-2165Y86699D02*
X-2165Y81988D01*
X-13463Y85675D02*
X-12848Y81004D01*
X29375Y76576D02*
X31178Y80928D01*
X39119Y72087D02*
X41474Y76166D01*
X69921Y42869D02*
X73273Y44805D01*
X59506Y56443D02*
X62985Y55608D01*
X66364Y48193D02*
X69705Y46911D01*
X42869Y69921D02*
X46447Y70015D01*
X51629Y63727D02*
X55188Y63354D01*
X72087Y39119D02*
X75061Y37437D01*
X76576Y29375D02*
X79471Y27272D01*
X2165Y81988D02*
X5217Y83858D01*
X12848Y81004D02*
X16118Y82460D01*
X-8555Y81569D02*
X-5774Y83822D01*
X-19128Y79755D02*
X-16665Y82351D01*
X33376Y74919D02*
X36911Y75479D01*
X23312Y78634D02*
X26743Y79651D01*
X81569Y8555D02*
X83822Y5774D01*
X81988Y-2165D02*
X83858Y-5217D01*
X79755Y19128D02*
X82351Y16665D01*
X81004Y-12848D02*
X82460Y-16118D01*
X78634Y-23312D02*
X79651Y-26743D01*
X74919Y-33376D02*
X75479Y-36911D01*
X69921Y-42869D02*
X70015Y-46447D01*
X63354Y-55188D02*
X63727Y-51629D01*
X46911Y-69705D02*
X48193Y-66364D01*
X37407Y-75223D02*
X39119Y-72087D01*
X27272Y-79471D02*
X29375Y-76576D01*
X-1017Y72827D02*
X-1017Y72827D01*
X-1655Y74981D02*
X-1655Y74981D01*
X-1304Y74136D02*
X-1304Y73606D01*
X7360Y72462D02*
X7707Y75129D01*
X-2165Y75492D02*
X-1665Y74992D01*
X21630Y-72359D02*
X24089Y-74137D01*
X-36911Y-75479D02*
X-33376Y-74919D01*
X63199Y39621D02*
X64295D01*
X62029Y38451D02*
X63199Y39621D01*
X59073Y-42605D02*
X61210Y-44239D01*
X-44239Y-61210D02*
X-42605Y-59073D01*
X-54912Y51850D02*
X-53013Y49951D01*
X-52519Y49457D01*
X-52168Y48609D02*
X-52168Y44399D01*
X-41877Y57638D02*
X-41874Y57635D01*
X-41949Y57644D02*
X-41877Y57638D01*
X-47675Y58574D02*
X-46882Y58574D01*
X-62985Y-55608D02*
X-59506Y-56443D01*
X-46447Y-70015D02*
X-42869Y-69921D01*
X-16118Y-82460D02*
X-12848Y-81004D01*
X-55188Y-63354D02*
X-51629Y-63727D01*
X-69705Y-46911D02*
X-66364Y-48193D01*
X-79471Y-27272D02*
X-76576Y-29375D01*
D64*
X70101Y-51061D02*
G03*
X76166Y-41474I-70101J51061D01*
G01*
X45225Y-74001D02*
G03*
X54497Y-67465I-45225J74001D01*
G01*
X86699Y2165D02*
G03*
X85675Y13463I-86699J-2165D01*
G01*
X76166Y-41474D02*
G03*
X80928Y-31178I-76166J41474D01*
G01*
X85675Y13463D02*
G03*
X84137Y21035I-85675J-13463D01*
G01*
X80928Y-31178D02*
G03*
X84305Y-20348I-80928J31178D01*
G01*
X54497Y-67465D02*
G03*
X62837Y-59774I-54497J67465D01*
G01*
X84305Y-20348D02*
G03*
X86240Y-9170I-84305J20348D01*
G01*
D02*
G03*
X86699Y2165I-86240J9170D01*
G01*
X62837Y-59774D02*
G03*
X70101Y-51061I-62837J59774D01*
G01*
X39763Y-77073D02*
G03*
X45225Y-74001I-39763J77073D01*
G01*
X74001Y45225D02*
G03*
X67465Y54497I-74001J-45225D01*
G01*
X13463Y-85675D02*
G03*
X22656Y-83715I-13463J85675D01*
G01*
X2165Y-86699D02*
G03*
X13463Y-85675I-2165J86699D01*
G01*
X-20348Y-84305D02*
G03*
X-9170Y-86240I20348J84305D01*
G01*
D02*
G03*
X2165Y-86699I9170J86240D01*
G01*
X-78467Y-36937D02*
G03*
X-74001Y-45225I78467J36937D01*
G01*
X-51061Y-70101D02*
G03*
X-41474Y-76166I51061J70101D01*
G01*
D02*
G03*
X-31178Y-80928I41474J76166D01*
G01*
D02*
G03*
X-20348Y-84305I31178J80928D01*
G01*
X-74001Y-45225D02*
G03*
X-67465Y-54497I74001J45225D01*
G01*
D02*
G03*
X-59774Y-62837I67465J54497D01*
G01*
D02*
G03*
X-51061Y-70101I59774J62837D01*
G01*
X-37154Y78365D02*
G03*
X-45225Y74001I37154J-78365D01*
G01*
D02*
G03*
X-54497Y67465I45225J-74001D01*
G01*
D02*
G03*
X-62837Y59774I54497J-67465D01*
G01*
D02*
G03*
X-70101Y51061I62837J-59774D01*
G01*
D02*
G03*
X-76166Y41474I70101J-51061D01*
G01*
D02*
G03*
X-80928Y31178I76166J-41474D01*
G01*
D02*
G03*
X-84305Y20348I80928J-31178D01*
G01*
D02*
G03*
X-86240Y9170I84305J-20348D01*
G01*
D02*
G03*
X-86699Y-2165I86240J-9170D01*
G01*
X-82754Y-23485D02*
G03*
X-81290Y-23943I1117J1001D01*
G01*
X-86699Y-2165D02*
G03*
X-85675Y-13463I86699J2165D01*
G01*
X-83982Y-21848D02*
G03*
X-83650Y-22481I1456J359D01*
G01*
X-85675Y-13463D02*
G03*
X-83982Y-21848I97500J15322D01*
G01*
X67465Y54497D02*
G03*
X59774Y62837I-67465J-54497D01*
G01*
D02*
G03*
X51061Y70101I-59774J-62837D01*
G01*
D02*
G03*
X41474Y76166I-51061J-70101D01*
G01*
X77169Y35476D02*
G03*
X77631Y36358I-1022J1098D01*
G01*
X20348Y84305D02*
G03*
X9170Y86240I-20348J-84305D01*
G01*
D02*
G03*
X-2165Y86699I-9170J-86240D01*
G01*
D02*
G03*
X-13463Y85675I2165J-86699D01*
G01*
X31178Y80928D02*
G03*
X20348Y84305I-31178J-80928D01*
G01*
X-13463Y85675D02*
G03*
X-21480Y84024I13463J-85675D01*
G01*
X-21480Y84024D02*
G03*
X-22443Y83261I368J-1454D01*
G01*
X-23566Y81101D02*
G03*
X-23683Y80021I1331J-692D01*
G01*
X41474Y76166D02*
G03*
X31178Y80928I-41474J-76166D01*
G01*
X77825Y37671D02*
G03*
X77685Y38555I-1484J218D01*
G01*
X77685Y38555D02*
G03*
X74001Y45225I-77685J-38555D01*
G01*
X34264Y-76952D02*
X36708Y-78574D01*
X39763Y-77073D01*
X80909Y23921D02*
X84137Y21035D01*
X33376Y-74919D02*
X34264Y-76952D01*
X78634Y23312D02*
X80909Y23921D01*
X74919Y33376D02*
X77169Y35476D01*
X22656Y-83715D02*
X24010Y-81579D01*
X-37154Y78365D02*
X-34255Y77041D01*
X-81290Y-23943D02*
X-80991Y-23872D01*
X-83650Y-22481D02*
X-82754Y-23485D01*
X-83982Y-21848D02*
X-83982D01*
X23312Y-78634D02*
X23864Y-80964D01*
X24010Y-81579D01*
X-78187Y-34730D02*
X-74919Y-33376D01*
X-78759Y-35840D02*
X-78187Y-34730D01*
X-78809Y-35855D02*
X-78759Y-35840D01*
X-34255Y77041D02*
X-33376Y74919D01*
X-80991Y-23872D02*
X-78634Y-23312D01*
X52920Y-50044D02*
X54912Y-51850D01*
X-21480Y84024D02*
X-21480Y84024D01*
X-23566Y81101D02*
X-22443Y83261D01*
X-23683Y80021D02*
X-23312Y78634D01*
X77631Y36358D02*
X77825Y37671D01*
X-54912Y51850D02*
X-52920Y50044D01*
X49859Y53094D02*
X51850Y54912D01*
X-51850Y-54912D02*
X-50044Y-52920D01*
X-58574Y-47675D02*
X-56282Y-46230D01*
D65*
X70852Y-16879D02*
X73480Y-17447D01*
X16632Y70910D02*
X17447Y73480D01*
D66*
X0Y0D02*
D03*
D67*
X76772Y76772D02*
D03*
Y-76772D02*
D03*
X-76772D02*
D03*
Y76772D02*
D03*
D68*
X77165Y15354D02*
D03*
X31398Y-53740D02*
D03*
X68292Y24722D02*
D03*
X-76008Y-19114D02*
D03*
X27534Y-34064D02*
D03*
X30709Y-35433D02*
D03*
X55608Y-62985D02*
D03*
X52458Y8121D02*
D03*
X56561Y-4154D02*
D03*
X56471Y-21226D02*
D03*
X54037Y40498D02*
D03*
X40945Y48819D02*
D03*
X45161Y47757D02*
D03*
X47599Y-45328D02*
D03*
X54651Y-29550D02*
D03*
X68930Y-26122D02*
D03*
X50867Y-38723D02*
D03*
X70852Y-16879D02*
D03*
X56282Y46230D02*
D03*
X18898Y57087D02*
D03*
X13508Y56694D02*
D03*
X5333Y56427D02*
D03*
X-26759Y-79651D02*
D03*
X-78809Y-35855D02*
D03*
X-27272Y79471D02*
D03*
X-37411Y75232D02*
D03*
X-46911Y69705D02*
D03*
X-55608Y62985D02*
D03*
X-63354Y55188D02*
D03*
X-70015Y46447D02*
D03*
X-75479Y36911D02*
D03*
X-79651Y26743D02*
D03*
X-82460Y16118D02*
D03*
X-83858Y5217D02*
D03*
X-82224Y-17314D02*
D03*
X-83822Y-5774D02*
D03*
X24774Y-32255D02*
D03*
X-85541Y-13217D02*
D03*
X22071Y-30363D02*
D03*
X-66434Y-29857D02*
D03*
X-74759Y-24344D02*
D03*
X26576Y-62477D02*
D03*
X29429Y-60640D02*
D03*
X-1031Y-64324D02*
D03*
X787Y-72638D02*
D03*
X-75232Y-37411D02*
D03*
X38071Y-62035D02*
D03*
X34480Y-56267D02*
D03*
X34252Y-59646D02*
D03*
X43996Y-50984D02*
D03*
X66434Y29857D02*
D03*
X4921Y-72146D02*
D03*
X98Y-61024D02*
D03*
X16665Y-82351D02*
D03*
X5774Y-83822D02*
D03*
X-5217Y-83858D02*
D03*
X29857Y-66434D02*
D03*
X38484Y-51476D02*
D03*
X35138Y-52658D02*
D03*
X-4331Y-64669D02*
D03*
X-7040Y-73325D02*
D03*
X47213Y14992D02*
D03*
X-34550Y-64192D02*
D03*
X27272Y-79715D02*
D03*
X-16732Y-41133D02*
D03*
X-39665Y21161D02*
D03*
X-42028Y19291D02*
D03*
X-45079Y18996D02*
D03*
X-43701Y16535D02*
D03*
X-40945D02*
D03*
X-38976Y18504D02*
D03*
X-46457Y16535D02*
D03*
X-37008Y20472D02*
D03*
X-25908Y-68452D02*
D03*
X-13583Y-56105D02*
D03*
X-16929Y-56102D02*
D03*
X-16433Y-71605D02*
D03*
X52920Y-50044D02*
D03*
X45836Y-56603D02*
D03*
X74512Y24210D02*
D03*
X72806Y2034D02*
D03*
X24089Y-74137D02*
D03*
X-71711Y-11506D02*
D03*
X-58924Y42811D02*
D03*
X74001Y45225D02*
D03*
X62985Y55608D02*
D03*
X69705Y46911D02*
D03*
X46447Y70015D02*
D03*
X55188Y63354D02*
D03*
X75061Y37437D02*
D03*
X79471Y27272D02*
D03*
X5217Y83858D02*
D03*
X16118Y82460D02*
D03*
X-5774Y83822D02*
D03*
X-16665Y82351D02*
D03*
X36911Y75479D02*
D03*
X26743Y79651D02*
D03*
X45225Y-74001D02*
D03*
X83822Y5774D02*
D03*
X83858Y-5217D02*
D03*
X82351Y16665D02*
D03*
X82460Y-16118D02*
D03*
X79651Y-26743D02*
D03*
X75479Y-36911D02*
D03*
X70015Y-46447D02*
D03*
X63354Y-55188D02*
D03*
X46911Y-69705D02*
D03*
X37407Y-75223D02*
D03*
X7360Y72462D02*
D03*
X72462Y-7360D02*
D03*
X-72462Y7360D02*
D03*
X-56194Y6101D02*
D03*
X-1017Y72827D02*
D03*
X-1152Y54918D02*
D03*
X54831Y1376D02*
D03*
X-54394Y-1924D02*
D03*
X-72806Y-2034D02*
D03*
X-4075Y52757D02*
D03*
X71898Y11645D02*
D03*
X-13381Y71543D02*
D03*
X-52434Y-8122D02*
D03*
X-24147Y74316D02*
D03*
X-36911Y-75479D02*
D03*
X57126Y-12738D02*
D03*
X25864Y68088D02*
D03*
X-68088Y25864D02*
D03*
X-55909Y22285D02*
D03*
X34642Y64069D02*
D03*
X30310Y54233D02*
D03*
X64069Y-34642D02*
D03*
X-64069Y34642D02*
D03*
X-54324Y29865D02*
D03*
X42605Y59073D02*
D03*
X59073Y-42605D02*
D03*
X-53050Y35523D02*
D03*
X-42605Y-59073D02*
D03*
X-29857Y66434D02*
D03*
X61004Y38164D02*
D03*
X-38381Y61901D02*
D03*
X-61901Y-38381D02*
D03*
X-52168Y44399D02*
D03*
X-41874Y57635D02*
D03*
X49859Y53094D02*
D03*
X16632Y70910D02*
D03*
X-56671Y14069D02*
D03*
X-70852Y16879D02*
D03*
X-50044Y-52920D02*
D03*
X-56282Y-46230D02*
D03*
X-62985Y-55608D02*
D03*
X-46447Y-70015D02*
D03*
X-16118Y-82460D02*
D03*
X-55188Y-63354D02*
D03*
X-69705Y-46911D02*
D03*
X-79471Y-27272D02*
D03*
D69*
X-70401Y-24600D02*
D03*
X29134Y31890D02*
D03*
X25591Y33071D02*
D03*
X12992Y42520D02*
D03*
X38978Y-33762D02*
D03*
X-6004Y-30610D02*
D03*
X197Y-30709D02*
D03*
X-2756Y-30610D02*
D03*
X0Y-39370D02*
D03*
X-17224Y-25295D02*
D03*
X21626Y-65847D02*
D03*
X-13655Y40309D02*
D03*
X-22817Y-27065D02*
D03*
X18406Y-64862D02*
D03*
X18209Y-69193D02*
D03*
X-29331Y43898D02*
D03*
X-80315Y-32677D02*
D03*
X-37402Y1575D02*
D03*
X-31890Y-9843D02*
D03*
X-29921Y-15748D02*
D03*
X-33858Y-3937D02*
D03*
X-33465Y5512D02*
D03*
X37795Y-25591D02*
D03*
X26378Y-19685D02*
D03*
X33465Y-7874D02*
D03*
X35433Y5512D02*
D03*
X31496Y17717D02*
D03*
X23622Y23622D02*
D03*
X15748Y29528D02*
D03*
X-11811D02*
D03*
X-3150Y39764D02*
D03*
X-2756Y47244D02*
D03*
X-25984Y37402D02*
D03*
X-24016Y38583D02*
D03*
X-16535Y32446D02*
D03*
X-27165Y44882D02*
D03*
X-27953Y-42913D02*
D03*
X5297Y22215D02*
D03*
X10656Y20200D02*
D03*
X15344Y16915D02*
D03*
X19069Y12568D02*
D03*
X21595Y7431D02*
D03*
X22765Y1827D02*
D03*
X22504Y-3892D02*
D03*
X20829Y-9366D02*
D03*
X17845Y-14252D02*
D03*
X13740Y-18242D02*
D03*
X8772Y-21086D02*
D03*
X3252Y-22605D02*
D03*
X-2471Y-22704D02*
D03*
X-8040Y-21376D02*
D03*
X-13103Y-18705D02*
D03*
X-17344Y-14859D02*
D03*
X-20494Y-10079D02*
D03*
X-22356Y-4665D02*
D03*
X-22814Y1041D02*
D03*
X-21839Y6682D02*
D03*
X-19491Y11903D02*
D03*
X-15918Y16376D02*
D03*
X-11346Y19820D02*
D03*
X-6060Y22019D02*
D03*
X-394Y22835D02*
D03*
X-49213Y-5906D02*
D03*
X-48228Y-16732D02*
D03*
X-33071Y-44882D02*
D03*
X33465Y-46260D02*
D03*
X18701Y-48228D02*
D03*
X31890Y-80315D02*
D03*
X21555Y-68405D02*
D03*
X19488Y-67126D02*
D03*
X-9449Y33465D02*
D03*
X3937Y39370D02*
D03*
Y47244D02*
D03*
X15748Y-47244D02*
D03*
X-31102Y80709D02*
D03*
X80709Y31102D02*
D03*
X52362Y-24409D02*
D03*
X52756Y-7874D02*
D03*
X-49213Y-11811D02*
D03*
X36285Y-36150D02*
D03*
X-7087Y46021D02*
D03*
X-45037Y6143D02*
D03*
X-44650Y1476D02*
D03*
X32677Y-63779D02*
D03*
X-24409Y-39370D02*
D03*
X33590Y-15906D02*
D03*
X0Y-47244D02*
D03*
X19685Y-45276D02*
D03*
X3937Y-43307D02*
D03*
X-3937D02*
D03*
X3937Y-51181D02*
D03*
X0Y-55118D02*
D03*
X-3937Y-51181D02*
D03*
X-7874Y-47244D02*
D03*
X7874D02*
D03*
X41339Y-45669D02*
D03*
X-37795Y-42520D02*
D03*
X38583Y17717D02*
D03*
X-36220Y36220D02*
D03*
Y39370D02*
D03*
X-22441Y25984D02*
D03*
X-29528Y24409D02*
D03*
X-11243Y43272D02*
D03*
X-40276Y-6937D02*
D03*
X-41676Y-3937D02*
D03*
X-27559Y14961D02*
D03*
X-26575Y-48917D02*
D03*
X-24705Y-50492D02*
D03*
X-28839Y-49705D02*
D03*
X-27067Y-51279D02*
D03*
X-25295Y-52854D02*
D03*
X-20768Y-56791D02*
D03*
X-23130Y-55413D02*
D03*
X11811Y46457D02*
D03*
D70*
X84465Y77684D02*
D03*
X83578Y72898D02*
D03*
X80047Y69547D02*
D03*
X75221Y68911D02*
D03*
X70942Y71234D02*
D03*
X68846Y75627D02*
D03*
X69733Y80414D02*
D03*
X73264Y83765D02*
D03*
X78091Y84401D02*
D03*
X82369Y82078D02*
D03*
X77684Y-84465D02*
D03*
X72898Y-83578D02*
D03*
X69547Y-80047D02*
D03*
X68911Y-75221D02*
D03*
X71234Y-70942D02*
D03*
X75627Y-68846D02*
D03*
X80414Y-69733D02*
D03*
X83765Y-73264D02*
D03*
X84401Y-78091D02*
D03*
X82078Y-82369D02*
D03*
X-84465Y-77684D02*
D03*
X-83578Y-72898D02*
D03*
X-80047Y-69547D02*
D03*
X-75221Y-68911D02*
D03*
X-70942Y-71234D02*
D03*
X-68846Y-75627D02*
D03*
X-69733Y-80414D02*
D03*
X-73264Y-83765D02*
D03*
X-78091Y-84401D02*
D03*
X-82369Y-82078D02*
D03*
X-82078Y82369D02*
D03*
X-84401Y78091D02*
D03*
X-83765Y73264D02*
D03*
X-80414Y69733D02*
D03*
X-75627Y68846D02*
D03*
X-71234Y70942D02*
D03*
X-68911Y75221D02*
D03*
X-69547Y80047D02*
D03*
X-72898Y83578D02*
D03*
X-77684Y84465D02*
D03*
M02*
