G04*
G04 #@! TF.GenerationSoftware,Altium Limited,Altium Designer,20.1.11 (218)*
G04*
G04 Layer_Physical_Order=3*
G04 Layer_Color=16440176*
%FSLAX25Y25*%
%MOIN*%
G70*
G04*
G04 #@! TF.SameCoordinates,A89DC92D-1D16-4819-8E46-697129492B70*
G04*
G04*
G04 #@! TF.FilePolarity,Positive*
G04*
G01*
G75*
%ADD63C,0.01200*%
%ADD64C,0.01500*%
%ADD68C,0.02700*%
%ADD69C,0.02400*%
%ADD71C,0.01200*%
%ADD72C,0.00800*%
G36*
X5754Y87785D02*
X11483Y87221D01*
X17163Y86283D01*
X22769Y84976D01*
X28278Y83305D01*
X33666Y81277D01*
X38032Y79299D01*
X38032Y79299D01*
X38121Y79273D01*
X38649Y79055D01*
X38670Y79049D01*
X41637Y78194D01*
X42885Y77982D01*
X47011Y75600D01*
X51855Y72363D01*
X56476Y68817D01*
X60856Y64976D01*
X64976Y60856D01*
X68817Y56476D01*
X72363Y51855D01*
X75343Y47395D01*
X74910Y46962D01*
X74762Y47062D01*
X74001Y47213D01*
X73240Y47062D01*
X72595Y46631D01*
X72164Y45986D01*
X72013Y45225D01*
X72164Y44464D01*
X72595Y43819D01*
X73240Y43388D01*
X74001Y43237D01*
X74762Y43388D01*
X75407Y43819D01*
X75838Y44464D01*
X75976Y45159D01*
X76169Y45255D01*
X76574Y45323D01*
X77982Y42885D01*
X78194Y41637D01*
X79049Y38670D01*
X79055Y38649D01*
X79085Y38576D01*
X79298Y38032D01*
X79298Y38032D01*
X79544Y37490D01*
X81277Y33666D01*
X83305Y28278D01*
X84976Y22769D01*
X86283Y17163D01*
X87221Y11483D01*
X87785Y5754D01*
X87973Y0D01*
X87785Y-5754D01*
X87221Y-11483D01*
X86283Y-17163D01*
X84976Y-22769D01*
X83305Y-28278D01*
X81277Y-33666D01*
X79299Y-38032D01*
X79299Y-38032D01*
X79273Y-38121D01*
X79055Y-38649D01*
X79049Y-38670D01*
X78194Y-41637D01*
X77982Y-42885D01*
X75600Y-47011D01*
X72363Y-51855D01*
X68817Y-56476D01*
X64976Y-60856D01*
X60856Y-64976D01*
X56476Y-68817D01*
X51855Y-72363D01*
X47395Y-75343D01*
X46962Y-74910D01*
X47062Y-74762D01*
X47213Y-74001D01*
X47062Y-73240D01*
X46631Y-72595D01*
X45986Y-72164D01*
X45225Y-72013D01*
X44464Y-72164D01*
X43819Y-72595D01*
X43388Y-73240D01*
X43237Y-74001D01*
X43388Y-74762D01*
X43819Y-75407D01*
X44464Y-75838D01*
X45159Y-75976D01*
X45255Y-76169D01*
X45323Y-76574D01*
X42885Y-77982D01*
X41637Y-78194D01*
X38670Y-79049D01*
X38649Y-79055D01*
X38576Y-79085D01*
X38032Y-79298D01*
X38032Y-79298D01*
X37490Y-79544D01*
X33666Y-81277D01*
X28278Y-83305D01*
X22769Y-84976D01*
X17163Y-86283D01*
X11483Y-87221D01*
X5754Y-87785D01*
X0Y-87973D01*
X-5754Y-87785D01*
X-11483Y-87221D01*
X-17163Y-86283D01*
X-22769Y-84976D01*
X-28278Y-83305D01*
X-33666Y-81277D01*
X-38032Y-79299D01*
X-38032Y-79299D01*
X-38121Y-79273D01*
X-38649Y-79055D01*
X-38670Y-79049D01*
X-41637Y-78194D01*
X-42885Y-77982D01*
X-47011Y-75600D01*
X-51855Y-72363D01*
X-56476Y-68817D01*
X-60856Y-64976D01*
X-64976Y-60856D01*
X-68817Y-56476D01*
X-72363Y-51855D01*
X-75600Y-47011D01*
X-77982Y-42885D01*
X-78194Y-41637D01*
X-79049Y-38670D01*
X-79055Y-38649D01*
X-79164Y-38385D01*
X-78833Y-37881D01*
X-78784Y-37844D01*
X-78750Y-37832D01*
X-78048Y-37692D01*
X-77808Y-37532D01*
X-77141Y-37808D01*
X-77069Y-38172D01*
X-76638Y-38817D01*
X-75993Y-39248D01*
X-75232Y-39400D01*
X-74471Y-39248D01*
X-73826Y-38817D01*
X-73395Y-38172D01*
X-73243Y-37411D01*
X-73395Y-36651D01*
X-73826Y-36006D01*
X-74471Y-35575D01*
X-75232Y-35423D01*
X-75993Y-35575D01*
X-76233Y-35735D01*
X-76899Y-35459D01*
X-76972Y-35095D01*
X-77403Y-34450D01*
X-78048Y-34019D01*
X-78809Y-33867D01*
X-79570Y-34019D01*
X-80215Y-34450D01*
X-80293Y-34567D01*
X-80891Y-34518D01*
X-81277Y-33666D01*
X-83305Y-28278D01*
X-84976Y-22769D01*
X-86283Y-17163D01*
X-86548Y-15556D01*
X-86014Y-15111D01*
X-85541Y-15205D01*
X-84780Y-15054D01*
X-84135Y-14623D01*
X-83704Y-13978D01*
X-83553Y-13217D01*
X-83704Y-12456D01*
X-84135Y-11811D01*
X-84780Y-11380D01*
X-85541Y-11229D01*
X-86302Y-11380D01*
X-86597Y-11577D01*
X-86842Y-11540D01*
X-87240Y-11285D01*
X-87785Y-5754D01*
X-87973Y0D01*
X-87785Y5754D01*
X-87221Y11483D01*
X-86283Y17163D01*
X-84976Y22769D01*
X-83305Y28278D01*
X-81277Y33666D01*
X-79299Y38032D01*
X-79299Y38032D01*
X-79273Y38121D01*
X-79055Y38649D01*
X-79049Y38670D01*
X-78194Y41637D01*
X-77982Y42885D01*
X-75600Y47011D01*
X-72363Y51855D01*
X-68817Y56476D01*
X-64976Y60856D01*
X-60856Y64976D01*
X-56476Y68817D01*
X-51855Y72363D01*
X-47011Y75600D01*
X-42885Y77982D01*
X-41637Y78194D01*
X-38670Y79049D01*
X-38649Y79055D01*
X-38576Y79085D01*
X-38032Y79298D01*
X-38032Y79298D01*
X-37490Y79544D01*
X-33666Y81277D01*
X-28278Y83305D01*
X-22769Y84976D01*
X-17163Y86283D01*
X-11483Y87221D01*
X-5754Y87785D01*
X0Y87973D01*
X5754Y87785D01*
D02*
G37*
%LPC*%
G36*
X5217Y85847D02*
X4456Y85695D01*
X3811Y85264D01*
X3380Y84619D01*
X3228Y83858D01*
X3380Y83097D01*
X3811Y82452D01*
X4456Y82021D01*
X5217Y81870D01*
X5977Y82021D01*
X6622Y82452D01*
X7053Y83097D01*
X7205Y83858D01*
X7053Y84619D01*
X6622Y85264D01*
X5977Y85695D01*
X5217Y85847D01*
D02*
G37*
G36*
X-5774Y85810D02*
X-6535Y85659D01*
X-7180Y85228D01*
X-7611Y84583D01*
X-7762Y83822D01*
X-7611Y83061D01*
X-7180Y82416D01*
X-6535Y81985D01*
X-5774Y81834D01*
X-5013Y81985D01*
X-4368Y82416D01*
X-3937Y83061D01*
X-3786Y83822D01*
X-3937Y84583D01*
X-4368Y85228D01*
X-5013Y85659D01*
X-5774Y85810D01*
D02*
G37*
G36*
X16118Y84448D02*
X15357Y84297D01*
X14712Y83866D01*
X14281Y83221D01*
X14129Y82460D01*
X14281Y81699D01*
X14712Y81054D01*
X15357Y80623D01*
X16118Y80472D01*
X16879Y80623D01*
X17524Y81054D01*
X17955Y81699D01*
X18106Y82460D01*
X17955Y83221D01*
X17524Y83866D01*
X16879Y84297D01*
X16118Y84448D01*
D02*
G37*
G36*
X-16665Y84339D02*
X-17426Y84188D01*
X-18071Y83757D01*
X-18502Y83112D01*
X-18654Y82351D01*
X-18502Y81590D01*
X-18071Y80945D01*
X-17426Y80514D01*
X-16665Y80363D01*
X-15904Y80514D01*
X-15259Y80945D01*
X-14829Y81590D01*
X-14677Y82351D01*
X-14829Y83112D01*
X-15259Y83757D01*
X-15904Y84188D01*
X-16665Y84339D01*
D02*
G37*
G36*
X26743Y81639D02*
X25982Y81488D01*
X25337Y81057D01*
X24906Y80412D01*
X24755Y79651D01*
X24906Y78890D01*
X25337Y78245D01*
X25982Y77814D01*
X26743Y77662D01*
X27504Y77814D01*
X28149Y78245D01*
X28580Y78890D01*
X28731Y79651D01*
X28580Y80412D01*
X28149Y81057D01*
X27504Y81488D01*
X26743Y81639D01*
D02*
G37*
G36*
X-27272Y81459D02*
X-28033Y81308D01*
X-28678Y80877D01*
X-29109Y80232D01*
X-29260Y79471D01*
X-29109Y78710D01*
X-28678Y78065D01*
X-28033Y77634D01*
X-27272Y77483D01*
X-26511Y77634D01*
X-25866Y78065D01*
X-25435Y78710D01*
X-25284Y79471D01*
X-25435Y80232D01*
X-25866Y80877D01*
X-26511Y81308D01*
X-27272Y81459D01*
D02*
G37*
G36*
X0Y78801D02*
X-5154Y78632D01*
X-10286Y78127D01*
X-15373Y77287D01*
X-20395Y76116D01*
X-22565Y75458D01*
X-22741Y75722D01*
X-23386Y76153D01*
X-24147Y76304D01*
X-24908Y76153D01*
X-25553Y75722D01*
X-25984Y75077D01*
X-26135Y74316D01*
X-30156Y72803D01*
X-34853Y70675D01*
X-39401Y68244D01*
X-43780Y65521D01*
X-47971Y62517D01*
X-51957Y59246D01*
X-55721Y55721D01*
X-59246Y51957D01*
X-62517Y47971D01*
X-65521Y43780D01*
X-68244Y39401D01*
X-70675Y34853D01*
X-72803Y30156D01*
X-74619Y25330D01*
X-76116Y20395D01*
X-77287Y15373D01*
X-78127Y10286D01*
X-78632Y5154D01*
X-78801Y0D01*
X-78632Y-5154D01*
X-78132Y-10231D01*
X-78132D01*
X-78127Y-10286D01*
X-78038Y-10823D01*
X-77566Y-13683D01*
X-77580Y-13700D01*
X-77580D01*
X-77418Y-14932D01*
X-76942Y-16080D01*
X-76530Y-16618D01*
X-76768Y-17276D01*
X-76776Y-17282D01*
X-77414Y-17708D01*
X-77845Y-18353D01*
X-77996Y-19114D01*
X-77845Y-19875D01*
X-77414Y-20520D01*
X-76769Y-20951D01*
X-76432Y-21018D01*
X-75947Y-21655D01*
X-76006Y-21954D01*
X-75983D01*
X-75983Y-21954D01*
Y-22816D01*
X-76165Y-22938D01*
X-76596Y-23583D01*
X-76748Y-24344D01*
X-76596Y-25105D01*
X-76165Y-25750D01*
X-75520Y-26181D01*
X-74759Y-26332D01*
X-74614Y-26303D01*
X-73399Y-27645D01*
X-71433Y-30295D01*
X-69736Y-33125D01*
X-68380Y-35993D01*
X-68374Y-36035D01*
X-68313Y-36184D01*
X-68114Y-36719D01*
X-68114Y-36720D01*
X-68113Y-36720D01*
X-65504Y-41119D01*
X-62447Y-45520D01*
X-59085Y-49693D01*
X-55434Y-53614D01*
X-55417Y-53597D01*
X-55417Y-53597D01*
X-53572Y-55441D01*
X-53165Y-55883D01*
X-52725Y-56292D01*
X-49286Y-59494D01*
X-45160Y-62819D01*
X-40807Y-65841D01*
X-36250Y-68545D01*
X-31511Y-70917D01*
X-26616Y-72945D01*
X-21588Y-74618D01*
X-16453Y-75929D01*
X-11238Y-76870D01*
X-5969Y-77436D01*
X-678Y-77625D01*
Y-77601D01*
X-678Y-77601D01*
X-678Y-77601D01*
X19074D01*
X19074Y-77601D01*
Y-77617D01*
X20662Y-77461D01*
X22189Y-76998D01*
X23596Y-76245D01*
X23810Y-76070D01*
X24089Y-76126D01*
X24849Y-75974D01*
X25495Y-75543D01*
X25925Y-74898D01*
X26077Y-74137D01*
X25925Y-73377D01*
X25495Y-72732D01*
X25437Y-72693D01*
Y-64728D01*
X26037Y-64358D01*
X26576Y-64465D01*
X27337Y-64314D01*
X27982Y-63883D01*
X28413Y-63238D01*
X28460Y-63001D01*
X28662Y-62493D01*
X29112Y-62565D01*
X29429Y-62628D01*
X30190Y-62477D01*
X30835Y-62046D01*
X31266Y-61401D01*
X31417Y-60640D01*
X31266Y-59879D01*
X30835Y-59234D01*
X30190Y-58803D01*
X29429Y-58652D01*
X28668Y-58803D01*
X28023Y-59234D01*
X27592Y-59879D01*
X27545Y-60116D01*
X27343Y-60624D01*
X26893Y-60552D01*
X26576Y-60489D01*
X26284Y-60547D01*
X25989Y-59994D01*
X28460Y-57523D01*
X32433D01*
X32900Y-58098D01*
X32890Y-58172D01*
X32845Y-58242D01*
X32415Y-58885D01*
X32264Y-59646D01*
X32415Y-60407D01*
X32846Y-61051D01*
X33491Y-61483D01*
X34252Y-61634D01*
X35013Y-61483D01*
X35658Y-61051D01*
X36089Y-60407D01*
X36240Y-59646D01*
X36089Y-58885D01*
X35800Y-58452D01*
X35844Y-57736D01*
X35887Y-57671D01*
X36317Y-57028D01*
X36468Y-56267D01*
X36317Y-55507D01*
X36028Y-55075D01*
X35951Y-54731D01*
X36157Y-54321D01*
X36544Y-54063D01*
X36921Y-53499D01*
X37139Y-53346D01*
X37530Y-53184D01*
X37723Y-53313D01*
X38484Y-53465D01*
X39245Y-53313D01*
X39890Y-52882D01*
X40321Y-52237D01*
X40472Y-51476D01*
X40321Y-50716D01*
X39890Y-50071D01*
X39245Y-49639D01*
X38484Y-49488D01*
X37723Y-49639D01*
X37078Y-50071D01*
X36701Y-50635D01*
X36483Y-50788D01*
X36092Y-50950D01*
X35899Y-50821D01*
X35138Y-50669D01*
X34377Y-50821D01*
X33732Y-51252D01*
X33301Y-51897D01*
X33283Y-51988D01*
X33176Y-52065D01*
X32626Y-52215D01*
X32158Y-51903D01*
X31398Y-51752D01*
X30637Y-51903D01*
X29992Y-52334D01*
X29561Y-52979D01*
X29409Y-53740D01*
X29556Y-54476D01*
X29565Y-54582D01*
X29252Y-55076D01*
X27953D01*
X27485Y-55169D01*
X27088Y-55434D01*
X24038Y-58483D01*
X23484Y-58254D01*
X23484Y-57086D01*
X23294Y-56627D01*
X2821Y-36155D01*
X2362Y-35965D01*
X-15356D01*
Y-33149D01*
X-15461Y-32622D01*
X-15759Y-32176D01*
X-15759Y-32176D01*
X-21009Y-26926D01*
X-21121Y-26362D01*
X-21519Y-25767D01*
X-21710Y-25640D01*
Y-13287D01*
X-21803Y-12819D01*
X-22068Y-12422D01*
X-25351Y-9139D01*
Y13658D01*
X-25444Y14126D01*
X-25710Y14523D01*
X-25794Y14607D01*
X-25724Y14961D01*
X-25864Y15663D01*
X-26030Y15913D01*
Y16117D01*
X-15562Y26586D01*
X-15562Y26586D01*
X-15264Y27032D01*
X-15159Y27559D01*
X-15159Y27559D01*
Y31266D01*
X-14840Y31743D01*
X-14700Y32446D01*
X-14840Y33148D01*
X-15238Y33743D01*
X-15833Y34141D01*
X-16535Y34281D01*
X-17238Y34141D01*
X-17833Y33743D01*
X-18231Y33148D01*
X-18371Y32446D01*
X-18231Y31743D01*
X-17912Y31266D01*
Y28129D01*
X-28380Y17661D01*
X-28425Y17594D01*
X-29186Y17506D01*
X-35368Y23688D01*
X-35827Y23878D01*
X-44437Y23878D01*
X-44499Y23931D01*
X-44760Y24478D01*
X-42076Y28985D01*
X-42040Y29087D01*
X-41654Y29717D01*
X-41074Y31118D01*
X-40833Y31640D01*
X-40831Y31645D01*
X-40577Y32189D01*
X-40252Y32797D01*
X-39806Y34268D01*
X-39725Y35087D01*
X-39647Y35643D01*
X-39640Y35660D01*
X-39471Y36191D01*
X-39399Y36364D01*
X-39192Y37230D01*
X-39142Y37336D01*
X-39011Y37869D01*
X-38849Y38419D01*
X-38845Y38428D01*
X-38663Y38982D01*
X-38288Y39889D01*
X-38091Y40706D01*
X-38090Y40711D01*
X-37919Y41237D01*
X-37908Y41264D01*
X-37914Y41285D01*
X-37302Y41897D01*
X-37279Y41891D01*
X-37255Y41901D01*
X-37255Y41901D01*
X-36745Y42109D01*
X-36734Y42113D01*
X-35604Y42497D01*
X-33681Y43445D01*
X-32398Y44302D01*
X-31928Y44595D01*
X-31928Y44595D01*
X-31921Y44598D01*
X-31675Y44715D01*
X-31381Y44852D01*
X-31146Y44949D01*
X-30660Y45107D01*
X-30559Y45138D01*
X-30558Y45139D01*
X-29998Y45320D01*
X-29407Y45564D01*
X-29109Y45682D01*
X-28614Y45851D01*
X-28611Y45852D01*
X-28061Y46065D01*
X-28004Y46083D01*
X-27753Y46189D01*
X-27200Y46408D01*
X-27179Y46415D01*
X-27163Y46420D01*
X-26633Y46646D01*
X-26620Y46676D01*
X-26578Y46687D01*
X-25993Y46810D01*
X-25993Y46810D01*
X-25421Y46975D01*
X-24682Y47122D01*
X-22206Y47963D01*
X-19860Y49119D01*
X-19355Y49457D01*
X-18838Y49743D01*
X-18832Y49745D01*
X-18486Y49862D01*
X-18283Y49929D01*
X-14712Y50936D01*
X-13844Y51109D01*
X-13844Y51109D01*
X-13420Y51171D01*
X-13315Y51203D01*
X-12728Y51328D01*
X-12692Y51335D01*
X-12692Y51336D01*
X-12106Y51454D01*
X-9859Y51901D01*
X-7403Y52192D01*
X-6828Y52253D01*
X-6827Y52253D01*
X-6283Y52283D01*
X-6273Y52284D01*
X-5969D01*
X-5912Y51996D01*
X-5481Y51351D01*
X-4836Y50920D01*
X-4075Y50769D01*
X-3314Y50920D01*
X-2669Y51351D01*
X-2598Y51458D01*
X-2131Y51265D01*
X-1152Y51136D01*
Y51126D01*
X140Y51296D01*
X962Y51636D01*
X1344Y51794D01*
X1494Y51875D01*
X1501Y51888D01*
X2062Y51885D01*
X2066Y51877D01*
X2273Y51758D01*
X2577Y51596D01*
X3350Y51183D01*
X4517Y50829D01*
X5731Y50709D01*
X6946Y50829D01*
X7865Y51108D01*
X8113Y51183D01*
X8412Y51297D01*
X8845Y50986D01*
X8875Y50962D01*
X9326Y50592D01*
X10110Y50173D01*
X10608Y49887D01*
X10608Y49885D01*
X10630Y49874D01*
X11032Y49673D01*
X11171Y49616D01*
X12825Y48931D01*
X14711Y48478D01*
X15494Y48416D01*
X16074Y48327D01*
X16082Y48324D01*
X16262Y48287D01*
X16685Y48196D01*
X17104Y48069D01*
X18898Y47892D01*
X20638Y48064D01*
X20642Y48062D01*
X21198Y47765D01*
X21778Y47290D01*
X21778Y47287D01*
X21780Y47282D01*
X21784Y47280D01*
X22198Y46871D01*
X22543Y46467D01*
X23854Y45347D01*
X25324Y44447D01*
X26916Y43787D01*
X28241Y43469D01*
X28592Y43385D01*
X28815Y43334D01*
X28834Y43340D01*
X29067Y43109D01*
X29469Y42667D01*
X29469Y42667D01*
X29512Y42667D01*
X30063Y42116D01*
X30060Y42083D01*
X30064Y42072D01*
X30064Y42072D01*
X30407Y41614D01*
X30598Y41302D01*
X31901Y39775D01*
X33427Y38472D01*
X33740Y38281D01*
X34198Y37938D01*
X34198Y37938D01*
X34209Y37934D01*
X34209Y37934D01*
X34242Y37938D01*
X34555Y37625D01*
X39436Y32744D01*
X39819Y32324D01*
X39823Y32313D01*
X40145Y31846D01*
X41133Y30367D01*
X42629Y28661D01*
X44334Y27166D01*
X45470Y26406D01*
X46864Y23918D01*
X48607Y20138D01*
X50048Y16233D01*
X51177Y12226D01*
X51280Y11712D01*
Y9679D01*
X51052Y9527D01*
X50621Y8882D01*
X50470Y8121D01*
X50621Y7360D01*
X51052Y6715D01*
X51697Y6284D01*
X52458Y6133D01*
X53219Y6284D01*
X53403Y6407D01*
X54043Y6113D01*
X54275Y4152D01*
X54310Y3260D01*
X54071Y3212D01*
X53426Y2781D01*
X52995Y2136D01*
X52843Y1376D01*
X52995Y615D01*
X53426Y-30D01*
X54071Y-461D01*
X54831Y-613D01*
X55558Y-468D01*
X55663Y-467D01*
X56158Y-774D01*
Y-2245D01*
X55800Y-2317D01*
X55155Y-2748D01*
X54724Y-3393D01*
X54572Y-4154D01*
X54724Y-4914D01*
X55155Y-5559D01*
X55800Y-5991D01*
X56561Y-6142D01*
X57055Y-6044D01*
X57603Y-6469D01*
X57024Y-10769D01*
X56365Y-10901D01*
X55720Y-11332D01*
X55289Y-11977D01*
X55138Y-12738D01*
X55289Y-13498D01*
X55720Y-14143D01*
X56365Y-14574D01*
X57126Y-14726D01*
X57402Y-14671D01*
X57879Y-15188D01*
X56944Y-18502D01*
X56659Y-19275D01*
X56471Y-19238D01*
X55710Y-19389D01*
X55065Y-19820D01*
X54634Y-20465D01*
X54483Y-21226D01*
X54634Y-21987D01*
X55065Y-22632D01*
X55710Y-23063D01*
X56471Y-23214D01*
X56616Y-23186D01*
X56919Y-23737D01*
X55390Y-27054D01*
X55370Y-27058D01*
X55370Y-27058D01*
X55363Y-27074D01*
X55000Y-27470D01*
X54971Y-27500D01*
X54866Y-27604D01*
X54651Y-27562D01*
X53891Y-27713D01*
X53246Y-28144D01*
X52815Y-28789D01*
X52663Y-29550D01*
X52815Y-30311D01*
X53246Y-30956D01*
X53891Y-31387D01*
X54378Y-31484D01*
X54728Y-32088D01*
X54124Y-33167D01*
X51834Y-36593D01*
X51555Y-36872D01*
X50867Y-36735D01*
X50106Y-36886D01*
X49461Y-37317D01*
X49030Y-37962D01*
X48878Y-38723D01*
X49030Y-39484D01*
X49461Y-40129D01*
X50106Y-40560D01*
X50287Y-40596D01*
X50527Y-41255D01*
X49328Y-42743D01*
X48527Y-43603D01*
X48360Y-43491D01*
X47599Y-43339D01*
X46838Y-43491D01*
X46193Y-43922D01*
X45762Y-44567D01*
X45611Y-45328D01*
X45762Y-46089D01*
X46193Y-46734D01*
X46838Y-47165D01*
X46948Y-47572D01*
X46698Y-48080D01*
X46697Y-48080D01*
X46697Y-48081D01*
X46272Y-48503D01*
X45626Y-49105D01*
X45342Y-49323D01*
X45143Y-49405D01*
X44757Y-49147D01*
X43996Y-48996D01*
X43235Y-49147D01*
X42590Y-49578D01*
X42159Y-50223D01*
X42008Y-50984D01*
X42159Y-51745D01*
X42590Y-52390D01*
X43235Y-52821D01*
X43283Y-52831D01*
X43426Y-53413D01*
X41090Y-55296D01*
X39474Y-56418D01*
X39474Y-56418D01*
X39073Y-56783D01*
X39054Y-56808D01*
X38568Y-57441D01*
X38251Y-58206D01*
X38143Y-59028D01*
X38143D01*
X38147Y-59031D01*
X38146Y-59985D01*
X38071Y-60047D01*
X37310Y-60198D01*
X36665Y-60629D01*
X36234Y-61274D01*
X36083Y-62035D01*
X36234Y-62796D01*
X36665Y-63441D01*
X36881Y-63585D01*
X36862Y-64294D01*
X32451Y-66909D01*
X32438Y-66900D01*
X32429Y-66896D01*
X32423Y-66899D01*
X32304Y-66875D01*
X31845Y-66434D01*
X31693Y-65673D01*
X31262Y-65028D01*
X30617Y-64597D01*
X29857Y-64446D01*
X29096Y-64597D01*
X28451Y-65028D01*
X28020Y-65673D01*
X27868Y-66434D01*
X28020Y-67195D01*
X28451Y-67840D01*
X29096Y-68271D01*
X29857Y-68422D01*
X30084Y-68377D01*
X30755Y-68892D01*
X31447Y-69178D01*
X31675Y-69273D01*
X32017Y-69318D01*
X32429Y-69397D01*
X33365Y-69211D01*
X33588Y-69062D01*
X33665Y-69035D01*
X39996Y-65281D01*
X39998Y-65284D01*
X40234Y-65127D01*
X40482Y-64954D01*
X40483Y-64953D01*
X40483Y-64953D01*
X47999Y-59695D01*
X48090Y-59601D01*
X48339Y-59409D01*
X48400Y-59372D01*
X55484Y-52812D01*
X55499Y-52791D01*
X55594Y-52718D01*
X55758Y-52505D01*
X55829Y-52447D01*
X61979Y-45012D01*
X62042Y-44897D01*
X62225Y-44659D01*
X62270Y-44610D01*
X67040Y-37007D01*
X67314Y-36572D01*
X67344Y-36533D01*
X67355Y-36509D01*
X67646Y-35987D01*
X72202Y-28002D01*
X72211Y-27999D01*
X72211D01*
X72584Y-27101D01*
X72606Y-26931D01*
X72626Y-26884D01*
X74545Y-17653D01*
X74546Y-17579D01*
X74572Y-17508D01*
X76182Y-7990D01*
X76178Y-7858D01*
X76219Y-7552D01*
X76233Y-7493D01*
X76577Y1889D01*
X76573Y1915D01*
X76588Y2034D01*
X76553Y2302D01*
X76562Y2393D01*
X75655Y11996D01*
X75617Y12121D01*
X75551Y12624D01*
X75538Y12654D01*
X75375Y13230D01*
X75270Y13609D01*
X75633Y13860D01*
X75808Y13916D01*
X76405Y13518D01*
X77165Y13366D01*
X77926Y13518D01*
X78571Y13949D01*
X79002Y14593D01*
X79154Y15354D01*
X79002Y16115D01*
X78571Y16760D01*
X77926Y17191D01*
X77165Y17343D01*
X76405Y17191D01*
X75760Y16760D01*
X75328Y16115D01*
X75275Y15848D01*
X74659Y15825D01*
X72895Y22224D01*
X73414Y22599D01*
X73751Y22374D01*
X74512Y22222D01*
X75273Y22374D01*
X75918Y22805D01*
X76349Y23449D01*
X76500Y24210D01*
X76349Y24971D01*
X75918Y25616D01*
X75273Y26047D01*
X74512Y26199D01*
X74308Y26158D01*
X72803Y30156D01*
X70675Y34853D01*
X68244Y39401D01*
X65521Y43780D01*
X62517Y47971D01*
X59246Y51957D01*
X55721Y55721D01*
X51957Y59246D01*
X47971Y62517D01*
X43780Y65521D01*
X39401Y68244D01*
X34853Y70675D01*
X30156Y72803D01*
X25330Y74619D01*
X20395Y76116D01*
X15373Y77287D01*
X10286Y78127D01*
X5154Y78632D01*
X0Y78801D01*
D02*
G37*
G36*
X36911Y77467D02*
X36150Y77315D01*
X35505Y76885D01*
X35074Y76240D01*
X34922Y75479D01*
X35074Y74718D01*
X35505Y74073D01*
X36150Y73642D01*
X36911Y73491D01*
X37672Y73642D01*
X38317Y74073D01*
X38748Y74718D01*
X38899Y75479D01*
X38748Y76240D01*
X38317Y76885D01*
X37672Y77315D01*
X36911Y77467D01*
D02*
G37*
G36*
X-37411Y77220D02*
X-38172Y77069D01*
X-38817Y76638D01*
X-39248Y75993D01*
X-39400Y75232D01*
X-39248Y74471D01*
X-38817Y73826D01*
X-38172Y73395D01*
X-37411Y73243D01*
X-36651Y73395D01*
X-36006Y73826D01*
X-35575Y74471D01*
X-35423Y75232D01*
X-35575Y75993D01*
X-36006Y76638D01*
X-36651Y77069D01*
X-37411Y77220D01*
D02*
G37*
G36*
X46447Y72003D02*
X45686Y71852D01*
X45041Y71421D01*
X44610Y70776D01*
X44459Y70015D01*
X44610Y69254D01*
X45041Y68609D01*
X45686Y68178D01*
X46447Y68027D01*
X47208Y68178D01*
X47853Y68609D01*
X48284Y69254D01*
X48435Y70015D01*
X48284Y70776D01*
X47853Y71421D01*
X47208Y71852D01*
X46447Y72003D01*
D02*
G37*
G36*
X-46911Y71693D02*
X-47672Y71542D01*
X-48317Y71111D01*
X-48748Y70466D01*
X-48899Y69705D01*
X-48748Y68944D01*
X-48317Y68299D01*
X-47672Y67868D01*
X-46911Y67717D01*
X-46150Y67868D01*
X-45505Y68299D01*
X-45074Y68944D01*
X-44923Y69705D01*
X-45074Y70466D01*
X-45505Y71111D01*
X-46150Y71542D01*
X-46911Y71693D01*
D02*
G37*
G36*
X55188Y65342D02*
X54427Y65191D01*
X53782Y64759D01*
X53351Y64114D01*
X53200Y63354D01*
X53351Y62593D01*
X53782Y61948D01*
X54427Y61517D01*
X55188Y61365D01*
X55949Y61517D01*
X56594Y61948D01*
X57025Y62593D01*
X57176Y63354D01*
X57025Y64114D01*
X56594Y64759D01*
X55949Y65191D01*
X55188Y65342D01*
D02*
G37*
G36*
X-55608Y64974D02*
X-56369Y64822D01*
X-57014Y64391D01*
X-57445Y63746D01*
X-57596Y62985D01*
X-57445Y62225D01*
X-57014Y61580D01*
X-56369Y61149D01*
X-55608Y60997D01*
X-54847Y61149D01*
X-54202Y61580D01*
X-53771Y62225D01*
X-53620Y62985D01*
X-53771Y63746D01*
X-54202Y64391D01*
X-54847Y64822D01*
X-55608Y64974D01*
D02*
G37*
G36*
X62985Y57596D02*
X62225Y57445D01*
X61580Y57014D01*
X61149Y56369D01*
X60997Y55608D01*
X61149Y54847D01*
X61580Y54202D01*
X62225Y53771D01*
X62985Y53620D01*
X63746Y53771D01*
X64391Y54202D01*
X64822Y54847D01*
X64974Y55608D01*
X64822Y56369D01*
X64391Y57014D01*
X63746Y57445D01*
X62985Y57596D01*
D02*
G37*
G36*
X-63354Y57176D02*
X-64114Y57025D01*
X-64759Y56594D01*
X-65191Y55949D01*
X-65342Y55188D01*
X-65191Y54427D01*
X-64759Y53782D01*
X-64114Y53351D01*
X-63354Y53200D01*
X-62593Y53351D01*
X-61948Y53782D01*
X-61517Y54427D01*
X-61365Y55188D01*
X-61517Y55949D01*
X-61948Y56594D01*
X-62593Y57025D01*
X-63354Y57176D01*
D02*
G37*
G36*
X69705Y48899D02*
X68944Y48748D01*
X68299Y48317D01*
X67868Y47672D01*
X67717Y46911D01*
X67868Y46150D01*
X68299Y45505D01*
X68944Y45074D01*
X69705Y44923D01*
X70466Y45074D01*
X71111Y45505D01*
X71542Y46150D01*
X71693Y46911D01*
X71542Y47672D01*
X71111Y48317D01*
X70466Y48748D01*
X69705Y48899D01*
D02*
G37*
G36*
X-70015Y48435D02*
X-70776Y48284D01*
X-71421Y47853D01*
X-71852Y47208D01*
X-72003Y46447D01*
X-71852Y45686D01*
X-71421Y45041D01*
X-70776Y44610D01*
X-70015Y44459D01*
X-69254Y44610D01*
X-68609Y45041D01*
X-68178Y45686D01*
X-68027Y46447D01*
X-68178Y47208D01*
X-68609Y47853D01*
X-69254Y48284D01*
X-70015Y48435D01*
D02*
G37*
G36*
X-7087Y47857D02*
X-7789Y47717D01*
X-8384Y47319D01*
X-8782Y46724D01*
X-8922Y46021D01*
X-8782Y45319D01*
X-8384Y44723D01*
X-7789Y44326D01*
X-7087Y44186D01*
X-6384Y44326D01*
X-5789Y44723D01*
X-5391Y45319D01*
X-5251Y46021D01*
X-5391Y46724D01*
X-5789Y47319D01*
X-6384Y47717D01*
X-7087Y47857D01*
D02*
G37*
G36*
X-11243Y45108D02*
X-11945Y44968D01*
X-12540Y44570D01*
X-12938Y43975D01*
X-13078Y43272D01*
X-12938Y42570D01*
X-13333Y42080D01*
X-13655Y42144D01*
X-14357Y42005D01*
X-14953Y41607D01*
X-15350Y41011D01*
X-15490Y40309D01*
X-15350Y39607D01*
X-14953Y39011D01*
X-14357Y38614D01*
X-13655Y38474D01*
X-12953Y38614D01*
X-12357Y39011D01*
X-12171Y39290D01*
X-10810D01*
X-5445Y33925D01*
X-5115Y33704D01*
X-4724Y33626D01*
X23306D01*
X23760Y33095D01*
X23755Y33071D01*
X23895Y32368D01*
X24293Y31773D01*
X24888Y31375D01*
X25591Y31236D01*
X26293Y31375D01*
X26731Y31668D01*
X27242Y31538D01*
X27388Y31441D01*
X27438Y31187D01*
X27836Y30592D01*
X28431Y30194D01*
X29134Y30055D01*
X29836Y30194D01*
X30432Y30592D01*
X30829Y31187D01*
X30969Y31890D01*
X30829Y32592D01*
X30432Y33187D01*
X30153Y33373D01*
Y34646D01*
X30076Y35036D01*
X29855Y35367D01*
X28280Y36941D01*
X27949Y37163D01*
X27559Y37240D01*
X-3768D01*
X-9473Y42944D01*
X-9408Y43272D01*
X-9547Y43975D01*
X-9945Y44570D01*
X-10540Y44968D01*
X-11243Y45108D01*
D02*
G37*
G36*
X11811Y48292D02*
X11109Y48152D01*
X10513Y47754D01*
X10115Y47159D01*
X9976Y46457D01*
X10115Y45754D01*
X10513Y45159D01*
X11109Y44761D01*
X11811Y44621D01*
X11821Y44623D01*
X12055Y44058D01*
X11694Y43817D01*
X11297Y43222D01*
X11157Y42520D01*
X11297Y41817D01*
X11694Y41222D01*
X12290Y40824D01*
X12992Y40684D01*
X13694Y40824D01*
X14290Y41222D01*
X14688Y41817D01*
X14827Y42520D01*
X14688Y43222D01*
X14290Y43817D01*
X13694Y44215D01*
X12992Y44355D01*
X12983Y44353D01*
X12749Y44918D01*
X13109Y45159D01*
X13507Y45754D01*
X13646Y46457D01*
X13507Y47159D01*
X13109Y47754D01*
X12513Y48152D01*
X11811Y48292D01*
D02*
G37*
G36*
X75061Y39425D02*
X74300Y39274D01*
X73655Y38842D01*
X73224Y38197D01*
X73073Y37437D01*
X73224Y36676D01*
X73655Y36031D01*
X74300Y35600D01*
X75061Y35448D01*
X75822Y35600D01*
X76467Y36031D01*
X76898Y36676D01*
X77049Y37437D01*
X76898Y38197D01*
X76467Y38842D01*
X75822Y39274D01*
X75061Y39425D01*
D02*
G37*
G36*
X-75479Y38899D02*
X-76240Y38748D01*
X-76885Y38317D01*
X-77315Y37672D01*
X-77467Y36911D01*
X-77315Y36150D01*
X-76885Y35505D01*
X-76240Y35074D01*
X-75479Y34922D01*
X-74718Y35074D01*
X-74073Y35505D01*
X-73642Y36150D01*
X-73491Y36911D01*
X-73642Y37672D01*
X-74073Y38317D01*
X-74718Y38748D01*
X-75479Y38899D01*
D02*
G37*
G36*
X79471Y29260D02*
X78710Y29109D01*
X78065Y28678D01*
X77634Y28033D01*
X77483Y27272D01*
X77634Y26511D01*
X78065Y25866D01*
X78710Y25435D01*
X79471Y25284D01*
X80232Y25435D01*
X80877Y25866D01*
X81308Y26511D01*
X81459Y27272D01*
X81308Y28033D01*
X80877Y28678D01*
X80232Y29109D01*
X79471Y29260D01*
D02*
G37*
G36*
X-79651Y28731D02*
X-80412Y28580D01*
X-81057Y28149D01*
X-81488Y27504D01*
X-81639Y26743D01*
X-81488Y25982D01*
X-81057Y25337D01*
X-80412Y24906D01*
X-79651Y24755D01*
X-78890Y24906D01*
X-78245Y25337D01*
X-77814Y25982D01*
X-77662Y26743D01*
X-77814Y27504D01*
X-78245Y28149D01*
X-78890Y28580D01*
X-79651Y28731D01*
D02*
G37*
G36*
X-394Y24670D02*
X-1096Y24530D01*
X-1691Y24132D01*
X-2089Y23537D01*
X-2229Y22835D01*
X-2089Y22132D01*
X-1691Y21537D01*
X-1096Y21139D01*
X-394Y20999D01*
X309Y21139D01*
X904Y21537D01*
X1302Y22132D01*
X1442Y22835D01*
X1302Y23537D01*
X904Y24132D01*
X309Y24530D01*
X-394Y24670D01*
D02*
G37*
G36*
X5297Y24050D02*
X4595Y23911D01*
X4000Y23513D01*
X3602Y22918D01*
X3462Y22215D01*
X3602Y21513D01*
X4000Y20917D01*
X4595Y20520D01*
X5297Y20380D01*
X6000Y20520D01*
X6595Y20917D01*
X6993Y21513D01*
X7133Y22215D01*
X6993Y22918D01*
X6595Y23513D01*
X6000Y23911D01*
X5297Y24050D01*
D02*
G37*
G36*
X-6060Y23855D02*
X-6762Y23715D01*
X-7358Y23317D01*
X-7756Y22722D01*
X-7895Y22019D01*
X-7756Y21317D01*
X-7358Y20722D01*
X-6762Y20324D01*
X-6060Y20184D01*
X-5358Y20324D01*
X-4762Y20722D01*
X-4364Y21317D01*
X-4225Y22019D01*
X-4364Y22722D01*
X-4762Y23317D01*
X-5358Y23715D01*
X-6060Y23855D01*
D02*
G37*
G36*
X10656Y22035D02*
X9953Y21895D01*
X9358Y21498D01*
X8960Y20902D01*
X8820Y20200D01*
X8960Y19498D01*
X9358Y18902D01*
X9953Y18504D01*
X10656Y18365D01*
X11358Y18504D01*
X11953Y18902D01*
X12351Y19498D01*
X12491Y20200D01*
X12351Y20902D01*
X11953Y21498D01*
X11358Y21895D01*
X10656Y22035D01*
D02*
G37*
G36*
X-11346Y21656D02*
X-12048Y21516D01*
X-12643Y21118D01*
X-13041Y20523D01*
X-13181Y19820D01*
X-13041Y19118D01*
X-12643Y18523D01*
X-12048Y18125D01*
X-11346Y17985D01*
X-10643Y18125D01*
X-10048Y18523D01*
X-9650Y19118D01*
X-9510Y19820D01*
X-9650Y20523D01*
X-10048Y21118D01*
X-10643Y21516D01*
X-11346Y21656D01*
D02*
G37*
G36*
X15344Y18751D02*
X14642Y18611D01*
X14047Y18213D01*
X13649Y17618D01*
X13509Y16915D01*
X13649Y16213D01*
X14047Y15618D01*
X14642Y15220D01*
X15344Y15080D01*
X16047Y15220D01*
X16642Y15618D01*
X17040Y16213D01*
X17180Y16915D01*
X17040Y17618D01*
X16642Y18213D01*
X16047Y18611D01*
X15344Y18751D01*
D02*
G37*
G36*
X82351Y18654D02*
X81590Y18502D01*
X80945Y18071D01*
X80514Y17426D01*
X80363Y16665D01*
X80514Y15904D01*
X80945Y15259D01*
X81590Y14829D01*
X82351Y14677D01*
X83112Y14829D01*
X83757Y15259D01*
X84188Y15904D01*
X84339Y16665D01*
X84188Y17426D01*
X83757Y18071D01*
X83112Y18502D01*
X82351Y18654D01*
D02*
G37*
G36*
X-15918Y18212D02*
X-16621Y18072D01*
X-17216Y17674D01*
X-17614Y17079D01*
X-17754Y16376D01*
X-17614Y15674D01*
X-17216Y15078D01*
X-16621Y14681D01*
X-15918Y14541D01*
X-15216Y14681D01*
X-14621Y15078D01*
X-14223Y15674D01*
X-14083Y16376D01*
X-14223Y17079D01*
X-14621Y17674D01*
X-15216Y18072D01*
X-15918Y18212D01*
D02*
G37*
G36*
X-82460Y18106D02*
X-83221Y17955D01*
X-83866Y17524D01*
X-84297Y16879D01*
X-84448Y16118D01*
X-84297Y15357D01*
X-83866Y14712D01*
X-83221Y14281D01*
X-82460Y14129D01*
X-81699Y14281D01*
X-81054Y14712D01*
X-80623Y15357D01*
X-80472Y16118D01*
X-80623Y16879D01*
X-81054Y17524D01*
X-81699Y17955D01*
X-82460Y18106D01*
D02*
G37*
G36*
X47213Y16980D02*
X46452Y16829D01*
X45807Y16398D01*
X45376Y15753D01*
X45224Y14992D01*
X45376Y14231D01*
X45807Y13586D01*
X46452Y13155D01*
X47213Y13004D01*
X47973Y13155D01*
X48619Y13586D01*
X49049Y14231D01*
X49201Y14992D01*
X49049Y15753D01*
X48619Y16398D01*
X47973Y16829D01*
X47213Y16980D01*
D02*
G37*
G36*
X19069Y14403D02*
X18367Y14263D01*
X17771Y13866D01*
X17373Y13270D01*
X17234Y12568D01*
X17373Y11866D01*
X17771Y11270D01*
X18367Y10872D01*
X19069Y10733D01*
X19771Y10872D01*
X20367Y11270D01*
X20764Y11866D01*
X20904Y12568D01*
X20764Y13270D01*
X20367Y13866D01*
X19771Y14263D01*
X19069Y14403D01*
D02*
G37*
G36*
X-19491Y13738D02*
X-20193Y13599D01*
X-20789Y13201D01*
X-21186Y12605D01*
X-21326Y11903D01*
X-21186Y11201D01*
X-20789Y10605D01*
X-20193Y10208D01*
X-19491Y10068D01*
X-18789Y10208D01*
X-18193Y10605D01*
X-17795Y11201D01*
X-17656Y11903D01*
X-17795Y12605D01*
X-18193Y13201D01*
X-18789Y13599D01*
X-19491Y13738D01*
D02*
G37*
G36*
X21595Y9266D02*
X20893Y9126D01*
X20298Y8728D01*
X19900Y8133D01*
X19760Y7431D01*
X19900Y6728D01*
X20298Y6133D01*
X20893Y5735D01*
X21595Y5596D01*
X22298Y5735D01*
X22893Y6133D01*
X23291Y6728D01*
X23431Y7431D01*
X23291Y8133D01*
X22893Y8728D01*
X22298Y9126D01*
X21595Y9266D01*
D02*
G37*
G36*
X-21839Y8517D02*
X-22541Y8377D01*
X-23136Y7980D01*
X-23534Y7384D01*
X-23674Y6682D01*
X-23534Y5979D01*
X-23136Y5384D01*
X-22541Y4986D01*
X-21839Y4847D01*
X-21136Y4986D01*
X-20541Y5384D01*
X-20143Y5979D01*
X-20003Y6682D01*
X-20143Y7384D01*
X-20541Y7980D01*
X-21136Y8377D01*
X-21839Y8517D01*
D02*
G37*
G36*
X83822Y7762D02*
X83061Y7611D01*
X82416Y7180D01*
X81985Y6535D01*
X81834Y5774D01*
X81985Y5013D01*
X82416Y4368D01*
X83061Y3937D01*
X83822Y3786D01*
X84583Y3937D01*
X85228Y4368D01*
X85659Y5013D01*
X85810Y5774D01*
X85659Y6535D01*
X85228Y7180D01*
X84583Y7611D01*
X83822Y7762D01*
D02*
G37*
G36*
X-83858Y7205D02*
X-84619Y7053D01*
X-85264Y6622D01*
X-85695Y5977D01*
X-85847Y5217D01*
X-85695Y4456D01*
X-85264Y3811D01*
X-84619Y3380D01*
X-83858Y3228D01*
X-83097Y3380D01*
X-82452Y3811D01*
X-82021Y4456D01*
X-81870Y5217D01*
X-82021Y5977D01*
X-82452Y6622D01*
X-83097Y7053D01*
X-83858Y7205D01*
D02*
G37*
G36*
X22765Y3662D02*
X22062Y3522D01*
X21467Y3124D01*
X21069Y2529D01*
X20930Y1827D01*
X21069Y1124D01*
X21467Y529D01*
X22062Y131D01*
X22765Y-9D01*
X23467Y131D01*
X24063Y529D01*
X24460Y1124D01*
X24600Y1827D01*
X24460Y2529D01*
X24063Y3124D01*
X23467Y3522D01*
X22765Y3662D01*
D02*
G37*
G36*
X-22814Y2876D02*
X-23517Y2736D01*
X-24112Y2339D01*
X-24510Y1743D01*
X-24650Y1041D01*
X-24510Y339D01*
X-24112Y-257D01*
X-23517Y-655D01*
X-22814Y-794D01*
X-22112Y-655D01*
X-21517Y-257D01*
X-21119Y339D01*
X-20979Y1041D01*
X-21119Y1743D01*
X-21517Y2339D01*
X-22112Y2736D01*
X-22814Y2876D01*
D02*
G37*
G36*
X22504Y-2057D02*
X21802Y-2197D01*
X21206Y-2594D01*
X20808Y-3190D01*
X20669Y-3892D01*
X20808Y-4594D01*
X21206Y-5190D01*
X21802Y-5588D01*
X22504Y-5727D01*
X23206Y-5588D01*
X23802Y-5190D01*
X24200Y-4594D01*
X24339Y-3892D01*
X24200Y-3190D01*
X23802Y-2594D01*
X23206Y-2197D01*
X22504Y-2057D01*
D02*
G37*
G36*
X-22356Y-2830D02*
X-23059Y-2970D01*
X-23654Y-3368D01*
X-24052Y-3963D01*
X-24192Y-4665D01*
X-24052Y-5368D01*
X-23654Y-5963D01*
X-23059Y-6361D01*
X-22356Y-6501D01*
X-21654Y-6361D01*
X-21059Y-5963D01*
X-20661Y-5368D01*
X-20521Y-4665D01*
X-20661Y-3963D01*
X-21059Y-3368D01*
X-21654Y-2970D01*
X-22356Y-2830D01*
D02*
G37*
G36*
X83858Y-3228D02*
X83097Y-3380D01*
X82452Y-3811D01*
X82021Y-4456D01*
X81870Y-5217D01*
X82021Y-5977D01*
X82452Y-6622D01*
X83097Y-7053D01*
X83858Y-7205D01*
X84619Y-7053D01*
X85264Y-6622D01*
X85695Y-5977D01*
X85847Y-5217D01*
X85695Y-4456D01*
X85264Y-3811D01*
X84619Y-3380D01*
X83858Y-3228D01*
D02*
G37*
G36*
X-83822Y-3786D02*
X-84583Y-3937D01*
X-85228Y-4368D01*
X-85659Y-5013D01*
X-85810Y-5774D01*
X-85659Y-6535D01*
X-85228Y-7180D01*
X-84583Y-7611D01*
X-83822Y-7762D01*
X-83061Y-7611D01*
X-82416Y-7180D01*
X-81985Y-6535D01*
X-81834Y-5774D01*
X-81985Y-5013D01*
X-82416Y-4368D01*
X-83061Y-3937D01*
X-83822Y-3786D01*
D02*
G37*
G36*
X20829Y-7531D02*
X20127Y-7671D01*
X19531Y-8069D01*
X19133Y-8664D01*
X18994Y-9366D01*
X19133Y-10069D01*
X19531Y-10664D01*
X20127Y-11062D01*
X20829Y-11202D01*
X21531Y-11062D01*
X22127Y-10664D01*
X22525Y-10069D01*
X22664Y-9366D01*
X22525Y-8664D01*
X22127Y-8069D01*
X21531Y-7671D01*
X20829Y-7531D01*
D02*
G37*
G36*
X-20494Y-8243D02*
X-21196Y-8383D01*
X-21791Y-8781D01*
X-22189Y-9376D01*
X-22329Y-10079D01*
X-22189Y-10781D01*
X-21791Y-11377D01*
X-21196Y-11774D01*
X-20494Y-11914D01*
X-19792Y-11774D01*
X-19196Y-11377D01*
X-18798Y-10781D01*
X-18658Y-10079D01*
X-18798Y-9376D01*
X-19196Y-8781D01*
X-19792Y-8383D01*
X-20494Y-8243D01*
D02*
G37*
G36*
X17845Y-12417D02*
X17143Y-12556D01*
X16548Y-12954D01*
X16150Y-13550D01*
X16010Y-14252D01*
X16150Y-14954D01*
X16548Y-15550D01*
X17143Y-15948D01*
X17845Y-16087D01*
X18548Y-15948D01*
X19143Y-15550D01*
X19541Y-14954D01*
X19681Y-14252D01*
X19541Y-13550D01*
X19143Y-12954D01*
X18548Y-12556D01*
X17845Y-12417D01*
D02*
G37*
G36*
X-17344Y-13023D02*
X-18046Y-13163D01*
X-18641Y-13561D01*
X-19039Y-14156D01*
X-19179Y-14859D01*
X-19039Y-15561D01*
X-18641Y-16156D01*
X-18046Y-16554D01*
X-17344Y-16694D01*
X-16641Y-16554D01*
X-16046Y-16156D01*
X-15648Y-15561D01*
X-15508Y-14859D01*
X-15648Y-14156D01*
X-16046Y-13561D01*
X-16641Y-13163D01*
X-17344Y-13023D01*
D02*
G37*
G36*
X82460Y-14129D02*
X81699Y-14281D01*
X81054Y-14712D01*
X80623Y-15357D01*
X80472Y-16118D01*
X80623Y-16879D01*
X81054Y-17524D01*
X81699Y-17955D01*
X82460Y-18106D01*
X83221Y-17955D01*
X83866Y-17524D01*
X84297Y-16879D01*
X84448Y-16118D01*
X84297Y-15357D01*
X83866Y-14712D01*
X83221Y-14281D01*
X82460Y-14129D01*
D02*
G37*
G36*
X0Y18356D02*
X-2396Y18199D01*
X-4751Y17730D01*
X-7024Y16959D01*
X-9178Y15897D01*
X-11174Y14563D01*
X-12979Y12979D01*
X-14563Y11174D01*
X-15897Y9178D01*
X-16959Y7024D01*
X-17730Y4751D01*
X-18199Y2396D01*
X-18356Y0D01*
X-18199Y-2396D01*
X-17730Y-4751D01*
X-16959Y-7024D01*
X-15897Y-9178D01*
X-14563Y-11174D01*
X-12979Y-12979D01*
X-11174Y-14563D01*
X-9178Y-15897D01*
X-7024Y-16959D01*
X-4751Y-17730D01*
X-2396Y-18199D01*
X0Y-18356D01*
X2396Y-18199D01*
X4751Y-17730D01*
X7024Y-16959D01*
X9178Y-15897D01*
X11174Y-14563D01*
X12979Y-12979D01*
X14563Y-11174D01*
X15897Y-9178D01*
X16959Y-7024D01*
X17730Y-4751D01*
X18199Y-2396D01*
X18356Y0D01*
X18199Y2396D01*
X17730Y4751D01*
X16959Y7024D01*
X15897Y9178D01*
X14563Y11174D01*
X12979Y12979D01*
X11174Y14563D01*
X9178Y15897D01*
X7024Y16959D01*
X4751Y17730D01*
X2396Y18199D01*
X0Y18356D01*
D02*
G37*
G36*
X-82224Y-15326D02*
X-82985Y-15477D01*
X-83630Y-15908D01*
X-84061Y-16553D01*
X-84212Y-17314D01*
X-84061Y-18075D01*
X-83630Y-18720D01*
X-82985Y-19151D01*
X-82224Y-19302D01*
X-81463Y-19151D01*
X-80818Y-18720D01*
X-80387Y-18075D01*
X-80236Y-17314D01*
X-80387Y-16553D01*
X-80818Y-15908D01*
X-81463Y-15477D01*
X-82224Y-15326D01*
D02*
G37*
G36*
X13740Y-16407D02*
X13038Y-16547D01*
X12443Y-16944D01*
X12045Y-17540D01*
X11905Y-18242D01*
X12045Y-18945D01*
X12443Y-19540D01*
X13038Y-19938D01*
X13740Y-20077D01*
X14443Y-19938D01*
X15038Y-19540D01*
X15436Y-18945D01*
X15576Y-18242D01*
X15436Y-17540D01*
X15038Y-16944D01*
X14443Y-16547D01*
X13740Y-16407D01*
D02*
G37*
G36*
X-13103Y-16870D02*
X-13806Y-17009D01*
X-14401Y-17407D01*
X-14799Y-18003D01*
X-14939Y-18705D01*
X-14799Y-19407D01*
X-14401Y-20003D01*
X-13806Y-20401D01*
X-13103Y-20540D01*
X-12401Y-20401D01*
X-11806Y-20003D01*
X-11408Y-19407D01*
X-11268Y-18705D01*
X-11408Y-18003D01*
X-11806Y-17407D01*
X-12401Y-17009D01*
X-13103Y-16870D01*
D02*
G37*
G36*
X8772Y-19251D02*
X8070Y-19391D01*
X7474Y-19789D01*
X7077Y-20384D01*
X6937Y-21086D01*
X7077Y-21789D01*
X7474Y-22384D01*
X8070Y-22782D01*
X8772Y-22921D01*
X9474Y-22782D01*
X10070Y-22384D01*
X10468Y-21789D01*
X10607Y-21086D01*
X10468Y-20384D01*
X10070Y-19789D01*
X9474Y-19391D01*
X8772Y-19251D01*
D02*
G37*
G36*
X-8040Y-19541D02*
X-8742Y-19681D01*
X-9338Y-20078D01*
X-9736Y-20674D01*
X-9875Y-21376D01*
X-9736Y-22078D01*
X-9338Y-22674D01*
X-8742Y-23072D01*
X-8040Y-23211D01*
X-7338Y-23072D01*
X-6742Y-22674D01*
X-6344Y-22078D01*
X-6205Y-21376D01*
X-6344Y-20674D01*
X-6742Y-20078D01*
X-7338Y-19681D01*
X-8040Y-19541D01*
D02*
G37*
G36*
X3252Y-20770D02*
X2550Y-20910D01*
X1955Y-21307D01*
X1557Y-21903D01*
X1417Y-22605D01*
X1557Y-23308D01*
X1955Y-23903D01*
X2550Y-24301D01*
X3252Y-24441D01*
X3955Y-24301D01*
X4550Y-23903D01*
X4948Y-23308D01*
X5088Y-22605D01*
X4948Y-21903D01*
X4550Y-21307D01*
X3955Y-20910D01*
X3252Y-20770D01*
D02*
G37*
G36*
X-2471Y-20869D02*
X-3174Y-21008D01*
X-3769Y-21406D01*
X-4167Y-22002D01*
X-4307Y-22704D01*
X-4167Y-23406D01*
X-3769Y-24002D01*
X-3174Y-24399D01*
X-2471Y-24539D01*
X-1769Y-24399D01*
X-1174Y-24002D01*
X-776Y-23406D01*
X-636Y-22704D01*
X-776Y-22002D01*
X-1174Y-21406D01*
X-1769Y-21008D01*
X-2471Y-20869D01*
D02*
G37*
G36*
X79651Y-24755D02*
X78890Y-24906D01*
X78245Y-25337D01*
X77814Y-25982D01*
X77662Y-26743D01*
X77814Y-27504D01*
X78245Y-28149D01*
X78890Y-28580D01*
X79651Y-28731D01*
X80412Y-28580D01*
X81057Y-28149D01*
X81488Y-27504D01*
X81639Y-26743D01*
X81488Y-25982D01*
X81057Y-25337D01*
X80412Y-24906D01*
X79651Y-24755D01*
D02*
G37*
G36*
X-79471Y-25284D02*
X-80232Y-25435D01*
X-80877Y-25866D01*
X-81308Y-26511D01*
X-81459Y-27272D01*
X-81308Y-28033D01*
X-80877Y-28678D01*
X-80232Y-29109D01*
X-79471Y-29260D01*
X-78710Y-29109D01*
X-78065Y-28678D01*
X-77634Y-28033D01*
X-77483Y-27272D01*
X-77634Y-26511D01*
X-78065Y-25866D01*
X-78710Y-25435D01*
X-79471Y-25284D01*
D02*
G37*
G36*
X38978Y-31926D02*
X38276Y-32066D01*
X37681Y-32464D01*
X37283Y-33059D01*
X37143Y-33762D01*
X37173Y-33912D01*
X36656Y-34389D01*
X36285Y-34315D01*
X35583Y-34455D01*
X34987Y-34852D01*
X34589Y-35448D01*
X34449Y-36150D01*
X34589Y-36852D01*
X34987Y-37448D01*
X35583Y-37846D01*
X36285Y-37986D01*
X36987Y-37846D01*
X37582Y-37448D01*
X37980Y-36852D01*
X38120Y-36150D01*
X38090Y-36000D01*
X38607Y-35523D01*
X38978Y-35597D01*
X39681Y-35457D01*
X40276Y-35059D01*
X40674Y-34464D01*
X40813Y-33762D01*
X40674Y-33059D01*
X40276Y-32464D01*
X39681Y-32066D01*
X38978Y-31926D01*
D02*
G37*
G36*
X22071Y-28374D02*
X21310Y-28526D01*
X20665Y-28957D01*
X20234Y-29602D01*
X20083Y-30363D01*
X20234Y-31124D01*
X20665Y-31769D01*
X21310Y-32199D01*
X22071Y-32351D01*
X22207Y-32324D01*
X22894Y-32799D01*
X22938Y-33016D01*
X23369Y-33661D01*
X24014Y-34092D01*
X24774Y-34243D01*
X24962Y-34205D01*
X25666Y-34671D01*
X25697Y-34825D01*
X26128Y-35470D01*
X26773Y-35901D01*
X27534Y-36052D01*
X28205Y-35919D01*
X28456Y-35958D01*
X28770Y-36088D01*
X28892Y-36224D01*
X29303Y-36839D01*
X29948Y-37270D01*
X30709Y-37421D01*
X31470Y-37270D01*
X32114Y-36839D01*
X32546Y-36194D01*
X32697Y-35433D01*
X32546Y-34672D01*
X32114Y-34027D01*
X31470Y-33596D01*
X30709Y-33445D01*
X30037Y-33578D01*
X29787Y-33539D01*
X29473Y-33409D01*
X29351Y-33273D01*
X28940Y-32658D01*
X28295Y-32227D01*
X27534Y-32076D01*
X27346Y-32113D01*
X26642Y-31648D01*
X26611Y-31494D01*
X26180Y-30849D01*
X25535Y-30418D01*
X24774Y-30266D01*
X24638Y-30294D01*
X23951Y-29819D01*
X23908Y-29602D01*
X23477Y-28957D01*
X22831Y-28526D01*
X22071Y-28374D01*
D02*
G37*
G36*
X75479Y-34922D02*
X74718Y-35074D01*
X74073Y-35505D01*
X73642Y-36150D01*
X73491Y-36911D01*
X73642Y-37672D01*
X74073Y-38317D01*
X74718Y-38748D01*
X75479Y-38899D01*
X76240Y-38748D01*
X76885Y-38317D01*
X77315Y-37672D01*
X77467Y-36911D01*
X77315Y-36150D01*
X76885Y-35505D01*
X76240Y-35074D01*
X75479Y-34922D01*
D02*
G37*
G36*
X70015Y-44459D02*
X69254Y-44610D01*
X68609Y-45041D01*
X68178Y-45686D01*
X68027Y-46447D01*
X68178Y-47208D01*
X68609Y-47853D01*
X69254Y-48284D01*
X70015Y-48435D01*
X70776Y-48284D01*
X71421Y-47853D01*
X71852Y-47208D01*
X72003Y-46447D01*
X71852Y-45686D01*
X71421Y-45041D01*
X70776Y-44610D01*
X70015Y-44459D01*
D02*
G37*
G36*
X-69705Y-44923D02*
X-70466Y-45074D01*
X-71111Y-45505D01*
X-71542Y-46150D01*
X-71693Y-46911D01*
X-71542Y-47672D01*
X-71111Y-48317D01*
X-70466Y-48748D01*
X-69705Y-48899D01*
X-68944Y-48748D01*
X-68299Y-48317D01*
X-67868Y-47672D01*
X-67717Y-46911D01*
X-67868Y-46150D01*
X-68299Y-45505D01*
X-68944Y-45074D01*
X-69705Y-44923D01*
D02*
G37*
G36*
X63354Y-53200D02*
X62593Y-53351D01*
X61948Y-53782D01*
X61517Y-54427D01*
X61365Y-55188D01*
X61517Y-55949D01*
X61948Y-56594D01*
X62593Y-57025D01*
X63354Y-57176D01*
X64114Y-57025D01*
X64759Y-56594D01*
X65191Y-55949D01*
X65342Y-55188D01*
X65191Y-54427D01*
X64759Y-53782D01*
X64114Y-53351D01*
X63354Y-53200D01*
D02*
G37*
G36*
X-62985Y-53620D02*
X-63746Y-53771D01*
X-64391Y-54202D01*
X-64822Y-54847D01*
X-64974Y-55608D01*
X-64822Y-56369D01*
X-64391Y-57014D01*
X-63746Y-57445D01*
X-62985Y-57596D01*
X-62225Y-57445D01*
X-61580Y-57014D01*
X-61149Y-56369D01*
X-60997Y-55608D01*
X-61149Y-54847D01*
X-61580Y-54202D01*
X-62225Y-53771D01*
X-62985Y-53620D01*
D02*
G37*
G36*
X55608Y-60997D02*
X54847Y-61149D01*
X54202Y-61580D01*
X53771Y-62225D01*
X53620Y-62985D01*
X53771Y-63746D01*
X54202Y-64391D01*
X54847Y-64822D01*
X55608Y-64974D01*
X56369Y-64822D01*
X57014Y-64391D01*
X57445Y-63746D01*
X57596Y-62985D01*
X57445Y-62225D01*
X57014Y-61580D01*
X56369Y-61149D01*
X55608Y-60997D01*
D02*
G37*
G36*
X-55188Y-61365D02*
X-55949Y-61517D01*
X-56594Y-61948D01*
X-57025Y-62593D01*
X-57176Y-63354D01*
X-57025Y-64114D01*
X-56594Y-64759D01*
X-55949Y-65191D01*
X-55188Y-65342D01*
X-54427Y-65191D01*
X-53782Y-64759D01*
X-53351Y-64114D01*
X-53200Y-63354D01*
X-53351Y-62593D01*
X-53782Y-61948D01*
X-54427Y-61517D01*
X-55188Y-61365D01*
D02*
G37*
G36*
X46911Y-67717D02*
X46150Y-67868D01*
X45505Y-68299D01*
X45074Y-68944D01*
X44923Y-69705D01*
X45074Y-70466D01*
X45505Y-71111D01*
X46150Y-71542D01*
X46911Y-71693D01*
X47672Y-71542D01*
X48317Y-71111D01*
X48748Y-70466D01*
X48899Y-69705D01*
X48748Y-68944D01*
X48317Y-68299D01*
X47672Y-67868D01*
X46911Y-67717D01*
D02*
G37*
G36*
X-46447Y-68027D02*
X-47208Y-68178D01*
X-47853Y-68609D01*
X-48284Y-69254D01*
X-48435Y-70015D01*
X-48284Y-70776D01*
X-47853Y-71421D01*
X-47208Y-71852D01*
X-46447Y-72003D01*
X-45686Y-71852D01*
X-45041Y-71421D01*
X-44610Y-70776D01*
X-44459Y-70015D01*
X-44610Y-69254D01*
X-45041Y-68609D01*
X-45686Y-68178D01*
X-46447Y-68027D01*
D02*
G37*
G36*
X37407Y-73234D02*
X36646Y-73386D01*
X36001Y-73817D01*
X35570Y-74462D01*
X35419Y-75223D01*
X35570Y-75984D01*
X36001Y-76629D01*
X36646Y-77060D01*
X37407Y-77211D01*
X38168Y-77060D01*
X38813Y-76629D01*
X39244Y-75984D01*
X39395Y-75223D01*
X39244Y-74462D01*
X38813Y-73817D01*
X38168Y-73386D01*
X37407Y-73234D01*
D02*
G37*
G36*
X-36911Y-73491D02*
X-37672Y-73642D01*
X-38317Y-74073D01*
X-38748Y-74718D01*
X-38899Y-75479D01*
X-38748Y-76240D01*
X-38317Y-76885D01*
X-37672Y-77315D01*
X-36911Y-77467D01*
X-36150Y-77315D01*
X-35505Y-76885D01*
X-35074Y-76240D01*
X-34922Y-75479D01*
X-35074Y-74718D01*
X-35505Y-74073D01*
X-36150Y-73642D01*
X-36911Y-73491D01*
D02*
G37*
G36*
X-26759Y-77663D02*
X-27520Y-77815D01*
X-28165Y-78246D01*
X-28596Y-78891D01*
X-28747Y-79651D01*
X-28596Y-80412D01*
X-28165Y-81057D01*
X-27520Y-81488D01*
X-26759Y-81640D01*
X-25998Y-81488D01*
X-25353Y-81057D01*
X-24922Y-80412D01*
X-24770Y-79651D01*
X-24922Y-78891D01*
X-25353Y-78246D01*
X-25998Y-77815D01*
X-26759Y-77663D01*
D02*
G37*
G36*
X27272Y-77727D02*
X26511Y-77878D01*
X25866Y-78310D01*
X25435Y-78954D01*
X25284Y-79715D01*
X25435Y-80476D01*
X25866Y-81121D01*
X26511Y-81552D01*
X27272Y-81704D01*
X28033Y-81552D01*
X28678Y-81121D01*
X29109Y-80476D01*
X29260Y-79715D01*
X29109Y-78954D01*
X28678Y-78310D01*
X28033Y-77878D01*
X27272Y-77727D01*
D02*
G37*
G36*
X16665Y-80363D02*
X15904Y-80514D01*
X15259Y-80945D01*
X14829Y-81590D01*
X14677Y-82351D01*
X14829Y-83112D01*
X15259Y-83757D01*
X15904Y-84188D01*
X16665Y-84339D01*
X17426Y-84188D01*
X18071Y-83757D01*
X18502Y-83112D01*
X18654Y-82351D01*
X18502Y-81590D01*
X18071Y-80945D01*
X17426Y-80514D01*
X16665Y-80363D01*
D02*
G37*
G36*
X-16118Y-80472D02*
X-16879Y-80623D01*
X-17524Y-81054D01*
X-17955Y-81699D01*
X-18106Y-82460D01*
X-17955Y-83221D01*
X-17524Y-83866D01*
X-16879Y-84297D01*
X-16118Y-84448D01*
X-15357Y-84297D01*
X-14712Y-83866D01*
X-14281Y-83221D01*
X-14129Y-82460D01*
X-14281Y-81699D01*
X-14712Y-81054D01*
X-15357Y-80623D01*
X-16118Y-80472D01*
D02*
G37*
G36*
X5774Y-81834D02*
X5013Y-81985D01*
X4368Y-82416D01*
X3937Y-83061D01*
X3786Y-83822D01*
X3937Y-84583D01*
X4368Y-85228D01*
X5013Y-85659D01*
X5774Y-85810D01*
X6535Y-85659D01*
X7180Y-85228D01*
X7611Y-84583D01*
X7762Y-83822D01*
X7611Y-83061D01*
X7180Y-82416D01*
X6535Y-81985D01*
X5774Y-81834D01*
D02*
G37*
G36*
X-5217Y-81870D02*
X-5977Y-82021D01*
X-6622Y-82452D01*
X-7053Y-83097D01*
X-7205Y-83858D01*
X-7053Y-84619D01*
X-6622Y-85264D01*
X-5977Y-85695D01*
X-5217Y-85847D01*
X-4456Y-85695D01*
X-3811Y-85264D01*
X-3380Y-84619D01*
X-3228Y-83858D01*
X-3380Y-83097D01*
X-3811Y-82452D01*
X-4456Y-82021D01*
X-5217Y-81870D01*
D02*
G37*
%LPD*%
G36*
X-48764Y-4822D02*
X-48383Y-5076D01*
X-48129Y-5457D01*
X-48039Y-5906D01*
X-48129Y-6354D01*
X-48383Y-6735D01*
X-48764Y-6989D01*
X-49213Y-7079D01*
X-49661Y-6989D01*
X-49698Y-6965D01*
X-49825Y-6940D01*
X-49932Y-6868D01*
X-50059Y-6893D01*
X-50064Y-6892D01*
X-50425Y-6384D01*
X-50431Y-6356D01*
X-50366Y-6258D01*
X-50391Y-6131D01*
X-50366Y-6005D01*
X-50386Y-5906D01*
X-50296Y-5457D01*
X-50042Y-5076D01*
X-49661Y-4822D01*
X-49213Y-4732D01*
X-48764Y-4822D01*
D02*
G37*
G36*
X-28857Y16258D02*
X-29255Y15663D01*
X-29394Y14961D01*
X-29255Y14258D01*
X-28857Y13663D01*
X-28261Y13265D01*
X-27826Y13178D01*
X-27798Y13151D01*
Y-9646D01*
X-27705Y-10114D01*
X-27440Y-10511D01*
X-24157Y-13794D01*
Y-25830D01*
X-24512Y-26362D01*
X-24652Y-27065D01*
X-24512Y-27767D01*
X-24114Y-28362D01*
X-23519Y-28760D01*
X-22956Y-28872D01*
X-18109Y-33719D01*
Y-39707D01*
X-18138Y-39727D01*
X-18569Y-40372D01*
X-18721Y-41133D01*
X-18569Y-41894D01*
X-18138Y-42538D01*
X-17493Y-42970D01*
X-16732Y-43121D01*
X-15971Y-42970D01*
X-15326Y-42538D01*
X-14895Y-41894D01*
X-14744Y-41133D01*
X-14895Y-40372D01*
X-15326Y-39727D01*
X-15356Y-39707D01*
Y-36614D01*
X2362D01*
X22835Y-57086D01*
X22835Y-60065D01*
X22803Y-60226D01*
Y-63461D01*
X22835Y-63622D01*
X22835Y-68799D01*
X21063Y-70571D01*
X6074D01*
X5682Y-70309D01*
X4921Y-70157D01*
X4499Y-70241D01*
X4166Y-69909D01*
X3832Y-69549D01*
X3832Y-69549D01*
X3832Y-69549D01*
X3413Y-69270D01*
X3311Y-69182D01*
X3302Y-69177D01*
X3244Y-69158D01*
X3048Y-69027D01*
X2116Y-68842D01*
X2113Y-68864D01*
X228Y-68864D01*
Y-68841D01*
X-708Y-69027D01*
X-1502Y-69557D01*
X-1502Y-69557D01*
X-1486Y-69574D01*
X-1869Y-69958D01*
X-1884Y-69952D01*
X-1922Y-69968D01*
X-1928Y-69982D01*
X-2548D01*
X-2551Y-69975D01*
X-2554Y-69968D01*
X-2565Y-69963D01*
X-2620Y-69916D01*
X-2728Y-69797D01*
X-2914Y-69585D01*
X-3082Y-69367D01*
X-4241Y-68477D01*
X-5591Y-67918D01*
X-7040Y-67727D01*
X-7350Y-67768D01*
X-7846Y-67779D01*
X-7853Y-67783D01*
X-7877Y-67810D01*
X-8367Y-67810D01*
Y-67809D01*
X-9131Y-67708D01*
X-9843Y-67413D01*
X-10331Y-67039D01*
X-10331Y-67029D01*
X-10336Y-67017D01*
X-10338Y-67016D01*
X-10490Y-66808D01*
X-10491Y-66807D01*
X-10626Y-66643D01*
X-11409Y-65688D01*
X-12529Y-64769D01*
X-13805Y-64087D01*
X-15191Y-63666D01*
X-16632Y-63525D01*
X-16815Y-63543D01*
X-16818Y-63543D01*
X-17179Y-63538D01*
X-17292Y-63532D01*
X-17296Y-63530D01*
X-17298Y-63532D01*
X-17725Y-63352D01*
X-17846Y-63271D01*
X-18209Y-62983D01*
X-18213Y-62973D01*
X-18214Y-62973D01*
X-18225Y-62972D01*
X-18526Y-62606D01*
X-19363Y-61586D01*
X-20756Y-60443D01*
X-22040Y-59756D01*
X-22346Y-59593D01*
X-22486Y-59551D01*
X-22488Y-59551D01*
X-24563Y-57476D01*
X-24894Y-57113D01*
X-24905Y-57100D01*
X-25262Y-56795D01*
X-26748Y-55526D01*
X-28603Y-54389D01*
X-28815Y-54260D01*
X-28993Y-54168D01*
X-29023Y-54151D01*
X-29039Y-54145D01*
X-29384Y-53833D01*
X-29395Y-53822D01*
X-36882Y-46336D01*
X-37187Y-45994D01*
X-37187Y-45990D01*
X-37187Y-45990D01*
X-37189Y-45985D01*
X-37334Y-45771D01*
X-37463Y-45576D01*
X-37848Y-44837D01*
X-37842Y-44783D01*
X-37560Y-44308D01*
X-37093Y-44215D01*
X-36498Y-43817D01*
X-36100Y-43222D01*
X-35960Y-42520D01*
X-36100Y-41817D01*
X-36498Y-41222D01*
X-37093Y-40824D01*
X-37795Y-40684D01*
X-38498Y-40824D01*
X-39093Y-41222D01*
X-39310Y-41547D01*
X-39907Y-41541D01*
X-40150Y-41159D01*
X-40694Y-40450D01*
X-41254Y-38885D01*
X-41728Y-37883D01*
X-41878Y-37544D01*
X-41888Y-37492D01*
X-41889Y-37490D01*
X-41890Y-37489D01*
X-41891Y-37486D01*
X-41892Y-37485D01*
X-41892Y-37484D01*
X-41893Y-37483D01*
X-41893Y-37483D01*
X-41893Y-37482D01*
X-41929Y-37429D01*
X-42155Y-36992D01*
X-42630Y-36030D01*
X-42983Y-35501D01*
X-42983Y-33969D01*
X-42975Y-33472D01*
X-42974Y-33465D01*
X-43021Y-32991D01*
X-43102Y-32171D01*
X-43479Y-30927D01*
X-43822Y-30286D01*
X-44032Y-29842D01*
X-44037Y-29829D01*
X-44230Y-29396D01*
X-44231Y-29395D01*
X-44580Y-28366D01*
X-44793Y-27934D01*
X-44802Y-27888D01*
X-44854Y-27811D01*
X-45381Y-26742D01*
X-45589Y-26303D01*
X-45589Y-26303D01*
X-45589Y-26303D01*
X-46929Y-23911D01*
X-48660Y-20156D01*
X-49145Y-18840D01*
X-48751Y-18463D01*
X-48228Y-18567D01*
X-47526Y-18428D01*
X-46931Y-18030D01*
X-46533Y-17435D01*
X-46393Y-16732D01*
X-46533Y-16030D01*
X-46931Y-15435D01*
X-47526Y-15037D01*
X-48228Y-14897D01*
X-48931Y-15037D01*
X-49526Y-15435D01*
X-49702Y-15698D01*
X-50246Y-15611D01*
X-50861Y-13430D01*
X-50790Y-13365D01*
X-50414Y-13173D01*
X-49915Y-13507D01*
X-49213Y-13646D01*
X-48510Y-13507D01*
X-47915Y-13109D01*
X-47517Y-12513D01*
X-47377Y-11811D01*
X-47517Y-11109D01*
X-47915Y-10513D01*
X-48510Y-10115D01*
X-49213Y-9976D01*
X-49915Y-10115D01*
X-50510Y-10513D01*
X-50711Y-10813D01*
X-51211Y-10661D01*
Y-9649D01*
X-51028Y-9528D01*
X-50597Y-8883D01*
X-50446Y-8122D01*
X-50509Y-7806D01*
X-50059Y-7505D01*
X-49915Y-7601D01*
X-49213Y-7741D01*
X-48510Y-7601D01*
X-47915Y-7203D01*
X-47517Y-6608D01*
X-47377Y-5906D01*
X-47517Y-5203D01*
X-47915Y-4608D01*
X-48510Y-4210D01*
X-49213Y-4070D01*
X-49915Y-4210D01*
X-50510Y-4608D01*
X-50908Y-5203D01*
X-51048Y-5906D01*
X-51003Y-6131D01*
X-51453Y-6432D01*
X-51673Y-6285D01*
X-52078Y-6204D01*
X-52078Y-5392D01*
X-52078Y-4936D01*
X-52070Y-4933D01*
X-52064Y-4930D01*
X-52059Y-4919D01*
X-52012Y-4860D01*
X-51719Y-4598D01*
X-51118Y-3815D01*
X-50740Y-2902D01*
X-50611Y-1924D01*
X-50740Y-945D01*
X-51118Y-32D01*
X-51719Y751D01*
X-52012Y1013D01*
X-52059Y1071D01*
X-52064Y1083D01*
X-52070Y1086D01*
X-52078Y1089D01*
Y2308D01*
X-52063Y2315D01*
X-52037Y2367D01*
X-51778Y2739D01*
X-51346Y3302D01*
X-50787Y4652D01*
X-50596Y6101D01*
X-50787Y7550D01*
X-51346Y8900D01*
X-51365Y8925D01*
X-51364Y8928D01*
X-51370Y8943D01*
X-50530Y9966D01*
X-49847Y11243D01*
X-49427Y12629D01*
X-49285Y14069D01*
X-49400Y15241D01*
X-49427Y15510D01*
X-49430Y15525D01*
X-49465Y15714D01*
X-49465Y15714D01*
X-49408Y15784D01*
X-49160Y16086D01*
X-48264Y17177D01*
X-47414Y18767D01*
X-46891Y20492D01*
X-46796Y21461D01*
X-46739Y21899D01*
X-46728Y21903D01*
X-46727Y21903D01*
X-46726Y21905D01*
X-46557Y22098D01*
X-46386Y22298D01*
X-45592Y23228D01*
X-35827Y23228D01*
X-28857Y16258D01*
D02*
G37*
G36*
X-48764Y-10727D02*
X-48383Y-10982D01*
X-48129Y-11362D01*
X-48039Y-11811D01*
X-48129Y-12260D01*
X-48383Y-12641D01*
X-48764Y-12895D01*
X-49213Y-12984D01*
X-49661Y-12895D01*
X-50053Y-12633D01*
X-50143Y-12615D01*
X-50213Y-12555D01*
X-50378Y-12569D01*
X-50541Y-12536D01*
X-50872Y-12447D01*
X-51023Y-12309D01*
X-50994Y-11855D01*
X-50584Y-11450D01*
X-50502Y-11395D01*
X-50405Y-11386D01*
X-50303Y-11263D01*
X-50171Y-11174D01*
X-50042Y-10982D01*
X-49661Y-10727D01*
X-49213Y-10638D01*
X-48764Y-10727D01*
D02*
G37*
G36*
X-47779Y-15649D02*
X-47399Y-15903D01*
X-47144Y-16283D01*
X-47055Y-16732D01*
X-47144Y-17181D01*
X-47399Y-17562D01*
X-47779Y-17816D01*
X-48228Y-17905D01*
X-48625Y-17827D01*
X-48682Y-17838D01*
X-48737Y-17814D01*
X-48866Y-17864D01*
X-49145Y-17901D01*
X-49607Y-17588D01*
X-49821Y-17009D01*
X-49853Y-16913D01*
X-49845Y-16826D01*
X-49826Y-16762D01*
X-49594Y-16367D01*
X-49549Y-16317D01*
X-49458Y-16256D01*
X-49320Y-16223D01*
X-49259Y-16123D01*
X-49162Y-16058D01*
X-49058Y-15903D01*
X-48677Y-15649D01*
X-48228Y-15559D01*
X-47779Y-15649D01*
D02*
G37*
G36*
X-37346Y-41436D02*
X-36966Y-41690D01*
X-36711Y-42071D01*
X-36622Y-42520D01*
X-36711Y-42969D01*
X-36966Y-43349D01*
X-37346Y-43604D01*
X-37686Y-43671D01*
X-37701Y-43681D01*
X-37719Y-43679D01*
X-37797Y-43736D01*
X-38167Y-43750D01*
X-38564Y-43647D01*
X-38566Y-43645D01*
X-39135Y-42752D01*
X-39145Y-42701D01*
X-39158Y-42532D01*
X-38888Y-42024D01*
X-38855Y-42011D01*
X-38828Y-41946D01*
X-38770Y-41908D01*
X-38625Y-41690D01*
X-38244Y-41436D01*
X-37795Y-41347D01*
X-37346Y-41436D01*
D02*
G37*
%LPC*%
G36*
X-45037Y7978D02*
X-45739Y7839D01*
X-46335Y7441D01*
X-46733Y6846D01*
X-46872Y6143D01*
X-46733Y5441D01*
X-46335Y4846D01*
X-45739Y4448D01*
X-45037Y4308D01*
X-44335Y4448D01*
X-43739Y4846D01*
X-43341Y5441D01*
X-43202Y6143D01*
X-43341Y6846D01*
X-43739Y7441D01*
X-44335Y7839D01*
X-45037Y7978D01*
D02*
G37*
G36*
X-33465Y7347D02*
X-34167Y7207D01*
X-34762Y6809D01*
X-35160Y6214D01*
X-35300Y5512D01*
X-35160Y4809D01*
X-34762Y4214D01*
X-34167Y3816D01*
X-33465Y3677D01*
X-32762Y3816D01*
X-32167Y4214D01*
X-31769Y4809D01*
X-31629Y5512D01*
X-31769Y6214D01*
X-32167Y6809D01*
X-32762Y7207D01*
X-33465Y7347D01*
D02*
G37*
G36*
X-37402Y3410D02*
X-38104Y3270D01*
X-38699Y2873D01*
X-39097Y2277D01*
X-39237Y1575D01*
X-39097Y872D01*
X-38699Y277D01*
X-38104Y-121D01*
X-37402Y-261D01*
X-36699Y-121D01*
X-36104Y277D01*
X-35706Y872D01*
X-35566Y1575D01*
X-35706Y2277D01*
X-36104Y2873D01*
X-36699Y3270D01*
X-37402Y3410D01*
D02*
G37*
G36*
X-44650Y3312D02*
X-45353Y3172D01*
X-45948Y2774D01*
X-46346Y2179D01*
X-46486Y1476D01*
X-46346Y774D01*
X-45948Y179D01*
X-45353Y-219D01*
X-44650Y-359D01*
X-43948Y-219D01*
X-43353Y179D01*
X-42955Y774D01*
X-42815Y1476D01*
X-42955Y2179D01*
X-43353Y2774D01*
X-43948Y3172D01*
X-44650Y3312D01*
D02*
G37*
G36*
X-33858Y-2102D02*
X-34561Y-2241D01*
X-35156Y-2639D01*
X-35554Y-3235D01*
X-35693Y-3937D01*
X-35554Y-4639D01*
X-35156Y-5235D01*
X-34561Y-5633D01*
X-33858Y-5772D01*
X-33156Y-5633D01*
X-32561Y-5235D01*
X-32163Y-4639D01*
X-32023Y-3937D01*
X-32163Y-3235D01*
X-32561Y-2639D01*
X-33156Y-2241D01*
X-33858Y-2102D01*
D02*
G37*
G36*
X-41676D02*
X-42378Y-2241D01*
X-42973Y-2639D01*
X-43371Y-3235D01*
X-43511Y-3937D01*
X-43371Y-4639D01*
X-42973Y-5235D01*
X-42378Y-5633D01*
X-42195Y-5669D01*
X-41964Y-6225D01*
X-41971Y-6235D01*
X-42111Y-6937D01*
X-41971Y-7639D01*
X-41573Y-8235D01*
X-40978Y-8633D01*
X-40276Y-8772D01*
X-39573Y-8633D01*
X-38978Y-8235D01*
X-38580Y-7639D01*
X-38440Y-6937D01*
X-38580Y-6235D01*
X-38978Y-5639D01*
X-39573Y-5241D01*
X-39757Y-5205D01*
X-39987Y-4649D01*
X-39980Y-4639D01*
X-39840Y-3937D01*
X-39980Y-3235D01*
X-40378Y-2639D01*
X-40973Y-2241D01*
X-41676Y-2102D01*
D02*
G37*
G36*
X-31890Y-8007D02*
X-32592Y-8147D01*
X-33187Y-8545D01*
X-33585Y-9140D01*
X-33725Y-9843D01*
X-33585Y-10545D01*
X-33187Y-11140D01*
X-32592Y-11538D01*
X-31890Y-11678D01*
X-31187Y-11538D01*
X-30592Y-11140D01*
X-30194Y-10545D01*
X-30055Y-9843D01*
X-30194Y-9140D01*
X-30592Y-8545D01*
X-31187Y-8147D01*
X-31890Y-8007D01*
D02*
G37*
G36*
X-29921Y-13913D02*
X-30624Y-14052D01*
X-31219Y-14450D01*
X-31617Y-15046D01*
X-31756Y-15748D01*
X-31617Y-16450D01*
X-31219Y-17046D01*
X-30624Y-17444D01*
X-29921Y-17583D01*
X-29219Y-17444D01*
X-28624Y-17046D01*
X-28226Y-16450D01*
X-28086Y-15748D01*
X-28226Y-15046D01*
X-28624Y-14450D01*
X-29219Y-14052D01*
X-29921Y-13913D01*
D02*
G37*
G36*
X0Y-37535D02*
X-702Y-37674D01*
X-1298Y-38072D01*
X-1696Y-38668D01*
X-1835Y-39370D01*
X-1696Y-40072D01*
X-1298Y-40668D01*
X-702Y-41066D01*
X0Y-41205D01*
X702Y-41066D01*
X1298Y-40668D01*
X1696Y-40072D01*
X1835Y-39370D01*
X1696Y-38668D01*
X1298Y-38072D01*
X702Y-37674D01*
X0Y-37535D01*
D02*
G37*
G36*
X-24409D02*
X-25112Y-37674D01*
X-25707Y-38072D01*
X-26105Y-38668D01*
X-26245Y-39370D01*
X-26105Y-40072D01*
X-25707Y-40668D01*
X-25112Y-41066D01*
X-24409Y-41205D01*
X-23707Y-41066D01*
X-23112Y-40668D01*
X-22714Y-40072D01*
X-22574Y-39370D01*
X-22714Y-38668D01*
X-23112Y-38072D01*
X-23707Y-37674D01*
X-24409Y-37535D01*
D02*
G37*
G36*
X-27953Y-41078D02*
X-28655Y-41218D01*
X-29250Y-41616D01*
X-29648Y-42211D01*
X-29788Y-42913D01*
X-29648Y-43616D01*
X-29250Y-44211D01*
X-28655Y-44609D01*
X-27953Y-44749D01*
X-27250Y-44609D01*
X-26655Y-44211D01*
X-26257Y-43616D01*
X-26118Y-42913D01*
X-26257Y-42211D01*
X-26655Y-41616D01*
X-27250Y-41218D01*
X-27953Y-41078D01*
D02*
G37*
G36*
X3937Y-41472D02*
X3235Y-41611D01*
X2639Y-42009D01*
X2241Y-42605D01*
X2102Y-43307D01*
X2241Y-44009D01*
X2639Y-44605D01*
X3235Y-45003D01*
X3937Y-45142D01*
X4639Y-45003D01*
X5235Y-44605D01*
X5633Y-44009D01*
X5772Y-43307D01*
X5633Y-42605D01*
X5235Y-42009D01*
X4639Y-41611D01*
X3937Y-41472D01*
D02*
G37*
G36*
X-3937D02*
X-4639Y-41611D01*
X-5235Y-42009D01*
X-5633Y-42605D01*
X-5772Y-43307D01*
X-5633Y-44009D01*
X-5235Y-44605D01*
X-4639Y-45003D01*
X-3937Y-45142D01*
X-3235Y-45003D01*
X-2639Y-44605D01*
X-2241Y-44009D01*
X-2102Y-43307D01*
X-2241Y-42605D01*
X-2639Y-42009D01*
X-3235Y-41611D01*
X-3937Y-41472D01*
D02*
G37*
G36*
X-33071Y-43047D02*
X-33773Y-43186D01*
X-34369Y-43584D01*
X-34766Y-44180D01*
X-34906Y-44882D01*
X-34766Y-45584D01*
X-34369Y-46180D01*
X-33773Y-46577D01*
X-33071Y-46717D01*
X-32368Y-46577D01*
X-31773Y-46180D01*
X-31375Y-45584D01*
X-31236Y-44882D01*
X-31375Y-44180D01*
X-31773Y-43584D01*
X-32368Y-43186D01*
X-33071Y-43047D01*
D02*
G37*
G36*
X7874Y-45409D02*
X7172Y-45548D01*
X6576Y-45946D01*
X6179Y-46542D01*
X6039Y-47244D01*
X6179Y-47946D01*
X6576Y-48542D01*
X7172Y-48940D01*
X7874Y-49079D01*
X8576Y-48940D01*
X9172Y-48542D01*
X9570Y-47946D01*
X9709Y-47244D01*
X9570Y-46542D01*
X9172Y-45946D01*
X8576Y-45548D01*
X7874Y-45409D01*
D02*
G37*
G36*
X0D02*
X-702Y-45548D01*
X-1298Y-45946D01*
X-1696Y-46542D01*
X-1835Y-47244D01*
X-1696Y-47946D01*
X-1298Y-48542D01*
X-702Y-48940D01*
X0Y-49079D01*
X702Y-48940D01*
X1298Y-48542D01*
X1696Y-47946D01*
X1835Y-47244D01*
X1696Y-46542D01*
X1298Y-45946D01*
X702Y-45548D01*
X0Y-45409D01*
D02*
G37*
G36*
X-7874D02*
X-8576Y-45548D01*
X-9172Y-45946D01*
X-9570Y-46542D01*
X-9709Y-47244D01*
X-9570Y-47946D01*
X-9172Y-48542D01*
X-8576Y-48940D01*
X-7874Y-49079D01*
X-7172Y-48940D01*
X-6576Y-48542D01*
X-6179Y-47946D01*
X-6039Y-47244D01*
X-6179Y-46542D01*
X-6576Y-45946D01*
X-7172Y-45548D01*
X-7874Y-45409D01*
D02*
G37*
G36*
X3937Y-49346D02*
X3235Y-49485D01*
X2639Y-49883D01*
X2241Y-50479D01*
X2102Y-51181D01*
X2241Y-51883D01*
X2639Y-52479D01*
X3235Y-52877D01*
X3937Y-53016D01*
X4639Y-52877D01*
X5235Y-52479D01*
X5633Y-51883D01*
X5772Y-51181D01*
X5633Y-50479D01*
X5235Y-49883D01*
X4639Y-49485D01*
X3937Y-49346D01*
D02*
G37*
G36*
X-3937D02*
X-4639Y-49485D01*
X-5235Y-49883D01*
X-5633Y-50479D01*
X-5772Y-51181D01*
X-5633Y-51883D01*
X-5235Y-52479D01*
X-4639Y-52877D01*
X-3937Y-53016D01*
X-3235Y-52877D01*
X-2639Y-52479D01*
X-2241Y-51883D01*
X-2102Y-51181D01*
X-2241Y-50479D01*
X-2639Y-49883D01*
X-3235Y-49485D01*
X-3937Y-49346D01*
D02*
G37*
G36*
X0Y-53283D02*
X-702Y-53423D01*
X-1298Y-53820D01*
X-1696Y-54416D01*
X-1835Y-55118D01*
X-1696Y-55820D01*
X-1298Y-56416D01*
X-702Y-56814D01*
X0Y-56953D01*
X702Y-56814D01*
X1298Y-56416D01*
X1696Y-55820D01*
X1835Y-55118D01*
X1696Y-54416D01*
X1298Y-53820D01*
X702Y-53423D01*
X0Y-53283D01*
D02*
G37*
G36*
X-23130Y-53578D02*
X-23832Y-53718D01*
X-24428Y-54116D01*
X-24825Y-54711D01*
X-24965Y-55413D01*
X-24825Y-56116D01*
X-24428Y-56711D01*
X-23832Y-57109D01*
X-23130Y-57249D01*
X-22535Y-57130D01*
X-22463Y-57494D01*
X-22065Y-58089D01*
X-21470Y-58487D01*
X-20768Y-58627D01*
X-20065Y-58487D01*
X-19470Y-58089D01*
X-19072Y-57494D01*
X-19043Y-57348D01*
X-18512Y-57243D01*
X-18335Y-57508D01*
X-17690Y-57939D01*
X-16929Y-58091D01*
X-16168Y-57939D01*
X-15571Y-57540D01*
X-15401Y-57484D01*
X-15007D01*
X-14989Y-57511D01*
X-14344Y-57942D01*
X-13583Y-58093D01*
X-12822Y-57942D01*
X-12178Y-57511D01*
X-11746Y-56866D01*
X-11595Y-56105D01*
X-11746Y-55344D01*
X-12178Y-54699D01*
X-12822Y-54268D01*
X-13583Y-54117D01*
X-14344Y-54268D01*
X-14941Y-54667D01*
X-15112Y-54723D01*
X-15505D01*
X-15523Y-54697D01*
X-16168Y-54265D01*
X-16929Y-54114D01*
X-17690Y-54265D01*
X-18335Y-54697D01*
X-18766Y-55342D01*
X-18813Y-55577D01*
X-19344Y-55683D01*
X-19470Y-55494D01*
X-20065Y-55096D01*
X-20768Y-54956D01*
X-21362Y-55074D01*
X-21434Y-54711D01*
X-21832Y-54116D01*
X-22428Y-53718D01*
X-23130Y-53578D01*
D02*
G37*
G36*
X98Y-59035D02*
X-662Y-59187D01*
X-1307Y-59618D01*
X-1738Y-60263D01*
X-1890Y-61024D01*
X-1738Y-61784D01*
X-1581Y-62021D01*
X-1727Y-62374D01*
X-1846Y-62523D01*
X-2437Y-62918D01*
X-2518Y-63040D01*
X-3113Y-63137D01*
X-3570Y-62832D01*
X-4331Y-62680D01*
X-5092Y-62832D01*
X-5737Y-63263D01*
X-6168Y-63908D01*
X-6319Y-64669D01*
X-6168Y-65429D01*
X-5737Y-66074D01*
X-5092Y-66505D01*
X-4331Y-66657D01*
X-3570Y-66505D01*
X-2925Y-66074D01*
X-2843Y-65952D01*
X-2249Y-65855D01*
X-1792Y-66161D01*
X-1031Y-66312D01*
X-270Y-66161D01*
X375Y-65729D01*
X806Y-65084D01*
X958Y-64324D01*
X806Y-63563D01*
X648Y-63326D01*
X794Y-62973D01*
X914Y-62824D01*
X1504Y-62429D01*
X1935Y-61784D01*
X2087Y-61024D01*
X1935Y-60263D01*
X1504Y-59618D01*
X859Y-59187D01*
X98Y-59035D01*
D02*
G37*
%LPD*%
G36*
X-33016Y6596D02*
X-32635Y6341D01*
X-32381Y5961D01*
X-32291Y5512D01*
X-32381Y5063D01*
X-32635Y4682D01*
X-33016Y4428D01*
X-33465Y4339D01*
X-33913Y4428D01*
X-34294Y4682D01*
X-34548Y5063D01*
X-34638Y5512D01*
X-34548Y5961D01*
X-34294Y6341D01*
X-33913Y6596D01*
X-33465Y6685D01*
X-33016Y6596D01*
D02*
G37*
G36*
X-36953Y2659D02*
X-36572Y2404D01*
X-36318Y2024D01*
X-36228Y1575D01*
X-36318Y1126D01*
X-36572Y745D01*
X-36953Y491D01*
X-37402Y402D01*
X-37850Y491D01*
X-38231Y745D01*
X-38485Y1126D01*
X-38575Y1575D01*
X-38485Y2024D01*
X-38231Y2404D01*
X-37850Y2659D01*
X-37402Y2748D01*
X-36953Y2659D01*
D02*
G37*
G36*
X-33409Y-2853D02*
X-33029Y-3108D01*
X-32774Y-3488D01*
X-32685Y-3937D01*
X-32774Y-4386D01*
X-33029Y-4766D01*
X-33409Y-5021D01*
X-33858Y-5110D01*
X-34307Y-5021D01*
X-34688Y-4766D01*
X-34942Y-4386D01*
X-35031Y-3937D01*
X-34942Y-3488D01*
X-34688Y-3108D01*
X-34307Y-2853D01*
X-33858Y-2764D01*
X-33409Y-2853D01*
D02*
G37*
G36*
X-31441Y-8759D02*
X-31060Y-9013D01*
X-30806Y-9394D01*
X-30717Y-9843D01*
X-30806Y-10291D01*
X-31060Y-10672D01*
X-31441Y-10926D01*
X-31890Y-11016D01*
X-32339Y-10926D01*
X-32719Y-10672D01*
X-32974Y-10291D01*
X-33063Y-9843D01*
X-32974Y-9394D01*
X-32719Y-9013D01*
X-32339Y-8759D01*
X-31890Y-8669D01*
X-31441Y-8759D01*
D02*
G37*
G36*
X-29472Y-14664D02*
X-29092Y-14919D01*
X-28837Y-15299D01*
X-28748Y-15748D01*
X-28837Y-16197D01*
X-29092Y-16578D01*
X-29472Y-16832D01*
X-29921Y-16921D01*
X-30370Y-16832D01*
X-30751Y-16578D01*
X-31005Y-16197D01*
X-31094Y-15748D01*
X-31005Y-15299D01*
X-30751Y-14919D01*
X-30370Y-14664D01*
X-29921Y-14575D01*
X-29472Y-14664D01*
D02*
G37*
G36*
X449Y-38286D02*
X829Y-38541D01*
X1084Y-38921D01*
X1173Y-39370D01*
X1084Y-39819D01*
X829Y-40200D01*
X449Y-40454D01*
X0Y-40543D01*
X-449Y-40454D01*
X-829Y-40200D01*
X-1084Y-39819D01*
X-1173Y-39370D01*
X-1084Y-38921D01*
X-829Y-38541D01*
X-449Y-38286D01*
X0Y-38197D01*
X449Y-38286D01*
D02*
G37*
G36*
X-23960D02*
X-23580Y-38541D01*
X-23326Y-38921D01*
X-23236Y-39370D01*
X-23326Y-39819D01*
X-23580Y-40200D01*
X-23960Y-40454D01*
X-24409Y-40543D01*
X-24858Y-40454D01*
X-25239Y-40200D01*
X-25493Y-39819D01*
X-25583Y-39370D01*
X-25493Y-38921D01*
X-25239Y-38541D01*
X-24858Y-38286D01*
X-24409Y-38197D01*
X-23960Y-38286D01*
D02*
G37*
G36*
X-27504Y-41830D02*
X-27123Y-42084D01*
X-26869Y-42465D01*
X-26780Y-42913D01*
X-26869Y-43362D01*
X-27123Y-43743D01*
X-27504Y-43997D01*
X-27953Y-44087D01*
X-28402Y-43997D01*
X-28782Y-43743D01*
X-29037Y-43362D01*
X-29126Y-42913D01*
X-29037Y-42465D01*
X-28782Y-42084D01*
X-28402Y-41830D01*
X-27953Y-41740D01*
X-27504Y-41830D01*
D02*
G37*
G36*
X4386Y-42223D02*
X4766Y-42478D01*
X5021Y-42858D01*
X5110Y-43307D01*
X5021Y-43756D01*
X4766Y-44137D01*
X4386Y-44391D01*
X3937Y-44480D01*
X3488Y-44391D01*
X3108Y-44137D01*
X2853Y-43756D01*
X2764Y-43307D01*
X2853Y-42858D01*
X3108Y-42478D01*
X3488Y-42223D01*
X3937Y-42134D01*
X4386Y-42223D01*
D02*
G37*
G36*
X-3488D02*
X-3108Y-42478D01*
X-2853Y-42858D01*
X-2764Y-43307D01*
X-2853Y-43756D01*
X-3108Y-44137D01*
X-3488Y-44391D01*
X-3937Y-44480D01*
X-4386Y-44391D01*
X-4766Y-44137D01*
X-5021Y-43756D01*
X-5110Y-43307D01*
X-5021Y-42858D01*
X-4766Y-42478D01*
X-4386Y-42223D01*
X-3937Y-42134D01*
X-3488Y-42223D01*
D02*
G37*
G36*
X-32622Y-43798D02*
X-32241Y-44052D01*
X-31987Y-44433D01*
X-31898Y-44882D01*
X-31987Y-45331D01*
X-32241Y-45711D01*
X-32622Y-45966D01*
X-33071Y-46055D01*
X-33520Y-45966D01*
X-33900Y-45711D01*
X-34155Y-45331D01*
X-34244Y-44882D01*
X-34155Y-44433D01*
X-33900Y-44052D01*
X-33520Y-43798D01*
X-33071Y-43709D01*
X-32622Y-43798D01*
D02*
G37*
G36*
X8323Y-46160D02*
X8704Y-46415D01*
X8958Y-46795D01*
X9047Y-47244D01*
X8958Y-47693D01*
X8704Y-48074D01*
X8323Y-48328D01*
X7874Y-48417D01*
X7425Y-48328D01*
X7045Y-48074D01*
X6790Y-47693D01*
X6701Y-47244D01*
X6790Y-46795D01*
X7045Y-46415D01*
X7425Y-46160D01*
X7874Y-46071D01*
X8323Y-46160D01*
D02*
G37*
G36*
X449D02*
X829Y-46415D01*
X1084Y-46795D01*
X1173Y-47244D01*
X1084Y-47693D01*
X829Y-48074D01*
X449Y-48328D01*
X0Y-48417D01*
X-449Y-48328D01*
X-829Y-48074D01*
X-1084Y-47693D01*
X-1173Y-47244D01*
X-1084Y-46795D01*
X-829Y-46415D01*
X-449Y-46160D01*
X0Y-46071D01*
X449Y-46160D01*
D02*
G37*
G36*
X-7425D02*
X-7045Y-46415D01*
X-6790Y-46795D01*
X-6701Y-47244D01*
X-6790Y-47693D01*
X-7045Y-48074D01*
X-7425Y-48328D01*
X-7874Y-48417D01*
X-8323Y-48328D01*
X-8704Y-48074D01*
X-8958Y-47693D01*
X-9047Y-47244D01*
X-8958Y-46795D01*
X-8704Y-46415D01*
X-8323Y-46160D01*
X-7874Y-46071D01*
X-7425Y-46160D01*
D02*
G37*
G36*
X4386Y-50097D02*
X4766Y-50352D01*
X5021Y-50732D01*
X5110Y-51181D01*
X5021Y-51630D01*
X4766Y-52011D01*
X4386Y-52265D01*
X3937Y-52354D01*
X3488Y-52265D01*
X3108Y-52011D01*
X2853Y-51630D01*
X2764Y-51181D01*
X2853Y-50732D01*
X3108Y-50352D01*
X3488Y-50097D01*
X3937Y-50008D01*
X4386Y-50097D01*
D02*
G37*
G36*
X-3488D02*
X-3108Y-50352D01*
X-2853Y-50732D01*
X-2764Y-51181D01*
X-2853Y-51630D01*
X-3108Y-52011D01*
X-3488Y-52265D01*
X-3937Y-52354D01*
X-4386Y-52265D01*
X-4766Y-52011D01*
X-5021Y-51630D01*
X-5110Y-51181D01*
X-5021Y-50732D01*
X-4766Y-50352D01*
X-4386Y-50097D01*
X-3937Y-50008D01*
X-3488Y-50097D01*
D02*
G37*
G36*
X449Y-54034D02*
X829Y-54289D01*
X1084Y-54669D01*
X1173Y-55118D01*
X1084Y-55567D01*
X829Y-55948D01*
X449Y-56202D01*
X0Y-56291D01*
X-449Y-56202D01*
X-829Y-55948D01*
X-1084Y-55567D01*
X-1173Y-55118D01*
X-1084Y-54669D01*
X-829Y-54289D01*
X-449Y-54034D01*
X0Y-53945D01*
X449Y-54034D01*
D02*
G37*
G36*
X-22681Y-54330D02*
X-22300Y-54584D01*
X-22046Y-54965D01*
X-21999Y-55201D01*
X-21768Y-55547D01*
X-21723Y-55614D01*
X-21235Y-55711D01*
X-21235Y-55711D01*
X-20768Y-55618D01*
X-20319Y-55708D01*
X-19938Y-55962D01*
X-19884Y-56043D01*
X-19776Y-56115D01*
X-19704Y-56223D01*
X-19578Y-56248D01*
X-19570Y-56253D01*
X-19457Y-56888D01*
X-19476Y-56916D01*
X-19583Y-56988D01*
X-19608Y-57114D01*
X-19680Y-57222D01*
X-19684Y-57240D01*
X-19938Y-57621D01*
X-20319Y-57875D01*
X-20768Y-57964D01*
X-21217Y-57875D01*
X-21597Y-57621D01*
X-21851Y-57240D01*
X-21899Y-57004D01*
X-22130Y-56657D01*
X-22175Y-56590D01*
X-22662Y-56493D01*
X-22662Y-56494D01*
X-23130Y-56586D01*
X-23579Y-56497D01*
X-23959Y-56243D01*
X-24214Y-55862D01*
X-24303Y-55413D01*
X-24214Y-54965D01*
X-23959Y-54584D01*
X-23579Y-54330D01*
X-23130Y-54240D01*
X-22681Y-54330D01*
D02*
G37*
D63*
X-41691Y39538D02*
G03*
X-40797Y42373I-10478J4860D01*
G01*
X-17635Y-66591D02*
G03*
X-17502Y-66609I232J1178D01*
G01*
X-54661Y4062D02*
G03*
X-55143Y3089I718J-962D01*
G01*
X-43018Y-37960D02*
G03*
X-43020Y-37957I-1630J-764D01*
G01*
X-19250Y-63677D02*
G03*
X-22939Y-60695I-6614J-4411D01*
G01*
X-54504Y9718D02*
G03*
X-54163Y10294I-1351J1190D01*
G01*
X-51170Y-16835D02*
G03*
X-51186Y-16775I-6376J-1703D01*
G01*
X-38301Y-46567D02*
G03*
X-41752Y-41058I-38866J-20512D01*
G01*
X-44648Y-38725D02*
G03*
X-44649Y-38722I-1626J-773D01*
G01*
X-26268Y48030D02*
G03*
X-26318Y48018I245J-1175D01*
G01*
X-50623Y16183D02*
G03*
X-50680Y15459I1112J-451D01*
G01*
X-41752Y-41058D02*
G03*
X-43018Y-37960I-30019J-10467D01*
G01*
X-27311Y49676D02*
G03*
X-27774Y49506I174J-1187D01*
G01*
X-8800Y-71440D02*
G03*
X-8758Y-71440I43J3887D01*
G01*
X-43020Y-37957D02*
G03*
X-43022Y-37953I-3254J-1541D01*
G01*
X-31481Y48050D02*
G03*
X-31651Y47992I302J-1161D01*
G01*
X-43022Y-37953D02*
G03*
X-43023Y-37951I-1626J-772D01*
G01*
X-44649Y-38722D02*
G03*
X-46006Y-36382I-14538J-6867D01*
G01*
X-20667Y-64799D02*
G03*
X-23873Y-62269I-5197J-3289D01*
G01*
X-52909Y-17298D02*
G03*
X-52922Y-17252I-4637J-1240D01*
G01*
X2702Y-70243D02*
G03*
X2114Y-70088I-591J-1044D01*
G01*
X-46899Y-30896D02*
G03*
X-46828Y-31074I1147J351D01*
G01*
X-44342Y-45010D02*
G03*
X-46274Y-39498I-27428J-6515D01*
G01*
X-49302Y23702D02*
G03*
X-46612Y27934I-5022J6163D01*
G01*
X-42748Y-43966D02*
G03*
X-44648Y-38725I-29023J-7559D01*
G01*
X-39696Y-47789D02*
G03*
X-42748Y-43966I-10348J-5131D01*
G01*
X-29658Y48719D02*
G03*
X-29768Y48676I378J-1139D01*
G01*
X-46274Y-39498D02*
G03*
X-47806Y-36967I-12913J-6092D01*
G01*
X-43023Y-37951D02*
G03*
X-44206Y-35833I-16164J-7639D01*
G01*
X-52434Y-12184D02*
G03*
X-51238Y-16596I52947J11985D01*
G01*
X-51100Y-17075D02*
G03*
X-51109Y-17044I-4606J-1352D01*
G01*
X-51238Y-16596D02*
G03*
X-51186Y-16733I1145J358D01*
G01*
X-51086Y-17122D02*
G03*
X-46668Y-26926I51086J17122D01*
G01*
X-45225Y-30215D02*
G03*
X-45932Y-28357I-15465J-4825D01*
G01*
X-51109Y-17044D02*
G03*
X-51117Y-17017I-4600J-1372D01*
G01*
X-45932Y-28357D02*
G03*
X-46668Y-26926I-14757J-6683D01*
G01*
X-46900Y-30891D02*
G03*
X-48227Y-27826I-13790J-4149D01*
G01*
X-52802Y-17664D02*
G03*
X-48227Y-27826I52802J17664D01*
G01*
X-55144Y-7131D02*
G03*
X-52952Y-17144I55656J6932D01*
G01*
X-52922Y-17252D02*
G03*
X-52922Y-17250I-1733J-487D01*
G01*
X-52924Y-17245D02*
G03*
X-52952Y-17144I-2897J-781D01*
G01*
X-38301Y-46567D02*
G03*
X-38166Y-46771I1063J556D01*
G01*
X-47596Y22807D02*
G03*
X-45941Y24885I-6727J7057D01*
G01*
X-38155Y-46784D02*
G03*
X-38080Y-46868I927J761D01*
G01*
X-11395Y-67685D02*
G03*
X-16952Y-64768I-5236J-3226D01*
G01*
X4359Y-71822D02*
G03*
X4558Y-71955I761J927D01*
G01*
X-32352Y45774D02*
G03*
X-31056Y46288I-8482J23261D01*
G01*
X-28126Y47381D02*
G03*
X-28242Y47339I354J-1147D01*
G01*
X-12944Y52561D02*
G03*
X-12952Y52559I242J-1175D01*
G01*
X-19221Y50935D02*
G03*
X-19389Y50865I373J-1141D01*
G01*
X-26238Y48036D02*
G03*
X-19519Y50791I-3618J18398D01*
G01*
X-19402Y50859D02*
G03*
X-19519Y50791I542J-1071D01*
G01*
X-37633Y43091D02*
G03*
X-32677Y45596I-4241J14544D01*
G01*
X-19091Y-63869D02*
G03*
X-17648Y-64732I2520J2576D01*
G01*
X-30892Y46344D02*
G03*
X-30924Y46335I319J-1157D01*
G01*
X-32521Y45696D02*
G03*
X-32677Y45596I569J-1057D01*
G01*
X2965Y-70438D02*
G03*
X2711Y-70248I-838J-859D01*
G01*
X-29039Y47026D02*
G03*
X-29116Y46995I409J-1128D01*
G01*
X-28126Y47381D02*
G03*
X-27209Y47756I-1574J5165D01*
G01*
X-52833Y-17561D02*
G03*
X-52839Y-17541I-2875J-855D01*
G01*
X4268Y-71741D02*
G03*
X4359Y-71822I845J852D01*
G01*
X-45225Y-30215D02*
G03*
X-45084Y-30513I1146J358D01*
G01*
X-11183Y-67941D02*
G03*
X-8367Y-69034I2816J3084D01*
G01*
X-50347Y16605D02*
G03*
X-50616Y16202I844J-853D01*
G01*
X-52274Y9769D02*
G03*
X-50680Y15459I-4396J4301D01*
G01*
X-11395Y-67685D02*
G03*
X-11189Y-67936I1022J629D01*
G01*
X-32352Y45774D02*
G03*
X-32508Y45703I415J-1126D01*
G01*
X-50347Y16605D02*
G03*
X-47965Y21987I-5562J5681D01*
G01*
X-43128Y29611D02*
G03*
X-42083Y31901I-9922J5912D01*
G01*
X-19250Y-63677D02*
G03*
X-19091Y-63869I998J666D01*
G01*
X-30944Y46328D02*
G03*
X-31044Y46293I351J-1148D01*
G01*
X-12988Y52551D02*
G03*
X-13092Y52524I249J-1174D01*
G01*
X-47596Y22807D02*
G03*
X-47965Y21987I831J-866D01*
G01*
X-42028Y32036D02*
G03*
X-42083Y31901I1085J-512D01*
G01*
X-30892Y46344D02*
G03*
X-29342Y46894I-2826J10424D01*
G01*
X-17648Y-64732D02*
G03*
X-17234Y-64783I353J1147D01*
G01*
X-28890Y47080D02*
G03*
X-28397Y47273I-3036J8472D01*
G01*
X-26238Y48036D02*
G03*
X-26252Y48033I235J-1177D01*
G01*
X-52826Y-17584D02*
G03*
X-52833Y-17561I-2879J-843D01*
G01*
X-44379Y36907D02*
G03*
X-44491Y36400I1088J-507D01*
G01*
X-17243Y-69073D02*
G03*
X-16818Y-69085I244J1175D01*
G01*
X-23900Y-64206D02*
G03*
X-24451Y-63973I-1964J-3881D01*
G01*
X43817Y35118D02*
G03*
X49050Y29868I11073J5804D01*
G01*
X-23581Y-64439D02*
G03*
X-23593Y-64428I-849J-848D01*
G01*
X-34089Y48979D02*
G03*
X-34476Y48765I378J-1139D01*
G01*
X-44379Y36907D02*
G03*
X-43829Y38475I-7613J3549D01*
G01*
X-34089Y48979D02*
G03*
X-32252Y49694I-6745J20055D01*
G01*
X-54554Y-18090D02*
G03*
X-54558Y-18075I-1152J-337D01*
G01*
X-17243Y-69073D02*
G03*
X-17609Y-69036I-366J-1763D01*
G01*
X17320Y53033D02*
G03*
X17141Y53088I-441J-1116D01*
G01*
X-54558Y-18075D02*
G03*
X-54560Y-18067I-1151J-341D01*
G01*
X34017Y44919D02*
G03*
X33817Y45184I-1048J-584D01*
G01*
X-54519Y-18206D02*
G03*
X-49778Y-28739I54519J18206D01*
G01*
X-54649Y-17760D02*
G03*
X-54655Y-17738I-2897J-778D01*
G01*
X13313Y54086D02*
G03*
X13008Y54193I-548J-1068D01*
G01*
X23521Y52445D02*
G03*
X23506Y52452I-485J-1098D01*
G01*
X-41213Y-48787D02*
G03*
X-44342Y-45010I-8831J-4133D01*
G01*
X11188Y55635D02*
G03*
X11182Y55647I-1089J-503D01*
G01*
X-28331Y-60530D02*
G03*
X-31492Y-58350I-7496J-7492D01*
G01*
X23530Y52441D02*
G03*
X23521Y52446I-486J-1097D01*
G01*
X-48622Y-31417D02*
G03*
X-49778Y-28739I-12068J-3623D01*
G01*
X-32379Y-57738D02*
G03*
X-31492Y-58350I2121J2121D01*
G01*
X20999Y53150D02*
G03*
X20549Y53062I0J-1200D01*
G01*
X-32044Y49765D02*
G03*
X-32252Y49694I281J-1167D01*
G01*
X43615Y35386D02*
G03*
X43603Y35398I-857J-840D01*
G01*
X22189Y53017D02*
G03*
X21905Y53100I-477J-1101D01*
G01*
X16925Y53135D02*
G03*
X16734Y53162I-258J-1172D01*
G01*
X-54660Y-17718D02*
G03*
X-54678Y-17657I-1160J-308D01*
G01*
X17320Y53033D02*
G03*
X20549Y53062I1577J4054D01*
G01*
X-23593Y-64428D02*
G03*
X-23900Y-64206I-846J-851D01*
G01*
X-56944Y-7242D02*
G03*
X-54678Y-17657I57456J7043D01*
G01*
X17141Y53088D02*
G03*
X17126Y53091I-269J-1169D01*
G01*
X-13896Y-71861D02*
G03*
X-16818Y-69085I-2537J255D01*
G01*
X-23570Y-64450D02*
G03*
X-23581Y-64439I-852J-845D01*
G01*
X11182Y55647D02*
G03*
X10346Y56312I-1087J-509D01*
G01*
X-48622Y-31417D02*
G03*
X-48444Y-31868I2871J872D01*
G01*
X34017Y44919D02*
G03*
X37053Y41887I6927J3900D01*
G01*
X-39571Y46317D02*
G03*
X-34476Y48765I-2303J11318D01*
G01*
X-22217Y-65803D02*
G03*
X-22226Y-65795I-853J-844D01*
G01*
X-41213Y-48787D02*
G03*
X-40976Y-49126I1087J509D01*
G01*
X13313Y54086D02*
G03*
X16734Y53162I3873J7545D01*
G01*
X-40892Y-49213D02*
G03*
X-40745Y-49372I2269J1963D01*
G01*
X-40892Y-49213D02*
G03*
X-40951Y-49150I-907J-786D01*
G01*
X43817Y35118D02*
G03*
X43615Y35386I-1051J-580D01*
G01*
X21899Y53101D02*
G03*
X21260Y53150I-639J-4205D01*
G01*
X-7319Y57082D02*
G03*
X-7352Y57079I98J-1196D01*
G01*
X16823Y51297D02*
G03*
X20546Y51161I2075J5789D01*
G01*
X52503Y11867D02*
G03*
X46440Y27215I-52873J-12015D01*
G01*
X12050Y52575D02*
G03*
X16449Y51366I4595J8115D01*
G01*
X-54531Y17718D02*
G03*
X-54849Y16711I55044J-17916D01*
G01*
X-56098Y10631D02*
G03*
X-55826Y11169I-902J792D01*
G01*
X11919Y52640D02*
G03*
X11840Y52676I-532J-1075D01*
G01*
X22588Y48241D02*
G03*
X21233Y49164I-5270J-6283D01*
G01*
X16473Y49515D02*
G03*
X20427Y49285I2425J7571D01*
G01*
X-56922Y7018D02*
G03*
X-56654Y6101I1191J-150D01*
G01*
X-25606Y-63255D02*
G03*
X-24451Y-63973I2121J2121D01*
G01*
X3730Y54444D02*
G03*
X3393Y54630I-742J-943D01*
G01*
X40872Y32998D02*
G03*
X40712Y33198I-1011J-646D01*
G01*
X57381Y2692D02*
G03*
X49050Y29868I-57751J-2841D01*
G01*
X-19973Y-68609D02*
G03*
X-19305Y-68947I848J848D01*
G01*
X-53931Y18411D02*
G03*
X-54531Y17718I538J-1073D01*
G01*
X12050Y52575D02*
G03*
X11977Y52612I-588J-1046D01*
G01*
X9317Y54422D02*
G03*
X8541Y54567I-26512J-139876D01*
G01*
X3758Y54422D02*
G03*
X7608Y54348I1973J2512D01*
G01*
X45305Y36161D02*
G03*
X50315Y31247I9585J4761D01*
G01*
X23907Y49481D02*
G03*
X21357Y51107I-6588J-7523D01*
G01*
X42337Y34067D02*
G03*
X47756Y28526I12552J6855D01*
G01*
X2800Y52890D02*
G03*
X2096Y53118I-704J-972D01*
G01*
X11206Y50984D02*
G03*
X11102Y51034I-574J-1054D01*
G01*
X40872Y32998D02*
G03*
X46440Y27215I14017J7925D01*
G01*
X-55296Y11922D02*
G03*
X-55826Y11169I640J-1015D01*
G01*
X54831Y1376D02*
G03*
X55567Y2918I-1811J1811D01*
G01*
X59079Y-4674D02*
G03*
X50315Y31247I-59449J4525D01*
G01*
X-13896Y-71861D02*
G03*
X-12925Y-73160I1194J-120D01*
G01*
X42337Y34067D02*
G03*
X42156Y34299I-1029J-617D01*
G01*
X30500Y45955D02*
G03*
X29741Y46304I-849J-848D01*
G01*
X55567Y2918D02*
G03*
X47756Y28526I-55937J-3067D01*
G01*
X-46156Y37373D02*
G03*
X-46291Y36821I1065J-552D01*
G01*
X21839Y55106D02*
G03*
X21525Y55210I-29924J-89812D01*
G01*
X-42314Y-51061D02*
G03*
X-45425Y-46449I-7730J-1859D01*
G01*
X-56658Y6096D02*
G03*
X-56944Y5319I915J-777D01*
G01*
X-42135Y44031D02*
G03*
X-42479Y43316I850J-848D01*
G01*
X-46511Y35107D02*
G03*
X-46294Y35745I-982J690D01*
G01*
X-49036Y30864D02*
G03*
X-49112Y30796I1951J-2279D01*
G01*
X-47625Y-41728D02*
G03*
X-47574Y-41844I1123J423D01*
G01*
X-49202Y30722D02*
G03*
X-49136Y30775I-722J958D01*
G01*
X-17192Y-71253D02*
G03*
X-16433Y-71605I853J844D01*
G01*
X25544Y53173D02*
G03*
X24999Y53657I-4284J-4276D01*
G01*
X23074Y58489D02*
G03*
X5137Y62666I-31158J-93195D01*
G01*
X-15125Y59455D02*
G03*
X-15234Y59435I269J-1780D01*
G01*
X39548Y44551D02*
G03*
X39061Y44898I-1273J-1272D01*
G01*
X-26684Y-67268D02*
G03*
X-26704Y-67248I-864J-833D01*
G01*
X22477Y56791D02*
G03*
X19160Y57832I-30561J-91497D01*
G01*
X14112Y59171D02*
G03*
X14068Y59181I-604J-2478D01*
G01*
X-46809Y-47657D02*
G03*
X-46669Y-47776I845J852D01*
G01*
X-35865Y52193D02*
G03*
X-36357Y51910I334J-1153D01*
G01*
X-57999Y-19142D02*
G03*
X-57964Y-19254I4606J1352D01*
G01*
X22536Y56769D02*
G03*
X22477Y56791I-440J-1116D01*
G01*
X-49412Y-42106D02*
G03*
X-49392Y-42185I1174J248D01*
G01*
X-48477Y-44716D02*
G03*
X-48449Y-44835I1765J353D01*
G01*
X-58605Y16703D02*
G03*
X-58710Y16148I2882J-834D01*
G01*
X-30839Y-63112D02*
G03*
X-30852Y-63100I-851J-846D01*
G01*
X-57964Y-19254D02*
G03*
X-57956Y-19278I1147J351D01*
G01*
X-51783Y-37016D02*
G03*
X-51745Y-37490I1192J-142D01*
G01*
X-60532Y-7559D02*
G03*
X-58140Y-18649I61044J7361D01*
G01*
X-45998Y44589D02*
G03*
X-46018Y44375I1180J-218D01*
G01*
X-32962Y53248D02*
G03*
X-32247Y53482I-756J3520D01*
G01*
X-14826Y59523D02*
G03*
X-14987Y59484I619J-2935D01*
G01*
X-46659Y-47783D02*
G03*
X-46639Y-47797I704J972D01*
G01*
X-26678Y-67274D02*
G03*
X-26684Y-67268I-864J-833D01*
G01*
X46848Y37105D02*
G03*
X50647Y33307I7189J3394D01*
G01*
X27793Y53825D02*
G03*
X31017Y51784I2517J409D01*
G01*
X-28582Y54954D02*
G03*
X-23030Y57117I-1274J11479D01*
G01*
X-38564Y-57463D02*
G03*
X-40995Y-55033I-4041J-1611D01*
G01*
X-26704Y-67248D02*
G03*
X-26709Y-67242I-851J-846D01*
G01*
X-48262Y-45841D02*
G03*
X-47919Y-46546I1192J143D01*
G01*
X19964Y57458D02*
G03*
X19160Y57832I-1655J-2502D01*
G01*
X-57675Y19671D02*
G03*
X-58605Y16703I58188J-19869D01*
G01*
X-28582Y54954D02*
G03*
X-28666Y54944I327J-2982D01*
G01*
X-51690Y-37849D02*
G03*
X-51742Y-37500I-1200J0D01*
G01*
X-53827Y27364D02*
G03*
X-53977Y27322I245J-1175D01*
G01*
X-31539Y53786D02*
G03*
X-31565Y53777I987J-2833D01*
G01*
X-58891Y15324D02*
G03*
X-59220Y14132I2220J-1254D01*
G01*
X-41157Y49717D02*
G03*
X-41898Y49370I108J-1195D01*
G01*
X-15125Y59455D02*
G03*
X-14987Y59484I-179J1187D01*
G01*
X57812Y-19707D02*
G03*
X52405Y31374I-57812J19707D01*
G01*
X-59323Y13678D02*
G03*
X-59519Y13095I2730J-1244D01*
G01*
X23196Y56502D02*
G03*
X23175Y56511I-475J-1102D01*
G01*
X-54021Y27307D02*
G03*
X-54474Y27022I396J-1133D01*
G01*
X-44013Y-51716D02*
G03*
X-46567Y-47847I-6031J-1204D01*
G01*
X-43974Y-51907D02*
G03*
X-43650Y-52515I1176J237D01*
G01*
X-54615Y26882D02*
G03*
X-54860Y26527I849J-848D01*
G01*
X-37740Y55423D02*
G03*
X-34421Y56636I-3094J13612D01*
G01*
X40945Y48819D02*
G03*
X40312Y50361I-2196J0D01*
G01*
X53509Y35970D02*
G03*
X52961Y36283I-849J-848D01*
G01*
X-48425Y42183D02*
G03*
X-47824Y44622I-3744J2215D01*
G01*
X44655Y45109D02*
G03*
X44244Y45377I-848J-849D01*
G01*
X-47547Y-53776D02*
G03*
X-47208Y-54470I1191J151D01*
G01*
X-33874Y56772D02*
G03*
X-33484Y56873I-102J1196D01*
G01*
X-32932Y57113D02*
G03*
X-32342Y57350I-1486J4564D01*
G01*
X-47537Y-53389D02*
G03*
X-47549Y-53762I1179J-223D01*
G01*
X-61563Y-19795D02*
G03*
X-61577Y-19734I-1176J-241D01*
G01*
X-33460Y54986D02*
G03*
X-32983Y55124I-258J1781D01*
G01*
X-33460Y54986D02*
G03*
X-33618Y54954I162J-1189D01*
G01*
X-41816Y51485D02*
G03*
X-37355Y53463I-58J6150D01*
G01*
X28634Y55910D02*
G03*
X28637Y55906I852J845D01*
G01*
X28634Y55910D02*
G03*
X28323Y56138I-857J-840D01*
G01*
X-36784Y53805D02*
G03*
X-34023Y54823I-4050J15230D01*
G01*
X48477Y37870D02*
G03*
X47759Y38886I-3255J-1539D01*
G01*
X-25203Y62227D02*
G03*
X-25626Y61970I398J-1132D01*
G01*
X-53449Y50701D02*
G03*
X-54463Y49517I7065J-7078D01*
G01*
X-55441Y-37149D02*
G03*
X-55290Y-35455I-9385J1694D01*
G01*
X23728Y60167D02*
G03*
X23700Y60177I-418J-1125D01*
G01*
X-57255Y-37047D02*
G03*
X-57280Y-37245I1174J-247D01*
G01*
X-53643Y-46482D02*
G03*
X-53696Y-46178I-1199J-51D01*
G01*
X-34798Y62277D02*
G03*
X-35966Y62010I70J-2999D01*
G01*
X0Y68279D02*
G03*
X-26170Y63796I-0J-78624D01*
G01*
X24334Y61863D02*
G03*
X5482Y66252I-32418J-96570D01*
G01*
X-54890Y45251D02*
G03*
X-54888Y44440I1130J-403D01*
G01*
X59688Y36720D02*
G03*
X0Y70079I-59688J-36720D01*
G01*
X-52390Y37887D02*
G03*
X-52588Y37650I815J-881D01*
G01*
X42754Y46915D02*
G03*
X44244Y45377I2407J842D01*
G01*
X-54018Y38748D02*
G03*
X-54000Y38772I-959J721D01*
G01*
X51574Y41158D02*
G03*
X53981Y37949I2463J-660D01*
G01*
X45887Y50560D02*
G03*
X45899Y50549I818J878D01*
G01*
X-61035Y34420D02*
G03*
X-61164Y34205I4052J-2573D01*
G01*
X-50391Y-50021D02*
G03*
X-49680Y-50396I883J813D01*
G01*
X-52390Y37887D02*
G03*
X-52148Y38201I-818J878D01*
G01*
X47599Y-45328D02*
G03*
X48244Y-45296I0J6622D01*
G01*
X51342Y42231D02*
G03*
X46515Y47495I-51342J-42231D01*
G01*
X-56789Y41417D02*
G03*
X-56550Y43741I-2135J1394D01*
G01*
X60690Y37722D02*
G03*
X60721Y37755I-848J848D01*
G01*
X-48283Y-45671D02*
G03*
X-48449Y-44835I-5363J-634D01*
G01*
X12500Y59538D02*
G03*
X12480Y59542I-275J-1168D01*
G01*
X19160Y57832D02*
G03*
X15249Y58895I-27244J-92538D01*
G01*
X24959Y55746D02*
G03*
X24940Y55754I-480J-1100D01*
G01*
X-49412Y-42106D02*
G03*
X-50391Y-40313I-3520J-757D01*
G01*
X57842Y-12021D02*
G03*
X58183Y-11331I-849J848D01*
G01*
X24507Y53975D02*
G03*
X24296Y54071I-24507J-53975D01*
G01*
X-49878Y29866D02*
G03*
X-50050Y29052I21708J-5019D01*
G01*
X-46712Y-44363D02*
G03*
X-47574Y-41844I-9569J-1867D01*
G01*
X-49606Y-38055D02*
G03*
X-49255Y-38903I1200J0D01*
G01*
X-17874Y-70882D02*
G03*
X-17889Y-70878I-319J-1157D01*
G01*
X-30980Y52074D02*
G03*
X-31067Y52039I406J-1129D01*
G01*
X-45078Y40804D02*
G03*
X-45173Y40548I1070J-543D01*
G01*
X12604Y57538D02*
G03*
X12098Y57783I-761J-928D01*
G01*
X24842Y53775D02*
G03*
X24507Y53975I-1085J-1436D01*
G01*
X-21886Y55705D02*
G03*
X-22041Y55611I544J-1070D01*
G01*
X-15180Y57604D02*
G03*
X-21113Y56000I15180J-67949D01*
G01*
X-32833Y51406D02*
G03*
X-32846Y51401I485J-1098D01*
G01*
X-23503Y-67602D02*
G03*
X-24416Y-66384I-2404J-850D01*
G01*
X12620Y57525D02*
G03*
X12604Y57538I-772J-918D01*
G01*
X-45078Y40804D02*
G03*
X-44228Y44008I-7091J3595D01*
G01*
X21923Y55076D02*
G03*
X21867Y55096I-444J-1115D01*
G01*
X-52684Y25836D02*
G03*
X-50050Y29052I-1639J4029D01*
G01*
X22463Y54857D02*
G03*
X21943Y55068I-22463J-54857D01*
G01*
X-31070Y52038D02*
G03*
X-31513Y51838I138825J-308652D01*
G01*
X-42314Y-51061D02*
G03*
X-41998Y-51622I1165J287D01*
G01*
X-21547Y55861D02*
G03*
X-21723Y55788I368J-1142D01*
G01*
X16900Y55502D02*
G03*
X20418Y55039I1998J1585D01*
G01*
X-37023Y-56492D02*
G03*
X-36782Y-56837I1089J504D01*
G01*
X-32586Y51487D02*
G03*
X-31513Y51838I-1132J5280D01*
G01*
X-22714Y-69710D02*
G03*
X-18197Y-70835I4609J8874D01*
G01*
X29671Y44234D02*
G03*
X28991Y44573I-848J-849D01*
G01*
X35085Y38824D02*
G03*
X34870Y38996I-849J-848D01*
G01*
X11234Y50968D02*
G03*
X11206Y50983I-580J-1051D01*
G01*
X-14114Y52308D02*
G03*
X-19202Y50941I14114J-62654D01*
G01*
X31122Y42744D02*
G03*
X34870Y38996I9823J6075D01*
G01*
X16332Y49551D02*
G03*
X16142Y49575I-247J-1174D01*
G01*
X8541Y54567D02*
G03*
X7608Y54348I-216J-1180D01*
G01*
X3303Y54665D02*
G03*
X3369Y54639I476J1102D01*
G01*
X-38807Y42123D02*
G03*
X-39130Y41533I849J-848D01*
G01*
X31122Y42744D02*
G03*
X30950Y42959I-1019J-634D01*
G01*
X228Y-70088D02*
G03*
X-620Y-70439I0J-1200D01*
G01*
X11234Y50968D02*
G03*
X16142Y49575I5412J9721D01*
G01*
X-3554Y-70723D02*
G03*
X-7671Y-69021I-3486J-2601D01*
G01*
X-29342Y46894D02*
G03*
X-29304Y46911I-1442J3299D01*
G01*
X36204Y40251D02*
G03*
X35963Y40437I-849J-848D01*
G01*
X32559Y43844D02*
G03*
X32377Y44078I-1030J-615D01*
G01*
X16823Y51297D02*
G03*
X16449Y51366I-401J-1131D01*
G01*
X-56480Y9937D02*
G03*
X-56922Y7018I56992J-10135D01*
G01*
X37310Y41691D02*
G03*
X37053Y41887I-849J-848D01*
G01*
X-54849Y16711D02*
G03*
X-54652Y15627I1147J-351D01*
G01*
X31343Y47657D02*
G03*
X30315Y48083I-1028J-1028D01*
G01*
X4486Y57303D02*
G03*
X-42Y57479I-4486J-57303D01*
G01*
X-58735Y7022D02*
G03*
X-58744Y6882I1192J-140D01*
G01*
X-57763Y12699D02*
G03*
X-58735Y7022I58276J-12898D01*
G01*
X-37023Y-56492D02*
G03*
X-40024Y-53491I-5582J-2581D01*
G01*
X-32586Y51487D02*
G03*
X-32601Y51484I258J-1172D01*
G01*
X-58744Y-7350D02*
G03*
X-56440Y-18056I59256J7152D01*
G01*
X-55182Y19841D02*
G03*
X-55974Y19083I342J-1150D01*
G01*
X-14466Y57759D02*
G03*
X-14570Y57731I259J-1172D01*
G01*
X22507Y54839D02*
G03*
X22512Y54837I478J1101D01*
G01*
X31965Y49589D02*
G03*
X30940Y49929I-850J-847D01*
G01*
X52187Y31736D02*
G03*
X51925Y32162I-52187J-31736D01*
G01*
X21867Y55096D02*
G03*
X21850Y55102I-398J-1132D01*
G01*
X-14704Y57697D02*
G03*
X-14581Y57728I-232J1177D01*
G01*
X45305Y36161D02*
G03*
X45079Y36475I-1074J-535D01*
G01*
X-49415Y30563D02*
G03*
X-49213Y30713I-7384J10084D01*
G01*
X-29660Y56603D02*
G03*
X-31828Y55600I29660J-66949D01*
G01*
X52895Y33997D02*
G03*
X52731Y34202I-1013J-644D01*
G01*
X-29238Y56703D02*
G03*
X-29245Y56703I80J-1197D01*
G01*
X23188Y58447D02*
G03*
X23172Y58453I-449J-1113D01*
G01*
X23082Y58486D02*
G03*
X23074Y58489I-391J-1135D01*
G01*
X38550Y47943D02*
G03*
X38274Y48370I-1123J-422D01*
G01*
X28311Y56144D02*
G03*
X28299Y56151I-555J-1064D01*
G01*
X52562Y34370D02*
G03*
X52090Y34665I-853J-844D01*
G01*
X-29258Y56702D02*
G03*
X-29660Y56603I83J-1197D01*
G01*
X28299Y56151D02*
G03*
X23188Y58447I-28299J-56151D01*
G01*
X-52889Y-43358D02*
G03*
X-52710Y-43747I1162J299D01*
G01*
X49761Y39701D02*
G03*
X52961Y36283I4276J797D01*
G01*
X-49629Y44789D02*
G03*
X-49627Y44613I1198J-75D01*
G01*
X-51042Y39723D02*
G03*
X-50828Y40166I-950J733D01*
G01*
X36260Y53558D02*
G03*
X36237Y53574I-1043J-1467D01*
G01*
X23832Y60128D02*
G03*
X23728Y60167I-1119J-2784D01*
G01*
X-42274Y53303D02*
G03*
X-38423Y54986I400J4332D01*
G01*
X38537Y51943D02*
G03*
X38500Y51972I-750J-937D01*
G01*
X-55319Y33254D02*
G03*
X-61607Y-19623I55832J-33452D01*
G01*
X5482Y66252D02*
G03*
X26Y66479I-5482J-66252D01*
G01*
X-36172Y57828D02*
G03*
X-35604Y58084I-943J2848D01*
G01*
X-29939Y60284D02*
G03*
X-25626Y61970I82J6149D01*
G01*
X-60236Y28124D02*
G03*
X-60253Y28089I1070J-544D01*
G01*
X-52962Y40178D02*
G03*
X-52856Y40349I-965J713D01*
G01*
X46486Y47523D02*
G03*
X45170Y47761I-835J-862D01*
G01*
X54946Y37421D02*
G03*
X53981Y37949I-994J-672D01*
G01*
X-53642Y-46507D02*
G03*
X-51517Y-51446I7271J202D01*
G01*
X-38311Y57526D02*
G03*
X-36172Y57828I245J5993D01*
G01*
X-34221Y58684D02*
G03*
X-34795Y58491I82J-1197D01*
G01*
X45031Y48667D02*
G03*
X44689Y49217I-1152J-335D01*
G01*
X-29958Y60285D02*
G03*
X-30445Y60189I-17J-1200D01*
G01*
X-30445Y60189D02*
G03*
X-30456Y60184I463J-1107D01*
G01*
X-45399Y53531D02*
G03*
X-45472Y53464I776J-915D01*
G01*
X45161Y47757D02*
G03*
X45044Y48621I-3246J0D01*
G01*
X-57180Y-40753D02*
G03*
X-57155Y-40995I1200J-0D01*
G01*
X-30313Y62098D02*
G03*
X-30783Y62002I0J-1200D01*
G01*
X-26170Y63796D02*
G03*
X-26185Y63790I390J-1135D01*
G01*
X-59087Y-36973D02*
G03*
X-58890Y-35455I-5740J1518D01*
G01*
X-38862Y59397D02*
G03*
X-39661Y59280I-235J-1177D01*
G01*
X-30150Y62094D02*
G03*
X-30182Y62096I-88J-1197D01*
G01*
X-46627Y54850D02*
G03*
X-46696Y54786I780J-912D01*
G01*
X47742Y48812D02*
G03*
X47473Y49044I-2091J-2151D01*
G01*
X46191Y50242D02*
G03*
X45899Y50549I-2313J-1911D01*
G01*
X47586Y-48965D02*
G03*
X54338Y41344I-47586J48965D01*
G01*
X-55627Y39580D02*
G03*
X-55463Y39989I-1014J642D01*
G01*
X45887Y50560D02*
G03*
X25005Y63535I-45887J-50560D01*
G01*
X-34418Y60477D02*
G03*
X-33901Y60595I-0J1200D01*
G01*
X-36025Y59869D02*
G03*
X-35821Y59972I-436J1118D01*
G01*
X-39661Y59280D02*
G03*
X-41874Y57635I4481J-8339D01*
G01*
X54338Y41344D02*
G03*
X47771Y48784I-54338J-41344D01*
G01*
X46279Y50137D02*
G03*
X46553Y49893I924J765D01*
G01*
X-59087Y-36973D02*
G03*
X-59125Y-37273I1162J-300D01*
G01*
X-30783Y62002D02*
G03*
X-33901Y60595I30783J-72348D01*
G01*
X-41970Y57635D02*
G03*
X-42973Y57566I0J-7403D01*
G01*
X-52555Y48927D02*
G03*
X-54890Y45251I7071J-7071D01*
G01*
X-44748Y56393D02*
G03*
X-44760Y56384I1103J-1422D01*
G01*
X69489Y29729D02*
G03*
X69433Y29881I-1153J-333D01*
G01*
X74437Y11881D02*
G03*
X74355Y12326I-2539J-236D01*
G01*
X-69681Y-17726D02*
G03*
X-69838Y-17469I-1094J-494D01*
G01*
X-69839Y-17468D02*
G03*
X-70763Y-16441I-10364J-8405D01*
G01*
X-69606Y-17931D02*
G03*
X-69677Y-17734I-1161J-306D01*
G01*
X68955Y30970D02*
G03*
X68948Y30986I-1100J-481D01*
G01*
X70751Y25396D02*
G03*
X70739Y25438I-2459J-674D01*
G01*
X-57255Y-37047D02*
G03*
X-57090Y-35455I-7571J1591D01*
G01*
X-53748Y-45943D02*
G03*
X-53703Y-46153I1192J142D01*
G01*
X-51690Y-35053D02*
G03*
X-52903Y-30526I-9000J13D01*
G01*
X-75005Y-9388D02*
G03*
X-73020Y-14185I6788J0D01*
G01*
X75354Y1934D02*
G03*
X75344Y2278I-2548J99D01*
G01*
X73347Y-17404D02*
G03*
X73366Y-17304I-2495J525D01*
G01*
X66229Y-35997D02*
G03*
X66286Y-35902I-2160J1355D01*
G01*
X54652Y-51915D02*
G03*
X54886Y-51667I-1733J1871D01*
G01*
X39372Y-64228D02*
G03*
X39533Y-64125I-1300J2193D01*
G01*
X-69606Y-17932D02*
G03*
X-66942Y-26178I69606J17932D01*
G01*
X74976Y-7786D02*
G03*
X75010Y-7448I-2514J425D01*
G01*
X71143Y-27388D02*
G03*
X71428Y-26635I-2213J1266D01*
G01*
X61037Y-44232D02*
G03*
X61234Y-43960I-1963J1627D01*
G01*
X47298Y-58693D02*
G03*
X47569Y-58474I-1462J2090D01*
G01*
X32222Y-68132D02*
G03*
X33041Y-67982I207J1182D01*
G01*
X-68277Y-464D02*
G03*
X-59129Y-34143I68277J464D01*
G01*
X25005Y63535D02*
G03*
X24943Y63558I-442J-1116D01*
G01*
X-60824Y-36502D02*
G03*
X-60872Y-36712I2899J-771D01*
G01*
X-70077Y-468D02*
G03*
X-60855Y-34751I70077J468D01*
G01*
X-61164Y34205D02*
G03*
X-70077Y471I61164J-34205D01*
G01*
X-56789Y41417D02*
G03*
X-57164Y40607I2505J-1651D01*
G01*
X-57288Y-37479D02*
G03*
X-57276Y-37693I1199J-41D01*
G01*
X-57180Y-39055D02*
G03*
X-57276Y-37693I-9715J0D01*
G01*
X48244Y-45296D02*
G03*
X49009Y-44916I-115J1194D01*
G01*
X-30456Y60184D02*
G03*
X-33120Y58973I30456J-70530D01*
G01*
X-53988Y38789D02*
G03*
X-54000Y38772I2413J-1782D01*
G01*
X-58170Y32182D02*
G03*
X-58190Y32143I1049J-583D01*
G01*
X-34221Y58684D02*
G03*
X-33120Y58973I-197J2994D01*
G01*
X-43645Y54971D02*
G03*
X-45399Y53531I43645J-54971D01*
G01*
X-57996Y32490D02*
G03*
X-58032Y32430I1013J-643D01*
G01*
X-56334Y-43198D02*
G03*
X-55647Y-43757I1047J586D01*
G01*
X-54018Y38748D02*
G03*
X-54073Y38668I957J-724D01*
G01*
X-57090Y-35048D02*
G03*
X-57569Y-33245I-3600J8D01*
G01*
X-42575Y55183D02*
G03*
X-39483Y56748I701J2452D01*
G01*
X-50493Y48443D02*
G03*
X-52168Y44399I4045J-4045D01*
G01*
X44667Y49237D02*
G03*
X24393Y61842I-44667J-49237D01*
G01*
X-57155Y-40995D02*
G03*
X-56334Y-43198I7739J1630D01*
G01*
X-42575Y55183D02*
G03*
X-43645Y54971I-327J-1154D01*
G01*
X-29939Y60284D02*
G03*
X-29958Y60285I-16J-1200D01*
G01*
X-53642Y-46507D02*
G03*
X-53644Y-46482I-1199J-37D01*
G01*
X-52856Y40349D02*
G03*
X-52168Y43222I-5653J2872D01*
G01*
X-60253Y28089D02*
G03*
X-66477Y464I60253J-28089D01*
G01*
X24393Y61842D02*
G03*
X24334Y61863I-445J-1114D01*
G01*
X-66477Y-464D02*
G03*
X-57569Y-33245I66477J464D01*
G01*
X51574Y41158D02*
G03*
X51342Y42231I-1159J310D01*
G01*
X-38311Y57526D02*
G03*
X-39483Y56748I-48J-1199D01*
G01*
X26Y66479D02*
G03*
X-25203Y62227I-26J-76824D01*
G01*
X46434Y-50060D02*
G03*
X47571Y-48980I-47643J51270D01*
G01*
X-26185Y63790D02*
G03*
X-26666Y63477I395J-1133D01*
G01*
X-59519Y13095D02*
G03*
X-60521Y7246I60032J-13294D01*
G01*
X-58891Y15324D02*
G03*
X-58743Y15803I-1047J586D01*
G01*
X-32962Y53248D02*
G03*
X-33199Y53187I626J-2934D01*
G01*
X4955Y60874D02*
G03*
X4845Y60886I-248J-1783D01*
G01*
X-30867Y-63084D02*
G03*
X-31212Y-62842I-852J-846D01*
G01*
X-38564Y-57463D02*
G03*
X-38298Y-57867I1115J444D01*
G01*
X32777Y51322D02*
G03*
X31017Y51784I-1274J-1272D01*
G01*
X-15234Y59435D02*
G03*
X-22187Y57545I15234J-69781D01*
G01*
X-58117Y-18733D02*
G03*
X-58140Y-18649I-1166J-283D01*
G01*
X-30867Y54064D02*
G03*
X-31045Y53979I30867J-64410D01*
G01*
X-31362Y53847D02*
G03*
X-31045Y53979I-987J2833D01*
G01*
X57725Y-19902D02*
G03*
X57812Y-19707I-1049J583D01*
G01*
X57519Y-20179D02*
G03*
X57719Y-19914I-849J848D01*
G01*
X-31587Y53769D02*
G03*
X-31788Y53689I1013J-2824D01*
G01*
X-35865Y52193D02*
G03*
X-33470Y53094I-4969J16841D01*
G01*
X46848Y37105D02*
G03*
X46491Y37608I-1625J-774D01*
G01*
X37029Y46924D02*
G03*
X36676Y47423I-1625J-775D01*
G01*
X-46761Y41470D02*
G03*
X-46868Y41189I1058J-567D01*
G01*
X-41398Y-54767D02*
G03*
X-40995Y-55033I848J849D01*
G01*
X-57956Y-19278D02*
G03*
X-52903Y-30526I57956J19278D01*
G01*
X12480Y59542D02*
G03*
X4955Y60874I-20564J-94248D01*
G01*
X-60521Y7246D02*
G03*
X-60544Y6882I2978J-365D01*
G01*
X-26628Y-67326D02*
G03*
X-26616Y-67339I861J836D01*
G01*
X27793Y53825D02*
G03*
X27143Y54716I-1186J-182D01*
G01*
X-53805Y27368D02*
G03*
X-51818Y29393I-519J2497D01*
G01*
X-33317Y53152D02*
G03*
X-33470Y53094I346J-1149D01*
G01*
X18898Y57087D02*
G03*
X19160Y57832I-937J749D01*
G01*
X-51690Y-38517D02*
G03*
X-51338Y-39365I1200J0D01*
G01*
X-56460Y21215D02*
G03*
X-57675Y19671I1621J-2524D01*
G01*
X-50481Y32013D02*
G03*
X-51628Y30288I1771J-2421D01*
G01*
X-60544Y-7350D02*
G03*
X-60532Y-7559I1800J0D01*
G01*
X-48477Y-44716D02*
G03*
X-49285Y-42456I-7804J-1515D01*
G01*
X-45574Y45693D02*
G03*
X-45911Y45063I842J-855D01*
G01*
X-58117Y-18733D02*
G03*
X-58010Y-19106I4664J1133D01*
G01*
X-49385Y-42210D02*
G03*
X-49285Y-42456I1154J329D01*
G01*
X-50481Y32013D02*
G03*
X-48751Y36188I-2568J3511D01*
G01*
X-22187Y57545D02*
G03*
X-23007Y57134I920J-2855D01*
G01*
X37029Y46924D02*
G03*
X39061Y44898I3915J1895D01*
G01*
X-56460Y21215D02*
G03*
X-55909Y22225I-648J1010D01*
G01*
X27143Y54716D02*
G03*
X25018Y55720I-27143J-54716D01*
G01*
X51915Y32177D02*
G03*
X50657Y33302I-2548J-1584D01*
G01*
X-56166Y23636D02*
G03*
X-55913Y22290I1095J-491D01*
G01*
X-35392Y-60773D02*
G03*
X-35060Y-61008I848J849D01*
G01*
X24974Y55739D02*
G03*
X24959Y55746I-488J-1096D01*
G01*
X-41157Y49717D02*
G03*
X-36357Y51911I-717J7918D01*
G01*
X-29325Y54781D02*
G03*
X-30039Y54455I29325J-65127D01*
G01*
X-34969Y50585D02*
G03*
X-32846Y51401I-5865J18449D01*
G01*
X-21361Y55921D02*
G03*
X-21376Y55916I916J-2857D01*
G01*
X-23342Y-68466D02*
G03*
X-23400Y-67893I-1188J170D01*
G01*
X3303Y54665D02*
G03*
X2111Y54918I-1206J-2747D01*
G01*
X24059Y49321D02*
G03*
X29741Y46304I6251J4912D01*
G01*
X-2979Y53139D02*
G03*
X-1152Y52368I1826J1779D01*
G01*
X24059Y49321D02*
G03*
X23907Y49481I-941J-745D01*
G01*
X10011Y54015D02*
G03*
X9317Y54422I-919J-772D01*
G01*
X10011Y54015D02*
G03*
X11840Y52676I3658J3079D01*
G01*
X22197Y53013D02*
G03*
X22189Y53017I-477J-1101D01*
G01*
X-48350Y-32059D02*
G03*
X-48122Y-32446I2692J1323D01*
G01*
X25017Y51102D02*
G03*
X30315Y48083I5293J3131D01*
G01*
X-53931Y18411D02*
G03*
X-51679Y23300I-1978J3874D01*
G01*
X-39571Y46316D02*
G03*
X-40176Y45990I244J-1175D01*
G01*
X-56280Y-18604D02*
G03*
X-56293Y-18563I-1151J-340D01*
G01*
X-42Y57479D02*
G03*
X-7208Y57095I42J-67824D01*
G01*
X-47710Y-41487D02*
G03*
X-47674Y-41598I1159J313D01*
G01*
X24999Y53657D02*
G03*
X24938Y53703I-1857J-2356D01*
G01*
X26514Y52109D02*
G03*
X26219Y52498I-1568J-884D01*
G01*
X-55182Y19841D02*
G03*
X-53691Y23544I-727J2444D01*
G01*
X24278Y54079D02*
G03*
X24222Y54103I-1234J-2734D01*
G01*
X-51628Y30288D02*
G03*
X-51818Y29393I23458J-5441D01*
G01*
X19147Y57836D02*
G03*
X15265Y58891I-27231J-92542D01*
G01*
X-54394Y-1924D02*
G03*
X-55144Y-3734I1811J-1811D01*
G01*
X-55102Y-392D02*
G03*
X-54394Y-1924I2440J199D01*
G01*
X-49136Y30775D02*
G03*
X-49112Y30796I-779J913D01*
G01*
X30837Y-67414D02*
G03*
X32222Y-68132I1825J1825D01*
G01*
X21357Y51107D02*
G03*
X20546Y51161I-482J-1099D01*
G01*
X-30066Y63893D02*
G03*
X-27814Y64907I210J2541D01*
G01*
X68947Y30986D02*
G03*
X-30986Y68947I-68947J-30986D01*
G01*
D02*
G03*
X-75005Y-9388I30986J-68947D01*
G01*
X5716Y68037D02*
G03*
X5628Y68046I-234J-1785D01*
G01*
X54037Y40498D02*
G03*
X54149Y40750I-1032J612D01*
G01*
X-38862Y59397D02*
G03*
X-36737Y59537I796J4121D01*
G01*
Y59537D02*
G03*
X-36507Y59641I-378J1139D01*
G01*
X5628Y68046D02*
G03*
X0Y68279I-5628J-68046D01*
G01*
X47140Y49365D02*
G03*
X47231Y49267I926J763D01*
G01*
X-27259Y65318D02*
G03*
X-27814Y64907I407J-1129D01*
G01*
X-29411Y50770D02*
G03*
X-28611Y51114I-290J1777D01*
G01*
X24273Y51899D02*
G03*
X23885Y52243I-3013J-3002D01*
G01*
X-74341Y-21043D02*
G03*
X-74314Y-17208I-1667J1929D01*
G01*
X-74542Y-16955D02*
G03*
X-74400Y-17123I1810J1383D01*
G01*
X-74341Y-21043D02*
G03*
X-74759Y-21954I781J-911D01*
G01*
X-74400Y-17123D02*
G03*
X-74314Y-17208I883J812D01*
G01*
X-76903Y-10069D02*
G03*
X-76339Y-13699I76903J10069D01*
G01*
X-74542Y-16954D02*
G03*
X-74651Y-16831I-952J-730D01*
G01*
X-76339Y-13700D02*
G03*
X-75309Y-16188I3520J0D01*
G01*
X73412Y25023D02*
G03*
X-76903Y-10069I-73412J-25023D01*
G01*
X-67208Y-35646D02*
G03*
X-74759Y-24344I-32184J-13331D01*
G01*
X-67208Y-35646D02*
G03*
X-67028Y-36122I1766J396D01*
G01*
X-67028Y-36122D02*
G03*
X-54551Y-52732I64673J35587D01*
G01*
X43701Y-50984D02*
G03*
X46385Y-50097I0J4504D01*
G01*
X54302Y35138D02*
G03*
X54139Y35339I-1010J-648D01*
G01*
X-52736Y37417D02*
G03*
X-52916Y36900I1013J-643D01*
G01*
X-53050Y35523D02*
G03*
X-53050Y35543I-1200J2D01*
G01*
X-53280Y-42515D02*
G03*
X-53286Y-42508I-853J-844D01*
G01*
X23700Y60177D02*
G03*
X23687Y60182I-402J-1131D01*
G01*
X-52983Y3165D02*
G03*
X-53302Y2351I881J-815D01*
G01*
X16473Y49515D02*
G03*
X16349Y49547I-362J-1144D01*
G01*
X-40896Y35609D02*
G03*
X-40894Y35687I-10287J297D01*
G01*
X-6831Y53507D02*
G03*
X-6943Y53502I3J-1200D01*
G01*
X-55289Y40423D02*
G03*
X-54836Y44297I-3636J2388D01*
G01*
X-30204Y62097D02*
G03*
X-30255Y62098I-55J-1199D01*
G01*
X-30150Y62094D02*
G03*
X-26666Y63477I294J4340D01*
G01*
X47571Y-48980D02*
G03*
X47586Y-48965I-836J861D01*
G01*
X47140Y49365D02*
G03*
X46553Y49893I-1979J-1608D01*
G01*
X-36075Y59849D02*
G03*
X-36507Y59641I1082J-2798D01*
G01*
X-55289Y40423D02*
G03*
X-55463Y39989I1005J-656D01*
G01*
X24943Y63558D02*
G03*
X5716Y68037I-33027J-98264D01*
G01*
X-34721Y60477D02*
G03*
X-35468Y60222I-7J-1200D01*
G01*
X47362Y49140D02*
G03*
X47473Y49044I835J862D01*
G01*
X-35821Y59972D02*
G03*
X-35468Y60222I-2245J3547D01*
G01*
X-58890Y-35045D02*
G03*
X-59129Y-34143I-1800J6D01*
G01*
X-59516Y33455D02*
G03*
X-59597Y33319I2533J-1608D01*
G01*
D02*
G03*
X-68277Y464I59597J-33319D01*
G01*
X-44760Y56384D02*
G03*
X-46579Y54891I44760J-56384D01*
G01*
X-59125Y-39366D02*
G03*
X-56282Y-46230I9708J0D01*
G01*
X40194Y-57437D02*
G03*
X39370Y-59028I1123J-1591D01*
G01*
X-40438Y61723D02*
G03*
X-48766Y55379I40438J-61723D01*
G01*
X-30307Y63898D02*
G03*
X-31473Y63664I-6J-3000D01*
G01*
X-4544Y-72806D02*
G03*
X-8758Y-71440I-2497J-519D01*
G01*
X-4544Y-72806D02*
G03*
X-3488Y-73756I1175J244D01*
G01*
X30355Y43555D02*
G03*
X30351Y43559I-848J-849D01*
G01*
X-20766Y54220D02*
G03*
X-21136Y54045I320J-1156D01*
G01*
X-43389Y40157D02*
G03*
X-42478Y43316I-8779J4242D01*
G01*
X-47806Y-33465D02*
G03*
X-48122Y-32446I-1800J0D01*
G01*
X-7319Y57082D02*
G03*
X-7292Y57085I-109J1195D01*
G01*
X-21983Y-66122D02*
G03*
X-22208Y-65812I-1071J-541D01*
G01*
X-32044Y49765D02*
G03*
X-30797Y50187I-1674J7003D01*
G01*
X-28093Y51387D02*
G03*
X-21136Y54045I-1763J15047D01*
G01*
X-30355Y50386D02*
G03*
X-29561Y50698I-1571J5166D01*
G01*
X10346Y56312D02*
G03*
X10329Y56316I-259J-1172D01*
G01*
X-47650Y29685D02*
G03*
X-47595Y29737I-797J897D01*
G01*
X23757Y52339D02*
G03*
X23554Y52431I-23757J-52339D01*
G01*
X11197Y55617D02*
G03*
X13008Y54193I2311J1077D01*
G01*
X-12925Y-73160D02*
G03*
X-11116Y-73325I1810J9835D01*
G01*
X25017Y51102D02*
G03*
X24833Y51338I-1031J-613D01*
G01*
X-51134Y24606D02*
G03*
X-51679Y23300I622J-1026D01*
G01*
X-20749Y54225D02*
G03*
X-20665Y54251I-318J1157D01*
G01*
X13279Y56922D02*
G03*
X12637Y57511I-7070J-7072D01*
G01*
X-49213Y30713D02*
G03*
X-49202Y30722I-727J955D01*
G01*
X-23343Y-68472D02*
G03*
X-22714Y-69710I1187J-175D01*
G01*
X-28376Y53166D02*
G03*
X-22041Y55611I-1480J13268D01*
G01*
X-46511Y35107D02*
G03*
X-47155Y33768I3950J-2727D01*
G01*
X-45655Y-46266D02*
G03*
X-45507Y-46390I846J851D01*
G01*
X-30902Y52101D02*
G03*
X-30962Y52081I350J-1148D01*
G01*
X22507Y54839D02*
G03*
X22486Y54848I-486J-1097D01*
G01*
X-32601Y51484D02*
G03*
X-32833Y51406I264J-1170D01*
G01*
X26514Y52109D02*
G03*
X30940Y49929I3796J2124D01*
G01*
X21943Y55068D02*
G03*
X21923Y55076I-451J-1112D01*
G01*
X-55974Y19083D02*
G03*
X-56879Y16194I56486J-19281D01*
G01*
X-26879Y-64527D02*
G03*
X-26303Y-65018I3394J3394D01*
G01*
X-52868Y25761D02*
G03*
X-53508Y25148I452J-1112D01*
G01*
X12637Y57511D02*
G03*
X12620Y57525I-771J-919D01*
G01*
X-15079Y57624D02*
G03*
X-15180Y57604I677J-3536D01*
G01*
X-40393Y47998D02*
G03*
X-35404Y50340I-1481J9637D01*
G01*
X-56276Y-18619D02*
G03*
X-56245Y-18722I2883J828D01*
G01*
X-34Y59279D02*
G03*
X-14446Y57763I34J-69624D01*
G01*
X21506Y55216D02*
G03*
X20418Y55039I-373J-1141D01*
G01*
X-56276Y-18619D02*
G03*
X-56280Y-18604I-1152J-335D01*
G01*
X-28396Y53164D02*
G03*
X-28418Y53161I140J-1192D01*
G01*
X-50330Y-31986D02*
G03*
X-50147Y-32473I4578J1441D01*
G01*
X-47867Y29495D02*
G03*
X-47665Y29672I-9682J11263D01*
G01*
X-50045Y-46302D02*
G03*
X-50183Y-45320I-3600J-3D01*
G01*
X-50232Y-45125D02*
G03*
X-50988Y-43100I-6050J-1106D01*
G01*
X-50232Y-45125D02*
G03*
X-50205Y-45241I1181J211D01*
G01*
X-59844Y-19243D02*
G03*
X-59769Y-19512I6392J1644D01*
G01*
X-48766Y55379D02*
G03*
X-48825Y55324I790J-904D01*
G01*
X-52283Y-55001D02*
G03*
X-678Y-76378I51609J51609D01*
G01*
X19074D02*
G03*
X23849Y-74459I-0J6900D01*
G01*
X2800Y52890D02*
G03*
X7897Y52433I2931J4043D01*
G01*
X-1152Y52368D02*
G03*
X826Y52933I0J3749D01*
G01*
X-11265Y-70523D02*
G03*
X-11094Y-70646I782J910D01*
G01*
X-11506Y-70302D02*
G03*
X-11265Y-70523I2748J2748D01*
G01*
X-12651Y-69157D02*
G03*
X-17234Y-66602I-3981J-1753D01*
G01*
X-11094Y-70646D02*
G03*
X-9008Y-71420I3244J5545D01*
G01*
Y-71420D02*
G03*
X-8800Y-71440I219J1180D01*
G01*
X-27052Y-59263D02*
G03*
X-30749Y-56711I-8775J-8759D01*
G01*
X-26958Y47852D02*
G03*
X-27209Y47756I302J-1161D01*
G01*
X-17502Y-66609D02*
G03*
X-17234Y-66602I103J1196D01*
G01*
X-31106Y-56465D02*
G03*
X-30749Y-56711I848J849D01*
G01*
X-14114Y52308D02*
G03*
X-13121Y52516I-600J5367D01*
G01*
X-24333Y-61982D02*
G03*
X-23884Y-62265I848J849D01*
G01*
X-3554Y-70723D02*
G03*
X-2592Y-71206I962J718D01*
G01*
X-20667Y-64799D02*
G03*
X-20505Y-65000I1011J647D01*
G01*
X-20391Y-65115D02*
G03*
X-17643Y-66589I3819J3822D01*
G01*
X-7846Y-69034D02*
G03*
X-7671Y-69021I0J1200D01*
G01*
X21233Y49164D02*
G03*
X20427Y49285I-571J-1056D01*
G01*
X-44206Y-33471D02*
G03*
X-45084Y-30513I-5400J6D01*
G01*
X-53660Y-37490D02*
G03*
X-53655Y-37644I1199J-37D01*
G01*
X-40393Y47998D02*
G03*
X-40408Y47995I189J-1185D01*
G01*
X-17889Y-70878D02*
G03*
X-18197Y-70835I-319J-1157D01*
G01*
X-56377Y-18269D02*
G03*
X-56402Y-18177I-1170J-269D01*
G01*
X16883Y55524D02*
G03*
X16611Y55775I-941J-745D01*
G01*
X-56879Y16194D02*
G03*
X-56918Y15981I1155J-325D01*
G01*
X-30095Y52438D02*
G03*
X-30367Y52307I30095J-62784D01*
G01*
X12066Y57790D02*
G03*
X4707Y59091I-20151J-92496D01*
G01*
X-50342Y-31946D02*
G03*
X-51333Y-29646I-10348J-3093D01*
G01*
X-17221Y-71224D02*
G03*
X-17764Y-70912I-848J-849D01*
G01*
X-40364Y-53256D02*
G03*
X-40024Y-53491I843J854D01*
G01*
X-50342Y-31946D02*
G03*
X-50337Y-31962I1150J344D01*
G01*
X-46553Y-45064D02*
G03*
X-46712Y-44363I-7092J-1241D01*
G01*
X23849Y-74459D02*
G03*
X24067Y-74177I-829J867D01*
G01*
X-53302Y-6969D02*
G03*
X-52434Y-8122I1200J0D01*
G01*
X9221Y52243D02*
G03*
X7897Y52433I-804J-891D01*
G01*
X22747Y48080D02*
G03*
X28991Y44573I7563J6153D01*
G01*
X-1884Y-71206D02*
G03*
X-1035Y-70854I0J1200D01*
G01*
X-37633Y43091D02*
G03*
X-38142Y42788I340J-1151D01*
G01*
X-40812Y36097D02*
G03*
X-40894Y35687I1118J-436D01*
G01*
X-25776Y-57993D02*
G03*
X-29588Y-55268I-10051J-10029D01*
G01*
X-39989Y38931D02*
G03*
X-40060Y38727I1095J-491D01*
G01*
X-41894Y32302D02*
G03*
X-41961Y32178I1018J-635D01*
G01*
X-39989Y38931D02*
G03*
X-39130Y41533I-12179J5468D01*
G01*
X22747Y48080D02*
G03*
X22588Y48241I-929J-760D01*
G01*
X-6981Y53498D02*
G03*
X-6994Y53497I113J-1195D01*
G01*
X-52983Y3165D02*
G03*
X-52451Y8317I-3210J2935D01*
G01*
X-29909Y-55038D02*
G03*
X-29588Y-55268I848J848D01*
G01*
X1467Y53118D02*
G03*
X826Y52933I0J-1200D01*
G01*
X-53302Y1045D02*
G03*
X-52835Y95I1200J0D01*
G01*
X-52835Y-3941D02*
G03*
X-53302Y-4892I733J-950D01*
G01*
X-6994Y53497D02*
G03*
X-12943Y52561I6994J-63842D01*
G01*
X73412Y25023D02*
G03*
X74512Y24210I1136J387D01*
G01*
X-66434Y-27684D02*
G03*
X-66523Y-27225I-1200J5D01*
G01*
X-66926Y-26220D02*
G03*
X-66523Y-27225I66926J26220D01*
G01*
X-28093Y51387D02*
G03*
X-28374Y51258I28093J-61732D01*
G01*
X-21758Y-66652D02*
G03*
X-21983Y-66122I-4106J-1436D01*
G01*
X23885Y52243D02*
G03*
X23863Y52260I-742J-943D01*
G01*
X57124Y-3521D02*
G03*
X57142Y-3498I-955J726D01*
G01*
X-21758Y-66652D02*
G03*
X-21471Y-67112I1135J389D01*
G01*
X56576Y-4155D02*
G03*
X57124Y-3521I-4103J4103D01*
G01*
X-29411Y50770D02*
G03*
X-29561Y50698I29411J-61116D01*
G01*
X-47536Y29796D02*
G03*
X-47583Y29749I2088J-2154D01*
G01*
X-30355Y50386D02*
G03*
X-30784Y50192I138110J-307000D01*
G01*
X-28374Y51258D02*
G03*
X-28599Y51123I502J-1090D01*
G01*
X10329Y56316D02*
G03*
X4555Y57296I-18414J-91022D01*
G01*
X-19305Y-68947D02*
G03*
X-18105Y-69036I1201J8112D01*
G01*
X-43389Y40157D02*
G03*
X-43472Y39926I1083J-518D01*
G01*
X57142Y-3498D02*
G03*
X57381Y-2778I-960J720D01*
G01*
X-47867Y29495D02*
G03*
X-48262Y28816I782J-910D01*
G01*
X-55296Y11922D02*
G03*
X-54652Y15627I-1375J2148D01*
G01*
X-7352Y57079D02*
G03*
X-13810Y56058I7352J-67425D01*
G01*
X-56200Y10514D02*
G03*
X-56480Y9937I901J-792D01*
G01*
X-2162Y54791D02*
G03*
X-3852Y55307I-1682J-2484D01*
G01*
X-6664Y55311D02*
G03*
X-7015Y55305I-146J-1794D01*
G01*
X-6664Y55311D02*
G03*
X-6573Y55307I91J1197D01*
G01*
X32559Y43844D02*
G03*
X35963Y40437I8386J4975D01*
G01*
X-7138Y55291D02*
G03*
X-7089Y55296I-290J2986D01*
G01*
X-7171Y55288D02*
G03*
X-7164Y55289I-108J1195D01*
G01*
X-7171Y55288D02*
G03*
X-13434Y54297I7171J-65634D01*
G01*
X-13451Y54294D02*
G03*
X-13568Y54262I253J-1173D01*
G01*
Y54262D02*
G03*
X-13584Y54257I361J-1144D01*
G01*
X-14336Y54095D02*
G03*
X-13584Y54257I-378J3580D01*
G01*
X-14336Y54095D02*
G03*
X-14387Y54089I123J-1194D01*
G01*
X-14430Y54082D02*
G03*
X-19986Y52581I14430J-64428D01*
G01*
X-20007Y52574D02*
G03*
X-20316Y52424I365J-1143D01*
G01*
X-27311Y49676D02*
G03*
X-20316Y52424I-2546J16758D01*
G01*
X-28730Y49080D02*
G03*
X-27774Y49506I-971J3467D01*
G01*
X-29658Y48719D02*
G03*
X-28910Y49014I-2269J6833D01*
G01*
X-29768Y48676D02*
G03*
X-30036Y48555I137523J-305290D01*
G01*
X-30067Y48541D02*
G03*
X-30036Y48555I-717J1651D01*
G01*
X-31481Y48050D02*
G03*
X-30067Y48541I-2237J8718D01*
G01*
X-33216Y47376D02*
G03*
X-31651Y47992I-7617J21658D01*
G01*
X-33216Y47376D02*
G03*
X-33566Y47185I393J-1134D01*
G01*
X-38533Y44710D02*
G03*
X-33566Y47185I-3341J12925D01*
G01*
X-38533Y44710D02*
G03*
X-39079Y44396I303J-1161D01*
G01*
X-40464Y43011D02*
G03*
X-40797Y42373I848J-849D01*
G01*
X-41691Y39538D02*
G03*
X-41767Y39320I1089J-505D01*
G01*
X-42597Y36486D02*
G03*
X-42691Y36019I1105J-467D01*
G01*
X-43550Y33059D02*
G03*
X-42695Y35658I-3943J2738D01*
G01*
X-43550Y33059D02*
G03*
X-43707Y32733I990J-679D01*
G01*
X-46281Y28506D02*
G03*
X-43707Y32733I-6769J7017D01*
G01*
X-49312Y23694D02*
G03*
X-49399Y23614I761J-928D01*
G01*
X-49422Y23591D02*
G03*
X-49771Y22668I849J-848D01*
G01*
X-52305Y17302D02*
G03*
X-49771Y22668I-3604J4983D01*
G01*
X-52305Y17302D02*
G03*
X-52698Y15841I703J-972D01*
G01*
X-53820Y10784D02*
G03*
X-52698Y15841I-2851J3286D01*
G01*
X-39696Y-47789D02*
G03*
X-39472Y-48099I1072J538D01*
G01*
X-46006Y-33465D02*
G03*
X-46645Y-31418I-3600J0D01*
G01*
X-53820Y10784D02*
G03*
X-54163Y10294I780J-912D01*
G01*
X-54514Y9707D02*
G03*
X-54795Y9114I902J-791D01*
G01*
X-54661Y4062D02*
G03*
X-54447Y7959I-1532J2038D01*
G01*
X-54809Y9031D02*
G03*
X-54447Y7959I1184J-197D01*
G01*
X-46735Y-31265D02*
G03*
X-46645Y-31418I1077J529D01*
G01*
X-13810Y56058D02*
G03*
X-14144Y55968I612J-2937D01*
G01*
X-14561Y55882D02*
G03*
X-14144Y55968I-152J1794D01*
G01*
X-14561Y55882D02*
G03*
X-14800Y55844I159J-1793D01*
G01*
D02*
G03*
X-20544Y54292I14800J-66190D01*
G01*
D02*
G03*
X-20665Y54251I903J-2861D01*
G01*
X-44494Y35705D02*
G03*
X-44491Y35907I-6689J202D01*
G01*
X-45026Y34090D02*
G03*
X-44494Y35705I-2467J1707D01*
G01*
X-45026Y34090D02*
G03*
X-45436Y33235I2465J-1710D01*
G01*
X-47536Y29796D02*
G03*
X-45436Y33235I-5514J5727D01*
G01*
X-47665Y29672D02*
G03*
X-47650Y29685I-795J899D01*
G01*
X-48262Y28816D02*
G03*
X-48281Y28719I20093J-3969D01*
G01*
X-51134Y24606D02*
G03*
X-48281Y28719I-3189J5258D01*
G01*
X1098Y54918D02*
G03*
X-73Y54680I0J-3000D01*
G01*
X-42597Y36486D02*
G03*
X-42079Y38052I-9396J3970D01*
G01*
X-42695Y35658D02*
G03*
X-42691Y35907I-8488J249D01*
G01*
X-46281Y28506D02*
G03*
X-46612Y27934I833J-864D01*
G01*
X-49302Y23702D02*
G03*
X-49312Y23694I758J-930D01*
G01*
X-40812Y36097D02*
G03*
X-40330Y37628I-11180J4359D01*
G01*
X-41894Y32302D02*
G03*
X-40896Y35609I-5599J3495D01*
G01*
X-52274Y9769D02*
G03*
X-52451Y8317I856J-841D01*
G01*
X-52835Y-3941D02*
G03*
X-52835Y95I-1559J2018D01*
G01*
X9229Y52236D02*
G03*
X11102Y51034I4441J4857D01*
G01*
X-46761Y41470D02*
G03*
X-46018Y44375I-5408J2929D01*
G01*
X-59323Y13678D02*
G03*
X-59220Y14132I-1096J488D01*
G01*
X-54474Y27022D02*
G03*
X-54484Y27012I840J-857D01*
G01*
X4845Y60886D02*
G03*
X-30Y61079I-4845J-60886D01*
G01*
D02*
G03*
X-14826Y59523I30J-71424D01*
G01*
X-48515Y37106D02*
G03*
X-48751Y36188I950J-734D01*
G01*
X-57999Y-19142D02*
G03*
X-58010Y-19106I-1151J-338D01*
G01*
X-28834Y54921D02*
G03*
X-29325Y54781I242J-1784D01*
G01*
X-23007Y57134D02*
G03*
X-23030Y57117I1036J-1472D01*
G01*
X41768Y47996D02*
G03*
X42001Y47814I849J848D01*
G01*
X-55441Y-37149D02*
G03*
X-55453Y-37224I1181J-215D01*
G01*
X-51845Y-46300D02*
G03*
X-51930Y-45761I-1800J-5D01*
G01*
X-29618Y58487D02*
G03*
X-24657Y60420I-238J7946D01*
G01*
X23175Y56511D02*
G03*
X22536Y56769I-23175J-56511D01*
G01*
X-50061Y42962D02*
G03*
X-49627Y44613I-2107J1436D01*
G01*
X5288Y64462D02*
G03*
X-32Y64679I-5288J-64462D01*
G01*
X50867Y-38723D02*
G03*
X51836Y-38322I0J1371D01*
G01*
X-51926Y38551D02*
G03*
X-52148Y38201I2413J-1782D01*
G01*
X29188Y57718D02*
G03*
X29131Y57747I-1411J-2647D01*
G01*
X52797Y-37361D02*
G03*
X54302Y35138I-52797J37361D01*
G01*
X-55380Y-39917D02*
G03*
X-55036Y-40758I1200J0D01*
G01*
X-55380Y-39055D02*
G03*
X-55460Y-37703I-11515J0D01*
G01*
X-29634Y58487D02*
G03*
X-30078Y58385I40J-1199D01*
G01*
X-47537Y-53389D02*
G03*
X-49680Y-50396I-2506J470D01*
G01*
X-30078Y58385D02*
G03*
X-32342Y57350I30078J-68731D01*
G01*
X-33974Y56763D02*
G03*
X-34421Y56635I100J-1196D01*
G01*
X-52961Y-43078D02*
G03*
X-52964Y-43068I-1163J-295D01*
G01*
X-32932Y57113D02*
G03*
X-33054Y57066I368J-1142D01*
G01*
X-48828Y47563D02*
G03*
X-49145Y47001I848J-848D01*
G01*
X-49583Y45222D02*
G03*
X-49615Y45011I1165J-286D01*
G01*
X-51995Y-45491D02*
G03*
X-51982Y-45557I1183J199D01*
G01*
X-53044Y35686D02*
G03*
X-53050Y35543I1194J-125D01*
G01*
X38384Y52057D02*
G03*
X38362Y52074I-715J-963D01*
G01*
X-42290Y53305D02*
G03*
X-42274Y53303I115J1194D01*
G01*
X-51448Y39197D02*
G03*
X-51482Y39152I2377J-1830D01*
G01*
X42754Y46915D02*
G03*
X42682Y47078I-1131J-402D01*
G01*
X-51845Y-46300D02*
G03*
X-50391Y-50021I5474J-5D01*
G01*
X-61415Y-20286D02*
G03*
X-56009Y-32347I61415J20286D01*
G01*
X-50061Y42962D02*
G03*
X-50235Y42571I991J-676D01*
G01*
X23687Y60182D02*
G03*
X5288Y64462I-31771J-94888D01*
G01*
X-42290Y53305D02*
G03*
X-43174Y53040I-124J-1194D01*
G01*
X36237Y53575D02*
G03*
X32565Y55882I-36237J-53575D01*
G01*
X-55290Y-35050D02*
G03*
X-56009Y-32347I-5400J10D01*
G01*
X-51950Y-45688D02*
G03*
X-51930Y-45761I1165J289D01*
G01*
X-51995Y-45491D02*
G03*
X-52710Y-43747I-4287J-739D01*
G01*
X-52964Y-43068D02*
G03*
X-53280Y-42515I-1162J-298D01*
G01*
X38362Y52074D02*
G03*
X38350Y52082I-702J-973D01*
G01*
X-32Y64679D02*
G03*
X-24253Y60650I32J-75024D01*
G01*
X-44178Y52207D02*
G03*
X-44251Y52140I775J-917D01*
G01*
X-61553Y-19841D02*
G03*
X-61519Y-19968I1174J247D01*
G01*
X-51978Y-45576D02*
G03*
X-51974Y-45592I1169J271D01*
G01*
X-55454Y-37237D02*
G03*
X-55462Y-37333I1192J-139D01*
G01*
X-53297Y-42498D02*
G03*
X-53303Y-42491I-851J-846D01*
G01*
X31577Y56447D02*
G03*
X31501Y56488I-1267J-2213D01*
G01*
X-61589Y-19687D02*
G03*
X-61607Y-19623I-1162J-301D01*
G01*
X5137Y62666D02*
G03*
X5050Y62675I-237J-1784D01*
G01*
X-29238Y56704D02*
G03*
X-23735Y58845I-619J9730D01*
G01*
X52568Y34365D02*
G03*
X52562Y34370I-851J-846D01*
G01*
X-52695Y32998D02*
G03*
X-53368Y32659I175J-1187D01*
G01*
X-52668Y33002D02*
G03*
X-50644Y36370I-382J2521D01*
G01*
X56484Y-27627D02*
G03*
X52895Y33997I-56484J27627D01*
G01*
X-32347Y55411D02*
G03*
X-32078Y55506I-2071J6267D01*
G01*
X23157Y58459D02*
G03*
X23099Y58481I-445J-1115D01*
G01*
X-54160Y31678D02*
G03*
X-54324Y31073I1036J-605D01*
G01*
X-47791Y44971D02*
G03*
X-47824Y44622I1165J-287D01*
G01*
X-50478Y37482D02*
G03*
X-50644Y36370I965J-713D01*
G01*
X-31999Y55533D02*
G03*
X-32078Y55506I343J-1150D01*
G01*
X-32347Y55411D02*
G03*
X-32983Y55124I140102J-312025D01*
G01*
X-36784Y53805D02*
G03*
X-37355Y53463I306J-1160D01*
G01*
X33901Y52743D02*
G03*
X30310Y54233I-3591J-3582D01*
G01*
X-33830Y54895D02*
G03*
X-34023Y54823I320J-1156D01*
G01*
X40496Y46148D02*
G03*
X40066Y46425I-849J-848D01*
G01*
X-23724Y58854D02*
G03*
X-23735Y58845I742J-943D01*
G01*
X48477Y37870D02*
G03*
X52090Y34665I5560J2629D01*
G01*
X-42957Y50882D02*
G03*
X-43033Y50812I774J-917D01*
G01*
X-47092Y46753D02*
G03*
X-47214Y46629I7071J-7071D01*
G01*
D02*
G03*
X-47518Y46080I861J-836D01*
G01*
X-53888Y32139D02*
G03*
X-54160Y31678I54401J-32337D01*
G01*
X-23366Y59050D02*
G03*
X-23724Y58854I390J-1135D01*
G01*
X-48425Y42183D02*
G03*
X-48557Y41859I1033J-611D01*
G01*
X-49613Y38629D02*
G03*
X-49079Y39739I-2379J1827D01*
G01*
X-50021Y38100D02*
G03*
X-50036Y38080I950J-733D01*
G01*
X-41816Y51485D02*
G03*
X-42570Y51206I15J-1200D01*
G01*
X38556Y47926D02*
G03*
X40066Y46425I2389J893D01*
G01*
X52731Y34202D02*
G03*
X52721Y34212I-856J-841D01*
G01*
X56256Y-27945D02*
G03*
X56484Y-27627I-848J849D01*
G01*
X30296Y54247D02*
G03*
X30310Y54233I848J849D01*
G01*
X-55891Y28151D02*
G03*
X-56500Y27268I2125J-2118D01*
G01*
X-57805Y24379D02*
G03*
X-57975Y23897I2734J-1235D01*
G01*
X-58077Y23638D02*
G03*
X-57975Y23897I-1058J566D01*
G01*
X-49509Y-48216D02*
G03*
X-48821Y-48745I1026J622D01*
G01*
X-50045Y-46302D02*
G03*
X-49509Y-48216I3674J-3D01*
G01*
X-53490Y-35051D02*
G03*
X-54465Y-31421I-7200J12D01*
G01*
X-53580Y-39172D02*
G03*
X-53229Y-40020I1200J0D01*
G01*
X-53644Y-37317D02*
G03*
X-53490Y-35455I-11183J1862D01*
G01*
X-40161Y-58345D02*
G03*
X-39860Y-58851I1150J343D01*
G01*
X-45717Y-52473D02*
G03*
X-48821Y-48745I-4327J-447D01*
G01*
X-42382Y-56328D02*
G03*
X-41914Y-56616I846J851D01*
G01*
X-45700Y-52632D02*
G03*
X-45358Y-53353I1194J125D01*
G01*
X-58156Y23491D02*
G03*
X-58428Y22682I2247J-1206D01*
G01*
X-58647Y22021D02*
G03*
X-58987Y21363I2474J-1696D01*
G01*
X-62319Y-7767D02*
G03*
X-59886Y-19098I62832J7569D01*
G01*
X-58988Y21363D02*
G03*
X-62718Y2465I59500J-21561D01*
G01*
D02*
G03*
X-62720Y2346I2998J-119D01*
G01*
X-62332Y-7642D02*
G03*
X-62319Y-7767I3588J292D01*
G01*
X-62720Y-2743D02*
G03*
X-62710Y-2982I3000J0D01*
G01*
X-53644Y-37317D02*
G03*
X-53660Y-37490I1183J-200D01*
G01*
X-53580Y-39055D02*
G03*
X-53655Y-37644I-13315J0D01*
G01*
X-59701Y-19737D02*
G03*
X-54465Y-31421I59701J19737D01*
G01*
X-59708Y-19714D02*
G03*
X-59701Y-19737I1149J348D01*
G01*
X-25908Y-68449D02*
G03*
X-26256Y-67698I-1196J-98D01*
G01*
X-48189Y37528D02*
G03*
X-47328Y39324I-3804J2928D01*
G01*
X-51783Y-37016D02*
G03*
X-51690Y-35455I-13044J1561D01*
G01*
X-35Y62879D02*
G03*
X-23346Y59057I35J-73224D01*
G01*
X5050Y62675D02*
G03*
X-35Y62879I-5050J-62675D01*
G01*
X-31999Y55533D02*
G03*
X-31828Y55600I-350J1148D01*
G01*
X-42570Y51206D02*
G03*
X-42957Y50882I42570J-51206D01*
G01*
X-54979Y28853D02*
G03*
X-55740Y28302I1357J-2675D01*
G01*
X-51146Y-42634D02*
G03*
X-51661Y-41588I-1785J-229D01*
G01*
X-51146Y-42634D02*
G03*
X-50988Y-43100I1191J145D01*
G01*
X-40161Y-58345D02*
G03*
X-41808Y-56651I-2444J-728D01*
G01*
X-58647Y22021D02*
G03*
X-58456Y22506I-993J673D01*
G01*
X-59844Y-19243D02*
G03*
X-59886Y-19098I-2905J-750D01*
G01*
X-55468Y-37524D02*
G03*
X-55460Y-37703I1199J-38D01*
G01*
X49761Y39701D02*
G03*
X49428Y40336I-1181J-214D01*
G01*
X40312Y50361D02*
G03*
X38537Y51943I-14459J-14438D01*
G01*
X29117Y57754D02*
G03*
X23832Y60128I-29117J-57754D01*
G01*
X-24253Y60650D02*
G03*
X-24657Y60420I381J-1138D01*
G01*
X-37740Y55423D02*
G03*
X-38423Y54986I266J-1170D01*
G01*
X-43174Y53040D02*
G03*
X-44178Y52207I43174J-53040D01*
G01*
X42672Y47098D02*
G03*
X42001Y47814I-1599J-826D01*
G01*
X-60824Y-36502D02*
G03*
X-60690Y-35462I-4002J1046D01*
G01*
X-34798Y62277D02*
G03*
X-34314Y62391I-28J1200D01*
G01*
X49579Y-49527D02*
G03*
X59688Y36720I-49579J49527D01*
G01*
X-30066Y63893D02*
G03*
X-30211Y63898I-140J-1795D01*
G01*
X-60690Y-35355D02*
G03*
X-60846Y-34768I-1200J-4D01*
G01*
X-54509Y49458D02*
G03*
X-54463Y49517I-923J767D01*
G01*
X60781Y37819D02*
G03*
X61004Y38163I-880J816D01*
G01*
X-31473Y63664D02*
G03*
X-34314Y62391I31473J-74010D01*
G01*
X40194Y-57437D02*
G03*
X49579Y-49527I-41403J58646D01*
G01*
X-54509Y49458D02*
G03*
X-56579Y45873I9025J-7602D01*
G01*
X39014Y-61092D02*
G03*
X39370Y-60241I-844J853D01*
G01*
X-60943Y-36948D02*
G03*
X-60872Y-36712I-1108J461D01*
G01*
X-39803Y61901D02*
G03*
X-40413Y61738I-5J-1200D01*
G01*
X0Y70079D02*
G03*
X-27259Y65318I-0J-80424D01*
G01*
X-36464Y61901D02*
G03*
X-35966Y62010I-0J1200D01*
G01*
X-56579Y45873D02*
G03*
X-56550Y43741I2819J-1027D01*
G01*
X-57304Y40297D02*
G03*
X-57164Y40607I-1013J643D01*
G01*
X-61901Y-38381D02*
G03*
X-60943Y-36948I-3134J3134D01*
G01*
X45044Y48621D02*
G03*
X45037Y48647I-1158J-316D01*
G01*
X-34852Y58455D02*
G03*
X-34795Y58491I-3214J5064D01*
G01*
X-42973Y57566D02*
G03*
X-43548Y57325I161J-1189D01*
G01*
X-53748Y-45943D02*
G03*
X-55525Y-43795I-2534J-288D01*
G01*
X16595Y55785D02*
G03*
X13508Y56694I-3088J-4792D01*
G01*
X-43362Y45360D02*
G03*
X-43947Y44722I7071J-7071D01*
G01*
X-49415Y30563D02*
G03*
X-49878Y29866I705J-971D01*
G01*
X-57008Y15020D02*
G03*
X-56671Y14069I1195J-111D01*
G01*
X-28592Y53137D02*
G03*
X-29276Y52824I28592J-63483D01*
G01*
X-47710Y-41487D02*
G03*
X-49128Y-39029I-5222J-1376D01*
G01*
X-40408Y47995D02*
G03*
X-41062Y47660I194J-1184D01*
G01*
X-53741Y24631D02*
G03*
X-53691Y23544I1094J-494D01*
G01*
X-35418Y58174D02*
G03*
X-35604Y58084I424J-1123D01*
G01*
X-35418Y58174D02*
G03*
X-34852Y58455I-1045J2812D01*
G01*
X35483Y45992D02*
G03*
X38118Y43357I5462J2827D01*
G01*
X-46294Y35752D02*
G03*
X-46291Y35907I-4889J154D01*
G01*
X-46156Y37373D02*
G03*
X-45579Y38898I-5836J3083D01*
G01*
X-34510Y-59109D02*
G03*
X-34199Y-59334I848J849D01*
G01*
X-29594Y-61812D02*
G03*
X-30382Y-61244I-2125J-2118D01*
G01*
X38413Y43141D02*
G03*
X38118Y43357I-849J-848D01*
G01*
X-57148Y13592D02*
G03*
X-57485Y13237I6506J-6506D01*
G01*
X49009Y-44916D02*
G03*
X54946Y37421I-49009J44916D01*
G01*
X-56245Y-18722D02*
G03*
X-51333Y-29646I56245J18722D01*
G01*
X-46553Y-45064D02*
G03*
X-46221Y-45700I1181J213D01*
G01*
X35483Y45992D02*
G03*
X35267Y46287I-1064J-554D01*
G01*
X-30876Y52109D02*
G03*
X-30367Y52307I-1051J3443D01*
G01*
X-43947Y44722D02*
G03*
X-44228Y44008I917J-773D01*
G01*
X-29576Y-61830D02*
G03*
X-29583Y-61823I-852J-845D01*
G01*
X-49036Y30864D02*
G03*
X-47155Y33768I-4014J4660D01*
G01*
X-34981Y50581D02*
G03*
X-35404Y50340I369J-1142D01*
G01*
X-49606Y-33958D02*
G03*
X-49711Y-33467I-1200J1D01*
G01*
X-57485Y13237D02*
G03*
X-57763Y12699I891J-804D01*
G01*
X24296Y54071D02*
G03*
X24278Y54079I-742J-1640D01*
G01*
X12075Y57788D02*
G03*
X12066Y57790I-267J-1170D01*
G01*
X-56371Y-18292D02*
G03*
X-56304Y-18530I2919J692D01*
G01*
X4707Y59091D02*
G03*
X-34Y59279I-4707J-59091D01*
G01*
X-54661Y4062D02*
X-54661Y4062D01*
X-12944Y52561D02*
X-12943Y52561D01*
X-13568Y54262D02*
X-13568Y54262D01*
X-46006Y-36382D02*
X-46006Y-33465D01*
X-54163Y10294D02*
X-54163Y10294D01*
X-43707Y32733D02*
X-43707Y32733D01*
X-50680Y15459D02*
X-50680Y15459D01*
X-41691Y39538D02*
X-41691Y39538D01*
X-44206Y-33471D02*
X-44206Y-35833D01*
X-17648Y-64732D02*
Y-64732D01*
X-33566Y47185D02*
X-33566Y47185D01*
X-27311Y49676D02*
Y49676D01*
X-51186Y-16775D02*
Y-16733D01*
X-53820Y10784D02*
X-53820Y10784D01*
X-31481Y48050D02*
Y48050D01*
X-47806Y-36967D02*
X-47806Y-33465D01*
X-14336Y54095D02*
Y54095D01*
X-51170Y-16835D02*
X-51150Y-16908D01*
X-51100Y-17075D02*
X-51086Y-17122D01*
X-51086Y-17122D01*
X-51150Y-16908D02*
X-51117Y-17017D01*
X-52952Y-17144D02*
Y-17144D01*
X-52826Y-17584D02*
X-52802Y-17664D01*
X-52802Y-17664D01*
X-52924Y-17245D02*
X-52922Y-17250D01*
X-45941Y24885D02*
X-43128Y29611D01*
X2965Y-70438D02*
X2970Y-70442D01*
X-38080Y-46868D02*
X-29909Y-55038D01*
X-29120Y46994D02*
X-29116Y46995D01*
X-52881Y-17403D02*
X-52839Y-17541D01*
X-45225Y-30215D02*
X-45225D01*
X-28397Y47273D02*
X-28242Y47339D01*
X-30944Y46328D02*
X-30924Y46335D01*
X-13121Y52516D02*
X-13092Y52524D01*
X-50623Y16183D02*
X-50616Y16202D01*
X-12988Y52551D02*
X-12952Y52559D01*
X228Y-70088D02*
X2113Y-70088D01*
X4359Y-71822D02*
X4359Y-71822D01*
X2113Y-70088D02*
X2114Y-70088D01*
X-32521Y45696D02*
X-32508Y45703D01*
X-19221Y50935D02*
X-19216Y50937D01*
X2702Y-70243D02*
X2711Y-70248D01*
X-29039Y47026D02*
X-28890Y47080D01*
X-19216Y50937D02*
X-19202Y50941D01*
X-52909Y-17298D02*
X-52881Y-17403D01*
X-19250Y-63677D02*
X-19250D01*
X-26268Y48030D02*
X-26252Y48033D01*
X-26321Y48018D02*
X-26318Y48018D01*
X-26958Y47852D02*
X-26321Y48018D01*
X-38166Y-46771D02*
X-38155Y-46784D01*
X-11189Y-67936D02*
X-11183Y-67941D01*
X-17234Y-64783D02*
X-16952Y-64768D01*
X-11396Y-67685D02*
X-11395Y-67685D01*
X2970Y-70442D02*
X4268Y-71741D01*
X-29304Y46911D02*
X-29120Y46994D01*
X-31056Y46288D02*
X-31044Y46293D01*
X-19402Y50859D02*
X-19389Y50865D01*
X-54612Y-17895D02*
X-54608Y-17908D01*
X37310Y41691D02*
X43603Y35398D01*
X-54649Y-17760D02*
X-54612Y-17895D01*
X-16818Y-69085D02*
Y-69085D01*
X11188Y55635D02*
X11197Y55617D01*
X34017Y44919D02*
X34017Y44919D01*
X-22217Y-65803D02*
X-22208Y-65812D01*
X-54660Y-17718D02*
X-54655Y-17738D01*
X-56944Y-7168D02*
X-56944Y5319D01*
X22197Y53013D02*
X23506Y52452D01*
X16925Y53135D02*
X17126Y53091D01*
X-54608Y-17908D02*
X-54560Y-18067D01*
X-54554Y-18090D02*
X-54519Y-18206D01*
X23530Y52441D02*
X23554Y52431D01*
X20999Y53150D02*
X21260Y53150D01*
X-56944Y-7168D02*
X-56944Y-7242D01*
X-40976Y-49126D02*
X-40951Y-49150D01*
X31343Y47657D02*
X33817Y45184D01*
X-54558Y-18075D02*
X-54558D01*
X-34089Y48979D02*
X-34089Y48979D01*
X11182Y55647D02*
X11182D01*
X-48444Y-31868D02*
X-48350Y-32059D01*
X-23581Y-64439D02*
X-23581Y-64439D01*
X-34476Y48765D02*
X-34476Y48765D01*
X-56922Y7018D02*
X-56922Y7018D01*
X-54678Y-17657D02*
X-54678Y-17657D01*
X-40892Y-49213D02*
X-40892Y-49213D01*
X-23900Y-64206D02*
X-23900Y-64206D01*
X-41213Y-48787D02*
X-41213Y-48787D01*
X-23570Y-64450D02*
X-22226Y-65795D01*
X-44491Y36400D02*
X-44491Y35907D01*
X-28331Y-60530D02*
X-25606Y-63255D01*
X23521Y52445D02*
X23521Y52446D01*
X21899Y53101D02*
X21905Y53100D01*
X17320Y53033D02*
X17320Y53033D01*
X-44342Y-45010D02*
X-44342Y-45010D01*
X43615Y35386D02*
X43615Y35386D01*
X20549Y53062D02*
Y53062D01*
X17141Y53088D02*
Y53088D01*
X-32252Y49694D02*
X-32252Y49694D01*
X-17243Y-69073D02*
Y-69073D01*
X13313Y54086D02*
X13313Y54086D01*
X-23593Y-64428D02*
X-23593Y-64428D01*
X-55143Y3089D02*
X-55111Y296D01*
X-55102Y-392D01*
X32559Y43844D02*
X32559D01*
X52503Y8128D02*
Y11867D01*
X-42479Y43316D02*
X-42478D01*
X-53931Y18411D02*
X-53931Y18411D01*
X-54531Y17718D02*
X-54531Y17718D01*
X57381Y-2778D02*
Y2692D01*
X7608Y54348D02*
X7608Y54348D01*
X-55826Y11169D02*
X-55826D01*
X56562Y-4155D02*
X56576D01*
X-7319Y57082D02*
Y57082D01*
X52496Y8121D02*
X52503Y8128D01*
X-13896Y-71861D02*
X-13896D01*
X13008Y54193D02*
X13008Y54193D01*
X52458Y8121D02*
X52496D01*
X56561Y-4154D02*
X56562Y-4155D01*
X-32044Y49765D02*
X-32044Y49765D01*
X-55296Y11922D02*
X-55296Y11922D01*
X36204Y40251D02*
X42156Y34299D01*
X16332Y49551D02*
X16349Y49547D01*
X58183Y-11331D02*
X59079Y-4674D01*
X35963Y40437D02*
X35963Y40437D01*
X35085Y38824D02*
X40712Y33198D01*
X1098Y54918D02*
X2111Y54918D01*
X-50828Y40166D02*
X-50824Y40181D01*
X23832Y60128D02*
X23832Y60128D01*
X-22041Y55611D02*
X-22041Y55611D01*
X-49627Y44613D02*
X-49627Y44613D01*
X-28592Y53137D02*
X-28418Y53161D01*
X21923Y55076D02*
X21923Y55076D01*
X-1035Y-70854D02*
X-620Y-70439D01*
X22463Y54857D02*
X22486Y54848D01*
X16142Y49575D02*
Y49575D01*
X28311Y56144D02*
X28323Y56138D01*
X-30980Y52074D02*
X-30962Y52081D01*
X22512Y54837D02*
X22835Y54698D01*
X-49680Y-50396D02*
X-49680Y-50396D01*
X-61589Y-19687D02*
X-61577Y-19734D01*
X-33484Y56873D02*
X-33054Y57066D01*
X40945Y48819D02*
X41768Y47996D01*
X-33830Y54895D02*
X-33618Y54954D01*
X-37355Y53463D02*
X-37355Y53463D01*
X28637Y55906D02*
X30296Y54247D01*
X-47537Y-53389D02*
X-47537Y-53389D01*
X-61563Y-19795D02*
X-61553Y-19841D01*
X-33974Y56763D02*
X-33874Y56772D01*
X-34023Y54823D02*
Y54823D01*
X-28374Y51258D02*
X-28374Y51258D01*
X57124Y-3521D02*
X57124Y-3521D01*
X-54324Y31073D02*
X-54324Y29865D01*
X23700Y60177D02*
X23700Y60177D01*
X-55017Y-40778D02*
X-53303Y-42491D01*
X-50824Y40181D02*
X-50235Y42571D01*
X51836Y-38322D02*
X52797Y-37361D01*
X30500Y45955D02*
X32377Y44078D01*
X24059Y49321D02*
X24059Y49321D01*
X36237Y53574D02*
X36237Y53575D01*
X21357Y51107D02*
X21357Y51107D01*
X-42605Y-59074D02*
X-42605Y-59074D01*
X-55441Y-37149D02*
X-55441Y-37149D01*
X38362Y52074D02*
X38362Y52074D01*
X16823Y51297D02*
X16823Y51297D01*
X10011Y54015D02*
X10011Y54015D01*
X12050Y52575D02*
X12050Y52575D01*
X8541Y54567D02*
X8541Y54567D01*
X3730Y54444D02*
X3758Y54422D01*
X11840Y52676D02*
X11840Y52676D01*
X-53888Y32139D02*
X-53368Y32659D01*
X-47824Y44622D02*
X-47824Y44622D01*
X-51338Y-39365D02*
X-50391Y-40313D01*
X-43650Y-52515D02*
X-41398Y-54767D01*
X-51745Y-37490D02*
X-51742Y-37500D01*
X-35865Y52193D02*
X-35865Y52193D01*
X-46639Y-47797D02*
X-46567Y-47847D01*
X32777Y51322D02*
X36676Y47423D01*
X-45574Y45693D02*
X-41898Y49370D01*
X-51690Y-38517D02*
Y-37849D01*
X-33317Y53152D02*
X-33199Y53187D01*
X-28582Y54954D02*
X-28582Y54954D01*
X-30867Y-63084D02*
X-30852Y-63100D01*
X51915Y32177D02*
X51925Y32162D01*
X23175Y56511D02*
X23175Y56511D01*
X-44013Y-51716D02*
X-43974Y-51907D01*
X15249Y58895D02*
X15249D01*
X-53827Y27364D02*
X-53805Y27368D01*
X-33470Y53094D02*
Y53094D01*
X56471Y-21226D02*
X56479Y-21219D01*
X19147Y57836D02*
X19160Y57832D01*
X39548Y44551D02*
X46491Y37608D01*
X-22187Y57545D02*
X-22187Y57545D01*
X-55909Y22225D02*
Y22285D01*
X-58140Y-18649D02*
X-58140Y-18649D01*
X-49392Y-42185D02*
X-49385Y-42210D01*
X-58010Y-19106D02*
X-58010Y-19106D01*
X-57999Y-19142D02*
X-57999Y-19142D01*
X-32962Y53248D02*
X-32962Y53248D01*
X-54615Y26882D02*
X-54484Y27012D01*
X22477Y56791D02*
X22477Y56791D01*
X-48449Y-44835D02*
X-48449Y-44835D01*
X12500Y59538D02*
X14068Y59181D01*
X-25908Y-68449D02*
X-25908Y-68452D01*
X28634Y55910D02*
X28634Y55910D01*
X-33460Y54986D02*
X-33460Y54986D01*
X23188Y58447D02*
X23188Y58447D01*
X23082Y58486D02*
X23099Y58481D01*
X52090Y34665D02*
X52090Y34665D01*
X-51995Y-45491D02*
X-51995D01*
X-48828Y47563D02*
X-44251Y52140D01*
X-47549Y-53762D02*
X-47547Y-53776D01*
X-29634Y58487D02*
X-29618Y58487D01*
X38384Y52057D02*
X38500Y51972D01*
X-24253Y60650D02*
X-24253Y60650D01*
X-52961Y-43078D02*
X-52889Y-43358D01*
X-32932Y57113D02*
X-32932Y57113D01*
X-31999Y55533D02*
X-31999Y55533D01*
X-55647Y-43757D02*
X-55525Y-43795D01*
X-34721Y60477D02*
X-34714Y60477D01*
X-50493Y48443D02*
X-45472Y53464D01*
X45031Y48667D02*
X45037Y48647D01*
X-42973Y57566D02*
Y57566D01*
X54149Y40750D02*
X54338Y41344D01*
X39370Y-60241D02*
X39370Y-59028D01*
X-30445Y60189D02*
X-30445Y60189D01*
X-44748Y56393D02*
X-43548Y57325D01*
X-46511Y35107D02*
X-46511Y35107D01*
X21506Y55216D02*
X21525Y55210D01*
X12637Y57511D02*
X12637Y57511D01*
X-56245Y-18722D02*
X-56245Y-18722D01*
X-49136Y30775D02*
X-49136Y30775D01*
X21839Y55106D02*
X21850Y55102D01*
X-32586Y51487D02*
Y51487D01*
X-49112Y30796D02*
X-49112Y30796D01*
X-17221Y-71224D02*
X-17192Y-71253D01*
X-29576Y-61830D02*
X-26879Y-64527D01*
X-14581Y57728D02*
X-14570Y57731D01*
X24842Y53775D02*
X24938Y53703D01*
X-50147Y-32473D02*
X-49711Y-33467D01*
X24278Y54079D02*
X24278Y54079D01*
X-32601Y51484D02*
X-32601Y51484D01*
X-56298Y-18550D02*
X-56293Y-18563D01*
X-23503Y-67602D02*
X-23400Y-67893D01*
X-40024Y-53491D02*
X-40024Y-53491D01*
X-49213Y30713D02*
X-49213D01*
X20427Y49285D02*
X20427Y49285D01*
X11102Y51034D02*
X11102Y51034D01*
X29741Y46304D02*
Y46304D01*
X9317Y54422D02*
X9317Y54422D01*
X23907Y49481D02*
X23907Y49481D01*
X20546Y51161D02*
X20546Y51161D01*
X9221Y52243D02*
X9229Y52236D01*
X-40894Y35687D02*
X-40894D01*
X-38807Y42123D02*
X-38142Y42788D01*
X1467Y53118D02*
X2096D01*
X12604Y57538D02*
X12604Y57538D01*
X-37023Y-56492D02*
X-37023Y-56492D01*
X-56440Y-18056D02*
X-56402Y-18177D01*
X-31513Y51838D02*
X-31513Y51838D01*
X-49606Y-33958D02*
X-49606Y-38055D01*
X57126Y-12738D02*
X57135Y-12728D01*
X-46221Y-45700D02*
X-45655Y-46266D01*
X38118Y43357D02*
X38118Y43357D01*
X-36782Y-56837D02*
X-34510Y-59109D01*
X12075Y57788D02*
X12098Y57783D01*
X35483Y45992D02*
X35483Y45992D01*
X52895Y33997D02*
X52895Y33997D01*
X40066Y46425D02*
X40066Y46425D01*
X54302Y35138D02*
X54302Y35138D01*
X-34421Y56636D02*
X-34421Y56635D01*
X44244Y45377D02*
X44244Y45377D01*
X45161Y47757D02*
X45170Y47761D01*
X44667Y49237D02*
X44689Y49217D01*
X-60253Y28089D02*
X-60253D01*
X54946Y37421D02*
X54946Y37421D01*
X-53703Y-46153D02*
X-53696Y-46178D01*
X-66477Y-464D02*
Y464D01*
X-38311Y57526D02*
X-38311Y57526D01*
X-36075Y59849D02*
X-36025Y59869D01*
X25005Y63535D02*
X25005Y63535D01*
X-59125Y-37273D02*
X-59125Y-39366D01*
X-34714Y60477D02*
X-34418D01*
X-30313Y62098D02*
X-30255Y62098D01*
X-30204Y62097D02*
X-30182Y62096D01*
X-26185Y63790D02*
X-26185Y63790D01*
X-54888Y44440D02*
X-54836Y44297D01*
X46191Y50242D02*
X46279Y50137D01*
X-35468Y60222D02*
X-35468Y60222D01*
X-46627Y54850D02*
X-46579Y54891D01*
X68947Y30986D02*
X68948Y30986D01*
X70751Y25396D02*
X74355Y12326D01*
X68955Y30970D02*
X69433Y29881D01*
X-69839Y-17468D02*
X-69838Y-17469D01*
X-69681Y-17726D02*
X-69677Y-17734D01*
X69489Y29729D02*
X70739Y25438D01*
X66434Y29857D02*
X68947Y30986D01*
X-54018Y38748D02*
X-54018Y38748D01*
X-15125Y59455D02*
Y59455D01*
X-73020Y-14185D02*
X-70763Y-16441D01*
X75010Y-7448D02*
X75354Y1934D01*
X71428Y-26635D02*
X73347Y-17404D01*
X61234Y-43960D02*
X66229Y-35997D01*
X47569Y-58474D02*
X54652Y-51915D01*
X33041Y-67982D02*
X39372Y-64228D01*
X-69606Y-17931D02*
X-69606Y-17932D01*
X74437Y11881D02*
X75344Y2278D01*
X73366Y-17304D02*
X74976Y-7786D01*
X66286Y-35902D02*
X71143Y-27388D01*
X54886Y-51667D02*
X61037Y-44232D01*
X39533Y-64125D02*
X47298Y-58693D01*
X-61035Y34420D02*
X-57304Y40297D01*
X-60824Y-36502D02*
X-60824D01*
X-53449Y50701D02*
X-48825Y55324D01*
X-48766Y55379D02*
X-48766Y55379D01*
X-57288Y-37479D02*
X-57280Y-37245D01*
X48244Y-45296D02*
X48244Y-45296D01*
X-39483Y56748D02*
X-39483Y56748D01*
X-57090Y-35455D02*
Y-35048D01*
X-60236Y28124D02*
X-58190Y32143D01*
X-58170Y32182D02*
X-58032Y32430D01*
X-57255Y-37047D02*
X-57255Y-37047D01*
X53981Y37949D02*
X53981Y37949D01*
X-51517Y-51446D02*
X-50044Y-52920D01*
X-52856Y40349D02*
X-52856Y40349D01*
X-57996Y32490D02*
X-54073Y38668D01*
X-34221Y58684D02*
Y58684D01*
X46486Y47523D02*
X46515Y47495D01*
X-53988Y38789D02*
X-52962Y40178D01*
X-53644Y-46482D02*
X-53643D01*
X-52168Y43222D02*
Y44399D01*
X-54000Y38772D02*
X-54000Y38772D01*
X-43645Y54971D02*
X-43645Y54971D01*
X-53642Y-46507D02*
X-53642Y-46507D01*
X-42575Y55183D02*
X-42575Y55183D01*
X-57180Y-40753D02*
X-57180Y-39055D01*
X-29958Y60285D02*
X-29958Y60285D01*
X51342Y42231D02*
X51342Y42231D01*
X47586Y-48965D02*
X47586Y-48965D01*
X19160Y57832D02*
Y57832D01*
X22536Y56769D02*
X22536Y56769D01*
X-35060Y-61008D02*
X-31212Y-62842D01*
X-45998Y44589D02*
X-45911Y45063D01*
X-47919Y-46547D02*
X-46809Y-47657D01*
X-48751Y36188D02*
X-48751Y36188D01*
X24974Y55739D02*
X25018Y55720D01*
X-59220Y14132D02*
X-59220Y14132D01*
X-28834Y54921D02*
X-28666Y54944D01*
X-30867Y54064D02*
X-30039Y54455D01*
X57719Y-19914D02*
X57725Y-19902D01*
X-31539Y53786D02*
X-31362Y53847D01*
X-26678Y-67274D02*
X-26628Y-67326D01*
X52187Y31736D02*
X52405Y31374D01*
X-46018Y44375D02*
X-46018D01*
X-57675Y19671D02*
X-57675Y19671D01*
X-49412Y-42106D02*
X-49412D01*
X-59519Y13095D02*
X-59519Y13095D01*
X23223Y56491D02*
X24940Y55754D01*
X-58117Y-18733D02*
X-58117Y-18733D01*
X-51783Y-37016D02*
X-51783Y-37016D01*
X-47328Y39324D02*
X-46868Y41189D01*
X56479Y-21219D02*
X57519Y-20179D01*
X-51628Y30288D02*
X-51628Y30288D01*
X-60521Y7246D02*
X-60521Y7246D01*
X-56166Y23636D02*
X-54860Y26527D01*
X-57964Y-19254D02*
X-57964Y-19254D01*
X-55913Y22290D02*
X-55909Y22285D01*
X-32247Y53482D02*
X-31788Y53689D01*
X12480Y59542D02*
X12480Y59542D01*
X27793Y53825D02*
X27793Y53825D01*
X-46669Y-47776D02*
X-46659Y-47783D01*
X-26616Y-67339D02*
X-26256Y-67698D01*
X31017Y51784D02*
Y51784D01*
X-48283Y-45671D02*
X-48262Y-45841D01*
X-31587Y53769D02*
X-31565Y53777D01*
X-59323Y13678D02*
X-59323Y13678D01*
X-58743Y15803D02*
X-58710Y16148D01*
X-41157Y49717D02*
X-41157Y49717D01*
X-60544Y-7350D02*
Y6882D01*
X-51690Y-35455D02*
Y-35053D01*
X23196Y56502D02*
X23223Y56491D01*
X-36357Y51911D02*
X-36357Y51910D01*
X-54021Y27307D02*
X-53977Y27322D01*
X27143Y54716D02*
X27143Y54716D01*
X13279Y56922D02*
X13508Y56694D01*
X-34981Y50581D02*
X-34969Y50585D01*
X-16433Y-71605D02*
X-16433Y-71605D01*
X38413Y43141D02*
X45079Y36475D01*
X3369Y54639D02*
X3393Y54630D01*
X4486Y57303D02*
X4555Y57296D01*
X-51679Y23300D02*
X-51679Y23300D01*
X37053Y41887D02*
X37053Y41887D01*
X-21361Y55921D02*
X-21113Y56000D01*
X25544Y53173D02*
X26219Y52498D01*
X-44228Y44008D02*
X-44228Y44008D01*
X-46156Y37373D02*
X-46156Y37373D01*
X-55144Y-5181D02*
X-55144Y-7131D01*
X-55144Y-5181D02*
Y-3734D01*
X-42028Y32036D02*
X-41961Y32178D01*
X-39860Y-58851D02*
X-34642Y-64069D01*
X-11116Y-73325D02*
X-7040D01*
X-66434Y-29857D02*
Y-27684D01*
X29857Y-66434D02*
X30837Y-67414D01*
X-60690Y-35355D02*
X-60690Y-35462D01*
X-38381Y61901D02*
X-36464Y61901D01*
X-30986Y68947D02*
X-29857Y66434D01*
X-55463Y39989D02*
X-55463D01*
X-59087Y-36973D02*
X-59087Y-36973D01*
X-74542Y-16954D02*
X-74542Y-16955D01*
X-75309Y-16188D02*
X-74542Y-16954D01*
X-76903Y-10069D02*
X-76903D01*
X-74400Y-17123D02*
X-74400Y-17123D01*
X-74314Y-17208D02*
X-74314Y-17208D01*
X-74759Y-24344D02*
Y-21954D01*
X-74759Y-24344D02*
X-74759Y-24344D01*
X-52283Y-55001D02*
Y-55001D01*
X-74341Y-21043D02*
X-74341Y-21043D01*
X-74759Y-24344D02*
X-74759Y-24344D01*
X-54551Y-52732D02*
X-52283Y-55001D01*
X46385Y-50097D02*
X46434Y-50060D01*
X-55319Y33254D02*
X-53050Y35523D01*
X42754Y46915D02*
X42754Y46915D01*
X-53044Y35686D02*
X-52916Y36900D01*
X-52736Y37417D02*
X-52588Y37650D01*
X-51926Y38551D02*
X-51482Y39152D01*
X21233Y49164D02*
X21233Y49164D01*
X-2592Y-71206D02*
X-1884D01*
X-59516Y33455D02*
X-55627Y39580D01*
X-666Y-73756D02*
X453Y-72638D01*
X787D01*
X-26575Y-9646D02*
X-22933Y-13287D01*
X-27559Y14642D02*
Y14961D01*
X-26575Y-9646D02*
Y13658D01*
X-27559Y14642D02*
X-26575Y13658D01*
X-22933Y-26948D02*
Y-13287D01*
Y-26948D02*
X-22817Y-27065D01*
X-31473Y63664D02*
Y63664D01*
X34448Y-56299D02*
X34480Y-56267D01*
X27953Y-56299D02*
X34448D01*
X54037Y40498D02*
X54037Y40498D01*
X45887Y50560D02*
X45887Y50560D01*
X-26170Y63796D02*
X-26170Y63796D01*
X-52555Y48927D02*
X-46696Y54786D01*
X-68277Y-464D02*
Y464D01*
X-39661Y59280D02*
X-39661Y59280D01*
X-41970Y57635D02*
X-41874D01*
X45899Y50549D02*
X45899Y50549D01*
X-38862Y59397D02*
X-38862Y59397D01*
X47742Y48812D02*
X47771Y48784D01*
X-26666Y63477D02*
X-26666Y63477D01*
X-58890Y-35455D02*
Y-35045D01*
X-30150Y62094D02*
X-30150Y62094D01*
X47231Y49267D02*
X47362Y49140D01*
X-3488Y-73756D02*
X-666D01*
X-25776Y-57993D02*
X-23338Y-60431D01*
X22588Y48241D02*
X22588Y48241D01*
X-3554Y-70723D02*
X-3554Y-70723D01*
X29857Y-66434D02*
Y-66434D01*
X24026Y-60226D02*
X27953Y-56299D01*
X24026Y-63461D02*
Y-60226D01*
Y-63461D02*
X24214Y-63649D01*
Y-74012D02*
Y-63649D01*
X-56658Y6096D02*
X-56654Y6101D01*
X-39571Y46316D02*
X-39571Y46316D01*
X-31070Y52038D02*
X-31067Y52039D01*
X45305Y36161D02*
X45305Y36161D01*
X23757Y52339D02*
X23863Y52260D01*
X-50337Y-31962D02*
X-50330Y-31986D01*
X-38298Y-57867D02*
X-35392Y-60773D01*
X-29238Y56704D02*
X-29238Y56703D01*
X22507Y54839D02*
X22507Y54839D01*
X-32078Y55506D02*
X-32078Y55506D01*
X40824Y45820D02*
X47759Y38886D01*
X-18197Y-70835D02*
Y-70835D01*
X37029Y46924D02*
X37029D01*
X21943Y55068D02*
X21943Y55068D01*
X-43829Y38475D02*
X-43472Y39926D01*
X50647Y33307D02*
X50657Y33302D01*
X-52148Y38201D02*
X-52148Y38201D01*
X4558Y-71955D02*
X4921Y-72146D01*
X25017Y51102D02*
X25017Y51102D01*
X-42135Y44031D02*
X-40176Y45990D01*
X-20766Y54220D02*
X-20749Y54225D01*
X-18105Y-69036D02*
X-17609D01*
X-21471Y-67112D02*
X-19973Y-68609D01*
X-43362Y45360D02*
X-41062Y47660D01*
X-41998Y-51622D02*
X-40364Y-53256D01*
X-46294Y35745D02*
X-46294Y35752D01*
X12620Y57525D02*
X12620Y57525D01*
X-45507Y-46390D02*
X-45425Y-46449D01*
X-56280Y-18604D02*
X-56280Y-18604D01*
X-17874Y-70882D02*
X-17764Y-70912D01*
X-21886Y55705D02*
X-21723Y55788D01*
X-52868Y25761D02*
X-52684Y25836D01*
X-30902Y52101D02*
X-30876Y52109D01*
X-47674Y-41598D02*
X-47625Y-41728D01*
X-17889Y-70878D02*
X-17889Y-70878D01*
X-53741Y24631D02*
X-53508Y25148D01*
X-50050Y29052D02*
X-50050Y29052D01*
X-15079Y57624D02*
X-14704Y57697D01*
X-26303Y-65018D02*
X-24416Y-66384D01*
X-14466Y57759D02*
X-14446Y57763D01*
X-57008Y15020D02*
X-56918Y15981D01*
X-23343Y-68472D02*
X-23342Y-68466D01*
X-55974Y19083D02*
Y19083D01*
X-28396Y53164D02*
X-28376Y53166D01*
X-34642Y-64100D02*
X-34550Y-64192D01*
X-53644Y-37317D02*
X-53644Y-37317D01*
X-9008Y-71420D02*
Y-71420D01*
X61004Y38163D02*
X61004Y38164D01*
X-678Y-76378D02*
X19074D01*
X7897Y52433D02*
X7897D01*
X-8367Y-69034D02*
X-7846Y-69034D01*
X-11265Y-70523D02*
X-11265Y-70523D01*
X-12651Y-69157D02*
X-11506Y-70302D01*
X-12651Y-69157D02*
X-12651Y-69157D01*
X-8800Y-71440D02*
X-8800Y-71440D01*
X-17234Y-66602D02*
Y-66602D01*
X34870Y38996D02*
X34870Y38996D01*
X-27052Y-59263D02*
X-24333Y-61982D01*
X-47965Y21987D02*
X-47965D01*
X-24333Y-61982D02*
X-24333Y-61982D01*
X-23884Y-62265D02*
X-23873Y-62269D01*
X-20505Y-65000D02*
X-20391Y-65115D01*
X-30749Y-56711D02*
X-30749Y-56711D01*
X-31106Y-56465D02*
X-31106Y-56465D01*
X-39472Y-48099D02*
X-31106Y-56465D01*
X29671Y44234D02*
X30351Y43559D01*
X-17643Y-66589D02*
X-17635Y-66591D01*
X-29588Y-55268D02*
X-29588Y-55268D01*
X-34642Y-64100D02*
Y-64069D01*
X16595Y55785D02*
X16611Y55775D01*
X-58988Y21363D02*
X-58987D01*
X-49509Y-48216D02*
X-49509Y-48216D01*
X-58988Y21363D02*
X-58988Y21363D01*
X-56377Y-18269D02*
X-56371Y-18292D01*
X-49255Y-38903D02*
X-49128Y-39029D01*
X-53691Y23544D02*
X-53691Y23544D01*
X57135Y-12728D02*
X57842Y-12021D01*
X22835Y54698D02*
X22891Y54675D01*
X-21547Y55861D02*
X-21376Y55916D01*
X-50342Y-31946D02*
X-50342D01*
X-40393Y47998D02*
Y47998D01*
X-49202Y30722D02*
X-49202Y30722D01*
X31965Y49589D02*
X35267Y46287D01*
X-46900Y-30891D02*
X-46899Y-30896D01*
X-46826Y-31078D02*
X-46735Y-31265D01*
X-46828Y-31074D02*
X-46826Y-31078D01*
X24089Y-74137D02*
X24214Y-74012D01*
X73412Y25023D02*
X73412Y25023D01*
X24086Y-74143D02*
X24089Y-74137D01*
X24067Y-74177D02*
X24086Y-74143D01*
X826Y52933D02*
X826Y52933D01*
X-53302Y-6969D02*
X-53302Y-4892D01*
X-52434Y-12184D02*
Y-8122D01*
X-39130Y41533D02*
X-39130D01*
X11206Y50983D02*
Y50983D01*
X31122Y42744D02*
X31122Y42744D01*
X-6831Y53507D02*
X-4075Y53507D01*
X22747Y48080D02*
X22747Y48080D01*
X30355Y43555D02*
X30950Y42959D01*
X-40330Y37628D02*
X-40060Y38727D01*
X-6981Y53498D02*
X-6943Y53502D01*
X2800Y52890D02*
X2800Y52890D01*
X-53302Y1045D02*
Y2351D01*
X74512Y24210D02*
X74512D01*
X74512Y24210D02*
X74512Y24210D01*
X73412Y25023D02*
X73412D01*
X-28611Y51114D02*
X-28599Y51123D01*
X-7292Y57085D02*
X-7208Y57095D01*
X-7352Y57079D02*
Y57079D01*
X-47595Y29737D02*
X-47583Y29749D01*
X-30797Y50187D02*
X-30784Y50192D01*
X-40745Y-49372D02*
X-32379Y-57738D01*
X24273Y51899D02*
X24833Y51338D01*
X57142Y-3498D02*
X57142Y-3498D01*
X-56200Y10514D02*
X-56098Y10631D01*
X11919Y52640D02*
X11977Y52612D01*
X16449Y51366D02*
Y51366D01*
X-6573Y55307D02*
X-3852Y55307D01*
X-7089Y55296D02*
X-7015Y55305D01*
X-7164Y55289D02*
X-7138Y55291D01*
X-13451Y54294D02*
X-13434Y54297D01*
X-14430Y54082D02*
X-14387Y54089D01*
X-14430Y54082D02*
X-14430Y54082D01*
X-20007Y52574D02*
X-19986Y52581D01*
X-20316Y52424D02*
X-20316Y52424D01*
X-27774Y49506D02*
X-27774Y49506D01*
X-30036Y48555D02*
Y48555D01*
X-31651Y47992D02*
X-31651Y47992D01*
X-33216Y47376D02*
X-33216Y47376D01*
X-38533Y44710D02*
X-38533Y44710D01*
X-40464Y43011D02*
X-39079Y44396D01*
X-40464Y43011D02*
X-40464Y43011D01*
X-42079Y38052D02*
X-41767Y39320D01*
X-42691Y36019D02*
X-42691Y35907D01*
X-43550Y33059D02*
X-43550Y33059D01*
X-49422Y23591D02*
X-49399Y23614D01*
X-54514Y9707D02*
X-54504Y9718D01*
X-54809Y9031D02*
X-54795Y9114D01*
X-54809Y9031D02*
X-54809Y9031D01*
X-54447Y7959D02*
X-54447Y7959D01*
X-55144Y-7131D02*
Y-7131D01*
X23885Y52243D02*
X23885Y52243D01*
X-52983Y3165D02*
X-52983Y3165D01*
X11234Y50968D02*
X11234Y50968D01*
X-61164Y34205D02*
X-61164Y34205D01*
X-34798Y62277D02*
Y62277D01*
X-55460Y-37703D02*
X-55460Y-37703D01*
X53509Y35970D02*
X54139Y35339D01*
X-30078Y58385D02*
X-30078Y58385D01*
X-51982Y-45557D02*
X-51978Y-45576D01*
X36260Y53558D02*
X38350Y52082D01*
X-55024Y-40771D02*
X-55017Y-40778D01*
X42001Y47814D02*
X42001Y47814D01*
X42672Y47098D02*
X42682Y47078D01*
X-53297Y-42498D02*
X-53286Y-42508D01*
X-51974Y-45592D02*
X-51950Y-45688D01*
X-50391Y-50021D02*
X-50391Y-50021D01*
X-40438Y61723D02*
X-40413Y61738D01*
X-61607Y-19623D02*
X-61607Y-19623D01*
X-30839Y-63112D02*
X-26709Y-67242D01*
X14112Y59171D02*
X15249Y58895D01*
X-14826Y59523D02*
X-14826Y59523D01*
X15249Y58895D02*
X15265Y58891D01*
X-42612Y-59067D02*
X-42605Y-59074D01*
X23728Y60167D02*
Y60167D01*
X52961Y36283D02*
X52961Y36283D01*
X-47208Y-54470D02*
X-42612Y-59067D01*
X38537Y51943D02*
X38537Y51943D01*
X-51930Y-45761D02*
X-51930Y-45761D01*
X-49583Y45222D02*
X-49145Y47001D01*
X31577Y56447D02*
X32548Y55892D01*
X-51448Y39197D02*
X-51042Y39723D01*
X-52710Y-43747D02*
X-52710Y-43747D01*
X44655Y45109D02*
X49428Y40336D01*
X-49629Y44789D02*
X-49615Y45011D01*
X-55290Y-35455D02*
Y-35050D01*
X-55454Y-37237D02*
X-55453Y-37224D01*
X23687Y60182D02*
X23687Y60182D01*
X-55036Y-40758D02*
X-55024Y-40771D01*
X-61519Y-19968D02*
X-61415Y-20286D01*
X-55380Y-39917D02*
Y-39055D01*
X32548Y55892D02*
X32565Y55882D01*
X-55468Y-37524D02*
X-55462Y-37333D01*
X52562Y34370D02*
X52562Y34370D01*
X-29258Y56702D02*
X-29245Y56703D01*
X-41816Y51485D02*
X-41816Y51485D01*
X33901Y52743D02*
X34051Y52593D01*
X30310Y54233D02*
X30310Y54233D01*
X52731Y34202D02*
X52731Y34202D01*
X-29660Y56603D02*
X-29660Y56603D01*
X-47092Y46753D02*
X-43033Y50812D01*
X34051Y52593D02*
X38274Y48370D01*
X52568Y34365D02*
X52721Y34212D01*
X-52695Y32998D02*
X-52668Y33002D01*
X38550Y47943D02*
X38556Y47926D01*
X-23366Y59050D02*
X-23346Y59057D01*
X40496Y46148D02*
X40824Y45820D01*
X23157Y58459D02*
X23172Y58453D01*
X-47791Y44971D02*
X-47518Y46080D01*
X-49079Y39739D02*
X-48557Y41859D01*
X-50021Y38100D02*
X-49613Y38629D01*
X-50478Y37482D02*
X-50036Y38080D01*
X-50644Y36370D02*
X-50644Y36370D01*
X54651Y-29550D02*
X56256Y-27945D01*
X-57805Y24379D02*
X-56500Y27268D01*
X-58156Y23491D02*
X-58077Y23638D01*
X-50205Y-45241D02*
X-50183Y-45320D01*
X-53490Y-35455D02*
Y-35051D01*
X-53229Y-40020D02*
X-51661Y-41588D01*
X-41914Y-56616D02*
X-41808Y-56651D01*
X-45717Y-52473D02*
X-45717Y-52473D01*
X-45700Y-52632D01*
X-48821Y-48745D02*
X-48821Y-48745D01*
X-45358Y-53353D02*
X-42382Y-56328D01*
X-58456Y22506D02*
X-58428Y22682D01*
X-62319Y-7767D02*
X-62319D01*
X-62720Y-2743D02*
Y2346D01*
X-62710Y-2982D02*
X-62332Y-7642D01*
X-53580Y-39172D02*
Y-39055D01*
X-59769Y-19512D02*
X-59708Y-19714D01*
X-54465Y-31421D02*
X-54465Y-31421D01*
X-48515Y37106D02*
X-48189Y37528D01*
X-36784Y53805D02*
X-36784Y53805D01*
X-55891Y28151D02*
X-55740Y28302D01*
X49761Y39701D02*
X49761D01*
X40312Y50361D02*
X40312Y50361D01*
X29117Y57754D02*
X29131Y57747D01*
X29188Y57718D02*
X31501Y56488D01*
X-70077Y-468D02*
X-70077Y471D01*
X38071Y-62035D02*
X39014Y-61092D01*
X59688Y36720D02*
X60690Y37722D01*
X60721Y37755D02*
X60781Y37819D01*
X-39803Y61901D02*
X-38381D01*
X-57164Y40607D02*
X-57164Y40607D01*
X-60855Y-34751D02*
X-60846Y-34768D01*
X-30307Y63898D02*
X-30211D01*
X-54509Y49458D02*
X-54509Y49458D01*
X-46291Y35907D02*
Y36821D01*
X-34199Y-59334D02*
X-30382Y-61244D01*
X-32833Y51406D02*
X-32833Y51406D01*
X-29655Y52645D02*
X-29276Y52824D01*
X-29939Y60284D02*
Y60284D01*
X22891Y54675D02*
X24222Y54103D01*
X16883Y55524D02*
X16900Y55502D01*
X-56304Y-18530D02*
X-56298Y-18550D01*
X-56276Y-18619D02*
X-56276Y-18619D01*
X-40408Y47995D02*
X-40408Y47995D01*
X-58744Y6882D02*
X-58744Y-7350D01*
X-45078Y40804D02*
X-45078D01*
X-57148Y13592D02*
X-56671Y14069D01*
X-29594Y-61812D02*
X-29583Y-61823D01*
X-47574Y-41844D02*
X-47574Y-41844D01*
X-30095Y52438D02*
X-29655Y52645D01*
X-45579Y38898D02*
X-45173Y40548D01*
D64*
X-22817Y-27065D02*
X-16732Y-33149D01*
Y-41133D02*
Y-33149D01*
X-22817Y-27065D02*
X-22817D01*
X-16535Y27559D02*
Y32446D01*
X-27407Y16688D02*
X-16535Y27559D01*
X-27559Y14961D02*
X-27407Y15113D01*
Y16688D01*
D68*
X52458Y8121D02*
D03*
X56561Y-4154D02*
D03*
X56471Y-21226D02*
D03*
X54037Y40498D02*
D03*
X40945Y48819D02*
D03*
X45161Y47757D02*
D03*
X47599Y-45328D02*
D03*
X54651Y-29550D02*
D03*
X50867Y-38723D02*
D03*
X18898Y57087D02*
D03*
X13508Y56694D02*
D03*
X5333Y56427D02*
D03*
X-66434Y-29857D02*
D03*
X-74759Y-24344D02*
D03*
X787Y-72638D02*
D03*
X38071Y-62035D02*
D03*
X34480Y-56267D02*
D03*
X43996Y-50984D02*
D03*
X66434Y29857D02*
D03*
X4921Y-72146D02*
D03*
X29857Y-66434D02*
D03*
X-7040Y-73325D02*
D03*
X-34550Y-64192D02*
D03*
X-16732Y-41133D02*
D03*
X-39665Y21161D02*
D03*
X-42028Y19291D02*
D03*
X-45079Y18996D02*
D03*
X-43701Y16535D02*
D03*
X-40945D02*
D03*
X-38976Y18504D02*
D03*
X-46457Y16535D02*
D03*
X-37008Y20472D02*
D03*
X-25908Y-68452D02*
D03*
X-16433Y-71605D02*
D03*
X74512Y24210D02*
D03*
X24089Y-74137D02*
D03*
X-56194Y6101D02*
D03*
X-1152Y54918D02*
D03*
X54831Y1376D02*
D03*
X-54394Y-1924D02*
D03*
X-4075Y52757D02*
D03*
X-52434Y-8122D02*
D03*
X-24147Y74316D02*
D03*
X57126Y-12738D02*
D03*
X-55909Y22285D02*
D03*
X30310Y54233D02*
D03*
X-54324Y29865D02*
D03*
X-53050Y35523D02*
D03*
X-42605Y-59073D02*
D03*
X-29857Y66434D02*
D03*
X61004Y38164D02*
D03*
X-38381Y61901D02*
D03*
X-61901Y-38381D02*
D03*
X-52168Y44399D02*
D03*
X-41874Y57635D02*
D03*
X-56671Y14069D02*
D03*
X-50044Y-52920D02*
D03*
X-56282Y-46230D02*
D03*
D69*
X29134Y31890D02*
D03*
X25591Y33071D02*
D03*
X-6004Y-30610D02*
D03*
X197Y-30709D02*
D03*
X-2756Y-30610D02*
D03*
X0Y-39370D02*
D03*
X-17224Y-25295D02*
D03*
X21626Y-65847D02*
D03*
X-13655Y40309D02*
D03*
X-22817Y-27065D02*
D03*
X18406Y-64862D02*
D03*
X18209Y-69193D02*
D03*
X-29331Y43898D02*
D03*
X-80315Y-32677D02*
D03*
X-37402Y1575D02*
D03*
X-31890Y-9843D02*
D03*
X-29921Y-15748D02*
D03*
X-33858Y-3937D02*
D03*
X-33465Y5512D02*
D03*
X37795Y-25591D02*
D03*
X26378Y-19685D02*
D03*
X33465Y-7874D02*
D03*
X35433Y5512D02*
D03*
X31496Y17717D02*
D03*
X23622Y23622D02*
D03*
X15748Y29528D02*
D03*
X-11811D02*
D03*
X-3150Y39764D02*
D03*
X-2756Y47244D02*
D03*
X-25984Y37402D02*
D03*
X-24016Y38583D02*
D03*
X-16535Y32446D02*
D03*
X-27165Y44882D02*
D03*
X-27953Y-42913D02*
D03*
X-49213Y-5906D02*
D03*
X-48228Y-16732D02*
D03*
X-33071Y-44882D02*
D03*
X33465Y-46260D02*
D03*
X18701Y-48228D02*
D03*
X31890Y-80315D02*
D03*
X21555Y-68405D02*
D03*
X19488Y-67126D02*
D03*
X-9449Y33465D02*
D03*
X3937Y39370D02*
D03*
Y47244D02*
D03*
X15748Y-47244D02*
D03*
X-31102Y80709D02*
D03*
X80709Y31102D02*
D03*
X52362Y-24409D02*
D03*
X52756Y-7874D02*
D03*
X-49213Y-11811D02*
D03*
X32677Y-63779D02*
D03*
X-24409Y-39370D02*
D03*
X33590Y-15906D02*
D03*
X0Y-47244D02*
D03*
X19685Y-45276D02*
D03*
X3937Y-43307D02*
D03*
X-3937D02*
D03*
X3937Y-51181D02*
D03*
X0Y-55118D02*
D03*
X-3937Y-51181D02*
D03*
X-7874Y-47244D02*
D03*
X7874D02*
D03*
X41339Y-45669D02*
D03*
X-37795Y-42520D02*
D03*
X38583Y17717D02*
D03*
X-36220Y36220D02*
D03*
Y39370D02*
D03*
X-22441Y25984D02*
D03*
X-29528Y24409D02*
D03*
X-11243Y43272D02*
D03*
X-27559Y14961D02*
D03*
X-26575Y-48917D02*
D03*
X-24705Y-50492D02*
D03*
X-28839Y-49705D02*
D03*
X-27067Y-51279D02*
D03*
X-25295Y-52854D02*
D03*
X-20768Y-56791D02*
D03*
X-23130Y-55413D02*
D03*
D71*
X-43023Y-37951D02*
D03*
X-51186Y-16775D02*
D03*
D72*
X-4191Y36220D02*
X27559D01*
X29134Y31890D02*
Y34646D01*
X27559Y36220D02*
X29134Y34646D01*
X24016D02*
X25591Y33071D01*
X-4724Y34646D02*
X24016D01*
X-10388Y40309D02*
X-4724Y34646D01*
X-13655Y40309D02*
X-10388D01*
X-11243Y43272D02*
X-4191Y36220D01*
M02*
