G04*
G04 #@! TF.GenerationSoftware,Altium Limited,Altium Designer,21.9.2 (33)*
G04*
G04 Layer_Physical_Order=1*
G04 Layer_Color=255*
%FSLAX25Y25*%
%MOIN*%
G70*
G04*
G04 #@! TF.SameCoordinates,566D7FF9-8C5A-44BD-93FD-671ACA51C2D0*
G04*
G04*
G04 #@! TF.FilePolarity,Positive*
G04*
G01*
G75*
G04:AMPARAMS|DCode=12|XSize=33.47mil|YSize=31.5mil|CornerRadius=3.94mil|HoleSize=0mil|Usage=FLASHONLY|Rotation=270.000|XOffset=0mil|YOffset=0mil|HoleType=Round|Shape=RoundedRectangle|*
%AMROUNDEDRECTD12*
21,1,0.03347,0.02362,0,0,270.0*
21,1,0.02559,0.03150,0,0,270.0*
1,1,0.00787,-0.01181,-0.01280*
1,1,0.00787,-0.01181,0.01280*
1,1,0.00787,0.01181,0.01280*
1,1,0.00787,0.01181,-0.01280*
%
%ADD12ROUNDEDRECTD12*%
G04:AMPARAMS|DCode=13|XSize=33.47mil|YSize=31.5mil|CornerRadius=3.94mil|HoleSize=0mil|Usage=FLASHONLY|Rotation=292.500|XOffset=0mil|YOffset=0mil|HoleType=Round|Shape=RoundedRectangle|*
%AMROUNDEDRECTD13*
21,1,0.03347,0.02362,0,0,292.5*
21,1,0.02559,0.03150,0,0,292.5*
1,1,0.00787,-0.00602,-0.01634*
1,1,0.00787,-0.01581,0.00730*
1,1,0.00787,0.00602,0.01634*
1,1,0.00787,0.01581,-0.00730*
%
%ADD13ROUNDEDRECTD13*%
G04:AMPARAMS|DCode=14|XSize=33.47mil|YSize=31.5mil|CornerRadius=3.94mil|HoleSize=0mil|Usage=FLASHONLY|Rotation=300.000|XOffset=0mil|YOffset=0mil|HoleType=Round|Shape=RoundedRectangle|*
%AMROUNDEDRECTD14*
21,1,0.03347,0.02362,0,0,300.0*
21,1,0.02559,0.03150,0,0,300.0*
1,1,0.00787,-0.00383,-0.01699*
1,1,0.00787,-0.01663,0.00518*
1,1,0.00787,0.00383,0.01699*
1,1,0.00787,0.01663,-0.00518*
%
%ADD14ROUNDEDRECTD14*%
G04:AMPARAMS|DCode=15|XSize=33.47mil|YSize=31.5mil|CornerRadius=3.94mil|HoleSize=0mil|Usage=FLASHONLY|Rotation=307.500|XOffset=0mil|YOffset=0mil|HoleType=Round|Shape=RoundedRectangle|*
%AMROUNDEDRECTD15*
21,1,0.03347,0.02362,0,0,307.5*
21,1,0.02559,0.03150,0,0,307.5*
1,1,0.00787,-0.00158,-0.01734*
1,1,0.00787,-0.01716,0.00296*
1,1,0.00787,0.00158,0.01734*
1,1,0.00787,0.01716,-0.00296*
%
%ADD15ROUNDEDRECTD15*%
G04:AMPARAMS|DCode=16|XSize=33.47mil|YSize=31.5mil|CornerRadius=3.94mil|HoleSize=0mil|Usage=FLASHONLY|Rotation=315.000|XOffset=0mil|YOffset=0mil|HoleType=Round|Shape=RoundedRectangle|*
%AMROUNDEDRECTD16*
21,1,0.03347,0.02362,0,0,315.0*
21,1,0.02559,0.03150,0,0,315.0*
1,1,0.00787,0.00070,-0.01740*
1,1,0.00787,-0.01740,0.00070*
1,1,0.00787,-0.00070,0.01740*
1,1,0.00787,0.01740,-0.00070*
%
%ADD16ROUNDEDRECTD16*%
G04:AMPARAMS|DCode=17|XSize=33.47mil|YSize=31.5mil|CornerRadius=3.94mil|HoleSize=0mil|Usage=FLASHONLY|Rotation=322.500|XOffset=0mil|YOffset=0mil|HoleType=Round|Shape=RoundedRectangle|*
%AMROUNDEDRECTD17*
21,1,0.03347,0.02362,0,0,322.5*
21,1,0.02559,0.03150,0,0,322.5*
1,1,0.00787,0.00296,-0.01716*
1,1,0.00787,-0.01734,-0.00158*
1,1,0.00787,-0.00296,0.01716*
1,1,0.00787,0.01734,0.00158*
%
%ADD17ROUNDEDRECTD17*%
G04:AMPARAMS|DCode=18|XSize=33.47mil|YSize=31.5mil|CornerRadius=3.94mil|HoleSize=0mil|Usage=FLASHONLY|Rotation=330.000|XOffset=0mil|YOffset=0mil|HoleType=Round|Shape=RoundedRectangle|*
%AMROUNDEDRECTD18*
21,1,0.03347,0.02362,0,0,330.0*
21,1,0.02559,0.03150,0,0,330.0*
1,1,0.00787,0.00518,-0.01663*
1,1,0.00787,-0.01699,-0.00383*
1,1,0.00787,-0.00518,0.01663*
1,1,0.00787,0.01699,0.00383*
%
%ADD18ROUNDEDRECTD18*%
G04:AMPARAMS|DCode=19|XSize=33.47mil|YSize=31.5mil|CornerRadius=3.94mil|HoleSize=0mil|Usage=FLASHONLY|Rotation=337.500|XOffset=0mil|YOffset=0mil|HoleType=Round|Shape=RoundedRectangle|*
%AMROUNDEDRECTD19*
21,1,0.03347,0.02362,0,0,337.5*
21,1,0.02559,0.03150,0,0,337.5*
1,1,0.00787,0.00730,-0.01581*
1,1,0.00787,-0.01634,-0.00602*
1,1,0.00787,-0.00730,0.01581*
1,1,0.00787,0.01634,0.00602*
%
%ADD19ROUNDEDRECTD19*%
G04:AMPARAMS|DCode=20|XSize=33.47mil|YSize=31.5mil|CornerRadius=3.94mil|HoleSize=0mil|Usage=FLASHONLY|Rotation=345.000|XOffset=0mil|YOffset=0mil|HoleType=Round|Shape=RoundedRectangle|*
%AMROUNDEDRECTD20*
21,1,0.03347,0.02362,0,0,345.0*
21,1,0.02559,0.03150,0,0,345.0*
1,1,0.00787,0.00930,-0.01472*
1,1,0.00787,-0.01542,-0.00810*
1,1,0.00787,-0.00930,0.01472*
1,1,0.00787,0.01542,0.00810*
%
%ADD20ROUNDEDRECTD20*%
G04:AMPARAMS|DCode=21|XSize=33.47mil|YSize=31.5mil|CornerRadius=3.94mil|HoleSize=0mil|Usage=FLASHONLY|Rotation=352.500|XOffset=0mil|YOffset=0mil|HoleType=Round|Shape=RoundedRectangle|*
%AMROUNDEDRECTD21*
21,1,0.03347,0.02362,0,0,352.5*
21,1,0.02559,0.03150,0,0,352.5*
1,1,0.00787,0.01114,-0.01338*
1,1,0.00787,-0.01423,-0.01004*
1,1,0.00787,-0.01114,0.01338*
1,1,0.00787,0.01423,0.01004*
%
%ADD21ROUNDEDRECTD21*%
G04:AMPARAMS|DCode=22|XSize=33.47mil|YSize=31.5mil|CornerRadius=3.94mil|HoleSize=0mil|Usage=FLASHONLY|Rotation=0.000|XOffset=0mil|YOffset=0mil|HoleType=Round|Shape=RoundedRectangle|*
%AMROUNDEDRECTD22*
21,1,0.03347,0.02362,0,0,0.0*
21,1,0.02559,0.03150,0,0,0.0*
1,1,0.00787,0.01280,-0.01181*
1,1,0.00787,-0.01280,-0.01181*
1,1,0.00787,-0.01280,0.01181*
1,1,0.00787,0.01280,0.01181*
%
%ADD22ROUNDEDRECTD22*%
G04:AMPARAMS|DCode=23|XSize=33.47mil|YSize=31.5mil|CornerRadius=3.94mil|HoleSize=0mil|Usage=FLASHONLY|Rotation=7.500|XOffset=0mil|YOffset=0mil|HoleType=Round|Shape=RoundedRectangle|*
%AMROUNDEDRECTD23*
21,1,0.03347,0.02362,0,0,7.5*
21,1,0.02559,0.03150,0,0,7.5*
1,1,0.00787,0.01423,-0.01004*
1,1,0.00787,-0.01114,-0.01338*
1,1,0.00787,-0.01423,0.01004*
1,1,0.00787,0.01114,0.01338*
%
%ADD23ROUNDEDRECTD23*%
G04:AMPARAMS|DCode=24|XSize=33.47mil|YSize=31.5mil|CornerRadius=3.94mil|HoleSize=0mil|Usage=FLASHONLY|Rotation=15.000|XOffset=0mil|YOffset=0mil|HoleType=Round|Shape=RoundedRectangle|*
%AMROUNDEDRECTD24*
21,1,0.03347,0.02362,0,0,15.0*
21,1,0.02559,0.03150,0,0,15.0*
1,1,0.00787,0.01542,-0.00810*
1,1,0.00787,-0.00930,-0.01472*
1,1,0.00787,-0.01542,0.00810*
1,1,0.00787,0.00930,0.01472*
%
%ADD24ROUNDEDRECTD24*%
G04:AMPARAMS|DCode=25|XSize=33.47mil|YSize=31.5mil|CornerRadius=3.94mil|HoleSize=0mil|Usage=FLASHONLY|Rotation=22.500|XOffset=0mil|YOffset=0mil|HoleType=Round|Shape=RoundedRectangle|*
%AMROUNDEDRECTD25*
21,1,0.03347,0.02362,0,0,22.5*
21,1,0.02559,0.03150,0,0,22.5*
1,1,0.00787,0.01634,-0.00602*
1,1,0.00787,-0.00730,-0.01581*
1,1,0.00787,-0.01634,0.00602*
1,1,0.00787,0.00730,0.01581*
%
%ADD25ROUNDEDRECTD25*%
G04:AMPARAMS|DCode=26|XSize=33.47mil|YSize=31.5mil|CornerRadius=3.94mil|HoleSize=0mil|Usage=FLASHONLY|Rotation=30.000|XOffset=0mil|YOffset=0mil|HoleType=Round|Shape=RoundedRectangle|*
%AMROUNDEDRECTD26*
21,1,0.03347,0.02362,0,0,30.0*
21,1,0.02559,0.03150,0,0,30.0*
1,1,0.00787,0.01699,-0.00383*
1,1,0.00787,-0.00518,-0.01663*
1,1,0.00787,-0.01699,0.00383*
1,1,0.00787,0.00518,0.01663*
%
%ADD26ROUNDEDRECTD26*%
G04:AMPARAMS|DCode=27|XSize=33.47mil|YSize=31.5mil|CornerRadius=3.94mil|HoleSize=0mil|Usage=FLASHONLY|Rotation=37.500|XOffset=0mil|YOffset=0mil|HoleType=Round|Shape=RoundedRectangle|*
%AMROUNDEDRECTD27*
21,1,0.03347,0.02362,0,0,37.5*
21,1,0.02559,0.03150,0,0,37.5*
1,1,0.00787,0.01734,-0.00158*
1,1,0.00787,-0.00296,-0.01716*
1,1,0.00787,-0.01734,0.00158*
1,1,0.00787,0.00296,0.01716*
%
%ADD27ROUNDEDRECTD27*%
G04:AMPARAMS|DCode=28|XSize=33.47mil|YSize=31.5mil|CornerRadius=3.94mil|HoleSize=0mil|Usage=FLASHONLY|Rotation=45.000|XOffset=0mil|YOffset=0mil|HoleType=Round|Shape=RoundedRectangle|*
%AMROUNDEDRECTD28*
21,1,0.03347,0.02362,0,0,45.0*
21,1,0.02559,0.03150,0,0,45.0*
1,1,0.00787,0.01740,0.00070*
1,1,0.00787,-0.00070,-0.01740*
1,1,0.00787,-0.01740,-0.00070*
1,1,0.00787,0.00070,0.01740*
%
%ADD28ROUNDEDRECTD28*%
G04:AMPARAMS|DCode=29|XSize=33.47mil|YSize=31.5mil|CornerRadius=3.94mil|HoleSize=0mil|Usage=FLASHONLY|Rotation=52.500|XOffset=0mil|YOffset=0mil|HoleType=Round|Shape=RoundedRectangle|*
%AMROUNDEDRECTD29*
21,1,0.03347,0.02362,0,0,52.5*
21,1,0.02559,0.03150,0,0,52.5*
1,1,0.00787,0.01716,0.00296*
1,1,0.00787,0.00158,-0.01734*
1,1,0.00787,-0.01716,-0.00296*
1,1,0.00787,-0.00158,0.01734*
%
%ADD29ROUNDEDRECTD29*%
G04:AMPARAMS|DCode=30|XSize=33.47mil|YSize=31.5mil|CornerRadius=3.94mil|HoleSize=0mil|Usage=FLASHONLY|Rotation=60.000|XOffset=0mil|YOffset=0mil|HoleType=Round|Shape=RoundedRectangle|*
%AMROUNDEDRECTD30*
21,1,0.03347,0.02362,0,0,60.0*
21,1,0.02559,0.03150,0,0,60.0*
1,1,0.00787,0.01663,0.00518*
1,1,0.00787,0.00383,-0.01699*
1,1,0.00787,-0.01663,-0.00518*
1,1,0.00787,-0.00383,0.01699*
%
%ADD30ROUNDEDRECTD30*%
G04:AMPARAMS|DCode=31|XSize=33.47mil|YSize=31.5mil|CornerRadius=3.94mil|HoleSize=0mil|Usage=FLASHONLY|Rotation=67.500|XOffset=0mil|YOffset=0mil|HoleType=Round|Shape=RoundedRectangle|*
%AMROUNDEDRECTD31*
21,1,0.03347,0.02362,0,0,67.5*
21,1,0.02559,0.03150,0,0,67.5*
1,1,0.00787,0.01581,0.00730*
1,1,0.00787,0.00602,-0.01634*
1,1,0.00787,-0.01581,-0.00730*
1,1,0.00787,-0.00602,0.01634*
%
%ADD31ROUNDEDRECTD31*%
G04:AMPARAMS|DCode=32|XSize=33.47mil|YSize=31.5mil|CornerRadius=3.94mil|HoleSize=0mil|Usage=FLASHONLY|Rotation=75.000|XOffset=0mil|YOffset=0mil|HoleType=Round|Shape=RoundedRectangle|*
%AMROUNDEDRECTD32*
21,1,0.03347,0.02362,0,0,75.0*
21,1,0.02559,0.03150,0,0,75.0*
1,1,0.00787,0.01472,0.00930*
1,1,0.00787,0.00810,-0.01542*
1,1,0.00787,-0.01472,-0.00930*
1,1,0.00787,-0.00810,0.01542*
%
%ADD32ROUNDEDRECTD32*%
G04:AMPARAMS|DCode=33|XSize=33.47mil|YSize=31.5mil|CornerRadius=3.94mil|HoleSize=0mil|Usage=FLASHONLY|Rotation=82.500|XOffset=0mil|YOffset=0mil|HoleType=Round|Shape=RoundedRectangle|*
%AMROUNDEDRECTD33*
21,1,0.03347,0.02362,0,0,82.5*
21,1,0.02559,0.03150,0,0,82.5*
1,1,0.00787,0.01338,0.01114*
1,1,0.00787,0.01004,-0.01423*
1,1,0.00787,-0.01338,-0.01114*
1,1,0.00787,-0.01004,0.01423*
%
%ADD33ROUNDEDRECTD33*%
G04:AMPARAMS|DCode=34|XSize=33.47mil|YSize=31.5mil|CornerRadius=3.94mil|HoleSize=0mil|Usage=FLASHONLY|Rotation=97.500|XOffset=0mil|YOffset=0mil|HoleType=Round|Shape=RoundedRectangle|*
%AMROUNDEDRECTD34*
21,1,0.03347,0.02362,0,0,97.5*
21,1,0.02559,0.03150,0,0,97.5*
1,1,0.00787,0.01004,0.01423*
1,1,0.00787,0.01338,-0.01114*
1,1,0.00787,-0.01004,-0.01423*
1,1,0.00787,-0.01338,0.01114*
%
%ADD34ROUNDEDRECTD34*%
G04:AMPARAMS|DCode=35|XSize=33.47mil|YSize=31.5mil|CornerRadius=3.94mil|HoleSize=0mil|Usage=FLASHONLY|Rotation=105.000|XOffset=0mil|YOffset=0mil|HoleType=Round|Shape=RoundedRectangle|*
%AMROUNDEDRECTD35*
21,1,0.03347,0.02362,0,0,105.0*
21,1,0.02559,0.03150,0,0,105.0*
1,1,0.00787,0.00810,0.01542*
1,1,0.00787,0.01472,-0.00930*
1,1,0.00787,-0.00810,-0.01542*
1,1,0.00787,-0.01472,0.00930*
%
%ADD35ROUNDEDRECTD35*%
%ADD62C,0.01221*%
%ADD63C,0.01200*%
%ADD64C,0.01500*%
%ADD65C,0.00800*%
%ADD66C,0.55118*%
%ADD67C,0.19685*%
%ADD68C,0.02400*%
%ADD69C,0.02700*%
%ADD70C,0.03200*%
%ADD71C,0.02559*%
G36*
X78791Y89522D02*
X80761Y89049D01*
X82632Y88274D01*
X84360Y87215D01*
X85900Y85900D01*
X87215Y84360D01*
X88274Y82632D01*
X89049Y80761D01*
X89522Y78791D01*
X89681Y76772D01*
X89522Y74752D01*
X89049Y72782D01*
X88274Y70911D01*
X87215Y69184D01*
X86226Y68026D01*
X85899Y67664D01*
X85620Y67415D01*
X85538Y67322D01*
X83548Y65096D01*
X81749Y62560D01*
X80245Y59838D01*
X79055Y56966D01*
X78194Y53977D01*
X77673Y50912D01*
X77499Y47807D01*
X77673Y44702D01*
X78194Y41637D01*
X79055Y38649D01*
X79123Y38485D01*
X79298Y38032D01*
X79298Y38032D01*
X79503Y37581D01*
X81277Y33666D01*
X83305Y28278D01*
X84976Y22769D01*
X86283Y17163D01*
X87221Y11483D01*
X87785Y5754D01*
X87973Y0D01*
X87785Y-5754D01*
X87221Y-11483D01*
X86283Y-17163D01*
X84976Y-22769D01*
X83305Y-28278D01*
X81277Y-33666D01*
X79299Y-38032D01*
X79299D01*
X79273Y-38121D01*
X79273Y-38121D01*
X79055Y-38649D01*
X78194Y-41637D01*
X77673Y-44702D01*
X77499Y-47807D01*
X77673Y-50912D01*
X78194Y-53977D01*
X79055Y-56966D01*
X80245Y-59838D01*
X81749Y-62560D01*
X83548Y-65096D01*
X85538Y-67322D01*
X85620Y-67415D01*
X85899Y-67664D01*
X86226Y-68026D01*
X87215Y-69184D01*
X88274Y-70911D01*
X89049Y-72782D01*
X89522Y-74752D01*
X89681Y-76772D01*
X89522Y-78791D01*
X89049Y-80761D01*
X88274Y-82632D01*
X87215Y-84360D01*
X85900Y-85900D01*
X84360Y-87215D01*
X82632Y-88274D01*
X80761Y-89049D01*
X78791Y-89522D01*
X76772Y-89681D01*
X74752Y-89522D01*
X72782Y-89049D01*
X70911Y-88274D01*
X69184Y-87215D01*
X68026Y-86226D01*
X67664Y-85899D01*
X67415Y-85620D01*
X67322Y-85538D01*
X65096Y-83548D01*
X62560Y-81749D01*
X59838Y-80245D01*
X56966Y-79055D01*
X53977Y-78194D01*
X50912Y-77673D01*
X48002Y-77510D01*
X47799Y-77038D01*
X47799Y-77006D01*
X47913Y-76892D01*
X48210Y-76175D01*
Y-75400D01*
X47913Y-74683D01*
X47364Y-74134D01*
X46648Y-73837D01*
X46513Y-73337D01*
X48272Y-72244D01*
X50884Y-70372D01*
X50984Y-70328D01*
X51057Y-70250D01*
X51146Y-70191D01*
X51155Y-70177D01*
X52893Y-68932D01*
X57288Y-65325D01*
X59682Y-63083D01*
X59781Y-63020D01*
X59790Y-63007D01*
X59804Y-62998D01*
X59856Y-62920D01*
X61438Y-61438D01*
X65325Y-57288D01*
X67321Y-54856D01*
X67368Y-54825D01*
X67398Y-54779D01*
X67441Y-54745D01*
X67499Y-54639D01*
X68932Y-52893D01*
X72244Y-48272D01*
X73926Y-45567D01*
X73999Y-45491D01*
X74040Y-45388D01*
X74101Y-45296D01*
X74105Y-45279D01*
X75246Y-43443D01*
X77926Y-38429D01*
X79166Y-35694D01*
X79381Y-35254D01*
X79383Y-35252D01*
D01*
X79400Y-35226D01*
X79400Y-35225D01*
X79401Y-35224D01*
X79407Y-35193D01*
X79573Y-34795D01*
X80320Y-33147D01*
X82426Y-27550D01*
X82685Y-26697D01*
X82671Y-26692D01*
X82746Y-26311D01*
X82739Y-26273D01*
X82759Y-26117D01*
X82653Y-25311D01*
X82342Y-24559D01*
X81847Y-23914D01*
X81202Y-23419D01*
X81107Y-22941D01*
X81154Y-22764D01*
X81180Y-22370D01*
X81071Y-22047D01*
X81064Y-21954D01*
X81192Y-21478D01*
X81489Y-21217D01*
X81664Y-20863D01*
X82181Y-18932D01*
X82447Y-18501D01*
X83223D01*
X83940Y-18204D01*
X84488Y-17655D01*
X84785Y-16939D01*
Y-16163D01*
X84488Y-15446D01*
X83940Y-14898D01*
X83223Y-14601D01*
X83152Y-14101D01*
X83165Y-13999D01*
X84098Y-13613D01*
X85025Y-12902D01*
X85737Y-11975D01*
X86054Y-11207D01*
X86059Y-11196D01*
X86059Y-11196D01*
X86172Y-10923D01*
X86202Y-10746D01*
X86202D01*
X86231Y-10451D01*
X86231Y-10450D01*
X86233Y-10432D01*
X86701Y-5683D01*
X86763Y-3790D01*
X87086Y-3467D01*
X87383Y-2750D01*
Y-1974D01*
X87086Y-1258D01*
X86853Y-1025D01*
X86887Y0D01*
X86701Y5683D01*
X86391Y8823D01*
X86402Y8879D01*
X86391Y8934D01*
X86397Y8990D01*
X86364Y9104D01*
X86143Y11341D01*
X85217Y16951D01*
X84472Y20145D01*
X84468Y20261D01*
X84427Y20350D01*
X84408Y20445D01*
X84399Y20458D01*
X83926Y22488D01*
X82276Y27929D01*
X81148Y30926D01*
X81131Y31033D01*
X81117Y31056D01*
X81112Y31083D01*
X81059Y31163D01*
X80273Y33250D01*
X77926Y38429D01*
X76450Y41191D01*
X76439Y41247D01*
X76410Y41290D01*
X76396Y41340D01*
X76319Y41437D01*
X75246Y43443D01*
X72244Y48272D01*
X70262Y51037D01*
X70205Y51152D01*
X70145Y51204D01*
X70100Y51271D01*
X70089Y51279D01*
X68866Y52986D01*
X67267Y54934D01*
X67638Y55270D01*
X68740Y54168D01*
X68740Y54168D01*
X68740Y54165D01*
X68736Y54161D01*
X69523Y53557D01*
X70250Y53255D01*
X70445Y53175D01*
X70713Y53096D01*
X70790Y53027D01*
X71077Y52769D01*
X71278Y52567D01*
Y51974D01*
X71575Y51258D01*
X72124Y50709D01*
X72840Y50412D01*
X73616D01*
X74333Y50709D01*
X74882Y51258D01*
X75178Y51974D01*
Y52750D01*
X74882Y53467D01*
X74333Y54015D01*
X73616Y54312D01*
X73023D01*
X72626Y54709D01*
X72602Y54851D01*
X72616Y55191D01*
X72679Y55354D01*
X73087Y55763D01*
X73384Y56479D01*
Y57255D01*
X73087Y57972D01*
X72539Y58520D01*
X71822Y58817D01*
X71229D01*
X67653Y62394D01*
X67542Y62504D01*
X67542Y62505D01*
X67542Y62509D01*
X67556Y62523D01*
X67300Y62717D01*
X67170Y62822D01*
X66939Y63019D01*
X66779Y63116D01*
X65186Y64093D01*
X64819Y64317D01*
X64762Y64341D01*
X64676Y64387D01*
X62876Y65132D01*
X62551Y65267D01*
X62413Y65316D01*
X61936Y65465D01*
X60987Y65859D01*
X58798Y66384D01*
X56553Y66561D01*
X55967Y66515D01*
X55916Y66525D01*
X55798Y66501D01*
X55184Y66453D01*
X54953Y66435D01*
X54717Y66652D01*
X54610Y66866D01*
X54604Y66899D01*
X54658Y67027D01*
X54787Y68012D01*
X54658Y68996D01*
X54278Y69913D01*
X53673Y70701D01*
X52886Y71305D01*
X51968Y71685D01*
X51811Y71706D01*
X51496Y72252D01*
X51630Y72576D01*
Y73351D01*
X51333Y74068D01*
X50785Y74617D01*
X50068Y74914D01*
X49292D01*
X48576Y74617D01*
X48027Y74068D01*
X47730Y73351D01*
Y73095D01*
X47293Y72852D01*
X45428Y74012D01*
X45336Y74094D01*
X45254Y74123D01*
X45181Y74172D01*
X45167Y74174D01*
X43443Y75246D01*
X38429Y77926D01*
X35502Y79252D01*
X35414Y79317D01*
X35388Y79323D01*
X35367Y79337D01*
X35274Y79356D01*
X33250Y80273D01*
X27929Y82276D01*
X24855Y83208D01*
X24809Y83239D01*
X24745Y83252D01*
X24687Y83282D01*
X24579Y83292D01*
X22488Y83926D01*
X16951Y85217D01*
X13791Y85739D01*
X13690Y85778D01*
X13582Y85776D01*
X13476Y85797D01*
X13460Y85794D01*
X11341Y86143D01*
X5683Y86701D01*
X2499Y86805D01*
X2396Y86831D01*
X2367Y86826D01*
X2338Y86832D01*
X2243Y86813D01*
X0Y86887D01*
X-5683Y86701D01*
X-8981Y86376D01*
X-9033Y86386D01*
X-9114Y86370D01*
X-9196Y86375D01*
X-9280Y86346D01*
X-11454Y86132D01*
X-17355Y85158D01*
X-18058Y84994D01*
X-18507Y84876D01*
X-18507Y84876D01*
X-18507Y84876D01*
X-18859Y84655D01*
X-19079Y84493D01*
X-19088Y84480D01*
X-19247Y84358D01*
X-19407Y84235D01*
X-19902Y83590D01*
X-20213Y82839D01*
X-20319Y82033D01*
X-20319Y82032D01*
X-20686Y81711D01*
X-20863Y81664D01*
X-21217Y81489D01*
X-21478Y81192D01*
X-21954Y81064D01*
X-22047Y81071D01*
X-22370Y81180D01*
X-22764Y81154D01*
X-25046Y80543D01*
X-25401Y80368D01*
X-25661Y80071D01*
X-25788Y79697D01*
X-25762Y79302D01*
X-25100Y76830D01*
X-24925Y76476D01*
X-24628Y76215D01*
X-24254Y76088D01*
X-23859Y76114D01*
X-23765Y76139D01*
X-23481Y75769D01*
X-22714Y75181D01*
X-22391Y75047D01*
X-22425Y74520D01*
X-23365Y74268D01*
X-23719Y74093D01*
X-23980Y73796D01*
X-24107Y73422D01*
X-24081Y73027D01*
X-23419Y70556D01*
X-23244Y70201D01*
X-22947Y69940D01*
X-22572Y69813D01*
X-22228Y69836D01*
X-20785Y64481D01*
X-23690Y63515D01*
X-25473Y62776D01*
X-25780Y63190D01*
X-25531Y63494D01*
X-24927Y64624D01*
X-24555Y65850D01*
X-24429Y67126D01*
X-24555Y68401D01*
X-24744Y69026D01*
X-24592Y69128D01*
X-24372Y69456D01*
X-24295Y69844D01*
X-24372Y70232D01*
X-25352Y72596D01*
X-25571Y72925D01*
X-25900Y73144D01*
X-26287Y73222D01*
X-26675Y73144D01*
X-28858Y72241D01*
X-29186Y72021D01*
X-29406Y71692D01*
X-29901Y71487D01*
X-30289Y71564D01*
X-30676Y71487D01*
X-31898Y70981D01*
X-32210Y71393D01*
X-31840Y72287D01*
X-31731Y73119D01*
X-31407Y73252D01*
X-31079Y73472D01*
X-30859Y73801D01*
X-30364Y74006D01*
X-29976Y73929D01*
X-29589Y74006D01*
X-27406Y74910D01*
X-27078Y75129D01*
X-26858Y75458D01*
X-26781Y75846D01*
X-26858Y76233D01*
X-27837Y78598D01*
X-28057Y78926D01*
X-28386Y79146D01*
X-28773Y79223D01*
X-29161Y79146D01*
X-29459Y79023D01*
X-30260Y79638D01*
X-31340Y80085D01*
X-32498Y80237D01*
X-33319Y80129D01*
X-33333Y80128D01*
X-33333Y80127D01*
X-33626Y80089D01*
X-33626Y80089D01*
X-33795Y80026D01*
Y80026D01*
X-38429Y77926D01*
X-41312Y76385D01*
X-41365Y76375D01*
X-41428Y76333D01*
X-41499Y76309D01*
X-41573Y76246D01*
X-43443Y75246D01*
X-45763Y73804D01*
X-46076Y74198D01*
X-45591Y74683D01*
X-45294Y75400D01*
Y76175D01*
X-45591Y76892D01*
X-45809Y77110D01*
X-45614Y77622D01*
X-44702Y77673D01*
X-41637Y78194D01*
X-38649Y79055D01*
X-38485Y79123D01*
X-38032Y79298D01*
X-38032Y79298D01*
X-37581Y79503D01*
X-33666Y81277D01*
X-28278Y83305D01*
X-22769Y84976D01*
X-17163Y86283D01*
X-11483Y87221D01*
X-5754Y87785D01*
X0Y87973D01*
X5754Y87785D01*
X11483Y87221D01*
X17163Y86283D01*
X22769Y84976D01*
X28278Y83305D01*
X33666Y81277D01*
X38032Y79299D01*
Y79299D01*
X38121Y79273D01*
X38121Y79273D01*
X38649Y79055D01*
X41637Y78194D01*
X44702Y77673D01*
X47807Y77499D01*
X50912Y77673D01*
X53977Y78194D01*
X56966Y79055D01*
X59838Y80245D01*
X62560Y81749D01*
X65096Y83548D01*
X67322Y85538D01*
X67415Y85620D01*
X67664Y85899D01*
X68026Y86226D01*
X69184Y87215D01*
X70911Y88274D01*
X72782Y89049D01*
X74752Y89522D01*
X76772Y89681D01*
X78791Y89522D01*
D02*
G37*
G36*
X723Y65291D02*
X980Y65277D01*
X1216Y65264D01*
X1216Y65264D01*
X1216Y65264D01*
X1217Y65263D01*
X1551Y64898D01*
X1876Y64474D01*
X3056Y63569D01*
X4431Y62999D01*
X5906Y62805D01*
X7380Y62999D01*
X8755Y63569D01*
X9582Y64203D01*
X9935Y64474D01*
X9972Y64509D01*
X10444Y64445D01*
X13884Y63824D01*
X18402Y62671D01*
X22826Y61199D01*
X27134Y59414D01*
X31303Y57327D01*
X35313Y54948D01*
X39143Y52289D01*
X42773Y49363D01*
X44105Y48123D01*
X43830Y47696D01*
X43585Y47797D01*
X42810D01*
X42093Y47501D01*
X41544Y46952D01*
X41247Y46235D01*
Y45459D01*
X41544Y44743D01*
X42093Y44194D01*
X42810Y43897D01*
X43585D01*
X44302Y44194D01*
X44851Y44743D01*
X45147Y45459D01*
Y46235D01*
X44989Y46617D01*
X45410Y46909D01*
X46186Y46186D01*
X49363Y42773D01*
X52289Y39143D01*
X54948Y35313D01*
X57327Y31303D01*
X59414Y27134D01*
X61199Y22826D01*
X62671Y18402D01*
X63824Y13884D01*
X64162Y12013D01*
X64084Y11927D01*
X63397Y11907D01*
X63228Y12075D01*
X62512Y12372D01*
X61736D01*
X61019Y12075D01*
X60471Y11527D01*
X60174Y10810D01*
Y10034D01*
X60471Y9318D01*
X61019Y8769D01*
X61736Y8472D01*
X62512D01*
X63228Y8769D01*
X63777Y9318D01*
X64030Y9928D01*
X64536Y9939D01*
X64652Y9296D01*
X65150Y4660D01*
X65315Y65D01*
X65302Y0D01*
X65315Y-65D01*
X65150Y-4660D01*
X64652Y-9296D01*
X63824Y-13884D01*
X62671Y-18402D01*
X61199Y-22826D01*
X59414Y-27134D01*
X57327Y-31303D01*
X54948Y-35313D01*
X52289Y-39143D01*
X49363Y-42773D01*
X46186Y-46186D01*
X42773Y-49363D01*
X42028Y-49964D01*
X41615Y-49654D01*
X41822Y-49155D01*
Y-48379D01*
X41525Y-47662D01*
X40977Y-47114D01*
X40260Y-46817D01*
X39484D01*
X38767Y-47114D01*
X38219Y-47662D01*
X37922Y-48379D01*
Y-49155D01*
X38219Y-49872D01*
X38767Y-50420D01*
X39484Y-50717D01*
X40260D01*
X40335Y-50686D01*
X40593Y-51120D01*
X39143Y-52289D01*
X35313Y-54948D01*
X31303Y-57327D01*
X27134Y-59414D01*
X26803Y-59551D01*
X26337Y-59726D01*
X26069Y-59834D01*
X25882Y-59934D01*
X24313Y-60773D01*
X22774Y-62036D01*
X21510Y-63575D01*
X20572Y-65331D01*
X19994Y-67237D01*
X19983Y-67350D01*
X19955Y-67361D01*
X19407Y-67910D01*
X19110Y-68627D01*
Y-69402D01*
X19407Y-70119D01*
X19594Y-70307D01*
X19542Y-70625D01*
X19281Y-70922D01*
X18805Y-71050D01*
X18712Y-71044D01*
X18389Y-70934D01*
X18089Y-70954D01*
X17506Y-69862D01*
X16624Y-68788D01*
X15551Y-67907D01*
X14325Y-67252D01*
X12996Y-66849D01*
X11613Y-66713D01*
X11565Y-66717D01*
X11088Y-66729D01*
X11088D01*
Y-66729D01*
X9632Y-66992D01*
X9616Y-66993D01*
X9268Y-66528D01*
X9430Y-66136D01*
Y-65360D01*
X9133Y-64643D01*
X8585Y-64095D01*
X7868Y-63798D01*
X7092D01*
X6376Y-64095D01*
X5827Y-64643D01*
X5530Y-65360D01*
Y-66136D01*
X5827Y-66853D01*
X5912Y-66938D01*
X5746Y-67409D01*
X4828Y-67508D01*
X0Y-67681D01*
X-4828Y-67508D01*
X-9632Y-66992D01*
X-10848Y-66772D01*
X-10848Y-66772D01*
X-11049Y-66772D01*
X-11954D01*
X-12444Y-66746D01*
X-12941Y-66734D01*
X-13882Y-66641D01*
X-14410Y-66694D01*
X-14637Y-66213D01*
X-14292Y-65868D01*
X-13995Y-65152D01*
Y-64376D01*
X-14292Y-63659D01*
X-14840Y-63111D01*
X-15557Y-62814D01*
X-16333D01*
X-17050Y-63111D01*
X-17323Y-63384D01*
X-17695Y-63012D01*
X-18411Y-62715D01*
X-19187D01*
X-19904Y-63012D01*
X-20082Y-63190D01*
X-20299Y-62972D01*
X-21016Y-62675D01*
X-21792D01*
X-22509Y-62972D01*
X-23057Y-63521D01*
X-23235Y-63949D01*
X-23807Y-64025D01*
X-24200Y-63513D01*
X-25123Y-62805D01*
X-26197Y-62360D01*
X-26697Y-62294D01*
X-27160Y-62208D01*
X-27497Y-61912D01*
X-27862Y-61669D01*
X-27895Y-61647D01*
X-27897Y-61646D01*
X-27898Y-61646D01*
X-27926Y-61640D01*
X-28284Y-61480D01*
X-32436Y-59402D01*
X-35794Y-57409D01*
X-36591Y-56937D01*
X-40123Y-54484D01*
X-40137Y-54502D01*
X-40383Y-54337D01*
X-40450Y-54324D01*
X-41441Y-54023D01*
X-42717Y-53898D01*
X-43992Y-54023D01*
X-45219Y-54395D01*
X-46349Y-55000D01*
X-47339Y-55813D01*
X-47434Y-55928D01*
X-47570Y-55861D01*
X-47965Y-55835D01*
X-48339Y-55962D01*
X-48636Y-56223D01*
X-50194Y-58253D01*
X-50369Y-58608D01*
X-50395Y-59002D01*
X-50268Y-59376D01*
X-50007Y-59674D01*
X-48133Y-61112D01*
X-47779Y-61286D01*
X-47384Y-61312D01*
X-46959Y-61638D01*
X-46832Y-62013D01*
X-46572Y-62310D01*
X-45559Y-63087D01*
X-45568Y-63223D01*
X-45723Y-63591D01*
X-46682Y-63718D01*
X-47457Y-64039D01*
X-47735Y-63826D01*
X-48089Y-63651D01*
X-48484Y-63625D01*
X-48909Y-63299D01*
X-49036Y-62925D01*
X-49296Y-62628D01*
X-51170Y-61190D01*
X-51525Y-61015D01*
X-51920Y-60989D01*
X-52294Y-61116D01*
X-52591Y-61377D01*
X-54149Y-63407D01*
X-54324Y-63761D01*
X-54350Y-64156D01*
X-54223Y-64530D01*
X-53962Y-64827D01*
X-53707Y-65023D01*
X-53838Y-66025D01*
X-53686Y-67183D01*
X-53239Y-68263D01*
X-52726Y-68931D01*
X-52546Y-69166D01*
X-52546Y-69166D01*
X-52407Y-69280D01*
X-52166Y-69453D01*
X-52166Y-69453D01*
X-52151Y-69464D01*
X-48272Y-72244D01*
X-47950Y-72444D01*
X-47996Y-73004D01*
X-48349Y-73150D01*
X-48897Y-73699D01*
X-49194Y-74415D01*
Y-75191D01*
X-48897Y-75908D01*
X-48349Y-76456D01*
X-47632Y-76753D01*
X-46856D01*
X-46139Y-76456D01*
X-45591Y-75908D01*
X-45294Y-75191D01*
Y-74684D01*
X-44799Y-74403D01*
X-43443Y-75246D01*
X-38429Y-77926D01*
X-35502Y-79252D01*
X-35414Y-79317D01*
X-35388Y-79323D01*
X-35367Y-79337D01*
X-35274Y-79356D01*
X-33250Y-80273D01*
X-27929Y-82276D01*
X-24855Y-83208D01*
X-24809Y-83239D01*
X-24745Y-83252D01*
X-24687Y-83282D01*
X-24579Y-83292D01*
X-22488Y-83926D01*
X-16951Y-85217D01*
X-13791Y-85739D01*
X-13690Y-85778D01*
X-13582Y-85776D01*
X-13476Y-85797D01*
X-13460Y-85794D01*
X-11341Y-86143D01*
X-5683Y-86701D01*
X-3935Y-86758D01*
X-3442Y-87251D01*
X-3156Y-87370D01*
X-3263Y-87866D01*
X-5754Y-87785D01*
X-11483Y-87221D01*
X-17163Y-86283D01*
X-22769Y-84976D01*
X-28278Y-83305D01*
X-33666Y-81277D01*
X-38032Y-79299D01*
Y-79299D01*
X-38121Y-79273D01*
X-38121Y-79273D01*
X-38649Y-79055D01*
X-41637Y-78194D01*
X-44702Y-77673D01*
X-47807Y-77499D01*
X-50912Y-77673D01*
X-53977Y-78194D01*
X-56966Y-79055D01*
X-59838Y-80245D01*
X-62560Y-81749D01*
X-65096Y-83548D01*
X-67322Y-85538D01*
X-67415Y-85620D01*
X-67664Y-85899D01*
X-68026Y-86226D01*
X-69184Y-87215D01*
X-70911Y-88274D01*
X-72782Y-89049D01*
X-74752Y-89522D01*
X-76772Y-89681D01*
X-78791Y-89522D01*
X-80761Y-89049D01*
X-82632Y-88274D01*
X-84360Y-87215D01*
X-85900Y-85900D01*
X-87215Y-84360D01*
X-88274Y-82632D01*
X-89049Y-80761D01*
X-89522Y-78791D01*
X-89681Y-76772D01*
X-89522Y-74752D01*
X-89049Y-72782D01*
X-88274Y-70911D01*
X-87215Y-69184D01*
X-86226Y-68026D01*
X-85899Y-67664D01*
X-85620Y-67415D01*
X-85538Y-67322D01*
X-83548Y-65096D01*
X-81749Y-62560D01*
X-80245Y-59838D01*
X-79055Y-56966D01*
X-78194Y-53977D01*
X-77673Y-50912D01*
X-77499Y-47807D01*
X-77673Y-44702D01*
X-78194Y-41637D01*
X-79055Y-38649D01*
X-79123Y-38485D01*
X-79298Y-38032D01*
X-79298Y-38032D01*
X-79503Y-37581D01*
X-81277Y-33666D01*
X-83305Y-28278D01*
X-84976Y-22769D01*
X-85304Y-21359D01*
X-84837Y-21162D01*
X-84373Y-21626D01*
X-84101Y-21739D01*
X-83926Y-22488D01*
X-82276Y-27929D01*
X-81148Y-30926D01*
X-81131Y-31033D01*
X-81117Y-31056D01*
X-81112Y-31083D01*
X-81059Y-31163D01*
X-80273Y-33250D01*
X-77926Y-38429D01*
X-76450Y-41191D01*
X-76439Y-41247D01*
X-76410Y-41290D01*
X-76396Y-41340D01*
X-76319Y-41436D01*
X-75246Y-43443D01*
X-72244Y-48272D01*
X-70262Y-51037D01*
X-70205Y-51152D01*
X-70145Y-51204D01*
X-70100Y-51271D01*
X-70089Y-51279D01*
X-68866Y-52986D01*
X-65072Y-57609D01*
X-64463Y-58259D01*
X-64463D01*
X-64434Y-58281D01*
X-64415Y-58309D01*
X-64255Y-58416D01*
X-64253Y-58417D01*
X-63998Y-58613D01*
X-63836Y-58680D01*
X-63246Y-58924D01*
X-62440Y-59030D01*
X-61634Y-58924D01*
X-60883Y-58613D01*
X-60421Y-58770D01*
X-60292Y-58900D01*
X-59963Y-59119D01*
X-59575Y-59196D01*
X-59196Y-59575D01*
X-59119Y-59963D01*
X-58900Y-60292D01*
X-57229Y-61962D01*
X-56901Y-62182D01*
X-56513Y-62259D01*
X-56125Y-62182D01*
X-55796Y-61962D01*
X-53987Y-60152D01*
X-53767Y-59824D01*
X-53690Y-59436D01*
X-53767Y-59048D01*
X-53987Y-58719D01*
X-54056Y-58651D01*
X-53878Y-58220D01*
X-53751Y-57262D01*
X-53797Y-56915D01*
X-53323Y-56681D01*
X-52636Y-57368D01*
X-52307Y-57588D01*
X-51920Y-57665D01*
X-51532Y-57588D01*
X-51203Y-57368D01*
X-49393Y-55559D01*
X-49174Y-55230D01*
X-49097Y-54843D01*
X-49174Y-54455D01*
X-49358Y-54180D01*
X-48884Y-53603D01*
X-48031Y-52006D01*
X-47505Y-50273D01*
X-47439Y-49604D01*
X-46929Y-49528D01*
X-46929Y-49530D01*
X-46380Y-50078D01*
X-45663Y-50375D01*
X-44888D01*
X-44171Y-50078D01*
X-43622Y-49530D01*
X-43326Y-48813D01*
Y-48037D01*
X-43622Y-47321D01*
X-44171Y-46772D01*
X-44888Y-46475D01*
X-45663D01*
X-46380Y-46772D01*
X-46929Y-47321D01*
X-46937Y-47340D01*
X-47446Y-47264D01*
X-47505Y-46669D01*
X-48031Y-44936D01*
X-48884Y-43339D01*
X-49092Y-43086D01*
X-49104Y-43060D01*
X-49232Y-42906D01*
X-49287Y-42842D01*
X-49287Y-42842D01*
X-49289Y-42841D01*
X-49560Y-42529D01*
X-52289Y-39143D01*
X-54948Y-35313D01*
X-57327Y-31303D01*
X-59414Y-27134D01*
X-61199Y-22826D01*
X-62671Y-18402D01*
X-63824Y-13884D01*
X-64247Y-11540D01*
X-64174Y-11466D01*
X-63484Y-11460D01*
X-63299Y-11644D01*
X-62583Y-11941D01*
X-61807D01*
X-61090Y-11644D01*
X-60542Y-11096D01*
X-60245Y-10379D01*
Y-9603D01*
X-60542Y-8887D01*
X-61090Y-8338D01*
X-61807Y-8041D01*
X-62583D01*
X-63299Y-8338D01*
X-63848Y-8887D01*
X-64105Y-9509D01*
X-64511Y-9540D01*
X-64611Y-9522D01*
X-64652Y-9296D01*
X-65150Y-4660D01*
X-65317Y0D01*
X-65150Y4660D01*
X-64652Y9296D01*
X-63824Y13884D01*
X-63503Y15143D01*
X-62671Y18402D01*
X-61199Y22826D01*
X-59414Y27134D01*
X-57327Y31303D01*
X-54948Y35313D01*
X-52289Y39143D01*
X-49363Y42773D01*
X-46186Y46186D01*
X-44447Y47805D01*
X-44447Y47805D01*
X-44052Y47892D01*
X-43986Y47906D01*
X-43385Y47986D01*
X-42434Y48379D01*
X-41934Y48052D01*
X-41637Y47336D01*
X-41089Y46787D01*
X-40372Y46490D01*
X-39596D01*
X-38880Y46787D01*
X-38331Y47336D01*
X-38034Y48052D01*
Y48828D01*
X-38331Y49545D01*
X-38880Y50093D01*
X-39522Y50359D01*
X-39610Y50421D01*
X-39821Y50890D01*
X-39508Y51646D01*
X-39355Y52015D01*
X-39334Y52093D01*
X-39292Y52130D01*
X-38971Y52407D01*
X-38954Y52420D01*
X-35313Y54948D01*
X-31303Y57327D01*
X-27134Y59414D01*
X-22826Y61199D01*
X-18402Y62671D01*
X-13884Y63824D01*
X-9296Y64652D01*
X-4660Y65150D01*
X0Y65317D01*
X723Y65291D01*
D02*
G37*
G36*
X-74752Y89522D02*
X-72782Y89049D01*
X-70911Y88274D01*
X-69184Y87215D01*
X-68026Y86226D01*
X-67664Y85899D01*
X-67415Y85620D01*
X-67322Y85538D01*
X-65096Y83548D01*
X-62560Y81749D01*
X-59838Y80245D01*
X-56966Y79055D01*
X-53977Y78194D01*
X-50912Y77673D01*
X-48934Y77562D01*
X-48739Y77050D01*
X-48897Y76892D01*
X-49194Y76175D01*
Y75400D01*
X-48897Y74683D01*
X-48349Y74134D01*
X-47632Y73837D01*
X-46856D01*
X-46255Y74086D01*
X-46026Y73640D01*
X-48272Y72244D01*
X-50884Y70372D01*
X-50984Y70328D01*
X-51057Y70250D01*
X-51146Y70191D01*
X-51155Y70177D01*
X-52893Y68932D01*
X-57288Y65325D01*
X-59682Y63083D01*
X-59781Y63021D01*
X-59790Y63007D01*
X-59804Y62998D01*
X-59856Y62920D01*
X-61438Y61438D01*
X-65325Y57288D01*
X-67321Y54856D01*
X-67368Y54825D01*
X-67398Y54779D01*
X-67441Y54745D01*
X-67499Y54639D01*
X-68932Y52893D01*
X-72244Y48272D01*
X-73926Y45567D01*
X-73999Y45491D01*
X-74040Y45388D01*
X-74101Y45296D01*
X-74105Y45279D01*
X-75246Y43443D01*
X-77926Y38429D01*
X-79166Y35694D01*
X-79383Y35252D01*
X-79383Y35252D01*
X-79383Y35252D01*
X-79400Y35226D01*
X-79400Y35225D01*
X-79401Y35224D01*
X-79407Y35194D01*
X-79573Y34795D01*
X-80320Y33147D01*
X-82427Y27550D01*
X-82685Y26697D01*
X-82671Y26692D01*
X-82746Y26311D01*
X-82739Y26273D01*
X-82759Y26117D01*
X-82666Y25411D01*
X-82994Y25275D01*
X-83543Y24727D01*
X-83840Y24010D01*
Y23234D01*
X-83543Y22517D01*
X-82994Y21969D01*
X-82278Y21672D01*
X-81729D01*
X-81582Y21394D01*
X-81511Y21172D01*
X-81664Y20863D01*
X-82230Y18750D01*
X-82275Y18700D01*
X-82620Y18512D01*
X-82783Y18479D01*
X-83274Y18682D01*
X-84049D01*
X-84766Y18385D01*
X-85315Y17837D01*
X-85611Y17120D01*
Y16344D01*
X-85315Y15628D01*
X-84766Y15079D01*
X-84049Y14782D01*
X-83556D01*
X-83223Y14394D01*
X-83298Y13945D01*
X-84098Y13613D01*
X-85025Y12902D01*
X-85737Y11975D01*
X-86054Y11207D01*
X-86059Y11196D01*
X-86059Y11196D01*
X-86172Y10923D01*
X-86202Y10746D01*
X-86202D01*
X-86231Y10451D01*
X-86231Y10450D01*
X-86233Y10432D01*
X-86701Y5683D01*
X-86810Y2336D01*
X-86835Y2216D01*
X-86834Y2209D01*
X-86835Y2203D01*
X-86818Y2113D01*
X-86887Y0D01*
X-86701Y-5683D01*
X-86391Y-8823D01*
X-86402Y-8879D01*
X-86391Y-8934D01*
X-86397Y-8989D01*
X-86364Y-9104D01*
X-86143Y-11341D01*
X-85217Y-16951D01*
X-84799Y-18746D01*
X-84921Y-18868D01*
X-85210Y-19565D01*
X-85249Y-19580D01*
X-85724Y-19561D01*
X-86283Y-17163D01*
X-87221Y-11483D01*
X-87785Y-5754D01*
X-87973Y0D01*
X-87785Y5754D01*
X-87221Y11483D01*
X-86283Y17163D01*
X-84976Y22769D01*
X-83305Y28278D01*
X-81277Y33666D01*
X-79299Y38032D01*
X-79299D01*
X-79273Y38121D01*
X-79273Y38121D01*
X-79055Y38649D01*
X-78194Y41637D01*
X-77673Y44702D01*
X-77499Y47807D01*
X-77673Y50912D01*
X-78194Y53977D01*
X-79055Y56966D01*
X-80245Y59838D01*
X-81749Y62560D01*
X-83548Y65096D01*
X-85538Y67322D01*
X-85620Y67415D01*
X-85899Y67664D01*
X-86226Y68026D01*
X-87215Y69184D01*
X-88274Y70911D01*
X-89049Y72782D01*
X-89522Y74752D01*
X-89681Y76772D01*
X-89522Y78791D01*
X-89049Y80761D01*
X-88274Y82632D01*
X-87215Y84360D01*
X-85900Y85900D01*
X-84360Y87215D01*
X-82632Y88274D01*
X-80761Y89049D01*
X-78791Y89522D01*
X-76772Y89681D01*
X-74752Y89522D01*
D02*
G37*
%LPC*%
G36*
X77593Y87214D02*
X75950D01*
X74326Y86957D01*
X72763Y86449D01*
X71299Y85703D01*
X69969Y84737D01*
X68806Y83574D01*
X67840Y82245D01*
X67094Y80780D01*
X66586Y79217D01*
X66329Y77593D01*
Y75950D01*
X66586Y74326D01*
X67094Y72763D01*
X67840Y71299D01*
X68806Y69969D01*
X69969Y68806D01*
X71299Y67840D01*
X72763Y67094D01*
X74326Y66586D01*
X75950Y66329D01*
X77593D01*
X79217Y66586D01*
X80780Y67094D01*
X82245Y67840D01*
X83574Y68806D01*
X84737Y69969D01*
X85703Y71299D01*
X86449Y72763D01*
X86957Y74326D01*
X87214Y75950D01*
Y77593D01*
X86957Y79217D01*
X86449Y80780D01*
X85703Y82245D01*
X84737Y83574D01*
X83574Y84737D01*
X82245Y85703D01*
X80780Y86449D01*
X79217Y86957D01*
X77593Y87214D01*
D02*
G37*
G36*
Y-66329D02*
X75950D01*
X74326Y-66586D01*
X72763Y-67094D01*
X71299Y-67840D01*
X69969Y-68806D01*
X68806Y-69969D01*
X67840Y-71299D01*
X67094Y-72763D01*
X66586Y-74326D01*
X66329Y-75950D01*
Y-77593D01*
X66586Y-79217D01*
X67094Y-80780D01*
X67840Y-82245D01*
X68806Y-83574D01*
X69969Y-84737D01*
X71299Y-85703D01*
X72763Y-86449D01*
X74326Y-86957D01*
X75950Y-87214D01*
X77593D01*
X79217Y-86957D01*
X80780Y-86449D01*
X82245Y-85703D01*
X83574Y-84737D01*
X84737Y-83574D01*
X85703Y-82245D01*
X86449Y-80780D01*
X86957Y-79217D01*
X87214Y-77593D01*
Y-75950D01*
X86957Y-74326D01*
X86449Y-72763D01*
X85703Y-71299D01*
X84737Y-69969D01*
X83574Y-68806D01*
X82245Y-67840D01*
X80780Y-67094D01*
X79217Y-66586D01*
X77593Y-66329D01*
D02*
G37*
G36*
X-9651Y61399D02*
X-10427D01*
X-11144Y61102D01*
X-11693Y60553D01*
X-11989Y59837D01*
Y59061D01*
X-11693Y58344D01*
X-11462Y58114D01*
X-11670Y57614D01*
X-16333D01*
X-16388Y57603D01*
X-17104Y57899D01*
X-17880D01*
X-18596Y57603D01*
X-19145Y57054D01*
X-19442Y56337D01*
Y55562D01*
X-19145Y54845D01*
X-18596Y54296D01*
X-17880Y54000D01*
X-17104D01*
X-16387Y54296D01*
X-15839Y54845D01*
X-15542Y55562D01*
Y55575D01*
X11108D01*
X11422Y55075D01*
X11239Y54632D01*
Y53857D01*
X11536Y53140D01*
X12084Y52591D01*
X12801Y52294D01*
X13577D01*
X14294Y52591D01*
X14842Y53140D01*
X15139Y53857D01*
Y54632D01*
X14956Y55075D01*
X15270Y55575D01*
X19921D01*
X20112Y55113D01*
X20084Y55085D01*
X19749Y54276D01*
Y53401D01*
X20084Y52592D01*
X20703Y51973D01*
X21511Y51639D01*
X22386D01*
X23195Y51973D01*
X23814Y52592D01*
X24149Y53401D01*
Y53579D01*
X24611Y53770D01*
X26251Y52130D01*
X26251Y52130D01*
Y51414D01*
X26525Y50752D01*
X27032Y50246D01*
X27693Y49972D01*
X28409D01*
X29071Y50246D01*
X29577Y50752D01*
X29711Y51074D01*
X30301Y51192D01*
X32115Y49378D01*
X32445Y49156D01*
X32836Y49079D01*
X33120D01*
X33120Y49079D01*
X33626Y48572D01*
X34288Y48298D01*
X35004D01*
X35665Y48572D01*
X36172Y49079D01*
X36446Y49740D01*
Y50457D01*
X36172Y51118D01*
X35665Y51624D01*
X35004Y51898D01*
X34288D01*
X33626Y51624D01*
X33189Y51187D01*
X29683Y54693D01*
X29353Y54914D01*
X28962Y54991D01*
X28537D01*
X24245Y59284D01*
X23914Y59505D01*
X23524Y59583D01*
X-8089D01*
Y59837D01*
X-8386Y60553D01*
X-8935Y61102D01*
X-9651Y61399D01*
D02*
G37*
G36*
X5209Y54880D02*
X4433D01*
X3717Y54584D01*
X3168Y54035D01*
X2871Y53318D01*
Y52543D01*
X3168Y51826D01*
X3717Y51277D01*
X4433Y50981D01*
X5209D01*
X5926Y51277D01*
X6474Y51826D01*
X6771Y52543D01*
Y53318D01*
X6474Y54035D01*
X5926Y54584D01*
X5209Y54880D01*
D02*
G37*
G36*
X-20552Y54074D02*
X-21427D01*
X-22236Y53739D01*
X-22855Y53120D01*
X-23190Y52312D01*
Y51437D01*
X-22855Y50628D01*
X-22236Y50009D01*
X-21427Y49674D01*
X-20552D01*
X-19743Y50009D01*
X-19125Y50628D01*
X-18790Y51437D01*
Y52312D01*
X-19125Y53120D01*
X-19743Y53739D01*
X-20552Y54074D01*
D02*
G37*
G36*
X-986Y50159D02*
X-1762D01*
X-2478Y49862D01*
X-3027Y49313D01*
X-3324Y48597D01*
Y47821D01*
X-3027Y47104D01*
X-2478Y46556D01*
X-1762Y46259D01*
X-986D01*
X-269Y46556D01*
X279Y47104D01*
X576Y47821D01*
Y48597D01*
X279Y49313D01*
X-269Y49862D01*
X-986Y50159D01*
D02*
G37*
G36*
X-41832Y41821D02*
X-42608D01*
X-43325Y41524D01*
X-43873Y40976D01*
X-44170Y40259D01*
Y39483D01*
X-43873Y38767D01*
X-43325Y38218D01*
X-42608Y37921D01*
X-41832D01*
X-41115Y38218D01*
X-40567Y38767D01*
X-40270Y39483D01*
Y40259D01*
X-40567Y40976D01*
X-41115Y41524D01*
X-41832Y41821D01*
D02*
G37*
G36*
X-31075Y41939D02*
X-31950D01*
X-32759Y41604D01*
X-33378Y40985D01*
X-33713Y40177D01*
Y39302D01*
X-33378Y38493D01*
X-32759Y37874D01*
X-31950Y37539D01*
X-31075D01*
X-30266Y37874D01*
X-29647Y38493D01*
X-29313Y39302D01*
Y40177D01*
X-29647Y40985D01*
X-30266Y41604D01*
X-31075Y41939D01*
D02*
G37*
G36*
X-43056Y32569D02*
X-43831D01*
X-44548Y32272D01*
X-45097Y31724D01*
X-45393Y31007D01*
Y30231D01*
X-45097Y29515D01*
X-44548Y28966D01*
X-43831Y28669D01*
X-43056D01*
X-42339Y28966D01*
X-41790Y29515D01*
X-41493Y30231D01*
Y31007D01*
X-41790Y31724D01*
X-42339Y32272D01*
X-43056Y32569D01*
D02*
G37*
G36*
X40798Y28275D02*
X40022D01*
X39305Y27978D01*
X38757Y27430D01*
X38460Y26713D01*
Y25937D01*
X38757Y25220D01*
X39305Y24672D01*
X40022Y24375D01*
X40798D01*
X41515Y24672D01*
X42063Y25220D01*
X42360Y25937D01*
Y26713D01*
X42063Y27430D01*
X41515Y27978D01*
X40798Y28275D01*
D02*
G37*
G36*
X-41830Y25265D02*
X-42606D01*
X-43323Y24969D01*
X-43871Y24420D01*
X-44168Y23703D01*
Y22928D01*
X-43871Y22211D01*
X-43323Y21662D01*
X-42606Y21365D01*
X-41830D01*
X-41113Y21662D01*
X-40565Y22211D01*
X-40268Y22928D01*
Y23703D01*
X-40565Y24420D01*
X-41113Y24969D01*
X-41830Y25265D01*
D02*
G37*
G36*
X-55154Y26013D02*
X-55870D01*
X-56531Y25738D01*
X-57038Y25232D01*
X-57312Y24570D01*
Y23854D01*
X-57173Y23519D01*
X-57421Y23416D01*
X-57928Y22910D01*
X-58202Y22248D01*
Y21532D01*
X-57928Y20871D01*
X-57421Y20364D01*
X-56760Y20090D01*
X-56044D01*
X-55382Y20364D01*
X-54876Y20871D01*
X-54602Y21532D01*
Y22248D01*
X-54741Y22583D01*
X-54492Y22686D01*
X-53986Y23193D01*
X-53712Y23854D01*
Y24570D01*
X-53986Y25232D01*
X-54492Y25738D01*
X-55154Y26013D01*
D02*
G37*
G36*
X48813Y23604D02*
X48037D01*
X47321Y23307D01*
X46772Y22758D01*
X46475Y22041D01*
Y21266D01*
X46772Y20549D01*
X47321Y20000D01*
X48037Y19703D01*
X48813D01*
X49530Y20000D01*
X50078Y20549D01*
X50375Y21266D01*
Y22041D01*
X50078Y22758D01*
X49530Y23307D01*
X48813Y23604D01*
D02*
G37*
G36*
X39355Y22019D02*
X38579D01*
X37863Y21723D01*
X37314Y21174D01*
X37017Y20457D01*
Y19681D01*
X37314Y18965D01*
X37863Y18416D01*
X38579Y18119D01*
X39355D01*
X40072Y18416D01*
X40620Y18965D01*
X40917Y19681D01*
Y20457D01*
X40620Y21174D01*
X40072Y21723D01*
X39355Y22019D01*
D02*
G37*
G36*
X-50875Y23505D02*
X-51591D01*
X-52252Y23231D01*
X-52759Y22725D01*
X-53033Y22063D01*
Y21347D01*
X-52893Y21010D01*
X-53105Y20922D01*
X-53611Y20416D01*
X-53885Y19755D01*
Y19038D01*
X-53611Y18377D01*
X-53105Y17871D01*
X-52443Y17596D01*
X-51727D01*
X-51065Y17871D01*
X-50559Y18377D01*
X-50285Y19038D01*
Y19755D01*
X-50425Y20092D01*
X-50213Y20179D01*
X-49707Y20686D01*
X-49433Y21347D01*
Y22063D01*
X-49707Y22725D01*
X-50213Y23231D01*
X-50875Y23505D01*
D02*
G37*
G36*
X59049Y15336D02*
X58274D01*
X57557Y15039D01*
X57008Y14490D01*
X56711Y13774D01*
Y12998D01*
X57008Y12281D01*
X57557Y11733D01*
X58274Y11436D01*
X59049D01*
X59766Y11733D01*
X60315Y12281D01*
X60611Y12998D01*
Y13774D01*
X60315Y14490D01*
X59766Y15039D01*
X59049Y15336D01*
D02*
G37*
G36*
X42514Y12580D02*
X41738D01*
X41021Y12283D01*
X40473Y11734D01*
X40176Y11018D01*
Y10242D01*
X40473Y9525D01*
X41021Y8977D01*
X41738Y8680D01*
X42514D01*
X43231Y8977D01*
X43779Y9525D01*
X44076Y10242D01*
Y11018D01*
X43779Y11734D01*
X43231Y12283D01*
X42514Y12580D01*
D02*
G37*
G36*
X-41079Y-4401D02*
X-41795D01*
X-42457Y-4675D01*
X-42963Y-5181D01*
X-43237Y-5843D01*
Y-6559D01*
X-42963Y-7220D01*
X-42457Y-7727D01*
X-41795Y-8001D01*
X-41079D01*
X-40417Y-7727D01*
X-39911Y-7220D01*
X-39637Y-6559D01*
Y-5843D01*
X-39911Y-5181D01*
X-40417Y-4675D01*
X-41079Y-4401D01*
D02*
G37*
G36*
X39728Y-6665D02*
X39012D01*
X38350Y-6939D01*
X37844Y-7445D01*
X37570Y-8106D01*
Y-8823D01*
X37844Y-9484D01*
X38350Y-9990D01*
X39012Y-10265D01*
X39728D01*
X40390Y-9990D01*
X40896Y-9484D01*
X41170Y-8823D01*
Y-8106D01*
X40896Y-7445D01*
X40390Y-6939D01*
X39728Y-6665D01*
D02*
G37*
G36*
X43301Y-11042D02*
X42526D01*
X41809Y-11339D01*
X41260Y-11888D01*
X40963Y-12604D01*
Y-13380D01*
X41260Y-14097D01*
X41809Y-14645D01*
X42526Y-14942D01*
X43301D01*
X44018Y-14645D01*
X44567Y-14097D01*
X44863Y-13380D01*
Y-12604D01*
X44567Y-11888D01*
X44018Y-11339D01*
X43301Y-11042D01*
D02*
G37*
G36*
X-55416Y-14117D02*
X-56192D01*
X-56909Y-14414D01*
X-57457Y-14962D01*
X-57754Y-15679D01*
Y-16455D01*
X-57457Y-17171D01*
X-56909Y-17720D01*
X-56192Y-18017D01*
X-55416D01*
X-54699Y-17720D01*
X-54151Y-17171D01*
X-53854Y-16455D01*
Y-15679D01*
X-54151Y-14962D01*
X-54699Y-14414D01*
X-55416Y-14117D01*
D02*
G37*
G36*
X44119Y-18386D02*
X43343D01*
X42627Y-18683D01*
X42078Y-19231D01*
X41781Y-19948D01*
Y-20724D01*
X42078Y-21441D01*
X42627Y-21989D01*
X43343Y-22286D01*
X44119D01*
X44836Y-21989D01*
X45384Y-21441D01*
X45681Y-20724D01*
Y-19948D01*
X45384Y-19231D01*
X44836Y-18683D01*
X44119Y-18386D01*
D02*
G37*
G36*
X-48258Y-19462D02*
X-49034D01*
X-49751Y-19759D01*
X-50299Y-20307D01*
X-50596Y-21024D01*
Y-21800D01*
X-50299Y-22516D01*
X-49751Y-23065D01*
X-49034Y-23362D01*
X-48258D01*
X-47541Y-23065D01*
X-46993Y-22516D01*
X-46696Y-21800D01*
Y-21024D01*
X-46993Y-20307D01*
X-47541Y-19759D01*
X-48258Y-19462D01*
D02*
G37*
G36*
X22405Y-21428D02*
X21689D01*
X21028Y-21702D01*
X20521Y-22209D01*
X20247Y-22870D01*
Y-23586D01*
X20521Y-24248D01*
X21028Y-24754D01*
X21689Y-25028D01*
X22405D01*
X23067Y-24754D01*
X23573Y-24248D01*
X23847Y-23586D01*
Y-22870D01*
X23573Y-22209D01*
X23067Y-21702D01*
X22405Y-21428D01*
D02*
G37*
G36*
X36215Y-21672D02*
X35439D01*
X34722Y-21969D01*
X34174Y-22517D01*
X33877Y-23234D01*
Y-24010D01*
X34174Y-24727D01*
X34722Y-25275D01*
X35439Y-25572D01*
X36215D01*
X36931Y-25275D01*
X37480Y-24727D01*
X37777Y-24010D01*
Y-23234D01*
X37480Y-22517D01*
X36931Y-21969D01*
X36215Y-21672D01*
D02*
G37*
G36*
X-40178Y-24134D02*
X-40954D01*
X-41670Y-24431D01*
X-42219Y-24980D01*
X-42516Y-25696D01*
Y-26472D01*
X-42219Y-27189D01*
X-41670Y-27737D01*
X-40954Y-28034D01*
X-40178D01*
X-39461Y-27737D01*
X-38913Y-27189D01*
X-38616Y-26472D01*
Y-25696D01*
X-38913Y-24980D01*
X-39461Y-24431D01*
X-40178Y-24134D01*
D02*
G37*
G36*
X1581Y28159D02*
X-1581D01*
X-4724Y27805D01*
X-7808Y27101D01*
X-10793Y26057D01*
X-13643Y24684D01*
X-16320Y23002D01*
X-18793Y21030D01*
X-21030Y18793D01*
X-23002Y16320D01*
X-24684Y13643D01*
X-26057Y10793D01*
X-27101Y7808D01*
X-27805Y4724D01*
X-28159Y1581D01*
Y-1581D01*
X-27805Y-4724D01*
X-27101Y-7808D01*
X-26057Y-10793D01*
X-24684Y-13643D01*
X-23002Y-16320D01*
X-21030Y-18793D01*
X-18793Y-21030D01*
X-16320Y-23002D01*
X-13643Y-24684D01*
X-10793Y-26057D01*
X-7808Y-27101D01*
X-4724Y-27805D01*
X-1581Y-28159D01*
X1581D01*
X4724Y-27805D01*
X7808Y-27101D01*
X10793Y-26057D01*
X13643Y-24684D01*
X16320Y-23002D01*
X18793Y-21030D01*
X21030Y-18793D01*
X23002Y-16320D01*
X24684Y-13643D01*
X26057Y-10793D01*
X27101Y-7808D01*
X27805Y-4724D01*
X28159Y-1581D01*
Y1581D01*
X27805Y4724D01*
X27101Y7808D01*
X26057Y10793D01*
X24684Y13643D01*
X23002Y16320D01*
X21030Y18793D01*
X18793Y21030D01*
X16320Y23002D01*
X13643Y24684D01*
X10793Y26057D01*
X7808Y27101D01*
X4724Y27805D01*
X1581Y28159D01*
D02*
G37*
G36*
X10230Y-28365D02*
X9455D01*
X8738Y-28662D01*
X8189Y-29210D01*
X7892Y-29927D01*
Y-30703D01*
X7910Y-30746D01*
X7632Y-31162D01*
X7433D01*
X7076Y-31310D01*
X6576Y-30975D01*
Y-30813D01*
X6279Y-30096D01*
X5731Y-29548D01*
X5014Y-29251D01*
X4238D01*
X3521Y-29548D01*
X2973Y-30096D01*
X2676Y-30813D01*
Y-31589D01*
X2973Y-32305D01*
X3521Y-32854D01*
X4238Y-33151D01*
X5014D01*
X5371Y-33003D01*
X5871Y-33337D01*
Y-33500D01*
X6168Y-34216D01*
X6717Y-34765D01*
X7433Y-35062D01*
X8209D01*
X8926Y-34765D01*
X9474Y-34216D01*
X9771Y-33500D01*
Y-32724D01*
X9753Y-32681D01*
X10031Y-32265D01*
X10230D01*
X10947Y-31968D01*
X11496Y-31420D01*
X11793Y-30703D01*
Y-29927D01*
X11496Y-29210D01*
X10947Y-28662D01*
X10230Y-28365D01*
D02*
G37*
G36*
X43423Y-29241D02*
X42647D01*
X41931Y-29537D01*
X41382Y-30086D01*
X41085Y-30803D01*
Y-31578D01*
X41382Y-32295D01*
X41931Y-32844D01*
X42647Y-33141D01*
X43423D01*
X44140Y-32844D01*
X44688Y-32295D01*
X44985Y-31578D01*
Y-30803D01*
X44688Y-30086D01*
X44140Y-29537D01*
X43423Y-29241D01*
D02*
G37*
G36*
X39531Y-40031D02*
X38815D01*
X38154Y-40305D01*
X37647Y-40811D01*
X37373Y-41473D01*
Y-42189D01*
X37647Y-42850D01*
X38154Y-43357D01*
X38815Y-43631D01*
X39531D01*
X40193Y-43357D01*
X40699Y-42850D01*
X40973Y-42189D01*
Y-41473D01*
X40699Y-40811D01*
X40193Y-40305D01*
X39531Y-40031D01*
D02*
G37*
G36*
X46027Y-40720D02*
X45311D01*
X44650Y-40994D01*
X44143Y-41500D01*
X43869Y-42162D01*
Y-42878D01*
X44143Y-43539D01*
X44650Y-44046D01*
X45311Y-44320D01*
X46027D01*
X46689Y-44046D01*
X47195Y-43539D01*
X47469Y-42878D01*
Y-42162D01*
X47195Y-41500D01*
X46689Y-40994D01*
X46027Y-40720D01*
D02*
G37*
G36*
X-27959Y-43761D02*
X-28734D01*
X-29451Y-44058D01*
X-30000Y-44606D01*
X-30296Y-45323D01*
Y-46099D01*
X-30000Y-46815D01*
X-29451Y-47364D01*
X-28734Y-47661D01*
X-27959D01*
X-27242Y-47364D01*
X-26693Y-46815D01*
X-26397Y-46099D01*
Y-45323D01*
X-26693Y-44606D01*
X-27242Y-44058D01*
X-27959Y-43761D01*
D02*
G37*
G36*
X16454Y-44393D02*
X15738D01*
X15076Y-44667D01*
X14570Y-45173D01*
X14296Y-45835D01*
Y-46551D01*
X14570Y-47212D01*
X15076Y-47719D01*
X15738Y-47993D01*
X16454D01*
X17116Y-47719D01*
X17622Y-47212D01*
X17896Y-46551D01*
Y-45835D01*
X17622Y-45173D01*
X17116Y-44667D01*
X16454Y-44393D01*
D02*
G37*
G36*
X-40163Y-46475D02*
X-40939D01*
X-41656Y-46772D01*
X-42204Y-47321D01*
X-42501Y-48037D01*
Y-48813D01*
X-42204Y-49530D01*
X-41656Y-50078D01*
X-40939Y-50375D01*
X-40163D01*
X-39447Y-50078D01*
X-38898Y-49530D01*
X-38601Y-48813D01*
Y-48037D01*
X-38898Y-47321D01*
X-39447Y-46772D01*
X-40163Y-46475D01*
D02*
G37*
G36*
X2768Y-63097D02*
X1992D01*
X1276Y-63394D01*
X727Y-63943D01*
X430Y-64659D01*
Y-65435D01*
X727Y-66152D01*
X1276Y-66700D01*
X1992Y-66997D01*
X2768D01*
X3485Y-66700D01*
X4033Y-66152D01*
X4330Y-65435D01*
Y-64659D01*
X4033Y-63943D01*
X3485Y-63394D01*
X2768Y-63097D01*
D02*
G37*
G36*
X-75950Y-66329D02*
X-77593D01*
X-79217Y-66586D01*
X-80780Y-67094D01*
X-82245Y-67840D01*
X-83574Y-68806D01*
X-84737Y-69969D01*
X-85703Y-71299D01*
X-86449Y-72763D01*
X-86957Y-74326D01*
X-87214Y-75950D01*
Y-77593D01*
X-86957Y-79217D01*
X-86449Y-80780D01*
X-85703Y-82245D01*
X-84737Y-83574D01*
X-83574Y-84737D01*
X-82245Y-85703D01*
X-80780Y-86449D01*
X-79217Y-86957D01*
X-77593Y-87214D01*
X-75950D01*
X-74326Y-86957D01*
X-72763Y-86449D01*
X-71299Y-85703D01*
X-69969Y-84737D01*
X-68806Y-83574D01*
X-67840Y-82245D01*
X-67094Y-80780D01*
X-66586Y-79217D01*
X-66329Y-77593D01*
Y-75950D01*
X-66586Y-74326D01*
X-67094Y-72763D01*
X-67840Y-71299D01*
X-68806Y-69969D01*
X-69969Y-68806D01*
X-71299Y-67840D01*
X-72763Y-67094D01*
X-74326Y-66586D01*
X-75950Y-66329D01*
D02*
G37*
G36*
Y87214D02*
X-77593D01*
X-79217Y86957D01*
X-80780Y86449D01*
X-82245Y85703D01*
X-83574Y84737D01*
X-84737Y83574D01*
X-85703Y82245D01*
X-86449Y80780D01*
X-86957Y79217D01*
X-87214Y77593D01*
Y75950D01*
X-86957Y74326D01*
X-86449Y72763D01*
X-85703Y71299D01*
X-84737Y69969D01*
X-83574Y68806D01*
X-82245Y67840D01*
X-80780Y67094D01*
X-79217Y66586D01*
X-77593Y66329D01*
X-75950D01*
X-74326Y66586D01*
X-72763Y67094D01*
X-71299Y67840D01*
X-69969Y68806D01*
X-68806Y69969D01*
X-67840Y71299D01*
X-67094Y72763D01*
X-66586Y74326D01*
X-66329Y75950D01*
Y77593D01*
X-66586Y79217D01*
X-67094Y80780D01*
X-67840Y82245D01*
X-68806Y83574D01*
X-69969Y84737D01*
X-71299Y85703D01*
X-72763Y86449D01*
X-74326Y86957D01*
X-75950Y87214D01*
D02*
G37*
%LPD*%
D12*
X2165Y-81988D02*
D03*
X-2165Y-81988D02*
D03*
X2165Y-75492D02*
D03*
X-2165D02*
D03*
X-2165Y81988D02*
D03*
X2165Y81988D02*
D03*
X-2165Y75492D02*
D03*
X2165D02*
D03*
D13*
X26889Y-70574D02*
D03*
X30890Y-68917D02*
D03*
X29375Y-76576D02*
D03*
X33376Y-74919D02*
D03*
X-26889Y70574D02*
D03*
X-30890Y68917D02*
D03*
X-29375Y76576D02*
D03*
X-33376Y74919D02*
D03*
D14*
X42869Y-69921D02*
D03*
X39119Y-72087D02*
D03*
X39621Y-64295D02*
D03*
X35871Y-66461D02*
D03*
X-42869Y69921D02*
D03*
X-39119Y72087D02*
D03*
X-39621Y64295D02*
D03*
X-35871Y66461D02*
D03*
D15*
X44239Y-61210D02*
D03*
X47675Y-58574D02*
D03*
X48193Y-66364D02*
D03*
X51629Y-63727D02*
D03*
X-44239Y61210D02*
D03*
X-47675Y58574D02*
D03*
X-48193Y66364D02*
D03*
X-51629Y63727D02*
D03*
D16*
X59505Y-56443D02*
D03*
X56443Y-59505D02*
D03*
X54912Y-51850D02*
D03*
X51850Y-54912D02*
D03*
X-59505Y56443D02*
D03*
X-56443Y59505D02*
D03*
X-54912Y51850D02*
D03*
X-51850Y54912D02*
D03*
D17*
X58574Y-47675D02*
D03*
X61210Y-44239D02*
D03*
X63727Y-51629D02*
D03*
X66364Y-48193D02*
D03*
X-58574Y47675D02*
D03*
X-61210Y44239D02*
D03*
X-63727Y51629D02*
D03*
X-66364Y48193D02*
D03*
D18*
X72087Y-39119D02*
D03*
X69921Y-42869D02*
D03*
X66461Y-35871D02*
D03*
X64295Y-39621D02*
D03*
X-72087Y39119D02*
D03*
X-69921Y42869D02*
D03*
X-66461Y35871D02*
D03*
X-64295Y39621D02*
D03*
D19*
X68917Y-30890D02*
D03*
X70574Y-26889D02*
D03*
X74919Y-33376D02*
D03*
X76576Y-29375D02*
D03*
X-68917Y30890D02*
D03*
X-70574Y26889D02*
D03*
X-74919Y33376D02*
D03*
X-76576Y29375D02*
D03*
D20*
X79755Y-19128D02*
D03*
X78634Y-23312D02*
D03*
X73480Y-17447D02*
D03*
X72359Y-21630D02*
D03*
X-79755Y19128D02*
D03*
X-78634Y23312D02*
D03*
X-73480Y17447D02*
D03*
X-72359Y21630D02*
D03*
D21*
X74564Y-12000D02*
D03*
X75129Y-7707D02*
D03*
X81004Y-12848D02*
D03*
X81569Y-8555D02*
D03*
X-74564Y12000D02*
D03*
X-75129Y7707D02*
D03*
X-81004Y12848D02*
D03*
X-81569Y8555D02*
D03*
D22*
X81988Y2165D02*
D03*
X81988Y-2165D02*
D03*
X75492Y2165D02*
D03*
Y-2165D02*
D03*
X-81988Y-2165D02*
D03*
X-81988Y2165D02*
D03*
X-75492Y-2165D02*
D03*
Y2165D02*
D03*
D23*
X75129Y7707D02*
D03*
X74564Y12000D02*
D03*
X81569Y8555D02*
D03*
X81004Y12848D02*
D03*
X-75129Y-7707D02*
D03*
X-74564Y-12000D02*
D03*
X-81569Y-8555D02*
D03*
X-81004Y-12848D02*
D03*
D24*
X78634Y23312D02*
D03*
X79755Y19128D02*
D03*
X72359Y21630D02*
D03*
X73480Y17447D02*
D03*
X-78634Y-23312D02*
D03*
X-79755Y-19128D02*
D03*
X-72359Y-21630D02*
D03*
X-73480Y-17447D02*
D03*
D25*
X70574Y26889D02*
D03*
X68917Y30890D02*
D03*
X76576Y29375D02*
D03*
X74919Y33376D02*
D03*
X-70574Y-26889D02*
D03*
X-68917Y-30890D02*
D03*
X-76576Y-29375D02*
D03*
X-74919Y-33376D02*
D03*
D26*
X69921Y42869D02*
D03*
X72087Y39119D02*
D03*
X64295Y39621D02*
D03*
X66461Y35871D02*
D03*
X-69921Y-42869D02*
D03*
X-72087Y-39119D02*
D03*
X-64295Y-39621D02*
D03*
X-66461Y-35871D02*
D03*
D27*
X61210Y44239D02*
D03*
X58574Y47675D02*
D03*
X66364Y48193D02*
D03*
X63727Y51629D02*
D03*
X-61210Y-44239D02*
D03*
X-58574Y-47675D02*
D03*
X-66364Y-48193D02*
D03*
X-63727Y-51629D02*
D03*
D28*
X56443Y59505D02*
D03*
X59505Y56443D02*
D03*
X51850Y54912D02*
D03*
X54912Y51850D02*
D03*
X-56443Y-59505D02*
D03*
X-59505Y-56443D02*
D03*
X-51850Y-54912D02*
D03*
X-54912Y-51850D02*
D03*
D29*
X47675Y58574D02*
D03*
X44239Y61210D02*
D03*
X51629Y63727D02*
D03*
X48193Y66364D02*
D03*
X-47675Y-58574D02*
D03*
X-44239Y-61210D02*
D03*
X-51629Y-63727D02*
D03*
X-48193Y-66364D02*
D03*
D30*
X39119Y72087D02*
D03*
X42869Y69921D02*
D03*
X35871Y66461D02*
D03*
X39621Y64295D02*
D03*
X-39119Y-72087D02*
D03*
X-42869Y-69921D02*
D03*
X-35871Y-66461D02*
D03*
X-39621Y-64295D02*
D03*
D31*
X30890Y68917D02*
D03*
X26889Y70574D02*
D03*
X33376Y74919D02*
D03*
X29375Y76576D02*
D03*
X-30890Y-68917D02*
D03*
X-26889Y-70574D02*
D03*
X-33376Y-74919D02*
D03*
X-29375Y-76576D02*
D03*
D32*
X19128Y79755D02*
D03*
X23312Y78634D02*
D03*
X17447Y73480D02*
D03*
X21630Y72359D02*
D03*
X-19128Y-79755D02*
D03*
X-23312Y-78634D02*
D03*
X-17447Y-73480D02*
D03*
X-21630Y-72359D02*
D03*
D33*
X12000Y74564D02*
D03*
X7707Y75129D02*
D03*
X12848Y81004D02*
D03*
X8555Y81569D02*
D03*
X-12000Y-74564D02*
D03*
X-7707Y-75129D02*
D03*
X-12848Y-81004D02*
D03*
X-8555Y-81569D02*
D03*
D34*
X-7707Y75129D02*
D03*
X-12000Y74564D02*
D03*
X-8555Y81569D02*
D03*
X-12848Y81004D02*
D03*
X12848Y-81004D02*
D03*
X8555Y-81569D02*
D03*
X12000Y-74564D02*
D03*
X7707Y-75129D02*
D03*
D35*
X-23312Y78634D02*
D03*
X-19128Y79755D02*
D03*
X-21630Y72359D02*
D03*
X-17447Y73480D02*
D03*
X17447Y-73480D02*
D03*
X21630Y-72359D02*
D03*
X19128Y-79755D02*
D03*
X23312Y-78634D02*
D03*
D62*
X-36452Y-58465D02*
G03*
X-28367Y-62787I36452J58465D01*
G01*
X-28035Y-63119D02*
G03*
X-27260Y-63457I845J880D01*
G01*
X-29537Y-65953D02*
G03*
X-29857Y-66407I811J-912D01*
G01*
X-24158Y-66479D02*
G03*
X-23836Y-68317I4406J-174D01*
G01*
X-24166Y-66282D02*
G03*
X-27257Y-63458I-3185J-381D01*
G01*
X-23836Y-68317D02*
G03*
X-22343Y-70221I4084J1664D01*
G01*
X-28640Y-63449D02*
G03*
X-28732Y-63987I1126J-471D01*
G01*
X-21838Y-71095D02*
G03*
X-22343Y-70221I-1215J-119D01*
G01*
X-26736Y-66460D02*
G03*
X-26889Y-67052I1067J-592D01*
G01*
X-29537Y-65953D02*
G03*
X-28732Y-63987I-1600J1803D01*
G01*
X-19291Y63678D02*
G03*
X-40093Y53099I19291J-63678D01*
G01*
X-44542Y49062D02*
G03*
X-40554Y52410I-318J4428D01*
G01*
X10153Y65756D02*
G03*
X9073Y65393I-182J-1247D01*
G01*
X2250Y65984D02*
G03*
X9073Y65393I3655J2520D01*
G01*
X26795Y-60900D02*
G03*
X21320Y-71363I3162J-8318D01*
G01*
X-44546Y49062D02*
G03*
X-45301Y48732I99J-1256D01*
G01*
X2250Y65984D02*
G03*
X1243Y66524I-1034J-720D01*
G01*
X-40093Y53099D02*
G03*
X-40554Y52410I759J-1005D01*
G01*
X26795Y-60900D02*
G03*
X26840Y-60882I-457J1174D01*
G01*
X36912Y59381D02*
G03*
X37054Y59835I-1071J585D01*
G01*
X48846Y58620D02*
G03*
X48978Y58631I-35J1220D01*
G01*
X20691Y69953D02*
G03*
X19960Y67339I1554J-1843D01*
G01*
X3406Y67863D02*
G03*
X2228Y68805I-1219J-318D01*
G01*
X20691Y69953D02*
G03*
X21077Y70560I-790J930D01*
G01*
X37981Y61527D02*
G03*
X38272Y61883I-782J937D01*
G01*
X19978Y66614D02*
G03*
X19960Y67339I-1174J334D01*
G01*
X37981Y61526D02*
G03*
X37054Y59835I1617J-1985D01*
G01*
X48978Y58631D02*
G03*
X52057Y59923I-840J6316D01*
G01*
D02*
G03*
X52582Y60381I-3919J5024D01*
G01*
X44172Y65183D02*
G03*
X48193Y66364I1420J2601D01*
G01*
X-18207Y83621D02*
G03*
X-19082Y82032I1003J-1588D01*
G01*
X-19082Y81403D02*
G03*
X-19046Y81114I1221J7D01*
G01*
X-9033Y85152D02*
G03*
X-17807Y83781I9507J-89628D01*
G01*
X13046Y82124D02*
G03*
X13038Y82071I1202J-211D01*
G01*
X52312Y64715D02*
G03*
X52590Y66018I-2950J1310D01*
G01*
X48698Y70434D02*
G03*
X44708Y73032I-48698J-70434D01*
G01*
X64189Y63225D02*
G03*
X62036Y64113I-6168J-11899D01*
G01*
X61910Y64161D02*
G03*
X62031Y64115I503J1155D01*
G01*
X52301Y64691D02*
G03*
X52312Y64715I-1103J522D01*
G01*
X2338Y85598D02*
G03*
X-9033Y85152I-2338J-85598D01*
G01*
X44708Y73032D02*
G03*
X34895Y78197I-44708J-73032D01*
G01*
X55916Y65291D02*
G03*
X54849Y65195I637J-13078D01*
G01*
X-17807Y83781D02*
G03*
X-18207Y83621I248J-1195D01*
G01*
X48698Y70434D02*
G03*
X49900Y70331I691J1006D01*
G01*
X54849Y65195D02*
G03*
X53778Y64662I249J-1843D01*
G01*
X-19017Y80674D02*
G03*
X-19046Y81114I-1212J142D01*
G01*
X61831Y64195D02*
G03*
X55916Y65291I-5278J-11983D01*
G01*
X52590Y66018D02*
G03*
X49900Y70331I-1605J1994D01*
G01*
X39598Y59541D02*
G03*
X40533Y59561I444J1137D01*
G01*
X2228Y68805D02*
G03*
X2086Y68809I-2296J-68859D01*
G01*
X3409Y67853D02*
G03*
X8257Y67442I2496J651D01*
G01*
X-11808Y67904D02*
G03*
X-12650Y67592I-27J-1220D01*
G01*
X-11808Y67904D02*
G03*
X-11433Y67908I127J5841D01*
G01*
X40644Y55528D02*
G03*
X36385Y58410I-40711J-55583D01*
G01*
X45366Y48671D02*
G03*
X10153Y65756I-45366J-48671D01*
G01*
X40644Y55528D02*
G03*
X40984Y55353I740J1020D01*
G01*
X-16824Y70218D02*
G03*
X-12650Y67592I2454J-729D01*
G01*
X-17362Y72381D02*
G03*
X-16898Y71116I5681J1364D01*
G01*
X10982Y67951D02*
G03*
X9579Y68164I-11049J-68006D01*
G01*
X9560Y68167D02*
G03*
X8257Y67442I-158J-1250D01*
G01*
X-11408Y67909D02*
G03*
X-11295Y67922I-87J1257D01*
G01*
X-11432Y67908D02*
G03*
X-11408Y67909I-63J1258D01*
G01*
X-16824Y70218D02*
G03*
X-16898Y71116I-1168J356D01*
G01*
X2086Y68809D02*
G03*
X-6976Y68496I-2154J-68864D01*
G01*
X52602Y60401D02*
G03*
X52691Y60504I-907J874D01*
G01*
X52582Y60381D02*
G03*
X52602Y60401I-887J895D01*
G01*
X9579Y68164D02*
G03*
X9560Y68167I-178J-1247D01*
G01*
X-17362Y72381D02*
G03*
X-17367Y72401I-1186J-289D01*
G01*
X1243Y66524D02*
G03*
X-19291Y63678I-1243J-66524D01*
G01*
X-6976Y68496D02*
G03*
X-11295Y67922I6909J-68550D01*
G01*
X-44937Y53642D02*
G03*
X-44934Y53637I1049J582D01*
G01*
X-44861Y53494D02*
G03*
X-44915Y53604I-1103J-472D01*
G01*
X-47035Y57830D02*
G03*
X-46997Y57783I1071J822D01*
G01*
X54204Y62458D02*
G03*
X54093Y62331I891J-891D01*
G01*
X66565Y61725D02*
G03*
X66559Y61729I-783J-987D01*
G01*
X64197Y63221D02*
G03*
X64189Y63225I-563J-1127D01*
G01*
X66559Y61729D02*
G03*
X64197Y63221I-8932J-11527D01*
G01*
X66670Y61632D02*
G03*
X66566Y61725I-888J-893D01*
G01*
X55565Y63403D02*
G03*
X54786Y63040I111J-1255D01*
G01*
X64512Y60141D02*
G03*
X55565Y63403I-7959J-7928D01*
G01*
X52929Y63856D02*
G03*
X53141Y64025I-675J1064D01*
G01*
X69613Y55040D02*
G03*
X70953Y54333I1822J1827D01*
G01*
X40988Y55352D02*
G03*
X47607Y58519I1661J5029D01*
G01*
X73228Y52362D02*
G03*
X73225Y52365I-889J-892D01*
G01*
X71608Y53983D02*
G03*
X70953Y54333I-895J-887D01*
G01*
X26846Y-60879D02*
G03*
X64812Y-15045I-26846J60879D01*
G01*
X-51017Y-54211D02*
G03*
X-50092Y-43800I-5547J5740D01*
G01*
X28787Y63915D02*
G03*
X28794Y63932I-1161J490D01*
G01*
X-64721Y15433D02*
G03*
X-50160Y-43714I64721J-15433D01*
G01*
X-50092Y-43800D02*
G03*
X-50160Y-43714I-1018J-742D01*
G01*
X-45443Y50977D02*
G03*
X-46567Y50679I-276J-1229D01*
G01*
X-45301Y48732D02*
G03*
X-64721Y15433I45301J-48732D01*
G01*
X-41797Y54675D02*
G03*
X-42283Y53623I772J-996D01*
G01*
X-46567Y50679D02*
G03*
X-47196Y50095I46581J-50765D01*
G01*
X-45443Y50977D02*
G03*
X-42283Y53623I583J2513D01*
G01*
X-40177Y55875D02*
G03*
X-41797Y54675I40191J-55961D01*
G01*
X-62807Y28206D02*
G03*
X-64493Y24116I62821J-28292D01*
G01*
X-58551Y36206D02*
G03*
X-62807Y28206I58565J-36292D01*
G01*
X-81512Y26311D02*
G03*
X-80583Y24490I1868J-194D01*
G01*
X-80036Y24175D02*
G03*
X-79753Y24058I594J1043D01*
G01*
X-85168Y-8879D02*
G03*
X-83268Y-19973I85168J8879D01*
G01*
D02*
G03*
X-79972Y-30611I83268J19973D01*
G01*
X-71814Y-32291D02*
G03*
X-67062Y-41263I71814J32291D01*
G01*
X-44172Y-65183D02*
G03*
X-37532Y-69220I44172J65183D01*
G01*
X-13476Y-84563D02*
G03*
X-2338Y-85598I13476J84563D01*
G01*
D02*
G03*
X9033Y-85152I2338J85598D01*
G01*
X29375Y-76576D02*
G03*
X33312Y-78885I3123J814D01*
G01*
X34364Y-70846D02*
G03*
X41180Y-67113I-34364J70846D01*
G01*
X34364Y-70846D02*
G03*
X33236Y-72091I1542J-2530D01*
G01*
D02*
G03*
X33376Y-74919I2670J-1285D01*
G01*
X-24158Y-66479D02*
G03*
X-24166Y-66282I-1259J50D01*
G01*
X-12623Y-67993D02*
G03*
X-12453Y-68006I179J1247D01*
G01*
X-12623Y-67993D02*
G03*
X-20786Y-71505I-1259J-8315D01*
G01*
X-14341Y-71215D02*
G03*
X-15778Y-71811I0J-2032D01*
G01*
X-11049Y-68006D02*
G03*
X-2147Y-68864I11049J68006D01*
G01*
X-40855Y-55477D02*
G03*
X-36452Y-58465I40855J55477D01*
G01*
X-18079Y-76636D02*
G03*
X-7942Y-78339I18079J76636D01*
G01*
X-40855Y-55477D02*
G03*
X-47675Y-58574I-1862J-4958D01*
G01*
X-75409Y-22661D02*
G03*
X-71814Y-32291I75409J22661D01*
G01*
X-64338Y-24465D02*
G03*
X-60631Y-32604I64419J24434D01*
G01*
X-66982Y-15825D02*
G03*
X-64338Y-24465I67063J15794D01*
G01*
X-69266Y37446D02*
G03*
X-73522Y28187I69266J-37446D01*
G01*
X-78601Y18681D02*
G03*
X-76186Y19896I284J2445D01*
G01*
X-73522Y28188D02*
G03*
X-76186Y19896I73603J-28218D01*
G01*
X44172Y65183D02*
G03*
X37532Y69220I-44172J-65183D01*
G01*
X78712Y2107D02*
G03*
X77764Y12361I-78712J-2107D01*
G01*
X78536Y-5663D02*
G03*
X78712Y2107I-78536J5663D01*
G01*
X84972Y-10593D02*
G03*
X85602Y-2203I-84972J10593D01*
G01*
Y-2203D02*
G03*
X85168Y8879I-85602J2203D01*
G01*
X68391Y-7612D02*
G03*
X74483Y-11970I5224J867D01*
G01*
X27604Y-63034D02*
G03*
X26875Y-70489I3363J-4091D01*
G01*
X81004Y-12848D02*
G03*
X84972Y-10593I856J3112D01*
G01*
X78536Y-5663D02*
G03*
X81569Y-8555I2963J71D01*
G01*
X68391Y-7612D02*
G03*
X68777Y-2305I-68472J7643D01*
G01*
X32392Y-60715D02*
G03*
X40177Y-55875I-32406J60801D01*
G01*
X27604Y-63034D02*
G03*
X32392Y-60715I-27617J63120D01*
G01*
X66535Y0D02*
G03*
X45366Y48671I-66535J0D01*
G01*
X64812Y-15045D02*
G03*
X66535Y0I-64812J15045D01*
G01*
X-68391Y7612D02*
G03*
X-68777Y2305I68472J-7643D01*
G01*
D02*
G03*
X-68477Y-6857I68858J-2336D01*
G01*
D02*
G03*
X-66982Y-15825I68559J6826D01*
G01*
X-60631Y-32604D02*
G03*
X-55831Y-40290I60712J32573D01*
G01*
D02*
G03*
X-53132Y-43795I55912J40258D01*
G01*
X-54831Y-51881D02*
G03*
X-53132Y-43795I-3194J4893D01*
G01*
X-68391Y7612D02*
G03*
X-74483Y11970I-5224J-867D01*
G01*
X-27604Y63034D02*
G03*
X-32392Y60715I27617J-63120D01*
G01*
D02*
G03*
X-40177Y55875I32406J-60801D01*
G01*
X-47196Y50095D02*
G03*
X-53357Y43486I47210J-50181D01*
G01*
D02*
G03*
X-58551Y36206I53370J-43572D01*
G01*
X-72346Y21545D02*
G03*
X-64493Y24117I2640J5212D01*
G01*
X-27604Y63034D02*
G03*
X-26875Y70489I-3363J4091D01*
G01*
X36385Y58410D02*
G03*
X28300Y62732I-36452J-58465D01*
G01*
D02*
G03*
X19786Y65921I-28368J-62787D01*
G01*
D02*
G03*
X10982Y67951I-19853J-65975D01*
G01*
X68777Y-2305D02*
G03*
X68477Y6857I-68858J2336D01*
G01*
D02*
G03*
X66982Y15825I-68559J-6826D01*
G01*
D02*
G03*
X64338Y24465I-67063J-15794D01*
G01*
D02*
G03*
X60631Y32604I-64419J-24434D01*
G01*
D02*
G03*
X55831Y40290I-60712J-32573D01*
G01*
D02*
G03*
X53132Y43795I-55912J-40258D01*
G01*
X54831Y51881D02*
G03*
X53132Y43795I3194J-4893D01*
G01*
X40177Y-55875D02*
G03*
X47196Y-50095I-40191J55961D01*
G01*
D02*
G03*
X53357Y-43486I-47210J50181D01*
G01*
D02*
G03*
X58551Y-36206I-53370J43572D01*
G01*
D02*
G03*
X62807Y-28206I-58565J36292D01*
G01*
D02*
G03*
X64493Y-24116I-62821J28292D01*
G01*
X72346Y-21545D02*
G03*
X64493Y-24117I-2640J-5212D01*
G01*
X17447Y-73480D02*
G03*
X11294Y-67966I-5834J-320D01*
G01*
X6909Y-68550D02*
G03*
X11294Y-67966I-6909J68550D01*
G01*
X-2147Y-68864D02*
G03*
X6909Y-68550I2147J68864D01*
G01*
X-44708Y-73032D02*
G03*
X-34895Y-78197I44708J73032D01*
G01*
X-33312Y78885D02*
G03*
X-40893Y75235I33313J-78885D01*
G01*
X-40893Y75235D02*
G03*
X-50274Y69318I40893J-75235D01*
G01*
X-29375Y76576D02*
G03*
X-33312Y78885I-3123J-814D01*
G01*
X61172Y49578D02*
G03*
X55323Y56031I-61239J-49633D01*
G01*
X40893Y-75235D02*
G03*
X50274Y-69318I-40893J75235D01*
G01*
X78260Y-34754D02*
G03*
X81512Y-26311I-82373J36580D01*
G01*
X50274Y-69318D02*
G03*
X58931Y-62126I-50274J69318D01*
G01*
X12350Y-77766D02*
G03*
X20863Y-75927I-12364J77851D01*
G01*
X-67062Y-41263D02*
G03*
X-61172Y-49578I67062J41263D01*
G01*
X-77764Y-12361D02*
G03*
X-75409Y-22661I77764J12361D01*
G01*
X-78712Y-2107D02*
G03*
X-77764Y-12361I78712J2107D01*
G01*
X-75299Y-40775D02*
G03*
X-69228Y-50399I75299J40775D01*
G01*
X-79972Y-30611D02*
G03*
X-75299Y-40775I79972J30611D01*
G01*
X-85602Y2203D02*
G03*
X-85168Y-8879I85602J-2203D01*
G01*
X-63542Y-57436D02*
G03*
X-61501Y-57542I1102J1521D01*
G01*
X-69228Y-50399D02*
G03*
X-63542Y-57436I72866J53047D01*
G01*
X-60954Y-57226D02*
G03*
X-60711Y-57039I-606J1036D01*
G01*
X-55479Y-58730D02*
G03*
X-55323Y-56031I-1975J1468D01*
G01*
X-61172Y-49578D02*
G03*
X-55323Y-56031I61239J49633D01*
G01*
X-78536Y5663D02*
G03*
X-78712Y-2107I78536J-5663D01*
G01*
X-78536Y5663D02*
G03*
X-81569Y8555I-2963J-71D01*
G01*
X-81004Y12848D02*
G03*
X-84972Y10593I-856J-3112D01*
G01*
X-84972D02*
G03*
X-85602Y2203I84972J-10593D01*
G01*
X-63872Y46047D02*
G03*
X-69266Y37446I63872J-46047D01*
G01*
X-57330Y53975D02*
G03*
X-63872Y46047I57330J-53975D01*
G01*
X-49587Y61165D02*
G03*
X-57330Y53975I49587J-61165D01*
G01*
X-41180Y67113D02*
G03*
X-49587Y61165I41180J-67113D01*
G01*
X-72961Y44823D02*
G03*
X-78260Y34754I72961J-44823D01*
G01*
X-66496Y53952D02*
G03*
X-72961Y44823I66496J-53952D01*
G01*
X-58931Y62126D02*
G03*
X-66496Y53952I58931J-62126D01*
G01*
X-50274Y69318D02*
G03*
X-58931Y62126I50274J-69318D01*
G01*
X-78260Y34754D02*
G03*
X-81512Y26311I82373J-36580D01*
G01*
X-34364Y70846D02*
G03*
X-41180Y67113I34364J-70846D01*
G01*
X-34364Y70846D02*
G03*
X-33376Y74919I-1542J2530D01*
G01*
X-2204Y78709D02*
G03*
X-12350Y77766I2204J-78709D01*
G01*
X7942Y78339D02*
G03*
X-2204Y78709I-7942J-78339D01*
G01*
X18079Y76636D02*
G03*
X7942Y78339I-18079J-76636D01*
G01*
X28177Y73526D02*
G03*
X18079Y76636I-28177J-73526D01*
G01*
X37532Y69220D02*
G03*
X28177Y73526I-37532J-69220D01*
G01*
X13476Y84563D02*
G03*
X2338Y85598I-13476J-84563D01*
G01*
X24337Y82099D02*
G03*
X13476Y84563I-24337J-82099D01*
G01*
X34895Y78197D02*
G03*
X24337Y82099I-34895J-78197D01*
G01*
X-23122Y77412D02*
G03*
X-20863Y75927I2259J976D01*
G01*
X-12350Y77766D02*
G03*
X-20863Y75927I12364J-77851D01*
G01*
X67062Y41263D02*
G03*
X61172Y49578I-67062J-41263D01*
G01*
X71814Y32291D02*
G03*
X67062Y41263I-71814J-32291D01*
G01*
X75409Y22661D02*
G03*
X71814Y32291I-75409J-22661D01*
G01*
X77764Y12361D02*
G03*
X75409Y22661I-77764J-12361D01*
G01*
X75299Y40775D02*
G03*
X69228Y50399I-75299J-40775D01*
G01*
X79972Y30611D02*
G03*
X75299Y40775I-79972J-30611D01*
G01*
X83268Y19973D02*
G03*
X79972Y30611I-83268J-19973D01*
G01*
X85168Y8879D02*
G03*
X83268Y19973I-85168J-8879D01*
G01*
X63542Y57436D02*
G03*
X61501Y57542I-1102J-1521D01*
G01*
X69228Y50399D02*
G03*
X63542Y57436I-72866J-53047D01*
G01*
X60954Y57226D02*
G03*
X60711Y57039I606J-1036D01*
G01*
X55479Y58730D02*
G03*
X55323Y56031I1975J-1468D01*
G01*
X69266Y-37446D02*
G03*
X73522Y-28187I-69266J37446D01*
G01*
X63872Y-46047D02*
G03*
X69266Y-37446I-63872J46047D01*
G01*
X57330Y-53975D02*
G03*
X63872Y-46047I-57330J53975D01*
G01*
X49587Y-61165D02*
G03*
X57330Y-53975I-49587J61165D01*
G01*
X41180Y-67113D02*
G03*
X49587Y-61165I-41180J67113D01*
G01*
X72961Y-44823D02*
G03*
X78260Y-34754I-72961J44823D01*
G01*
X66496Y-53952D02*
G03*
X72961Y-44823I-66496J53952D01*
G01*
X58931Y-62126D02*
G03*
X66496Y-53952I-58931J62126D01*
G01*
X81512Y-26311D02*
G03*
X80584Y-24490I-1868J194D01*
G01*
X80036Y-24175D02*
G03*
X79753Y-24058I-594J-1043D01*
G01*
X78601Y-18681D02*
G03*
X76186Y-19896I-284J-2445D01*
G01*
X73522Y-28187D02*
G03*
X76186Y-19895I-73603J28218D01*
G01*
X33312Y-78885D02*
G03*
X40893Y-75235I-33313J78885D01*
G01*
X-51660Y-68292D02*
G03*
X-44708Y-73032I51660J68292D01*
G01*
X-51629Y-63727D02*
G03*
X-51660Y-68292I2267J-2297D01*
G01*
X-44172Y-65183D02*
G03*
X-48193Y-66364I-1420J-2601D01*
G01*
X23122Y-77412D02*
G03*
X20863Y-75927I-2259J-976D01*
G01*
X19082Y-81401D02*
G03*
X19041Y-81097I-1200J-7D01*
G01*
X9033Y-85152D02*
G03*
X17970Y-83748I-9507J89628D01*
G01*
D02*
G03*
X19082Y-82033I-766J1715D01*
G01*
X-34895Y-78197D02*
G03*
X-24337Y-82099I34895J78197D01*
G01*
D02*
G03*
X-13476Y-84563I24337J82099D01*
G01*
X-37532Y-69220D02*
G03*
X-28177Y-73526I37532J69220D01*
G01*
D02*
G03*
X-18079Y-76636I28177J73526D01*
G01*
X-7942Y-78339D02*
G03*
X2204Y-78709I7942J78339D01*
G01*
D02*
G03*
X12350Y-77766I-2204J78709D01*
G01*
X-39180Y-63484D02*
X-38087Y-61473D01*
X-36962Y-59403D01*
X-36452Y-58465D01*
X-28732Y-63987D02*
X-28732D01*
X-27260Y-63457D02*
X-27257Y-63458D01*
X-21865Y-71196D02*
X-21832Y-71225D01*
X-28036Y-63119D02*
X-28035Y-63119D01*
X-30539Y-68063D02*
X-30486Y-67934D01*
X-30351Y-67606D01*
X-22343Y-70221D02*
X-22343Y-70221D01*
X-28063Y-63091D02*
X-28036Y-63119D01*
X-28640Y-63449D02*
X-28463Y-63018D01*
X-21865Y-71196D02*
X-21838Y-71095D01*
X-30351Y-67606D02*
X-29857Y-66407D01*
X-26889Y-70574D02*
Y-67052D01*
X21320Y-71363D02*
X21630Y-72359D01*
X9073Y65393D02*
X9073Y65393D01*
X-40554Y52410D02*
X-40554Y52410D01*
X-44546Y49062D02*
X-44542Y49062D01*
X26795Y-60900D02*
X26795Y-60900D01*
X2250Y65984D02*
X2250Y65984D01*
X26840Y-60882D02*
X26846Y-60879D01*
X48840Y58620D02*
X48846Y58620D01*
X3406Y67863D02*
X3408Y67857D01*
X3409Y67853D01*
X21077Y70560D02*
X21315Y71415D01*
X36385Y58410D02*
X36912Y59381D01*
X19785Y65921D02*
X19978Y66614D01*
X37981Y61526D02*
X37981Y61527D01*
X21315Y71415D02*
X21563Y72305D01*
X19960Y67339D02*
X19960D01*
X37054Y59835D02*
X37054D01*
X48193Y66364D02*
X49250Y66893D01*
X48193Y66364D02*
X48193Y66364D01*
X53141Y64025D02*
X53778Y64662D01*
X-9033Y85152D02*
X-8697Y82633D01*
X13046Y82124D02*
X13476Y84563D01*
X13037Y82062D02*
X13038Y82071D01*
X-19082Y82032D02*
X-19082Y81403D01*
X49382Y67066D02*
X50984Y68012D01*
X62031Y64115D02*
X62036Y64113D01*
X51629Y63727D02*
X52234Y64603D01*
X-8697Y82633D02*
X-8555Y81569D01*
X61895Y64167D02*
X61910Y64161D01*
X52234Y64603D02*
X52301Y64691D01*
X61831Y64195D02*
X61895Y64167D01*
X-19018Y80669D02*
X-19017Y80674D01*
X-18207Y83621D02*
Y83621D01*
X-19128Y79755D02*
X-19018Y80669D01*
X49250Y66893D02*
X49382Y67066D01*
X48698Y70434D02*
X48698Y70434D01*
X39598Y59541D02*
X39598Y59541D01*
X38272Y61883D02*
X39113Y63429D01*
X-11433Y67908D02*
X-11432Y67908D01*
X52582Y60381D02*
X52582Y60381D01*
X2228Y68805D02*
Y68805D01*
X40533Y59561D02*
X43085Y60697D01*
X43113Y60734D01*
X44239Y61210D01*
X39113Y63429D02*
X39554Y64241D01*
X10153Y65756D02*
X10153Y65756D01*
X-16824Y70218D02*
X-16824Y70218D01*
X-12534Y73421D02*
X-12000Y74564D01*
X-14370Y69488D02*
X-12534Y73421D01*
X-17515Y73426D02*
X-17367Y72401D01*
X-16898Y71116D02*
X-16898Y71116D01*
X-17367Y72401D02*
X-17367Y72401D01*
X47676Y58592D02*
X48840Y58620D01*
X1243Y66524D02*
Y66524D01*
X52691Y60504D02*
X54093Y62331D01*
X52615Y-49553D02*
X54912Y-51850D01*
X26637Y70679D02*
X26740Y70928D01*
X25497Y67927D02*
X26637Y70679D01*
X-47137Y57606D02*
X-44937Y53642D01*
X-44862Y53494D02*
X-44860Y53490D01*
X-44934Y53637D02*
X-44915Y53604D01*
X-47069Y57875D02*
X-47035Y57830D01*
X-5164Y-72610D02*
X-5056D01*
X-7684Y-75129D02*
X-5164Y-72610D01*
X-7707Y-75129D02*
X-7684D01*
X54204Y62458D02*
X54786Y63040D01*
X55565Y63403D02*
X55565Y63403D01*
X66565Y61725D02*
X66566Y61725D01*
X52923Y63861D02*
X52929Y63856D01*
X64189Y63225D02*
X64189Y63225D01*
X51629Y63727D02*
X52923Y63861D01*
X66559Y61729D02*
X66559Y61729D01*
X64512Y60141D02*
X69613Y55040D01*
X66670Y61632D02*
X71434Y56867D01*
X71608Y53983D02*
X73225Y52365D01*
X28300Y62732D02*
X28787Y63915D01*
X5906Y68504D02*
X7421Y74078D01*
X28794Y63932D02*
X30471Y68009D01*
X-21390Y71468D02*
X-19291Y63678D01*
X40984Y55353D02*
X40988Y55352D01*
X64812Y-15045D02*
X72591Y-17201D01*
X-50092Y-43800D02*
X-50092Y-43800D01*
X72591Y-17201D02*
X73480Y-17447D01*
X7422Y74084D02*
X7707Y75129D01*
X-51047Y-54240D02*
X-51017Y-54211D01*
X-51850Y-54912D02*
X-51047Y-54240D01*
X30471Y68009D02*
X30823Y68862D01*
X-21630Y72359D02*
X-21390Y71468D01*
X7421Y74078D02*
X7422Y74084D01*
X-50160Y-43714D02*
X-50160Y-43714D01*
X2080Y68809D02*
X2095Y74448D01*
X2095Y74514D01*
X-41797Y54675D02*
X-41797Y54675D01*
X-45443Y50977D02*
X-45443Y50977D01*
X-47150Y57623D02*
X-47137Y57606D01*
X-47675Y58574D02*
X-47150Y57623D01*
X-68054Y30442D02*
X-62807Y28206D01*
X-80583Y24490D02*
X-80036Y24175D01*
X-79753Y24058D02*
X-79559Y24006D01*
X-78634Y23312D01*
X-81747Y23480D02*
X-78802D01*
X-83268Y-19973D02*
X-81132Y-19459D01*
X-73847Y-33002D02*
X-71814Y-32291D01*
X-2338Y-85598D02*
X-2222Y-83179D01*
X31282Y-78942D02*
Y-78751D01*
X33236Y-72091D02*
X33584D01*
X-28367Y-62787D02*
X-28063Y-63091D01*
X-12453Y-68006D02*
X-11049D01*
X-21004Y-71836D02*
X-20786Y-71505D01*
X-21832Y-71225D02*
X-21630Y-72359D01*
X-28463Y-63018D02*
X-28367Y-62787D01*
X-17447Y-73480D02*
X-15778Y-71811D01*
X-11868Y-73650D02*
X-11049Y-68006D01*
X-69636Y-26578D02*
X-64338Y-24465D01*
X-75541Y28972D02*
X-73522Y28188D01*
X-81890Y23622D02*
X-81747Y23480D01*
X-78802D02*
X-78634Y23312D01*
X78712Y2107D02*
X80603Y2141D01*
X83200Y-2178D02*
X85602Y-2203D01*
X30315Y-80315D02*
Y-79909D01*
X31282Y-78942D01*
X26806Y-73720D02*
X26866Y-73660D01*
Y-70597D01*
X26889Y-70574D01*
X33746Y-71929D02*
X34764D01*
X35039Y-71653D01*
X33584Y-72091D02*
X33746Y-71929D01*
X32392Y-60715D02*
X34442Y-64063D01*
X35375Y-65587D01*
X-72580Y17240D02*
X-64721Y15433D01*
X-73480Y17447D02*
X-72580Y17240D01*
X45366Y48671D02*
X51145Y54233D01*
X51184Y54273D01*
X51850Y54912D01*
X-75411Y2134D02*
X-74488Y2158D01*
X-68777Y2305D01*
X-75048Y-7738D02*
X-74133Y-7615D01*
X-68477Y-6857D01*
X-73399Y-17478D02*
X-72505Y-17248D01*
X-66982Y-15826D01*
X-70493Y-26920D02*
X-69636Y-26578D01*
X-65579Y-35443D02*
X-65521Y-35410D01*
X-66380Y-35902D02*
X-65579Y-35443D01*
X-65521Y-35410D02*
X-60631Y-32604D01*
X-61129Y-44270D02*
X-60391Y-43715D01*
X-55831Y-40290D01*
X-35857Y66375D02*
X-35375Y65587D01*
X-32392Y60715D01*
X-44225Y61124D02*
X-43661Y60393D01*
X-40177Y55875D01*
X-51836Y54826D02*
X-51190Y54167D01*
X-47196Y50095D01*
X-58560Y47589D02*
X-57835Y47017D01*
X-53357Y43486D01*
X-63484Y39072D02*
X-63426Y39038D01*
X-64282Y39536D02*
X-63484Y39072D01*
X-63426Y39038D02*
X-58551Y36206D01*
X-68903Y30804D02*
X-68054Y30442D01*
X11801Y73595D02*
X11933Y74509D01*
X10982Y67951D02*
X11801Y73595D01*
X2095Y74514D02*
X2098Y75437D01*
X-7774Y75074D02*
X-7663Y74158D01*
X-6976Y68496D01*
X74488Y-2158D02*
X75411Y-2134D01*
X68777Y-2305D02*
X74488Y-2158D01*
X74133Y7615D02*
X75048Y7738D01*
X68477Y6857D02*
X74133Y7615D01*
X72505Y17248D02*
X73399Y17478D01*
X66982Y15825D02*
X72505Y17248D01*
X69636Y26578D02*
X70493Y26920D01*
X64338Y24465D02*
X69636Y26578D01*
X65521Y35410D02*
X65579Y35443D01*
X66380Y35902D01*
X60631Y32604D02*
X65521Y35410D01*
X60391Y43715D02*
X61129Y44270D01*
X55831Y40290D02*
X60391Y43715D01*
X35375Y-65587D02*
X35857Y-66375D01*
X43661Y-60393D02*
X44225Y-61124D01*
X40178Y-55875D02*
X43661Y-60393D01*
X51190Y-54167D02*
X51836Y-54826D01*
X47196Y-50095D02*
X51190Y-54167D01*
X57835Y-47017D02*
X58560Y-47589D01*
X53357Y-43486D02*
X57835Y-47017D01*
X63426Y-39038D02*
X63484Y-39072D01*
X64282Y-39536D01*
X58551Y-36206D02*
X63426Y-39038D01*
X68054Y-30442D02*
X68903Y-30804D01*
X62807Y-28206D02*
X68054Y-30442D01*
X6909Y-68550D02*
X7596Y-74212D01*
X7707Y-75129D01*
X-2163Y-74503D02*
X-2147Y-68864D01*
X-2165Y-75492D02*
X-2163Y-74569D01*
Y-74503D01*
X-12000Y-74564D02*
X-11868Y-73650D01*
X-21630Y-72359D02*
X-21383Y-71470D01*
X-30890Y-68917D02*
X-30539Y-68063D01*
X-39621Y-64295D02*
X-39180Y-63484D01*
X7263Y74028D02*
X7293Y74252D01*
X7707Y75129D01*
X-47675Y58574D02*
X-47069Y57875D01*
X-78260Y34754D02*
X-75911Y33785D01*
X80915Y2140D02*
X81988Y2165D01*
X80603Y2141D02*
X80915Y2140D01*
X48193Y-66364D02*
X48812Y-67242D01*
X50274Y-69318D01*
X65916Y29647D02*
X68917Y30890D01*
X67573Y-25646D02*
X70574Y-26889D01*
X-44239Y-61210D02*
X-42261Y-58633D01*
X-58574Y-47675D02*
X-55997Y-45697D01*
X-68917Y-30890D02*
X-65916Y-29647D01*
X-74564Y-12000D02*
X-71343Y-11577D01*
X-75129Y7707D02*
X-71909Y7283D01*
X-70574Y26889D02*
X-67573Y25646D01*
X-61210Y44239D02*
X-58633Y42261D01*
X-30890Y68917D02*
X-29647Y65916D01*
X55997Y45697D02*
X58574Y47675D01*
X71343Y11577D02*
X74564Y12000D01*
X71909Y-7283D02*
X75129Y-7707D01*
X58633Y-42261D02*
X61210Y-44239D01*
X45697Y-55997D02*
X47675Y-58574D01*
X29647Y-65916D02*
X30890Y-68917D01*
X11577Y-71343D02*
X12000Y-74564D01*
X-64296Y-39621D02*
X-61483Y-37997D01*
X-72359Y-21630D02*
X-69222Y-20790D01*
X-35871Y-66461D02*
X-34247Y-63648D01*
X-75492Y-2165D02*
X-72244Y-2165D01*
X-66461Y35871D02*
X-63648Y34247D01*
X-54912Y51850D02*
X-52615Y49553D01*
X-39651Y63916D02*
X-38027Y61103D01*
X16607Y70343D02*
X17447Y73480D01*
X34247Y63648D02*
X35871Y66461D01*
X61483Y37997D02*
X64296Y39621D01*
X69222Y20790D02*
X72359Y21630D01*
X72244Y2165D02*
X75492Y2165D01*
X63648Y-34247D02*
X66461Y-35871D01*
X37997Y-61483D02*
X39621Y-64296D01*
X2165Y-75492D02*
Y-72244D01*
X23163Y-77563D02*
X23312Y-78634D01*
X23122Y-77412D02*
X23163Y-77563D01*
X-62891Y-50957D02*
X-62861Y-50934D01*
X-63727Y-51629D02*
X-62891Y-50957D01*
X-62861Y-50934D02*
X-61172Y-49578D01*
X-68985Y-42345D02*
X-68893Y-42292D01*
X-69921Y-42869D02*
X-68985Y-42345D01*
X-68893Y-42292D02*
X-67062Y-41263D01*
X-73902Y-33024D02*
X-73847Y-33002D01*
X-74919Y-33376D02*
X-73902Y-33024D01*
X-77579Y-23103D02*
X-77511Y-23085D01*
X-78634Y-23312D02*
X-77579Y-23103D01*
X-77511Y-23085D02*
X-75409Y-22661D01*
X-81004Y-12848D02*
X-79943Y-12688D01*
X-79904Y-12683D01*
X-77764Y-12360D01*
X-80915Y-2140D02*
X-80603Y-2141D01*
X-81988Y-2165D02*
X-80915Y-2140D01*
X-80603Y-2141D02*
X-78712Y-2107D01*
X-67214Y-48848D02*
X-66364Y-48193D01*
X-69228Y-50399D02*
X-67214Y-48848D01*
X-73146Y-39665D02*
X-73044Y-39606D01*
X-72087Y-39119D01*
X-75299Y-40775D02*
X-73146Y-39665D01*
X-77620Y-29755D02*
X-77586Y-29741D01*
X-76576Y-29375D01*
X-79972Y-30611D02*
X-77620Y-29755D01*
X-81132Y-19459D02*
X-80801Y-19371D01*
X-79755Y-19128D01*
X-82639Y-8651D02*
X-81569Y-8555D01*
X-85168Y-8879D02*
X-82639Y-8651D01*
X-83061Y2178D02*
X-81988Y2165D01*
X-83200Y2178D02*
X-83061Y2178D01*
X-85602Y2203D02*
X-83200Y2178D01*
X-60711Y-57039D02*
X-60570Y-56897D01*
X-61501Y-57542D02*
X-60954Y-57226D01*
X-60570Y-56897D02*
X-59506Y-56443D01*
X-55590Y-58841D02*
X-55479Y-58730D01*
X-56443Y-59505D02*
X-55590Y-58841D01*
X-75575Y28987D02*
X-75541Y28972D01*
X-76576Y29375D02*
X-75575Y28987D01*
X-71164Y38570D02*
X-71073Y38517D01*
X-72087Y39119D02*
X-71164Y38570D01*
X-71073Y38517D02*
X-69266Y37446D01*
X-65551Y47489D02*
X-65504Y47453D01*
X-66364Y48193D02*
X-65551Y47489D01*
X-65504Y47453D02*
X-63872Y46047D01*
X-58798Y55633D02*
X-58748Y55584D01*
X-59505Y56443D02*
X-58798Y55633D01*
X-58748Y55584D02*
X-57330Y53975D01*
X-51629Y63727D02*
X-50959Y62888D01*
X-50935Y62857D01*
X-49586Y61165D01*
X-42311Y69004D02*
X-42155Y68734D01*
X-42869Y69921D02*
X-42311Y69004D01*
X-42155Y68734D02*
X-41180Y67113D01*
X-75911Y33785D02*
X-74919Y33376D01*
X-70924Y43514D02*
X-70822Y43455D01*
X-69921Y42869D01*
X-72961Y44823D02*
X-70924Y43514D01*
X-64578Y52343D02*
X-64549Y52321D01*
X-63727Y51629D01*
X-66496Y53952D02*
X-64578Y52343D01*
X-57418Y60532D02*
X-57176Y60290D01*
X-56443Y59505D01*
X-58931Y62126D02*
X-57418Y60532D01*
X-48812Y67242D02*
X-48193Y66364D01*
X-50273Y69319D02*
X-48812Y67242D01*
X-39645Y73022D02*
X-39119Y72087D01*
X-39714Y73143D02*
X-39645Y73022D01*
X-40893Y75235D02*
X-39714Y73143D01*
X-78753Y18722D02*
X-78601Y18681D01*
X-79755Y19128D02*
X-78753Y18722D01*
X-12684Y79943D02*
X-12679Y79906D01*
X-12848Y81004D02*
X-12684Y79943D01*
X-12679Y79906D02*
X-12350Y77766D01*
X-2179Y80809D02*
X-2179Y80915D01*
X-2165Y81988D01*
X-2204Y78709D02*
X-2179Y80809D01*
X8343Y80454D02*
X8351Y80514D01*
X8555Y81569D01*
X7942Y78338D02*
X8343Y80454D01*
X18763Y78670D02*
X18781Y78737D01*
X19128Y79755D01*
X18079Y76636D02*
X18763Y78670D01*
X28983Y75576D02*
X29375Y76576D01*
X28968Y75540D02*
X28983Y75576D01*
X28177Y73526D02*
X28968Y75540D01*
X38448Y70874D02*
X38604Y71145D01*
X39119Y72087D01*
X37532Y69220D02*
X38448Y70874D01*
X2222Y83061D02*
X2222Y83179D01*
X2165Y81988D02*
X2222Y83061D01*
X2222Y83179D02*
X2338Y85598D01*
X12848Y81004D02*
X13037Y82062D01*
X23625Y79661D02*
X23713Y79992D01*
X23312Y78634D02*
X23625Y79661D01*
X23713Y79992D02*
X24337Y82099D01*
X33376Y74919D02*
X33827Y75893D01*
X34895Y78197D01*
X42869Y69921D02*
X43417Y70844D01*
X43486Y70965D01*
X44708Y73032D01*
X-23163Y77563D02*
X-23122Y77411D01*
X-23312Y78634D02*
X-23163Y77563D01*
X62861Y50934D02*
X62891Y50957D01*
X63727Y51629D01*
X61172Y49578D02*
X62861Y50934D01*
X68893Y42292D02*
X68985Y42345D01*
X69921Y42869D01*
X67062Y41263D02*
X68893Y42292D01*
X73847Y33002D02*
X73902Y33024D01*
X74919Y33376D01*
X71814Y32291D02*
X73847Y33002D01*
X77511Y23085D02*
X77579Y23103D01*
X78634Y23312D01*
X75409Y22661D02*
X77511Y23085D01*
X79943Y12688D02*
X81004Y12848D01*
X79904Y12683D02*
X79943Y12688D01*
X77764Y12361D02*
X79904Y12683D01*
X66364Y48193D02*
X67214Y48848D01*
X69228Y50399D01*
X73044Y39606D02*
X73146Y39665D01*
X72087Y39119D02*
X73044Y39606D01*
X73146Y39665D02*
X75299Y40775D01*
X77586Y29741D02*
X77620Y29755D01*
X76576Y29375D02*
X77586Y29741D01*
X77620Y29755D02*
X79972Y30611D01*
X80801Y19371D02*
X81132Y19459D01*
X79755Y19128D02*
X80801Y19371D01*
X81132Y19459D02*
X83268Y19973D01*
X81569Y8555D02*
X82639Y8651D01*
X85168Y8879D01*
X81988Y-2165D02*
X83061Y-2178D01*
X83200Y-2178D01*
X60570Y56897D02*
X60711Y57039D01*
X60954Y57226D02*
X61501Y57542D01*
X59506Y56443D02*
X60570Y56897D01*
X55479Y58730D02*
X55590Y58841D01*
X56443Y59505D01*
X75541Y-28972D02*
X75575Y-28987D01*
X76576Y-29375D01*
X73522Y-28187D02*
X75541Y-28972D01*
X71073Y-38517D02*
X71164Y-38570D01*
X72087Y-39119D01*
X69266Y-37446D02*
X71073Y-38517D01*
X65504Y-47453D02*
X65551Y-47489D01*
X66364Y-48193D01*
X63872Y-46047D02*
X65504Y-47453D01*
X58748Y-55584D02*
X58798Y-55633D01*
X59505Y-56443D01*
X57330Y-53975D02*
X58748Y-55584D01*
X50959Y-62888D02*
X51629Y-63727D01*
X50935Y-62857D02*
X50959Y-62888D01*
X49586Y-61165D02*
X50935Y-62857D01*
X42155Y-68734D02*
X42311Y-69004D01*
X42869Y-69921D01*
X41180Y-67113D02*
X42155Y-68734D01*
X74919Y-33376D02*
X75911Y-33785D01*
X78260Y-34754D01*
X70822Y-43455D02*
X70924Y-43514D01*
X69921Y-42869D02*
X70822Y-43455D01*
X70924Y-43514D02*
X72961Y-44823D01*
X64549Y-52321D02*
X64578Y-52343D01*
X63727Y-51629D02*
X64549Y-52321D01*
X64578Y-52343D02*
X66496Y-53952D01*
X57176Y-60290D02*
X57418Y-60532D01*
X56443Y-59505D02*
X57176Y-60290D01*
X57418Y-60532D02*
X58931Y-62126D01*
X39119Y-72087D02*
X39645Y-73022D01*
X39714Y-73143D01*
X40893Y-75235D01*
X79559Y-24006D02*
X79753Y-24058D01*
X80036Y-24175D02*
X80584Y-24490D01*
X78634Y-23312D02*
X79559Y-24006D01*
X78601Y-18681D02*
X78753Y-18722D01*
X79755Y-19128D01*
X18990Y-80903D02*
X19128Y-79755D01*
X19082Y-82033D02*
Y-81401D01*
X18990Y-80903D02*
X19041Y-81097D01*
X-44708Y-73032D02*
X-43486Y-70965D01*
X-43417Y-70844D01*
X-42869Y-69921D01*
X-34895Y-78197D02*
X-33827Y-75893D01*
X-33376Y-74919D01*
X-24337Y-82099D02*
X-23713Y-79992D01*
X-23625Y-79661D02*
X-23312Y-78634D01*
X-23713Y-79992D02*
X-23625Y-79661D01*
X-13476Y-84563D02*
X-13041Y-82098D01*
X-13037Y-82062D02*
X-12848Y-81004D01*
X-13041Y-82098D02*
X-13037Y-82062D01*
X-2222Y-83061D02*
X-2165Y-81988D01*
X-2222Y-83179D02*
Y-83061D01*
X8697Y-82633D02*
X9033Y-85152D01*
X8555Y-81569D02*
X8697Y-82633D01*
X-38448Y-70874D02*
X-37532Y-69220D01*
X-39119Y-72087D02*
X-38604Y-71145D01*
X-38448Y-70874D01*
X-28968Y-75540D02*
X-28177Y-73526D01*
X-28983Y-75576D02*
X-28968Y-75540D01*
X-29375Y-76576D02*
X-28983Y-75576D01*
X-18763Y-78670D02*
X-18079Y-76636D01*
X-19128Y-79755D02*
X-18781Y-78737D01*
X-18763Y-78670D01*
X-8343Y-80454D02*
X-7942Y-78339D01*
X-8555Y-81569D02*
X-8351Y-80514D01*
X-8343Y-80454D01*
X2179Y-80809D02*
X2204Y-78709D01*
X2165Y-81988D02*
X2179Y-80915D01*
Y-80809D01*
X12350Y-77766D02*
X12679Y-79906D01*
X12684Y-79943D02*
X12848Y-81004D01*
X12679Y-79906D02*
X12684Y-79943D01*
D63*
X-17691Y47557D02*
G03*
X-18127Y47448I66J-1198D01*
G01*
X-17691Y47557D02*
X-17686Y47557D01*
D64*
X-1250Y71921D02*
G03*
X-1227Y71840I1454J367D01*
G01*
X-1227D02*
X-1129Y71527D01*
X-2165Y75492D02*
X-1896Y74569D01*
Y74442D02*
Y74569D01*
Y74442D02*
X-1250Y71921D01*
D65*
X-16978Y55949D02*
X-16333Y56595D01*
X23228D02*
X28051Y51772D01*
X23524Y58563D02*
X28115Y53972D01*
X-16333Y56595D02*
X23228D01*
X-8639Y58563D02*
X23524D01*
X28115Y53972D02*
X28962D01*
X32836Y50098D01*
X34646D01*
X-17492Y55949D02*
X-16978D01*
X-10039Y59449D02*
X-9525D01*
X-8639Y58563D01*
D66*
X0Y0D02*
D03*
D67*
X76772Y76772D02*
D03*
Y-76772D02*
D03*
X-76772D02*
D03*
Y76772D02*
D03*
D68*
X78740Y-62992D02*
D03*
X76772Y59055D02*
D03*
X74803Y47244D02*
D03*
Y-47244D02*
D03*
Y-55118D02*
D03*
X76772Y-59055D02*
D03*
X74803Y-62992D02*
D03*
X70866Y62992D02*
D03*
X72835Y-51181D02*
D03*
X70866Y-55118D02*
D03*
X72835Y-59055D02*
D03*
X68898Y66929D02*
D03*
Y-59055D02*
D03*
X66929Y-62992D02*
D03*
X68898Y-66929D02*
D03*
X62992Y78740D02*
D03*
X64961Y74803D02*
D03*
X62992Y70866D02*
D03*
X64961Y66929D02*
D03*
X62992Y-62992D02*
D03*
X64961Y-66929D02*
D03*
X62992Y-70866D02*
D03*
X64961Y-74803D02*
D03*
X62992Y-78740D02*
D03*
X61024Y74803D02*
D03*
X59055Y70866D02*
D03*
X61024Y-66929D02*
D03*
X59055Y-70866D02*
D03*
X61024Y-74803D02*
D03*
X57087Y74803D02*
D03*
X55118Y70866D02*
D03*
Y-70866D02*
D03*
X57087Y-74803D02*
D03*
X53150Y74803D02*
D03*
Y-74803D02*
D03*
X39370Y7874D02*
D03*
X41339Y-27559D02*
D03*
X35433Y15748D02*
D03*
X37402Y11811D02*
D03*
X35433Y-31496D02*
D03*
X31496Y15748D02*
D03*
Y0D02*
D03*
Y-7874D02*
D03*
X27559Y31496D02*
D03*
X29528Y27559D02*
D03*
X27559Y23622D02*
D03*
X29528Y19685D02*
D03*
Y3937D02*
D03*
Y-3937D02*
D03*
Y-11811D02*
D03*
Y-19685D02*
D03*
X27559Y-23622D02*
D03*
X25591Y27559D02*
D03*
X23622Y23622D02*
D03*
X21654Y27559D02*
D03*
X-13779D02*
D03*
X-17716D02*
D03*
X-19685Y23622D02*
D03*
X-21653Y82677D02*
D03*
Y27559D02*
D03*
X-23622Y23622D02*
D03*
X-25590Y82677D02*
D03*
X-27559Y23622D02*
D03*
X-25590Y19685D02*
D03*
X-27559Y15748D02*
D03*
X-31496Y23622D02*
D03*
X-29527Y19685D02*
D03*
X-31496Y15748D02*
D03*
X-29527Y11811D02*
D03*
X-31496Y7874D02*
D03*
X-29527Y3937D02*
D03*
X-31496Y0D02*
D03*
X-29527Y-3937D02*
D03*
X-35433Y23622D02*
D03*
X-33464Y19685D02*
D03*
X-35433Y15748D02*
D03*
X-33464Y11811D02*
D03*
X-35433Y7874D02*
D03*
X-33464Y3937D02*
D03*
X-35433Y0D02*
D03*
X-33464Y-3937D02*
D03*
X-37401Y19685D02*
D03*
X-39370Y15748D02*
D03*
X-37401Y11811D02*
D03*
X-39370Y7874D02*
D03*
X-37401Y3937D02*
D03*
X-41338Y11811D02*
D03*
X-43307Y7874D02*
D03*
X-41338Y3937D02*
D03*
X-53149Y74803D02*
D03*
X-55118Y70866D02*
D03*
Y-70866D02*
D03*
X-53149Y-74803D02*
D03*
X-57086Y74803D02*
D03*
X-59055Y70866D02*
D03*
Y-62992D02*
D03*
X-57086Y-66929D02*
D03*
X-59055Y-70866D02*
D03*
X-62992Y78740D02*
D03*
Y70866D02*
D03*
X-61023Y66929D02*
D03*
X-62992Y62992D02*
D03*
Y-62992D02*
D03*
X-61023Y-66929D02*
D03*
X-62992Y-70866D02*
D03*
X-61023Y-74803D02*
D03*
X-62992Y-78740D02*
D03*
X-64960Y74803D02*
D03*
Y66929D02*
D03*
X-66929Y62992D02*
D03*
Y-62992D02*
D03*
X-64960Y-66929D02*
D03*
Y-74803D02*
D03*
X-68897Y66929D02*
D03*
X-70866Y62992D02*
D03*
X-68897Y59055D02*
D03*
X-70866Y55118D02*
D03*
Y-55118D02*
D03*
X-68897Y-59055D02*
D03*
X-70866Y-62992D02*
D03*
X-68897Y-66929D02*
D03*
X-74803Y62992D02*
D03*
X-72834Y59055D02*
D03*
X-74803Y55118D02*
D03*
X-72834Y51181D02*
D03*
X-74803Y47244D02*
D03*
Y-47244D02*
D03*
X-72834Y-51181D02*
D03*
X-74803Y-55118D02*
D03*
X-72834Y-59055D02*
D03*
X-74803Y-62992D02*
D03*
X-78740Y62992D02*
D03*
X-76771Y59055D02*
D03*
X-78740Y-62992D02*
D03*
X-25197Y-56595D02*
D03*
X-32165Y-58189D02*
D03*
X-27748Y-56259D02*
D03*
X-31137Y-64151D02*
D03*
X-8407Y50001D02*
D03*
X-4528Y45177D02*
D03*
X4232Y36220D02*
D03*
X-3248Y36417D02*
D03*
X-11909Y36319D02*
D03*
X8661Y36909D02*
D03*
X-22933Y67126D02*
D03*
X-17686Y47557D02*
D03*
X-26969Y51968D02*
D03*
X22244Y68110D02*
D03*
X16437Y53150D02*
D03*
X13159Y49003D02*
D03*
X-41437Y-6201D02*
D03*
X23228Y-36220D02*
D03*
X19291D02*
D03*
X21260Y-38189D02*
D03*
X29134Y-40551D02*
D03*
X45669Y-42520D02*
D03*
X70866Y-63386D02*
D03*
X28051Y51772D02*
D03*
X34646Y50098D02*
D03*
X16096Y-46193D02*
D03*
X-8268Y-70866D02*
D03*
X-32283Y28346D02*
D03*
X-28346D02*
D03*
X0Y-31496D02*
D03*
X39370Y-3937D02*
D03*
Y1181D02*
D03*
X32677Y-48819D02*
D03*
X32283Y-43701D02*
D03*
X33465Y-40551D02*
D03*
X-60236Y74410D02*
D03*
X76378Y62205D02*
D03*
X-56299Y-75984D02*
D03*
X-75984Y-57874D02*
D03*
X-38189Y-61417D02*
D03*
X39370Y-8465D02*
D03*
X22047Y-23228D02*
D03*
X39173Y-41831D02*
D03*
X-52085Y19397D02*
D03*
X-51233Y21705D02*
D03*
X-55512Y24213D02*
D03*
X-56402Y21890D02*
D03*
X5297Y22215D02*
D03*
X10656Y20200D02*
D03*
X15344Y16915D02*
D03*
X19069Y12568D02*
D03*
X21595Y7431D02*
D03*
X22765Y1827D02*
D03*
X22504Y-3892D02*
D03*
X20829Y-9366D02*
D03*
X17845Y-14252D02*
D03*
X13740Y-18242D02*
D03*
X8772Y-21086D02*
D03*
X3252Y-22605D02*
D03*
X-2471Y-22704D02*
D03*
X-8040Y-21376D02*
D03*
X-13103Y-18705D02*
D03*
X-17344Y-14859D02*
D03*
X-20494Y-10079D02*
D03*
X-22356Y-4665D02*
D03*
X-22814Y1041D02*
D03*
X-21839Y6682D02*
D03*
X-19491Y11903D02*
D03*
X-15918Y16376D02*
D03*
X-11346Y19820D02*
D03*
X-6060Y22019D02*
D03*
X-394Y22835D02*
D03*
D69*
X-21404Y-64625D02*
D03*
X-26736Y-66460D02*
D03*
X4626Y-31201D02*
D03*
X50984Y68012D02*
D03*
X49680Y72964D02*
D03*
X39598Y59541D02*
D03*
X-14370Y69488D02*
D03*
X7821Y-33112D02*
D03*
X9843Y-30315D02*
D03*
X52615Y-49553D02*
D03*
X13189Y54245D02*
D03*
X-17492Y55949D02*
D03*
X-10039Y59449D02*
D03*
X-5056Y-72610D02*
D03*
X7480Y-65748D02*
D03*
X2380Y-65047D02*
D03*
X-28346Y-45711D02*
D03*
X5906Y68504D02*
D03*
X-1129Y71527D02*
D03*
X-44860Y53490D02*
D03*
X-39984Y48440D02*
D03*
X-40551Y-48425D02*
D03*
X39872Y-48767D02*
D03*
X-2338Y-85598D02*
D03*
X43198Y45847D02*
D03*
X-15945Y-64764D02*
D03*
X-20177Y-66929D02*
D03*
X-18799Y-64665D02*
D03*
X-14341Y-71215D02*
D03*
X35827Y-23622D02*
D03*
X42126Y10630D02*
D03*
X38967Y20069D02*
D03*
X42913Y-12992D02*
D03*
X58661Y13386D02*
D03*
X43731Y-20336D02*
D03*
X43035Y-31191D02*
D03*
X48425Y21654D02*
D03*
X4821Y52930D02*
D03*
X-44176Y-65286D02*
D03*
X21060Y-69015D02*
D03*
X22047Y-82677D02*
D03*
X-45276Y-48425D02*
D03*
X67573Y-25646D02*
D03*
X-40566Y-26084D02*
D03*
X-70771Y-34528D02*
D03*
X-66954Y-25583D02*
D03*
X-83268Y-19973D02*
D03*
X-65431Y29324D02*
D03*
X-75590Y26378D02*
D03*
X-81890Y23622D02*
D03*
X71434Y56867D02*
D03*
X73228Y52362D02*
D03*
X79921Y4724D02*
D03*
X85433Y-2362D02*
D03*
X71501Y-11600D02*
D03*
X30315Y-80315D02*
D03*
X26806Y-73720D02*
D03*
X40410Y26325D02*
D03*
X35039Y-71653D02*
D03*
X-42218Y23315D02*
D03*
X-1374Y48209D02*
D03*
X25497Y67927D02*
D03*
X-42220Y39871D02*
D03*
X-48646Y-21412D02*
D03*
X-55804Y-16067D02*
D03*
X-43444Y30619D02*
D03*
X-62195Y-9991D02*
D03*
X62124Y10422D02*
D03*
X-47244Y-74803D02*
D03*
X-83661Y16732D02*
D03*
X-47244Y75787D02*
D03*
X82835Y-16551D02*
D03*
X46260Y-75787D02*
D03*
X65916Y29647D02*
D03*
X-42261Y-58633D02*
D03*
X-55997Y-45697D02*
D03*
X-65916Y-29647D02*
D03*
X-71343Y-11577D02*
D03*
X-71909Y7283D02*
D03*
X-67573Y25646D02*
D03*
X-58633Y42261D02*
D03*
X-29647Y65916D02*
D03*
X55997Y45697D02*
D03*
X71343Y11577D02*
D03*
X71909Y-7283D02*
D03*
X58633Y-42261D02*
D03*
X45697Y-55997D02*
D03*
X29647Y-65916D02*
D03*
X11577Y-71343D02*
D03*
X-61483Y-37997D02*
D03*
X-69222Y-20790D02*
D03*
X-34247Y-63648D02*
D03*
X-72244Y-2165D02*
D03*
X-63648Y34247D02*
D03*
X-52615Y49553D02*
D03*
X-38027Y61103D02*
D03*
X16607Y70343D02*
D03*
X34247Y63648D02*
D03*
X61483Y37997D02*
D03*
X69222Y20790D02*
D03*
X72244Y2165D02*
D03*
X63648Y-34247D02*
D03*
X37997Y-61483D02*
D03*
X2165Y-72244D02*
D03*
D70*
X21949Y53839D02*
D03*
X-31512Y39739D02*
D03*
X-20990Y51874D02*
D03*
D71*
X84465Y77684D02*
D03*
X83578Y72898D02*
D03*
X80047Y69547D02*
D03*
X75221Y68911D02*
D03*
X70942Y71234D02*
D03*
X68846Y75627D02*
D03*
X69733Y80414D02*
D03*
X73264Y83765D02*
D03*
X78091Y84401D02*
D03*
X82369Y82078D02*
D03*
X77684Y-84465D02*
D03*
X72898Y-83578D02*
D03*
X69547Y-80047D02*
D03*
X68911Y-75221D02*
D03*
X71234Y-70942D02*
D03*
X75627Y-68846D02*
D03*
X80414Y-69733D02*
D03*
X83765Y-73264D02*
D03*
X84401Y-78091D02*
D03*
X82078Y-82369D02*
D03*
X-84465Y-77684D02*
D03*
X-83578Y-72898D02*
D03*
X-80047Y-69547D02*
D03*
X-75221Y-68911D02*
D03*
X-70942Y-71234D02*
D03*
X-68846Y-75627D02*
D03*
X-69733Y-80414D02*
D03*
X-73264Y-83765D02*
D03*
X-78091Y-84401D02*
D03*
X-82369Y-82078D02*
D03*
X-82078Y82369D02*
D03*
X-84401Y78091D02*
D03*
X-83765Y73264D02*
D03*
X-80414Y69733D02*
D03*
X-75627Y68846D02*
D03*
X-71234Y70942D02*
D03*
X-68911Y75221D02*
D03*
X-69547Y80047D02*
D03*
X-72898Y83578D02*
D03*
X-77684Y84465D02*
D03*
M02*
