M48
;Layer_Color=9474304
;FILE_FORMAT=2:5
INCH,LZ
;TYPE=PLATED
T1F00S00C0.01200
T2F00S00C0.01500
T3F00S00C0.01575
T4F00S00C0.02000
%
T01
X-0038189Y-0061417
X-0032165Y-0058189
X-0027748Y-0056259
X-0025197Y-0056595
X-0031137Y-0064151
X-0008268Y-0070866
X0Y-0031496
X-0002471Y-0022704
X0003252Y-0022605
X0022047Y-0023228
X0027559Y-0023622
X0035433Y-0031496
X0041339Y-0027559
X0039173Y-0041831
X0033465Y-0040551
X0029134
X0032283Y-0043701
X0032677Y-0048819
X0016096Y-0046193
X002126Y-0038189
X0019291Y-003622
X0023228
X0045669Y-004252
X0074803Y-0047244
X0072835Y-0051181
X0070866Y-0055118
X0074803
X0076772Y-0059055
X0072835
X0068898
X0066929Y-0062992
X0062992
X0064961Y-0066929
X0068898
X0070866Y-0063386
X0074803Y-0062992
X007874
X0061024Y-0066929
X0059055Y-0070866
X0062992
X0064961Y-0074803
X0061024
X0057087
X005315
X0055118Y-0070866
X0062992Y-007874
X-0053149Y-0074803
X-0056299Y-0075984
X-0061023Y-0074803
X-006496
X-0062992Y-0070866
X-0059055
X-0055118
X-0057086Y-0066929
X-0061023
X-006496
X-0068897
X-0070866Y-0062992
X-0066929
X-0062992
X-0059055
X-0068897Y-0059055
X-0072834
X-0075984Y-0057874
X-0074803Y-0055118
X-0070866
X-0072834Y-0051181
X-0074803Y-0047244
Y-0062992
X-007874
X-0062992Y-007874
X-0043307Y0007874
X-0052085Y0019397
X-0051233Y0021705
X-0056402Y002189
X-0055512Y0024213
X-0074803Y0047244
X-0072834Y0051181
X-0074803Y0055118
X-0070866
X-0068897Y0059055
X-0072834
X-0076771
X-007874Y0062992
X-0074803
X-0070866
X-0066929
X-0062992
X-0061023Y0066929
X-006496
X-0068897
X-0062992Y0070866
X-0059055
X-0055118
X-0053149Y0074803
X-0057086
X-0060236Y007441
X-006496Y0074803
X-0062992Y007874
X-002559Y0082677
X-0021653
X-0022933Y0067126
X-0026969Y0051968
X-0017686Y0047557
X-0008407Y0050001
X-0004528Y0045177
X-0003248Y0036417
X0004232Y003622
X0008661Y0036909
X0013159Y0049003
X0016437Y005315
X0028051Y0051772
X0034646Y0050098
X0027559Y0031496
X0029528Y0027559
X0025591
X0021654
X0023622Y0023622
X0027559
X0029528Y0019685
X0031496Y0015748
X0035433
X0037402Y0011811
X003937Y0007874
X003937Y0001181
Y-0003937
Y-0008465
X0031496Y-0007874
X0029528Y-0003937
X0031496Y0
X0029528Y0003937
X0022765Y0001827
X0022504Y-0003892
X0020829Y-0009366
X0017845Y-0014252
X001374Y-0018242
X0008772Y-0021086
X-000804Y-0021376
X-0013103Y-0018705
X-0017344Y-0014859
X-0020494Y-0010079
X-0022356Y-0004665
X-0022814Y0001041
X-0021839Y0006682
X-0019491Y0011903
X-0015918Y0016376
X-0011346Y001982
X-000606Y0022019
X-0000394Y0022835
X0005297Y0022215
X0010656Y00202
X0015344Y0016915
X0019069Y0012568
X0021595Y0007431
X0029528Y-0011811
Y-0019685
X-0029527Y-0003937
X-0033464
X-0035433Y0
X-0031496
X-0029527Y0003937
X-0033464
X-0037401
X-0041338
X-003937Y0007874
X-0035433
X-0031496
X-0029527Y0011811
X-0033464
X-0037401
X-0041338
X-003937Y0015748
X-0035433
X-0031496
X-0027559
X-002559Y0019685
X-0029527
X-0033464
X-0037401
X-0035433Y0023622
X-0031496
X-0027559
X-0023622
X-0019685
X-0017716Y0027559
X-0013779
X-0021653
X-0028346Y0028346
X-0032283
X-0011909Y0036319
X0022244Y006811
X0055118Y0070866
X0059055
X0062992
X0064961Y0074803
X0061024
X0057087
X005315
X0062992Y007874
X0064961Y0066929
X0068898
X0070866Y0062992
X0076378Y0062205
X0076772Y0059055
X0074803Y0047244
X-0041437Y-0006201
T02
X-0034247Y-0063648
X-0026736Y-006646
X-0020177Y-0066929
X-0021404Y-0064625
X-0018799Y-0064665
X-0015945Y-0064764
X-0014341Y-0071215
X-0005056Y-007261
X0002165Y-0072244
X000238Y-0065047
X000748Y-0065748
X0011577Y-0071343
X002106Y-0069015
X0026806Y-007372
X0030315Y-0080315
X0022047Y-0082677
X0035039Y-0071653
X0029647Y-0065916
X0037997Y-0061483
X0045697Y-0055997
X0039872Y-0048767
X0052615Y-0049553
X0058633Y-0042261
X0063648Y-0034247
X0067573Y-0025646
X0043035Y-0031191
X0035827Y-0023622
X0009843Y-0030315
X0007821Y-0033112
X0004626Y-0031201
X-0028346Y-0045711
X-0040551Y-0048425
X-0040566Y-0026084
X-0002338Y-0085598
X004626Y-0075787
X-0047244Y-0074803
X-0044176Y-0065286
X-0042261Y-0058633
X-0045276Y-0048425
X-0055997Y-0045697
X-0061483Y-0037997
X-0070771Y-0034528
X-0065916Y-0029647
X-0066954Y-0025583
X-0069222Y-002079
X-0071343Y-0011577
X-0072244Y-0002165
X-0071909Y0007283
X-0083661Y0016732
X-008189Y0023622
X-007559Y0026378
X-0067573Y0025646
X-0065431Y0029324
X-0063648Y0034247
X-0058633Y0042261
X-0052615Y0049553
X-004486Y005349
X-004222Y0039871
X-0043444Y0030619
X-0042218Y0023315
X-0048646Y-0021412
X-0055804Y-0016067
X-0062195Y-0009991
X-0083268Y-0019973
X-0047244Y0075787
X-0038027Y0061103
X-0029647Y0065916
X-001437Y0069488
X-0010039Y0059449
X-0017492Y0055949
X-0001374Y0048209
X0004821Y005293
X0013189Y0054245
X0016607Y0070343
X0025497Y0067927
X0034247Y0063648
X0039598Y0059541
X0043198Y0045847
X0055997Y0045697
X0061483Y0037997
X0065916Y0029647
X0069222Y002079
X0071343Y0011577
X0072244Y0002165
X0071909Y-0007283
X0071501Y-00116
X0082835Y-0016551
X0085433Y-0002362
X0079921Y0004724
X0062124Y0010422
X0058661Y0013386
X0048425Y0021654
X0038967Y0020069
X004041Y0026325
X0042126Y001063
X0042913Y-0012992
X0043731Y-0020336
X0050984Y0068012
X004968Y0072964
X0071434Y0056867
X0073228Y0052362
X0005906Y0068504
X-0001129Y0071527
X-0039984Y004844
T03
X0072898Y-0083578
X0077684Y-0084465
X0082078Y-0082369
X0084401Y-0078091
X0083765Y-0073264
X0080414Y-0069733
X0075627Y-0068846
X0071234Y-0070942
X0068911Y-0075221
X0069547Y-0080047
X-0069733Y-0080414
X-0068846Y-0075627
X-0070942Y-0071234
X-0075221Y-0068911
X-0080047Y-0069547
X-0083578Y-0072898
X-0084465Y-0077684
X-0082369Y-0082078
X-0078091Y-0084401
X-0073264Y-0083765
X-0075627Y0068846
X-0080414Y0069733
X-0083765Y0073264
X-0084401Y0078091
X-0082078Y0082369
X-0077684Y0084465
X-0072898Y0083578
X-0069547Y0080047
X-0068911Y0075221
X-0071234Y0070942
X0070942Y0071234
X0068846Y0075627
X0069733Y0080414
X0073264Y0083765
X0078091Y0084401
X0082369Y0082078
X0084465Y0077684
X0083578Y0072898
X0080047Y0069547
X0075221Y0068911
T04
X-0031512Y0039739
X-002099Y0051874
X0021949Y0053839
M30
