G04*
G04 #@! TF.GenerationSoftware,Altium Limited,Altium Designer,20.1.11 (218)*
G04*
G04 Layer_Physical_Order=4*
G04 Layer_Color=16711680*
%FSLAX25Y25*%
%MOIN*%
G70*
G04*
G04 #@! TF.SameCoordinates,A89DC92D-1D16-4819-8E46-697129492B70*
G04*
G04*
G04 #@! TF.FilePolarity,Positive*
G04*
G01*
G75*
%ADD63C,0.01200*%
%ADD64C,0.01500*%
%ADD66C,0.55118*%
%ADD67C,0.19685*%
%ADD68C,0.02700*%
%ADD69C,0.02400*%
%ADD70C,0.02559*%
%ADD72C,0.00800*%
%ADD73C,0.01200*%
%ADD74C,0.01200*%
G04:AMPARAMS|DCode=75|XSize=7.87mil|YSize=31.5mil|CornerRadius=0mil|HoleSize=0mil|Usage=FLASHONLY|Rotation=225.000|XOffset=0mil|YOffset=0mil|HoleType=Round|Shape=Round|*
%AMOVALD75*
21,1,0.02362,0.00787,0.00000,0.00000,315.0*
1,1,0.00787,-0.00835,0.00835*
1,1,0.00787,0.00835,-0.00835*
%
%ADD75OVALD75*%

G04:AMPARAMS|DCode=76|XSize=7.87mil|YSize=31.5mil|CornerRadius=0mil|HoleSize=0mil|Usage=FLASHONLY|Rotation=135.000|XOffset=0mil|YOffset=0mil|HoleType=Round|Shape=Round|*
%AMOVALD76*
21,1,0.02362,0.00787,0.00000,0.00000,225.0*
1,1,0.00787,0.00835,0.00835*
1,1,0.00787,-0.00835,-0.00835*
%
%ADD76OVALD76*%

%ADD77C,0.01968*%
G04:AMPARAMS|DCode=78|XSize=36mil|YSize=51mil|CornerRadius=9mil|HoleSize=0mil|Usage=FLASHONLY|Rotation=206.000|XOffset=0mil|YOffset=0mil|HoleType=Round|Shape=RoundedRectangle|*
%AMROUNDEDRECTD78*
21,1,0.03600,0.03300,0,0,206.0*
21,1,0.01800,0.05100,0,0,206.0*
1,1,0.01800,-0.01532,0.01089*
1,1,0.01800,0.00086,0.01878*
1,1,0.01800,0.01532,-0.01089*
1,1,0.01800,-0.00086,-0.01878*
%
%ADD78ROUNDEDRECTD78*%
%ADD79P,0.19376X4X270.0*%
G04:AMPARAMS|DCode=80|XSize=24.5mil|YSize=26mil|CornerRadius=6.13mil|HoleSize=0mil|Usage=FLASHONLY|Rotation=45.000|XOffset=0mil|YOffset=0mil|HoleType=Round|Shape=RoundedRectangle|*
%AMROUNDEDRECTD80*
21,1,0.02450,0.01375,0,0,45.0*
21,1,0.01225,0.02600,0,0,45.0*
1,1,0.01225,0.00919,-0.00053*
1,1,0.01225,0.00053,-0.00919*
1,1,0.01225,-0.00919,0.00053*
1,1,0.01225,-0.00053,0.00919*
%
%ADD80ROUNDEDRECTD80*%
G04:AMPARAMS|DCode=81|XSize=24.5mil|YSize=26mil|CornerRadius=6.13mil|HoleSize=0mil|Usage=FLASHONLY|Rotation=270.000|XOffset=0mil|YOffset=0mil|HoleType=Round|Shape=RoundedRectangle|*
%AMROUNDEDRECTD81*
21,1,0.02450,0.01375,0,0,270.0*
21,1,0.01225,0.02600,0,0,270.0*
1,1,0.01225,-0.00688,-0.00613*
1,1,0.01225,-0.00688,0.00613*
1,1,0.01225,0.00688,0.00613*
1,1,0.01225,0.00688,-0.00613*
%
%ADD81ROUNDEDRECTD81*%
G04:AMPARAMS|DCode=82|XSize=24.5mil|YSize=26mil|CornerRadius=6.13mil|HoleSize=0mil|Usage=FLASHONLY|Rotation=180.000|XOffset=0mil|YOffset=0mil|HoleType=Round|Shape=RoundedRectangle|*
%AMROUNDEDRECTD82*
21,1,0.02450,0.01375,0,0,180.0*
21,1,0.01225,0.02600,0,0,180.0*
1,1,0.01225,-0.00613,0.00688*
1,1,0.01225,0.00613,0.00688*
1,1,0.01225,0.00613,-0.00688*
1,1,0.01225,-0.00613,-0.00688*
%
%ADD82ROUNDEDRECTD82*%
G04:AMPARAMS|DCode=83|XSize=82.68mil|YSize=118.11mil|CornerRadius=20.67mil|HoleSize=0mil|Usage=FLASHONLY|Rotation=26.000|XOffset=0mil|YOffset=0mil|HoleType=Round|Shape=RoundedRectangle|*
%AMROUNDEDRECTD83*
21,1,0.08268,0.07677,0,0,26.0*
21,1,0.04134,0.11811,0,0,26.0*
1,1,0.04134,0.03541,-0.02544*
1,1,0.04134,-0.00175,-0.04356*
1,1,0.04134,-0.03541,0.02544*
1,1,0.04134,0.00175,0.04356*
%
%ADD83ROUNDEDRECTD83*%
G04:AMPARAMS|DCode=84|XSize=31.5mil|YSize=62.99mil|CornerRadius=7.87mil|HoleSize=0mil|Usage=FLASHONLY|Rotation=26.000|XOffset=0mil|YOffset=0mil|HoleType=Round|Shape=RoundedRectangle|*
%AMROUNDEDRECTD84*
21,1,0.03150,0.04724,0,0,26.0*
21,1,0.01575,0.06299,0,0,26.0*
1,1,0.01575,0.01743,-0.01778*
1,1,0.01575,0.00328,-0.02468*
1,1,0.01575,-0.01743,0.01778*
1,1,0.01575,-0.00328,0.02468*
%
%ADD84ROUNDEDRECTD84*%
G04:AMPARAMS|DCode=85|XSize=24.5mil|YSize=26mil|CornerRadius=6.13mil|HoleSize=0mil|Usage=FLASHONLY|Rotation=296.000|XOffset=0mil|YOffset=0mil|HoleType=Round|Shape=RoundedRectangle|*
%AMROUNDEDRECTD85*
21,1,0.02450,0.01375,0,0,296.0*
21,1,0.01225,0.02600,0,0,296.0*
1,1,0.01225,-0.00349,-0.00852*
1,1,0.01225,-0.00886,0.00249*
1,1,0.01225,0.00349,0.00852*
1,1,0.01225,0.00886,-0.00249*
%
%ADD85ROUNDEDRECTD85*%
G04:AMPARAMS|DCode=86|XSize=24.5mil|YSize=26mil|CornerRadius=6.13mil|HoleSize=0mil|Usage=FLASHONLY|Rotation=135.000|XOffset=0mil|YOffset=0mil|HoleType=Round|Shape=RoundedRectangle|*
%AMROUNDEDRECTD86*
21,1,0.02450,0.01375,0,0,135.0*
21,1,0.01225,0.02600,0,0,135.0*
1,1,0.01225,0.00053,0.00919*
1,1,0.01225,0.00919,0.00053*
1,1,0.01225,-0.00053,-0.00919*
1,1,0.01225,-0.00919,-0.00053*
%
%ADD86ROUNDEDRECTD86*%
G04:AMPARAMS|DCode=87|XSize=24.5mil|YSize=26mil|CornerRadius=6.13mil|HoleSize=0mil|Usage=FLASHONLY|Rotation=206.000|XOffset=0mil|YOffset=0mil|HoleType=Round|Shape=RoundedRectangle|*
%AMROUNDEDRECTD87*
21,1,0.02450,0.01375,0,0,206.0*
21,1,0.01225,0.02600,0,0,206.0*
1,1,0.01225,-0.00852,0.00349*
1,1,0.01225,0.00249,0.00886*
1,1,0.01225,0.00852,-0.00349*
1,1,0.01225,-0.00249,-0.00886*
%
%ADD87ROUNDEDRECTD87*%
G04:AMPARAMS|DCode=88|XSize=59.06mil|YSize=48.42mil|CornerRadius=12.11mil|HoleSize=0mil|Usage=FLASHONLY|Rotation=135.000|XOffset=0mil|YOffset=0mil|HoleType=Round|Shape=RoundedRectangle|*
%AMROUNDEDRECTD88*
21,1,0.05906,0.02421,0,0,135.0*
21,1,0.03484,0.04842,0,0,135.0*
1,1,0.02421,-0.00376,0.02088*
1,1,0.02421,0.02088,-0.00376*
1,1,0.02421,0.00376,-0.02088*
1,1,0.02421,-0.02088,0.00376*
%
%ADD88ROUNDEDRECTD88*%
G04:AMPARAMS|DCode=89|XSize=59.06mil|YSize=48.42mil|CornerRadius=12.11mil|HoleSize=0mil|Usage=FLASHONLY|Rotation=70.000|XOffset=0mil|YOffset=0mil|HoleType=Round|Shape=RoundedRectangle|*
%AMROUNDEDRECTD89*
21,1,0.05906,0.02421,0,0,70.0*
21,1,0.03484,0.04842,0,0,70.0*
1,1,0.02421,0.01734,0.01223*
1,1,0.02421,0.00542,-0.02051*
1,1,0.02421,-0.01734,-0.01223*
1,1,0.02421,-0.00542,0.02051*
%
%ADD89ROUNDEDRECTD89*%
%ADD90R,0.07000X0.04600*%
%ADD91O,0.03937X0.01968*%
%ADD92C,0.01149*%
%ADD93C,0.01200*%
G36*
X5754Y87785D02*
X11483Y87221D01*
X17163Y86283D01*
X22769Y84976D01*
X28278Y83305D01*
X33666Y81277D01*
X38032Y79299D01*
X38032Y79299D01*
X38121Y79273D01*
X38649Y79055D01*
X38670Y79049D01*
X41637Y78194D01*
X42885Y77982D01*
X47011Y75600D01*
X51855Y72363D01*
X56476Y68817D01*
X60856Y64976D01*
X64976Y60856D01*
X68817Y56476D01*
X72363Y51855D01*
X75343Y47395D01*
X74910Y46962D01*
X74762Y47062D01*
X74001Y47213D01*
X73240Y47062D01*
X72595Y46631D01*
X72543Y46552D01*
X71780Y46490D01*
X71639Y46640D01*
X71693Y46911D01*
X71542Y47672D01*
X71111Y48317D01*
X70466Y48748D01*
X69717Y48897D01*
X64883Y55153D01*
X64974Y55608D01*
X64822Y56369D01*
X64391Y57014D01*
X63746Y57445D01*
X62985Y57596D01*
X62764Y57552D01*
X57135Y63144D01*
X57176Y63354D01*
X57025Y64114D01*
X56594Y64759D01*
X55949Y65191D01*
X55188Y65342D01*
X54720Y65249D01*
X48430Y70042D01*
X48284Y70776D01*
X47853Y71421D01*
X47208Y71852D01*
X46447Y72003D01*
X45698Y71854D01*
X38838Y75784D01*
X38748Y76240D01*
X38317Y76885D01*
X37672Y77315D01*
X36911Y77467D01*
X36150Y77315D01*
X35962Y77190D01*
X28621Y80203D01*
X28580Y80412D01*
X28149Y81057D01*
X27504Y81488D01*
X26743Y81639D01*
X25982Y81488D01*
X25585Y81222D01*
X17939Y83244D01*
X17524Y83866D01*
X16879Y84297D01*
X16118Y84448D01*
X15357Y84297D01*
X14722Y83873D01*
X6880Y84878D01*
X6622Y85264D01*
X5977Y85695D01*
X5217Y85847D01*
X4456Y85695D01*
X3811Y85264D01*
X3685Y85077D01*
X-4250Y85050D01*
X-4368Y85228D01*
X-5013Y85659D01*
X-5774Y85810D01*
X-6535Y85659D01*
X-7180Y85228D01*
X-7445Y84831D01*
X-15283Y83772D01*
X-15904Y84188D01*
X-16665Y84339D01*
X-17426Y84188D01*
X-18071Y83757D01*
X-18502Y83112D01*
X-18654Y82351D01*
X-18502Y81590D01*
X-18071Y80945D01*
X-17426Y80514D01*
X-16665Y80363D01*
X-15904Y80514D01*
X-15259Y80945D01*
X-14994Y81342D01*
X-7157Y82400D01*
X-6535Y81985D01*
X-5774Y81834D01*
X-5013Y81985D01*
X-4368Y82416D01*
X-4243Y82603D01*
X3692Y82630D01*
X3811Y82452D01*
X4456Y82021D01*
X5217Y81870D01*
X5977Y82021D01*
X6612Y82446D01*
X14454Y81440D01*
X14712Y81054D01*
X15357Y80623D01*
X16118Y80472D01*
X16879Y80623D01*
X17275Y80888D01*
X24922Y78867D01*
X25337Y78245D01*
X25982Y77814D01*
X26743Y77662D01*
X27504Y77814D01*
X27691Y77939D01*
X35032Y74927D01*
X35074Y74718D01*
X35505Y74073D01*
X36150Y73642D01*
X36911Y73491D01*
X37660Y73639D01*
X44519Y69709D01*
X44610Y69254D01*
X45041Y68609D01*
X45686Y68178D01*
X46447Y68027D01*
X46915Y68120D01*
X53206Y63326D01*
X53351Y62593D01*
X53782Y61948D01*
X54427Y61517D01*
X55188Y61365D01*
X55409Y61409D01*
X61039Y55817D01*
X60997Y55608D01*
X61149Y54847D01*
X61580Y54202D01*
X62225Y53771D01*
X62974Y53622D01*
X67807Y47366D01*
X67717Y46911D01*
X67868Y46150D01*
X68299Y45505D01*
X68944Y45074D01*
X69388Y44986D01*
X72671Y39178D01*
X72369Y38660D01*
X67260D01*
X66791Y38567D01*
X66394Y38302D01*
X60848Y32755D01*
X60582Y32358D01*
X60489Y31890D01*
Y26393D01*
X49692Y15596D01*
X49084Y15727D01*
X49030Y15782D01*
X48619Y16398D01*
X47973Y16829D01*
X47213Y16980D01*
X46452Y16829D01*
X45807Y16398D01*
X45376Y15753D01*
X45224Y14992D01*
X45278Y14725D01*
X43623Y13070D01*
X43358Y12673D01*
X43265Y12205D01*
Y-33351D01*
X39257Y-37359D01*
X38275D01*
X37999Y-36759D01*
X38120Y-36150D01*
X38090Y-36000D01*
X38607Y-35523D01*
X38978Y-35597D01*
X39681Y-35457D01*
X40276Y-35059D01*
X40674Y-34464D01*
X40813Y-33762D01*
X40674Y-33059D01*
X40276Y-32464D01*
X39681Y-32066D01*
X38978Y-31926D01*
X38276Y-32066D01*
X37681Y-32464D01*
X37631Y-32538D01*
X37024D01*
X27834Y-23347D01*
X27437Y-23082D01*
X26969Y-22989D01*
X19488D01*
X19020Y-23082D01*
X18623Y-23347D01*
X15748Y-26222D01*
X11815D01*
X11698Y-25634D01*
X12237Y-25410D01*
X15005Y-23880D01*
X17584Y-22050D01*
X19943Y-19943D01*
X22050Y-17584D01*
X23880Y-15005D01*
X25410Y-12237D01*
X26621Y-9315D01*
X27496Y-6276D01*
X28026Y-3158D01*
X28203Y0D01*
X28026Y3158D01*
X27496Y6276D01*
X26621Y9315D01*
X25410Y12237D01*
X23880Y15005D01*
X22050Y17584D01*
X19943Y19943D01*
X17584Y22050D01*
X15005Y23880D01*
X12237Y25410D01*
X9315Y26621D01*
X6276Y27496D01*
X3158Y28026D01*
X0Y28203D01*
X-3158Y28026D01*
X-6276Y27496D01*
X-9315Y26621D01*
X-12237Y25410D01*
X-15005Y23880D01*
X-17584Y22050D01*
X-19943Y19943D01*
X-22050Y17584D01*
X-23880Y15005D01*
X-25410Y12237D01*
X-26621Y9315D01*
X-27496Y6276D01*
X-28026Y3158D01*
X-28203Y0D01*
X-28026Y-3158D01*
X-27496Y-6276D01*
X-26621Y-9315D01*
X-25410Y-12237D01*
X-23880Y-15005D01*
X-22050Y-17584D01*
X-19943Y-19943D01*
X-17584Y-22050D01*
X-15005Y-23880D01*
X-12237Y-25410D01*
X-9315Y-26621D01*
X-6276Y-27496D01*
X-3158Y-28026D01*
X0Y-28203D01*
X3158Y-28026D01*
X6276Y-27496D01*
X7513Y-27140D01*
X7818Y-27657D01*
X4450Y-31025D01*
X4185Y-31422D01*
X4141Y-31639D01*
X949Y-34831D01*
X931Y-34858D01*
X119Y-35671D01*
X-101Y-35999D01*
X-178Y-36387D01*
X-101Y-36775D01*
X119Y-37103D01*
X447Y-37323D01*
X862Y-37474D01*
X1013Y-37888D01*
X1232Y-38217D01*
X1561Y-38436D01*
X1976Y-38587D01*
X2126Y-39002D01*
X2346Y-39330D01*
X2675Y-39550D01*
X3062Y-39627D01*
X3450Y-39550D01*
X3779Y-39330D01*
X4591Y-38518D01*
X4619Y-38500D01*
X6272Y-36846D01*
X6994D01*
X7242Y-37446D01*
X5404Y-39285D01*
X5385Y-39312D01*
X4573Y-40125D01*
X4353Y-40453D01*
X4276Y-40841D01*
X4353Y-41229D01*
X4573Y-41558D01*
X4902Y-41777D01*
X5316Y-41928D01*
X5467Y-42342D01*
X5686Y-42671D01*
X6015Y-42891D01*
X6430Y-43042D01*
X6580Y-43456D01*
X6800Y-43785D01*
X7129Y-44004D01*
X7543Y-44155D01*
X7694Y-44570D01*
X7914Y-44898D01*
X8242Y-45118D01*
X8657Y-45269D01*
X8807Y-45683D01*
X9027Y-46012D01*
X9356Y-46231D01*
X9770Y-46382D01*
X9921Y-46797D01*
X10141Y-47125D01*
X10469Y-47345D01*
X10857Y-47422D01*
X11245Y-47345D01*
X11574Y-47125D01*
X12386Y-46313D01*
X12413Y-46295D01*
X15506Y-43202D01*
X16689D01*
X16855Y-43313D01*
X17323Y-43406D01*
X41255D01*
X41723Y-43313D01*
X42120Y-43048D01*
X48953Y-36215D01*
X49219Y-35818D01*
X49312Y-35349D01*
Y8999D01*
X52046Y11733D01*
X52046Y11733D01*
X63811Y23498D01*
X66764D01*
X66886Y23316D01*
X67531Y22885D01*
X68292Y22734D01*
X69052Y22885D01*
X69697Y23316D01*
X70129Y23961D01*
X70280Y24722D01*
X70129Y25483D01*
X69697Y26128D01*
X69052Y26559D01*
X68292Y26710D01*
X67531Y26559D01*
X66886Y26128D01*
X66764Y25945D01*
X63490D01*
X63304Y25945D01*
X62936Y26484D01*
Y31383D01*
X67766Y36213D01*
X73533D01*
X73655Y36031D01*
X74300Y35600D01*
X74546Y35551D01*
X77739Y28190D01*
X77634Y28033D01*
X77483Y27272D01*
X77634Y26511D01*
X78065Y25866D01*
X78710Y25435D01*
X79471Y25284D01*
X80232Y25435D01*
X80877Y25866D01*
X81308Y26511D01*
X81459Y27272D01*
X81308Y28033D01*
X80877Y28678D01*
X80232Y29109D01*
X79987Y29157D01*
X76793Y36519D01*
X76898Y36676D01*
X77049Y37437D01*
X76898Y38197D01*
X76467Y38842D01*
X75822Y39274D01*
X75378Y39362D01*
X73474Y42730D01*
X73861Y43264D01*
X74001Y43237D01*
X74762Y43388D01*
X75407Y43819D01*
X75838Y44464D01*
X75976Y45159D01*
X76169Y45255D01*
X76574Y45323D01*
X77982Y42885D01*
X78194Y41637D01*
X79049Y38670D01*
X79055Y38649D01*
X79085Y38576D01*
X79298Y38032D01*
X79298Y38032D01*
X79544Y37490D01*
X81277Y33666D01*
X83305Y28278D01*
X84976Y22769D01*
X86283Y17163D01*
X87221Y11483D01*
X87785Y5754D01*
X87973Y0D01*
X87785Y-5754D01*
X87221Y-11483D01*
X86283Y-17163D01*
X84976Y-22769D01*
X83305Y-28278D01*
X81277Y-33666D01*
X79299Y-38032D01*
X79299Y-38032D01*
X79273Y-38121D01*
X79055Y-38649D01*
X79049Y-38670D01*
X78194Y-41637D01*
X77982Y-42885D01*
X75600Y-47011D01*
X72363Y-51855D01*
X68817Y-56476D01*
X64976Y-60856D01*
X60856Y-64976D01*
X56476Y-68817D01*
X51855Y-72363D01*
X47395Y-75343D01*
X46962Y-74910D01*
X47062Y-74762D01*
X47213Y-74001D01*
X47062Y-73240D01*
X46631Y-72595D01*
X46645Y-71883D01*
X46887Y-71688D01*
X46911Y-71693D01*
X47672Y-71542D01*
X48317Y-71111D01*
X48748Y-70466D01*
X48851Y-69945D01*
X55352Y-64923D01*
X55608Y-64974D01*
X56369Y-64822D01*
X57014Y-64391D01*
X57445Y-63746D01*
X57596Y-62985D01*
X57588Y-62945D01*
X63324Y-57171D01*
X63354Y-57176D01*
X64114Y-57025D01*
X64759Y-56594D01*
X65191Y-55949D01*
X65342Y-55188D01*
X65289Y-54920D01*
X70269Y-48384D01*
X70776Y-48284D01*
X71421Y-47853D01*
X71852Y-47208D01*
X72003Y-46447D01*
X71900Y-45926D01*
X75983Y-38798D01*
X76240Y-38748D01*
X76885Y-38317D01*
X77315Y-37672D01*
X77467Y-36911D01*
X77315Y-36150D01*
X77293Y-36116D01*
X80383Y-28586D01*
X80412Y-28580D01*
X81057Y-28149D01*
X81488Y-27504D01*
X81639Y-26743D01*
X81488Y-25982D01*
X81336Y-25755D01*
X83436Y-17811D01*
X83866Y-17524D01*
X84297Y-16879D01*
X84448Y-16118D01*
X84297Y-15357D01*
X84002Y-14915D01*
X85047Y-6768D01*
X85264Y-6622D01*
X85695Y-5977D01*
X85847Y-5217D01*
X85695Y-4456D01*
X85264Y-3811D01*
X85230Y-3788D01*
X85203Y4351D01*
X85228Y4368D01*
X85659Y5013D01*
X85810Y5774D01*
X85659Y6535D01*
X85228Y7180D01*
X85000Y7332D01*
X83901Y15475D01*
X84188Y15904D01*
X84339Y16665D01*
X84188Y17426D01*
X83757Y18071D01*
X83112Y18502D01*
X82351Y18654D01*
X81590Y18502D01*
X80945Y18071D01*
X80514Y17426D01*
X80363Y16665D01*
X80514Y15904D01*
X80945Y15259D01*
X81172Y15108D01*
X82272Y6964D01*
X81985Y6535D01*
X81834Y5774D01*
X81985Y5013D01*
X82416Y4368D01*
X82450Y4345D01*
X82477Y-3794D01*
X82452Y-3811D01*
X82021Y-4456D01*
X81870Y-5217D01*
X82021Y-5977D01*
X82316Y-6419D01*
X81271Y-14567D01*
X81054Y-14712D01*
X80623Y-15357D01*
X80472Y-16118D01*
X80623Y-16879D01*
X80775Y-17106D01*
X78675Y-25050D01*
X78245Y-25337D01*
X77814Y-25982D01*
X77662Y-26743D01*
X77814Y-27504D01*
X77837Y-27538D01*
X74747Y-35068D01*
X74718Y-35074D01*
X74073Y-35505D01*
X73642Y-36150D01*
X73491Y-36911D01*
X73594Y-37431D01*
X69510Y-44559D01*
X69254Y-44610D01*
X68609Y-45041D01*
X68178Y-45686D01*
X68027Y-46447D01*
X68080Y-46715D01*
X63100Y-53250D01*
X62593Y-53351D01*
X61948Y-53782D01*
X61517Y-54427D01*
X61365Y-55188D01*
X61373Y-55229D01*
X55637Y-61003D01*
X55608Y-60997D01*
X54847Y-61149D01*
X54202Y-61580D01*
X53771Y-62225D01*
X53668Y-62745D01*
X47167Y-67768D01*
X46911Y-67717D01*
X46150Y-67868D01*
X45505Y-68299D01*
X45074Y-68944D01*
X45021Y-69210D01*
X37916Y-73336D01*
X37407Y-73234D01*
X36646Y-73386D01*
X36001Y-73817D01*
X35570Y-74462D01*
X35560Y-74514D01*
X27680Y-77808D01*
X27272Y-77727D01*
X26511Y-77878D01*
X25866Y-78310D01*
X25435Y-78954D01*
X25284Y-79715D01*
X25435Y-80476D01*
X25866Y-81121D01*
X26511Y-81552D01*
X27272Y-81704D01*
X28033Y-81552D01*
X28678Y-81121D01*
X29109Y-80476D01*
X29170Y-80170D01*
X36632Y-77050D01*
X36646Y-77060D01*
X37407Y-77211D01*
X38168Y-77060D01*
X38813Y-76629D01*
X39244Y-75984D01*
X39297Y-75717D01*
X42726Y-73726D01*
X43259Y-74111D01*
X43388Y-74762D01*
X43819Y-75407D01*
X44464Y-75838D01*
X45159Y-75976D01*
X45255Y-76169D01*
X45323Y-76574D01*
X42885Y-77982D01*
X41637Y-78194D01*
X38670Y-79049D01*
X38649Y-79055D01*
X38576Y-79085D01*
X38032Y-79298D01*
X38032Y-79298D01*
X37490Y-79544D01*
X33666Y-81277D01*
X28278Y-83305D01*
X22769Y-84976D01*
X17163Y-86283D01*
X11483Y-87221D01*
X5754Y-87785D01*
X0Y-87973D01*
X-5754Y-87785D01*
X-11483Y-87221D01*
X-17163Y-86283D01*
X-22769Y-84976D01*
X-28278Y-83305D01*
X-33666Y-81277D01*
X-38032Y-79299D01*
X-38032Y-79299D01*
X-38121Y-79273D01*
X-38649Y-79055D01*
X-38670Y-79049D01*
X-41637Y-78194D01*
X-42885Y-77982D01*
X-47011Y-75600D01*
X-51855Y-72363D01*
X-56476Y-68817D01*
X-60856Y-64976D01*
X-64976Y-60856D01*
X-68817Y-56476D01*
X-72363Y-51855D01*
X-75600Y-47011D01*
X-77982Y-42885D01*
X-78194Y-41637D01*
X-79049Y-38670D01*
X-79055Y-38649D01*
X-79164Y-38385D01*
X-78833Y-37881D01*
X-78784Y-37844D01*
X-78750Y-37832D01*
X-78048Y-37692D01*
X-77808Y-37532D01*
X-77141Y-37808D01*
X-77069Y-38172D01*
X-76638Y-38817D01*
X-75993Y-39248D01*
X-75724Y-39302D01*
X-71592Y-46404D01*
X-71693Y-46911D01*
X-71542Y-47672D01*
X-71111Y-48317D01*
X-70466Y-48748D01*
X-69945Y-48851D01*
X-64923Y-55352D01*
X-64974Y-55608D01*
X-64822Y-56369D01*
X-64391Y-57014D01*
X-63746Y-57445D01*
X-62985Y-57596D01*
X-62945Y-57588D01*
X-57171Y-63324D01*
X-57176Y-63354D01*
X-57025Y-64114D01*
X-56594Y-64759D01*
X-55949Y-65191D01*
X-55188Y-65342D01*
X-54920Y-65289D01*
X-48384Y-70269D01*
X-48284Y-70776D01*
X-47853Y-71421D01*
X-47208Y-71852D01*
X-46447Y-72003D01*
X-45926Y-71900D01*
X-38798Y-75984D01*
X-38748Y-76240D01*
X-38317Y-76885D01*
X-37672Y-77315D01*
X-36911Y-77467D01*
X-36150Y-77315D01*
X-36126Y-77300D01*
X-28558Y-80469D01*
X-28165Y-81057D01*
X-27520Y-81488D01*
X-26759Y-81640D01*
X-25998Y-81488D01*
X-25842Y-81384D01*
X-17802Y-83448D01*
X-17524Y-83866D01*
X-16879Y-84297D01*
X-16118Y-84448D01*
X-15357Y-84297D01*
X-14915Y-84002D01*
X-6768Y-85047D01*
X-6622Y-85264D01*
X-5977Y-85695D01*
X-5217Y-85847D01*
X-4456Y-85695D01*
X-3811Y-85264D01*
X-3791Y-85235D01*
X4378D01*
X5013Y-85659D01*
X5774Y-85810D01*
X6535Y-85659D01*
X7180Y-85228D01*
X7332Y-85000D01*
X15475Y-83901D01*
X15904Y-84188D01*
X16665Y-84339D01*
X17426Y-84188D01*
X18071Y-83757D01*
X18502Y-83112D01*
X18654Y-82351D01*
X18502Y-81590D01*
X18071Y-80945D01*
X17426Y-80514D01*
X16665Y-80363D01*
X15904Y-80514D01*
X15259Y-80945D01*
X15108Y-81172D01*
X6964Y-82272D01*
X6535Y-81985D01*
X5774Y-81834D01*
X5013Y-81985D01*
X4368Y-82416D01*
X4324Y-82482D01*
X-3791D01*
X-3811Y-82452D01*
X-4456Y-82021D01*
X-5217Y-81870D01*
X-5977Y-82021D01*
X-6419Y-82316D01*
X-14567Y-81271D01*
X-14712Y-81054D01*
X-15357Y-80623D01*
X-16118Y-80472D01*
X-16879Y-80623D01*
X-17117Y-80782D01*
X-20047Y-80030D01*
X-19972Y-79430D01*
X-17323Y-79430D01*
X-8315D01*
X-7847Y-79337D01*
X-7450Y-79071D01*
X-3625Y-75246D01*
X-3360Y-74849D01*
X-3267Y-74381D01*
Y-68725D01*
X-3360Y-68257D01*
X-3625Y-67860D01*
X-4246Y-67239D01*
X-4038Y-66598D01*
X-3570Y-66505D01*
X-2925Y-66074D01*
X-2899Y-66035D01*
X-2165Y-65911D01*
X-1792Y-66161D01*
X-1031Y-66312D01*
X-270Y-66161D01*
X245Y-65816D01*
X383Y-65730D01*
X622Y-65754D01*
X2268Y-64108D01*
X2692Y-64533D01*
X3116Y-64108D01*
X4621Y-65613D01*
X4629Y-65604D01*
X4660Y-65558D01*
X5310Y-65460D01*
X5335Y-65481D01*
X5176Y-66114D01*
X5139Y-66121D01*
X4672Y-66434D01*
X4663Y-66442D01*
X6167Y-67947D01*
X7672Y-69451D01*
X7681Y-69442D01*
X7993Y-68975D01*
X8061Y-68633D01*
X8077Y-68628D01*
X8678Y-68608D01*
X8690Y-68656D01*
X8729Y-68678D01*
X8747Y-68720D01*
X9382Y-69356D01*
X9479Y-69396D01*
X9548Y-69476D01*
X9700Y-69488D01*
X9841Y-69546D01*
X10464Y-69765D01*
X10543Y-70091D01*
X10969Y-70672D01*
X11585Y-71046D01*
X13860Y-71874D01*
X14572Y-71983D01*
X15272Y-71812D01*
X15853Y-71386D01*
X15983Y-71172D01*
X15996Y-71160D01*
X16136Y-71056D01*
X16748Y-70996D01*
X16765Y-71003D01*
X16781Y-71014D01*
X16839Y-71001D01*
X16894Y-71023D01*
X18185Y-71023D01*
X18209Y-71028D01*
X18233Y-71023D01*
X21260Y-71023D01*
X21719Y-70833D01*
X22841Y-69711D01*
X22853Y-69703D01*
X22860Y-69692D01*
X23294Y-69258D01*
X23484Y-68799D01*
X23484Y-65255D01*
X23484Y-65255D01*
X23484Y-65255D01*
X23390Y-65028D01*
X23294Y-64796D01*
X23294Y-64796D01*
X23294Y-64796D01*
X22607Y-64109D01*
X22836Y-63555D01*
X24951D01*
X25170Y-63883D01*
X25815Y-64314D01*
X26576Y-64465D01*
X27337Y-64314D01*
X27982Y-63883D01*
X28413Y-63238D01*
X28460Y-63001D01*
X28662Y-62493D01*
X29112Y-62565D01*
X29429Y-62628D01*
X30190Y-62477D01*
X30835Y-62046D01*
X31266Y-61401D01*
X31417Y-60640D01*
X31273Y-59914D01*
X31271Y-59809D01*
X31340Y-59697D01*
X31706Y-59609D01*
X32336Y-60008D01*
X32415Y-60407D01*
X32846Y-61051D01*
X33491Y-61483D01*
X34252Y-61634D01*
X35013Y-61483D01*
X35658Y-61051D01*
X36089Y-60407D01*
X36240Y-59646D01*
X36089Y-58885D01*
X35800Y-58452D01*
X35844Y-57736D01*
X35887Y-57671D01*
X36317Y-57028D01*
X36468Y-56267D01*
X36317Y-55507D01*
X36028Y-55075D01*
X35951Y-54731D01*
X36157Y-54321D01*
X36544Y-54063D01*
X36921Y-53499D01*
X37139Y-53346D01*
X37530Y-53184D01*
X37723Y-53313D01*
X38484Y-53465D01*
X39245Y-53313D01*
X39890Y-52882D01*
X40321Y-52237D01*
X40472Y-51476D01*
X40321Y-50716D01*
X39890Y-50071D01*
X39245Y-49639D01*
X38484Y-49488D01*
X37723Y-49639D01*
X37563Y-49747D01*
X36333Y-48516D01*
X35936Y-48251D01*
X35468Y-48158D01*
X22299D01*
X21831Y-48251D01*
X21434Y-48516D01*
X19796Y-50154D01*
X13878D01*
X13410Y-50248D01*
X13244Y-50358D01*
X12351D01*
X11300Y-49307D01*
X11272Y-49289D01*
X10460Y-48476D01*
X10131Y-48257D01*
X9744Y-48180D01*
X9356Y-48257D01*
X9027Y-48476D01*
X8807Y-48805D01*
X8657Y-49220D01*
X8242Y-49371D01*
X7914Y-49590D01*
X7694Y-49919D01*
X7543Y-50333D01*
X7129Y-50484D01*
X6800Y-50704D01*
X6581Y-51032D01*
X6430Y-51447D01*
X6015Y-51597D01*
X5686Y-51817D01*
X5467Y-52146D01*
X5316Y-52560D01*
X4902Y-52711D01*
X4573Y-52930D01*
X4353Y-53259D01*
X4203Y-53674D01*
X3788Y-53825D01*
X3459Y-54044D01*
X3240Y-54373D01*
X3089Y-54787D01*
X2675Y-54938D01*
X2346Y-55158D01*
X2126Y-55486D01*
X1754Y-55677D01*
X1522Y-55727D01*
X1288Y-55769D01*
X1281Y-55780D01*
X1269Y-55783D01*
X1055Y-55931D01*
X991Y-56030D01*
X892Y-56094D01*
X743Y-56308D01*
X741Y-56320D01*
X730Y-56327D01*
X688Y-56561D01*
X637Y-56793D01*
X447Y-57165D01*
X-0Y-57339D01*
X-447Y-57165D01*
X-862Y-57014D01*
X-1013Y-56600D01*
X-1232Y-56271D01*
X-1561Y-56052D01*
X-1976Y-55901D01*
X-2126Y-55486D01*
X-2346Y-55158D01*
X-2675Y-54938D01*
X-3089Y-54787D01*
X-3240Y-54373D01*
X-3459Y-54044D01*
X-3788Y-53825D01*
X-4203Y-53674D01*
X-4353Y-53259D01*
X-4573Y-52931D01*
X-4902Y-52711D01*
X-5316Y-52560D01*
X-5467Y-52146D01*
X-5686Y-51817D01*
X-6015Y-51597D01*
X-6430Y-51447D01*
X-6580Y-51032D01*
X-6800Y-50704D01*
X-7129Y-50484D01*
X-7543Y-50333D01*
X-7694Y-49919D01*
X-7914Y-49590D01*
X-8242Y-49370D01*
X-8630Y-49293D01*
X-9018Y-49370D01*
X-9347Y-49590D01*
X-10159Y-50402D01*
X-10186Y-50420D01*
X-11600Y-51835D01*
X-13976D01*
X-14367Y-51912D01*
X-14697Y-52133D01*
X-16720Y-54156D01*
X-16929Y-54114D01*
X-17690Y-54265D01*
X-18335Y-54697D01*
X-18766Y-55342D01*
X-18917Y-56102D01*
X-18766Y-56863D01*
X-18531Y-57215D01*
X-18852Y-57815D01*
X-20032D01*
X-20141Y-57860D01*
X-20192Y-57850D01*
X-20768Y-57964D01*
X-21343Y-57850D01*
X-21395Y-57860D01*
X-21504Y-57815D01*
X-22270D01*
X-23562Y-56523D01*
X-23624Y-56498D01*
X-23661Y-56443D01*
X-23959Y-56243D01*
X-24159Y-55944D01*
X-24215Y-55907D01*
X-24240Y-55846D01*
X-24252Y-55833D01*
Y-55733D01*
X-24278Y-55672D01*
X-24265Y-55606D01*
X-24303Y-55413D01*
X-24265Y-55220D01*
X-24278Y-55155D01*
X-24252Y-55094D01*
X-24252Y-54501D01*
X-23780Y-54030D01*
X-23012Y-54110D01*
X-22966Y-54179D01*
X-22904Y-54241D01*
X-21453Y-52789D01*
X-21029Y-53214D01*
X-20604Y-52789D01*
X-19100Y-54294D01*
X-19091Y-54285D01*
X-18779Y-53818D01*
X-18669Y-53267D01*
X-18679Y-53216D01*
X-18376Y-52802D01*
X-18178Y-52660D01*
X-17815Y-52588D01*
X-17414Y-52320D01*
X-16548Y-51454D01*
X-16280Y-51053D01*
X-16186Y-50580D01*
X-16280Y-50107D01*
X-16360Y-49987D01*
X-15621Y-49248D01*
X-14053D01*
X-13541Y-49749D01*
X-13464Y-50137D01*
X-13244Y-50466D01*
X-12915Y-50686D01*
X-12528Y-50763D01*
X-12140Y-50686D01*
X-11811Y-50466D01*
X-10999Y-49654D01*
X-10971Y-49635D01*
X-10953Y-49608D01*
X-10141Y-48796D01*
X-9921Y-48467D01*
X-9844Y-48079D01*
X-9921Y-47692D01*
X-10141Y-47363D01*
X-9921Y-46797D01*
X-9909Y-46765D01*
X-9907Y-46761D01*
X-9770Y-46382D01*
X-9356Y-46231D01*
X-9027Y-46012D01*
X-8808Y-45683D01*
X-8657Y-45269D01*
X-8242Y-45118D01*
X-7914Y-44898D01*
X-7694Y-44569D01*
X-7543Y-44155D01*
X-7129Y-44004D01*
X-6800Y-43785D01*
X-6581Y-43456D01*
X-6430Y-43041D01*
X-6015Y-42891D01*
X-5686Y-42671D01*
X-5467Y-42342D01*
X-5316Y-41928D01*
X-4902Y-41777D01*
X-4573Y-41558D01*
X-4353Y-41229D01*
X-4203Y-40814D01*
X-3788Y-40664D01*
X-3460Y-40444D01*
X-3240Y-40115D01*
X-3089Y-39701D01*
X-2675Y-39550D01*
X-2346Y-39330D01*
X-2126Y-39002D01*
X-2049Y-38614D01*
X-2126Y-38226D01*
X-2346Y-37898D01*
X-3158Y-37085D01*
X-3176Y-37058D01*
X-4007Y-36227D01*
X-4007Y-36227D01*
X-13091Y-27144D01*
X-13421Y-26923D01*
X-13812Y-26845D01*
X-19252D01*
X-19597Y-26500D01*
Y-26153D01*
X-19675Y-25763D01*
X-19896Y-25432D01*
X-21184Y-24144D01*
X-21515Y-23923D01*
X-21905Y-23845D01*
X-24176D01*
X-24566Y-23923D01*
X-24896Y-24144D01*
X-25105Y-24352D01*
X-32867D01*
X-34512Y-22708D01*
Y-20472D01*
X-34589Y-20082D01*
X-34811Y-19751D01*
X-36265Y-18297D01*
Y-17271D01*
X-36359Y-16798D01*
X-36627Y-16397D01*
X-37028Y-16129D01*
X-37169Y-16101D01*
Y-15494D01*
X-37028Y-15466D01*
X-36627Y-15198D01*
X-36359Y-14797D01*
X-36265Y-14323D01*
Y-13099D01*
X-36359Y-12625D01*
X-36565Y-12318D01*
X-36604Y-12077D01*
X-36526Y-11570D01*
X-36483Y-11542D01*
X-36171Y-11075D01*
X-36061Y-10524D01*
Y-10511D01*
X-38189D01*
Y-9311D01*
X-36061D01*
Y-9298D01*
X-36171Y-8747D01*
X-36483Y-8280D01*
X-36950Y-7968D01*
X-37501Y-7858D01*
X-38060D01*
X-38504Y-7258D01*
X-38440Y-6937D01*
X-38580Y-6235D01*
X-38978Y-5639D01*
X-39573Y-5241D01*
X-39650Y-5226D01*
X-39980Y-4639D01*
X-39972Y-4597D01*
X-39840Y-3937D01*
X-39980Y-3235D01*
X-40378Y-2639D01*
X-40973Y-2241D01*
X-41565Y-2124D01*
X-41744Y-1796D01*
X-41806Y-1516D01*
X-41729Y-1439D01*
X-41508Y-1108D01*
X-41431Y-718D01*
Y3769D01*
X-41508Y4159D01*
X-41729Y4490D01*
X-43232Y5993D01*
X-43202Y6143D01*
X-43341Y6846D01*
X-43739Y7441D01*
X-44335Y7839D01*
X-45037Y7978D01*
X-45739Y7839D01*
X-45812Y7790D01*
X-45924Y7959D01*
X-46325Y8227D01*
X-46799Y8321D01*
X-48024D01*
X-48497Y8227D01*
X-48898Y7959D01*
X-48954Y7875D01*
X-49668Y7875D01*
X-49724Y7959D01*
X-50125Y8227D01*
X-50599Y8321D01*
X-51693D01*
X-53148Y9776D01*
X-53180Y9798D01*
X-52998Y10398D01*
X-31102D01*
X-30712Y10475D01*
X-30381Y10696D01*
X-27887Y13191D01*
X-27559Y13125D01*
X-26857Y13265D01*
X-26261Y13663D01*
X-25864Y14258D01*
X-25724Y14961D01*
X-25864Y15663D01*
X-26261Y16258D01*
X-26857Y16656D01*
X-27559Y16796D01*
X-28261Y16656D01*
X-28857Y16258D01*
X-29255Y15663D01*
X-29394Y14961D01*
X-29329Y14633D01*
X-31525Y12437D01*
X-54695D01*
X-55015Y13037D01*
X-54834Y13309D01*
X-54682Y14069D01*
X-54834Y14830D01*
X-55265Y15475D01*
X-55910Y15906D01*
X-56671Y16058D01*
X-57432Y15906D01*
X-58077Y15475D01*
X-58508Y14830D01*
X-58659Y14069D01*
X-58508Y13309D01*
X-58326Y13037D01*
X-58647Y12437D01*
X-66929D01*
X-67319Y12359D01*
X-67650Y12138D01*
X-69422Y10367D01*
X-69643Y10036D01*
X-69720Y9646D01*
Y984D01*
X-69643Y594D01*
X-69422Y263D01*
X-68437Y-721D01*
X-68107Y-942D01*
X-67716Y-1020D01*
X-67092D01*
Y-2900D01*
X-67092Y-2900D01*
X-67092Y-2900D01*
X-67141Y-3096D01*
X-67141Y-3096D01*
X-67143Y-3441D01*
X-67143Y-3441D01*
X-67118Y-3503D01*
X-67132Y-3569D01*
X-67000Y-4247D01*
X-66963Y-4303D01*
X-66963Y-4370D01*
X-66701Y-5009D01*
X-66654Y-5056D01*
X-66641Y-5122D01*
X-66258Y-5697D01*
X-66202Y-5734D01*
X-66176Y-5796D01*
X-65688Y-6284D01*
X-65626Y-6310D01*
X-65589Y-6366D01*
X-65014Y-6749D01*
X-64948Y-6762D01*
X-64901Y-6809D01*
X-64262Y-7071D01*
X-64195Y-7071D01*
X-64139Y-7108D01*
X-63461Y-7239D01*
X-63396Y-7226D01*
X-63333Y-7251D01*
X-62988Y-7249D01*
X-62988Y-7249D01*
X-62651Y-7251D01*
X-62589Y-7226D01*
X-62523Y-7239D01*
X-61845Y-7108D01*
X-61789Y-7071D01*
X-61722Y-7071D01*
X-61084Y-6809D01*
X-61036Y-6762D01*
X-60970Y-6749D01*
X-60395Y-6366D01*
X-60365Y-6320D01*
X-54245D01*
X-53976Y-6920D01*
X-54271Y-7361D01*
X-54422Y-8122D01*
X-54271Y-8883D01*
X-53840Y-9528D01*
X-53195Y-9959D01*
X-52434Y-10110D01*
X-51673Y-9959D01*
X-51028Y-9528D01*
X-50597Y-8883D01*
X-50446Y-8122D01*
X-50597Y-7361D01*
X-51028Y-6716D01*
X-51673Y-6285D01*
X-52296Y-6161D01*
X-52496Y-5765D01*
X-52532Y-5549D01*
X-50490Y-3507D01*
X-50269Y-3176D01*
X-50191Y-2786D01*
Y-169D01*
X-50125Y-156D01*
X-49724Y112D01*
X-49668Y196D01*
X-48954Y196D01*
X-48898Y112D01*
X-48497Y-156D01*
X-48024Y-250D01*
X-46799D01*
X-46295Y-762D01*
Y-28774D01*
X-46218Y-29164D01*
X-45997Y-29495D01*
X-45423Y-30069D01*
X-45423Y-30069D01*
X-41306Y-34185D01*
X-40975Y-34407D01*
X-40585Y-34484D01*
X-19072D01*
X-18824Y-35084D01*
X-19521Y-35782D01*
X-19834Y-36249D01*
X-19943Y-36800D01*
X-19834Y-37351D01*
X-19521Y-37819D01*
X-19512Y-37827D01*
X-18008Y-36323D01*
X-17159Y-37171D01*
X-18664Y-38676D01*
X-18655Y-38685D01*
X-18188Y-38997D01*
X-18140Y-39006D01*
X-18013Y-39643D01*
X-18138Y-39727D01*
X-18569Y-40372D01*
X-18721Y-41133D01*
X-18569Y-41894D01*
X-18415Y-42125D01*
X-18738Y-42514D01*
X-18830Y-42583D01*
X-19162Y-42517D01*
X-19361Y-42375D01*
X-19663Y-41961D01*
X-19653Y-41911D01*
X-19763Y-41359D01*
X-20075Y-40892D01*
X-20084Y-40883D01*
X-21589Y-42388D01*
X-23093Y-43892D01*
X-23084Y-43901D01*
X-22969Y-43978D01*
X-22886Y-44634D01*
X-23542Y-44551D01*
X-23618Y-44436D01*
X-23627Y-44427D01*
X-25132Y-45931D01*
X-25556Y-45507D01*
X-25980Y-45931D01*
X-27432Y-44480D01*
X-27494Y-44542D01*
X-27806Y-45009D01*
X-27915Y-45560D01*
X-27806Y-46111D01*
X-27555Y-46487D01*
X-27730Y-47087D01*
X-29232D01*
X-29691Y-47277D01*
X-31685Y-49271D01*
X-32238Y-48975D01*
X-32134Y-48454D01*
X-32291Y-47669D01*
X-32735Y-47004D01*
X-33542Y-46197D01*
X-35848Y-48502D01*
X-38154Y-50808D01*
X-37346Y-51616D01*
X-36681Y-52060D01*
X-35897Y-52216D01*
X-35375Y-52112D01*
X-35080Y-52665D01*
X-35105Y-52690D01*
X-35295Y-53150D01*
X-35295Y-56201D01*
X-35105Y-56660D01*
X-29298Y-62467D01*
X-28839Y-62657D01*
X-20972Y-62657D01*
X-20846Y-62711D01*
X-20810Y-62744D01*
X-20505Y-63261D01*
X-20817Y-63728D01*
X-20927Y-64280D01*
Y-64292D01*
X-18799D01*
X-16671D01*
Y-64280D01*
X-16781Y-63728D01*
X-17093Y-63261D01*
X-16903Y-62714D01*
X-16849Y-62634D01*
X-16590Y-62573D01*
X-16500Y-62624D01*
X-16463Y-62613D01*
X-16428Y-62628D01*
X-16094Y-62630D01*
X-16086Y-62627D01*
X-16078Y-62630D01*
X-15857Y-62533D01*
X-15687Y-62587D01*
X-15593Y-62717D01*
X-15387Y-63261D01*
X-15699Y-63728D01*
X-15809Y-64280D01*
Y-64292D01*
X-13681D01*
Y-64892D01*
X-13081D01*
Y-66945D01*
X-12994D01*
X-12852Y-66917D01*
X-12252Y-67375D01*
Y-69688D01*
X-13889Y-71325D01*
X-14540Y-71127D01*
X-14596Y-70845D01*
X-15027Y-70200D01*
X-15673Y-69769D01*
X-16433Y-69617D01*
X-17194Y-69769D01*
X-17839Y-70200D01*
X-18270Y-70845D01*
X-18421Y-71605D01*
X-18270Y-72366D01*
X-18123Y-72586D01*
X-18444Y-73186D01*
X-19873D01*
X-23560Y-72146D01*
X-28242Y-70419D01*
X-32596Y-68412D01*
X-34271Y-66737D01*
X-34182Y-66267D01*
X-34049Y-66081D01*
X-33789Y-66029D01*
X-33144Y-65598D01*
X-32713Y-64953D01*
X-32561Y-64192D01*
X-32713Y-63432D01*
X-33144Y-62787D01*
X-33789Y-62356D01*
X-34550Y-62204D01*
X-35311Y-62356D01*
X-35609Y-62555D01*
X-36260Y-62268D01*
X-36659Y-59662D01*
X-36718Y-59080D01*
D01*
X-36810Y-58512D01*
X-36815Y-58481D01*
X-36904Y-57571D01*
X-37460Y-55739D01*
X-38363Y-54050D01*
X-39210Y-53018D01*
X-39578Y-52570D01*
X-39578Y-52570D01*
X-39580Y-52572D01*
X-40674Y-51674D01*
X-40975Y-51427D01*
X-41153Y-51331D01*
X-41660Y-51012D01*
X-49049Y-46291D01*
X-49507Y-45967D01*
X-49507Y-45963D01*
X-49507Y-45963D01*
X-49518Y-45959D01*
X-49987Y-45627D01*
X-50218Y-45450D01*
X-51025Y-45116D01*
X-51891Y-45002D01*
Y-45007D01*
X-54754D01*
X-54876Y-44824D01*
X-55521Y-44393D01*
X-56282Y-44242D01*
X-57042Y-44393D01*
X-57687Y-44824D01*
X-58118Y-45469D01*
X-58270Y-46230D01*
X-58118Y-46991D01*
X-57687Y-47636D01*
X-57042Y-48067D01*
X-56282Y-48219D01*
X-55521Y-48067D01*
X-54876Y-47636D01*
X-54754Y-47454D01*
X-51891D01*
Y-47463D01*
X-51777Y-47486D01*
X-51278Y-47729D01*
X-51276Y-47732D01*
X-51253Y-47747D01*
X-50850Y-48044D01*
X-50813Y-48068D01*
X-46042Y-51116D01*
X-46248Y-51696D01*
X-48516D01*
X-48638Y-51514D01*
X-49283Y-51083D01*
X-50044Y-50932D01*
X-50805Y-51083D01*
X-51450Y-51514D01*
X-51881Y-52159D01*
X-52032Y-52920D01*
X-51881Y-53681D01*
X-51450Y-54326D01*
X-50805Y-54757D01*
X-50044Y-54908D01*
X-49283Y-54757D01*
X-48638Y-54326D01*
X-48516Y-54143D01*
X-46089D01*
X-46041Y-54134D01*
X-44807Y-54296D01*
X-43612Y-54791D01*
X-43047Y-55225D01*
X-42597Y-55590D01*
X-42232Y-56033D01*
X-41765Y-56641D01*
X-41831Y-56841D01*
X-42167Y-57172D01*
X-42605Y-57085D01*
X-43366Y-57237D01*
X-44011Y-57668D01*
X-44442Y-58313D01*
X-44593Y-59073D01*
X-44442Y-59834D01*
X-44011Y-60479D01*
X-43850Y-60587D01*
X-43670Y-62878D01*
X-43132Y-65118D01*
X-42251Y-67245D01*
X-41048Y-69209D01*
X-39585Y-70921D01*
X-39585Y-70921D01*
X-39571Y-70935D01*
X-39571Y-70935D01*
X-39140Y-71320D01*
X-37778Y-72537D01*
X-37888Y-73243D01*
X-37976Y-73282D01*
X-44559Y-69510D01*
X-44610Y-69254D01*
X-45041Y-68609D01*
X-45686Y-68178D01*
X-46447Y-68027D01*
X-46715Y-68080D01*
X-53250Y-63100D01*
X-53351Y-62593D01*
X-53782Y-61948D01*
X-54427Y-61517D01*
X-55188Y-61365D01*
X-55229Y-61373D01*
X-61003Y-55637D01*
X-60997Y-55608D01*
X-61149Y-54847D01*
X-61580Y-54202D01*
X-62225Y-53771D01*
X-62745Y-53668D01*
X-67768Y-47167D01*
X-67717Y-46911D01*
X-67868Y-46150D01*
X-68299Y-45505D01*
X-68944Y-45074D01*
X-69212Y-45021D01*
X-73344Y-37918D01*
X-73243Y-37411D01*
X-73395Y-36651D01*
X-73826Y-36006D01*
X-74471Y-35575D01*
X-74511Y-35567D01*
X-77651Y-28057D01*
X-77634Y-28033D01*
X-77483Y-27272D01*
X-77634Y-26511D01*
X-78065Y-25866D01*
X-78710Y-25435D01*
X-79471Y-25284D01*
X-80232Y-25435D01*
X-80877Y-25866D01*
X-81308Y-26511D01*
X-81459Y-27272D01*
X-81308Y-28033D01*
X-80877Y-28678D01*
X-80232Y-29109D01*
X-80192Y-29117D01*
X-78397Y-33409D01*
X-78730Y-33817D01*
X-78852Y-33876D01*
X-79570Y-34019D01*
X-80215Y-34450D01*
X-80293Y-34567D01*
X-80891Y-34518D01*
X-81277Y-33666D01*
X-83305Y-28278D01*
X-84976Y-22769D01*
X-86283Y-17163D01*
X-86548Y-15556D01*
X-86014Y-15111D01*
X-85541Y-15205D01*
X-84780Y-15054D01*
X-84581Y-14921D01*
X-83936Y-15211D01*
X-83807Y-16172D01*
X-84061Y-16553D01*
X-84212Y-17314D01*
X-84061Y-18075D01*
X-83630Y-18720D01*
X-82985Y-19151D01*
X-82224Y-19302D01*
X-81463Y-19151D01*
X-80818Y-18720D01*
X-80387Y-18075D01*
X-80236Y-17314D01*
X-80387Y-16553D01*
X-80818Y-15908D01*
X-81089Y-15727D01*
X-82272Y-6964D01*
X-81985Y-6535D01*
X-81834Y-5774D01*
X-81985Y-5013D01*
X-82416Y-4368D01*
X-82450Y-4345D01*
X-82477Y3794D01*
X-82452Y3811D01*
X-82021Y4456D01*
X-81870Y5217D01*
X-82021Y5977D01*
X-82316Y6419D01*
X-81271Y14567D01*
X-81054Y14712D01*
X-80623Y15357D01*
X-80472Y16118D01*
X-80623Y16879D01*
X-80775Y17106D01*
X-78675Y25050D01*
X-78245Y25337D01*
X-77814Y25982D01*
X-77662Y26743D01*
X-77814Y27504D01*
X-77837Y27538D01*
X-74747Y35068D01*
X-74718Y35074D01*
X-74073Y35505D01*
X-73642Y36150D01*
X-73491Y36911D01*
X-73594Y37431D01*
X-69510Y44559D01*
X-69254Y44610D01*
X-68609Y45041D01*
X-68178Y45686D01*
X-68027Y46447D01*
X-68080Y46715D01*
X-63100Y53250D01*
X-62593Y53351D01*
X-61948Y53782D01*
X-61517Y54427D01*
X-61365Y55188D01*
X-61373Y55229D01*
X-55637Y61003D01*
X-55608Y60997D01*
X-54847Y61149D01*
X-54202Y61580D01*
X-53771Y62225D01*
X-53668Y62745D01*
X-47167Y67768D01*
X-46911Y67717D01*
X-46150Y67868D01*
X-45505Y68299D01*
X-45074Y68944D01*
X-45021Y69212D01*
X-37918Y73344D01*
X-37411Y73243D01*
X-36651Y73395D01*
X-36006Y73826D01*
X-35575Y74471D01*
X-35567Y74511D01*
X-28057Y77651D01*
X-28033Y77634D01*
X-27272Y77483D01*
X-26511Y77634D01*
X-25866Y78065D01*
X-25435Y78710D01*
X-25284Y79471D01*
X-25435Y80232D01*
X-25866Y80877D01*
X-26511Y81308D01*
X-27272Y81459D01*
X-28033Y81308D01*
X-28678Y80877D01*
X-29109Y80232D01*
X-29117Y80192D01*
X-36626Y77052D01*
X-36651Y77069D01*
X-37411Y77220D01*
X-38172Y77069D01*
X-38817Y76638D01*
X-39248Y75993D01*
X-39302Y75724D01*
X-46404Y71592D01*
X-46911Y71693D01*
X-47672Y71542D01*
X-48317Y71111D01*
X-48748Y70466D01*
X-48851Y69945D01*
X-55352Y64923D01*
X-55608Y64974D01*
X-56369Y64822D01*
X-57014Y64391D01*
X-57445Y63746D01*
X-57596Y62985D01*
X-57588Y62945D01*
X-63324Y57171D01*
X-63354Y57176D01*
X-64114Y57025D01*
X-64759Y56594D01*
X-65191Y55949D01*
X-65342Y55188D01*
X-65289Y54920D01*
X-70269Y48384D01*
X-70776Y48284D01*
X-71421Y47853D01*
X-71852Y47208D01*
X-72003Y46447D01*
X-71900Y45926D01*
X-75984Y38798D01*
X-76240Y38748D01*
X-76885Y38317D01*
X-77315Y37672D01*
X-77467Y36911D01*
X-77315Y36150D01*
X-77293Y36116D01*
X-80383Y28586D01*
X-80412Y28580D01*
X-81057Y28149D01*
X-81488Y27504D01*
X-81639Y26743D01*
X-81488Y25982D01*
X-81336Y25755D01*
X-83436Y17811D01*
X-83866Y17524D01*
X-84297Y16879D01*
X-84448Y16118D01*
X-84297Y15357D01*
X-84002Y14915D01*
X-85047Y6767D01*
X-85264Y6622D01*
X-85695Y5977D01*
X-85847Y5217D01*
X-85695Y4456D01*
X-85264Y3811D01*
X-85230Y3788D01*
X-85203Y-4351D01*
X-85228Y-4368D01*
X-85659Y-5013D01*
X-85810Y-5774D01*
X-85659Y-6535D01*
X-85228Y-7180D01*
X-85000Y-7332D01*
X-84520Y-10887D01*
X-85067Y-11323D01*
X-85541Y-11229D01*
X-86302Y-11380D01*
X-86597Y-11577D01*
X-86842Y-11540D01*
X-87240Y-11285D01*
X-87785Y-5754D01*
X-87973Y0D01*
X-87785Y5754D01*
X-87221Y11483D01*
X-86283Y17163D01*
X-84976Y22769D01*
X-83305Y28278D01*
X-81277Y33666D01*
X-79299Y38032D01*
X-79299Y38032D01*
X-79273Y38121D01*
X-79055Y38649D01*
X-79049Y38670D01*
X-78194Y41637D01*
X-77982Y42885D01*
X-75600Y47011D01*
X-72363Y51855D01*
X-68817Y56476D01*
X-64976Y60856D01*
X-60856Y64976D01*
X-56476Y68817D01*
X-51855Y72363D01*
X-47011Y75600D01*
X-42885Y77982D01*
X-41637Y78194D01*
X-38670Y79049D01*
X-38649Y79055D01*
X-38576Y79085D01*
X-38032Y79298D01*
X-38032Y79298D01*
X-37490Y79544D01*
X-33666Y81277D01*
X-28278Y83305D01*
X-22769Y84976D01*
X-17163Y86283D01*
X-11483Y87221D01*
X-5754Y87785D01*
X0Y87973D01*
X5754Y87785D01*
D02*
G37*
G36*
X-61969Y6470D02*
X-61330Y6208D01*
X-60755Y5825D01*
X-60267Y5337D01*
X-59884Y4762D01*
X-59622Y4123D01*
X-59490Y3445D01*
X-59492Y3100D01*
X-59492Y3100D01*
X-66492Y3100D01*
X-66494Y3445D01*
X-66362Y4123D01*
X-66100Y4762D01*
X-65717Y5337D01*
X-65229Y5825D01*
X-64654Y6208D01*
X-64015Y6470D01*
X-63337Y6602D01*
X-62992Y6600D01*
X-62992Y6600D01*
X-62647Y6602D01*
X-61969Y6470D01*
D02*
G37*
G36*
X-59490Y-3445D02*
X-59622Y-4123D01*
X-59884Y-4762D01*
X-60267Y-5337D01*
X-60755Y-5825D01*
X-61330Y-6208D01*
X-61969Y-6470D01*
X-62647Y-6602D01*
X-62992Y-6600D01*
X-62992Y-6600D01*
X-63337Y-6602D01*
X-64015Y-6470D01*
X-64654Y-6208D01*
X-65229Y-5825D01*
X-65717Y-5337D01*
X-66100Y-4762D01*
X-66362Y-4123D01*
X-66494Y-3445D01*
X-66492Y-3100D01*
X-66492Y-3100D01*
X-59492Y-3100D01*
X-59490Y-3445D01*
D02*
G37*
G36*
X-11300Y-45181D02*
X-11272Y-45199D01*
X-10599Y-45873D01*
X-10514Y-46402D01*
X-10551Y-46673D01*
X-10966Y-47088D01*
X-11245Y-47143D01*
X-11574Y-47363D01*
X-11694Y-47483D01*
X-11988Y-47286D01*
X-12378Y-47209D01*
X-16043D01*
X-16433Y-47286D01*
X-16764Y-47507D01*
X-17781Y-48524D01*
X-17834D01*
X-17921Y-48465D01*
X-18395Y-48371D01*
X-18868Y-48465D01*
X-18955Y-48524D01*
X-19193D01*
X-24902Y-54232D01*
X-24902Y-55094D01*
X-24965Y-55413D01*
X-24902Y-55733D01*
X-24902Y-56102D01*
X-24699Y-56305D01*
X-24428Y-56711D01*
X-24021Y-56983D01*
X-22539Y-58465D01*
X-21504D01*
X-21470Y-58487D01*
X-20768Y-58627D01*
X-20065Y-58487D01*
X-20032Y-58465D01*
X-13484D01*
X-12996Y-57977D01*
X-12822Y-57942D01*
X-12178Y-57511D01*
X-11746Y-56866D01*
X-11712Y-56692D01*
X-10356Y-55336D01*
X-10037Y-55273D01*
X-9706Y-55052D01*
X-7631Y-52976D01*
X-7612Y-52949D01*
X-7038Y-52374D01*
X-6313Y-52351D01*
X-5992Y-52673D01*
X-6006Y-52931D01*
X-7508Y-54432D01*
X-7535Y-54451D01*
X-11128Y-58043D01*
X-11323Y-58082D01*
X-11720Y-58347D01*
X-11894Y-58521D01*
X-12159Y-58918D01*
X-12840Y-59274D01*
X-12931Y-59256D01*
Y-61092D01*
X-13681D01*
Y-61842D01*
X-15958D01*
X-16091Y-61980D01*
X-16424Y-61979D01*
X-16532Y-61842D01*
X-18799D01*
X-20836D01*
X-20972Y-62008D01*
X-28839Y-62008D01*
X-34646Y-56201D01*
X-34646Y-53150D01*
X-29232Y-47736D01*
X-25535Y-47736D01*
X-25025Y-48247D01*
X-24930Y-48720D01*
X-24740Y-49005D01*
X-23399Y-47664D01*
X-22059Y-46323D01*
X-22171Y-46248D01*
X-22335Y-45586D01*
X-21934Y-45185D01*
X-21272Y-45349D01*
X-21197Y-45461D01*
X-19856Y-44120D01*
X-19326Y-44651D01*
X-18796Y-44120D01*
X-17497Y-45419D01*
X-17264Y-45071D01*
X-17170Y-44598D01*
X-17264Y-44124D01*
X-17532Y-43723D01*
X-17558Y-43698D01*
X-17539Y-43572D01*
X-16864Y-43095D01*
X-16732Y-43121D01*
X-15971Y-42970D01*
X-15326Y-42538D01*
X-15112Y-42217D01*
X-14373Y-42108D01*
X-11300Y-45181D01*
D02*
G37*
G36*
X2251Y-56449D02*
X2346Y-56591D01*
X3158Y-57403D01*
X3176Y-57430D01*
X4908Y-59161D01*
X4887Y-59399D01*
X4750Y-59853D01*
X4568Y-59974D01*
X5909Y-61315D01*
X7250Y-62656D01*
X7440Y-62372D01*
X7475Y-62199D01*
X8119Y-61995D01*
X9176Y-63052D01*
X9507Y-63274D01*
X9897Y-63351D01*
X11270D01*
X11435Y-63462D01*
X11904Y-63555D01*
X21134D01*
X22835Y-65255D01*
X22835Y-68799D01*
X21260Y-70374D01*
X16894Y-70374D01*
X16550Y-69883D01*
X16566Y-69838D01*
X13694Y-68793D01*
X10821Y-67747D01*
X10482Y-68680D01*
X10481Y-68687D01*
X9841Y-68897D01*
X9206Y-68261D01*
X9293Y-67607D01*
X7900Y-66214D01*
X6507Y-64821D01*
X6000Y-64889D01*
X5637Y-64487D01*
X5818Y-63924D01*
X5905Y-63907D01*
X6190Y-63717D01*
X4849Y-62376D01*
X3508Y-61035D01*
X3317Y-61319D01*
X3295Y-61432D01*
X2741Y-61604D01*
X2503Y-61361D01*
X2613Y-60895D01*
X2686Y-60749D01*
X2893Y-60708D01*
X3142Y-60542D01*
X3142Y-60542D01*
X3222Y-60488D01*
X3332Y-60324D01*
X3332Y-60323D01*
X3441Y-60159D01*
X3519Y-59772D01*
X3441Y-59384D01*
X3222Y-59055D01*
X2613Y-58447D01*
X2595Y-58420D01*
X2391Y-58215D01*
X2364Y-58197D01*
X1551Y-57385D01*
X1409Y-57290D01*
X1277Y-56679D01*
X1426Y-56464D01*
X1640Y-56316D01*
X2251Y-56449D01*
D02*
G37*
%LPC*%
G36*
X-24147Y76304D02*
X-24908Y76153D01*
X-25553Y75722D01*
X-25984Y75077D01*
X-26135Y74316D01*
X-25984Y73555D01*
X-25553Y72910D01*
X-24908Y72479D01*
X-24147Y72328D01*
X-23386Y72479D01*
X-22741Y72910D01*
X-22310Y73555D01*
X-22159Y74316D01*
X-22310Y75077D01*
X-22741Y75722D01*
X-23386Y76153D01*
X-24147Y76304D01*
D02*
G37*
G36*
X-1017Y74816D02*
X-1778Y74664D01*
X-2423Y74233D01*
X-2854Y73588D01*
X-3005Y72827D01*
X-2854Y72067D01*
X-2423Y71421D01*
X-1778Y70991D01*
X-1017Y70839D01*
X-256Y70991D01*
X389Y71421D01*
X820Y72067D01*
X971Y72827D01*
X820Y73588D01*
X389Y74233D01*
X-256Y74664D01*
X-1017Y74816D01*
D02*
G37*
G36*
X7360Y74450D02*
X6600Y74299D01*
X5954Y73867D01*
X5523Y73223D01*
X5372Y72462D01*
X5523Y71701D01*
X5954Y71056D01*
X6600Y70625D01*
X7360Y70473D01*
X8121Y70625D01*
X8766Y71056D01*
X9197Y71701D01*
X9349Y72462D01*
X9197Y73223D01*
X8766Y73867D01*
X8121Y74299D01*
X7360Y74450D01*
D02*
G37*
G36*
X-13381Y73531D02*
X-14142Y73379D01*
X-14787Y72948D01*
X-15218Y72303D01*
X-15369Y71543D01*
X-15218Y70782D01*
X-14787Y70137D01*
X-14142Y69706D01*
X-13381Y69554D01*
X-12620Y69706D01*
X-11975Y70137D01*
X-11544Y70782D01*
X-11393Y71543D01*
X-11544Y72303D01*
X-11975Y72948D01*
X-12620Y73379D01*
X-13381Y73531D01*
D02*
G37*
G36*
X16632Y72898D02*
X15871Y72747D01*
X15226Y72316D01*
X14795Y71671D01*
X14644Y70910D01*
X14795Y70149D01*
X15226Y69504D01*
X15871Y69073D01*
X16632Y68922D01*
X17393Y69073D01*
X18038Y69504D01*
X18469Y70149D01*
X18620Y70910D01*
X18469Y71671D01*
X18038Y72316D01*
X17393Y72747D01*
X16632Y72898D01*
D02*
G37*
G36*
X25864Y70076D02*
X25103Y69924D01*
X24458Y69493D01*
X24027Y68848D01*
X23876Y68088D01*
X24027Y67327D01*
X24458Y66682D01*
X25103Y66251D01*
X25864Y66099D01*
X26625Y66251D01*
X27270Y66682D01*
X27701Y67327D01*
X27852Y68088D01*
X27701Y68848D01*
X27270Y69493D01*
X26625Y69924D01*
X25864Y70076D01*
D02*
G37*
G36*
X-4397Y71466D02*
X-5151Y71420D01*
X-5867Y71181D01*
X-7185Y70538D01*
X-4498Y65028D01*
X-581Y66939D01*
X-2000Y69849D01*
X-2417Y70479D01*
X-2982Y70979D01*
X-3658Y71316D01*
X-4397Y71466D01*
D02*
G37*
G36*
X-29857Y68422D02*
X-30617Y68271D01*
X-31262Y67840D01*
X-31693Y67195D01*
X-31845Y66434D01*
X-31693Y65673D01*
X-31262Y65028D01*
X-30617Y64597D01*
X-29857Y64446D01*
X-29096Y64597D01*
X-28451Y65028D01*
X-28020Y65673D01*
X-27868Y66434D01*
X-28020Y67195D01*
X-28451Y67840D01*
X-29096Y68271D01*
X-29857Y68422D01*
D02*
G37*
G36*
X-8264Y70012D02*
X-9582Y69369D01*
X-10212Y68952D01*
X-10712Y68387D01*
X-11049Y67711D01*
X-11199Y66971D01*
X-11153Y66218D01*
X-10914Y65502D01*
X-9494Y62591D01*
X-5576Y64502D01*
X-8264Y70012D01*
D02*
G37*
G36*
X34642Y66057D02*
X33881Y65906D01*
X33236Y65475D01*
X32805Y64830D01*
X32654Y64069D01*
X32805Y63308D01*
X33236Y62663D01*
X33881Y62232D01*
X34642Y62081D01*
X35403Y62232D01*
X36048Y62663D01*
X36479Y63308D01*
X36630Y64069D01*
X36479Y64830D01*
X36048Y65475D01*
X35403Y65906D01*
X34642Y66057D01*
D02*
G37*
G36*
X-38381Y63890D02*
X-39141Y63738D01*
X-39786Y63307D01*
X-40217Y62662D01*
X-40369Y61901D01*
X-40217Y61141D01*
X-39786Y60496D01*
X-39141Y60065D01*
X-38381Y59913D01*
X-37620Y60065D01*
X-36975Y60496D01*
X-36544Y61141D01*
X-36392Y61901D01*
X-36544Y62662D01*
X-36975Y63307D01*
X-37620Y63738D01*
X-38381Y63890D01*
D02*
G37*
G36*
X-54Y65860D02*
X-3972Y63949D01*
X-1285Y58439D01*
X34Y59083D01*
X663Y59499D01*
X1163Y60065D01*
X1500Y60740D01*
X1651Y61480D01*
X1605Y62233D01*
X1365Y62949D01*
X-54Y65860D01*
D02*
G37*
G36*
X42605Y61062D02*
X41844Y60910D01*
X41199Y60479D01*
X40768Y59834D01*
X40617Y59073D01*
X40768Y58313D01*
X41199Y57668D01*
X41844Y57237D01*
X42605Y57085D01*
X43366Y57237D01*
X44011Y57668D01*
X44442Y58313D01*
X44593Y59073D01*
X44442Y59834D01*
X44011Y60479D01*
X43366Y60910D01*
X42605Y61062D01*
D02*
G37*
G36*
X-5051Y63423D02*
X-8968Y61513D01*
X-7548Y58602D01*
X-7132Y57972D01*
X-6566Y57472D01*
X-5891Y57135D01*
X-5151Y56985D01*
X-4397Y57031D01*
X-3682Y57270D01*
X-2363Y57914D01*
X-5051Y63423D01*
D02*
G37*
G36*
X-41874Y59623D02*
X-42635Y59472D01*
X-43280Y59041D01*
X-43711Y58396D01*
X-43862Y57635D01*
X-43711Y56874D01*
X-43280Y56229D01*
X-42635Y55798D01*
X-41874Y55647D01*
X-41113Y55798D01*
X-40468Y56229D01*
X-40037Y56874D01*
X-39886Y57635D01*
X-40037Y58396D01*
X-40468Y59041D01*
X-41113Y59472D01*
X-41874Y59623D01*
D02*
G37*
G36*
X18898Y59075D02*
X18137Y58924D01*
X17492Y58492D01*
X17061Y57847D01*
X16909Y57087D01*
X17061Y56326D01*
X17492Y55681D01*
X18137Y55250D01*
X18898Y55098D01*
X19658Y55250D01*
X20303Y55681D01*
X20734Y56326D01*
X20886Y57087D01*
X20734Y57847D01*
X20303Y58492D01*
X19658Y58924D01*
X18898Y59075D01*
D02*
G37*
G36*
X13508Y58682D02*
X12747Y58531D01*
X12102Y58100D01*
X11671Y57455D01*
X11520Y56694D01*
X11671Y55933D01*
X12102Y55288D01*
X12747Y54857D01*
X13508Y54706D01*
X14269Y54857D01*
X14914Y55288D01*
X15345Y55933D01*
X15496Y56694D01*
X15345Y57455D01*
X14914Y58100D01*
X14269Y58531D01*
X13508Y58682D01*
D02*
G37*
G36*
X-1152Y56907D02*
X-1913Y56755D01*
X-2558Y56324D01*
X-2989Y55679D01*
X-3101Y55117D01*
X-3191Y54896D01*
X-3703Y54671D01*
X-4075Y54745D01*
X-4836Y54594D01*
X-5481Y54163D01*
X-5912Y53518D01*
X-6063Y52757D01*
X-5912Y51996D01*
X-5481Y51351D01*
X-4836Y50920D01*
X-4075Y50769D01*
X-3314Y50920D01*
X-2669Y51351D01*
X-2238Y51996D01*
X-2126Y52559D01*
X-2036Y52779D01*
X-1524Y53004D01*
X-1152Y52930D01*
X-391Y53082D01*
X254Y53513D01*
X685Y54158D01*
X836Y54918D01*
X685Y55679D01*
X254Y56324D01*
X-391Y56755D01*
X-1152Y56907D01*
D02*
G37*
G36*
X5333Y58415D02*
X4572Y58264D01*
X3927Y57833D01*
X3496Y57188D01*
X3345Y56427D01*
X3496Y55666D01*
X3927Y55021D01*
X4572Y54590D01*
X5333Y54439D01*
X6094Y54590D01*
X6739Y55021D01*
X7170Y55666D01*
X7321Y56427D01*
X7170Y57188D01*
X6739Y57833D01*
X6094Y58264D01*
X5333Y58415D01*
D02*
G37*
G36*
X30310Y56222D02*
X29549Y56070D01*
X28904Y55639D01*
X28473Y54994D01*
X28322Y54233D01*
X28473Y53473D01*
X28904Y52828D01*
X29549Y52397D01*
X30310Y52245D01*
X31071Y52397D01*
X31716Y52828D01*
X32147Y53473D01*
X32298Y54233D01*
X32147Y54994D01*
X31716Y55639D01*
X31071Y56070D01*
X30310Y56222D01*
D02*
G37*
G36*
X49859Y55082D02*
X49098Y54931D01*
X48453Y54500D01*
X48022Y53855D01*
X47870Y53094D01*
X48022Y52333D01*
X48453Y51688D01*
X49098Y51257D01*
X49859Y51106D01*
X50620Y51257D01*
X51265Y51688D01*
X51696Y52333D01*
X51847Y53094D01*
X51696Y53855D01*
X51265Y54500D01*
X50620Y54931D01*
X49859Y55082D01*
D02*
G37*
G36*
X-9207Y53443D02*
X-9741Y53303D01*
X-11156Y52612D01*
X-11595Y52278D01*
X-11874Y51801D01*
X-11948Y51254D01*
X-11869Y50955D01*
X-12419Y50687D01*
X-12606Y50933D01*
X-13083Y51211D01*
X-13630Y51286D01*
X-14164Y51145D01*
X-15579Y50455D01*
X-16018Y50121D01*
X-16296Y49644D01*
X-16371Y49097D01*
X-16292Y48798D01*
X-16842Y48530D01*
X-17029Y48776D01*
X-17506Y49054D01*
X-18053Y49129D01*
X-18587Y48988D01*
X-20002Y48298D01*
X-20442Y47964D01*
X-20720Y47487D01*
X-20794Y46940D01*
X-20715Y46639D01*
X-21265Y46371D01*
X-21453Y46619D01*
X-21929Y46897D01*
X-22476Y46971D01*
X-23010Y46830D01*
X-24426Y46140D01*
X-24865Y45806D01*
X-25143Y45329D01*
X-25202Y44897D01*
X-25585Y44696D01*
X-25795Y44646D01*
X-26286Y44932D01*
X-26912Y45017D01*
X-27523Y44857D01*
X-27691Y44774D01*
X-25946Y41197D01*
X-24201Y37619D01*
X-24033Y37701D01*
X-23530Y38083D01*
X-23212Y38629D01*
X-23135Y39191D01*
X-22966Y39327D01*
X-22572Y39505D01*
X-22195Y39285D01*
X-21876Y38841D01*
X-22140Y37458D01*
X-22420Y37321D01*
X-22804Y37029D01*
X-22990Y36710D01*
X-23189Y36569D01*
X-23679Y36417D01*
X-23723Y36443D01*
X-24280Y36519D01*
X-24823Y36376D01*
X-24835Y36371D01*
X-23902Y34458D01*
X-22969Y32546D01*
X-22958Y32551D01*
X-22511Y32891D01*
X-22228Y33377D01*
X-22221Y33428D01*
X-21800Y33720D01*
X-21566Y33790D01*
X-21200Y33741D01*
X-20733Y33863D01*
X-19632Y34400D01*
X-19248Y34692D01*
X-19005Y35109D01*
X-18941Y35581D01*
X-17944Y36208D01*
X-17658Y36127D01*
X-17502Y35835D01*
X-17494Y35456D01*
X-17584Y35380D01*
X-17779Y35228D01*
X-17790Y35209D01*
X-17807Y35195D01*
X-17922Y34976D01*
X-18043Y34761D01*
X-18046Y34739D01*
X-18056Y34719D01*
X-18079Y34473D01*
X-18109Y34228D01*
X-18103Y34206D01*
X-18105Y34184D01*
X-18099Y34126D01*
X-18626Y33593D01*
X-19092Y33470D01*
X-20193Y32933D01*
X-20577Y32641D01*
X-20764Y32321D01*
X-20963Y32180D01*
X-21452Y32028D01*
X-21497Y32054D01*
X-22054Y32130D01*
X-22597Y31987D01*
X-22608Y31982D01*
X-21676Y30069D01*
X-20743Y28157D01*
X-20732Y28162D01*
X-20284Y28503D01*
X-20001Y28988D01*
X-19994Y29039D01*
X-19574Y29332D01*
X-19339Y29402D01*
X-18973Y29352D01*
X-18507Y29474D01*
X-17406Y30011D01*
X-17022Y30303D01*
X-16811Y30665D01*
X-16535Y30610D01*
X-15833Y30750D01*
X-15238Y31148D01*
X-14840Y31743D01*
X-14700Y32446D01*
X-14840Y33148D01*
X-14816Y33236D01*
X-13687Y33787D01*
X-13303Y34079D01*
X-13060Y34495D01*
X-12995Y34973D01*
X-13118Y35440D01*
X-13655Y36541D01*
X-13947Y36925D01*
X-14364Y37168D01*
X-14464Y37181D01*
X-14777Y37823D01*
X-14726Y37911D01*
X-14698Y38119D01*
X-14636Y38210D01*
X-14194Y38527D01*
X-14085Y38559D01*
X-13655Y38474D01*
X-12953Y38614D01*
X-12357Y39011D01*
X-11959Y39607D01*
X-11820Y40309D01*
X-11959Y41011D01*
X-11565Y41501D01*
X-11243Y41437D01*
X-10540Y41577D01*
X-9945Y41975D01*
X-9547Y42570D01*
X-9408Y43272D01*
X-9547Y43975D01*
X-9945Y44570D01*
X-10332Y44829D01*
X-10135Y45167D01*
X-10061Y45714D01*
X-10139Y46013D01*
X-9589Y46281D01*
X-9402Y46035D01*
X-8925Y45757D01*
X-8868Y45749D01*
X-8782Y45319D01*
X-8384Y44723D01*
X-7789Y44326D01*
X-7087Y44186D01*
X-6384Y44326D01*
X-5789Y44723D01*
X-5391Y45319D01*
X-5251Y46021D01*
X-5391Y46724D01*
X-5750Y47260D01*
X-5712Y47324D01*
X-5638Y47871D01*
X-5778Y48405D01*
X-7849Y52651D01*
X-8183Y53091D01*
X-8660Y53369D01*
X-9207Y53443D01*
D02*
G37*
G36*
X-48426Y50423D02*
X-49745Y49780D01*
X-50375Y49363D01*
X-50875Y48798D01*
X-51212Y48123D01*
X-51362Y47383D01*
X-51328Y46832D01*
X-51684Y46416D01*
X-51846Y46323D01*
X-52168Y46387D01*
X-52929Y46235D01*
X-53574Y45805D01*
X-54005Y45160D01*
X-54157Y44399D01*
X-54005Y43638D01*
X-53574Y42993D01*
X-52929Y42562D01*
X-52168Y42410D01*
X-51407Y42562D01*
X-50762Y42993D01*
X-50506Y43376D01*
X-49824Y43346D01*
X-49657Y43003D01*
X-45739Y44913D01*
X-48426Y50423D01*
D02*
G37*
G36*
X40945Y50807D02*
X40184Y50656D01*
X39539Y50225D01*
X39108Y49580D01*
X38957Y48819D01*
X39108Y48058D01*
X39539Y47413D01*
X40184Y46982D01*
X40945Y46831D01*
X41706Y46982D01*
X42351Y47413D01*
X42602Y47789D01*
X42713Y47782D01*
X43203Y47608D01*
X43324Y46996D01*
X43755Y46351D01*
X44401Y45920D01*
X45161Y45768D01*
X45922Y45920D01*
X46567Y46351D01*
X46998Y46996D01*
X47150Y47757D01*
X46998Y48518D01*
X46567Y49163D01*
X45922Y49594D01*
X45161Y49745D01*
X44401Y49594D01*
X43755Y49163D01*
X43505Y48787D01*
X43394Y48793D01*
X42904Y48968D01*
X42782Y49580D01*
X42351Y50225D01*
X41706Y50656D01*
X40945Y50807D01*
D02*
G37*
G36*
X-44560Y51878D02*
X-45314Y51832D01*
X-46029Y51592D01*
X-47348Y50949D01*
X-44661Y45439D01*
X-40743Y47350D01*
X-42163Y50261D01*
X-42579Y50890D01*
X-43145Y51390D01*
X-43820Y51727D01*
X-44560Y51878D01*
D02*
G37*
G36*
X56282Y48219D02*
X55521Y48067D01*
X54876Y47636D01*
X54445Y46991D01*
X54294Y46230D01*
X54445Y45469D01*
X54876Y44824D01*
X55521Y44393D01*
X56282Y44242D01*
X57042Y44393D01*
X57687Y44824D01*
X58118Y45469D01*
X58270Y46230D01*
X58118Y46991D01*
X57687Y47636D01*
X57042Y48067D01*
X56282Y48219D01*
D02*
G37*
G36*
X-28770Y44248D02*
X-28938Y44166D01*
X-29441Y43784D01*
X-29759Y43238D01*
X-29835Y42676D01*
X-30004Y42540D01*
X-30398Y42362D01*
X-30776Y42582D01*
X-31323Y42656D01*
X-31856Y42516D01*
X-33272Y41826D01*
X-33711Y41492D01*
X-33989Y41015D01*
X-34064Y40468D01*
X-33923Y39934D01*
X-32983Y38006D01*
X-33645Y36885D01*
X-33963Y36345D01*
X-33964Y36342D01*
X-33967Y36339D01*
X-34053Y36088D01*
X-34141Y35838D01*
X-34140Y35835D01*
X-34142Y35831D01*
X-34125Y35566D01*
X-34111Y35302D01*
X-34109Y35299D01*
X-34109Y35295D01*
X-33345Y32395D01*
X-33797Y31758D01*
X-33926Y31748D01*
X-33959Y31762D01*
X-34449Y32048D01*
X-35040Y32128D01*
X-35617Y31976D01*
X-37235Y31187D01*
X-37710Y30826D01*
X-38010Y30310D01*
X-38091Y29719D01*
X-37955Y29202D01*
X-38001Y28989D01*
X-38242Y28602D01*
X-39519Y28602D01*
X-39568Y28582D01*
X-39621Y28594D01*
X-39792Y28489D01*
X-39978Y28412D01*
X-40553Y28462D01*
X-40584Y28503D01*
X-41100Y28804D01*
X-41691Y28884D01*
X-42268Y28732D01*
X-43886Y27943D01*
X-44361Y27582D01*
X-44662Y27066D01*
X-44742Y26475D01*
X-44618Y26004D01*
X-44616Y25853D01*
X-44623Y25833D01*
X-44797Y25486D01*
X-45330Y25407D01*
X-45632Y25793D01*
X-45556Y26350D01*
X-45699Y26893D01*
X-45705Y26904D01*
X-47617Y25972D01*
X-49529Y25039D01*
X-49524Y25028D01*
X-49184Y24580D01*
X-49000Y24473D01*
X-48833Y23760D01*
X-48915Y23625D01*
X-48945Y23621D01*
X-49185Y23603D01*
X-49191Y23596D01*
X-49200Y23595D01*
X-49719Y23313D01*
X-49780Y23239D01*
X-49869Y23202D01*
X-49930Y23053D01*
X-50032Y22927D01*
X-50022Y22832D01*
X-50059Y22743D01*
Y17520D01*
X-49869Y17061D01*
X-47506Y14698D01*
X-47047Y14508D01*
X-40354D01*
X-39895Y14698D01*
X-35171Y19423D01*
X-34980Y19882D01*
Y24606D01*
X-35039Y24749D01*
X-35035Y24924D01*
X-34643Y25420D01*
X-34447Y25472D01*
X-32830Y26261D01*
X-32355Y26622D01*
X-32054Y27138D01*
X-31973Y27729D01*
X-32035Y27961D01*
X-31658Y28484D01*
X-31602Y28519D01*
X-31583Y28527D01*
X-31170Y28635D01*
X-30070Y29172D01*
X-29686Y29464D01*
X-29499Y29783D01*
X-29299Y29925D01*
X-28810Y30076D01*
X-28766Y30050D01*
X-28209Y29975D01*
X-27666Y30118D01*
X-27655Y30123D01*
X-28587Y32036D01*
X-29520Y33948D01*
X-29531Y33942D01*
X-29979Y33602D01*
X-30128Y33346D01*
X-30772Y33434D01*
X-31016Y34361D01*
X-30538Y34902D01*
X-30494Y34896D01*
X-29960Y35037D01*
X-28545Y35727D01*
X-28106Y36061D01*
X-27828Y36538D01*
X-27769Y36970D01*
X-27385Y37172D01*
X-27175Y37221D01*
X-26684Y36935D01*
X-26059Y36850D01*
X-25448Y37011D01*
X-25280Y37093D01*
X-27024Y40671D01*
X-28770Y44248D01*
D02*
G37*
G36*
X-58924Y44799D02*
X-59685Y44648D01*
X-60330Y44217D01*
X-60761Y43572D01*
X-60913Y42811D01*
X-60761Y42050D01*
X-60330Y41405D01*
X-59685Y40974D01*
X-58924Y40823D01*
X-58163Y40974D01*
X-57519Y41405D01*
X-57087Y42050D01*
X-56936Y42811D01*
X-57087Y43572D01*
X-57519Y44217D01*
X-58163Y44648D01*
X-58924Y44799D01*
D02*
G37*
G36*
X-40217Y46271D02*
X-44135Y44361D01*
X-41447Y38851D01*
X-40129Y39494D01*
X-39499Y39911D01*
X-38999Y40476D01*
X-38662Y41152D01*
X-38512Y41891D01*
X-38558Y42645D01*
X-38797Y43361D01*
X-40217Y46271D01*
D02*
G37*
G36*
X54037Y42487D02*
X53276Y42335D01*
X52631Y41904D01*
X52200Y41259D01*
X52049Y40498D01*
X52200Y39738D01*
X52631Y39093D01*
X53276Y38662D01*
X54037Y38510D01*
X54798Y38662D01*
X55443Y39093D01*
X55874Y39738D01*
X56025Y40498D01*
X55874Y41259D01*
X55443Y41904D01*
X54798Y42335D01*
X54037Y42487D01*
D02*
G37*
G36*
X-45213Y43835D02*
X-49131Y41924D01*
X-47711Y39013D01*
X-47294Y38384D01*
X-46729Y37884D01*
X-46053Y37547D01*
X-45314Y37396D01*
X-44560Y37442D01*
X-43844Y37682D01*
X-42526Y38325D01*
X-45213Y43835D01*
D02*
G37*
G36*
X61004Y40152D02*
X60243Y40001D01*
X59598Y39570D01*
X59167Y38925D01*
X59016Y38164D01*
X59167Y37403D01*
X59598Y36758D01*
X60243Y36327D01*
X61004Y36176D01*
X61765Y36327D01*
X62410Y36758D01*
X62841Y37403D01*
X62993Y38164D01*
X62841Y38925D01*
X62410Y39570D01*
X61765Y40001D01*
X61004Y40152D01*
D02*
G37*
G36*
X-25913Y35844D02*
X-25925Y35839D01*
X-26372Y35499D01*
X-26655Y35013D01*
X-26676Y34860D01*
X-27324Y34543D01*
X-27330Y34547D01*
X-27887Y34622D01*
X-28430Y34479D01*
X-28442Y34474D01*
X-27509Y32562D01*
X-26576Y30649D01*
X-26565Y30655D01*
X-26118Y30995D01*
X-25835Y31480D01*
X-25814Y31634D01*
X-25165Y31950D01*
X-25159Y31947D01*
X-24602Y31871D01*
X-24059Y32014D01*
X-24048Y32020D01*
X-24981Y33932D01*
X-25913Y35844D01*
D02*
G37*
G36*
X-53050Y37511D02*
X-53811Y37360D01*
X-54456Y36929D01*
X-54887Y36284D01*
X-55038Y35523D01*
X-54887Y34762D01*
X-54456Y34117D01*
X-53811Y33686D01*
X-53050Y33535D01*
X-52289Y33686D01*
X-51644Y34117D01*
X-51213Y34762D01*
X-51061Y35523D01*
X-51213Y36284D01*
X-51644Y36929D01*
X-52289Y37360D01*
X-53050Y37511D01*
D02*
G37*
G36*
X-64069Y36630D02*
X-64830Y36479D01*
X-65475Y36048D01*
X-65906Y35403D01*
X-66057Y34642D01*
X-65906Y33881D01*
X-65475Y33236D01*
X-64830Y32805D01*
X-64069Y32654D01*
X-63308Y32805D01*
X-62663Y33236D01*
X-62232Y33881D01*
X-62081Y34642D01*
X-62232Y35403D01*
X-62663Y36048D01*
X-63308Y36479D01*
X-64069Y36630D01*
D02*
G37*
G36*
X-23687Y31456D02*
X-23698Y31450D01*
X-24145Y31110D01*
X-24428Y30624D01*
X-24504Y30068D01*
X-24361Y29524D01*
X-24323Y29446D01*
X-23017Y30082D01*
X-23687Y31456D01*
D02*
G37*
G36*
X-54324Y31853D02*
X-55084Y31702D01*
X-55729Y31271D01*
X-56160Y30626D01*
X-56312Y29865D01*
X-56160Y29104D01*
X-55729Y28459D01*
X-55084Y28028D01*
X-54324Y27877D01*
X-53563Y28028D01*
X-52918Y28459D01*
X-52487Y29104D01*
X-52335Y29865D01*
X-52487Y30626D01*
X-52918Y31271D01*
X-53563Y31702D01*
X-54324Y31853D01*
D02*
G37*
G36*
X66434Y31845D02*
X65673Y31693D01*
X65028Y31262D01*
X64597Y30617D01*
X64446Y29857D01*
X64597Y29096D01*
X65028Y28451D01*
X65673Y28020D01*
X66434Y27868D01*
X67195Y28020D01*
X67840Y28451D01*
X68271Y29096D01*
X68422Y29857D01*
X68271Y30617D01*
X67840Y31262D01*
X67195Y31693D01*
X66434Y31845D01*
D02*
G37*
G36*
X-22491Y29004D02*
X-23797Y28367D01*
X-23758Y28288D01*
X-23418Y27841D01*
X-22933Y27558D01*
X-22376Y27482D01*
X-21833Y27625D01*
X-21821Y27631D01*
X-22491Y29004D01*
D02*
G37*
G36*
X-47619Y28800D02*
X-48162Y28657D01*
X-48241Y28619D01*
X-47604Y27313D01*
X-46231Y27983D01*
X-46236Y27994D01*
X-46576Y28441D01*
X-47062Y28725D01*
X-47619Y28800D01*
D02*
G37*
G36*
X11811Y48292D02*
X11109Y48152D01*
X10513Y47754D01*
X10115Y47159D01*
X9976Y46457D01*
X10115Y45754D01*
X10513Y45159D01*
X11109Y44761D01*
X11811Y44621D01*
X11821Y44623D01*
X12055Y44058D01*
X11694Y43817D01*
X11297Y43222D01*
X11157Y42520D01*
X11297Y41817D01*
X11694Y41222D01*
X12290Y40824D01*
X12992Y40684D01*
X13694Y40824D01*
X14290Y41222D01*
X14500Y41537D01*
X15061D01*
X15286Y40948D01*
X15332Y40900D01*
X15344Y40835D01*
X15711Y40251D01*
X15766Y40213D01*
X15789Y40151D01*
X16264Y39651D01*
X16325Y39624D01*
X16360Y39568D01*
X16923Y39170D01*
X16988Y39155D01*
X17034Y39107D01*
X17349Y38967D01*
X17664Y38826D01*
X17730Y38824D01*
X17785Y38786D01*
X18457Y38634D01*
X18523Y38645D01*
X18584Y38618D01*
X19273Y38600D01*
X19335Y38624D01*
X19400Y38609D01*
X20079Y38726D01*
X20135Y38761D01*
X20202Y38760D01*
X20846Y39007D01*
X20894Y39053D01*
X20959Y39064D01*
X21542Y39432D01*
X21581Y39486D01*
X21643Y39510D01*
X22143Y39985D01*
X22170Y40045D01*
X22226Y40081D01*
X22624Y40644D01*
X22639Y40709D01*
X22687Y40755D01*
X22827Y41069D01*
X22833Y41276D01*
X23091Y41497D01*
X23400Y41634D01*
X24320Y41076D01*
X24363Y40766D01*
X24273Y40403D01*
X24220Y40381D01*
X24199Y40332D01*
X24153Y40304D01*
X23951Y40025D01*
X23935Y39960D01*
X23887Y39915D01*
X23598Y39289D01*
X23595Y39223D01*
X23556Y39169D01*
X23395Y38498D01*
X23406Y38433D01*
X23378Y38372D01*
X23351Y37683D01*
X23374Y37621D01*
X23358Y37556D01*
X23466Y36875D01*
X23501Y36819D01*
X23498Y36752D01*
X23737Y36105D01*
X23782Y36056D01*
X23792Y35991D01*
X24153Y35403D01*
X24206Y35364D01*
X24229Y35301D01*
X24424Y35091D01*
X24356Y34411D01*
X24293Y34369D01*
X23895Y33773D01*
X23755Y33071D01*
X23895Y32368D01*
X24293Y31773D01*
X24888Y31375D01*
X25591Y31236D01*
X26293Y31375D01*
X26731Y31668D01*
X27242Y31538D01*
X27388Y31441D01*
X27438Y31187D01*
X27836Y30592D01*
X28431Y30194D01*
X29134Y30055D01*
X29836Y30194D01*
X30118Y30383D01*
X30330Y30382D01*
X30797Y30141D01*
X30986Y29608D01*
X31030Y29558D01*
X31040Y29492D01*
X31392Y28900D01*
X31445Y28860D01*
X31468Y28797D01*
X31698Y28541D01*
X31698Y28541D01*
X31929Y28285D01*
X31989Y28256D01*
X32023Y28199D01*
X32575Y27787D01*
X32640Y27770D01*
X32684Y27721D01*
X33307Y27424D01*
X33373Y27420D01*
X33426Y27381D01*
X34095Y27211D01*
X34160Y27220D01*
X34220Y27192D01*
X34909Y27156D01*
X34972Y27178D01*
X35036Y27162D01*
X35718Y27261D01*
X35776Y27295D01*
X35842Y27291D01*
X36492Y27521D01*
X36541Y27566D01*
X36607Y27575D01*
X37200Y27928D01*
X37240Y27981D01*
X37302Y28003D01*
X37558Y28234D01*
X37674Y28476D01*
X38315Y28599D01*
X39190Y27395D01*
X39096Y27272D01*
X38919Y27042D01*
Y27042D01*
X38595Y26596D01*
X38388Y26475D01*
X38187Y26489D01*
X38094Y26457D01*
X38301Y26100D01*
X38484Y26261D01*
X38783Y26433D01*
X38783Y26433D01*
X42283Y20371D01*
X41985Y20198D01*
X41753Y20120D01*
X41960Y19762D01*
X42033Y19827D01*
X42122Y20007D01*
X42494Y20164D01*
X42878Y20184D01*
X42878Y20184D01*
X43371Y20249D01*
X43371Y20249D01*
X43669Y20421D01*
X43710Y20474D01*
X43773Y20495D01*
X44291Y20950D01*
X44321Y21010D01*
X44378Y21043D01*
X44798Y21590D01*
X44815Y21654D01*
X44865Y21698D01*
X45170Y22316D01*
X45175Y22383D01*
X45215Y22435D01*
X45393Y23101D01*
X45385Y23167D01*
X45414Y23227D01*
X45459Y23915D01*
X45438Y23978D01*
X45455Y24042D01*
X45365Y24726D01*
X45332Y24783D01*
X45336Y24850D01*
X45115Y25502D01*
X45071Y25552D01*
X45062Y25618D01*
X44890Y25917D01*
X44717Y26215D01*
X44665Y26256D01*
X44643Y26319D01*
X44189Y26837D01*
X44129Y26867D01*
X44096Y26924D01*
X43549Y27344D01*
X43485Y27361D01*
X43441Y27411D01*
X42822Y27716D01*
X42756Y27721D01*
X42703Y27761D01*
X42037Y27940D01*
X41971Y27931D01*
X41912Y27960D01*
X41269Y28003D01*
X39385Y30596D01*
X39543Y31220D01*
X39534Y31286D01*
X39562Y31346D01*
X39598Y32034D01*
X39576Y32097D01*
X39593Y32162D01*
X39494Y32844D01*
X39460Y32901D01*
X39463Y32967D01*
X39233Y33617D01*
X39189Y33667D01*
X39179Y33733D01*
X38826Y34325D01*
X38773Y34365D01*
X38751Y34428D01*
X38520Y34684D01*
X38520Y34684D01*
X38290Y34940D01*
X38230Y34969D01*
X38196Y35026D01*
X37643Y35438D01*
X37579Y35455D01*
X37534Y35504D01*
X36912Y35801D01*
X36845Y35804D01*
X36792Y35844D01*
X36124Y36014D01*
X36058Y36004D01*
X35998Y36033D01*
X35309Y36069D01*
X35247Y36047D01*
X35182Y36063D01*
X34579Y35976D01*
X32168Y38234D01*
X32188Y38759D01*
X32165Y38822D01*
X32181Y38886D01*
X32073Y39567D01*
X32038Y39624D01*
X32041Y39691D01*
X31802Y40337D01*
X31757Y40386D01*
X31746Y40452D01*
X31386Y41040D01*
X31332Y41079D01*
X31309Y41141D01*
X30841Y41647D01*
X30781Y41675D01*
X30746Y41732D01*
X30467Y41935D01*
X30467Y41935D01*
X30189Y42137D01*
X30124Y42153D01*
X30079Y42202D01*
X29452Y42490D01*
X29386Y42493D01*
X29332Y42532D01*
X28662Y42693D01*
X28596Y42683D01*
X28536Y42711D01*
X27847Y42738D01*
X27784Y42715D01*
X27720Y42730D01*
X27039Y42622D01*
X26982Y42588D01*
X26915Y42590D01*
X26269Y42351D01*
X26222Y42308D01*
X23542Y43933D01*
X23426Y44605D01*
X23391Y44661D01*
X23392Y44727D01*
X23145Y45371D01*
X23100Y45419D01*
X23088Y45485D01*
X22720Y46068D01*
X22666Y46106D01*
X22642Y46168D01*
X22168Y46668D01*
X22107Y46696D01*
X22071Y46752D01*
X21508Y47150D01*
X21443Y47164D01*
X21398Y47213D01*
X21083Y47353D01*
X20768Y47493D01*
X20701Y47495D01*
X20647Y47533D01*
X19975Y47685D01*
X19909Y47674D01*
X19848Y47701D01*
X19159Y47719D01*
X19097Y47695D01*
X19032Y47710D01*
X18353Y47593D01*
X18296Y47558D01*
X18230Y47560D01*
X17586Y47313D01*
X17545Y47273D01*
X17357Y47399D01*
X16967Y47476D01*
X13295D01*
X13109Y47754D01*
X12513Y48152D01*
X11811Y48292D01*
D02*
G37*
G36*
X-49319Y28093D02*
X-49398Y28054D01*
X-49845Y27714D01*
X-50128Y27229D01*
X-50204Y26672D01*
X-50061Y26129D01*
X-50055Y26118D01*
X-48682Y26787D01*
X-49319Y28093D01*
D02*
G37*
G36*
X37055Y25857D02*
X36981Y25792D01*
X36668Y25156D01*
X36621Y24448D01*
X36653Y24355D01*
X37279Y24716D01*
X37479Y25123D01*
X37055Y25857D01*
D02*
G37*
G36*
X-68088Y27852D02*
X-68848Y27701D01*
X-69493Y27270D01*
X-69924Y26625D01*
X-70076Y25864D01*
X-69924Y25103D01*
X-69493Y24458D01*
X-68848Y24027D01*
X-68088Y23876D01*
X-67327Y24027D01*
X-66682Y24458D01*
X-66251Y25103D01*
X-66099Y25864D01*
X-66251Y26625D01*
X-66682Y27270D01*
X-67327Y27701D01*
X-68088Y27852D01*
D02*
G37*
G36*
X74512Y26199D02*
X73751Y26047D01*
X73106Y25616D01*
X72675Y24971D01*
X72524Y24210D01*
X72675Y23449D01*
X73106Y22805D01*
X73751Y22374D01*
X74512Y22222D01*
X75273Y22374D01*
X75918Y22805D01*
X76349Y23449D01*
X76500Y24210D01*
X76349Y24971D01*
X75918Y25616D01*
X75273Y26047D01*
X74512Y26199D01*
D02*
G37*
G36*
X37031Y23187D02*
X36864Y23091D01*
X36642Y22641D01*
X36596Y21933D01*
X36627Y21840D01*
X37246Y22197D01*
X37108Y22603D01*
X37031Y23187D01*
D02*
G37*
G36*
X37846Y21158D02*
X37227Y20800D01*
X37292Y20727D01*
X37929Y20413D01*
X38430Y20380D01*
X38596Y20476D01*
X38129Y20835D01*
X37846Y21158D01*
D02*
G37*
G36*
X-55909Y24274D02*
X-56670Y24122D01*
X-57315Y23691D01*
X-57746Y23046D01*
X-57897Y22285D01*
X-57746Y21524D01*
X-57315Y20879D01*
X-56670Y20448D01*
X-55909Y20297D01*
X-55148Y20448D01*
X-54503Y20879D01*
X-54072Y21524D01*
X-53921Y22285D01*
X-54072Y23046D01*
X-54503Y23691D01*
X-55148Y24122D01*
X-55909Y24274D01*
D02*
G37*
G36*
X40044Y19926D02*
X39418Y19565D01*
X39483Y19491D01*
X40119Y19177D01*
X40828Y19131D01*
X40920Y19162D01*
X40497Y19897D01*
X40044Y19926D01*
D02*
G37*
G36*
X-70852Y18867D02*
X-71613Y18716D01*
X-72258Y18285D01*
X-72689Y17640D01*
X-72840Y16879D01*
X-72689Y16118D01*
X-72258Y15473D01*
X-71613Y15042D01*
X-70852Y14891D01*
X-70091Y15042D01*
X-69446Y15473D01*
X-69015Y16118D01*
X-68863Y16879D01*
X-69015Y17640D01*
X-69446Y18285D01*
X-70091Y18716D01*
X-70852Y18867D01*
D02*
G37*
G36*
X77165Y17343D02*
X76405Y17191D01*
X75760Y16760D01*
X75328Y16115D01*
X75177Y15354D01*
X75328Y14593D01*
X75760Y13949D01*
X76405Y13518D01*
X77165Y13366D01*
X77926Y13518D01*
X78571Y13949D01*
X79002Y14593D01*
X79154Y15354D01*
X79002Y16115D01*
X78571Y16760D01*
X77926Y17191D01*
X77165Y17343D01*
D02*
G37*
G36*
X71898Y13633D02*
X71137Y13482D01*
X70492Y13051D01*
X70061Y12406D01*
X69909Y11645D01*
X70061Y10884D01*
X70492Y10239D01*
X71137Y9808D01*
X71898Y9657D01*
X72658Y9808D01*
X73304Y10239D01*
X73734Y10884D01*
X73886Y11645D01*
X73734Y12406D01*
X73304Y13051D01*
X72658Y13482D01*
X71898Y13633D01*
D02*
G37*
G36*
X52458Y10109D02*
X51697Y9958D01*
X51052Y9527D01*
X50621Y8882D01*
X50470Y8121D01*
X50621Y7360D01*
X51052Y6715D01*
X51697Y6284D01*
X52458Y6133D01*
X53219Y6284D01*
X53864Y6715D01*
X54295Y7360D01*
X54446Y8121D01*
X54295Y8882D01*
X53864Y9527D01*
X53219Y9958D01*
X52458Y10109D01*
D02*
G37*
G36*
X-72462Y9349D02*
X-73223Y9197D01*
X-73867Y8766D01*
X-74299Y8121D01*
X-74450Y7360D01*
X-74299Y6600D01*
X-73867Y5954D01*
X-73223Y5523D01*
X-72462Y5372D01*
X-71701Y5523D01*
X-71056Y5954D01*
X-70625Y6600D01*
X-70473Y7360D01*
X-70625Y8121D01*
X-71056Y8766D01*
X-71701Y9197D01*
X-72462Y9349D01*
D02*
G37*
G36*
X72806Y4022D02*
X72045Y3870D01*
X71400Y3440D01*
X70969Y2795D01*
X70818Y2034D01*
X70969Y1273D01*
X71400Y628D01*
X72045Y197D01*
X72806Y46D01*
X73567Y197D01*
X74212Y628D01*
X74643Y1273D01*
X74794Y2034D01*
X74643Y2795D01*
X74212Y3440D01*
X73567Y3870D01*
X72806Y4022D01*
D02*
G37*
G36*
X54831Y3364D02*
X54071Y3212D01*
X53426Y2781D01*
X52995Y2136D01*
X52843Y1376D01*
X52995Y615D01*
X53426Y-30D01*
X54071Y-461D01*
X54831Y-613D01*
X55592Y-461D01*
X56237Y-30D01*
X56668Y615D01*
X56820Y1376D01*
X56668Y2136D01*
X56237Y2781D01*
X55592Y3212D01*
X54831Y3364D01*
D02*
G37*
G36*
X-72806Y-46D02*
X-73567Y-197D01*
X-74212Y-628D01*
X-74643Y-1273D01*
X-74794Y-2034D01*
X-74643Y-2795D01*
X-74212Y-3440D01*
X-73567Y-3870D01*
X-72806Y-4022D01*
X-72045Y-3870D01*
X-71400Y-3440D01*
X-70969Y-2795D01*
X-70818Y-2034D01*
X-70969Y-1273D01*
X-71400Y-628D01*
X-72045Y-197D01*
X-72806Y-46D01*
D02*
G37*
G36*
X56561Y-2165D02*
X55800Y-2317D01*
X55155Y-2748D01*
X54724Y-3393D01*
X54572Y-4154D01*
X54724Y-4914D01*
X55155Y-5559D01*
X55800Y-5991D01*
X56561Y-6142D01*
X57322Y-5991D01*
X57967Y-5559D01*
X58398Y-4914D01*
X58549Y-4154D01*
X58398Y-3393D01*
X57967Y-2748D01*
X57322Y-2317D01*
X56561Y-2165D01*
D02*
G37*
G36*
X72462Y-5372D02*
X71701Y-5523D01*
X71056Y-5954D01*
X70625Y-6600D01*
X70473Y-7360D01*
X70625Y-8121D01*
X71056Y-8766D01*
X71701Y-9197D01*
X72462Y-9349D01*
X73223Y-9197D01*
X73867Y-8766D01*
X74299Y-8121D01*
X74450Y-7360D01*
X74299Y-6600D01*
X73867Y-5954D01*
X73223Y-5523D01*
X72462Y-5372D01*
D02*
G37*
G36*
X-71711Y-9517D02*
X-72472Y-9669D01*
X-73117Y-10100D01*
X-73548Y-10745D01*
X-73700Y-11506D01*
X-73548Y-12266D01*
X-73117Y-12911D01*
X-72472Y-13342D01*
X-71711Y-13494D01*
X-70951Y-13342D01*
X-70306Y-12911D01*
X-69875Y-12266D01*
X-69723Y-11506D01*
X-69875Y-10745D01*
X-70306Y-10100D01*
X-70951Y-9669D01*
X-71711Y-9517D01*
D02*
G37*
G36*
X57126Y-10749D02*
X56365Y-10901D01*
X55720Y-11332D01*
X55289Y-11977D01*
X55138Y-12738D01*
X55289Y-13498D01*
X55720Y-14143D01*
X56365Y-14574D01*
X57126Y-14726D01*
X57887Y-14574D01*
X58532Y-14143D01*
X58963Y-13498D01*
X59114Y-12738D01*
X58963Y-11977D01*
X58532Y-11332D01*
X57887Y-10901D01*
X57126Y-10749D01*
D02*
G37*
G36*
X70852Y-14891D02*
X70091Y-15042D01*
X69446Y-15473D01*
X69015Y-16118D01*
X68863Y-16879D01*
X69015Y-17640D01*
X69446Y-18285D01*
X70091Y-18716D01*
X70852Y-18867D01*
X71613Y-18716D01*
X72258Y-18285D01*
X72689Y-17640D01*
X72840Y-16879D01*
X72689Y-16118D01*
X72258Y-15473D01*
X71613Y-15042D01*
X70852Y-14891D01*
D02*
G37*
G36*
X-76008Y-17126D02*
X-76769Y-17277D01*
X-77414Y-17708D01*
X-77845Y-18353D01*
X-77996Y-19114D01*
X-77845Y-19875D01*
X-77414Y-20520D01*
X-76769Y-20951D01*
X-76008Y-21102D01*
X-75247Y-20951D01*
X-74602Y-20520D01*
X-74171Y-19875D01*
X-74020Y-19114D01*
X-74171Y-18353D01*
X-74602Y-17708D01*
X-75247Y-17277D01*
X-76008Y-17126D01*
D02*
G37*
G36*
X56471Y-19238D02*
X55710Y-19389D01*
X55065Y-19820D01*
X54634Y-20465D01*
X54483Y-21226D01*
X54634Y-21987D01*
X55065Y-22632D01*
X55710Y-23063D01*
X56471Y-23214D01*
X57232Y-23063D01*
X57877Y-22632D01*
X58308Y-21987D01*
X58459Y-21226D01*
X58308Y-20465D01*
X57877Y-19820D01*
X57232Y-19389D01*
X56471Y-19238D01*
D02*
G37*
G36*
X-74759Y-22356D02*
X-75520Y-22507D01*
X-76165Y-22938D01*
X-76596Y-23583D01*
X-76748Y-24344D01*
X-76596Y-25105D01*
X-76165Y-25750D01*
X-75520Y-26181D01*
X-74759Y-26332D01*
X-73998Y-26181D01*
X-73353Y-25750D01*
X-72922Y-25105D01*
X-72812Y-24548D01*
X-72236Y-24600D01*
X-72097Y-25302D01*
X-71699Y-25897D01*
X-71103Y-26295D01*
X-70401Y-26435D01*
X-69699Y-26295D01*
X-69103Y-25897D01*
X-68706Y-25302D01*
X-68566Y-24600D01*
X-68706Y-23897D01*
X-69103Y-23302D01*
X-69699Y-22904D01*
X-70401Y-22764D01*
X-71103Y-22904D01*
X-71699Y-23302D01*
X-72097Y-23897D01*
X-72196Y-24395D01*
X-72771Y-24344D01*
X-72922Y-23583D01*
X-73353Y-22938D01*
X-73998Y-22507D01*
X-74759Y-22356D01*
D02*
G37*
G36*
X68930Y-24134D02*
X68169Y-24285D01*
X67524Y-24716D01*
X67093Y-25361D01*
X66942Y-26122D01*
X67093Y-26883D01*
X67524Y-27528D01*
X68169Y-27959D01*
X68930Y-28110D01*
X69691Y-27959D01*
X70336Y-27528D01*
X70767Y-26883D01*
X70918Y-26122D01*
X70767Y-25361D01*
X70336Y-24716D01*
X69691Y-24285D01*
X68930Y-24134D01*
D02*
G37*
G36*
X54651Y-27562D02*
X53891Y-27713D01*
X53246Y-28144D01*
X52815Y-28789D01*
X52663Y-29550D01*
X52815Y-30311D01*
X53246Y-30956D01*
X53891Y-31387D01*
X54651Y-31538D01*
X55412Y-31387D01*
X56057Y-30956D01*
X56488Y-30311D01*
X56639Y-29550D01*
X56488Y-28789D01*
X56057Y-28144D01*
X55412Y-27713D01*
X54651Y-27562D01*
D02*
G37*
G36*
X-66434Y-27868D02*
X-67195Y-28020D01*
X-67840Y-28451D01*
X-68271Y-29096D01*
X-68422Y-29857D01*
X-68271Y-30617D01*
X-67840Y-31262D01*
X-67195Y-31693D01*
X-66434Y-31845D01*
X-65673Y-31693D01*
X-65028Y-31262D01*
X-64597Y-30617D01*
X-64446Y-29857D01*
X-64597Y-29096D01*
X-65028Y-28451D01*
X-65673Y-28020D01*
X-66434Y-27868D01*
D02*
G37*
G36*
X64069Y-32654D02*
X63308Y-32805D01*
X62663Y-33236D01*
X62232Y-33881D01*
X62081Y-34642D01*
X62232Y-35403D01*
X62663Y-36048D01*
X63308Y-36479D01*
X64069Y-36630D01*
X64830Y-36479D01*
X65475Y-36048D01*
X65906Y-35403D01*
X66057Y-34642D01*
X65906Y-33881D01*
X65475Y-33236D01*
X64830Y-32805D01*
X64069Y-32654D01*
D02*
G37*
G36*
X-61901Y-36392D02*
X-62662Y-36544D01*
X-63307Y-36975D01*
X-63738Y-37620D01*
X-63890Y-38381D01*
X-63738Y-39141D01*
X-63307Y-39786D01*
X-62662Y-40217D01*
X-61901Y-40369D01*
X-61141Y-40217D01*
X-60496Y-39786D01*
X-60065Y-39141D01*
X-59913Y-38381D01*
X-60065Y-37620D01*
X-60496Y-36975D01*
X-61141Y-36544D01*
X-61901Y-36392D01*
D02*
G37*
G36*
X50867Y-36735D02*
X50106Y-36886D01*
X49461Y-37317D01*
X49030Y-37962D01*
X48878Y-38723D01*
X49030Y-39484D01*
X49461Y-40129D01*
X50106Y-40560D01*
X50867Y-40711D01*
X51627Y-40560D01*
X52272Y-40129D01*
X52703Y-39484D01*
X52855Y-38723D01*
X52703Y-37962D01*
X52272Y-37317D01*
X51627Y-36886D01*
X50867Y-36735D01*
D02*
G37*
G36*
X-21960Y-39604D02*
X-22511Y-39714D01*
X-22978Y-40026D01*
X-23040Y-40088D01*
X-22013Y-41115D01*
X-20933Y-40035D01*
X-20941Y-40026D01*
X-21409Y-39714D01*
X-21960Y-39604D01*
D02*
G37*
G36*
X-23889Y-40936D02*
X-23950Y-40998D01*
X-24263Y-41465D01*
X-24372Y-42017D01*
X-24263Y-42568D01*
X-23950Y-43035D01*
X-23942Y-43044D01*
X-22861Y-41964D01*
X-23889Y-40936D01*
D02*
G37*
G36*
X59073Y-40617D02*
X58313Y-40768D01*
X57668Y-41199D01*
X57237Y-41844D01*
X57085Y-42605D01*
X57237Y-43366D01*
X57668Y-44011D01*
X58313Y-44442D01*
X59073Y-44593D01*
X59834Y-44442D01*
X60479Y-44011D01*
X60910Y-43366D01*
X61062Y-42605D01*
X60910Y-41844D01*
X60479Y-41199D01*
X59834Y-40768D01*
X59073Y-40617D01*
D02*
G37*
G36*
X-25503Y-43148D02*
X-26054Y-43257D01*
X-26521Y-43569D01*
X-26583Y-43631D01*
X-25556Y-44658D01*
X-24476Y-43578D01*
X-24485Y-43569D01*
X-24952Y-43257D01*
X-25503Y-43148D01*
D02*
G37*
G36*
X-36648Y-43940D02*
X-37433Y-44096D01*
X-38098Y-44541D01*
X-38530Y-44972D01*
X-36272Y-47229D01*
X-34391Y-45348D01*
X-35199Y-44541D01*
X-35864Y-44096D01*
X-36648Y-43940D01*
D02*
G37*
G36*
X47599Y-43339D02*
X46838Y-43491D01*
X46193Y-43922D01*
X45762Y-44567D01*
X45611Y-45328D01*
X45762Y-46089D01*
X46193Y-46734D01*
X46838Y-47165D01*
X47599Y-47316D01*
X48360Y-47165D01*
X49005Y-46734D01*
X49436Y-46089D01*
X49587Y-45328D01*
X49436Y-44567D01*
X49005Y-43922D01*
X48360Y-43491D01*
X47599Y-43339D01*
D02*
G37*
G36*
X-39378Y-45821D02*
X-39810Y-46253D01*
X-40254Y-46918D01*
X-40410Y-47702D01*
X-40254Y-48487D01*
X-39810Y-49152D01*
X-39002Y-49959D01*
X-37121Y-48078D01*
X-39378Y-45821D01*
D02*
G37*
G36*
X52920Y-48055D02*
X52159Y-48207D01*
X51514Y-48638D01*
X51083Y-49283D01*
X50932Y-50044D01*
X51083Y-50805D01*
X51514Y-51450D01*
X52159Y-51881D01*
X52920Y-52032D01*
X53681Y-51881D01*
X54326Y-51450D01*
X54757Y-50805D01*
X54908Y-50044D01*
X54757Y-49283D01*
X54326Y-48638D01*
X53681Y-48207D01*
X52920Y-48055D01*
D02*
G37*
G36*
X43996Y-48996D02*
X43235Y-49147D01*
X42590Y-49578D01*
X42159Y-50223D01*
X42008Y-50984D01*
X42159Y-51745D01*
X42590Y-52390D01*
X43235Y-52821D01*
X43996Y-52973D01*
X44757Y-52821D01*
X45402Y-52390D01*
X45833Y-51745D01*
X45984Y-50984D01*
X45833Y-50223D01*
X45402Y-49578D01*
X44757Y-49147D01*
X43996Y-48996D01*
D02*
G37*
G36*
X-21029Y-54062D02*
X-22056Y-55089D01*
X-21994Y-55151D01*
X-21527Y-55463D01*
X-20976Y-55573D01*
X-20424Y-55463D01*
X-19957Y-55151D01*
X-19948Y-55142D01*
X-21029Y-54062D01*
D02*
G37*
G36*
X45836Y-54615D02*
X45075Y-54766D01*
X44430Y-55197D01*
X43999Y-55842D01*
X43848Y-56603D01*
X43999Y-57364D01*
X44430Y-58009D01*
X45075Y-58440D01*
X45836Y-58591D01*
X46597Y-58440D01*
X47242Y-58009D01*
X47673Y-57364D01*
X47824Y-56603D01*
X47673Y-55842D01*
X47242Y-55197D01*
X46597Y-54766D01*
X45836Y-54615D01*
D02*
G37*
G36*
X38071Y-60047D02*
X37310Y-60198D01*
X36665Y-60629D01*
X36234Y-61274D01*
X36083Y-62035D01*
X36234Y-62796D01*
X36665Y-63441D01*
X37310Y-63872D01*
X38071Y-64023D01*
X38832Y-63872D01*
X39477Y-63441D01*
X39908Y-62796D01*
X40060Y-62035D01*
X39908Y-61274D01*
X39477Y-60629D01*
X38832Y-60198D01*
X38071Y-60047D01*
D02*
G37*
G36*
X2692Y-65381D02*
X1665Y-66408D01*
X1727Y-66470D01*
X2194Y-66782D01*
X2745Y-66892D01*
X3296Y-66782D01*
X3763Y-66470D01*
X3772Y-66461D01*
X2692Y-65381D01*
D02*
G37*
G36*
X-14281Y-65492D02*
X-15809D01*
Y-65505D01*
X-15699Y-66056D01*
X-15387Y-66523D01*
X-14920Y-66835D01*
X-14369Y-66945D01*
X-14281D01*
Y-65492D01*
D02*
G37*
G36*
X-16671Y-65492D02*
X-18199D01*
Y-66945D01*
X-18112D01*
X-17561Y-66835D01*
X-17093Y-66523D01*
X-16781Y-66056D01*
X-16671Y-65505D01*
Y-65492D01*
D02*
G37*
G36*
X-19399D02*
X-20927D01*
Y-65505D01*
X-20817Y-66056D01*
X-20505Y-66523D01*
X-20038Y-66835D01*
X-19487Y-66945D01*
X-19399D01*
Y-65492D01*
D02*
G37*
G36*
X29857Y-64446D02*
X29096Y-64597D01*
X28451Y-65028D01*
X28020Y-65673D01*
X27868Y-66434D01*
X28020Y-67195D01*
X28451Y-67840D01*
X29096Y-68271D01*
X29857Y-68422D01*
X30617Y-68271D01*
X31262Y-67840D01*
X31693Y-67195D01*
X31845Y-66434D01*
X31693Y-65673D01*
X31262Y-65028D01*
X30617Y-64597D01*
X29857Y-64446D01*
D02*
G37*
G36*
X-25908Y-66464D02*
X-26669Y-66615D01*
X-27314Y-67046D01*
X-27744Y-67691D01*
X-27896Y-68452D01*
X-27744Y-69213D01*
X-27314Y-69858D01*
X-26669Y-70289D01*
X-25908Y-70440D01*
X-25147Y-70289D01*
X-24502Y-69858D01*
X-24071Y-69213D01*
X-23920Y-68452D01*
X-24071Y-67691D01*
X-24502Y-67046D01*
X-25147Y-66615D01*
X-25908Y-66464D01*
D02*
G37*
G36*
X3814Y-67291D02*
X3805Y-67300D01*
X3493Y-67767D01*
X3384Y-68318D01*
X3493Y-68869D01*
X3805Y-69336D01*
X4204Y-69735D01*
X4022Y-70401D01*
X3515Y-70740D01*
X3084Y-71385D01*
X3069Y-71463D01*
X2432Y-71589D01*
X2193Y-71232D01*
X1548Y-70801D01*
X787Y-70650D01*
X27Y-70801D01*
X-618Y-71232D01*
X-1049Y-71877D01*
X-1201Y-72638D01*
X-1049Y-73399D01*
X-618Y-74044D01*
X27Y-74475D01*
X787Y-74626D01*
X1548Y-74475D01*
X2193Y-74044D01*
X2624Y-73399D01*
X2640Y-73321D01*
X3277Y-73194D01*
X3515Y-73551D01*
X4160Y-73983D01*
X4921Y-74134D01*
X5682Y-73983D01*
X6327Y-73551D01*
X6758Y-72907D01*
X6910Y-72146D01*
X6758Y-71385D01*
X6593Y-71137D01*
X6747Y-70354D01*
X6814Y-70309D01*
X6823Y-70300D01*
X5319Y-68795D01*
X3814Y-67291D01*
D02*
G37*
G36*
X10222Y-72498D02*
X9445Y-72688D01*
X8800Y-73161D01*
X8385Y-73845D01*
X7994Y-74918D01*
X10494Y-75828D01*
X11586Y-72828D01*
X11012Y-72619D01*
X10222Y-72498D01*
D02*
G37*
G36*
X24089Y-72149D02*
X23328Y-72300D01*
X22683Y-72732D01*
X22252Y-73377D01*
X22100Y-74137D01*
X22252Y-74898D01*
X22683Y-75543D01*
X23328Y-75974D01*
X24089Y-76126D01*
X24849Y-75974D01*
X25495Y-75543D01*
X25925Y-74898D01*
X26077Y-74137D01*
X25925Y-73377D01*
X25495Y-72732D01*
X24849Y-72300D01*
X24089Y-72149D01*
D02*
G37*
G36*
X12714Y-73239D02*
X11622Y-76238D01*
X14122Y-77148D01*
X14513Y-76075D01*
X14635Y-75285D01*
X14445Y-74508D01*
X13972Y-73863D01*
X13288Y-73448D01*
X12714Y-73239D01*
D02*
G37*
G36*
X7584Y-76046D02*
X7193Y-77119D01*
X7072Y-77909D01*
X7262Y-78686D01*
X7735Y-79331D01*
X8418Y-79746D01*
X8992Y-79955D01*
X10084Y-76956D01*
X7584Y-76046D01*
D02*
G37*
G36*
X11212Y-77366D02*
X10120Y-80366D01*
X10694Y-80575D01*
X11484Y-80696D01*
X12261Y-80506D01*
X12906Y-80033D01*
X13321Y-79349D01*
X13712Y-78276D01*
X11212Y-77366D01*
D02*
G37*
%LPD*%
G36*
X-37359Y27953D02*
X-36492Y26176D01*
X-36316Y25944D01*
X-35630Y24606D01*
Y19882D01*
X-40354Y15157D01*
X-47047D01*
X-49409Y17520D01*
Y22743D01*
X-48891Y23024D01*
X-48400Y22864D01*
X-46543Y23769D01*
X-46214Y23095D01*
X-45540Y23424D01*
X-44735Y21774D01*
X-44402Y22027D01*
X-44159Y22444D01*
X-44094Y22922D01*
X-44217Y23388D01*
X-44745Y24472D01*
X-44662Y24612D01*
X-44518Y24803D01*
X-43998Y24684D01*
X-43143Y22932D01*
X-42782Y22457D01*
X-42267Y22156D01*
X-41675Y22076D01*
X-41098Y22228D01*
X-40964Y22294D01*
X-42357Y25151D01*
X-41683Y25480D01*
X-42012Y26154D01*
X-39829Y27219D01*
X-39918Y27402D01*
X-39519Y27953D01*
X-37359Y27953D01*
D02*
G37*
%LPC*%
G36*
X-39171Y25871D02*
X-40681Y25135D01*
X-39615Y22951D01*
X-39481Y23017D01*
X-39006Y23378D01*
X-38705Y23894D01*
X-38625Y24485D01*
X-38776Y25062D01*
X-39171Y25871D01*
D02*
G37*
G36*
X-46560Y22093D02*
X-47590Y21590D01*
X-47383Y21318D01*
X-46966Y21075D01*
X-46488Y21010D01*
X-46083Y21116D01*
X-46560Y22093D01*
D02*
G37*
%LPD*%
G36*
X19831Y47052D02*
X20504Y46900D01*
X20819Y46760D01*
X20819D01*
X21134Y46619D01*
X21697Y46221D01*
X22171Y45721D01*
X22539Y45138D01*
X22786Y44495D01*
X22903Y43815D01*
X22885Y43126D01*
X22733Y42454D01*
X22592Y42138D01*
X16198Y44986D01*
X16338Y45301D01*
X16736Y45864D01*
X17236Y46338D01*
X17819Y46706D01*
X18463Y46953D01*
X19142Y47070D01*
X19831Y47052D01*
D02*
G37*
G36*
X22234Y41334D02*
X22094Y41019D01*
X21696Y40456D01*
X21196Y39981D01*
X20613Y39613D01*
X19969Y39366D01*
X19290Y39249D01*
X18600Y39267D01*
X17928Y39420D01*
X17613Y39560D01*
X17298Y39700D01*
X16735Y40098D01*
X16261Y40598D01*
X15893Y41181D01*
X15646Y41825D01*
X15529Y42504D01*
X15547Y43193D01*
X15699Y43866D01*
X15839Y44181D01*
X15839Y44181D01*
X22234Y41334D01*
D02*
G37*
G36*
X28510Y42061D02*
X29181Y41901D01*
X29807Y41612D01*
X30086Y41409D01*
X30365Y41207D01*
X30832Y40700D01*
X31193Y40113D01*
X31431Y39466D01*
X31539Y38785D01*
X31512Y38096D01*
X31351Y37426D01*
X31062Y36799D01*
X30860Y36520D01*
X25197Y40635D01*
X25399Y40914D01*
X25906Y41382D01*
X26493Y41742D01*
X27140Y41981D01*
X27821Y42089D01*
X28510Y42061D01*
D02*
G37*
G36*
X30342Y35808D02*
X30139Y35529D01*
X29633Y35061D01*
X29045Y34701D01*
X28398Y34462D01*
X27718Y34354D01*
X27029Y34381D01*
X26358Y34542D01*
X25732Y34831D01*
X25453Y35033D01*
X25174Y35236D01*
X24706Y35742D01*
X24346Y36330D01*
X24107Y36977D01*
X24000Y37658D01*
X24027Y38347D01*
X24188Y39017D01*
X24476Y39643D01*
X24679Y39922D01*
X24679Y39922D01*
X30342Y35808D01*
D02*
G37*
G36*
X35964Y35385D02*
X36632Y35215D01*
X37255Y34918D01*
X37807Y34505D01*
X38038Y34249D01*
X38038Y34249D01*
X38268Y33993D01*
X38621Y33400D01*
X38851Y32751D01*
X38950Y32068D01*
X38914Y31380D01*
X38744Y30712D01*
X38447Y30089D01*
X38035Y29537D01*
X37779Y29306D01*
X33095Y34508D01*
X33351Y34739D01*
X33943Y35092D01*
X34593Y35322D01*
X35276Y35421D01*
X35964Y35385D01*
D02*
G37*
G36*
X37124Y28717D02*
X36868Y28486D01*
X36275Y28133D01*
X35625Y27903D01*
X34943Y27804D01*
X34254Y27841D01*
X33586Y28010D01*
X32964Y28307D01*
X32412Y28720D01*
X32181Y28976D01*
X32181Y28976D01*
X31950Y29232D01*
X31598Y29824D01*
X31367Y30474D01*
X31269Y31157D01*
X31305Y31845D01*
X31474Y32513D01*
X31771Y33136D01*
X32184Y33688D01*
X32440Y33919D01*
X32440Y33919D01*
X37124Y28717D01*
D02*
G37*
G36*
X41869Y27312D02*
X42535Y27134D01*
X43153Y26829D01*
X43700Y26409D01*
X44155Y25891D01*
X44327Y25592D01*
X44500Y25294D01*
X44721Y24641D01*
X44811Y23957D01*
X44766Y23269D01*
X44588Y22603D01*
X44283Y21985D01*
X43863Y21438D01*
X43345Y20984D01*
X43046Y20811D01*
X39546Y26873D01*
X39845Y27046D01*
X40497Y27268D01*
X41181Y27358D01*
X41869Y27312D01*
D02*
G37*
%LPC*%
G36*
X-19326Y-45711D02*
X-20136Y-46522D01*
X-19852Y-46712D01*
X-19379Y-46806D01*
X-18906Y-46712D01*
X-18558Y-46479D01*
X-19326Y-45711D01*
D02*
G37*
G36*
X-20998Y-47383D02*
X-21808Y-48194D01*
X-21040Y-48962D01*
X-20808Y-48614D01*
X-20714Y-48141D01*
X-20808Y-47668D01*
X-20998Y-47383D01*
D02*
G37*
G36*
X-22869Y-49255D02*
X-23680Y-50065D01*
X-23395Y-50255D01*
X-22922Y-50349D01*
X-22449Y-50255D01*
X-22101Y-50023D01*
X-22869Y-49255D01*
D02*
G37*
G36*
X-30245Y-50547D02*
X-30952Y-50687D01*
X-31551Y-51088D01*
X-31876Y-51413D01*
X-29869Y-53420D01*
X-28238Y-51789D01*
X-28940Y-51088D01*
X-29539Y-50687D01*
X-30245Y-50547D01*
D02*
G37*
G36*
X-32937Y-52474D02*
X-33263Y-52800D01*
X-33663Y-53399D01*
X-33803Y-54105D01*
X-33663Y-54812D01*
X-33263Y-55411D01*
X-32561Y-56112D01*
X-30930Y-54481D01*
X-32937Y-52474D01*
D02*
G37*
G36*
X-27178Y-52850D02*
X-28809Y-54481D01*
X-26802Y-56488D01*
X-26476Y-56162D01*
X-26076Y-55563D01*
X-25935Y-54857D01*
X-26076Y-54150D01*
X-26476Y-53551D01*
X-27178Y-52850D01*
D02*
G37*
G36*
X-29869Y-55542D02*
X-31501Y-57173D01*
X-30799Y-57874D01*
X-30200Y-58275D01*
X-29494Y-58415D01*
X-28787Y-58275D01*
X-28188Y-57874D01*
X-27863Y-57549D01*
X-29869Y-55542D01*
D02*
G37*
G36*
X-18049Y-59256D02*
Y-60342D01*
X-16903D01*
X-16970Y-60006D01*
X-17238Y-59605D01*
X-17639Y-59338D01*
X-18049Y-59256D01*
D02*
G37*
G36*
X-19549D02*
X-19960Y-59338D01*
X-20361Y-59605D01*
X-20629Y-60006D01*
X-20696Y-60342D01*
X-19549D01*
Y-59256D01*
D02*
G37*
G36*
X-14431Y-59256D02*
X-14842Y-59338D01*
X-15243Y-59605D01*
X-15511Y-60007D01*
X-15577Y-60342D01*
X-14431D01*
Y-59256D01*
D02*
G37*
G36*
X8377Y-63529D02*
X7904Y-63623D01*
X7620Y-63813D01*
X8430Y-64623D01*
X9198Y-63855D01*
X8850Y-63623D01*
X8377Y-63529D01*
D02*
G37*
G36*
X10259Y-64916D02*
X9491Y-65684D01*
X10301Y-66495D01*
X10492Y-66210D01*
X10586Y-65737D01*
X10492Y-65264D01*
X10259Y-64916D01*
D02*
G37*
G36*
X13328Y-64192D02*
X12628Y-64364D01*
X12047Y-64790D01*
X11673Y-65405D01*
X11334Y-66338D01*
X13502Y-67127D01*
X14473Y-64460D01*
X14040Y-64302D01*
X13328Y-64192D01*
D02*
G37*
G36*
X15882Y-64973D02*
X14911Y-67640D01*
X17079Y-68429D01*
X17418Y-67496D01*
X17528Y-66785D01*
X17357Y-66085D01*
X16931Y-65504D01*
X16315Y-65130D01*
X15882Y-64973D01*
D02*
G37*
%LPD*%
D63*
X-39764Y-62205D02*
G03*
X-36962Y-68970I9567J0D01*
G01*
X-35547Y-70385D02*
G03*
X-35508Y-70421I843J853D01*
G01*
X-33548Y-71529D02*
G03*
X-20320Y-76406I27054J52994D01*
G01*
X-35416Y-70504D02*
G03*
X-33548Y-71529I18345J31242D01*
G01*
X-38705Y-70046D02*
G03*
X-27264Y-76575I17632J17609D01*
G01*
X-26033Y-76637D02*
G03*
X-26421Y-76575I-383J-1137D01*
G01*
X-26033Y-76637D02*
G03*
X-20732Y-78158I19540J58103D01*
G01*
D02*
G03*
X-20320Y-78206I412J1752D01*
G01*
X-42605Y-60582D02*
G03*
X-38705Y-70046I13430J-0D01*
G01*
X-33358Y-69380D02*
G03*
X-20079Y-74410I29443J57692D01*
G01*
X-50395Y-46849D02*
G03*
X-50191Y-47013I850J847D01*
G01*
X-50395Y-46849D02*
G03*
X-51891Y-46230I-1496J-1498D01*
G01*
X-37162Y-64455D02*
G03*
X-36687Y-65592I2521J386D01*
G01*
X-4680Y-63825D02*
G03*
X-4331Y-64669I1193J0D01*
G01*
X29945Y-54134D02*
X30051Y-54027D01*
X31111D01*
X31398Y-53740D01*
X22638Y-54134D02*
X29945D01*
X21640Y-55132D02*
X22638Y-54134D01*
X12739Y-55132D02*
X21640D01*
X12725Y-55118D02*
X12739Y-55132D01*
X12303Y-55118D02*
X12725D01*
X63304Y24722D02*
X68292D01*
X51181Y12598D02*
X63304Y24722D01*
X51181Y12598D02*
X51181D01*
X48088Y9505D02*
X51181Y12598D01*
X48088Y-35349D02*
Y9505D01*
X41255Y-42183D02*
X48088Y-35349D01*
X17323Y-42183D02*
X41255D01*
X24984Y-36614D02*
X27534Y-34064D01*
X16929Y-36614D02*
X24984D01*
X30656Y-35380D02*
X30709Y-35433D01*
X30656Y-35380D02*
Y-33432D01*
X25036Y-27813D02*
X30656Y-33432D01*
X21006Y-27813D02*
X25036D01*
X17773Y-31046D02*
X21006Y-27813D01*
X12261Y-31046D02*
X17773D01*
X12205Y-31102D02*
Y-31102D01*
X8268Y-35039D02*
X12205Y-31102D01*
X-50044Y-52920D02*
X-46089D01*
X-35552Y-70380D02*
X-35547Y-70385D01*
X-39764Y-62205D02*
Y-59477D01*
X-35508Y-70421D02*
X-35416Y-70504D01*
X-35416Y-70504D01*
X-20320Y-76406D02*
X-14273D01*
X-8315Y-78206D02*
X-4490Y-74381D01*
X-27264Y-76575D02*
X-26421D01*
X-27264D02*
X-27264D01*
X-26033Y-76637D02*
X-26033Y-76637D01*
X-20320Y-78206D02*
X-17323Y-78206D01*
X-8315D01*
X26969Y-24213D02*
X36517Y-33762D01*
X38978D01*
X19488Y-24213D02*
X26969D01*
X16255Y-27446D02*
X19488Y-24213D01*
X9759Y-27446D02*
X16255D01*
X5315Y-31890D02*
X9759Y-27446D01*
X22383Y-34646D02*
X24774Y-32255D01*
X16929Y-34646D02*
X22383D01*
X19588Y-32846D02*
X22071Y-30363D01*
X16183Y-32846D02*
X19588D01*
X15983Y-33046D02*
X16183Y-32846D01*
X13780Y-33046D02*
X15983D01*
X26431Y-62331D02*
X26576Y-62477D01*
X29429Y-60839D02*
Y-60640D01*
X28517Y-59927D02*
X29429Y-60839D01*
X-2362Y-62992D02*
X-1031Y-64324D01*
X22258Y-51968D02*
X29563D01*
X30341Y-51190D01*
X33232Y-51968D02*
X34043D01*
X30341Y-51190D02*
X32454D01*
X34732Y-52658D02*
X35138D01*
X20895Y-53332D02*
X22258Y-51968D01*
X32454Y-51190D02*
X33232Y-51968D01*
X34043D02*
X34732Y-52658D01*
X-42605Y-60582D02*
Y-59073D01*
X61713Y31890D02*
X67260Y37437D01*
X61713Y25886D02*
Y31890D01*
X67260Y37437D02*
X75061D01*
X50394Y14567D02*
X61713Y25886D01*
X-6881Y-60679D02*
X-6284Y-60081D01*
Y-59378D01*
X10813Y-29246D02*
X17001D01*
X6791Y-33268D02*
X10813Y-29246D01*
X29596Y-58090D02*
X32697D01*
X34252Y-59646D01*
X30341Y-56290D02*
X34457D01*
X34480Y-56267D01*
X23565Y-58732D02*
X24207Y-58090D01*
X22820Y-56932D02*
X23461Y-56290D01*
X24207Y-58090D02*
X29596D01*
X23461Y-56290D02*
X30341D01*
X30341Y-56290D01*
X29596Y-58090D02*
X29596Y-58090D01*
X-20079Y-74410D02*
X-15244D01*
X-56282Y-46230D02*
X-51891D01*
X-37958Y-59264D02*
X-37162Y-64455D01*
X-35344Y-67394D02*
X-33358Y-69380D01*
X20302Y-51378D02*
X22299Y-49381D01*
X38197Y-51189D02*
X38484Y-51476D01*
X22299Y-49381D02*
X35468D01*
X37276Y-51189D02*
X38197D01*
X35468Y-49381D02*
X37276Y-51189D01*
X11904Y-62331D02*
X26431D01*
X13878Y-51378D02*
X20302D01*
X25346Y-59927D02*
X28517D01*
X24742Y-60532D02*
X25346Y-59927D01*
X11904Y-60532D02*
X24742D01*
X13484Y-53332D02*
X20895D01*
X11904Y-58732D02*
X23565D01*
X11904Y-56932D02*
X22820D01*
X44488Y-33858D02*
Y12205D01*
X46288Y-34604D02*
Y10461D01*
X-6881Y-66334D02*
X-4490Y-68725D01*
X-35552Y-70380D02*
Y-70380D01*
X-11029Y-70195D02*
Y-59386D01*
X-6881Y-66334D02*
Y-60679D01*
X-4490Y-74381D02*
Y-68725D01*
X-14273Y-76406D02*
X-8687Y-70820D01*
X-15244Y-74410D02*
X-11029Y-70195D01*
X-4680Y-63825D02*
Y-61024D01*
X-11029Y-59386D02*
X-10855Y-59213D01*
X-8687Y-70820D02*
Y-59307D01*
X17323Y-38583D02*
X39764D01*
X17323Y-40383D02*
X40509D01*
X39764Y-38583D02*
X44488Y-33858D01*
X40509Y-40383D02*
X46288Y-34604D01*
X20234Y-26013D02*
X26223D01*
X17001Y-29246D02*
X20234Y-26013D01*
X26223D02*
X36285Y-36075D01*
Y-36150D02*
Y-36075D01*
X50394Y14567D02*
X50394D01*
X46288Y10461D02*
X50394Y14567D01*
X47213Y14929D02*
Y14992D01*
X44488Y12205D02*
X47213Y14929D01*
X-36962Y-68970D02*
X-35552Y-70380D01*
X62985Y55608D02*
X69705Y46911D01*
X55188Y63354D02*
X62985Y55608D01*
X46447Y70015D02*
X55188Y63354D01*
X69705Y46911D02*
X75061Y37437D01*
X79471Y27272D01*
X5217Y83858D02*
X16118Y82460D01*
X-5774Y83822D02*
X5217Y83858D01*
X16118Y82460D02*
X26743Y79651D01*
X-16665Y82351D02*
X-5774Y83822D01*
X36911Y75479D02*
X46447Y70015D01*
X26743Y79651D02*
X36911Y75479D01*
D64*
X75479Y-36911D02*
X79651Y-26743D01*
X37407Y-75223D02*
X46911Y-69705D01*
X55608Y-62985D01*
X79651Y-26743D02*
X82460Y-16118D01*
X83858Y-5217D01*
X55608Y-62985D02*
X63354Y-55188D01*
X70015Y-46447D01*
X82351Y16665D02*
X83822Y5774D01*
X27272Y-79471D02*
X37411Y-75232D01*
X27272Y-79715D02*
Y-79471D01*
X83822Y5774D02*
X83858Y-5217D01*
X70015Y-46447D02*
X75479Y-36911D01*
X37407Y-75223D02*
X37411Y-75232D01*
X-26787Y-79679D02*
X-26759Y-79651D01*
X-26787Y-79718D02*
Y-79679D01*
X-16736Y34330D02*
X-16535Y32446D01*
X-37411Y75232D02*
X-27272Y79471D01*
X-46911Y69705D02*
X-37411Y75232D01*
X-55608Y62985D02*
X-46911Y69705D01*
X-63354Y55188D02*
X-55608Y62985D01*
X-70015Y46447D02*
X-63354Y55188D01*
X-75479Y36911D02*
X-70015Y46447D01*
X-79651Y26743D02*
X-75479Y36911D01*
X-82460Y16118D02*
X-79651Y26743D01*
X-83858Y5217D02*
X-82460Y16118D01*
X-83822Y-5774D02*
X-82351Y-16665D01*
X-82224Y-16792D01*
X-83858Y5217D02*
X-83822Y-5774D01*
X-82224Y-17314D02*
Y-16792D01*
X5774Y-83822D02*
X16665Y-82351D01*
X5737Y-83858D02*
X5774Y-83822D01*
X-5217Y-83858D02*
X5737D01*
X-16118Y-82460D02*
X-5217Y-83858D01*
X-62985Y-55608D02*
X-55188Y-63354D01*
X-36911Y-75479D02*
X-26773Y-79724D01*
X-26762Y-79727D02*
X-16118Y-82460D01*
X-16736Y34330D02*
X-15087Y35161D01*
X-21039Y35888D02*
X-16810Y38548D01*
X-22064Y43095D02*
X-20556Y40018D01*
X-20335Y39568D01*
X-21039Y35888D02*
X-20335Y39568D01*
X-32460Y36185D02*
X-30918Y38796D01*
X-32778Y35646D02*
X-32460Y36185D01*
X-32778Y35646D02*
X-31450Y30606D01*
X-35549Y28527D02*
X-31450Y30606D01*
X-46447Y-70015D02*
X-36911Y-75479D01*
X-69705Y-46911D02*
X-62985Y-55608D01*
X-55188Y-63354D02*
X-46447Y-70015D01*
X-75232Y-37411D02*
X-69705Y-46911D01*
X-79471Y-27272D02*
X-75232Y-37411D01*
D66*
X0Y0D02*
D03*
D67*
X76772Y76772D02*
D03*
Y-76772D02*
D03*
X-76772D02*
D03*
Y76772D02*
D03*
D68*
X77165Y15354D02*
D03*
X31398Y-53740D02*
D03*
X68292Y24722D02*
D03*
X-76008Y-19114D02*
D03*
X27534Y-34064D02*
D03*
X30709Y-35433D02*
D03*
X55608Y-62985D02*
D03*
X52458Y8121D02*
D03*
X56561Y-4154D02*
D03*
X56471Y-21226D02*
D03*
X54037Y40498D02*
D03*
X40945Y48819D02*
D03*
X45161Y47757D02*
D03*
X47599Y-45328D02*
D03*
X54651Y-29550D02*
D03*
X68930Y-26122D02*
D03*
X50867Y-38723D02*
D03*
X70852Y-16879D02*
D03*
X56282Y46230D02*
D03*
X18898Y57087D02*
D03*
X13508Y56694D02*
D03*
X5333Y56427D02*
D03*
X-26759Y-79651D02*
D03*
X-78809Y-35855D02*
D03*
X-27272Y79471D02*
D03*
X-37411Y75232D02*
D03*
X-46911Y69705D02*
D03*
X-55608Y62985D02*
D03*
X-63354Y55188D02*
D03*
X-70015Y46447D02*
D03*
X-75479Y36911D02*
D03*
X-79651Y26743D02*
D03*
X-82460Y16118D02*
D03*
X-83858Y5217D02*
D03*
X-82224Y-17314D02*
D03*
X-83822Y-5774D02*
D03*
X24774Y-32255D02*
D03*
X-85541Y-13217D02*
D03*
X22071Y-30363D02*
D03*
X-66434Y-29857D02*
D03*
X-74759Y-24344D02*
D03*
X26576Y-62477D02*
D03*
X29429Y-60640D02*
D03*
X-1031Y-64324D02*
D03*
X787Y-72638D02*
D03*
X-75232Y-37411D02*
D03*
X38071Y-62035D02*
D03*
X34480Y-56267D02*
D03*
X34252Y-59646D02*
D03*
X43996Y-50984D02*
D03*
X66434Y29857D02*
D03*
X4921Y-72146D02*
D03*
X98Y-61024D02*
D03*
X16665Y-82351D02*
D03*
X5774Y-83822D02*
D03*
X-5217Y-83858D02*
D03*
X29857Y-66434D02*
D03*
X38484Y-51476D02*
D03*
X35138Y-52658D02*
D03*
X-4331Y-64669D02*
D03*
X-7040Y-73325D02*
D03*
X47213Y14992D02*
D03*
X-34550Y-64192D02*
D03*
X27272Y-79715D02*
D03*
X-16732Y-41133D02*
D03*
X-39665Y21161D02*
D03*
X-42028Y19291D02*
D03*
X-45079Y18996D02*
D03*
X-43701Y16535D02*
D03*
X-40945D02*
D03*
X-38976Y18504D02*
D03*
X-46457Y16535D02*
D03*
X-37008Y20472D02*
D03*
X-25908Y-68452D02*
D03*
X-13583Y-56105D02*
D03*
X-16929Y-56102D02*
D03*
X-16433Y-71605D02*
D03*
X52920Y-50044D02*
D03*
X45836Y-56603D02*
D03*
X74512Y24210D02*
D03*
X72806Y2034D02*
D03*
X24089Y-74137D02*
D03*
X-71711Y-11506D02*
D03*
X-58924Y42811D02*
D03*
X74001Y45225D02*
D03*
X62985Y55608D02*
D03*
X69705Y46911D02*
D03*
X46447Y70015D02*
D03*
X55188Y63354D02*
D03*
X75061Y37437D02*
D03*
X79471Y27272D02*
D03*
X5217Y83858D02*
D03*
X16118Y82460D02*
D03*
X-5774Y83822D02*
D03*
X-16665Y82351D02*
D03*
X36911Y75479D02*
D03*
X26743Y79651D02*
D03*
X45225Y-74001D02*
D03*
X83822Y5774D02*
D03*
X83858Y-5217D02*
D03*
X82351Y16665D02*
D03*
X82460Y-16118D02*
D03*
X79651Y-26743D02*
D03*
X75479Y-36911D02*
D03*
X70015Y-46447D02*
D03*
X63354Y-55188D02*
D03*
X46911Y-69705D02*
D03*
X37407Y-75223D02*
D03*
X7360Y72462D02*
D03*
X72462Y-7360D02*
D03*
X-72462Y7360D02*
D03*
X-56194Y6101D02*
D03*
X-1017Y72827D02*
D03*
X-1152Y54918D02*
D03*
X54831Y1376D02*
D03*
X-54394Y-1924D02*
D03*
X-72806Y-2034D02*
D03*
X-4075Y52757D02*
D03*
X71898Y11645D02*
D03*
X-13381Y71543D02*
D03*
X-52434Y-8122D02*
D03*
X-24147Y74316D02*
D03*
X-36911Y-75479D02*
D03*
X57126Y-12738D02*
D03*
X25864Y68088D02*
D03*
X-68088Y25864D02*
D03*
X-55909Y22285D02*
D03*
X34642Y64069D02*
D03*
X30310Y54233D02*
D03*
X64069Y-34642D02*
D03*
X-64069Y34642D02*
D03*
X-54324Y29865D02*
D03*
X42605Y59073D02*
D03*
X59073Y-42605D02*
D03*
X-53050Y35523D02*
D03*
X-42605Y-59073D02*
D03*
X-29857Y66434D02*
D03*
X61004Y38164D02*
D03*
X-38381Y61901D02*
D03*
X-61901Y-38381D02*
D03*
X-52168Y44399D02*
D03*
X-41874Y57635D02*
D03*
X49859Y53094D02*
D03*
X16632Y70910D02*
D03*
X-56671Y14069D02*
D03*
X-70852Y16879D02*
D03*
X-50044Y-52920D02*
D03*
X-56282Y-46230D02*
D03*
X-62985Y-55608D02*
D03*
X-46447Y-70015D02*
D03*
X-16118Y-82460D02*
D03*
X-55188Y-63354D02*
D03*
X-69705Y-46911D02*
D03*
X-79471Y-27272D02*
D03*
D69*
X-70401Y-24600D02*
D03*
X29134Y31890D02*
D03*
X25591Y33071D02*
D03*
X12992Y42520D02*
D03*
X38978Y-33762D02*
D03*
X-6004Y-30610D02*
D03*
X197Y-30709D02*
D03*
X-2756Y-30610D02*
D03*
X0Y-39370D02*
D03*
X-17224Y-25295D02*
D03*
X21626Y-65847D02*
D03*
X-13655Y40309D02*
D03*
X-22817Y-27065D02*
D03*
X18406Y-64862D02*
D03*
X18209Y-69193D02*
D03*
X-29331Y43898D02*
D03*
X-80315Y-32677D02*
D03*
X-37402Y1575D02*
D03*
X-31890Y-9843D02*
D03*
X-29921Y-15748D02*
D03*
X-33858Y-3937D02*
D03*
X-33465Y5512D02*
D03*
X37795Y-25591D02*
D03*
X26378Y-19685D02*
D03*
X33465Y-7874D02*
D03*
X35433Y5512D02*
D03*
X31496Y17717D02*
D03*
X23622Y23622D02*
D03*
X15748Y29528D02*
D03*
X-11811D02*
D03*
X-3150Y39764D02*
D03*
X-2756Y47244D02*
D03*
X-25984Y37402D02*
D03*
X-24016Y38583D02*
D03*
X-16535Y32446D02*
D03*
X-27165Y44882D02*
D03*
X-27953Y-42913D02*
D03*
X5297Y22215D02*
D03*
X10656Y20200D02*
D03*
X15344Y16915D02*
D03*
X19069Y12568D02*
D03*
X21595Y7431D02*
D03*
X22765Y1827D02*
D03*
X22504Y-3892D02*
D03*
X20829Y-9366D02*
D03*
X17845Y-14252D02*
D03*
X13740Y-18242D02*
D03*
X8772Y-21086D02*
D03*
X3252Y-22605D02*
D03*
X-2471Y-22704D02*
D03*
X-8040Y-21376D02*
D03*
X-13103Y-18705D02*
D03*
X-17344Y-14859D02*
D03*
X-20494Y-10079D02*
D03*
X-22356Y-4665D02*
D03*
X-22814Y1041D02*
D03*
X-21839Y6682D02*
D03*
X-19491Y11903D02*
D03*
X-15918Y16376D02*
D03*
X-11346Y19820D02*
D03*
X-6060Y22019D02*
D03*
X-394Y22835D02*
D03*
X-49213Y-5906D02*
D03*
X-48228Y-16732D02*
D03*
X-33071Y-44882D02*
D03*
X33465Y-46260D02*
D03*
X18701Y-48228D02*
D03*
X31890Y-80315D02*
D03*
X21555Y-68405D02*
D03*
X19488Y-67126D02*
D03*
X-9449Y33465D02*
D03*
X3937Y39370D02*
D03*
Y47244D02*
D03*
X15748Y-47244D02*
D03*
X-31102Y80709D02*
D03*
X80709Y31102D02*
D03*
X52362Y-24409D02*
D03*
X52756Y-7874D02*
D03*
X-49213Y-11811D02*
D03*
X36285Y-36150D02*
D03*
X-7087Y46021D02*
D03*
X-45037Y6143D02*
D03*
X-44650Y1476D02*
D03*
X32677Y-63779D02*
D03*
X-24409Y-39370D02*
D03*
X33590Y-15906D02*
D03*
X0Y-47244D02*
D03*
X19685Y-45276D02*
D03*
X3937Y-43307D02*
D03*
X-3937D02*
D03*
X3937Y-51181D02*
D03*
X0Y-55118D02*
D03*
X-3937Y-51181D02*
D03*
X-7874Y-47244D02*
D03*
X7874D02*
D03*
X41339Y-45669D02*
D03*
X-37795Y-42520D02*
D03*
X38583Y17717D02*
D03*
X-36220Y36220D02*
D03*
Y39370D02*
D03*
X-22441Y25984D02*
D03*
X-29528Y24409D02*
D03*
X-11243Y43272D02*
D03*
X-40276Y-6937D02*
D03*
X-41676Y-3937D02*
D03*
X-27559Y14961D02*
D03*
X-26575Y-48917D02*
D03*
X-24705Y-50492D02*
D03*
X-28839Y-49705D02*
D03*
X-27067Y-51279D02*
D03*
X-25295Y-52854D02*
D03*
X-20768Y-56791D02*
D03*
X-23130Y-55413D02*
D03*
X11811Y46457D02*
D03*
D70*
X84465Y77684D02*
D03*
X83578Y72898D02*
D03*
X80047Y69547D02*
D03*
X75221Y68911D02*
D03*
X70942Y71234D02*
D03*
X68846Y75627D02*
D03*
X69733Y80414D02*
D03*
X73264Y83765D02*
D03*
X78091Y84401D02*
D03*
X82369Y82078D02*
D03*
X77684Y-84465D02*
D03*
X72898Y-83578D02*
D03*
X69547Y-80047D02*
D03*
X68911Y-75221D02*
D03*
X71234Y-70942D02*
D03*
X75627Y-68846D02*
D03*
X80414Y-69733D02*
D03*
X83765Y-73264D02*
D03*
X84401Y-78091D02*
D03*
X82078Y-82369D02*
D03*
X-84465Y-77684D02*
D03*
X-83578Y-72898D02*
D03*
X-80047Y-69547D02*
D03*
X-75221Y-68911D02*
D03*
X-70942Y-71234D02*
D03*
X-68846Y-75627D02*
D03*
X-69733Y-80414D02*
D03*
X-73264Y-83765D02*
D03*
X-78091Y-84401D02*
D03*
X-82369Y-82078D02*
D03*
X-82078Y82369D02*
D03*
X-84401Y78091D02*
D03*
X-83765Y73264D02*
D03*
X-80414Y69733D02*
D03*
X-75627Y68846D02*
D03*
X-71234Y70942D02*
D03*
X-68911Y75221D02*
D03*
X-69547Y80047D02*
D03*
X-72898Y83578D02*
D03*
X-77684Y84465D02*
D03*
D72*
X-14403Y-29501D02*
G03*
X-14970Y-29265I-567J-564D01*
G01*
X-15230Y-30901D02*
G03*
X-15797Y-30665I-567J-564D01*
G01*
X11215Y-55118D02*
X12303D01*
X8352Y-52255D02*
X11215Y-55118D01*
X15084Y-42183D02*
X17323D01*
X11692Y-45574D02*
X15084Y-42183D01*
X13971Y-36614D02*
X16929D01*
X8352Y-42233D02*
X13971Y-36614D01*
X7480Y-35827D02*
X8268Y-35039D01*
X5850Y-35827D02*
X7480D01*
X3898Y-37779D02*
X5850Y-35827D01*
X-68701Y984D02*
Y9646D01*
X-67716Y0D02*
X-62992D01*
X-68701Y984D02*
X-67716Y0D01*
X-53869Y9055D02*
X-51211Y6398D01*
X-61417Y9055D02*
X-53869D01*
X-62992Y5300D02*
Y7480D01*
X-61417Y9055D01*
X-51211Y-2786D02*
Y1673D01*
X-53725Y-5300D02*
X-51211Y-2786D01*
X-62992Y-5300D02*
X-53725D01*
X29379Y32134D02*
X32453D01*
X29134Y31890D02*
X29379Y32134D01*
X25591Y34837D02*
X26209Y35456D01*
X25591Y33071D02*
Y34837D01*
X26209Y35456D02*
Y35772D01*
X13028Y42556D02*
X16577D01*
X12992Y42520D02*
X13028Y42556D01*
X37766Y31091D02*
X41239Y26310D01*
X30469Y38428D02*
X34868Y34309D01*
X21855Y43763D02*
X26816Y40755D01*
X17898Y45525D02*
X17899D01*
X16967Y46457D02*
X17898Y45525D01*
X11811Y46457D02*
X16967D01*
X40556Y25978D02*
X40631Y25885D01*
X-18341Y-50527D02*
X-16043Y-48228D01*
X-12378D02*
X-11692Y-48914D01*
X-16043Y-48228D02*
X-12378D01*
X-44636Y1427D02*
X-44488Y1575D01*
X-47362Y1427D02*
X-44636D01*
X-45276Y418D02*
X-44636Y1427D01*
X5315Y-31907D02*
Y-31890D01*
X1670Y-35552D02*
X5315Y-31907D01*
X13712Y-34646D02*
X16929D01*
X7238Y-41120D02*
X13712Y-34646D01*
X13085Y-33046D02*
X13780D01*
X6125Y-40006D02*
X13085Y-33046D01*
X-13812Y-27865D02*
X-4728Y-36948D01*
X-14403Y-29501D02*
X-5011Y-38892D01*
X-15230Y-30901D02*
X-6125Y-40006D01*
X-16293Y-32065D02*
X-8921Y-39437D01*
X-17120Y-33465D02*
X-9748Y-40837D01*
X-17637Y44291D02*
X-13655Y40309D01*
Y40309D02*
Y40309D01*
X-38189Y-17883D02*
X-38189Y-17883D01*
X-35531Y-23130D02*
Y-20472D01*
X-38120Y-17883D02*
X-35531Y-20472D01*
X-38189Y-17883D02*
Y-13711D01*
X-37289Y-22750D02*
X-36931Y-23108D01*
Y-23710D02*
Y-23108D01*
X-38189Y-21723D02*
Y-21684D01*
X-33290Y-25372D02*
X-24683D01*
X-35531Y-23130D02*
X-33290Y-25372D01*
X-35895Y-26378D02*
Y-24746D01*
X-36931Y-23710D02*
X-35895Y-24746D01*
X-38189Y-21723D02*
X-37289Y-22624D01*
Y-22750D02*
Y-22624D01*
X-19675Y-27865D02*
X-13812D01*
X-20617Y-26923D02*
Y-26153D01*
X-23110Y-26772D02*
X-22817Y-27065D01*
X-24176Y-24865D02*
X-21905D01*
X-20617Y-26153D01*
X-35502Y-26772D02*
X-23110D01*
X-20617Y-26923D02*
X-19675Y-27865D01*
X-24683Y-25372D02*
X-24176Y-24865D01*
X-68701Y9646D02*
X-66929Y11417D01*
X-17637Y44291D02*
Y45244D01*
X-4680Y-61024D02*
Y-59719D01*
X-2784Y-57823D01*
X-6284Y-59378D02*
Y-59096D01*
X-10855Y-59213D02*
X-6814Y-55171D01*
X-6284Y-59096D02*
X-4587Y-57399D01*
X-12414Y-54331D02*
X-10427D01*
X-13583Y-56105D02*
X-13220Y-55742D01*
Y-55136D02*
X-12414Y-54331D01*
X-13220Y-55742D02*
Y-55136D01*
X-10427Y-54331D02*
X-8352Y-52255D01*
X6181Y-33268D02*
X6791D01*
X2784Y-36665D02*
X6181Y-33268D01*
X-47411Y1378D02*
X-47362Y1427D01*
X-18109Y31499D02*
X-17468Y32140D01*
X-16842D01*
X-16535Y32446D01*
X98Y-61024D02*
X388D01*
X391Y-61027D01*
X591Y-60827D01*
X394Y-60630D02*
X591Y-60827D01*
X394Y-60630D02*
X1874Y-59149D01*
X11929Y-51378D02*
X13878D01*
X10579Y-50028D02*
X11929Y-51378D01*
X10934Y-52610D02*
X11655Y-53332D01*
X13484D01*
X10077Y-60532D02*
X11904D01*
X10801Y-56932D02*
X11904D01*
X9897Y-62331D02*
X11904D01*
X10374Y-58732D02*
X11904D01*
X6683Y-59117D02*
X9897Y-62331D01*
X7263Y-57717D02*
X10077Y-60532D01*
X7238Y-53369D02*
X10801Y-56932D01*
X6125Y-54482D02*
X10374Y-58732D01*
X10579Y-50028D02*
X11761Y-51210D01*
X10579Y-50028D02*
X10579D01*
X9465Y-51142D02*
X10934Y-52610D01*
X-66929Y11417D02*
X-31102D01*
X-42450Y-718D02*
Y3769D01*
X-43876Y-28194D02*
Y-2143D01*
X-42450Y-718D01*
X3898Y-56709D02*
X6305Y-59117D01*
X7132Y-57717D02*
X7263D01*
X-3080Y-62205D02*
X-2362Y-62923D01*
X-7087Y46021D02*
Y46454D01*
X-8783Y48151D02*
Y49543D01*
Y48151D02*
X-7087Y46454D01*
X-18813Y31499D02*
X-18109D01*
X-47284Y6271D02*
X-45164D01*
X-47411Y6398D02*
X-47284Y6271D01*
X-45164D02*
X-45037Y6143D01*
X-45079Y6398D02*
X-42450Y3769D01*
X-43876Y-28194D02*
X-40005Y-32065D01*
X-45276Y-28774D02*
Y418D01*
X-16732Y-41133D02*
X-16664D01*
X-14965Y-39434D02*
X-14897D01*
X-16664Y-41133D02*
X-14965Y-39434D01*
X-31102Y11417D02*
X-27559Y14961D01*
X-41076Y-23491D02*
Y-8170D01*
X-40276Y-7370D01*
Y-6937D01*
X-42476Y-27615D02*
Y-5170D01*
X-41076Y-23491D02*
X-39764Y-24803D01*
X-41676Y-4370D02*
Y-3937D01*
X-45276Y-28774D02*
X-44702Y-29348D01*
X-42476Y-27615D02*
X-39426Y-30665D01*
X-39764Y-28346D02*
Y-24803D01*
X-42476Y-5170D02*
X-41676Y-4370D01*
X-35895Y-26378D02*
X-35502Y-26772D01*
X-38846Y-29265D02*
X-14970D01*
X-39426Y-30665D02*
X-15797D01*
X-40005Y-32065D02*
X-16293D01*
X-40585Y-33465D02*
X-17120D01*
X-4728Y-36948D02*
X-3897Y-37779D01*
X-4728Y-36948D02*
X-4728D01*
X-8921Y-39437D02*
X-8921D01*
X-7238Y-41120D01*
X-14897Y-40142D02*
X-10579Y-44460D01*
X-14897Y-40142D02*
Y-39434D01*
X-16240Y-55118D02*
X-13976Y-52854D01*
X-11178D01*
X-9465Y-51142D01*
X-21029Y-54044D02*
Y-53214D01*
X-21078D02*
X-21029D01*
X-44702Y-29348D02*
X-40585Y-33465D01*
X-39764Y-28346D02*
X-38846Y-29265D01*
X6305Y-59117D02*
X6683D01*
X5011Y-55596D02*
X7132Y-57717D01*
X-11730Y44345D02*
X-11660Y44201D01*
X-13210Y47394D02*
X-11730Y44345D01*
X-11660Y44122D02*
Y44201D01*
X-11243Y43272D02*
Y43705D01*
X-11660Y44122D02*
X-11243Y43705D01*
X-9748Y-40837D02*
X-8352Y-42233D01*
X-9748Y-40837D02*
X-9748D01*
X-44702Y-29348D02*
Y-29348D01*
X10579Y-44460D02*
X14656Y-40383D01*
X17323D01*
X9465Y-43347D02*
X14229Y-38583D01*
X17323D01*
X-2362Y-62992D02*
Y-62923D01*
X-3080Y-62205D02*
Y-60346D01*
X1670Y-58937D02*
X1874Y-59140D01*
Y-59149D02*
Y-59140D01*
X-3080Y-60346D02*
X-1670Y-58936D01*
D73*
X-41732Y-54724D02*
G03*
X-46089Y-52920I-4357J-4357D01*
G01*
X-37971Y-59126D02*
G03*
X-37958Y-59264I1199J45D01*
G01*
X-37971Y-59126D02*
G03*
X-40460Y-53451I-8514J-350D01*
G01*
D02*
G03*
X-41812Y-52366I-5630J-5630D01*
G01*
X-50191Y-47013D02*
X-41812Y-52366D01*
D74*
X-39764Y-59477D02*
G03*
X-41732Y-54724I-6721J0D01*
G01*
D75*
X8352Y-52255D02*
D03*
X10579Y-50028D02*
D03*
X9465Y-51142D02*
D03*
X11692Y-48915D02*
D03*
X7238Y-53369D02*
D03*
X6125Y-54482D02*
D03*
X5011Y-55596D02*
D03*
X3898Y-56709D02*
D03*
X2784Y-57823D02*
D03*
X1670Y-58937D02*
D03*
X-1670Y-35552D02*
D03*
X-2784Y-36665D02*
D03*
X-3897Y-37779D02*
D03*
X-5011Y-38892D02*
D03*
X-6125Y-40006D02*
D03*
X-7238Y-41120D02*
D03*
X-8352Y-42233D02*
D03*
X-9465Y-43347D02*
D03*
X-10579Y-44460D02*
D03*
X-11692Y-45574D02*
D03*
D76*
X11692Y-45574D02*
D03*
X9465Y-43347D02*
D03*
X8352Y-42233D02*
D03*
X6125Y-40006D02*
D03*
X3898Y-37779D02*
D03*
X1670Y-35552D02*
D03*
X2784Y-36665D02*
D03*
X7238Y-41120D02*
D03*
X10579Y-44460D02*
D03*
X5011Y-38892D02*
D03*
X-2784Y-57823D02*
D03*
X-1670Y-58936D02*
D03*
X-3898Y-56709D02*
D03*
X-9465Y-51142D02*
D03*
X-8352Y-52255D02*
D03*
X-11692Y-48914D02*
D03*
X-10579Y-50028D02*
D03*
X-6125Y-54482D02*
D03*
X-5011Y-55596D02*
D03*
X-7238Y-53369D02*
D03*
D77*
X20397Y45813D02*
D03*
X17899Y45525D02*
D03*
X21855Y43763D02*
D03*
X18035Y40506D02*
D03*
X20533Y40795D02*
D03*
X16577Y42556D02*
D03*
X25063Y38180D02*
D03*
X28566Y35634D02*
D03*
X26062Y35872D02*
D03*
X30476Y38263D02*
D03*
X26973Y40809D02*
D03*
X29476Y40571D02*
D03*
X37268Y33556D02*
D03*
X34868Y34309D02*
D03*
X37766Y31091D02*
D03*
X32951Y29669D02*
D03*
X35351Y28916D02*
D03*
X32453Y32135D02*
D03*
X38425Y24685D02*
D03*
X40590Y20934D02*
D03*
X38399Y22170D02*
D03*
X43404Y22559D02*
D03*
X41239Y26310D02*
D03*
X43430Y25074D02*
D03*
D78*
X-35032Y28724D02*
D03*
X-41683Y25480D02*
D03*
D79*
X0Y-47244D02*
D03*
D80*
X-21029Y-53214D02*
D03*
X-18341Y-50527D02*
D03*
X8430Y-65684D02*
D03*
X5743Y-68371D02*
D03*
X5379Y-61845D02*
D03*
X2692Y-64533D02*
D03*
D81*
X-38189Y-21684D02*
D03*
X-38189Y-17883D02*
D03*
X-38189Y-9911D02*
D03*
Y-13711D02*
D03*
X-13681Y-61092D02*
D03*
Y-64892D02*
D03*
X-18799Y-61092D02*
D03*
Y-64892D02*
D03*
D82*
X-51211Y6398D02*
D03*
X-47411Y6398D02*
D03*
X-51211Y1673D02*
D03*
X-47411Y1673D02*
D03*
X-35895Y-26378D02*
D03*
X-39695D02*
D03*
D83*
X-4774Y64226D02*
D03*
X-44937Y44637D02*
D03*
D84*
X-8793Y49563D02*
D03*
X-13216Y47405D02*
D03*
X-17639Y45248D02*
D03*
X-22062Y43091D02*
D03*
X-26485Y40934D02*
D03*
X-30908Y38776D02*
D03*
D85*
X-15115Y35147D02*
D03*
X-16781Y38562D02*
D03*
X-47880Y26511D02*
D03*
X-46214Y23095D02*
D03*
D86*
X-17584Y-36747D02*
D03*
X-14897Y-39434D02*
D03*
X-19326Y-44651D02*
D03*
X-22013Y-41964D02*
D03*
X-22869Y-48194D02*
D03*
X-25556Y-45507D02*
D03*
D87*
X-22215Y29806D02*
D03*
X-18800Y31472D02*
D03*
X-24441Y34195D02*
D03*
X-21026Y35861D02*
D03*
X-28048Y32299D02*
D03*
X-31463Y30633D02*
D03*
D88*
X-29869Y-54481D02*
D03*
X-36272Y-48078D02*
D03*
D89*
X10853Y-76597D02*
D03*
X13950Y-68088D02*
D03*
D90*
X-62992Y0D02*
D03*
D91*
X-62992Y5300D02*
D03*
X-62992Y-5300D02*
D03*
D92*
X-8687Y-59271D02*
X-5700Y-56285D01*
X-8687Y-59307D02*
Y-59271D01*
D93*
X-36687Y-65592D02*
X-35344Y-67394D01*
M02*
