G04*
G04 #@! TF.GenerationSoftware,Altium Limited,Altium Designer,20.1.11 (218)*
G04*
G04 Layer_Physical_Order=2*
G04 Layer_Color=36540*
%FSLAX25Y25*%
%MOIN*%
G70*
G04*
G04 #@! TF.SameCoordinates,A89DC92D-1D16-4819-8E46-697129492B70*
G04*
G04*
G04 #@! TF.FilePolarity,Positive*
G04*
G01*
G75*
%ADD63C,0.01200*%
%ADD68C,0.02700*%
%ADD69C,0.02400*%
%ADD71C,0.01200*%
%ADD72C,0.00800*%
G36*
X5754Y87785D02*
X11483Y87221D01*
X17163Y86283D01*
X22769Y84976D01*
X28278Y83305D01*
X33666Y81277D01*
X38032Y79299D01*
X38032Y79299D01*
X38121Y79273D01*
X38649Y79055D01*
X38670Y79049D01*
X41637Y78194D01*
X42885Y77982D01*
X47011Y75600D01*
X51855Y72363D01*
X56476Y68817D01*
X60856Y64976D01*
X64976Y60856D01*
X68817Y56476D01*
X72363Y51855D01*
X75343Y47395D01*
X74910Y46962D01*
X74762Y47062D01*
X74001Y47213D01*
X73240Y47062D01*
X72595Y46631D01*
X72164Y45986D01*
X72013Y45225D01*
X72076Y44905D01*
X58028Y29047D01*
X47320Y16959D01*
X47213Y16980D01*
X46452Y16829D01*
X45807Y16398D01*
X45376Y15753D01*
X45224Y14992D01*
X45376Y14231D01*
X45807Y13586D01*
X46452Y13155D01*
X47213Y13004D01*
X47973Y13155D01*
X48619Y13586D01*
X49049Y14231D01*
X49201Y14992D01*
X49136Y15318D01*
X59860Y27424D01*
X73887Y43259D01*
X74001Y43237D01*
X74762Y43388D01*
X75407Y43819D01*
X75838Y44464D01*
X75976Y45159D01*
X76169Y45255D01*
X76574Y45323D01*
X77982Y42885D01*
X78194Y41637D01*
X79049Y38670D01*
X79055Y38649D01*
X79085Y38576D01*
X79298Y38032D01*
X79298Y38032D01*
X79544Y37490D01*
X81277Y33666D01*
X83305Y28278D01*
X84976Y22769D01*
X86283Y17163D01*
X87221Y11483D01*
X87785Y5754D01*
X87973Y0D01*
X87785Y-5754D01*
X87221Y-11483D01*
X86283Y-17163D01*
X84976Y-22769D01*
X83305Y-28278D01*
X81277Y-33666D01*
X79299Y-38032D01*
X79299Y-38032D01*
X79273Y-38121D01*
X79055Y-38649D01*
X79049Y-38670D01*
X78194Y-41637D01*
X77982Y-42885D01*
X75600Y-47011D01*
X72363Y-51855D01*
X68817Y-56476D01*
X64976Y-60856D01*
X60856Y-64976D01*
X56476Y-68817D01*
X51855Y-72363D01*
X47395Y-75343D01*
X46962Y-74910D01*
X47062Y-74762D01*
X47213Y-74001D01*
X47062Y-73240D01*
X46631Y-72595D01*
X45986Y-72164D01*
X45225Y-72013D01*
X44711Y-72115D01*
X43645Y-71048D01*
Y-58858D01*
X43552Y-58390D01*
X43286Y-57993D01*
X41184Y-55891D01*
Y-52953D01*
X41091Y-52485D01*
X40826Y-52088D01*
X40430Y-51692D01*
X40472Y-51476D01*
X40321Y-50716D01*
X39890Y-50071D01*
X39245Y-49639D01*
X38484Y-49488D01*
X37723Y-49639D01*
X37078Y-50071D01*
X36701Y-50635D01*
X36483Y-50788D01*
X36092Y-50950D01*
X35899Y-50821D01*
X35138Y-50669D01*
X34377Y-50821D01*
X33732Y-51252D01*
X33301Y-51897D01*
X33283Y-51988D01*
X33176Y-52065D01*
X32626Y-52215D01*
X32158Y-51903D01*
X31398Y-51752D01*
X30637Y-51903D01*
X29992Y-52334D01*
X29561Y-52979D01*
X29409Y-53740D01*
X29561Y-54501D01*
X29992Y-55146D01*
X30637Y-55577D01*
X31398Y-55728D01*
X32011Y-55606D01*
X32403Y-55881D01*
X32536Y-56047D01*
X32492Y-56267D01*
X32643Y-57028D01*
X32932Y-57461D01*
X32887Y-58177D01*
X32845Y-58242D01*
X32415Y-58885D01*
X32264Y-59646D01*
X32415Y-60407D01*
X32846Y-61051D01*
X33491Y-61483D01*
X34252Y-61634D01*
X34298Y-61672D01*
Y-63091D01*
X34384Y-63523D01*
Y-71366D01*
X29808Y-75942D01*
X25896D01*
X25629Y-75342D01*
X25925Y-74898D01*
X26077Y-74137D01*
X25925Y-73377D01*
X25495Y-72732D01*
X24849Y-72300D01*
X24089Y-72149D01*
X23328Y-72300D01*
X22683Y-72732D01*
X22252Y-73377D01*
X22100Y-74137D01*
X22252Y-74898D01*
X22548Y-75342D01*
X22282Y-75942D01*
X10605D01*
X6893Y-72229D01*
X6910Y-72146D01*
X6758Y-71385D01*
X6327Y-70740D01*
X5682Y-70309D01*
X4921Y-70157D01*
X4602Y-70221D01*
X4306Y-69668D01*
X10546Y-63428D01*
X16477D01*
X16798Y-64028D01*
X16710Y-64160D01*
X16570Y-64862D01*
X16710Y-65565D01*
X17108Y-66160D01*
X17703Y-66558D01*
X17764Y-66570D01*
X17653Y-67126D01*
X17718Y-67455D01*
X17506Y-67497D01*
X16911Y-67895D01*
X16513Y-68491D01*
X16373Y-69193D01*
X16513Y-69895D01*
X16911Y-70491D01*
X17506Y-70889D01*
X18209Y-71028D01*
X18911Y-70889D01*
X19506Y-70491D01*
X19794Y-70060D01*
X20012Y-69892D01*
X20519Y-69878D01*
X20853Y-70101D01*
X21555Y-70241D01*
X22257Y-70101D01*
X22853Y-69703D01*
X23251Y-69108D01*
X23390Y-68405D01*
X23251Y-67703D01*
X22892Y-67166D01*
X22924Y-67144D01*
X23322Y-66549D01*
X23461Y-65847D01*
X23426Y-65671D01*
X23979Y-65375D01*
X24529Y-65924D01*
X24926Y-66189D01*
X25394Y-66283D01*
X27287D01*
X27868Y-66434D01*
X28020Y-67195D01*
X28451Y-67840D01*
X29096Y-68271D01*
X29857Y-68422D01*
X30617Y-68271D01*
X31262Y-67840D01*
X31693Y-67195D01*
X31845Y-66434D01*
X31693Y-65673D01*
X31262Y-65028D01*
X30646Y-64616D01*
X30571Y-64543D01*
X30439Y-63976D01*
X30574Y-63840D01*
X30840Y-63443D01*
X30933Y-62975D01*
Y-61900D01*
X31266Y-61401D01*
X31417Y-60640D01*
X31266Y-59879D01*
X30835Y-59234D01*
X30190Y-58803D01*
X29429Y-58652D01*
X28668Y-58803D01*
X28023Y-59234D01*
X27592Y-59879D01*
X27545Y-60116D01*
X27343Y-60624D01*
X26893Y-60552D01*
X26576Y-60489D01*
X26033Y-60597D01*
X24976Y-59540D01*
X24579Y-59274D01*
X24111Y-59181D01*
X16207D01*
X15984Y-58581D01*
X36550Y-38015D01*
X36613Y-37920D01*
X36987Y-37846D01*
X37582Y-37448D01*
X37980Y-36852D01*
X38120Y-36150D01*
X38090Y-36000D01*
X38607Y-35523D01*
X38978Y-35597D01*
X39681Y-35457D01*
X40276Y-35059D01*
X40674Y-34464D01*
X40813Y-33762D01*
X40674Y-33059D01*
X40276Y-32464D01*
X39681Y-32066D01*
X38978Y-31926D01*
X38708Y-31980D01*
X38541Y-31812D01*
X38144Y-31547D01*
X37675Y-31454D01*
X35827D01*
X35359Y-31547D01*
X34962Y-31812D01*
X32800Y-33973D01*
X32205Y-34032D01*
X32114Y-34027D01*
X31470Y-33596D01*
X30709Y-33445D01*
X30037Y-33578D01*
X29787Y-33539D01*
X29473Y-33409D01*
X29351Y-33273D01*
X28940Y-32658D01*
X28295Y-32227D01*
X27534Y-32076D01*
X27346Y-32113D01*
X26642Y-31648D01*
X26611Y-31494D01*
X26180Y-30849D01*
X25535Y-30418D01*
X24774Y-30266D01*
X24638Y-30294D01*
X23951Y-29819D01*
X23908Y-29602D01*
X23477Y-28957D01*
X22831Y-28526D01*
X22071Y-28374D01*
X21310Y-28526D01*
X20665Y-28957D01*
X20234Y-29602D01*
X20179Y-29879D01*
X8761D01*
X4071Y-25189D01*
X3726Y-24958D01*
X3706Y-24755D01*
X3786Y-24334D01*
X3955Y-24301D01*
X4550Y-23903D01*
X4948Y-23308D01*
X5088Y-22605D01*
X4948Y-21903D01*
X4550Y-21307D01*
X3955Y-20910D01*
X3252Y-20770D01*
X2550Y-20910D01*
X1955Y-21307D01*
X1557Y-21903D01*
X1417Y-22605D01*
X1557Y-23308D01*
X1955Y-23903D01*
X2445Y-24231D01*
X2386Y-24727D01*
X2346Y-24831D01*
X-1335D01*
X-1517Y-24231D01*
X-1174Y-24002D01*
X-776Y-23406D01*
X-636Y-22704D01*
X-776Y-22002D01*
X-1174Y-21406D01*
X-1769Y-21008D01*
X-2471Y-20869D01*
X-3174Y-21008D01*
X-3769Y-21406D01*
X-4167Y-22002D01*
X-4307Y-22704D01*
X-4167Y-23406D01*
X-3769Y-24002D01*
X-3426Y-24231D01*
X-3608Y-24831D01*
X-8521D01*
X-8989Y-24924D01*
X-9386Y-25189D01*
X-12585Y-28387D01*
X-20814D01*
X-21135Y-27788D01*
X-21121Y-27767D01*
X-20981Y-27065D01*
X-21121Y-26362D01*
X-21519Y-25767D01*
X-22114Y-25369D01*
X-22817Y-25229D01*
X-23519Y-25369D01*
X-24114Y-25767D01*
X-24512Y-26362D01*
X-24652Y-27065D01*
X-24512Y-27767D01*
X-24498Y-27788D01*
X-24819Y-28387D01*
X-52166D01*
X-66851Y-13702D01*
X-67248Y-13437D01*
X-67716Y-13343D01*
X-69640D01*
X-69956Y-12755D01*
X-69751Y-12404D01*
X-53741Y-9593D01*
X-53195Y-9959D01*
X-52434Y-10110D01*
X-51673Y-9959D01*
X-51028Y-9528D01*
X-50597Y-8883D01*
X-50446Y-8122D01*
X-50597Y-7361D01*
X-51028Y-6716D01*
X-51673Y-6285D01*
X-52434Y-6134D01*
X-53195Y-6285D01*
X-53840Y-6716D01*
X-54151Y-7181D01*
X-70404Y-10034D01*
X-70951Y-9669D01*
X-71711Y-9517D01*
X-72472Y-9669D01*
X-73117Y-10100D01*
X-73548Y-10745D01*
X-73700Y-11506D01*
X-73548Y-12266D01*
X-73230Y-12743D01*
X-73446Y-13287D01*
X-73495Y-13343D01*
X-83286D01*
X-83588Y-13042D01*
X-83704Y-12456D01*
X-84135Y-11811D01*
X-84780Y-11380D01*
X-85541Y-11229D01*
X-86302Y-11380D01*
X-86597Y-11577D01*
X-86842Y-11540D01*
X-87240Y-11285D01*
X-87785Y-5754D01*
X-87973Y0D01*
X-87785Y5754D01*
X-87221Y11483D01*
X-86283Y17163D01*
X-84976Y22769D01*
X-83305Y28278D01*
X-81277Y33666D01*
X-79299Y38032D01*
X-79299Y38032D01*
X-79273Y38121D01*
X-79055Y38649D01*
X-79049Y38670D01*
X-78194Y41637D01*
X-77982Y42885D01*
X-75600Y47011D01*
X-72363Y51855D01*
X-68817Y56476D01*
X-64976Y60856D01*
X-60856Y64976D01*
X-56476Y68817D01*
X-51855Y72363D01*
X-47011Y75600D01*
X-42885Y77982D01*
X-41637Y78194D01*
X-38670Y79049D01*
X-38649Y79055D01*
X-38576Y79085D01*
X-38032Y79298D01*
X-38032Y79298D01*
X-37490Y79544D01*
X-33666Y81277D01*
X-28278Y83305D01*
X-22769Y84976D01*
X-17163Y86283D01*
X-11483Y87221D01*
X-5754Y87785D01*
X0Y87973D01*
X5754Y87785D01*
D02*
G37*
G36*
X-84658Y-15432D02*
X-84261Y-15697D01*
X-84217Y-15706D01*
X-83941Y-16373D01*
X-84061Y-16553D01*
X-84212Y-17314D01*
X-84061Y-18075D01*
X-83630Y-18720D01*
X-82985Y-19151D01*
X-82224Y-19302D01*
X-81463Y-19151D01*
X-80818Y-18720D01*
X-80387Y-18075D01*
X-80324Y-17759D01*
X-78084D01*
X-77801Y-18288D01*
X-77845Y-18353D01*
X-77996Y-19114D01*
X-77845Y-19875D01*
X-77414Y-20520D01*
X-76769Y-20951D01*
X-76008Y-21102D01*
X-75247Y-20951D01*
X-74602Y-20520D01*
X-74480Y-20337D01*
X-68768D01*
X-66335Y-22770D01*
X-66565Y-23324D01*
X-69089D01*
X-69103Y-23302D01*
X-69699Y-22904D01*
X-70401Y-22764D01*
X-71103Y-22904D01*
X-71699Y-23302D01*
X-72097Y-23897D01*
X-72196Y-24395D01*
X-72771Y-24344D01*
X-72922Y-23583D01*
X-73353Y-22938D01*
X-73998Y-22507D01*
X-74759Y-22356D01*
X-75520Y-22507D01*
X-76165Y-22938D01*
X-76596Y-23583D01*
X-76748Y-24344D01*
X-76596Y-25105D01*
X-76165Y-25750D01*
X-75520Y-26181D01*
X-74759Y-26332D01*
X-73998Y-26181D01*
X-73353Y-25750D01*
X-72922Y-25105D01*
X-72812Y-24548D01*
X-72236Y-24600D01*
X-72097Y-25302D01*
X-71699Y-25897D01*
X-71277Y-26179D01*
X-71109Y-26859D01*
X-78232Y-33982D01*
X-78809Y-33867D01*
X-79570Y-34019D01*
X-80215Y-34450D01*
X-80293Y-34567D01*
X-80891Y-34518D01*
X-81277Y-33666D01*
X-83305Y-28278D01*
X-84976Y-22769D01*
X-86283Y-17163D01*
X-86548Y-15556D01*
X-86014Y-15111D01*
X-85541Y-15205D01*
X-84994Y-15096D01*
X-84658Y-15432D01*
D02*
G37*
G36*
X5774Y-32898D02*
X5543Y-33500D01*
X5157Y-33544D01*
X3958Y-32346D01*
X3561Y-32081D01*
X3093Y-31988D01*
X-9394D01*
X-9624Y-31433D01*
X-7269Y-29078D01*
X1954D01*
X5774Y-32898D01*
D02*
G37*
G36*
X-67924Y-28265D02*
X-67870Y-28497D01*
X-68271Y-29096D01*
X-68422Y-29857D01*
X-68271Y-30617D01*
X-67840Y-31262D01*
X-67195Y-31693D01*
X-66434Y-31845D01*
X-66219Y-31802D01*
X-62184Y-35837D01*
X-62381Y-36488D01*
X-62662Y-36544D01*
X-63307Y-36975D01*
X-63738Y-37620D01*
X-63890Y-38381D01*
X-63738Y-39141D01*
X-63307Y-39786D01*
X-62662Y-40217D01*
X-61901Y-40369D01*
X-61141Y-40217D01*
X-60656Y-39893D01*
X-58739Y-41810D01*
X-58342Y-42075D01*
X-57874Y-42168D01*
X-51773D01*
X-34105Y-59836D01*
X-34334Y-60391D01*
X-38046D01*
X-38514Y-60484D01*
X-38911Y-60749D01*
X-46232Y-68070D01*
X-46447Y-68027D01*
X-47208Y-68178D01*
X-47853Y-68609D01*
X-48284Y-69254D01*
X-48435Y-70015D01*
X-48284Y-70776D01*
X-47853Y-71421D01*
X-47208Y-71852D01*
X-46447Y-72003D01*
X-45686Y-71852D01*
X-45041Y-71421D01*
X-44610Y-70776D01*
X-44459Y-70015D01*
X-44501Y-69800D01*
X-37539Y-62838D01*
X-36626D01*
X-36343Y-63367D01*
X-36386Y-63432D01*
X-36538Y-64192D01*
X-36386Y-64953D01*
X-35956Y-65598D01*
X-35311Y-66029D01*
X-34550Y-66181D01*
X-33789Y-66029D01*
X-33472Y-65817D01*
X-33097Y-65892D01*
X-26108D01*
X-26048Y-66492D01*
X-26669Y-66615D01*
X-27314Y-67046D01*
X-27744Y-67691D01*
X-27896Y-68452D01*
X-27744Y-69213D01*
X-27314Y-69858D01*
X-26669Y-70289D01*
X-25908Y-70440D01*
X-25147Y-70289D01*
X-24502Y-69858D01*
X-24071Y-69213D01*
X-23938Y-68546D01*
X-15600D01*
X-15370Y-69101D01*
X-15978Y-69708D01*
X-16433Y-69617D01*
X-17194Y-69769D01*
X-17839Y-70200D01*
X-18270Y-70845D01*
X-18421Y-71605D01*
X-18270Y-72366D01*
X-17839Y-73011D01*
X-17194Y-73442D01*
X-16433Y-73593D01*
X-15673Y-73442D01*
X-15027Y-73011D01*
X-14596Y-72366D01*
X-14453Y-71644D01*
X-13324Y-70515D01*
X-7278D01*
X-7215Y-70569D01*
X-6971Y-71115D01*
X-7152Y-71359D01*
X-7801Y-71488D01*
X-8446Y-71919D01*
X-8877Y-72564D01*
X-9028Y-73325D01*
X-8877Y-74086D01*
X-8446Y-74731D01*
X-7801Y-75162D01*
X-7040Y-75313D01*
X-6279Y-75162D01*
X-5634Y-74731D01*
X-5203Y-74086D01*
X-5052Y-73325D01*
X-5118Y-72991D01*
X-4611Y-72483D01*
X-1782D01*
X-1201Y-72638D01*
X-1049Y-73399D01*
X-618Y-74044D01*
X27Y-74475D01*
X787Y-74626D01*
X1548Y-74475D01*
X2193Y-74044D01*
X2624Y-73399D01*
X2640Y-73321D01*
X3277Y-73194D01*
X3515Y-73551D01*
X4160Y-73983D01*
X4921Y-74134D01*
X5268Y-74065D01*
X9233Y-78031D01*
X9630Y-78296D01*
X10099Y-78389D01*
X25122D01*
X25430Y-78884D01*
X25428Y-78989D01*
X25284Y-79715D01*
X25435Y-80476D01*
X25866Y-81121D01*
X26511Y-81552D01*
X27272Y-81704D01*
X28033Y-81552D01*
X28678Y-81121D01*
X29109Y-80476D01*
X29260Y-79715D01*
X29115Y-78989D01*
X29114Y-78884D01*
X29421Y-78389D01*
X30315D01*
X30783Y-78296D01*
X31180Y-78031D01*
X34990Y-74221D01*
X35538Y-74458D01*
X35563Y-74496D01*
X35419Y-75223D01*
X35570Y-75984D01*
X36001Y-76629D01*
X36646Y-77060D01*
X37407Y-77211D01*
X38168Y-77060D01*
X38813Y-76629D01*
X39244Y-75984D01*
X39395Y-75223D01*
X39244Y-74462D01*
X38813Y-73817D01*
X38631Y-73695D01*
Y-67037D01*
X40643Y-65024D01*
X41198Y-65254D01*
Y-71555D01*
X41291Y-72023D01*
X41556Y-72420D01*
X43261Y-74126D01*
X43388Y-74762D01*
X43819Y-75407D01*
X44464Y-75838D01*
X45159Y-75976D01*
X45255Y-76169D01*
X45323Y-76574D01*
X42885Y-77982D01*
X41637Y-78194D01*
X38670Y-79049D01*
X38649Y-79055D01*
X38576Y-79085D01*
X38032Y-79298D01*
X38032Y-79298D01*
X37490Y-79544D01*
X33666Y-81277D01*
X28278Y-83305D01*
X22769Y-84976D01*
X17163Y-86283D01*
X11483Y-87221D01*
X5754Y-87785D01*
X0Y-87973D01*
X-5754Y-87785D01*
X-11483Y-87221D01*
X-17163Y-86283D01*
X-22769Y-84976D01*
X-28278Y-83305D01*
X-33666Y-81277D01*
X-38032Y-79299D01*
X-38032Y-79299D01*
X-38121Y-79273D01*
X-38649Y-79055D01*
X-38670Y-79049D01*
X-41637Y-78194D01*
X-42885Y-77982D01*
X-47011Y-75600D01*
X-51855Y-72363D01*
X-56476Y-68817D01*
X-60856Y-64976D01*
X-64976Y-60856D01*
X-68817Y-56476D01*
X-72363Y-51855D01*
X-75600Y-47011D01*
X-77982Y-42885D01*
X-78194Y-41637D01*
X-79049Y-38670D01*
X-79055Y-38649D01*
X-79164Y-38385D01*
X-78833Y-37881D01*
X-78784Y-37844D01*
X-78750Y-37832D01*
X-78048Y-37692D01*
X-77808Y-37532D01*
X-77141Y-37808D01*
X-77069Y-38172D01*
X-76638Y-38817D01*
X-75993Y-39248D01*
X-75232Y-39400D01*
X-74471Y-39248D01*
X-73826Y-38817D01*
X-73395Y-38172D01*
X-73243Y-37411D01*
X-73395Y-36651D01*
X-73826Y-36006D01*
X-74471Y-35575D01*
X-75232Y-35423D01*
X-75397Y-35456D01*
X-75693Y-34903D01*
X-68686Y-27897D01*
X-68091D01*
X-67924Y-28265D01*
D02*
G37*
G36*
X2368Y-39308D02*
X2765Y-39573D01*
X3233Y-39666D01*
X30590D01*
X30838Y-40266D01*
X14454Y-56651D01*
X-2461D01*
X-2929Y-56744D01*
X-3326Y-57009D01*
X-7885Y-61568D01*
X-15943D01*
X-16173Y-61014D01*
X-13451Y-58292D01*
X-13278Y-58033D01*
X-12822Y-57942D01*
X-12178Y-57511D01*
X-11746Y-56866D01*
X-11595Y-56105D01*
X-11746Y-55344D01*
X-12178Y-54699D01*
X-12822Y-54268D01*
X-13583Y-54117D01*
X-14344Y-54268D01*
X-14858Y-54612D01*
X-15523Y-54697D01*
X-16168Y-54265D01*
X-16929Y-54114D01*
X-17690Y-54265D01*
X-18335Y-54697D01*
X-18766Y-55342D01*
X-18917Y-56102D01*
X-18766Y-56863D01*
X-18471Y-57305D01*
X-19133Y-57968D01*
X-29967D01*
X-49301Y-38634D01*
X-49052Y-38034D01*
X1095D01*
X2368Y-39308D01*
D02*
G37*
%LPC*%
G36*
X5217Y85847D02*
X4456Y85695D01*
X3811Y85264D01*
X3380Y84619D01*
X3228Y83858D01*
X3380Y83097D01*
X3811Y82452D01*
X4456Y82021D01*
X5217Y81870D01*
X5977Y82021D01*
X6622Y82452D01*
X7053Y83097D01*
X7205Y83858D01*
X7053Y84619D01*
X6622Y85264D01*
X5977Y85695D01*
X5217Y85847D01*
D02*
G37*
G36*
X-5774Y85810D02*
X-6535Y85659D01*
X-7180Y85228D01*
X-7611Y84583D01*
X-7762Y83822D01*
X-7611Y83061D01*
X-7180Y82416D01*
X-6535Y81985D01*
X-5774Y81834D01*
X-5013Y81985D01*
X-4368Y82416D01*
X-3937Y83061D01*
X-3786Y83822D01*
X-3937Y84583D01*
X-4368Y85228D01*
X-5013Y85659D01*
X-5774Y85810D01*
D02*
G37*
G36*
X16118Y84448D02*
X15357Y84297D01*
X14712Y83866D01*
X14281Y83221D01*
X14129Y82460D01*
X14281Y81699D01*
X14712Y81054D01*
X15357Y80623D01*
X16118Y80472D01*
X16879Y80623D01*
X17524Y81054D01*
X17955Y81699D01*
X18106Y82460D01*
X17955Y83221D01*
X17524Y83866D01*
X16879Y84297D01*
X16118Y84448D01*
D02*
G37*
G36*
X-16665Y84339D02*
X-17426Y84188D01*
X-18071Y83757D01*
X-18502Y83112D01*
X-18654Y82351D01*
X-18502Y81590D01*
X-18071Y80945D01*
X-17426Y80514D01*
X-16665Y80363D01*
X-15904Y80514D01*
X-15259Y80945D01*
X-14829Y81590D01*
X-14677Y82351D01*
X-14829Y83112D01*
X-15259Y83757D01*
X-15904Y84188D01*
X-16665Y84339D01*
D02*
G37*
G36*
X26743Y81639D02*
X25982Y81488D01*
X25337Y81057D01*
X24906Y80412D01*
X24755Y79651D01*
X24906Y78890D01*
X25337Y78245D01*
X25982Y77814D01*
X26743Y77662D01*
X27504Y77814D01*
X28149Y78245D01*
X28580Y78890D01*
X28731Y79651D01*
X28580Y80412D01*
X28149Y81057D01*
X27504Y81488D01*
X26743Y81639D01*
D02*
G37*
G36*
X-27272Y81459D02*
X-28033Y81308D01*
X-28678Y80877D01*
X-29109Y80232D01*
X-29260Y79471D01*
X-29109Y78710D01*
X-28678Y78065D01*
X-28033Y77634D01*
X-27272Y77483D01*
X-26511Y77634D01*
X-25866Y78065D01*
X-25435Y78710D01*
X-25284Y79471D01*
X-25435Y80232D01*
X-25866Y80877D01*
X-26511Y81308D01*
X-27272Y81459D01*
D02*
G37*
G36*
X36911Y77467D02*
X36150Y77315D01*
X35505Y76885D01*
X35074Y76240D01*
X34922Y75479D01*
X35074Y74718D01*
X35505Y74073D01*
X36150Y73642D01*
X36911Y73491D01*
X37672Y73642D01*
X38317Y74073D01*
X38748Y74718D01*
X38899Y75479D01*
X38748Y76240D01*
X38317Y76885D01*
X37672Y77315D01*
X36911Y77467D01*
D02*
G37*
G36*
X-37411Y77220D02*
X-38172Y77069D01*
X-38817Y76638D01*
X-39248Y75993D01*
X-39400Y75232D01*
X-39248Y74471D01*
X-38817Y73826D01*
X-38172Y73395D01*
X-37411Y73243D01*
X-36651Y73395D01*
X-36006Y73826D01*
X-35575Y74471D01*
X-35423Y75232D01*
X-35575Y75993D01*
X-36006Y76638D01*
X-36651Y77069D01*
X-37411Y77220D01*
D02*
G37*
G36*
X-24147Y76304D02*
X-24908Y76153D01*
X-25553Y75722D01*
X-25984Y75077D01*
X-26135Y74316D01*
X-25984Y73555D01*
X-25553Y72910D01*
X-24908Y72479D01*
X-24147Y72328D01*
X-23386Y72479D01*
X-22741Y72910D01*
X-22310Y73555D01*
X-22159Y74316D01*
X-22310Y75077D01*
X-22741Y75722D01*
X-23386Y76153D01*
X-24147Y76304D01*
D02*
G37*
G36*
X46447Y72003D02*
X45686Y71852D01*
X45041Y71421D01*
X44610Y70776D01*
X44459Y70015D01*
X44610Y69254D01*
X45041Y68609D01*
X45686Y68178D01*
X46447Y68027D01*
X47208Y68178D01*
X47853Y68609D01*
X48284Y69254D01*
X48435Y70015D01*
X48284Y70776D01*
X47853Y71421D01*
X47208Y71852D01*
X46447Y72003D01*
D02*
G37*
G36*
X-46911Y71693D02*
X-47672Y71542D01*
X-48317Y71111D01*
X-48748Y70466D01*
X-48899Y69705D01*
X-48748Y68944D01*
X-48317Y68299D01*
X-47672Y67868D01*
X-46911Y67717D01*
X-46150Y67868D01*
X-45505Y68299D01*
X-45074Y68944D01*
X-44923Y69705D01*
X-45074Y70466D01*
X-45505Y71111D01*
X-46150Y71542D01*
X-46911Y71693D01*
D02*
G37*
G36*
X-29857Y68422D02*
X-30617Y68271D01*
X-31262Y67840D01*
X-31693Y67195D01*
X-31845Y66434D01*
X-31693Y65673D01*
X-31262Y65028D01*
X-30617Y64597D01*
X-29857Y64446D01*
X-29096Y64597D01*
X-28451Y65028D01*
X-28020Y65673D01*
X-27868Y66434D01*
X-28020Y67195D01*
X-28451Y67840D01*
X-29096Y68271D01*
X-29857Y68422D01*
D02*
G37*
G36*
X55188Y65342D02*
X54427Y65191D01*
X53782Y64759D01*
X53351Y64114D01*
X53200Y63354D01*
X53351Y62593D01*
X53782Y61948D01*
X54427Y61517D01*
X55188Y61365D01*
X55949Y61517D01*
X56594Y61948D01*
X57025Y62593D01*
X57176Y63354D01*
X57025Y64114D01*
X56594Y64759D01*
X55949Y65191D01*
X55188Y65342D01*
D02*
G37*
G36*
X-55608Y64974D02*
X-56369Y64822D01*
X-57014Y64391D01*
X-57445Y63746D01*
X-57596Y62985D01*
X-57445Y62225D01*
X-57014Y61580D01*
X-56369Y61149D01*
X-55608Y60997D01*
X-54847Y61149D01*
X-54202Y61580D01*
X-53771Y62225D01*
X-53620Y62985D01*
X-53771Y63746D01*
X-54202Y64391D01*
X-54847Y64822D01*
X-55608Y64974D01*
D02*
G37*
G36*
X-38381Y63890D02*
X-39141Y63738D01*
X-39786Y63307D01*
X-40217Y62662D01*
X-40369Y61901D01*
X-40217Y61141D01*
X-39786Y60496D01*
X-39141Y60065D01*
X-38381Y59913D01*
X-37620Y60065D01*
X-36975Y60496D01*
X-36544Y61141D01*
X-36392Y61901D01*
X-36544Y62662D01*
X-36975Y63307D01*
X-37620Y63738D01*
X-38381Y63890D01*
D02*
G37*
G36*
X-41874Y59623D02*
X-42635Y59472D01*
X-43280Y59041D01*
X-43711Y58396D01*
X-43862Y57635D01*
X-43711Y56874D01*
X-43280Y56229D01*
X-42635Y55798D01*
X-41874Y55647D01*
X-41113Y55798D01*
X-40468Y56229D01*
X-40037Y56874D01*
X-39886Y57635D01*
X-40037Y58396D01*
X-40468Y59041D01*
X-41113Y59472D01*
X-41874Y59623D01*
D02*
G37*
G36*
X25864Y70076D02*
X25103Y69924D01*
X24458Y69493D01*
X24027Y68848D01*
X23876Y68088D01*
X24005Y67439D01*
X18681Y59032D01*
X18137Y58924D01*
X17492Y58492D01*
X17061Y57847D01*
X16909Y57087D01*
X17061Y56326D01*
X17492Y55681D01*
X18137Y55250D01*
X18898Y55098D01*
X19658Y55250D01*
X20303Y55681D01*
X20734Y56326D01*
X20886Y57087D01*
X20757Y57736D01*
X26081Y66142D01*
X26625Y66251D01*
X27270Y66682D01*
X27701Y67327D01*
X27852Y68088D01*
X27701Y68848D01*
X27270Y69493D01*
X26625Y69924D01*
X25864Y70076D01*
D02*
G37*
G36*
X-1017Y74816D02*
X-1778Y74664D01*
X-2423Y74233D01*
X-2854Y73588D01*
X-3005Y72827D01*
X-2854Y72067D01*
X-2423Y71421D01*
X-2240Y71300D01*
Y56537D01*
X-2558Y56324D01*
X-2989Y55679D01*
X-3101Y55117D01*
X-3174Y54938D01*
X-3180Y54935D01*
X-3809Y54977D01*
X-11598Y70701D01*
X-11544Y70782D01*
X-11393Y71543D01*
X-11544Y72303D01*
X-11975Y72948D01*
X-12620Y73379D01*
X-13381Y73531D01*
X-14142Y73379D01*
X-14787Y72948D01*
X-15218Y72303D01*
X-15369Y71543D01*
X-15218Y70782D01*
X-14787Y70137D01*
X-14142Y69706D01*
X-13803Y69638D01*
X-5858Y53599D01*
X-5912Y53518D01*
X-6063Y52757D01*
X-5912Y51996D01*
X-5481Y51351D01*
X-4836Y50920D01*
X-4075Y50769D01*
X-3314Y50920D01*
X-2669Y51351D01*
X-2238Y51996D01*
X-2126Y52559D01*
X-2036Y52779D01*
X-1524Y53004D01*
X-1152Y52930D01*
X-391Y53082D01*
X254Y53513D01*
X685Y54158D01*
X836Y54918D01*
X685Y55679D01*
X254Y56324D01*
X207Y56356D01*
Y71300D01*
X389Y71421D01*
X820Y72067D01*
X971Y72827D01*
X820Y73588D01*
X389Y74233D01*
X-256Y74664D01*
X-1017Y74816D01*
D02*
G37*
G36*
X16632Y72898D02*
X15871Y72747D01*
X15226Y72316D01*
X14795Y71671D01*
X14644Y70910D01*
X14795Y70149D01*
X15109Y69680D01*
X12644Y58461D01*
X12102Y58100D01*
X11671Y57455D01*
X11520Y56694D01*
X11671Y55933D01*
X12102Y55288D01*
X12747Y54857D01*
X13508Y54706D01*
X14269Y54857D01*
X14914Y55288D01*
X15345Y55933D01*
X15496Y56694D01*
X15345Y57455D01*
X15031Y57924D01*
X17496Y69142D01*
X18038Y69504D01*
X18469Y70149D01*
X18620Y70910D01*
X18469Y71671D01*
X18038Y72316D01*
X17393Y72747D01*
X16632Y72898D01*
D02*
G37*
G36*
X7360Y74450D02*
X6600Y74299D01*
X5954Y73867D01*
X5523Y73223D01*
X5372Y72462D01*
X5523Y71701D01*
X5950Y71062D01*
X4310Y58089D01*
X3927Y57833D01*
X3496Y57188D01*
X3345Y56427D01*
X3496Y55666D01*
X3927Y55021D01*
X4572Y54590D01*
X5333Y54439D01*
X6094Y54590D01*
X6739Y55021D01*
X7170Y55666D01*
X7321Y56427D01*
X7170Y57188D01*
X6744Y57826D01*
X8384Y70800D01*
X8766Y71056D01*
X9197Y71701D01*
X9349Y72462D01*
X9197Y73223D01*
X8766Y73867D01*
X8121Y74299D01*
X7360Y74450D01*
D02*
G37*
G36*
X62985Y57596D02*
X62225Y57445D01*
X61580Y57014D01*
X61149Y56369D01*
X60997Y55608D01*
X61149Y54847D01*
X61580Y54202D01*
X62225Y53771D01*
X62985Y53620D01*
X63746Y53771D01*
X64391Y54202D01*
X64822Y54847D01*
X64974Y55608D01*
X64822Y56369D01*
X64391Y57014D01*
X63746Y57445D01*
X62985Y57596D01*
D02*
G37*
G36*
X-63354Y57176D02*
X-64114Y57025D01*
X-64759Y56594D01*
X-65191Y55949D01*
X-65342Y55188D01*
X-65191Y54427D01*
X-64759Y53782D01*
X-64114Y53351D01*
X-63354Y53200D01*
X-62593Y53351D01*
X-61948Y53782D01*
X-61517Y54427D01*
X-61365Y55188D01*
X-61517Y55949D01*
X-61948Y56594D01*
X-62593Y57025D01*
X-63354Y57176D01*
D02*
G37*
G36*
X34642Y66057D02*
X33881Y65906D01*
X33236Y65475D01*
X32805Y64830D01*
X32654Y64069D01*
X32805Y63308D01*
X32904Y63159D01*
X29805Y56121D01*
X29549Y56070D01*
X28904Y55639D01*
X28473Y54994D01*
X28322Y54233D01*
X28473Y53473D01*
X28904Y52828D01*
X29549Y52397D01*
X30310Y52245D01*
X31071Y52397D01*
X31716Y52828D01*
X32147Y53473D01*
X32298Y54233D01*
X32147Y54994D01*
X32048Y55143D01*
X35147Y62181D01*
X35403Y62232D01*
X36048Y62663D01*
X36479Y63308D01*
X36630Y64069D01*
X36479Y64830D01*
X36048Y65475D01*
X35403Y65906D01*
X34642Y66057D01*
D02*
G37*
G36*
X42605Y61062D02*
X41844Y60910D01*
X41199Y60479D01*
X40768Y59834D01*
X40617Y59073D01*
X40768Y58313D01*
X41150Y57741D01*
X39981Y50520D01*
X39539Y50225D01*
X39108Y49580D01*
X38957Y48819D01*
X39108Y48058D01*
X39539Y47413D01*
X40184Y46982D01*
X40945Y46831D01*
X41706Y46982D01*
X42351Y47413D01*
X42602Y47789D01*
X42713Y47782D01*
X43203Y47608D01*
X43324Y46996D01*
X43755Y46351D01*
X44401Y45920D01*
X45161Y45768D01*
X45922Y45920D01*
X46567Y46351D01*
X46998Y46996D01*
X47150Y47757D01*
X47083Y48089D01*
X49757Y51126D01*
X49859Y51106D01*
X50620Y51257D01*
X51265Y51688D01*
X51696Y52333D01*
X51847Y53094D01*
X51696Y53855D01*
X51265Y54500D01*
X50620Y54931D01*
X49859Y55082D01*
X49098Y54931D01*
X48453Y54500D01*
X48022Y53855D01*
X47870Y53094D01*
X47936Y52762D01*
X45263Y49725D01*
X45161Y49745D01*
X44401Y49594D01*
X43755Y49163D01*
X43505Y48787D01*
X43394Y48793D01*
X42904Y48968D01*
X42782Y49580D01*
X42400Y50151D01*
X43569Y57372D01*
X44011Y57668D01*
X44442Y58313D01*
X44593Y59073D01*
X44442Y59834D01*
X44011Y60479D01*
X43366Y60910D01*
X42605Y61062D01*
D02*
G37*
G36*
X69705Y48899D02*
X68944Y48748D01*
X68299Y48317D01*
X67868Y47672D01*
X67717Y46911D01*
X67868Y46150D01*
X68299Y45505D01*
X68944Y45074D01*
X69705Y44923D01*
X70466Y45074D01*
X71111Y45505D01*
X71542Y46150D01*
X71693Y46911D01*
X71542Y47672D01*
X71111Y48317D01*
X70466Y48748D01*
X69705Y48899D01*
D02*
G37*
G36*
X11811Y48292D02*
X11109Y48152D01*
X10513Y47754D01*
X10115Y47159D01*
X10068Y46919D01*
X9996Y46872D01*
X7966Y44841D01*
X-5044D01*
X-5367Y45441D01*
X-5251Y46021D01*
X-5391Y46724D01*
X-5789Y47319D01*
X-6384Y47717D01*
X-7087Y47857D01*
X-7789Y47717D01*
X-8384Y47319D01*
X-8782Y46724D01*
X-8828Y46492D01*
X-13583D01*
X-13973Y46414D01*
X-14304Y46193D01*
X-34404Y26093D01*
X-34625Y25762D01*
X-34703Y25372D01*
Y21613D01*
X-35303Y21431D01*
X-35602Y21878D01*
X-36247Y22309D01*
X-37008Y22461D01*
X-37769Y22309D01*
X-37989Y22162D01*
X-38260Y22567D01*
X-38905Y22998D01*
X-39665Y23150D01*
X-40426Y22998D01*
X-41071Y22567D01*
X-41502Y21922D01*
X-41645Y21204D01*
X-42028Y21280D01*
X-42788Y21128D01*
X-43104Y20917D01*
X-43275Y20803D01*
X-43275Y20803D01*
X-43433Y20697D01*
X-44022Y20676D01*
X-44135Y20710D01*
X-44318Y20833D01*
X-45079Y20984D01*
X-45840Y20833D01*
X-46485Y20402D01*
X-46916Y19757D01*
X-47067Y18996D01*
X-46953Y18425D01*
X-47218Y18372D01*
X-47863Y17941D01*
X-48294Y17296D01*
X-48445Y16535D01*
X-48294Y15775D01*
X-47863Y15130D01*
X-47218Y14699D01*
X-46457Y14547D01*
X-45696Y14699D01*
X-45079Y15111D01*
X-44462Y14699D01*
X-43701Y14547D01*
X-42940Y14699D01*
X-42323Y15111D01*
X-41706Y14699D01*
X-41585Y14675D01*
X-41411Y14100D01*
X-46149Y9363D01*
X-46203D01*
X-46593Y9285D01*
X-46924Y9064D01*
X-47958Y8030D01*
X-48179Y7699D01*
X-48257Y7309D01*
Y5232D01*
X-48179Y4842D01*
X-47958Y4511D01*
X-47870Y4423D01*
Y-1969D01*
X-47792Y-2359D01*
X-47571Y-2689D01*
X-42697Y-7564D01*
X-42366Y-7785D01*
X-41976Y-7863D01*
X-41822D01*
X-41573Y-8235D01*
X-40978Y-8633D01*
X-40276Y-8772D01*
X-39573Y-8633D01*
X-38978Y-8235D01*
X-38580Y-7639D01*
X-38440Y-6937D01*
X-38580Y-6235D01*
X-38978Y-5639D01*
X-39573Y-5241D01*
X-39650Y-5226D01*
X-39980Y-4639D01*
X-39972Y-4597D01*
X-39840Y-3937D01*
X-39980Y-3235D01*
X-40378Y-2639D01*
X-40417Y-2613D01*
Y6271D01*
X-25044Y21644D01*
X-24823Y21974D01*
X-24746Y22365D01*
Y26864D01*
X-18937Y32672D01*
X-18540Y32513D01*
X-18361Y32399D01*
X-18231Y31743D01*
X-17833Y31148D01*
X-17238Y30750D01*
X-16535Y30610D01*
X-15833Y30750D01*
X-15238Y31148D01*
X-14840Y31743D01*
X-14700Y32446D01*
X-14840Y33148D01*
X-15238Y33743D01*
X-15220Y34323D01*
X-13853Y35689D01*
X-11913D01*
X-11523Y35767D01*
X-11192Y35988D01*
X-5779Y41402D01*
X11574D01*
X11694Y41222D01*
X12290Y40824D01*
X12992Y40684D01*
X13694Y40824D01*
X14290Y41222D01*
X14688Y41817D01*
X14827Y42520D01*
X14688Y43222D01*
X14290Y43817D01*
X13694Y44215D01*
X12992Y44355D01*
X12983Y44353D01*
X12749Y44918D01*
X13109Y45159D01*
X13507Y45754D01*
X13646Y46457D01*
X13507Y47159D01*
X13109Y47754D01*
X12513Y48152D01*
X11811Y48292D01*
D02*
G37*
G36*
X-70015Y48435D02*
X-70776Y48284D01*
X-71421Y47853D01*
X-71852Y47208D01*
X-72003Y46447D01*
X-71852Y45686D01*
X-71421Y45041D01*
X-70776Y44610D01*
X-70015Y44459D01*
X-69254Y44610D01*
X-68609Y45041D01*
X-68178Y45686D01*
X-68027Y46447D01*
X-68178Y47208D01*
X-68609Y47853D01*
X-69254Y48284D01*
X-70015Y48435D01*
D02*
G37*
G36*
X-52168Y46387D02*
X-52929Y46235D01*
X-53574Y45805D01*
X-54005Y45160D01*
X-54157Y44399D01*
X-54005Y43638D01*
X-53574Y42993D01*
X-52929Y42562D01*
X-52168Y42410D01*
X-51407Y42562D01*
X-50762Y42993D01*
X-50331Y43638D01*
X-50180Y44399D01*
X-50331Y45160D01*
X-50762Y45805D01*
X-51407Y46235D01*
X-52168Y46387D01*
D02*
G37*
G36*
X56282Y48219D02*
X55521Y48067D01*
X54876Y47636D01*
X54445Y46991D01*
X54294Y46230D01*
X54445Y45469D01*
X54631Y45191D01*
X53677Y42415D01*
X53276Y42335D01*
X52631Y41904D01*
X52200Y41259D01*
X52049Y40498D01*
X52200Y39738D01*
X52631Y39093D01*
X53276Y38662D01*
X54037Y38510D01*
X54798Y38662D01*
X55443Y39093D01*
X55874Y39738D01*
X56025Y40498D01*
X55874Y41259D01*
X55870Y41265D01*
X56937Y44372D01*
X57042Y44393D01*
X57687Y44824D01*
X58118Y45469D01*
X58270Y46230D01*
X58118Y46991D01*
X57687Y47636D01*
X57042Y48067D01*
X56282Y48219D01*
D02*
G37*
G36*
X61004Y40152D02*
X60243Y40001D01*
X59598Y39570D01*
X59167Y38925D01*
X59016Y38164D01*
X59167Y37403D01*
X59598Y36758D01*
X60243Y36327D01*
X61004Y36176D01*
X61765Y36327D01*
X62410Y36758D01*
X62841Y37403D01*
X62993Y38164D01*
X62841Y38925D01*
X62410Y39570D01*
X61765Y40001D01*
X61004Y40152D01*
D02*
G37*
G36*
X75061Y39425D02*
X74300Y39274D01*
X73655Y38842D01*
X73224Y38197D01*
X73073Y37437D01*
X73224Y36676D01*
X73655Y36031D01*
X74300Y35600D01*
X75061Y35448D01*
X75822Y35600D01*
X76467Y36031D01*
X76898Y36676D01*
X77049Y37437D01*
X76898Y38197D01*
X76467Y38842D01*
X75822Y39274D01*
X75061Y39425D01*
D02*
G37*
G36*
X-75479Y38899D02*
X-76240Y38748D01*
X-76885Y38317D01*
X-77315Y37672D01*
X-77467Y36911D01*
X-77315Y36150D01*
X-76885Y35505D01*
X-76240Y35074D01*
X-75479Y34922D01*
X-74718Y35074D01*
X-74073Y35505D01*
X-73642Y36150D01*
X-73491Y36911D01*
X-73642Y37672D01*
X-74073Y38317D01*
X-74718Y38748D01*
X-75479Y38899D01*
D02*
G37*
G36*
X-58924Y44799D02*
X-59685Y44648D01*
X-60330Y44217D01*
X-60761Y43572D01*
X-60913Y42811D01*
X-60761Y42050D01*
X-60330Y41405D01*
X-59685Y40974D01*
X-58924Y40823D01*
X-58898Y40828D01*
X-54955Y35938D01*
X-55038Y35523D01*
X-54887Y34762D01*
X-54456Y34117D01*
X-53811Y33686D01*
X-53050Y33535D01*
X-52289Y33686D01*
X-51644Y34117D01*
X-51213Y34762D01*
X-51061Y35523D01*
X-51213Y36284D01*
X-51644Y36929D01*
X-52289Y37360D01*
X-53050Y37511D01*
X-53076Y37506D01*
X-57019Y42396D01*
X-56936Y42811D01*
X-57087Y43572D01*
X-57519Y44217D01*
X-58163Y44648D01*
X-58924Y44799D01*
D02*
G37*
G36*
X25591Y34906D02*
X24888Y34766D01*
X24293Y34369D01*
X23895Y33773D01*
X23755Y33071D01*
X23895Y32368D01*
X24293Y31773D01*
X24888Y31375D01*
X25591Y31236D01*
X26293Y31375D01*
X26731Y31668D01*
X27242Y31538D01*
X27388Y31441D01*
X27438Y31187D01*
X27836Y30592D01*
X28431Y30194D01*
X29134Y30055D01*
X29836Y30194D01*
X30432Y30592D01*
X30829Y31187D01*
X30969Y31890D01*
X30829Y32592D01*
X30432Y33187D01*
X29836Y33585D01*
X29134Y33725D01*
X28431Y33585D01*
X27994Y33293D01*
X27483Y33422D01*
X27336Y33520D01*
X27286Y33773D01*
X26888Y34369D01*
X26293Y34766D01*
X25591Y34906D01*
D02*
G37*
G36*
X-64069Y36630D02*
X-64830Y36479D01*
X-65475Y36048D01*
X-65906Y35403D01*
X-66057Y34642D01*
X-65906Y33881D01*
X-65475Y33236D01*
X-64830Y32805D01*
X-64069Y32654D01*
X-63308Y32805D01*
X-63221Y32863D01*
X-56226Y29435D01*
X-56160Y29104D01*
X-55729Y28459D01*
X-55084Y28028D01*
X-54324Y27877D01*
X-53563Y28028D01*
X-52918Y28459D01*
X-52487Y29104D01*
X-52335Y29865D01*
X-52487Y30626D01*
X-52918Y31271D01*
X-53563Y31702D01*
X-54324Y31853D01*
X-55084Y31702D01*
X-55172Y31643D01*
X-62166Y35072D01*
X-62232Y35403D01*
X-62663Y36048D01*
X-63308Y36479D01*
X-64069Y36630D01*
D02*
G37*
G36*
X66434Y31845D02*
X65673Y31693D01*
X65028Y31262D01*
X64597Y30617D01*
X64446Y29857D01*
X64597Y29096D01*
X65028Y28451D01*
X65673Y28020D01*
X66434Y27868D01*
X67195Y28020D01*
X67840Y28451D01*
X68271Y29096D01*
X68422Y29857D01*
X68271Y30617D01*
X67840Y31262D01*
X67195Y31693D01*
X66434Y31845D01*
D02*
G37*
G36*
X79471Y29260D02*
X78710Y29109D01*
X78065Y28678D01*
X77634Y28033D01*
X77483Y27272D01*
X77634Y26511D01*
X78065Y25866D01*
X78710Y25435D01*
X79471Y25284D01*
X80232Y25435D01*
X80877Y25866D01*
X81308Y26511D01*
X81459Y27272D01*
X81308Y28033D01*
X80877Y28678D01*
X80232Y29109D01*
X79471Y29260D01*
D02*
G37*
G36*
X-79651Y28731D02*
X-80412Y28580D01*
X-81057Y28149D01*
X-81488Y27504D01*
X-81639Y26743D01*
X-81488Y25982D01*
X-81057Y25337D01*
X-80412Y24906D01*
X-79651Y24755D01*
X-78890Y24906D01*
X-78245Y25337D01*
X-77814Y25982D01*
X-77662Y26743D01*
X-77814Y27504D01*
X-78245Y28149D01*
X-78890Y28580D01*
X-79651Y28731D01*
D02*
G37*
G36*
X68292Y26710D02*
X67531Y26559D01*
X66886Y26128D01*
X66455Y25483D01*
X66303Y24722D01*
X66455Y23961D01*
X66886Y23316D01*
X67531Y22885D01*
X68292Y22734D01*
X69052Y22885D01*
X69697Y23316D01*
X70129Y23961D01*
X70280Y24722D01*
X70129Y25483D01*
X69697Y26128D01*
X69052Y26559D01*
X68292Y26710D01*
D02*
G37*
G36*
X74512Y26199D02*
X73751Y26047D01*
X73106Y25616D01*
X72675Y24971D01*
X72524Y24210D01*
X72675Y23449D01*
X73106Y22805D01*
X73751Y22374D01*
X74512Y22222D01*
X75273Y22374D01*
X75918Y22805D01*
X76349Y23449D01*
X76500Y24210D01*
X76349Y24971D01*
X75918Y25616D01*
X75273Y26047D01*
X74512Y26199D01*
D02*
G37*
G36*
X-394Y24670D02*
X-1096Y24530D01*
X-1691Y24132D01*
X-2089Y23537D01*
X-2229Y22835D01*
X-2089Y22132D01*
X-1691Y21537D01*
X-1096Y21139D01*
X-394Y20999D01*
X309Y21139D01*
X904Y21537D01*
X1302Y22132D01*
X1442Y22835D01*
X1302Y23537D01*
X904Y24132D01*
X309Y24530D01*
X-394Y24670D01*
D02*
G37*
G36*
X5297Y24050D02*
X4595Y23911D01*
X4000Y23513D01*
X3602Y22918D01*
X3462Y22215D01*
X3602Y21513D01*
X4000Y20917D01*
X4595Y20520D01*
X5297Y20380D01*
X6000Y20520D01*
X6595Y20917D01*
X6993Y21513D01*
X7133Y22215D01*
X6993Y22918D01*
X6595Y23513D01*
X6000Y23911D01*
X5297Y24050D01*
D02*
G37*
G36*
X-68088Y27852D02*
X-68848Y27701D01*
X-69493Y27270D01*
X-69924Y26625D01*
X-70076Y25864D01*
X-69924Y25103D01*
X-69493Y24458D01*
X-68848Y24027D01*
X-68088Y23876D01*
X-67327Y24027D01*
X-66975Y24262D01*
X-57751Y21552D01*
X-57746Y21524D01*
X-57315Y20879D01*
X-56670Y20448D01*
X-55909Y20297D01*
X-55148Y20448D01*
X-54503Y20879D01*
X-54072Y21524D01*
X-53921Y22285D01*
X-54072Y23046D01*
X-54503Y23691D01*
X-55148Y24122D01*
X-55909Y24274D01*
X-56670Y24122D01*
X-57021Y23888D01*
X-66245Y26598D01*
X-66251Y26625D01*
X-66682Y27270D01*
X-67327Y27701D01*
X-68088Y27852D01*
D02*
G37*
G36*
X-6060Y23855D02*
X-6762Y23715D01*
X-7358Y23317D01*
X-7756Y22722D01*
X-7895Y22019D01*
X-7756Y21317D01*
X-7358Y20722D01*
X-6762Y20324D01*
X-6060Y20184D01*
X-5358Y20324D01*
X-4762Y20722D01*
X-4364Y21317D01*
X-4225Y22019D01*
X-4364Y22722D01*
X-4762Y23317D01*
X-5358Y23715D01*
X-6060Y23855D01*
D02*
G37*
G36*
X10656Y22035D02*
X9953Y21895D01*
X9358Y21498D01*
X8960Y20902D01*
X8820Y20200D01*
X8960Y19498D01*
X9358Y18902D01*
X9953Y18504D01*
X10656Y18365D01*
X11358Y18504D01*
X11953Y18902D01*
X12351Y19498D01*
X12491Y20200D01*
X12351Y20902D01*
X11953Y21498D01*
X11358Y21895D01*
X10656Y22035D01*
D02*
G37*
G36*
X-11346Y21656D02*
X-12048Y21516D01*
X-12643Y21118D01*
X-13041Y20523D01*
X-13181Y19820D01*
X-13041Y19118D01*
X-12643Y18523D01*
X-12048Y18125D01*
X-11346Y17985D01*
X-10643Y18125D01*
X-10048Y18523D01*
X-9650Y19118D01*
X-9510Y19820D01*
X-9650Y20523D01*
X-10048Y21118D01*
X-10643Y21516D01*
X-11346Y21656D01*
D02*
G37*
G36*
X15344Y18751D02*
X14642Y18611D01*
X14047Y18213D01*
X13649Y17618D01*
X13509Y16915D01*
X13649Y16213D01*
X14047Y15618D01*
X14642Y15220D01*
X15344Y15080D01*
X16047Y15220D01*
X16642Y15618D01*
X17040Y16213D01*
X17180Y16915D01*
X17040Y17618D01*
X16642Y18213D01*
X16047Y18611D01*
X15344Y18751D01*
D02*
G37*
G36*
X82351Y18654D02*
X81590Y18502D01*
X80945Y18071D01*
X80514Y17426D01*
X80363Y16665D01*
X80514Y15904D01*
X80945Y15259D01*
X81590Y14829D01*
X82351Y14677D01*
X83112Y14829D01*
X83757Y15259D01*
X84188Y15904D01*
X84339Y16665D01*
X84188Y17426D01*
X83757Y18071D01*
X83112Y18502D01*
X82351Y18654D01*
D02*
G37*
G36*
X-15918Y18212D02*
X-16621Y18072D01*
X-17216Y17674D01*
X-17614Y17079D01*
X-17754Y16376D01*
X-17614Y15674D01*
X-17216Y15078D01*
X-16621Y14681D01*
X-15918Y14541D01*
X-15216Y14681D01*
X-14621Y15078D01*
X-14223Y15674D01*
X-14083Y16376D01*
X-14223Y17079D01*
X-14621Y17674D01*
X-15216Y18072D01*
X-15918Y18212D01*
D02*
G37*
G36*
X-82460Y18106D02*
X-83221Y17955D01*
X-83866Y17524D01*
X-84297Y16879D01*
X-84448Y16118D01*
X-84297Y15357D01*
X-83866Y14712D01*
X-83221Y14281D01*
X-82460Y14129D01*
X-81699Y14281D01*
X-81054Y14712D01*
X-80623Y15357D01*
X-80472Y16118D01*
X-80623Y16879D01*
X-81054Y17524D01*
X-81699Y17955D01*
X-82460Y18106D01*
D02*
G37*
G36*
X77165Y17343D02*
X76405Y17191D01*
X75760Y16760D01*
X75328Y16115D01*
X75177Y15354D01*
X75328Y14593D01*
X75760Y13949D01*
X76405Y13518D01*
X77165Y13366D01*
X77926Y13518D01*
X78571Y13949D01*
X79002Y14593D01*
X79154Y15354D01*
X79002Y16115D01*
X78571Y16760D01*
X77926Y17191D01*
X77165Y17343D01*
D02*
G37*
G36*
X-27559Y16796D02*
X-28261Y16656D01*
X-28857Y16258D01*
X-29255Y15663D01*
X-29394Y14961D01*
X-29255Y14258D01*
X-28857Y13663D01*
X-28261Y13265D01*
X-27559Y13125D01*
X-26857Y13265D01*
X-26261Y13663D01*
X-25864Y14258D01*
X-25724Y14961D01*
X-25864Y15663D01*
X-26261Y16258D01*
X-26857Y16656D01*
X-27559Y16796D01*
D02*
G37*
G36*
X-70852Y18867D02*
X-71613Y18716D01*
X-72258Y18285D01*
X-72689Y17640D01*
X-72840Y16879D01*
X-72689Y16118D01*
X-72258Y15473D01*
X-71613Y15042D01*
X-70852Y14891D01*
X-70091Y15042D01*
X-69584Y15381D01*
X-58413Y13167D01*
X-58077Y12664D01*
X-57432Y12233D01*
X-56671Y12081D01*
X-55910Y12233D01*
X-55265Y12664D01*
X-54834Y13309D01*
X-54682Y14069D01*
X-54834Y14830D01*
X-55265Y15475D01*
X-55910Y15906D01*
X-56671Y16058D01*
X-57432Y15906D01*
X-57938Y15568D01*
X-69109Y17781D01*
X-69446Y18285D01*
X-70091Y18716D01*
X-70852Y18867D01*
D02*
G37*
G36*
X19069Y14403D02*
X18367Y14263D01*
X17771Y13866D01*
X17373Y13270D01*
X17234Y12568D01*
X17373Y11866D01*
X17771Y11270D01*
X18367Y10872D01*
X19069Y10733D01*
X19771Y10872D01*
X20367Y11270D01*
X20764Y11866D01*
X20904Y12568D01*
X20764Y13270D01*
X20367Y13866D01*
X19771Y14263D01*
X19069Y14403D01*
D02*
G37*
G36*
X-19491Y13738D02*
X-20193Y13599D01*
X-20789Y13201D01*
X-21186Y12605D01*
X-21326Y11903D01*
X-21186Y11201D01*
X-20789Y10605D01*
X-20193Y10208D01*
X-19491Y10068D01*
X-18789Y10208D01*
X-18193Y10605D01*
X-17795Y11201D01*
X-17656Y11903D01*
X-17795Y12605D01*
X-18193Y13201D01*
X-18789Y13599D01*
X-19491Y13738D01*
D02*
G37*
G36*
X71898Y13633D02*
X71137Y13482D01*
X70492Y13051D01*
X70172Y12572D01*
X54228Y9643D01*
X54108Y9596D01*
X53840Y9542D01*
X53219Y9958D01*
X52458Y10109D01*
X51697Y9958D01*
X51052Y9527D01*
X50621Y8882D01*
X50470Y8121D01*
X50621Y7360D01*
X51052Y6715D01*
X51697Y6284D01*
X52458Y6133D01*
X53219Y6284D01*
X53864Y6715D01*
X54238Y7057D01*
X54238Y7057D01*
X54247Y7060D01*
X54673Y7209D01*
X54682Y7212D01*
X55240Y7341D01*
X55258Y7344D01*
X70605Y10163D01*
X71137Y9808D01*
X71898Y9657D01*
X72658Y9808D01*
X73304Y10239D01*
X73734Y10884D01*
X73886Y11645D01*
X73734Y12406D01*
X73304Y13051D01*
X72658Y13482D01*
X71898Y13633D01*
D02*
G37*
G36*
X21595Y9266D02*
X20893Y9126D01*
X20298Y8728D01*
X19900Y8133D01*
X19760Y7431D01*
X19900Y6728D01*
X20298Y6133D01*
X20893Y5735D01*
X21595Y5596D01*
X22298Y5735D01*
X22893Y6133D01*
X23291Y6728D01*
X23431Y7431D01*
X23291Y8133D01*
X22893Y8728D01*
X22298Y9126D01*
X21595Y9266D01*
D02*
G37*
G36*
X-21839Y8517D02*
X-22541Y8377D01*
X-23136Y7980D01*
X-23534Y7384D01*
X-23674Y6682D01*
X-23534Y5979D01*
X-23136Y5384D01*
X-22541Y4986D01*
X-21839Y4847D01*
X-21136Y4986D01*
X-20541Y5384D01*
X-20143Y5979D01*
X-20003Y6682D01*
X-20143Y7384D01*
X-20541Y7980D01*
X-21136Y8377D01*
X-21839Y8517D01*
D02*
G37*
G36*
X-72462Y9349D02*
X-73223Y9197D01*
X-73867Y8766D01*
X-74299Y8121D01*
X-74450Y7360D01*
X-74299Y6600D01*
X-73867Y5954D01*
X-73223Y5523D01*
X-72462Y5372D01*
X-71701Y5523D01*
X-71056Y5954D01*
X-71011Y6021D01*
X-57802Y4998D01*
X-57600Y4695D01*
X-56954Y4264D01*
X-56194Y4112D01*
X-55433Y4264D01*
X-54788Y4695D01*
X-54357Y5340D01*
X-54205Y6101D01*
X-54357Y6862D01*
X-54788Y7507D01*
X-55433Y7938D01*
X-56194Y8089D01*
X-56954Y7938D01*
X-57600Y7507D01*
X-57644Y7440D01*
X-70853Y8463D01*
X-71056Y8766D01*
X-71701Y9197D01*
X-72462Y9349D01*
D02*
G37*
G36*
X83822Y7762D02*
X83061Y7611D01*
X82416Y7180D01*
X81985Y6535D01*
X81834Y5774D01*
X81985Y5013D01*
X82416Y4368D01*
X83061Y3937D01*
X83822Y3786D01*
X84583Y3937D01*
X85228Y4368D01*
X85659Y5013D01*
X85810Y5774D01*
X85659Y6535D01*
X85228Y7180D01*
X84583Y7611D01*
X83822Y7762D01*
D02*
G37*
G36*
X-83858Y7205D02*
X-84619Y7053D01*
X-85264Y6622D01*
X-85695Y5977D01*
X-85847Y5217D01*
X-85695Y4456D01*
X-85264Y3811D01*
X-84619Y3380D01*
X-83858Y3228D01*
X-83097Y3380D01*
X-82452Y3811D01*
X-82021Y4456D01*
X-81870Y5217D01*
X-82021Y5977D01*
X-82452Y6622D01*
X-83097Y7053D01*
X-83858Y7205D01*
D02*
G37*
G36*
X72806Y4022D02*
X72045Y3870D01*
X71400Y3440D01*
X71237Y3196D01*
X56357Y2603D01*
X56237Y2781D01*
X55592Y3212D01*
X54831Y3364D01*
X54071Y3212D01*
X53426Y2781D01*
X52995Y2136D01*
X52843Y1376D01*
X52995Y615D01*
X53426Y-30D01*
X54071Y-461D01*
X54831Y-613D01*
X55592Y-461D01*
X56237Y-30D01*
X56361Y154D01*
X71319Y750D01*
X71400Y628D01*
X72045Y197D01*
X72806Y46D01*
X73567Y197D01*
X74212Y628D01*
X74643Y1273D01*
X74794Y2034D01*
X74643Y2795D01*
X74212Y3440D01*
X73567Y3870D01*
X72806Y4022D01*
D02*
G37*
G36*
X22765Y3662D02*
X22062Y3522D01*
X21467Y3124D01*
X21069Y2529D01*
X20930Y1827D01*
X21069Y1124D01*
X21467Y529D01*
X22062Y131D01*
X22765Y-9D01*
X23467Y131D01*
X24063Y529D01*
X24460Y1124D01*
X24600Y1827D01*
X24460Y2529D01*
X24063Y3124D01*
X23467Y3522D01*
X22765Y3662D01*
D02*
G37*
G36*
X-22814Y2876D02*
X-23517Y2736D01*
X-24112Y2339D01*
X-24510Y1743D01*
X-24650Y1041D01*
X-24510Y339D01*
X-24112Y-257D01*
X-23517Y-655D01*
X-22814Y-794D01*
X-22112Y-655D01*
X-21517Y-257D01*
X-21119Y339D01*
X-20979Y1041D01*
X-21119Y1743D01*
X-21517Y2339D01*
X-22112Y2736D01*
X-22814Y2876D01*
D02*
G37*
G36*
X-54394Y65D02*
X-55155Y-87D01*
X-55800Y-518D01*
X-55927Y-709D01*
X-71285Y-801D01*
X-71400Y-628D01*
X-72045Y-197D01*
X-72806Y-46D01*
X-73567Y-197D01*
X-74212Y-628D01*
X-74643Y-1273D01*
X-74794Y-2034D01*
X-74643Y-2795D01*
X-74212Y-3440D01*
X-73567Y-3870D01*
X-72806Y-4022D01*
X-72045Y-3870D01*
X-71400Y-3440D01*
X-71272Y-3248D01*
X-55915Y-3156D01*
X-55800Y-3330D01*
X-55155Y-3760D01*
X-54394Y-3912D01*
X-53633Y-3760D01*
X-52988Y-3330D01*
X-52557Y-2684D01*
X-52405Y-1924D01*
X-52557Y-1163D01*
X-52988Y-518D01*
X-53633Y-87D01*
X-54394Y65D01*
D02*
G37*
G36*
X22504Y-2057D02*
X21802Y-2197D01*
X21206Y-2594D01*
X20808Y-3190D01*
X20669Y-3892D01*
X20808Y-4594D01*
X21206Y-5190D01*
X21802Y-5588D01*
X22504Y-5727D01*
X23206Y-5588D01*
X23802Y-5190D01*
X24200Y-4594D01*
X24339Y-3892D01*
X24200Y-3190D01*
X23802Y-2594D01*
X23206Y-2197D01*
X22504Y-2057D01*
D02*
G37*
G36*
X-22356Y-2830D02*
X-23059Y-2970D01*
X-23654Y-3368D01*
X-24052Y-3963D01*
X-24192Y-4665D01*
X-24052Y-5368D01*
X-23654Y-5963D01*
X-23059Y-6361D01*
X-22356Y-6501D01*
X-21654Y-6361D01*
X-21059Y-5963D01*
X-20661Y-5368D01*
X-20521Y-4665D01*
X-20661Y-3963D01*
X-21059Y-3368D01*
X-21654Y-2970D01*
X-22356Y-2830D01*
D02*
G37*
G36*
X83858Y-3228D02*
X83097Y-3380D01*
X82452Y-3811D01*
X82021Y-4456D01*
X81870Y-5217D01*
X82021Y-5977D01*
X82452Y-6622D01*
X83097Y-7053D01*
X83858Y-7205D01*
X84619Y-7053D01*
X85264Y-6622D01*
X85695Y-5977D01*
X85847Y-5217D01*
X85695Y-4456D01*
X85264Y-3811D01*
X84619Y-3380D01*
X83858Y-3228D01*
D02*
G37*
G36*
X-83822Y-3786D02*
X-84583Y-3937D01*
X-85228Y-4368D01*
X-85659Y-5013D01*
X-85810Y-5774D01*
X-85659Y-6535D01*
X-85228Y-7180D01*
X-84583Y-7611D01*
X-83822Y-7762D01*
X-83061Y-7611D01*
X-82416Y-7180D01*
X-81985Y-6535D01*
X-81834Y-5774D01*
X-81985Y-5013D01*
X-82416Y-4368D01*
X-83061Y-3937D01*
X-83822Y-3786D01*
D02*
G37*
G36*
X56561Y-2165D02*
X55800Y-2317D01*
X55155Y-2748D01*
X54724Y-3393D01*
X54572Y-4154D01*
X54724Y-4914D01*
X55155Y-5559D01*
X55800Y-5991D01*
X56561Y-6142D01*
X57322Y-5991D01*
X57928Y-5585D01*
X70707Y-8245D01*
X71056Y-8766D01*
X71701Y-9197D01*
X72462Y-9349D01*
X73223Y-9197D01*
X73867Y-8766D01*
X74299Y-8121D01*
X74450Y-7360D01*
X74299Y-6600D01*
X73867Y-5954D01*
X73223Y-5523D01*
X72462Y-5372D01*
X71701Y-5523D01*
X71211Y-5850D01*
X58235Y-3149D01*
X57967Y-2748D01*
X57322Y-2317D01*
X56561Y-2165D01*
D02*
G37*
G36*
X20829Y-7531D02*
X20127Y-7671D01*
X19531Y-8069D01*
X19133Y-8664D01*
X18994Y-9366D01*
X19133Y-10069D01*
X19531Y-10664D01*
X20127Y-11062D01*
X20829Y-11202D01*
X21531Y-11062D01*
X22127Y-10664D01*
X22525Y-10069D01*
X22664Y-9366D01*
X22525Y-8664D01*
X22127Y-8069D01*
X21531Y-7671D01*
X20829Y-7531D01*
D02*
G37*
G36*
X-20494Y-8243D02*
X-21196Y-8383D01*
X-21791Y-8781D01*
X-22189Y-9376D01*
X-22329Y-10079D01*
X-22189Y-10781D01*
X-21791Y-11377D01*
X-21196Y-11774D01*
X-20494Y-11914D01*
X-19792Y-11774D01*
X-19196Y-11377D01*
X-18798Y-10781D01*
X-18658Y-10079D01*
X-18798Y-9376D01*
X-19196Y-8781D01*
X-19792Y-8383D01*
X-20494Y-8243D01*
D02*
G37*
G36*
X17845Y-12417D02*
X17143Y-12556D01*
X16548Y-12954D01*
X16150Y-13550D01*
X16010Y-14252D01*
X16150Y-14954D01*
X16548Y-15550D01*
X17143Y-15948D01*
X17845Y-16087D01*
X18548Y-15948D01*
X19143Y-15550D01*
X19541Y-14954D01*
X19681Y-14252D01*
X19541Y-13550D01*
X19143Y-12954D01*
X18548Y-12556D01*
X17845Y-12417D01*
D02*
G37*
G36*
X-17344Y-13023D02*
X-18046Y-13163D01*
X-18641Y-13561D01*
X-19039Y-14156D01*
X-19179Y-14859D01*
X-19039Y-15561D01*
X-18641Y-16156D01*
X-18046Y-16554D01*
X-17344Y-16694D01*
X-16641Y-16554D01*
X-16046Y-16156D01*
X-15648Y-15561D01*
X-15508Y-14859D01*
X-15648Y-14156D01*
X-16046Y-13561D01*
X-16641Y-13163D01*
X-17344Y-13023D01*
D02*
G37*
G36*
X82460Y-14129D02*
X81699Y-14281D01*
X81054Y-14712D01*
X80623Y-15357D01*
X80472Y-16118D01*
X80623Y-16879D01*
X81054Y-17524D01*
X81699Y-17955D01*
X82460Y-18106D01*
X83221Y-17955D01*
X83866Y-17524D01*
X84297Y-16879D01*
X84448Y-16118D01*
X84297Y-15357D01*
X83866Y-14712D01*
X83221Y-14281D01*
X82460Y-14129D01*
D02*
G37*
G36*
X0Y18356D02*
X-2396Y18199D01*
X-4751Y17730D01*
X-7024Y16959D01*
X-9178Y15897D01*
X-11174Y14563D01*
X-12979Y12979D01*
X-14563Y11174D01*
X-15897Y9178D01*
X-16959Y7024D01*
X-17730Y4751D01*
X-18199Y2396D01*
X-18356Y0D01*
X-18199Y-2396D01*
X-17730Y-4751D01*
X-16959Y-7024D01*
X-15897Y-9178D01*
X-14563Y-11174D01*
X-12979Y-12979D01*
X-11174Y-14563D01*
X-9178Y-15897D01*
X-7024Y-16959D01*
X-4751Y-17730D01*
X-2396Y-18199D01*
X0Y-18356D01*
X2396Y-18199D01*
X4751Y-17730D01*
X7024Y-16959D01*
X9178Y-15897D01*
X11174Y-14563D01*
X12979Y-12979D01*
X14563Y-11174D01*
X15897Y-9178D01*
X16959Y-7024D01*
X17730Y-4751D01*
X18199Y-2396D01*
X18356Y0D01*
X18199Y2396D01*
X17730Y4751D01*
X16959Y7024D01*
X15897Y9178D01*
X14563Y11174D01*
X12979Y12979D01*
X11174Y14563D01*
X9178Y15897D01*
X7024Y16959D01*
X4751Y17730D01*
X2396Y18199D01*
X0Y18356D01*
D02*
G37*
G36*
X57126Y-10749D02*
X56365Y-10901D01*
X55720Y-11332D01*
X55289Y-11977D01*
X55138Y-12738D01*
X55289Y-13498D01*
X55720Y-14143D01*
X56365Y-14574D01*
X57126Y-14726D01*
X57887Y-14574D01*
X58316Y-14288D01*
X69005Y-17589D01*
X69015Y-17640D01*
X69446Y-18285D01*
X70091Y-18716D01*
X70852Y-18867D01*
X71613Y-18716D01*
X72258Y-18285D01*
X72689Y-17640D01*
X72840Y-16879D01*
X72689Y-16118D01*
X72258Y-15473D01*
X71613Y-15042D01*
X70852Y-14891D01*
X70091Y-15042D01*
X69762Y-15262D01*
X58920Y-11913D01*
X58532Y-11332D01*
X57887Y-10901D01*
X57126Y-10749D01*
D02*
G37*
G36*
X13740Y-16407D02*
X13038Y-16547D01*
X12443Y-16944D01*
X12045Y-17540D01*
X11905Y-18242D01*
X12045Y-18945D01*
X12443Y-19540D01*
X13038Y-19938D01*
X13740Y-20077D01*
X14443Y-19938D01*
X15038Y-19540D01*
X15436Y-18945D01*
X15576Y-18242D01*
X15436Y-17540D01*
X15038Y-16944D01*
X14443Y-16547D01*
X13740Y-16407D01*
D02*
G37*
G36*
X-13103Y-16870D02*
X-13806Y-17009D01*
X-14401Y-17407D01*
X-14799Y-18003D01*
X-14939Y-18705D01*
X-14799Y-19407D01*
X-14401Y-20003D01*
X-13806Y-20401D01*
X-13103Y-20540D01*
X-12401Y-20401D01*
X-11806Y-20003D01*
X-11408Y-19407D01*
X-11268Y-18705D01*
X-11408Y-18003D01*
X-11806Y-17407D01*
X-12401Y-17009D01*
X-13103Y-16870D01*
D02*
G37*
G36*
X8772Y-19251D02*
X8070Y-19391D01*
X7474Y-19789D01*
X7077Y-20384D01*
X6937Y-21086D01*
X7077Y-21789D01*
X7474Y-22384D01*
X8070Y-22782D01*
X8772Y-22921D01*
X9474Y-22782D01*
X10070Y-22384D01*
X10468Y-21789D01*
X10607Y-21086D01*
X10468Y-20384D01*
X10070Y-19789D01*
X9474Y-19391D01*
X8772Y-19251D01*
D02*
G37*
G36*
X-8040Y-19541D02*
X-8742Y-19681D01*
X-9338Y-20078D01*
X-9736Y-20674D01*
X-9875Y-21376D01*
X-9736Y-22078D01*
X-9338Y-22674D01*
X-8742Y-23072D01*
X-8040Y-23211D01*
X-7338Y-23072D01*
X-6742Y-22674D01*
X-6344Y-22078D01*
X-6205Y-21376D01*
X-6344Y-20674D01*
X-6742Y-20078D01*
X-7338Y-19681D01*
X-8040Y-19541D01*
D02*
G37*
G36*
X56471Y-19238D02*
X55710Y-19389D01*
X55065Y-19820D01*
X54634Y-20465D01*
X54483Y-21226D01*
X54634Y-21987D01*
X55065Y-22632D01*
X55710Y-23063D01*
X56471Y-23214D01*
X57232Y-23063D01*
X57455Y-22914D01*
X67072Y-26775D01*
X67093Y-26883D01*
X67524Y-27528D01*
X68169Y-27959D01*
X68930Y-28110D01*
X69691Y-27959D01*
X70336Y-27528D01*
X70767Y-26883D01*
X70918Y-26122D01*
X70767Y-25361D01*
X70336Y-24716D01*
X69691Y-24285D01*
X68930Y-24134D01*
X68169Y-24285D01*
X67895Y-24468D01*
X58341Y-20632D01*
X58308Y-20465D01*
X57877Y-19820D01*
X57232Y-19389D01*
X56471Y-19238D01*
D02*
G37*
G36*
X79651Y-24755D02*
X78890Y-24906D01*
X78245Y-25337D01*
X77814Y-25982D01*
X77662Y-26743D01*
X77814Y-27504D01*
X78245Y-28149D01*
X78890Y-28580D01*
X79651Y-28731D01*
X80412Y-28580D01*
X81057Y-28149D01*
X81488Y-27504D01*
X81639Y-26743D01*
X81488Y-25982D01*
X81057Y-25337D01*
X80412Y-24906D01*
X79651Y-24755D01*
D02*
G37*
G36*
X54651Y-27562D02*
X53891Y-27713D01*
X53246Y-28144D01*
X52815Y-28789D01*
X52663Y-29550D01*
X52815Y-30311D01*
X53246Y-30956D01*
X53891Y-31387D01*
X54651Y-31538D01*
X55412Y-31387D01*
X55441Y-31368D01*
X62151Y-34996D01*
X62232Y-35403D01*
X62663Y-36048D01*
X63308Y-36479D01*
X64069Y-36630D01*
X64830Y-36479D01*
X65475Y-36048D01*
X65906Y-35403D01*
X66057Y-34642D01*
X65906Y-33881D01*
X65475Y-33236D01*
X64830Y-32805D01*
X64069Y-32654D01*
X63308Y-32805D01*
X63279Y-32824D01*
X56569Y-29196D01*
X56488Y-28789D01*
X56057Y-28144D01*
X55412Y-27713D01*
X54651Y-27562D01*
D02*
G37*
G36*
X75479Y-34922D02*
X74718Y-35074D01*
X74073Y-35505D01*
X73642Y-36150D01*
X73491Y-36911D01*
X73642Y-37672D01*
X74073Y-38317D01*
X74718Y-38748D01*
X75479Y-38899D01*
X76240Y-38748D01*
X76885Y-38317D01*
X77315Y-37672D01*
X77467Y-36911D01*
X77315Y-36150D01*
X76885Y-35505D01*
X76240Y-35074D01*
X75479Y-34922D01*
D02*
G37*
G36*
X50867Y-36735D02*
X50106Y-36886D01*
X49461Y-37317D01*
X49030Y-37962D01*
X48878Y-38723D01*
X49030Y-39484D01*
X49461Y-40129D01*
X50106Y-40560D01*
X50867Y-40711D01*
X51627Y-40560D01*
X51732Y-40490D01*
X57180Y-43081D01*
X57237Y-43366D01*
X57668Y-44011D01*
X58313Y-44442D01*
X59073Y-44593D01*
X59834Y-44442D01*
X60479Y-44011D01*
X60910Y-43366D01*
X61062Y-42605D01*
X60910Y-41844D01*
X60479Y-41199D01*
X59834Y-40768D01*
X59073Y-40617D01*
X58313Y-40768D01*
X58189Y-40851D01*
X52765Y-38271D01*
X52703Y-37962D01*
X52272Y-37317D01*
X51627Y-36886D01*
X50867Y-36735D01*
D02*
G37*
G36*
X70015Y-44459D02*
X69254Y-44610D01*
X68609Y-45041D01*
X68178Y-45686D01*
X68027Y-46447D01*
X68178Y-47208D01*
X68609Y-47853D01*
X69254Y-48284D01*
X70015Y-48435D01*
X70776Y-48284D01*
X71421Y-47853D01*
X71852Y-47208D01*
X72003Y-46447D01*
X71852Y-45686D01*
X71421Y-45041D01*
X70776Y-44610D01*
X70015Y-44459D01*
D02*
G37*
G36*
X47599Y-43339D02*
X46838Y-43491D01*
X46193Y-43922D01*
X45762Y-44567D01*
X45611Y-45328D01*
X45762Y-46089D01*
X46193Y-46734D01*
X46838Y-47165D01*
X47599Y-47316D01*
X47909Y-47254D01*
X50952Y-49939D01*
X50932Y-50044D01*
X51083Y-50805D01*
X51514Y-51450D01*
X52159Y-51881D01*
X52920Y-52032D01*
X53681Y-51881D01*
X54326Y-51450D01*
X54757Y-50805D01*
X54908Y-50044D01*
X54757Y-49283D01*
X54326Y-48638D01*
X53681Y-48207D01*
X52920Y-48055D01*
X52590Y-48121D01*
X49563Y-45450D01*
X49587Y-45328D01*
X49436Y-44567D01*
X49005Y-43922D01*
X48360Y-43491D01*
X47599Y-43339D01*
D02*
G37*
G36*
X63354Y-53200D02*
X62593Y-53351D01*
X61948Y-53782D01*
X61517Y-54427D01*
X61365Y-55188D01*
X61517Y-55949D01*
X61948Y-56594D01*
X62593Y-57025D01*
X63354Y-57176D01*
X64114Y-57025D01*
X64759Y-56594D01*
X65191Y-55949D01*
X65342Y-55188D01*
X65191Y-54427D01*
X64759Y-53782D01*
X64114Y-53351D01*
X63354Y-53200D01*
D02*
G37*
G36*
X43996Y-48996D02*
X43235Y-49147D01*
X42590Y-49578D01*
X42159Y-50223D01*
X42008Y-50984D01*
X42159Y-51745D01*
X42590Y-52390D01*
X43235Y-52821D01*
X43316Y-52837D01*
X44201Y-55540D01*
X43999Y-55842D01*
X43848Y-56603D01*
X43999Y-57364D01*
X44430Y-58009D01*
X45075Y-58440D01*
X45836Y-58591D01*
X46597Y-58440D01*
X47242Y-58009D01*
X47673Y-57364D01*
X47824Y-56603D01*
X47673Y-55842D01*
X47242Y-55197D01*
X46597Y-54766D01*
X46517Y-54750D01*
X45632Y-52047D01*
X45833Y-51745D01*
X45984Y-50984D01*
X45833Y-50223D01*
X45402Y-49578D01*
X44757Y-49147D01*
X43996Y-48996D01*
D02*
G37*
G36*
X55608Y-60997D02*
X54847Y-61149D01*
X54202Y-61580D01*
X53771Y-62225D01*
X53620Y-62985D01*
X53771Y-63746D01*
X54202Y-64391D01*
X54847Y-64822D01*
X55608Y-64974D01*
X56369Y-64822D01*
X57014Y-64391D01*
X57445Y-63746D01*
X57596Y-62985D01*
X57445Y-62225D01*
X57014Y-61580D01*
X56369Y-61149D01*
X55608Y-60997D01*
D02*
G37*
G36*
X46911Y-67717D02*
X46150Y-67868D01*
X45505Y-68299D01*
X45074Y-68944D01*
X44923Y-69705D01*
X45074Y-70466D01*
X45505Y-71111D01*
X46150Y-71542D01*
X46911Y-71693D01*
X47672Y-71542D01*
X48317Y-71111D01*
X48748Y-70466D01*
X48899Y-69705D01*
X48748Y-68944D01*
X48317Y-68299D01*
X47672Y-67868D01*
X46911Y-67717D01*
D02*
G37*
%LPD*%
G36*
X-28185Y26664D02*
Y23367D01*
X-30709Y20842D01*
X-31264Y21072D01*
Y24369D01*
X-28739Y26894D01*
X-28185Y26664D01*
D02*
G37*
%LPC*%
G36*
X-79471Y-25284D02*
X-80232Y-25435D01*
X-80877Y-25866D01*
X-81308Y-26511D01*
X-81459Y-27272D01*
X-81308Y-28033D01*
X-80877Y-28678D01*
X-80232Y-29109D01*
X-79471Y-29260D01*
X-78710Y-29109D01*
X-78065Y-28678D01*
X-77634Y-28033D01*
X-77483Y-27272D01*
X-77634Y-26511D01*
X-78065Y-25866D01*
X-78710Y-25435D01*
X-79471Y-25284D01*
D02*
G37*
G36*
X-56282Y-44242D02*
X-57042Y-44393D01*
X-57687Y-44824D01*
X-58118Y-45469D01*
X-58270Y-46230D01*
X-58118Y-46991D01*
X-57687Y-47636D01*
X-57042Y-48067D01*
X-56282Y-48219D01*
X-55521Y-48067D01*
X-54876Y-47636D01*
X-54445Y-46991D01*
X-54294Y-46230D01*
X-54445Y-45469D01*
X-54876Y-44824D01*
X-55521Y-44393D01*
X-56282Y-44242D01*
D02*
G37*
G36*
X-69705Y-44923D02*
X-70466Y-45074D01*
X-71111Y-45505D01*
X-71542Y-46150D01*
X-71693Y-46911D01*
X-71542Y-47672D01*
X-71111Y-48317D01*
X-70466Y-48748D01*
X-69705Y-48899D01*
X-68944Y-48748D01*
X-68299Y-48317D01*
X-67868Y-47672D01*
X-67717Y-46911D01*
X-67868Y-46150D01*
X-68299Y-45505D01*
X-68944Y-45074D01*
X-69705Y-44923D01*
D02*
G37*
G36*
X-50044Y-50932D02*
X-50805Y-51083D01*
X-51450Y-51514D01*
X-51881Y-52159D01*
X-52032Y-52920D01*
X-51881Y-53681D01*
X-51450Y-54326D01*
X-50805Y-54757D01*
X-50044Y-54908D01*
X-49283Y-54757D01*
X-48638Y-54326D01*
X-48207Y-53681D01*
X-48055Y-52920D01*
X-48207Y-52159D01*
X-48638Y-51514D01*
X-49283Y-51083D01*
X-50044Y-50932D01*
D02*
G37*
G36*
X-62985Y-53620D02*
X-63746Y-53771D01*
X-64391Y-54202D01*
X-64822Y-54847D01*
X-64974Y-55608D01*
X-64822Y-56369D01*
X-64391Y-57014D01*
X-63746Y-57445D01*
X-62985Y-57596D01*
X-62225Y-57445D01*
X-61580Y-57014D01*
X-61149Y-56369D01*
X-60997Y-55608D01*
X-61149Y-54847D01*
X-61580Y-54202D01*
X-62225Y-53771D01*
X-62985Y-53620D01*
D02*
G37*
G36*
X-42605Y-57085D02*
X-43366Y-57237D01*
X-44011Y-57668D01*
X-44442Y-58313D01*
X-44593Y-59073D01*
X-44442Y-59834D01*
X-44011Y-60479D01*
X-43366Y-60910D01*
X-42605Y-61062D01*
X-41844Y-60910D01*
X-41199Y-60479D01*
X-40768Y-59834D01*
X-40617Y-59073D01*
X-40768Y-58313D01*
X-41199Y-57668D01*
X-41844Y-57237D01*
X-42605Y-57085D01*
D02*
G37*
G36*
X-55188Y-61365D02*
X-55949Y-61517D01*
X-56594Y-61948D01*
X-57025Y-62593D01*
X-57176Y-63354D01*
X-57025Y-64114D01*
X-56594Y-64759D01*
X-55949Y-65191D01*
X-55188Y-65342D01*
X-54427Y-65191D01*
X-53782Y-64759D01*
X-53351Y-64114D01*
X-53200Y-63354D01*
X-53351Y-62593D01*
X-53782Y-61948D01*
X-54427Y-61517D01*
X-55188Y-61365D01*
D02*
G37*
G36*
X-36911Y-73491D02*
X-37672Y-73642D01*
X-38317Y-74073D01*
X-38748Y-74718D01*
X-38899Y-75479D01*
X-38748Y-76240D01*
X-38317Y-76885D01*
X-37672Y-77315D01*
X-36911Y-77467D01*
X-36150Y-77315D01*
X-35505Y-76885D01*
X-35074Y-76240D01*
X-34922Y-75479D01*
X-35074Y-74718D01*
X-35505Y-74073D01*
X-36150Y-73642D01*
X-36911Y-73491D01*
D02*
G37*
G36*
X-26759Y-77663D02*
X-27520Y-77815D01*
X-28165Y-78246D01*
X-28596Y-78891D01*
X-28747Y-79651D01*
X-28596Y-80412D01*
X-28165Y-81057D01*
X-27520Y-81488D01*
X-26759Y-81640D01*
X-25998Y-81488D01*
X-25353Y-81057D01*
X-24922Y-80412D01*
X-24770Y-79651D01*
X-24922Y-78891D01*
X-25353Y-78246D01*
X-25998Y-77815D01*
X-26759Y-77663D01*
D02*
G37*
G36*
X16665Y-80363D02*
X15904Y-80514D01*
X15259Y-80945D01*
X14829Y-81590D01*
X14677Y-82351D01*
X14829Y-83112D01*
X15259Y-83757D01*
X15904Y-84188D01*
X16665Y-84339D01*
X17426Y-84188D01*
X18071Y-83757D01*
X18502Y-83112D01*
X18654Y-82351D01*
X18502Y-81590D01*
X18071Y-80945D01*
X17426Y-80514D01*
X16665Y-80363D01*
D02*
G37*
G36*
X-16118Y-80472D02*
X-16879Y-80623D01*
X-17524Y-81054D01*
X-17955Y-81699D01*
X-18106Y-82460D01*
X-17955Y-83221D01*
X-17524Y-83866D01*
X-16879Y-84297D01*
X-16118Y-84448D01*
X-15357Y-84297D01*
X-14712Y-83866D01*
X-14281Y-83221D01*
X-14129Y-82460D01*
X-14281Y-81699D01*
X-14712Y-81054D01*
X-15357Y-80623D01*
X-16118Y-80472D01*
D02*
G37*
G36*
X5774Y-81834D02*
X5013Y-81985D01*
X4368Y-82416D01*
X3937Y-83061D01*
X3786Y-83822D01*
X3937Y-84583D01*
X4368Y-85228D01*
X5013Y-85659D01*
X5774Y-85810D01*
X6535Y-85659D01*
X7180Y-85228D01*
X7611Y-84583D01*
X7762Y-83822D01*
X7611Y-83061D01*
X7180Y-82416D01*
X6535Y-81985D01*
X5774Y-81834D01*
D02*
G37*
G36*
X-5217Y-81870D02*
X-5977Y-82021D01*
X-6622Y-82452D01*
X-7053Y-83097D01*
X-7205Y-83858D01*
X-7053Y-84619D01*
X-6622Y-85264D01*
X-5977Y-85695D01*
X-5217Y-85847D01*
X-4456Y-85695D01*
X-3811Y-85264D01*
X-3380Y-84619D01*
X-3228Y-83858D01*
X-3380Y-83097D01*
X-3811Y-82452D01*
X-4456Y-82021D01*
X-5217Y-81870D01*
D02*
G37*
G36*
X-16732Y-39145D02*
X-17493Y-39296D01*
X-18138Y-39727D01*
X-18569Y-40372D01*
X-18721Y-41133D01*
X-18569Y-41894D01*
X-18138Y-42538D01*
X-17493Y-42970D01*
X-16732Y-43121D01*
X-15971Y-42970D01*
X-15326Y-42538D01*
X-14895Y-41894D01*
X-14744Y-41133D01*
X-14895Y-40372D01*
X-15326Y-39727D01*
X-15971Y-39296D01*
X-16732Y-39145D01*
D02*
G37*
G36*
X-26575Y-47082D02*
X-27277Y-47222D01*
X-27872Y-47620D01*
X-28134Y-48011D01*
X-28136Y-48009D01*
X-28839Y-47870D01*
X-29541Y-48009D01*
X-30136Y-48407D01*
X-30534Y-49002D01*
X-30674Y-49705D01*
X-30534Y-50407D01*
X-30136Y-51002D01*
X-29541Y-51400D01*
X-28851Y-51538D01*
X-28763Y-51982D01*
X-28365Y-52577D01*
X-27769Y-52975D01*
X-27079Y-53112D01*
X-26991Y-53557D01*
X-26593Y-54152D01*
X-25998Y-54550D01*
X-25295Y-54690D01*
X-24593Y-54550D01*
X-23998Y-54152D01*
X-23600Y-53557D01*
X-23460Y-52854D01*
X-23600Y-52152D01*
X-23708Y-51991D01*
X-23407Y-51790D01*
X-23009Y-51195D01*
X-22870Y-50492D01*
X-23009Y-49790D01*
X-23407Y-49194D01*
X-24002Y-48797D01*
X-24705Y-48657D01*
X-24788Y-48673D01*
X-24879Y-48215D01*
X-25277Y-47620D01*
X-25872Y-47222D01*
X-26575Y-47082D01*
D02*
G37*
%LPD*%
D63*
X56576Y-4155D02*
G03*
X56935Y-4210I359J1145D01*
G01*
X54037Y40498D02*
G03*
X54525Y41117I-646J1012D01*
G01*
X48014Y-45715D02*
G03*
X47993Y-45696I-802J-892D01*
G01*
X47781Y-45510D02*
G03*
X47847Y-45571I849J848D01*
G01*
X47981Y-45686D02*
G03*
X47968Y-45675I-792J-901D01*
G01*
X67878Y-25780D02*
G03*
X67944Y-25803I435J1118D01*
G01*
X56258Y1376D02*
G03*
X56306Y1376I0J1200D01*
G01*
X53790Y8209D02*
G03*
X53790Y8210I-435J1118D01*
G01*
X53355Y8128D02*
G03*
X53790Y8209I-0J1200D01*
G01*
X57451Y-4236D02*
G03*
X57207Y-4210I-249J-1174D01*
G01*
X-1152Y55343D02*
G03*
X-1017Y55902I-1065J554D01*
G01*
X5333Y56427D02*
G03*
X5337Y56454I-1187J177D01*
G01*
X54449Y8440D02*
G03*
X54234Y8380I215J-1181D01*
G01*
X57126Y-12738D02*
G03*
X57865Y-12992I739J945D01*
G01*
X58450Y-13049D02*
G03*
X58088Y-12992I-364J-1144D01*
G01*
X-76008Y-19114D02*
X-68261D01*
X-54164Y-33211D01*
X3093D01*
X4724Y-34843D01*
X26350D01*
X27128Y-34064D01*
X27534D01*
X-70401Y-24600D02*
X-70349Y-24547D01*
X-65373D01*
X-54909Y-35011D01*
X2347D01*
X3979Y-36643D01*
X28562D01*
X29012Y-36192D02*
X29544D01*
X30303Y-35433D01*
X30709D01*
X28562Y-36643D02*
X29012Y-36192D01*
X56561Y-4154D02*
X56562Y-4155D01*
X52458Y8121D02*
X52496D01*
X52503Y8128D01*
X56562Y-4155D02*
X56576D01*
X40945Y48819D02*
X42605Y59073D01*
X45161Y47757D02*
X49859Y53094D01*
X47599Y-45328D02*
X47781Y-45510D01*
X55342Y-29923D02*
X64069Y-34642D01*
X54526Y41120D02*
X56282Y46230D01*
X54525Y41117D02*
X54526Y41120D01*
X47981Y-45686D02*
X47993Y-45696D01*
X47847Y-45571D02*
X47968Y-45675D01*
X57490Y-21609D02*
X67872Y-25778D01*
X67878Y-25780D01*
X67944Y-25803D02*
X68930Y-26122D01*
X59039Y-42611D02*
X59055Y-42618D01*
X50867Y-38723D02*
X59039Y-42611D01*
X58450Y-13049D02*
X70852Y-16879D01*
X18898Y57087D02*
X25864Y68088D01*
X13508Y56694D02*
X16632Y70910D01*
X56306Y1376D02*
X72806Y2034D01*
X54831Y1376D02*
X56258D01*
X-13583Y-56511D02*
Y-56105D01*
X-18627Y-59191D02*
X-17216Y-57781D01*
X-17881Y-60991D02*
X-14317Y-57427D01*
Y-57244D01*
X-31220Y-60991D02*
X-17881D01*
X-17216Y-57781D02*
Y-56389D01*
X-30474Y-59191D02*
X-18627D01*
X-17216Y-56389D02*
X-16929Y-56102D01*
X-14317Y-57244D02*
X-13583Y-56511D01*
X58944Y28235D02*
X73940Y45164D01*
X47484Y15299D02*
X58944Y28235D01*
X47213Y14992D02*
X47484Y15299D01*
X43996Y-50984D02*
X45837Y-56603D01*
X-58924Y42811D02*
X-53050Y35523D01*
X-13381Y71543D02*
X-4075Y52757D01*
X-4075Y52757D01*
X59053Y-42608D02*
X59073Y-42605D01*
X-2461Y-57874D02*
X14961D01*
X36285Y-36475D02*
Y-36150D01*
X14961Y-57874D02*
X35685Y-37150D01*
Y-37075D01*
X36285Y-36475D01*
X3233Y-38443D02*
X31306D01*
X1602Y-36811D02*
X3233Y-38443D01*
X31306D02*
X33581Y-36167D01*
Y-34923D01*
X-55655Y-36811D02*
X1602D01*
X2461Y-27854D02*
X7509Y-32902D01*
X13216D01*
X3206Y-26054D02*
X8254Y-31102D01*
X20925D01*
X13216Y-32902D02*
X13227Y-32913D01*
X-7776Y-27854D02*
X2461D01*
X-11332Y-31411D02*
X-7776Y-27854D01*
X-8521Y-26054D02*
X3206D01*
X-12078Y-29611D02*
X-8521Y-26054D01*
X-65793Y-26673D02*
X-55655Y-36811D01*
X-67716Y-14567D02*
X-52672Y-29611D01*
X-68294Y-16535D02*
X-53418Y-31411D01*
X-52672Y-29611D02*
X-12078D01*
X-53418Y-31411D02*
X-11332D01*
X13227Y-32913D02*
X23127D01*
X-69193Y-26673D02*
X-65793D01*
X-77625Y-35105D02*
X-69193Y-26673D01*
X-77653Y-35105D02*
X-77625D01*
X-78403Y-35855D02*
X-77653Y-35105D01*
X-78809Y-35855D02*
X-78403D01*
X37675Y-32677D02*
X38760Y-33762D01*
X35827Y-32677D02*
X37675D01*
X33581Y-34923D02*
X35827Y-32677D01*
X38760Y-33762D02*
X38978D01*
X-81040Y-16535D02*
X-68294D01*
X-81818Y-17314D02*
X-81040Y-16535D01*
X-82224Y-17314D02*
X-81818D01*
X24487Y-32542D02*
X24774Y-32255D01*
X23498Y-32542D02*
X24487D01*
X23127Y-32913D02*
X23498Y-32542D01*
X-83793Y-14567D02*
X-67716D01*
X-85541Y-13217D02*
X-85143D01*
X-83793Y-14567D01*
X21665Y-30363D02*
X22071D01*
X20925Y-31102D02*
X21665Y-30363D01*
X-7378Y-62791D02*
X-2461Y-57874D01*
X-66434Y-29857D02*
X-59710Y-36581D01*
X22539Y-62205D02*
X25394Y-65059D01*
X27625D02*
X29709Y-62975D01*
X29429Y-60640D02*
X29709Y-60920D01*
X25394Y-65059D02*
X27625D01*
X29709Y-62975D02*
Y-60920D01*
X1470Y-71549D02*
Y-70774D01*
X10039Y-62205D02*
X22539D01*
X1470Y-70774D02*
X10039Y-62205D01*
X-1575Y-71260D02*
X9280Y-60405D01*
X-5118Y-71260D02*
X-1575D01*
X9280Y-60405D02*
X24111D01*
X-1318Y-65701D02*
Y-64611D01*
X-13831Y-69291D02*
X-2362D01*
X295Y-61021D02*
X388Y-60928D01*
X489Y-61220D02*
X591D01*
X-2362Y-69291D02*
X1575Y-65354D01*
X489Y-61221D02*
X585Y-61125D01*
X295Y-61021D02*
X298Y-61024D01*
X1575Y-65354D02*
Y-62598D01*
X-2939Y-67323D02*
X-1318Y-65701D01*
X-24455Y-67323D02*
X-2939D01*
X394Y-61417D02*
X591Y-61220D01*
X388Y-60928D02*
X585Y-61125D01*
X98Y-61024D02*
X298D01*
X-1318Y-64611D02*
X-1031Y-64324D01*
X787Y-72232D02*
X1470Y-71549D01*
X787Y-72638D02*
Y-72232D01*
X-31965Y-62791D02*
X-7378D01*
X34252Y-59829D02*
Y-59646D01*
X35607Y-71873D02*
Y-63177D01*
X35521Y-63091D02*
X35607Y-63177D01*
X35521Y-63091D02*
Y-61099D01*
X34252Y-59829D02*
X35521Y-61099D01*
X4921Y-72146D02*
X5191D01*
X5135Y-72202D02*
X5191Y-72146D01*
X5135Y-72202D02*
X10099Y-77165D01*
X394Y-61417D02*
X1575Y-62598D01*
X24111Y-60405D02*
X26183Y-62477D01*
X26576D01*
X10099Y-77165D02*
X30315D01*
X38484Y-51476D02*
X39961Y-52953D01*
Y-56398D02*
Y-52953D01*
Y-56398D02*
X42421Y-58858D01*
X37176Y-56159D02*
Y-54499D01*
X35138Y-52461D02*
X37176Y-54499D01*
X35138Y-52658D02*
Y-52461D01*
X37176Y-56159D02*
X40621Y-59604D01*
X38484Y-51476D02*
Y-51083D01*
X-34263Y-64480D02*
X-33286D01*
X-33097Y-64669D01*
X-4331D01*
X-7087Y-73228D02*
X-5118Y-71260D01*
X-72806Y-2034D02*
X-54394Y-1924D01*
X-25908Y-68452D02*
X-25584D01*
X-24455Y-67323D01*
X73940Y45164D02*
X74001Y45225D01*
X-57874Y-40945D02*
X-51266D01*
X-57297Y-38976D02*
X-50689D01*
X-61901Y-38381D02*
X-61615Y-38668D01*
X-60151D02*
X-57874Y-40945D01*
X-61615Y-38668D02*
X-60151D01*
X-59693Y-36581D02*
X-57297Y-38976D01*
X-59710Y-36581D02*
X-59693D01*
X-50689Y-38976D02*
X-30474Y-59191D01*
X-51266Y-40945D02*
X-31220Y-60991D01*
X-34550Y-64192D02*
X-34263Y-64480D01*
X-33142Y-61614D02*
X-31965Y-62791D01*
X-38046Y-61614D02*
X-33142D01*
X-46447Y-70015D02*
X-38046Y-61614D01*
X-16145Y-71605D02*
X-13831Y-69291D01*
X-16433Y-71605D02*
X-16145D01*
X37407Y-75223D02*
Y-66530D01*
X40621Y-63316D01*
Y-59604D01*
X30315Y-77165D02*
X35607Y-71873D01*
X42421Y-71555D02*
Y-58858D01*
X48014Y-45715D02*
X52920Y-50044D01*
X42421Y-71555D02*
X44867Y-74001D01*
X53790Y8210D02*
X54234Y8380D01*
X-71711Y-11506D02*
X-52434Y-8122D01*
X52503Y8128D02*
X53355D01*
X44867Y-74001D02*
X45225D01*
X56576Y-4155D02*
Y-4155D01*
X56935Y-4210D02*
X57207Y-4210D01*
X-1017Y55902D02*
Y72827D01*
Y55902D02*
Y55902D01*
X-1152Y55343D02*
X-1152Y55343D01*
X5337Y56454D02*
X7360Y72462D01*
X57451Y-4236D02*
X72462Y-7360D01*
X-72462Y7360D02*
X-56194Y6101D01*
X54449Y8440D02*
X71898Y11645D01*
X57126Y-12738D02*
X57126Y-12738D01*
X57865Y-12992D02*
X58088Y-12992D01*
X-68088Y25864D02*
X-55909Y22285D01*
X30310Y54233D02*
X34642Y64069D01*
X-64069Y34642D02*
X-54324Y29865D01*
X-70852Y16879D02*
X-56671Y14069D01*
D68*
X-76008Y-19114D02*
D03*
X27534Y-34064D02*
D03*
X30709Y-35433D02*
D03*
X52458Y8121D02*
D03*
X56561Y-4154D02*
D03*
X56471Y-21226D02*
D03*
X54037Y40498D02*
D03*
X40945Y48819D02*
D03*
X45161Y47757D02*
D03*
X47599Y-45328D02*
D03*
X54651Y-29550D02*
D03*
X68930Y-26122D02*
D03*
X50867Y-38723D02*
D03*
X70852Y-16879D02*
D03*
X56282Y46230D02*
D03*
X18898Y57087D02*
D03*
X13508Y56694D02*
D03*
X5333Y56427D02*
D03*
X-78809Y-35855D02*
D03*
X-82224Y-17314D02*
D03*
X24774Y-32255D02*
D03*
X-85541Y-13217D02*
D03*
X22071Y-30363D02*
D03*
X-66434Y-29857D02*
D03*
X26576Y-62477D02*
D03*
X29429Y-60640D02*
D03*
X-1031Y-64324D02*
D03*
X787Y-72638D02*
D03*
X34252Y-59646D02*
D03*
X43996Y-50984D02*
D03*
X4921Y-72146D02*
D03*
X98Y-61024D02*
D03*
X38484Y-51476D02*
D03*
X35138Y-52658D02*
D03*
X-4331Y-64669D02*
D03*
X-7040Y-73325D02*
D03*
X47213Y14992D02*
D03*
X-34550Y-64192D02*
D03*
X-25908Y-68452D02*
D03*
X-13583Y-56105D02*
D03*
X-16929Y-56102D02*
D03*
X-16433Y-71605D02*
D03*
X52920Y-50044D02*
D03*
X45836Y-56603D02*
D03*
X72806Y2034D02*
D03*
X-71711Y-11506D02*
D03*
X-58924Y42811D02*
D03*
X74001Y45225D02*
D03*
X45225Y-74001D02*
D03*
X37407Y-75223D02*
D03*
X7360Y72462D02*
D03*
X72462Y-7360D02*
D03*
X-72462Y7360D02*
D03*
X-56194Y6101D02*
D03*
X-1017Y72827D02*
D03*
X-1152Y54918D02*
D03*
X54831Y1376D02*
D03*
X-54394Y-1924D02*
D03*
X-72806Y-2034D02*
D03*
X-4075Y52757D02*
D03*
X71898Y11645D02*
D03*
X-13381Y71543D02*
D03*
X-52434Y-8122D02*
D03*
X57126Y-12738D02*
D03*
X25864Y68088D02*
D03*
X-68088Y25864D02*
D03*
X-55909Y22285D02*
D03*
X34642Y64069D02*
D03*
X30310Y54233D02*
D03*
X64069Y-34642D02*
D03*
X-64069Y34642D02*
D03*
X-54324Y29865D02*
D03*
X42605Y59073D02*
D03*
X59073Y-42605D02*
D03*
X-53050Y35523D02*
D03*
X-61901Y-38381D02*
D03*
X49859Y53094D02*
D03*
X16632Y70910D02*
D03*
X-56671Y14069D02*
D03*
X-70852Y16879D02*
D03*
X-46447Y-70015D02*
D03*
D69*
X-70401Y-24600D02*
D03*
X12992Y42520D02*
D03*
X38978Y-33762D02*
D03*
X-6004Y-30610D02*
D03*
X197Y-30709D02*
D03*
X-2756Y-30610D02*
D03*
X0Y-39370D02*
D03*
X-17224Y-25295D02*
D03*
X-13655Y40309D02*
D03*
X-29331Y43898D02*
D03*
X-80315Y-32677D02*
D03*
X-37402Y1575D02*
D03*
X-31890Y-9843D02*
D03*
X-29921Y-15748D02*
D03*
X-33858Y-3937D02*
D03*
X-33465Y5512D02*
D03*
X37795Y-25591D02*
D03*
X26378Y-19685D02*
D03*
X33465Y-7874D02*
D03*
X35433Y5512D02*
D03*
X31496Y17717D02*
D03*
X23622Y23622D02*
D03*
X15748Y29528D02*
D03*
X-11811D02*
D03*
X-3150Y39764D02*
D03*
X-2756Y47244D02*
D03*
X-25984Y37402D02*
D03*
X-24016Y38583D02*
D03*
X-16535Y32446D02*
D03*
X-27165Y44882D02*
D03*
X-27953Y-42913D02*
D03*
X-49213Y-5906D02*
D03*
X-48228Y-16732D02*
D03*
X-33071Y-44882D02*
D03*
X33465Y-46260D02*
D03*
X18701Y-48228D02*
D03*
X31890Y-80315D02*
D03*
X-9449Y33465D02*
D03*
X3937Y39370D02*
D03*
Y47244D02*
D03*
X15748Y-47244D02*
D03*
X-31102Y80709D02*
D03*
X80709Y31102D02*
D03*
X52362Y-24409D02*
D03*
X52756Y-7874D02*
D03*
X-49213Y-11811D02*
D03*
X36285Y-36150D02*
D03*
X-7087Y46021D02*
D03*
X-45037Y6143D02*
D03*
X-44650Y1476D02*
D03*
X32677Y-63779D02*
D03*
X-24409Y-39370D02*
D03*
X33590Y-15906D02*
D03*
X0Y-47244D02*
D03*
X19685Y-45276D02*
D03*
X3937Y-43307D02*
D03*
X-3937D02*
D03*
X3937Y-51181D02*
D03*
X0Y-55118D02*
D03*
X-3937Y-51181D02*
D03*
X-7874Y-47244D02*
D03*
X7874D02*
D03*
X41339Y-45669D02*
D03*
X-37795Y-42520D02*
D03*
X38583Y17717D02*
D03*
X-36220Y36220D02*
D03*
Y39370D02*
D03*
X-22441Y25984D02*
D03*
X-29528Y24409D02*
D03*
X-11243Y43272D02*
D03*
X-40276Y-6937D02*
D03*
X-41676Y-3937D02*
D03*
X-20768Y-56791D02*
D03*
X-23130Y-55413D02*
D03*
X11811Y46457D02*
D03*
D71*
X57207Y-4210D02*
D03*
D72*
X12894Y42421D02*
X12992Y42520D01*
X-14275Y36709D02*
X-11913D01*
X-16296Y32686D02*
Y34689D01*
X-14275Y36709D01*
X-25765Y27286D02*
X-14942Y38109D01*
X-12493D01*
X-27165Y27930D02*
X-15092Y40003D01*
X-32283Y24792D02*
X-13768Y43307D01*
X-33683Y25372D02*
X-13583Y45472D01*
X-25765Y22365D02*
Y27286D01*
X-27165Y22944D02*
Y27930D01*
X-16535Y32446D02*
X-16296Y32686D01*
X-11913Y36709D02*
X-6201Y42421D01*
X12894D01*
X-12493Y38109D02*
X-6781Y43821D01*
X8388D01*
X-15092Y40003D02*
X-13961D01*
X-13655Y40309D01*
X-33683Y20386D02*
Y25372D01*
X-13583Y45472D02*
X-7555D01*
X-13768Y43307D02*
X-11277D01*
X-32283Y19806D02*
Y24792D01*
X11505Y46150D02*
X11811Y46457D01*
X10718Y46150D02*
X11505D01*
X8388Y43821D02*
X10718Y46150D01*
X-7555Y45472D02*
X-7087Y45941D01*
Y46021D01*
X-11277Y43307D02*
X-11243Y43272D01*
X-44940Y6963D02*
X-44237Y7666D01*
X-46203Y8343D02*
X-45726D01*
X-45037Y6143D02*
X-44940Y6240D01*
X-47237Y5232D02*
Y7309D01*
X-45726Y8343D02*
X-33683Y20386D01*
X-47237Y5232D02*
X-46850Y4845D01*
X-47237Y7309D02*
X-46203Y8343D01*
X-44940Y6240D02*
Y6963D01*
X-46850Y-1969D02*
Y4845D01*
Y-1969D02*
X-41976Y-6843D01*
X-44650Y1476D02*
Y1511D01*
X-42837Y3324D01*
X-40369Y-6843D02*
X-40276Y-6937D01*
X-41976Y-6843D02*
X-40369D01*
X-44237Y7853D02*
X-32283Y19806D01*
X-42837Y7273D02*
X-27165Y22944D01*
X-41437Y6693D02*
X-25765Y22365D01*
X-44237Y7666D02*
Y7853D01*
X-42837Y3324D02*
Y7273D01*
X-41437Y-3698D02*
Y6693D01*
X-41676Y-3937D02*
X-41437Y-3698D01*
M02*
