G04*
G04 #@! TF.GenerationSoftware,Altium Limited,Altium Designer,21.9.2 (33)*
G04*
G04 Layer_Physical_Order=2*
G04 Layer_Color=36540*
%FSLAX25Y25*%
%MOIN*%
G70*
G04*
G04 #@! TF.SameCoordinates,566D7FF9-8C5A-44BD-93FD-671ACA51C2D0*
G04*
G04*
G04 #@! TF.FilePolarity,Positive*
G04*
G01*
G75*
%ADD62C,0.01221*%
%ADD63C,0.01200*%
%ADD68C,0.02400*%
%ADD69C,0.02700*%
G36*
X78791Y89522D02*
X80761Y89049D01*
X82632Y88274D01*
X84360Y87215D01*
X85900Y85900D01*
X87215Y84360D01*
X88274Y82632D01*
X89049Y80761D01*
X89522Y78791D01*
X89681Y76772D01*
X89522Y74752D01*
X89049Y72782D01*
X88274Y70911D01*
X87215Y69184D01*
X86226Y68026D01*
X85899Y67664D01*
X85620Y67415D01*
X85538Y67322D01*
X83548Y65096D01*
X81749Y62560D01*
X80245Y59838D01*
X79055Y56966D01*
X78194Y53977D01*
X77673Y50912D01*
X77499Y47807D01*
X77673Y44702D01*
X78194Y41637D01*
X79055Y38649D01*
X79123Y38485D01*
X79298Y38032D01*
X79298Y38032D01*
X79503Y37581D01*
X81277Y33666D01*
X83305Y28278D01*
X84976Y22769D01*
X86283Y17163D01*
X87221Y11483D01*
X87785Y5754D01*
X87973Y0D01*
X87785Y-5754D01*
X87221Y-11483D01*
X86283Y-17163D01*
X84976Y-22769D01*
X83305Y-28278D01*
X81277Y-33666D01*
X79299Y-38032D01*
X79299D01*
X79273Y-38121D01*
X79273Y-38121D01*
X79055Y-38649D01*
X78194Y-41637D01*
X77673Y-44702D01*
X77499Y-47807D01*
X77673Y-50912D01*
X78194Y-53977D01*
X79055Y-56966D01*
X80245Y-59838D01*
X81749Y-62560D01*
X83548Y-65096D01*
X85538Y-67322D01*
X85620Y-67415D01*
X85899Y-67664D01*
X86226Y-68026D01*
X87215Y-69184D01*
X88274Y-70911D01*
X89049Y-72782D01*
X89522Y-74752D01*
X89681Y-76772D01*
X89522Y-78791D01*
X89049Y-80761D01*
X88274Y-82632D01*
X87215Y-84360D01*
X85900Y-85900D01*
X84360Y-87215D01*
X82632Y-88274D01*
X80761Y-89049D01*
X78791Y-89522D01*
X76772Y-89681D01*
X74752Y-89522D01*
X72782Y-89049D01*
X70911Y-88274D01*
X69184Y-87215D01*
X68026Y-86226D01*
X67664Y-85899D01*
X67415Y-85620D01*
X67322Y-85538D01*
X65096Y-83548D01*
X62560Y-81749D01*
X59838Y-80245D01*
X56966Y-79055D01*
X53977Y-78194D01*
X50912Y-77673D01*
X48002Y-77510D01*
X47799Y-77038D01*
X47799Y-77006D01*
X47913Y-76892D01*
X48210Y-76175D01*
Y-75400D01*
X47913Y-74683D01*
X47364Y-74134D01*
X46648Y-73837D01*
X46558D01*
X44856Y-70890D01*
X46630Y-69787D01*
X51095Y-66588D01*
X55340Y-63104D01*
X59349Y-59349D01*
X63104Y-55340D01*
X66588Y-51095D01*
X69787Y-46630D01*
X72688Y-41966D01*
X75277Y-37122D01*
X77543Y-32120D01*
X79478Y-26979D01*
X81072Y-21723D01*
X81791Y-18642D01*
X82236Y-18413D01*
X82447Y-18501D01*
X83223D01*
X83940Y-18204D01*
X84488Y-17655D01*
X84785Y-16939D01*
Y-16163D01*
X84488Y-15446D01*
X83940Y-14898D01*
X83223Y-14601D01*
X82999D01*
X82675Y-14220D01*
X83214Y-10955D01*
X83753Y-5489D01*
X83797Y-4133D01*
X84262Y-3949D01*
X84329Y-4015D01*
X85045Y-4312D01*
X85821D01*
X86538Y-4015D01*
X87086Y-3467D01*
X87383Y-2750D01*
Y-1974D01*
X87086Y-1258D01*
X86538Y-709D01*
X85821Y-412D01*
X85045D01*
X84411Y-675D01*
X83917Y-467D01*
X83932Y0D01*
X83753Y5489D01*
X83214Y10955D01*
X82320Y16374D01*
X81072Y21723D01*
X79478Y26979D01*
X77543Y32120D01*
X75277Y37122D01*
X72688Y41966D01*
X69787Y46630D01*
X66588Y51095D01*
X63104Y55340D01*
X59349Y59349D01*
X55340Y63104D01*
X51990Y65854D01*
X52051Y66262D01*
X52122Y66392D01*
X52637Y66907D01*
X52934Y67624D01*
Y68400D01*
X52637Y69116D01*
X52089Y69665D01*
X51372Y69962D01*
X50596D01*
X49880Y69665D01*
X49331Y69116D01*
X49166Y68719D01*
X48662Y68590D01*
X48432Y68878D01*
X49915Y71013D01*
X50068D01*
X50785Y71310D01*
X51333Y71859D01*
X51630Y72576D01*
Y73351D01*
X51333Y74068D01*
X50785Y74617D01*
X50068Y74914D01*
X49292D01*
X48576Y74617D01*
X48027Y74068D01*
X47730Y73351D01*
Y72576D01*
X47829Y72337D01*
X46231Y70035D01*
X41966Y72688D01*
X37122Y75277D01*
X32120Y77543D01*
X26979Y79478D01*
X21723Y81072D01*
X16374Y82320D01*
X10955Y83214D01*
X5489Y83753D01*
X0Y83932D01*
X-5489Y83753D01*
X-10955Y83214D01*
X-16374Y82320D01*
X-21723Y81072D01*
X-26979Y79478D01*
X-32120Y77543D01*
X-36999Y75332D01*
X-37122Y75277D01*
X-37313Y75175D01*
X-37443Y75106D01*
X-37733Y74926D01*
X-38155Y74689D01*
X-38835Y74325D01*
X-39989Y73975D01*
X-41189Y73857D01*
X-42388Y73975D01*
X-43542Y74325D01*
X-44605Y74893D01*
X-45294Y75459D01*
Y76175D01*
X-45591Y76892D01*
X-45809Y77110D01*
X-45614Y77622D01*
X-44702Y77673D01*
X-41637Y78194D01*
X-38649Y79055D01*
X-38485Y79123D01*
X-38032Y79298D01*
X-38032Y79298D01*
X-37581Y79503D01*
X-33666Y81277D01*
X-28278Y83305D01*
X-22769Y84976D01*
X-17163Y86283D01*
X-11483Y87221D01*
X-5754Y87785D01*
X0Y87973D01*
X5754Y87785D01*
X11483Y87221D01*
X17163Y86283D01*
X22769Y84976D01*
X28278Y83305D01*
X33666Y81277D01*
X38032Y79299D01*
Y79299D01*
X38121Y79273D01*
X38121Y79273D01*
X38649Y79055D01*
X41637Y78194D01*
X44702Y77673D01*
X47807Y77499D01*
X50912Y77673D01*
X53977Y78194D01*
X56966Y79055D01*
X59838Y80245D01*
X62560Y81749D01*
X65096Y83548D01*
X67322Y85538D01*
X67415Y85620D01*
X67664Y85899D01*
X68026Y86226D01*
X69184Y87215D01*
X70911Y88274D01*
X72782Y89049D01*
X74752Y89522D01*
X76772Y89681D01*
X78791Y89522D01*
D02*
G37*
G36*
X-11895Y60066D02*
X-11989Y59837D01*
Y59061D01*
X-11796Y58595D01*
X-12028Y58062D01*
X-12063Y58033D01*
X-13847Y57678D01*
X-14385Y57526D01*
X-14385Y57526D01*
X-14741Y57431D01*
X-14841Y57364D01*
X-15299Y57058D01*
X-15779Y57055D01*
X-15958Y57173D01*
X-16387Y57603D01*
X-17104Y57899D01*
X-17880D01*
X-18596Y57603D01*
X-19145Y57054D01*
X-19442Y56337D01*
Y56024D01*
X-19858Y55746D01*
X-19943Y55781D01*
X-20990Y55919D01*
X-22037Y55781D01*
X-23012Y55377D01*
X-23850Y54734D01*
X-24357Y54073D01*
X-24493Y53897D01*
X-24625Y53681D01*
X-24627Y53680D01*
X-24631Y53670D01*
X-24988Y53383D01*
X-24996Y53377D01*
X-25122Y53293D01*
X-25652Y52499D01*
X-25737Y52074D01*
X-25770Y52004D01*
Y52004D01*
X-25821Y51843D01*
X-25858Y51659D01*
X-25952Y51420D01*
X-26139Y51139D01*
X-26520Y50885D01*
X-26969Y50796D01*
X-27417Y50885D01*
X-27597Y51005D01*
D01*
X-28004Y51217D01*
X-28940Y51404D01*
X-29692Y51254D01*
X-29877Y51217D01*
X-29877Y51217D01*
X-30153Y51046D01*
X-30979Y50583D01*
X-34790Y48037D01*
X-38389Y45199D01*
X-41755Y42088D01*
X-42002Y41821D01*
X-42608D01*
X-43325Y41524D01*
X-43873Y40976D01*
X-44170Y40259D01*
Y39483D01*
X-44168Y39478D01*
X-44866Y38723D01*
X-47703Y35124D01*
X-50249Y31313D01*
X-52489Y27314D01*
X-53470Y25185D01*
X-53970Y25195D01*
X-53986Y25232D01*
X-54492Y25738D01*
X-55154Y26013D01*
X-55433D01*
X-55753Y26513D01*
X-55046Y28047D01*
X-52676Y32280D01*
X-49981Y36313D01*
X-46977Y40123D01*
X-43685Y43685D01*
X-40564Y46570D01*
X-40372Y46490D01*
X-39596D01*
X-38880Y46787D01*
X-38331Y47336D01*
X-38034Y48052D01*
Y48624D01*
X-36313Y49981D01*
X-32280Y52676D01*
X-28047Y55046D01*
X-23642Y57077D01*
X-19091Y58756D01*
X-14422Y60072D01*
X-12254Y60504D01*
X-11895Y60066D01*
D02*
G37*
G36*
X-74752Y89522D02*
X-72782Y89049D01*
X-70911Y88274D01*
X-69184Y87215D01*
X-68026Y86226D01*
X-67664Y85899D01*
X-67415Y85620D01*
X-67322Y85538D01*
X-65096Y83548D01*
X-62560Y81749D01*
X-59838Y80245D01*
X-56966Y79055D01*
X-53977Y78194D01*
X-50912Y77673D01*
X-48934Y77562D01*
X-48739Y77050D01*
X-48897Y76892D01*
X-49194Y76175D01*
Y75400D01*
X-48897Y74683D01*
X-48349Y74134D01*
X-47632Y73837D01*
X-47213D01*
X-45984Y72829D01*
X-44492Y72031D01*
X-42873Y71540D01*
X-41189Y71374D01*
X-39505Y71540D01*
X-37885Y72031D01*
X-36764Y72631D01*
X-36328Y72863D01*
X-36328Y72863D01*
X-36236Y72918D01*
X-35897Y73120D01*
X-31174Y75260D01*
X-26185Y77138D01*
X-21083Y78685D01*
X-15892Y79895D01*
X-10633Y80764D01*
X-5328Y81286D01*
X0Y81461D01*
X5328Y81286D01*
X10633Y80764D01*
X15892Y79895D01*
X21083Y78685D01*
X26185Y77138D01*
X31174Y75260D01*
X36029Y73060D01*
X40730Y70547D01*
X45257Y67732D01*
X47787Y65919D01*
X47789Y65912D01*
X47796Y65910D01*
X48099Y65575D01*
X48113Y65560D01*
X48295Y65323D01*
X49083Y64718D01*
X49438Y64571D01*
X49861Y64362D01*
X49874Y64356D01*
X49908Y64366D01*
X53711Y61245D01*
X57601Y57601D01*
X61245Y53711D01*
X64627Y49590D01*
X67732Y45257D01*
X70547Y40730D01*
X73060Y36029D01*
X75260Y31174D01*
X77138Y26185D01*
X78685Y21083D01*
X79895Y15892D01*
X80764Y10633D01*
X81134Y6874D01*
X80666Y6527D01*
X80309Y6674D01*
X79533D01*
X78817Y6378D01*
X78268Y5829D01*
X78082Y5379D01*
X77578Y5470D01*
X77575Y5551D01*
X76982Y11072D01*
X75996Y16537D01*
X74622Y21917D01*
X72869Y27186D01*
X70744Y32316D01*
X68258Y37281D01*
X65425Y42057D01*
X62258Y46618D01*
X58774Y50942D01*
X54990Y55006D01*
X50926Y58790D01*
X46602Y62274D01*
X43439Y64470D01*
X41681Y66228D01*
X41445Y66386D01*
X41445Y66386D01*
X41284Y66493D01*
X41267Y66497D01*
X41023Y66649D01*
X39600Y67533D01*
X35060Y69960D01*
X30372Y72084D01*
X25554Y73898D01*
X20628Y75392D01*
X15615Y76561D01*
X10536Y77399D01*
X5414Y77904D01*
X269Y78072D01*
X-4876Y77904D01*
X-9999Y77399D01*
X-15077Y76561D01*
X-20090Y75392D01*
X-25016Y73898D01*
X-29834Y72084D01*
X-32221Y71003D01*
X-32319Y70983D01*
X-32368Y70989D01*
Y70989D01*
X-32411Y70971D01*
X-32812Y70770D01*
X-37392Y68478D01*
X-42182Y65636D01*
X-46757Y62459D01*
X-51093Y58965D01*
X-55169Y55169D01*
X-58965Y51093D01*
X-62459Y46757D01*
X-65636Y42182D01*
X-68478Y37392D01*
X-70971Y32411D01*
X-73102Y27266D01*
X-73193Y26992D01*
X-73726Y26973D01*
X-73937Y27483D01*
X-74486Y28031D01*
X-75203Y28328D01*
X-75978D01*
X-76695Y28031D01*
X-77244Y27483D01*
X-77540Y26766D01*
Y25990D01*
X-77244Y25273D01*
X-76695Y24725D01*
X-75978Y24428D01*
X-75203D01*
X-74486Y24725D01*
X-74469Y24742D01*
X-74032Y24472D01*
X-74861Y21981D01*
X-76238Y16585D01*
X-77227Y11104D01*
X-77593Y7703D01*
X-77625Y7575D01*
X-77621Y7544D01*
X-77627Y7513D01*
X-77618Y7469D01*
X-77823Y5566D01*
X-78021Y0D01*
X-77823Y-5566D01*
X-77227Y-11104D01*
X-76238Y-16585D01*
X-74861Y-21981D01*
X-73102Y-27266D01*
X-71109Y-32078D01*
X-71146Y-32448D01*
X-71363Y-32662D01*
X-71876Y-32875D01*
X-72424Y-33423D01*
X-72721Y-34140D01*
Y-34916D01*
X-72424Y-35632D01*
X-71876Y-36181D01*
X-71159Y-36478D01*
X-70383D01*
X-69666Y-36181D01*
X-69520Y-36142D01*
X-69047Y-36263D01*
X-68929Y-36491D01*
X-68478Y-37392D01*
X-65636Y-42182D01*
X-62459Y-46757D01*
X-58965Y-51093D01*
X-58479Y-51614D01*
X-58477Y-51616D01*
X-58225Y-51899D01*
X-58162Y-51994D01*
X-57905Y-52220D01*
X-57902Y-52223D01*
X-53549Y-56576D01*
X-53548Y-56578D01*
X-53555Y-56584D01*
X-52223Y-57722D01*
X-50719Y-58643D01*
X-49091Y-59318D01*
X-47376Y-59730D01*
X-45619Y-59868D01*
Y-59857D01*
X-43796D01*
X-43366Y-60286D01*
X-42649Y-60583D01*
X-41874D01*
X-41157Y-60286D01*
X-40608Y-59738D01*
X-40312Y-59021D01*
Y-58245D01*
X-40608Y-57529D01*
X-41157Y-56980D01*
X-41874Y-56683D01*
X-42649D01*
X-43366Y-56980D01*
X-43796Y-57410D01*
X-45619D01*
X-45672Y-57420D01*
X-47334Y-57257D01*
X-48984Y-56756D01*
X-50504Y-55944D01*
X-51790Y-54888D01*
X-51818Y-54846D01*
X-56059Y-50605D01*
X-56388Y-50240D01*
X-56388Y-50239D01*
X-56408Y-50243D01*
X-57112Y-49488D01*
X-60497Y-45287D01*
X-63573Y-40856D01*
X-66326Y-36217D01*
X-66970Y-34931D01*
X-66960Y-34926D01*
X-66962Y-34921D01*
X-66958Y-34528D01*
X-67088Y-33541D01*
X-67469Y-32621D01*
X-68075Y-31832D01*
X-68548Y-31469D01*
X-68548Y-31468D01*
X-68550Y-31467D01*
X-68689Y-31361D01*
X-68734Y-31316D01*
X-68737Y-31314D01*
X-68743Y-31294D01*
X-68736Y-31283D01*
X-68740Y-31279D01*
X-68972Y-30835D01*
X-70805Y-26409D01*
X-72509Y-21291D01*
X-73843Y-16063D01*
X-74801Y-10755D01*
X-75377Y-5391D01*
X-75570Y0D01*
X-75377Y5391D01*
X-75287Y6231D01*
X-73524Y6140D01*
X-73013Y5630D01*
X-72297Y5333D01*
X-71521D01*
X-70804Y5630D01*
X-70256Y6178D01*
X-69959Y6895D01*
Y7671D01*
X-70256Y8388D01*
X-70804Y8936D01*
X-71521Y9233D01*
X-72297D01*
X-73013Y8936D01*
X-73367Y8583D01*
X-74662Y8649D01*
X-74986Y9029D01*
X-74801Y10755D01*
X-73843Y16063D01*
X-72509Y21291D01*
X-70805Y26409D01*
X-68741Y31393D01*
X-66326Y36217D01*
X-63573Y40856D01*
X-60497Y45287D01*
X-57112Y49488D01*
X-53436Y53436D01*
X-49488Y57112D01*
X-45287Y60497D01*
X-40856Y63573D01*
X-36217Y66326D01*
X-32359Y68257D01*
X-31456Y66644D01*
X-31597Y66304D01*
Y65528D01*
X-31300Y64812D01*
X-30752Y64263D01*
X-30035Y63966D01*
X-29259D01*
X-28543Y64263D01*
X-27994Y64812D01*
X-27697Y65528D01*
Y66304D01*
X-27994Y67021D01*
X-28543Y67569D01*
X-29259Y67866D01*
X-29336D01*
X-29937Y68940D01*
X-29773Y69412D01*
X-26367Y70823D01*
X-21204Y72541D01*
X-15933Y73887D01*
X-10578Y74853D01*
X-5168Y75434D01*
X269Y75629D01*
X5706Y75434D01*
X11116Y74853D01*
X16470Y73887D01*
X21742Y72541D01*
X26905Y70823D01*
X31931Y68741D01*
X36797Y66306D01*
X40108Y64341D01*
X41002Y63447D01*
X39533Y61492D01*
X39210D01*
X38493Y61195D01*
X37945Y60646D01*
X37648Y59929D01*
Y59154D01*
X37945Y58437D01*
X38018Y58364D01*
X37696Y57979D01*
X37395Y58188D01*
X33149Y60707D01*
X28733Y62917D01*
X24172Y64807D01*
X19487Y66366D01*
X14703Y67587D01*
X9844Y68464D01*
X9201Y68533D01*
X9201Y68533D01*
X8868Y68580D01*
X8719Y68550D01*
X8355Y68477D01*
X7856Y68888D01*
Y68892D01*
X7559Y69608D01*
X7010Y70157D01*
X6293Y70454D01*
X5518D01*
X4801Y70157D01*
X4252Y69608D01*
X4072Y69172D01*
X3542Y68935D01*
X3476Y68942D01*
X2665Y69103D01*
Y69103D01*
X2665Y69103D01*
X2177Y69090D01*
X0Y69168D01*
X-462Y69151D01*
X-570Y69648D01*
X-24Y69874D01*
X524Y70422D01*
X821Y71139D01*
Y71915D01*
X524Y72631D01*
X-24Y73180D01*
X-741Y73477D01*
X-1517D01*
X-2233Y73180D01*
X-2782Y72631D01*
X-3079Y71915D01*
Y71139D01*
X-2782Y70422D01*
X-2233Y69874D01*
X-2061Y69802D01*
X-1854Y69175D01*
X-1900Y69100D01*
X-4934Y68992D01*
X-9844Y68464D01*
X-12389Y68004D01*
X-12557Y68198D01*
X-12686Y68459D01*
X-12420Y69100D01*
Y69876D01*
X-12717Y70593D01*
X-13265Y71141D01*
X-13982Y71438D01*
X-14758D01*
X-15475Y71141D01*
X-16023Y70593D01*
X-16320Y69876D01*
Y69100D01*
X-16023Y68384D01*
X-15531Y67892D01*
X-15545Y67597D01*
X-15618Y67353D01*
X-19487Y66366D01*
X-24172Y64807D01*
X-28733Y62917D01*
X-33149Y60707D01*
X-37395Y58188D01*
X-41405Y55403D01*
X-41406Y55403D01*
X-41681Y55173D01*
X-41749Y55070D01*
X-42227Y54356D01*
X-42321Y53879D01*
X-42368Y53746D01*
X-42393Y53749D01*
X-42410Y53662D01*
X-42910Y53711D01*
Y53878D01*
X-43207Y54595D01*
X-43755Y55143D01*
X-44472Y55440D01*
X-45248D01*
X-45965Y55143D01*
X-46513Y54595D01*
X-46810Y53878D01*
Y53102D01*
X-46513Y52386D01*
X-46200Y52072D01*
X-46135Y51733D01*
X-46148Y51559D01*
X-46189Y51454D01*
X-46206Y51425D01*
X-46460Y51189D01*
X-48909Y48909D01*
X-52273Y45295D01*
X-55372Y41451D01*
X-58188Y37395D01*
X-60707Y33149D01*
X-62917Y28733D01*
X-64140Y25780D01*
X-65745Y26327D01*
X-65920Y26751D01*
X-66133Y26963D01*
X-65850Y27387D01*
X-65819Y27374D01*
X-65043D01*
X-64326Y27671D01*
X-63778Y28220D01*
X-63481Y28936D01*
Y29712D01*
X-63778Y30429D01*
X-64326Y30977D01*
X-65043Y31274D01*
X-65819D01*
X-66535Y30977D01*
X-67084Y30429D01*
X-67381Y29712D01*
Y28936D01*
X-67084Y28220D01*
X-66871Y28007D01*
X-67154Y27583D01*
X-67186Y27596D01*
X-67961D01*
X-68678Y27299D01*
X-69227Y26751D01*
X-69524Y26034D01*
Y25258D01*
X-69227Y24542D01*
X-68678Y23993D01*
X-67961Y23696D01*
X-67186D01*
X-66505Y23978D01*
X-65037Y23478D01*
X-66366Y19487D01*
X-67587Y14703D01*
X-68464Y9844D01*
X-68992Y4934D01*
X-69168Y-0D01*
X-68992Y-4934D01*
X-68464Y-9844D01*
X-67587Y-14703D01*
X-66366Y-19487D01*
X-64807Y-24172D01*
X-62917Y-28733D01*
X-60707Y-33149D01*
X-58188Y-37395D01*
X-55372Y-41451D01*
X-54356Y-42711D01*
X-55597Y-43752D01*
X-55609Y-43747D01*
X-56385D01*
X-57102Y-44044D01*
X-57650Y-44593D01*
X-57947Y-45309D01*
Y-46085D01*
X-57650Y-46802D01*
X-57102Y-47350D01*
X-56385Y-47647D01*
X-55609D01*
X-54892Y-47350D01*
X-54344Y-46802D01*
X-54047Y-46085D01*
Y-45673D01*
X-52726Y-44566D01*
X-49732Y-47560D01*
X-49732Y-47560D01*
X-48484Y-48808D01*
X-48484Y-48811D01*
X-48500Y-48826D01*
X-47686Y-49370D01*
X-46933Y-49520D01*
X-46929Y-49530D01*
X-46380Y-50078D01*
X-45663Y-50375D01*
X-44888D01*
X-44171Y-50078D01*
X-43622Y-49530D01*
X-43326Y-48813D01*
Y-48210D01*
X-42850Y-47979D01*
X-42501Y-48327D01*
Y-48813D01*
X-42204Y-49530D01*
X-41656Y-50078D01*
X-40939Y-50375D01*
X-40346D01*
X-34389Y-56332D01*
X-34389Y-56340D01*
X-34400Y-56352D01*
X-33607Y-56882D01*
X-32822Y-57038D01*
X-32658Y-57070D01*
X-32658Y-57070D01*
X-32323Y-57048D01*
X-32323Y-57048D01*
X-32207Y-57025D01*
X-31875Y-57074D01*
X-31716Y-57106D01*
X-31336Y-57360D01*
X-31082Y-57740D01*
X-31008Y-58110D01*
X-31030Y-58380D01*
X-31065Y-58557D01*
X-31114Y-58798D01*
X-31114Y-58798D01*
X-31115Y-58802D01*
X-31115Y-58802D01*
X-31118Y-58936D01*
X-31144Y-59067D01*
X-31126Y-59153D01*
X-31131Y-59241D01*
X-31124Y-59262D01*
X-31124Y-59284D01*
X-31076Y-59408D01*
X-31050Y-59539D01*
X-31034Y-59562D01*
X-30995Y-59629D01*
X-30972Y-59696D01*
X-30950Y-59728D01*
X-30949Y-59732D01*
X-30792Y-59973D01*
X-30788Y-59977D01*
X-30442Y-60328D01*
X-29676Y-61261D01*
X-28865Y-62779D01*
X-28762Y-63118D01*
X-28365Y-64427D01*
X-28284Y-65251D01*
X-28389Y-65356D01*
X-28686Y-66072D01*
Y-66848D01*
X-28389Y-67565D01*
X-27841Y-68113D01*
X-27124Y-68410D01*
X-26348D01*
X-25631Y-68113D01*
X-25083Y-67565D01*
X-24937Y-67213D01*
X-24396D01*
X-23761Y-68746D01*
X-22674Y-70520D01*
X-21332Y-72091D01*
X-21321Y-72080D01*
X-21319Y-72081D01*
X-20922Y-72346D01*
X-20454Y-72439D01*
X-20454Y-72439D01*
X-15875D01*
X-15445Y-72869D01*
X-14729Y-73165D01*
X-13953D01*
X-13236Y-72869D01*
X-12688Y-72320D01*
X-12391Y-71603D01*
Y-70828D01*
X-12688Y-70111D01*
X-13236Y-69562D01*
X-13953Y-69265D01*
X-14729D01*
X-15445Y-69562D01*
X-15875Y-69992D01*
X-19903D01*
X-20426Y-69379D01*
X-20196Y-68879D01*
X-19789D01*
X-19073Y-68582D01*
X-18524Y-68034D01*
X-18227Y-67317D01*
Y-66541D01*
X-18228Y-66539D01*
X-17695Y-66319D01*
X-17421Y-66045D01*
X-17050Y-66417D01*
X-16333Y-66714D01*
X-15557D01*
X-14840Y-66417D01*
X-14292Y-65868D01*
X-13995Y-65152D01*
Y-64376D01*
X-14292Y-63659D01*
X-14840Y-63111D01*
X-15557Y-62814D01*
X-16333D01*
X-17050Y-63111D01*
X-17323Y-63384D01*
X-17695Y-63012D01*
X-18411Y-62715D01*
X-19187D01*
X-19904Y-63012D01*
X-20082Y-63190D01*
X-20299Y-62972D01*
X-21016Y-62675D01*
X-21792D01*
X-22229Y-62856D01*
X-22245Y-62855D01*
X-22712Y-62522D01*
X-22598Y-61077D01*
X-22601Y-61034D01*
X-22611Y-60542D01*
X-22610Y-60542D01*
X-22609Y-60540D01*
X-22547Y-60459D01*
X-22288Y-60121D01*
X-21831Y-59526D01*
X-21381Y-58440D01*
X-21228Y-57274D01*
X-21381Y-56109D01*
X-21392Y-56083D01*
X-20968Y-55800D01*
X-6296Y-70472D01*
X-6161Y-70956D01*
X-6709Y-71505D01*
X-7006Y-72222D01*
Y-72997D01*
X-6709Y-73714D01*
X-6161Y-74263D01*
X-5444Y-74560D01*
X-4668D01*
X-3952Y-74263D01*
X-3403Y-73714D01*
X-3106Y-72997D01*
Y-72222D01*
X-3403Y-71505D01*
X-3547Y-71361D01*
Y-70242D01*
X-3641Y-69770D01*
X-3908Y-69370D01*
X-26626Y-46652D01*
X-26397Y-46099D01*
Y-45323D01*
X-26693Y-44606D01*
X-27242Y-44058D01*
X-27959Y-43761D01*
X-28734D01*
X-29032Y-43884D01*
X-29176Y-43856D01*
X-30429Y-42603D01*
X-30429Y-42603D01*
X-32634Y-40398D01*
X-32634Y-40365D01*
X-32638Y-40358D01*
X-32638Y-40358D01*
X-32841Y-40206D01*
X-33020Y-40068D01*
X-33386Y-39787D01*
X-36726Y-36726D01*
X-39787Y-33386D01*
X-42546Y-29791D01*
X-44980Y-25969D01*
X-46898Y-22287D01*
X-46696Y-21800D01*
Y-21024D01*
X-46993Y-20307D01*
X-47541Y-19759D01*
X-48071Y-19539D01*
X-48807Y-17764D01*
X-50169Y-13443D01*
X-51150Y-9019D01*
X-51741Y-4527D01*
X-51939Y0D01*
X-51741Y4527D01*
X-51150Y9019D01*
X-50169Y13443D01*
X-48807Y17764D01*
X-47073Y21950D01*
X-44980Y25969D01*
X-43260Y28669D01*
X-43056D01*
X-42339Y28966D01*
X-41790Y29515D01*
X-41493Y30231D01*
Y31007D01*
X-41535Y31108D01*
X-39787Y33386D01*
X-36726Y36726D01*
X-34161Y39077D01*
X-33565Y38945D01*
X-33378Y38493D01*
X-32759Y37874D01*
X-32560Y37792D01*
X-32473Y37299D01*
X-34992Y34992D01*
X-37908Y31809D01*
X-40536Y28384D01*
X-42523Y25265D01*
X-42606D01*
X-43323Y24969D01*
X-43871Y24420D01*
X-44168Y23703D01*
Y22928D01*
X-44005Y22535D01*
X-44849Y20914D01*
X-46501Y16925D01*
X-47800Y12808D01*
X-48734Y8593D01*
X-49297Y4313D01*
X-49486Y0D01*
X-49297Y-4313D01*
X-48734Y-8593D01*
X-47800Y-12808D01*
X-46501Y-16925D01*
X-44849Y-20914D01*
X-42856Y-24743D01*
X-42410Y-25442D01*
X-42516Y-25696D01*
Y-26472D01*
X-42219Y-27189D01*
X-41670Y-27737D01*
X-40954Y-28034D01*
X-40759D01*
X-40536Y-28384D01*
X-38525Y-31005D01*
X-38241Y-31388D01*
X-38241Y-31388D01*
X-38241Y-31388D01*
X-38216Y-31382D01*
X-38037Y-31561D01*
X-280Y-69318D01*
X-257Y-69333D01*
X385Y-70169D01*
X706Y-70946D01*
X512Y-71140D01*
X215Y-71856D01*
Y-72632D01*
X512Y-73349D01*
X1061Y-73897D01*
X1777Y-74194D01*
X2553D01*
X3270Y-73897D01*
X3819Y-73349D01*
X4115Y-72632D01*
Y-71856D01*
X3819Y-71140D01*
X3797Y-71118D01*
X3469Y-70754D01*
X3796Y-70390D01*
X6665Y-67521D01*
X7092Y-67698D01*
X7868D01*
X8585Y-67401D01*
X9133Y-66853D01*
X9430Y-66136D01*
Y-65360D01*
X9133Y-64643D01*
X8585Y-64095D01*
X7868Y-63798D01*
X7092D01*
X6376Y-64095D01*
X5827Y-64643D01*
X5589Y-65219D01*
X5151Y-65512D01*
X5166Y-65527D01*
X5166Y-65530D01*
X4596Y-66100D01*
X4172Y-65816D01*
X4330Y-65435D01*
Y-64659D01*
X4033Y-63943D01*
X3485Y-63394D01*
X2768Y-63097D01*
X1992D01*
X1276Y-63394D01*
X727Y-63943D01*
X430Y-64659D01*
Y-65435D01*
X727Y-66152D01*
X357Y-66464D01*
X-36119Y-29989D01*
X-36264Y-29828D01*
X-36452Y-29618D01*
X-36452Y-29618D01*
X-36610Y-29428D01*
X-36768Y-29237D01*
X-38511Y-26965D01*
X-38698Y-26671D01*
X-38616Y-26472D01*
Y-25696D01*
X-38913Y-24980D01*
X-39461Y-24431D01*
X-40178Y-24134D01*
X-40314D01*
X-40714Y-23506D01*
X-42608Y-19869D01*
X-44178Y-16079D01*
X-45411Y-12168D01*
X-46299Y-8164D01*
X-46834Y-4097D01*
X-47013Y0D01*
X-46834Y4097D01*
X-46299Y8164D01*
X-45411Y12168D01*
X-44178Y16079D01*
X-42608Y19869D01*
X-41829Y21366D01*
X-41113Y21662D01*
X-40565Y22211D01*
X-40268Y22928D01*
Y23703D01*
X-40394Y24009D01*
X-38511Y26965D01*
X-36014Y30219D01*
X-33243Y33243D01*
X-30732Y35544D01*
X-30371Y35832D01*
X-30355Y35838D01*
X-29935Y36041D01*
X-29485Y36227D01*
X-28645Y36872D01*
X-28272Y37358D01*
X-28270Y37360D01*
X-27978Y37724D01*
X-27973Y37726D01*
X-27968Y37737D01*
X-27968Y37741D01*
X-27623Y38006D01*
X-26965Y38511D01*
X-23506Y40714D01*
X-19869Y42608D01*
X-16079Y44178D01*
X-12168Y45411D01*
X-8164Y46299D01*
X-4097Y46834D01*
X-2813Y46890D01*
X-2478Y46556D01*
X-1762Y46259D01*
X-986D01*
X-269Y46556D01*
X180Y47005D01*
X4097Y46834D01*
X8164Y46299D01*
X12168Y45411D01*
X16079Y44178D01*
X19869Y42608D01*
X23506Y40714D01*
X26965Y38511D01*
X30219Y36014D01*
X33243Y33243D01*
X36014Y30219D01*
X38511Y26965D01*
X38543Y26914D01*
X38460Y26713D01*
Y25937D01*
X38757Y25220D01*
X39305Y24672D01*
X40022Y24375D01*
X40161D01*
X40714Y23506D01*
X42608Y19869D01*
X44178Y16079D01*
X45344Y12379D01*
X45439Y11888D01*
X45562Y11408D01*
X45684Y10935D01*
X46299Y8164D01*
X46834Y4097D01*
X47013Y0D01*
X46834Y-4097D01*
X46299Y-8164D01*
X45411Y-12168D01*
X45325Y-12439D01*
X44798Y-12448D01*
X44567Y-11888D01*
X44018Y-11339D01*
X43301Y-11042D01*
X42526D01*
X41809Y-11339D01*
X41260Y-11888D01*
X40963Y-12604D01*
Y-13380D01*
X41260Y-14097D01*
X41809Y-14645D01*
X42526Y-14942D01*
X43301D01*
X44018Y-14645D01*
X44146Y-14517D01*
X44586Y-14784D01*
X44178Y-16079D01*
X43197Y-18447D01*
X42627Y-18683D01*
X42078Y-19231D01*
X41781Y-19948D01*
Y-20724D01*
X42078Y-21441D01*
X42627Y-21989D01*
X43343Y-22286D01*
X44119D01*
X44836Y-21989D01*
X45384Y-21441D01*
X45681Y-20724D01*
Y-19948D01*
X45465Y-19426D01*
X46501Y-16925D01*
X47800Y-12808D01*
X48734Y-8593D01*
X49297Y-4313D01*
X49486Y0D01*
X49297Y4313D01*
X48734Y8593D01*
X47975Y12017D01*
X47975D01*
X47975Y12018D01*
X47948Y12191D01*
X47916Y12354D01*
X47916Y12355D01*
X47861Y12528D01*
X47800Y12808D01*
X47735Y13012D01*
X46501Y16925D01*
X44849Y20914D01*
X42856Y24743D01*
X42256Y25685D01*
X42360Y25937D01*
Y26713D01*
X42063Y27430D01*
X41515Y27978D01*
X40798Y28275D01*
X40606D01*
X40536Y28384D01*
X37908Y31809D01*
X34992Y34992D01*
X31809Y37908D01*
X28384Y40536D01*
X24743Y42856D01*
X20914Y44849D01*
X16925Y46501D01*
X12808Y47800D01*
X8593Y48734D01*
X4313Y49297D01*
X112Y49481D01*
X-269Y49862D01*
X-986Y50159D01*
X-1762D01*
X-2478Y49862D01*
X-2985Y49355D01*
X-4313Y49297D01*
X-8593Y48734D01*
X-12808Y47800D01*
X-16925Y46501D01*
X-20914Y44849D01*
X-24743Y42856D01*
X-28384Y40536D01*
X-28850Y40178D01*
X-29400Y40387D01*
X-29647Y40985D01*
X-30236Y41574D01*
X-30303Y41693D01*
X-30358Y42111D01*
X-29791Y42546D01*
X-25969Y44980D01*
X-21950Y47073D01*
X-17764Y48807D01*
X-13443Y50169D01*
X-9019Y51150D01*
X-4527Y51741D01*
X0Y51939D01*
X3195Y51799D01*
X3717Y51277D01*
X4433Y50981D01*
X5209D01*
X5926Y51277D01*
X6173Y51525D01*
X9019Y51150D01*
X13443Y50169D01*
X17764Y48807D01*
X21950Y47073D01*
X25969Y44980D01*
X29791Y42546D01*
X33386Y39787D01*
X36726Y36726D01*
X39787Y33386D01*
X42546Y29791D01*
X44980Y25969D01*
X46719Y22630D01*
X46475Y22041D01*
Y21266D01*
X46772Y20549D01*
X47321Y20000D01*
X47996Y19721D01*
X48807Y17764D01*
X49955Y14123D01*
X50169Y13443D01*
X51150Y9019D01*
X51741Y4527D01*
X51939Y0D01*
X51741Y-4527D01*
X51150Y-9019D01*
X50169Y-13443D01*
X48807Y-17764D01*
X47073Y-21950D01*
X44980Y-25969D01*
X42896Y-29241D01*
X42647D01*
X41931Y-29537D01*
X41382Y-30086D01*
X41085Y-30803D01*
Y-31578D01*
X41382Y-32295D01*
X41931Y-32844D01*
X42647Y-33141D01*
X43423D01*
X44140Y-32844D01*
X44688Y-32295D01*
X44985Y-31578D01*
Y-30803D01*
X44913Y-30628D01*
X46385Y-28425D01*
X48472Y-24698D01*
X50261Y-20819D01*
X51739Y-16811D01*
X52899Y-12700D01*
X53732Y-8510D01*
X54234Y-4268D01*
X54402Y0D01*
X54234Y4268D01*
X53732Y8510D01*
X52899Y12700D01*
X52323Y14742D01*
X52285Y14932D01*
X52258Y14972D01*
X51739Y16811D01*
X50261Y20819D01*
X50223Y20899D01*
X50375Y21266D01*
Y22041D01*
X50078Y22758D01*
X49530Y23307D01*
X49016Y23520D01*
X48472Y24698D01*
X46385Y28425D01*
X44012Y31977D01*
X41367Y35331D01*
X38468Y38468D01*
X35331Y41367D01*
X31977Y44012D01*
X28425Y46385D01*
X24698Y48472D01*
X22708Y49389D01*
X22787Y49904D01*
X22996Y49932D01*
X23971Y50336D01*
X24142Y50467D01*
X24173Y50482D01*
X24751Y50304D01*
X24898Y49951D01*
X25476Y49197D01*
X26230Y48618D01*
X27109Y48254D01*
X28051Y48130D01*
X28994Y48254D01*
X29171Y48328D01*
X29604Y48475D01*
X29638Y48480D01*
X29645Y48477D01*
X29658Y48483D01*
X30066Y48248D01*
X30068Y48247D01*
X33424Y46005D01*
X36931Y43240D01*
X40209Y40209D01*
X43240Y36931D01*
X46005Y33424D01*
X48485Y29712D01*
X50667Y25816D01*
X52536Y21761D01*
X54082Y17572D01*
X55294Y13275D01*
X56165Y8896D01*
X56689Y4462D01*
X56862Y73D01*
X56847Y0D01*
X56860Y-65D01*
X56695Y-4279D01*
X56191Y-8533D01*
X55356Y-12733D01*
X54193Y-16855D01*
X52711Y-20873D01*
X50918Y-24763D01*
X48825Y-28499D01*
X46446Y-32060D01*
X44963Y-33942D01*
X44992Y-33972D01*
X44612Y-34541D01*
X44423Y-35491D01*
X44442Y-35491D01*
X44446Y-35495D01*
Y-41198D01*
X44143Y-41500D01*
X43869Y-42162D01*
Y-42878D01*
X44010Y-43217D01*
X43797Y-43769D01*
X43021Y-44287D01*
X43021Y-44287D01*
X42660Y-44632D01*
X40285Y-46828D01*
X40260Y-46817D01*
X39484D01*
X38767Y-47114D01*
X38219Y-47662D01*
X37922Y-48379D01*
Y-49155D01*
X38219Y-49872D01*
X38767Y-50420D01*
X39484Y-50717D01*
X40260D01*
X40977Y-50420D01*
X41525Y-49872D01*
X41822Y-49155D01*
Y-48771D01*
X44384Y-46402D01*
X44645Y-46190D01*
X44726Y-46124D01*
X44760Y-46096D01*
X44803Y-46100D01*
X45248Y-46136D01*
X45669Y-46191D01*
X46620Y-46066D01*
X47505Y-45699D01*
X48265Y-45116D01*
X48849Y-44355D01*
X49216Y-43470D01*
X49341Y-42520D01*
X49254Y-41857D01*
X49216Y-41569D01*
X49172Y-41358D01*
X49172Y-41358D01*
X49172Y-41358D01*
X49255Y-41244D01*
X49460Y-40964D01*
X51981Y-37766D01*
X54784Y-33571D01*
X57249Y-29170D01*
X59361Y-24588D01*
X61107Y-19855D01*
X62477Y-14999D01*
X63461Y-10051D01*
X64054Y-5041D01*
X64252Y-0D01*
X64054Y5041D01*
X63572Y9113D01*
X63777Y9318D01*
X64074Y10034D01*
Y10810D01*
X63777Y11527D01*
X63228Y12075D01*
X63043Y12152D01*
X62477Y14999D01*
X61107Y19855D01*
X59361Y24588D01*
X57249Y29170D01*
X54784Y33571D01*
X51981Y37766D01*
X48858Y41728D01*
X45433Y45433D01*
X45147Y45697D01*
Y46235D01*
X44851Y46952D01*
X44302Y47501D01*
X43585Y47797D01*
X42875D01*
X41728Y48858D01*
X40833Y49563D01*
X40828Y49572D01*
X40794Y49594D01*
X38198Y51640D01*
X37823Y51936D01*
X37823Y51936D01*
X37819Y51946D01*
X37813Y51949D01*
X37514Y52308D01*
X37228Y52681D01*
X36472Y53261D01*
X35718Y53573D01*
X35591Y53626D01*
X35236Y53672D01*
X35235Y53672D01*
X33571Y54784D01*
X29170Y57249D01*
X24588Y59361D01*
X19855Y61107D01*
X14999Y62477D01*
X10051Y63461D01*
X5041Y64054D01*
X0Y64252D01*
X-5041Y64054D01*
X-10051Y63461D01*
X-14999Y62477D01*
X-19855Y61107D01*
X-24588Y59361D01*
X-29170Y57249D01*
X-33571Y54784D01*
X-37766Y51981D01*
X-39784Y50390D01*
X-40372D01*
X-41089Y50093D01*
X-41637Y49545D01*
X-41934Y48828D01*
Y48667D01*
X-45433Y45433D01*
X-48858Y41728D01*
X-51981Y37766D01*
X-54784Y33571D01*
X-57249Y29170D01*
X-59361Y24588D01*
X-61107Y19855D01*
X-62477Y14999D01*
X-63461Y10051D01*
X-64054Y5041D01*
X-64252Y-0D01*
X-64054Y-5041D01*
X-63625Y-8664D01*
X-63848Y-8887D01*
X-64145Y-9603D01*
Y-10379D01*
X-63848Y-11096D01*
X-63299Y-11644D01*
X-63130Y-11715D01*
X-62477Y-14999D01*
X-61107Y-19855D01*
X-59361Y-24588D01*
X-57249Y-29170D01*
X-54784Y-33571D01*
X-51981Y-37766D01*
X-48858Y-41728D01*
X-45586Y-45267D01*
X-45433Y-45433D01*
X-45309Y-45557D01*
X-45220Y-45645D01*
X-45220Y-45645D01*
X-44855Y-45974D01*
X-44829Y-46000D01*
X-45061Y-46475D01*
X-45663D01*
X-46341Y-46756D01*
X-46380Y-46772D01*
X-46525Y-46887D01*
X-46722Y-47043D01*
X-47087Y-46715D01*
X-47987Y-45815D01*
X-51680Y-42122D01*
X-51679Y-42096D01*
X-51679Y-42096D01*
X-51679Y-42096D01*
X-53393Y-39969D01*
X-56108Y-36058D01*
X-58537Y-31964D01*
X-60668Y-27706D01*
X-62490Y-23308D01*
X-63994Y-18790D01*
X-65171Y-14177D01*
X-66017Y-9492D01*
X-66526Y-4758D01*
X-66696Y-0D01*
X-66526Y4758D01*
X-66017Y9492D01*
X-65171Y14177D01*
X-63994Y18790D01*
X-62490Y23308D01*
X-62288Y23797D01*
X-60668Y27706D01*
X-58537Y31964D01*
X-56108Y36058D01*
X-53393Y39969D01*
X-50405Y43676D01*
X-47161Y47161D01*
X-44819Y49342D01*
X-44444Y49673D01*
X-44358Y49694D01*
X-43978Y49784D01*
X-43870Y49798D01*
X-43379Y50001D01*
X-42917Y50178D01*
X-42711Y50244D01*
X-42456Y50350D01*
X-41789Y50626D01*
X-40998Y51234D01*
X-40390Y52026D01*
X-40018Y52924D01*
X-40008Y52948D01*
X-39900Y53392D01*
X-39521Y53704D01*
X-36058Y56108D01*
X-31964Y58537D01*
X-27706Y60668D01*
X-23308Y62490D01*
X-18790Y63994D01*
X-14177Y65171D01*
X-13329Y65324D01*
X-9492Y66017D01*
X-4758Y66526D01*
X0Y66696D01*
X2122Y66620D01*
X2568Y66604D01*
X2568Y66604D01*
X2568Y66604D01*
X2569Y66604D01*
X2877Y66225D01*
X3202Y65801D01*
X3994Y65193D01*
X4916Y64811D01*
X5906Y64681D01*
X6895Y64811D01*
X7817Y65193D01*
X8517Y65730D01*
X8609Y65801D01*
X8868Y66061D01*
X8963Y66055D01*
X9031Y66051D01*
X9353Y66032D01*
X9492Y66017D01*
X14177Y65171D01*
X18790Y63994D01*
X23308Y62490D01*
X27706Y60668D01*
X31964Y58537D01*
X36058Y56108D01*
X39969Y53393D01*
X43676Y50405D01*
X47161Y47161D01*
X50405Y43676D01*
X51675Y42101D01*
X53393Y39969D01*
X56108Y36058D01*
X58537Y31964D01*
X60668Y27706D01*
X62490Y23308D01*
X63994Y18790D01*
X65171Y14177D01*
X66017Y9492D01*
X66526Y4758D01*
X66696Y0D01*
X66526Y-4758D01*
X66017Y-9492D01*
X65171Y-14177D01*
X63994Y-18790D01*
X62490Y-23308D01*
X62409Y-23505D01*
X62388Y-23535D01*
X62388Y-23540D01*
X62385Y-23544D01*
X62378Y-23579D01*
X60668Y-27706D01*
X58537Y-31964D01*
X56108Y-36058D01*
X53393Y-39969D01*
X50405Y-43676D01*
X47161Y-47161D01*
X43676Y-50405D01*
X39969Y-53393D01*
X36058Y-56108D01*
X31964Y-58537D01*
X27706Y-60668D01*
X23308Y-62490D01*
X18790Y-63994D01*
X14177Y-65171D01*
X13502Y-65293D01*
Y-65293D01*
X13046Y-65413D01*
X13046Y-65413D01*
X13010Y-65437D01*
X12742Y-65574D01*
X12556Y-65666D01*
X12544Y-65672D01*
X12535Y-65676D01*
X11509Y-66463D01*
X10722Y-67489D01*
X10227Y-68684D01*
X10058Y-69966D01*
X10074Y-70088D01*
X9923Y-70239D01*
X9627Y-70955D01*
Y-71731D01*
X9923Y-72448D01*
X10472Y-72996D01*
X11189Y-73293D01*
X11964D01*
X12681Y-72996D01*
X13230Y-72448D01*
X13527Y-71731D01*
Y-70955D01*
X13230Y-70239D01*
X12681Y-69690D01*
X12586Y-69651D01*
X12712Y-69013D01*
X13252Y-68206D01*
X13591Y-67979D01*
X14010Y-67740D01*
X14470Y-67630D01*
X14491Y-67625D01*
X14703Y-67587D01*
X19487Y-66366D01*
X24172Y-64807D01*
X28733Y-62917D01*
X33149Y-60707D01*
X37395Y-58188D01*
X41451Y-55372D01*
X45295Y-52273D01*
X48909Y-48909D01*
X52273Y-45295D01*
X55372Y-41451D01*
X58188Y-37395D01*
X60707Y-33149D01*
X62917Y-28733D01*
X64209Y-25615D01*
X65700Y-26219D01*
X65920Y-26751D01*
X66469Y-27299D01*
X67186Y-27596D01*
X67961D01*
X68678Y-27299D01*
X69227Y-26751D01*
X69524Y-26034D01*
Y-25258D01*
X69227Y-24542D01*
X68678Y-23993D01*
X67961Y-23696D01*
X67186D01*
X66622Y-23929D01*
X65093Y-23310D01*
X66366Y-19487D01*
X67587Y-14703D01*
X68464Y-9844D01*
X68992Y-4934D01*
X69168Y0D01*
X68992Y4934D01*
X68464Y9844D01*
X67587Y14703D01*
X66366Y19487D01*
X64807Y24172D01*
X62917Y28733D01*
X60707Y33149D01*
X58188Y37395D01*
X55372Y41451D01*
X54354Y42713D01*
X55596Y43753D01*
X55609Y43747D01*
X56385D01*
X57102Y44044D01*
X57650Y44593D01*
X57947Y45309D01*
Y46085D01*
X57650Y46802D01*
X57102Y47350D01*
X56385Y47647D01*
X55609D01*
X54892Y47350D01*
X54344Y46802D01*
X54047Y46085D01*
Y45674D01*
X53079Y44864D01*
X52582Y44913D01*
X52273Y45295D01*
X48909Y48909D01*
X45295Y52273D01*
X41451Y55372D01*
X38771Y57232D01*
X39012Y57673D01*
X39210Y57591D01*
X39986D01*
X40702Y57888D01*
X41251Y58437D01*
X41548Y59154D01*
Y59929D01*
X41502Y60039D01*
X42882Y61875D01*
X45133Y60312D01*
X49320Y56937D01*
X53256Y53272D01*
X56921Y49336D01*
X60295Y45149D01*
X63362Y40731D01*
X66107Y36107D01*
X68514Y31297D01*
X70572Y26329D01*
X72270Y21226D01*
X73600Y16015D01*
X74555Y10723D01*
X75130Y5376D01*
X75322Y1D01*
X75130Y-5373D01*
X75023Y-6369D01*
X73580Y-6223D01*
X73562Y-6178D01*
X73013Y-5630D01*
X72297Y-5333D01*
X71521D01*
X70804Y-5630D01*
X70256Y-6178D01*
X69959Y-6895D01*
Y-7671D01*
X70256Y-8388D01*
X70804Y-8936D01*
X71321Y-9150D01*
X71222Y-9650D01*
X71113D01*
X70396Y-9947D01*
X69848Y-10496D01*
X69551Y-11212D01*
Y-11988D01*
X69848Y-12705D01*
X70396Y-13253D01*
X71113Y-13550D01*
X71889D01*
X72605Y-13253D01*
X73154Y-12705D01*
X73451Y-11988D01*
Y-11212D01*
X73154Y-10496D01*
X72605Y-9947D01*
X72088Y-9733D01*
X72188Y-9233D01*
X72297D01*
X73013Y-8936D01*
X73296Y-8653D01*
X74655Y-8791D01*
X74970Y-9180D01*
X74801Y-10755D01*
X73843Y-16063D01*
X72509Y-21291D01*
X70805Y-26409D01*
X68741Y-31393D01*
X66326Y-36217D01*
X63573Y-40856D01*
X60497Y-45287D01*
X57112Y-49488D01*
X53500Y-53368D01*
X53421Y-53420D01*
X53375Y-53490D01*
X49368Y-57243D01*
X45061Y-60777D01*
X40533Y-64022D01*
X40359Y-64130D01*
X39947Y-64360D01*
X39940Y-64360D01*
X39937Y-64361D01*
X39936Y-64363D01*
X39230Y-64578D01*
X38039Y-64695D01*
X38028Y-64693D01*
X31181D01*
X30752Y-64263D01*
X30035Y-63966D01*
X29259D01*
X28543Y-64263D01*
X27994Y-64812D01*
X27697Y-65528D01*
Y-66304D01*
X27994Y-67021D01*
X28543Y-67569D01*
X29259Y-67866D01*
X30035D01*
X30752Y-67569D01*
X31181Y-67140D01*
X38028D01*
X38028Y-67140D01*
Y-67158D01*
X39710Y-66992D01*
X40650Y-66707D01*
X40725Y-66692D01*
X40729Y-66702D01*
X40894Y-66669D01*
X41264Y-66422D01*
X41300Y-66430D01*
X41301Y-66430D01*
X41301Y-66430D01*
X41895Y-66060D01*
X46554Y-62722D01*
X50984Y-59086D01*
X55167Y-55168D01*
X55169Y-55167D01*
X55170Y-55168D01*
X58965Y-51093D01*
X62459Y-46757D01*
X65636Y-42182D01*
X68478Y-37392D01*
X70971Y-32411D01*
X73102Y-27266D01*
X74861Y-21981D01*
X76238Y-16585D01*
X77227Y-11104D01*
X77564Y-7971D01*
X77598Y-7860D01*
X77592Y-7798D01*
X77604Y-7737D01*
X77570Y-7562D01*
X77553Y-7385D01*
X77523Y-7330D01*
X77511Y-7268D01*
X77412Y-7120D01*
X77407Y-7111D01*
X77575Y-5548D01*
X77773Y1D01*
X77636Y3838D01*
X78133Y3946D01*
X78268Y3620D01*
X78817Y3071D01*
X79533Y2774D01*
X80309D01*
X80862Y3003D01*
X81370Y2762D01*
X81461Y0D01*
X81286Y-5328D01*
X80764Y-10633D01*
X79895Y-15892D01*
X79858Y-16053D01*
X79833Y-16121D01*
X79835Y-16152D01*
X78685Y-21083D01*
X77138Y-26185D01*
X75260Y-31174D01*
X73060Y-36029D01*
X70547Y-40730D01*
X67732Y-45257D01*
X64627Y-49590D01*
X61245Y-53711D01*
X57601Y-57601D01*
X53711Y-61245D01*
X49590Y-64627D01*
X45257Y-67732D01*
X42544Y-69419D01*
X40730Y-70547D01*
X37363Y-72347D01*
X36989Y-71980D01*
Y-71266D01*
X36693Y-70549D01*
X36144Y-70000D01*
X35427Y-69704D01*
X34651D01*
X33935Y-70000D01*
X33386Y-70549D01*
X33089Y-71266D01*
Y-72041D01*
X33386Y-72758D01*
X33935Y-73307D01*
X34111Y-73380D01*
X34120Y-73925D01*
X31174Y-75260D01*
X26185Y-77138D01*
X21083Y-78685D01*
X20781Y-78755D01*
X20742Y-78760D01*
X20729Y-78768D01*
X15892Y-79895D01*
X10633Y-80764D01*
X5328Y-81286D01*
X0Y-81461D01*
X-5328Y-81286D01*
X-10633Y-80764D01*
X-15892Y-79895D01*
X-21083Y-78685D01*
X-26185Y-77138D01*
X-31174Y-75260D01*
X-36029Y-73060D01*
X-40730Y-70547D01*
X-43314Y-68941D01*
X-45257Y-67732D01*
X-49590Y-64627D01*
X-53711Y-61245D01*
X-57601Y-57601D01*
X-61245Y-53711D01*
X-64627Y-49590D01*
X-67732Y-45257D01*
X-70547Y-40730D01*
X-73060Y-36029D01*
X-75260Y-31174D01*
X-77138Y-26185D01*
X-78685Y-21083D01*
X-79895Y-15892D01*
X-80764Y-10633D01*
X-81286Y-5328D01*
X-81461Y0D01*
X-81286Y5328D01*
X-80764Y10633D01*
X-80342Y13185D01*
X-80327Y13276D01*
Y13276D01*
X-80273Y13607D01*
X-80275Y13849D01*
X-80283Y13889D01*
X-80241Y14211D01*
X-80370Y15192D01*
X-80749Y16106D01*
X-81351Y16892D01*
X-81740Y17190D01*
X-82008Y17837D01*
X-82557Y18385D01*
X-83274Y18682D01*
X-84049D01*
X-84766Y18385D01*
X-85315Y17837D01*
X-85611Y17120D01*
Y16344D01*
X-85315Y15628D01*
X-84766Y15079D01*
X-84049Y14782D01*
X-83274D01*
X-82831Y14493D01*
X-82756Y14036D01*
X-82767Y13872D01*
X-82795Y13528D01*
X-82805Y13482D01*
X-82801Y13462D01*
X-83214Y10955D01*
X-83753Y5489D01*
X-83932Y0D01*
X-83753Y-5489D01*
X-83214Y-10955D01*
X-82320Y-16374D01*
X-81974Y-17857D01*
X-82402Y-18221D01*
X-82880Y-18023D01*
X-83656D01*
X-84373Y-18320D01*
X-84921Y-18868D01*
X-85210Y-19565D01*
X-85249Y-19580D01*
X-85724Y-19561D01*
X-86283Y-17163D01*
X-87221Y-11483D01*
X-87785Y-5754D01*
X-87973Y0D01*
X-87785Y5754D01*
X-87221Y11483D01*
X-86283Y17163D01*
X-84976Y22769D01*
X-83305Y28278D01*
X-81277Y33666D01*
X-79299Y38032D01*
X-79299D01*
X-79273Y38121D01*
X-79273Y38121D01*
X-79055Y38649D01*
X-78194Y41637D01*
X-77673Y44702D01*
X-77499Y47807D01*
X-77673Y50912D01*
X-78194Y53977D01*
X-79055Y56966D01*
X-80245Y59838D01*
X-81749Y62560D01*
X-83548Y65096D01*
X-85538Y67322D01*
X-85620Y67415D01*
X-85899Y67664D01*
X-86226Y68026D01*
X-87215Y69184D01*
X-88274Y70911D01*
X-89049Y72782D01*
X-89522Y74752D01*
X-89681Y76772D01*
X-89522Y78791D01*
X-89049Y80761D01*
X-88274Y82632D01*
X-87215Y84360D01*
X-85900Y85900D01*
X-84360Y87215D01*
X-82632Y88274D01*
X-80761Y89049D01*
X-78791Y89522D01*
X-76772Y89681D01*
X-74752Y89522D01*
D02*
G37*
G36*
X-57421Y20364D02*
X-56760Y20090D01*
X-56129D01*
X-55813Y19896D01*
X-55707Y19749D01*
X-55722Y19682D01*
X-55727Y19670D01*
X-55858Y19219D01*
X-55994Y18852D01*
X-57238Y14441D01*
X-58132Y9946D01*
X-58671Y5395D01*
X-58850Y815D01*
X-58671Y-3764D01*
X-58132Y-8316D01*
X-57238Y-12811D01*
X-56798Y-14368D01*
X-56909Y-14414D01*
X-57457Y-14962D01*
X-57754Y-15679D01*
Y-16455D01*
X-57457Y-17171D01*
X-56909Y-17720D01*
X-56192Y-18017D01*
X-55700D01*
X-54407Y-21521D01*
X-52489Y-25684D01*
X-50249Y-29682D01*
X-47703Y-33493D01*
X-44866Y-37092D01*
X-41756Y-40456D01*
X-41759Y-40458D01*
X-41759Y-40459D01*
X-41758Y-40460D01*
X-41398Y-40804D01*
X-35625Y-46316D01*
X-29228Y-51882D01*
X-24841Y-55357D01*
X-24483Y-55686D01*
X-24483Y-55686D01*
X-24143Y-56025D01*
X-23833Y-56488D01*
X-23677Y-57274D01*
X-23833Y-58060D01*
X-24037Y-58366D01*
X-24331Y-58741D01*
X-24378Y-58773D01*
X-24615Y-59128D01*
X-24909Y-59567D01*
X-25021Y-60134D01*
X-25095Y-60504D01*
X-25095Y-60504D01*
X-25084Y-60619D01*
X-25084Y-60619D01*
X-25054Y-60928D01*
X-25043Y-61111D01*
X-25129Y-61991D01*
X-25164Y-62339D01*
X-25175Y-62459D01*
X-25176Y-62460D01*
X-25212Y-62818D01*
X-25212Y-62818D01*
X-25208Y-62837D01*
X-25208Y-62837D01*
X-25197Y-62838D01*
X-25188Y-62959D01*
X-25143Y-63521D01*
X-25143Y-63523D01*
X-25154Y-64000D01*
X-25157Y-64008D01*
X-25155Y-64013D01*
X-25161Y-64227D01*
X-25338Y-64411D01*
X-25605Y-64523D01*
X-25663Y-64527D01*
X-25860Y-64389D01*
X-25877Y-64359D01*
X-26284Y-62665D01*
X-26438Y-62294D01*
X-26453Y-62216D01*
X-26498Y-62149D01*
X-26959Y-61035D01*
X-27881Y-59531D01*
X-28582Y-58710D01*
X-28513Y-58189D01*
X-28638Y-57244D01*
X-29002Y-56363D01*
X-29583Y-55607D01*
X-30339Y-55027D01*
X-31220Y-54662D01*
X-32165Y-54537D01*
X-32583Y-54559D01*
X-32649Y-54553D01*
X-32658Y-54549D01*
X-32664Y-54551D01*
X-32675Y-54557D01*
X-38601Y-48630D01*
Y-48037D01*
X-38898Y-47321D01*
X-39447Y-46772D01*
X-40163Y-46475D01*
X-40863D01*
X-43440Y-43898D01*
X-43440Y-43872D01*
X-43439Y-43864D01*
X-43455Y-43850D01*
X-43831Y-43527D01*
X-46977Y-40123D01*
X-49981Y-36313D01*
X-52676Y-32280D01*
X-55046Y-28047D01*
X-57077Y-23642D01*
X-58756Y-19091D01*
X-60072Y-14422D01*
X-60702Y-11257D01*
X-60542Y-11096D01*
X-60245Y-10379D01*
Y-9603D01*
X-60542Y-8887D01*
X-61090Y-8338D01*
X-61180Y-8301D01*
X-61589Y-4847D01*
X-61779Y-0D01*
X-61589Y4847D01*
X-61019Y9664D01*
X-60072Y14422D01*
X-58756Y19091D01*
X-58244Y20479D01*
X-57664Y20606D01*
X-57421Y20364D01*
D02*
G37*
G36*
X-84373Y-21626D02*
X-83656Y-21923D01*
X-82880D01*
X-82164Y-21626D01*
X-81713Y-21176D01*
X-81184Y-21245D01*
X-81072Y-21723D01*
X-79478Y-26979D01*
X-77543Y-32120D01*
X-75277Y-37122D01*
X-72688Y-41966D01*
X-69787Y-46630D01*
X-66588Y-51095D01*
X-63104Y-55340D01*
X-59349Y-59349D01*
X-55340Y-63104D01*
X-51095Y-66588D01*
X-46630Y-69787D01*
X-46020Y-70166D01*
X-45917Y-70656D01*
X-47411Y-72853D01*
X-47632D01*
X-48349Y-73150D01*
X-48897Y-73699D01*
X-49194Y-74415D01*
Y-75191D01*
X-48897Y-75908D01*
X-48349Y-76456D01*
X-47632Y-76753D01*
X-46856D01*
X-46139Y-76456D01*
X-45591Y-75908D01*
X-45294Y-75191D01*
Y-74415D01*
X-45368Y-74238D01*
X-43616Y-71662D01*
X-41966Y-72688D01*
X-37122Y-75277D01*
X-32120Y-77543D01*
X-26979Y-79478D01*
X-21723Y-81072D01*
X-16374Y-82320D01*
X-10955Y-83214D01*
X-5489Y-83753D01*
X-4005Y-83801D01*
X-3805Y-84308D01*
X-3991Y-84493D01*
X-4287Y-85210D01*
Y-85986D01*
X-3991Y-86703D01*
X-3442Y-87251D01*
X-3156Y-87370D01*
X-3263Y-87866D01*
X-5754Y-87785D01*
X-11483Y-87221D01*
X-17163Y-86283D01*
X-22769Y-84976D01*
X-28278Y-83305D01*
X-33666Y-81277D01*
X-38032Y-79299D01*
Y-79299D01*
X-38121Y-79273D01*
X-38121Y-79273D01*
X-38649Y-79055D01*
X-41637Y-78194D01*
X-44702Y-77673D01*
X-47807Y-77499D01*
X-50912Y-77673D01*
X-53977Y-78194D01*
X-56966Y-79055D01*
X-59838Y-80245D01*
X-62560Y-81749D01*
X-65096Y-83548D01*
X-67322Y-85538D01*
X-67415Y-85620D01*
X-67664Y-85899D01*
X-68026Y-86226D01*
X-69184Y-87215D01*
X-70911Y-88274D01*
X-72782Y-89049D01*
X-74752Y-89522D01*
X-76772Y-89681D01*
X-78791Y-89522D01*
X-80761Y-89049D01*
X-82632Y-88274D01*
X-84360Y-87215D01*
X-85900Y-85900D01*
X-87215Y-84360D01*
X-88274Y-82632D01*
X-89049Y-80761D01*
X-89522Y-78791D01*
X-89681Y-76772D01*
X-89522Y-74752D01*
X-89049Y-72782D01*
X-88274Y-70911D01*
X-87215Y-69184D01*
X-86226Y-68026D01*
X-85899Y-67664D01*
X-85620Y-67415D01*
X-85538Y-67322D01*
X-83548Y-65096D01*
X-81749Y-62560D01*
X-80245Y-59838D01*
X-79055Y-56966D01*
X-78194Y-53977D01*
X-77673Y-50912D01*
X-77499Y-47807D01*
X-77673Y-44702D01*
X-78194Y-41637D01*
X-79055Y-38649D01*
X-79123Y-38485D01*
X-79298Y-38032D01*
X-79298Y-38032D01*
X-79503Y-37581D01*
X-81277Y-33666D01*
X-83305Y-28278D01*
X-84976Y-22769D01*
X-85304Y-21359D01*
X-84837Y-21162D01*
X-84373Y-21626D01*
D02*
G37*
%LPC*%
G36*
X77593Y87214D02*
X75950D01*
X74326Y86957D01*
X72763Y86449D01*
X71299Y85703D01*
X69969Y84737D01*
X68806Y83574D01*
X67840Y82245D01*
X67094Y80780D01*
X66586Y79217D01*
X66329Y77593D01*
Y75950D01*
X66586Y74326D01*
X67094Y72763D01*
X67840Y71299D01*
X68806Y69969D01*
X69969Y68806D01*
X71299Y67840D01*
X72763Y67094D01*
X74326Y66586D01*
X75950Y66329D01*
X77593D01*
X79217Y66586D01*
X80780Y67094D01*
X82245Y67840D01*
X83574Y68806D01*
X84737Y69969D01*
X85703Y71299D01*
X86449Y72763D01*
X86957Y74326D01*
X87214Y75950D01*
Y77593D01*
X86957Y79217D01*
X86449Y80780D01*
X85703Y82245D01*
X84737Y83574D01*
X83574Y84737D01*
X82245Y85703D01*
X80780Y86449D01*
X79217Y86957D01*
X77593Y87214D01*
D02*
G37*
G36*
X71822Y58817D02*
X71046D01*
X70330Y58520D01*
X69781Y57972D01*
X69484Y57255D01*
Y56479D01*
X69781Y55763D01*
X70330Y55214D01*
X71046Y54917D01*
X71822D01*
X72539Y55214D01*
X73087Y55763D01*
X73384Y56479D01*
Y57255D01*
X73087Y57972D01*
X72539Y58520D01*
X71822Y58817D01*
D02*
G37*
G36*
X73616Y54312D02*
X72840D01*
X72124Y54015D01*
X71575Y53467D01*
X71278Y52750D01*
Y51974D01*
X71575Y51258D01*
X72124Y50709D01*
X72840Y50412D01*
X73616D01*
X74333Y50709D01*
X74882Y51258D01*
X75178Y51974D01*
Y52750D01*
X74882Y53467D01*
X74333Y54015D01*
X73616Y54312D01*
D02*
G37*
G36*
X77593Y-66329D02*
X75950D01*
X74326Y-66586D01*
X72763Y-67094D01*
X71299Y-67840D01*
X69969Y-68806D01*
X68806Y-69969D01*
X67840Y-71299D01*
X67094Y-72763D01*
X66586Y-74326D01*
X66329Y-75950D01*
Y-77593D01*
X66586Y-79217D01*
X67094Y-80780D01*
X67840Y-82245D01*
X68806Y-83574D01*
X69969Y-84737D01*
X71299Y-85703D01*
X72763Y-86449D01*
X74326Y-86957D01*
X75950Y-87214D01*
X77593D01*
X79217Y-86957D01*
X80780Y-86449D01*
X82245Y-85703D01*
X83574Y-84737D01*
X84737Y-83574D01*
X85703Y-82245D01*
X86449Y-80780D01*
X86957Y-79217D01*
X87214Y-77593D01*
Y-75950D01*
X86957Y-74326D01*
X86449Y-72763D01*
X85703Y-71299D01*
X84737Y-69969D01*
X83574Y-68806D01*
X82245Y-67840D01*
X80780Y-67094D01*
X79217Y-66586D01*
X77593Y-66329D01*
D02*
G37*
G36*
X16995Y72293D02*
X16219D01*
X15502Y71996D01*
X14954Y71447D01*
X14657Y70731D01*
Y69955D01*
X14954Y69238D01*
X15502Y68690D01*
X16219Y68393D01*
X16995D01*
X17711Y68690D01*
X18260Y69238D01*
X18557Y69955D01*
Y70731D01*
X18260Y71447D01*
X17711Y71996D01*
X16995Y72293D01*
D02*
G37*
G36*
X-75950Y87214D02*
X-77593D01*
X-79217Y86957D01*
X-80780Y86449D01*
X-82245Y85703D01*
X-83574Y84737D01*
X-84737Y83574D01*
X-85703Y82245D01*
X-86449Y80780D01*
X-86957Y79217D01*
X-87214Y77593D01*
Y75950D01*
X-86957Y74326D01*
X-86449Y72763D01*
X-85703Y71299D01*
X-84737Y69969D01*
X-83574Y68806D01*
X-82245Y67840D01*
X-80780Y67094D01*
X-79217Y66586D01*
X-77593Y66329D01*
X-75950D01*
X-74326Y66586D01*
X-72763Y67094D01*
X-71299Y67840D01*
X-69969Y68806D01*
X-68806Y69969D01*
X-67840Y71299D01*
X-67094Y72763D01*
X-66586Y74326D01*
X-66329Y75950D01*
Y77593D01*
X-66586Y79217D01*
X-67094Y80780D01*
X-67840Y82245D01*
X-68806Y83574D01*
X-69969Y84737D01*
X-71299Y85703D01*
X-72763Y86449D01*
X-74326Y86957D01*
X-75950Y87214D01*
D02*
G37*
G36*
X25885Y69877D02*
X25109D01*
X24393Y69580D01*
X23844Y69031D01*
X23547Y68315D01*
Y67539D01*
X23844Y66822D01*
X24393Y66274D01*
X25109Y65977D01*
X25885D01*
X26602Y66274D01*
X27150Y66822D01*
X27447Y67539D01*
Y68315D01*
X27150Y69031D01*
X26602Y69580D01*
X25885Y69877D01*
D02*
G37*
G36*
X34635Y65598D02*
X33859D01*
X33142Y65301D01*
X32594Y64752D01*
X32297Y64036D01*
Y63260D01*
X32594Y62543D01*
X33142Y61995D01*
X33859Y61698D01*
X34635D01*
X35351Y61995D01*
X35900Y62543D01*
X36197Y63260D01*
Y64036D01*
X35900Y64752D01*
X35351Y65301D01*
X34635Y65598D01*
D02*
G37*
G36*
X-37639Y63053D02*
X-38415D01*
X-39132Y62756D01*
X-39680Y62208D01*
X-39977Y61491D01*
Y60715D01*
X-39680Y59999D01*
X-39132Y59450D01*
X-38415Y59153D01*
X-37639D01*
X-36923Y59450D01*
X-36374Y59999D01*
X-36077Y60715D01*
Y61491D01*
X-36374Y62208D01*
X-36923Y62756D01*
X-37639Y63053D01*
D02*
G37*
G36*
X-52227Y51503D02*
X-53003D01*
X-53720Y51206D01*
X-54268Y50658D01*
X-54565Y49941D01*
Y49165D01*
X-54268Y48449D01*
X-53720Y47900D01*
X-53003Y47603D01*
X-52227D01*
X-51511Y47900D01*
X-50962Y48449D01*
X-50665Y49165D01*
Y49941D01*
X-50962Y50658D01*
X-51511Y51206D01*
X-52227Y51503D01*
D02*
G37*
G36*
X-58245Y44212D02*
X-59021D01*
X-59738Y43915D01*
X-60286Y43366D01*
X-60583Y42649D01*
Y41874D01*
X-60286Y41157D01*
X-59738Y40608D01*
X-59021Y40312D01*
X-58245D01*
X-57529Y40608D01*
X-56980Y41157D01*
X-56683Y41874D01*
Y42649D01*
X-56980Y43366D01*
X-57529Y43915D01*
X-58245Y44212D01*
D02*
G37*
G36*
X61870Y39947D02*
X61095D01*
X60378Y39650D01*
X59829Y39102D01*
X59532Y38385D01*
Y37609D01*
X59829Y36893D01*
X60378Y36344D01*
X61095Y36047D01*
X61870D01*
X62587Y36344D01*
X63136Y36893D01*
X63433Y37609D01*
Y38385D01*
X63136Y39102D01*
X62587Y39650D01*
X61870Y39947D01*
D02*
G37*
G36*
X-63260Y36197D02*
X-64036D01*
X-64752Y35900D01*
X-65301Y35351D01*
X-65598Y34635D01*
Y33859D01*
X-65301Y33142D01*
X-64752Y32594D01*
X-64036Y32297D01*
X-63260D01*
X-62543Y32594D01*
X-61995Y33142D01*
X-61698Y33859D01*
Y34635D01*
X-61995Y35351D01*
X-62543Y35900D01*
X-63260Y36197D01*
D02*
G37*
G36*
X66304Y31597D02*
X65528D01*
X64812Y31300D01*
X64263Y30752D01*
X63966Y30035D01*
Y29259D01*
X64263Y28543D01*
X64812Y27994D01*
X65528Y27697D01*
X66304D01*
X67021Y27994D01*
X67569Y28543D01*
X67866Y29259D01*
Y30035D01*
X67569Y30752D01*
X67021Y31300D01*
X66304Y31597D01*
D02*
G37*
G36*
X-81502Y25572D02*
X-82278D01*
X-82994Y25275D01*
X-83543Y24727D01*
X-83840Y24010D01*
Y23234D01*
X-83543Y22517D01*
X-82994Y21969D01*
X-82278Y21672D01*
X-81502D01*
X-80785Y21969D01*
X-80237Y22517D01*
X-79940Y23234D01*
Y24010D01*
X-80237Y24727D01*
X-80785Y25275D01*
X-81502Y25572D01*
D02*
G37*
G36*
X-36Y24635D02*
X-752D01*
X-1413Y24361D01*
X-1920Y23854D01*
X-2194Y23193D01*
Y22477D01*
X-1920Y21815D01*
X-1413Y21309D01*
X-752Y21035D01*
X-36D01*
X626Y21309D01*
X1132Y21815D01*
X1406Y22477D01*
Y23193D01*
X1132Y23854D01*
X626Y24361D01*
X-36Y24635D01*
D02*
G37*
G36*
X5655Y24015D02*
X4939D01*
X4278Y23741D01*
X3771Y23235D01*
X3497Y22573D01*
Y21857D01*
X3771Y21196D01*
X4278Y20689D01*
X4939Y20415D01*
X5655D01*
X6317Y20689D01*
X6823Y21196D01*
X7097Y21857D01*
Y22573D01*
X6823Y23235D01*
X6317Y23741D01*
X5655Y24015D01*
D02*
G37*
G36*
X-5702Y23819D02*
X-6418D01*
X-7080Y23545D01*
X-7586Y23039D01*
X-7860Y22377D01*
Y21661D01*
X-7586Y21000D01*
X-7080Y20493D01*
X-6418Y20219D01*
X-5702D01*
X-5040Y20493D01*
X-4534Y21000D01*
X-4260Y21661D01*
Y22377D01*
X-4534Y23039D01*
X-5040Y23545D01*
X-5702Y23819D01*
D02*
G37*
G36*
X69610Y22740D02*
X68834D01*
X68117Y22443D01*
X67569Y21894D01*
X67272Y21178D01*
Y20402D01*
X67569Y19685D01*
X68117Y19137D01*
X68834Y18840D01*
X69610D01*
X70327Y19137D01*
X70875Y19685D01*
X71172Y20402D01*
Y21178D01*
X70875Y21894D01*
X70327Y22443D01*
X69610Y22740D01*
D02*
G37*
G36*
X11014Y22000D02*
X10298D01*
X9636Y21726D01*
X9130Y21219D01*
X8856Y20558D01*
Y19842D01*
X9130Y19180D01*
X9636Y18674D01*
X10298Y18400D01*
X11014D01*
X11675Y18674D01*
X12182Y19180D01*
X12456Y19842D01*
Y20558D01*
X12182Y21219D01*
X11675Y21726D01*
X11014Y22000D01*
D02*
G37*
G36*
X39355Y22019D02*
X38579D01*
X37863Y21723D01*
X37314Y21174D01*
X37017Y20457D01*
Y19681D01*
X37314Y18965D01*
X37863Y18416D01*
X38579Y18119D01*
X39355D01*
X40072Y18416D01*
X40620Y18965D01*
X40917Y19681D01*
Y20457D01*
X40620Y21174D01*
X40072Y21723D01*
X39355Y22019D01*
D02*
G37*
G36*
X-10988Y21621D02*
X-11704D01*
X-12365Y21346D01*
X-12872Y20840D01*
X-13146Y20178D01*
Y19463D01*
X-12872Y18801D01*
X-12365Y18294D01*
X-11704Y18021D01*
X-10988D01*
X-10326Y18294D01*
X-9820Y18801D01*
X-9546Y19463D01*
Y20178D01*
X-9820Y20840D01*
X-10326Y21346D01*
X-10988Y21621D01*
D02*
G37*
G36*
X15702Y18715D02*
X14986D01*
X14325Y18441D01*
X13818Y17935D01*
X13544Y17273D01*
Y16557D01*
X13818Y15896D01*
X14325Y15389D01*
X14986Y15115D01*
X15702D01*
X16364Y15389D01*
X16870Y15896D01*
X17144Y16557D01*
Y17273D01*
X16870Y17935D01*
X16364Y18441D01*
X15702Y18715D01*
D02*
G37*
G36*
X-15560Y18176D02*
X-16276D01*
X-16938Y17902D01*
X-17444Y17396D01*
X-17718Y16734D01*
Y16018D01*
X-17444Y15357D01*
X-16938Y14850D01*
X-16276Y14576D01*
X-15560D01*
X-14899Y14850D01*
X-14392Y15357D01*
X-14118Y16018D01*
Y16734D01*
X-14392Y17396D01*
X-14899Y17902D01*
X-15560Y18176D01*
D02*
G37*
G36*
X19427Y14368D02*
X18711D01*
X18049Y14094D01*
X17543Y13588D01*
X17269Y12926D01*
Y12210D01*
X17543Y11548D01*
X18049Y11042D01*
X18711Y10768D01*
X19427D01*
X20089Y11042D01*
X20595Y11548D01*
X20869Y12210D01*
Y12926D01*
X20595Y13588D01*
X20089Y14094D01*
X19427Y14368D01*
D02*
G37*
G36*
X-19133Y13703D02*
X-19849D01*
X-20511Y13429D01*
X-21017Y12923D01*
X-21291Y12261D01*
Y11545D01*
X-21017Y10883D01*
X-20511Y10377D01*
X-19849Y10103D01*
X-19133D01*
X-18471Y10377D01*
X-17965Y10883D01*
X-17691Y11545D01*
Y12261D01*
X-17965Y12923D01*
X-18471Y13429D01*
X-19133Y13703D01*
D02*
G37*
G36*
X71731Y13527D02*
X70955D01*
X70239Y13230D01*
X69690Y12681D01*
X69393Y11964D01*
Y11189D01*
X69690Y10472D01*
X70239Y9923D01*
X70955Y9627D01*
X71731D01*
X72448Y9923D01*
X72996Y10472D01*
X73293Y11189D01*
Y11964D01*
X72996Y12681D01*
X72448Y13230D01*
X71731Y13527D01*
D02*
G37*
G36*
X42514Y12580D02*
X41738D01*
X41021Y12283D01*
X40473Y11734D01*
X40176Y11018D01*
Y10242D01*
X40473Y9525D01*
X41021Y8977D01*
X41738Y8680D01*
X42514D01*
X43231Y8977D01*
X43779Y9525D01*
X44076Y10242D01*
Y11018D01*
X43779Y11734D01*
X43231Y12283D01*
X42514Y12580D01*
D02*
G37*
G36*
X21953Y9231D02*
X21237D01*
X20576Y8957D01*
X20069Y8450D01*
X19795Y7789D01*
Y7073D01*
X20069Y6411D01*
X20576Y5905D01*
X21237Y5631D01*
X21953D01*
X22615Y5905D01*
X23121Y6411D01*
X23395Y7073D01*
Y7789D01*
X23121Y8450D01*
X22615Y8957D01*
X21953Y9231D01*
D02*
G37*
G36*
X-21481Y8482D02*
X-22197D01*
X-22858Y8208D01*
X-23365Y7701D01*
X-23639Y7040D01*
Y6324D01*
X-23365Y5662D01*
X-22858Y5156D01*
X-22197Y4882D01*
X-21481D01*
X-20819Y5156D01*
X-20313Y5662D01*
X-20039Y6324D01*
Y7040D01*
X-20313Y7701D01*
X-20819Y8208D01*
X-21481Y8482D01*
D02*
G37*
G36*
X72632Y4115D02*
X71856D01*
X71139Y3818D01*
X70591Y3270D01*
X70294Y2553D01*
Y1777D01*
X70591Y1061D01*
X71139Y512D01*
X71856Y215D01*
X72632D01*
X73349Y512D01*
X73897Y1061D01*
X74194Y1777D01*
Y2553D01*
X73897Y3270D01*
X73349Y3818D01*
X72632Y4115D01*
D02*
G37*
G36*
X23123Y3627D02*
X22407D01*
X21745Y3353D01*
X21239Y2846D01*
X20965Y2185D01*
Y1469D01*
X21239Y807D01*
X21745Y301D01*
X22407Y27D01*
X23123D01*
X23785Y301D01*
X24291Y807D01*
X24565Y1469D01*
Y2185D01*
X24291Y2846D01*
X23785Y3353D01*
X23123Y3627D01*
D02*
G37*
G36*
X-22456Y2841D02*
X-23172D01*
X-23834Y2567D01*
X-24340Y2060D01*
X-24614Y1399D01*
Y683D01*
X-24340Y21D01*
X-23834Y-485D01*
X-23172Y-759D01*
X-22456D01*
X-21795Y-485D01*
X-21288Y21D01*
X-21014Y683D01*
Y1399D01*
X-21288Y2060D01*
X-21795Y2567D01*
X-22456Y2841D01*
D02*
G37*
G36*
X-71856Y-215D02*
X-72632D01*
X-73349Y-512D01*
X-73897Y-1061D01*
X-74194Y-1777D01*
Y-2553D01*
X-73897Y-3270D01*
X-73349Y-3818D01*
X-72632Y-4115D01*
X-71856D01*
X-71139Y-3818D01*
X-70591Y-3270D01*
X-70294Y-2553D01*
Y-1777D01*
X-70591Y-1061D01*
X-71139Y-512D01*
X-71856Y-215D01*
D02*
G37*
G36*
X22862Y-2092D02*
X22146D01*
X21484Y-2366D01*
X20978Y-2872D01*
X20704Y-3534D01*
Y-4250D01*
X20978Y-4912D01*
X21484Y-5418D01*
X22146Y-5692D01*
X22862D01*
X23524Y-5418D01*
X24030Y-4912D01*
X24304Y-4250D01*
Y-3534D01*
X24030Y-2872D01*
X23524Y-2366D01*
X22862Y-2092D01*
D02*
G37*
G36*
X-21998Y-2866D02*
X-22714D01*
X-23376Y-3139D01*
X-23882Y-3646D01*
X-24156Y-4307D01*
Y-5024D01*
X-23882Y-5685D01*
X-23376Y-6191D01*
X-22714Y-6465D01*
X-21998D01*
X-21337Y-6191D01*
X-20830Y-5685D01*
X-20556Y-5024D01*
Y-4307D01*
X-20830Y-3646D01*
X-21337Y-3139D01*
X-21998Y-2866D01*
D02*
G37*
G36*
X-41079Y-4401D02*
X-41795D01*
X-42457Y-4675D01*
X-42963Y-5181D01*
X-43237Y-5843D01*
Y-6559D01*
X-42963Y-7220D01*
X-42457Y-7727D01*
X-41795Y-8001D01*
X-41079D01*
X-40417Y-7727D01*
X-39911Y-7220D01*
X-39637Y-6559D01*
Y-5843D01*
X-39911Y-5181D01*
X-40417Y-4675D01*
X-41079Y-4401D01*
D02*
G37*
G36*
X39728Y-6665D02*
X39012D01*
X38350Y-6939D01*
X37844Y-7445D01*
X37570Y-8106D01*
Y-8823D01*
X37844Y-9484D01*
X38350Y-9990D01*
X39012Y-10265D01*
X39728D01*
X40390Y-9990D01*
X40896Y-9484D01*
X41170Y-8823D01*
Y-8106D01*
X40896Y-7445D01*
X40390Y-6939D01*
X39728Y-6665D01*
D02*
G37*
G36*
X21187Y-7566D02*
X20471D01*
X19809Y-7840D01*
X19303Y-8347D01*
X19029Y-9008D01*
Y-9724D01*
X19303Y-10386D01*
X19809Y-10892D01*
X20471Y-11166D01*
X21187D01*
X21849Y-10892D01*
X22355Y-10386D01*
X22629Y-9724D01*
Y-9008D01*
X22355Y-8347D01*
X21849Y-7840D01*
X21187Y-7566D01*
D02*
G37*
G36*
X-20136Y-8279D02*
X-20852D01*
X-21513Y-8553D01*
X-22020Y-9059D01*
X-22294Y-9721D01*
Y-10437D01*
X-22020Y-11098D01*
X-21513Y-11605D01*
X-20852Y-11879D01*
X-20136D01*
X-19474Y-11605D01*
X-18968Y-11098D01*
X-18694Y-10437D01*
Y-9721D01*
X-18968Y-9059D01*
X-19474Y-8553D01*
X-20136Y-8279D01*
D02*
G37*
G36*
X-70955Y-9627D02*
X-71731D01*
X-72448Y-9923D01*
X-72996Y-10472D01*
X-73293Y-11189D01*
Y-11964D01*
X-72996Y-12681D01*
X-72448Y-13230D01*
X-71731Y-13527D01*
X-70955D01*
X-70239Y-13230D01*
X-69690Y-12681D01*
X-69393Y-11964D01*
Y-11189D01*
X-69690Y-10472D01*
X-70239Y-9923D01*
X-70955Y-9627D01*
D02*
G37*
G36*
X18203Y-12452D02*
X17487D01*
X16826Y-12726D01*
X16319Y-13232D01*
X16045Y-13894D01*
Y-14610D01*
X16319Y-15272D01*
X16826Y-15778D01*
X17487Y-16052D01*
X18203D01*
X18865Y-15778D01*
X19371Y-15272D01*
X19645Y-14610D01*
Y-13894D01*
X19371Y-13232D01*
X18865Y-12726D01*
X18203Y-12452D01*
D02*
G37*
G36*
X-16985Y-13059D02*
X-17702D01*
X-18363Y-13333D01*
X-18869Y-13839D01*
X-19143Y-14501D01*
Y-15217D01*
X-18869Y-15878D01*
X-18363Y-16385D01*
X-17702Y-16659D01*
X-16985D01*
X-16324Y-16385D01*
X-15818Y-15878D01*
X-15543Y-15217D01*
Y-14501D01*
X-15818Y-13839D01*
X-16324Y-13333D01*
X-16985Y-13059D01*
D02*
G37*
G36*
X1201Y18316D02*
X-1201D01*
X-3581Y18003D01*
X-5900Y17382D01*
X-8119Y16463D01*
X-10198Y15262D01*
X-12103Y13801D01*
X-13801Y12103D01*
X-15262Y10198D01*
X-16463Y8119D01*
X-17382Y5900D01*
X-18003Y3581D01*
X-18316Y1201D01*
Y-1201D01*
X-18003Y-3581D01*
X-17382Y-5900D01*
X-16463Y-8119D01*
X-15262Y-10198D01*
X-13801Y-12103D01*
X-12103Y-13801D01*
X-10198Y-15262D01*
X-8119Y-16463D01*
X-5900Y-17382D01*
X-3581Y-18003D01*
X-1201Y-18316D01*
X1201D01*
X3581Y-18003D01*
X5900Y-17382D01*
X8119Y-16463D01*
X10198Y-15262D01*
X12103Y-13801D01*
X13801Y-12103D01*
X15262Y-10198D01*
X16463Y-8119D01*
X17382Y-5900D01*
X18003Y-3581D01*
X18316Y-1201D01*
Y1201D01*
X18003Y3581D01*
X17382Y5900D01*
X16463Y8119D01*
X15262Y10198D01*
X13801Y12103D01*
X12103Y13801D01*
X10198Y15262D01*
X8119Y16463D01*
X5900Y17382D01*
X3581Y18003D01*
X1201Y18316D01*
D02*
G37*
G36*
X14098Y-16442D02*
X13382D01*
X12721Y-16716D01*
X12214Y-17223D01*
X11940Y-17884D01*
Y-18600D01*
X12214Y-19262D01*
X12721Y-19768D01*
X13382Y-20042D01*
X14098D01*
X14760Y-19768D01*
X15266Y-19262D01*
X15540Y-18600D01*
Y-17884D01*
X15266Y-17223D01*
X14760Y-16716D01*
X14098Y-16442D01*
D02*
G37*
G36*
X-12745Y-16905D02*
X-13461D01*
X-14123Y-17179D01*
X-14629Y-17685D01*
X-14903Y-18347D01*
Y-19063D01*
X-14629Y-19725D01*
X-14123Y-20231D01*
X-13461Y-20505D01*
X-12745D01*
X-12084Y-20231D01*
X-11577Y-19725D01*
X-11303Y-19063D01*
Y-18347D01*
X-11577Y-17685D01*
X-12084Y-17179D01*
X-12745Y-16905D01*
D02*
G37*
G36*
X-68834Y-18840D02*
X-69610D01*
X-70327Y-19137D01*
X-70875Y-19685D01*
X-71172Y-20402D01*
Y-21178D01*
X-70875Y-21894D01*
X-70327Y-22443D01*
X-69610Y-22740D01*
X-68834D01*
X-68117Y-22443D01*
X-67569Y-21894D01*
X-67272Y-21178D01*
Y-20402D01*
X-67569Y-19685D01*
X-68117Y-19137D01*
X-68834Y-18840D01*
D02*
G37*
G36*
X9130Y-19286D02*
X8414D01*
X7752Y-19560D01*
X7246Y-20067D01*
X6972Y-20728D01*
Y-21444D01*
X7246Y-22106D01*
X7752Y-22612D01*
X8414Y-22886D01*
X9130D01*
X9792Y-22612D01*
X10298Y-22106D01*
X10572Y-21444D01*
Y-20728D01*
X10298Y-20067D01*
X9792Y-19560D01*
X9130Y-19286D01*
D02*
G37*
G36*
X-7682Y-19576D02*
X-8398D01*
X-9060Y-19850D01*
X-9566Y-20356D01*
X-9840Y-21018D01*
Y-21734D01*
X-9566Y-22396D01*
X-9060Y-22902D01*
X-8398Y-23176D01*
X-7682D01*
X-7020Y-22902D01*
X-6514Y-22396D01*
X-6240Y-21734D01*
Y-21018D01*
X-6514Y-20356D01*
X-7020Y-19850D01*
X-7682Y-19576D01*
D02*
G37*
G36*
X3611Y-20805D02*
X2895D01*
X2233Y-21079D01*
X1727Y-21586D01*
X1453Y-22247D01*
Y-22963D01*
X1727Y-23625D01*
X2233Y-24131D01*
X2895Y-24405D01*
X3611D01*
X4272Y-24131D01*
X4778Y-23625D01*
X5052Y-22963D01*
Y-22247D01*
X4778Y-21586D01*
X4272Y-21079D01*
X3611Y-20805D01*
D02*
G37*
G36*
X-2113Y-20904D02*
X-2829D01*
X-3491Y-21178D01*
X-3997Y-21684D01*
X-4271Y-22346D01*
Y-23062D01*
X-3997Y-23724D01*
X-3491Y-24230D01*
X-2829Y-24504D01*
X-2113D01*
X-1452Y-24230D01*
X-945Y-23724D01*
X-671Y-23062D01*
Y-22346D01*
X-945Y-21684D01*
X-1452Y-21178D01*
X-2113Y-20904D01*
D02*
G37*
G36*
X22405Y-21428D02*
X21689D01*
X21028Y-21702D01*
X20521Y-22209D01*
X20247Y-22870D01*
Y-23586D01*
X20521Y-24248D01*
X21028Y-24754D01*
X21689Y-25028D01*
X22405D01*
X23067Y-24754D01*
X23573Y-24248D01*
X23847Y-23586D01*
Y-22870D01*
X23573Y-22209D01*
X23067Y-21702D01*
X22405Y-21428D01*
D02*
G37*
G36*
X36215Y-21672D02*
X35439D01*
X34722Y-21969D01*
X34174Y-22517D01*
X33877Y-23234D01*
Y-24010D01*
X34174Y-24727D01*
X34722Y-25275D01*
X35439Y-25572D01*
X36215D01*
X36931Y-25275D01*
X37480Y-24727D01*
X37777Y-24010D01*
Y-23234D01*
X37480Y-22517D01*
X36931Y-21969D01*
X36215Y-21672D01*
D02*
G37*
G36*
X10230Y-28365D02*
X9455D01*
X8738Y-28662D01*
X8189Y-29210D01*
X7892Y-29927D01*
Y-30703D01*
X7910Y-30746D01*
X7632Y-31162D01*
X7433D01*
X7076Y-31310D01*
X6576Y-30975D01*
Y-30813D01*
X6279Y-30096D01*
X5731Y-29548D01*
X5014Y-29251D01*
X4238D01*
X3521Y-29548D01*
X2973Y-30096D01*
X2676Y-30813D01*
Y-31589D01*
X2973Y-32305D01*
X3521Y-32854D01*
X4238Y-33151D01*
X5014D01*
X5371Y-33003D01*
X5871Y-33337D01*
Y-33500D01*
X6168Y-34216D01*
X6717Y-34765D01*
X7433Y-35062D01*
X8209D01*
X8926Y-34765D01*
X9474Y-34216D01*
X9771Y-33500D01*
Y-32724D01*
X9753Y-32681D01*
X10031Y-32265D01*
X10230D01*
X10947Y-31968D01*
X11496Y-31420D01*
X11793Y-30703D01*
Y-29927D01*
X11496Y-29210D01*
X10947Y-28662D01*
X10230Y-28365D01*
D02*
G37*
G36*
X-66566Y-23633D02*
X-67342D01*
X-68058Y-23930D01*
X-68607Y-24479D01*
X-68904Y-25195D01*
Y-25971D01*
X-68607Y-26688D01*
X-68058Y-27236D01*
X-67342Y-27533D01*
X-67213D01*
X-67080Y-27852D01*
X-67060Y-28033D01*
X-67569Y-28543D01*
X-67866Y-29259D01*
Y-30035D01*
X-67569Y-30752D01*
X-67021Y-31300D01*
X-66304Y-31597D01*
X-65528D01*
X-64812Y-31300D01*
X-64263Y-30752D01*
X-63966Y-30035D01*
Y-29259D01*
X-64263Y-28543D01*
X-64812Y-27994D01*
X-65528Y-27697D01*
X-65657D01*
X-65790Y-27378D01*
X-65810Y-27197D01*
X-65301Y-26688D01*
X-65004Y-25971D01*
Y-25195D01*
X-65301Y-24479D01*
X-65849Y-23930D01*
X-66566Y-23633D01*
D02*
G37*
G36*
X64036Y-32297D02*
X63260D01*
X62543Y-32594D01*
X61995Y-33142D01*
X61698Y-33859D01*
Y-34635D01*
X61995Y-35351D01*
X62543Y-35900D01*
X63260Y-36197D01*
X64036D01*
X64752Y-35900D01*
X65301Y-35351D01*
X65598Y-34635D01*
Y-33859D01*
X65301Y-33142D01*
X64752Y-32594D01*
X64036Y-32297D01*
D02*
G37*
G36*
X-61095Y-36047D02*
X-61870D01*
X-62587Y-36344D01*
X-63136Y-36893D01*
X-63433Y-37609D01*
Y-38385D01*
X-63136Y-39102D01*
X-62587Y-39650D01*
X-61870Y-39947D01*
X-61095D01*
X-60378Y-39650D01*
X-59829Y-39102D01*
X-59532Y-38385D01*
Y-37609D01*
X-59829Y-36893D01*
X-60378Y-36344D01*
X-61095Y-36047D01*
D02*
G37*
G36*
X39531Y-40031D02*
X38815D01*
X38154Y-40305D01*
X37647Y-40811D01*
X37373Y-41473D01*
Y-42189D01*
X37647Y-42850D01*
X38154Y-43357D01*
X38815Y-43631D01*
X39531D01*
X40193Y-43357D01*
X40699Y-42850D01*
X40973Y-42189D01*
Y-41473D01*
X40699Y-40811D01*
X40193Y-40305D01*
X39531Y-40031D01*
D02*
G37*
G36*
X59021Y-40312D02*
X58245D01*
X57529Y-40608D01*
X56980Y-41157D01*
X56683Y-41874D01*
Y-42649D01*
X56980Y-43366D01*
X57529Y-43915D01*
X58245Y-44212D01*
X59021D01*
X59738Y-43915D01*
X60286Y-43366D01*
X60583Y-42649D01*
Y-41874D01*
X60286Y-41157D01*
X59738Y-40608D01*
X59021Y-40312D01*
D02*
G37*
G36*
X16454Y-44393D02*
X15738D01*
X15076Y-44667D01*
X14570Y-45173D01*
X14296Y-45835D01*
Y-46551D01*
X14570Y-47212D01*
X15076Y-47719D01*
X15738Y-47993D01*
X16454D01*
X17116Y-47719D01*
X17622Y-47212D01*
X17896Y-46551D01*
Y-45835D01*
X17622Y-45173D01*
X17116Y-44667D01*
X16454Y-44393D01*
D02*
G37*
G36*
X53003Y-47603D02*
X52227D01*
X51511Y-47900D01*
X50962Y-48449D01*
X50665Y-49165D01*
Y-49941D01*
X50962Y-50658D01*
X51511Y-51206D01*
X52227Y-51503D01*
X53003D01*
X53720Y-51206D01*
X54268Y-50658D01*
X54565Y-49941D01*
Y-49165D01*
X54268Y-48449D01*
X53720Y-47900D01*
X53003Y-47603D01*
D02*
G37*
G36*
X46085Y-54047D02*
X45309D01*
X44593Y-54344D01*
X44044Y-54892D01*
X43747Y-55609D01*
Y-56385D01*
X44044Y-57102D01*
X44593Y-57650D01*
X45309Y-57947D01*
X46085D01*
X46802Y-57650D01*
X47350Y-57102D01*
X47647Y-56385D01*
Y-55609D01*
X47350Y-54892D01*
X46802Y-54344D01*
X46085Y-54047D01*
D02*
G37*
G36*
X-37831Y-59617D02*
X-38547D01*
X-39209Y-59891D01*
X-39715Y-60398D01*
X-39989Y-61059D01*
Y-61775D01*
X-39715Y-62437D01*
X-39209Y-62943D01*
X-38547Y-63217D01*
X-37831D01*
X-37169Y-62943D01*
X-36663Y-62437D01*
X-36389Y-61775D01*
Y-61059D01*
X-36663Y-60398D01*
X-37169Y-59891D01*
X-37831Y-59617D01*
D02*
G37*
G36*
X38385Y-59532D02*
X37609D01*
X36893Y-59829D01*
X36344Y-60378D01*
X36047Y-61095D01*
Y-61870D01*
X36344Y-62587D01*
X36893Y-63136D01*
X37609Y-63433D01*
X38385D01*
X39102Y-63136D01*
X39650Y-62587D01*
X39947Y-61870D01*
Y-61095D01*
X39650Y-60378D01*
X39102Y-59829D01*
X38385Y-59532D01*
D02*
G37*
G36*
X-33859Y-61698D02*
X-34635D01*
X-35351Y-61995D01*
X-35900Y-62543D01*
X-36197Y-63260D01*
Y-64036D01*
X-35900Y-64752D01*
X-35351Y-65301D01*
X-34635Y-65598D01*
X-33859D01*
X-33142Y-65301D01*
X-32594Y-64752D01*
X-32297Y-64036D01*
Y-63260D01*
X-32594Y-62543D01*
X-33142Y-61995D01*
X-33859Y-61698D01*
D02*
G37*
G36*
X-43788Y-63336D02*
X-44564D01*
X-45281Y-63633D01*
X-45829Y-64181D01*
X-46126Y-64898D01*
Y-65674D01*
X-45829Y-66391D01*
X-45281Y-66939D01*
X-44564Y-67236D01*
X-43788D01*
X-43072Y-66939D01*
X-42523Y-66391D01*
X-42226Y-65674D01*
Y-64898D01*
X-42523Y-64181D01*
X-43072Y-63633D01*
X-43788Y-63336D01*
D02*
G37*
G36*
X21448Y-67065D02*
X20672D01*
X19955Y-67361D01*
X19407Y-67910D01*
X19110Y-68627D01*
Y-69402D01*
X19407Y-70119D01*
X19955Y-70668D01*
X20672Y-70965D01*
X21448D01*
X22164Y-70668D01*
X22713Y-70119D01*
X23010Y-69402D01*
Y-68627D01*
X22713Y-67910D01*
X22164Y-67361D01*
X21448Y-67065D01*
D02*
G37*
G36*
X27194Y-71770D02*
X26419D01*
X25702Y-72067D01*
X25153Y-72616D01*
X24856Y-73333D01*
Y-74108D01*
X25153Y-74825D01*
X25702Y-75374D01*
X26419Y-75670D01*
X27194D01*
X27911Y-75374D01*
X28460Y-74825D01*
X28756Y-74108D01*
Y-73333D01*
X28460Y-72616D01*
X27911Y-72067D01*
X27194Y-71770D01*
D02*
G37*
G36*
X-75950Y-66329D02*
X-77593D01*
X-79217Y-66586D01*
X-80780Y-67094D01*
X-82245Y-67840D01*
X-83574Y-68806D01*
X-84737Y-69969D01*
X-85703Y-71299D01*
X-86449Y-72763D01*
X-86957Y-74326D01*
X-87214Y-75950D01*
Y-77593D01*
X-86957Y-79217D01*
X-86449Y-80780D01*
X-85703Y-82245D01*
X-84737Y-83574D01*
X-83574Y-84737D01*
X-82245Y-85703D01*
X-80780Y-86449D01*
X-79217Y-86957D01*
X-77593Y-87214D01*
X-75950D01*
X-74326Y-86957D01*
X-72763Y-86449D01*
X-71299Y-85703D01*
X-69969Y-84737D01*
X-68806Y-83574D01*
X-67840Y-82245D01*
X-67094Y-80780D01*
X-66586Y-79217D01*
X-66329Y-77593D01*
Y-75950D01*
X-66586Y-74326D01*
X-67094Y-72763D01*
X-67840Y-71299D01*
X-68806Y-69969D01*
X-69969Y-68806D01*
X-71299Y-67840D01*
X-72763Y-67094D01*
X-74326Y-66586D01*
X-75950Y-66329D01*
D02*
G37*
%LPD*%
D62*
X-29879Y-58953D02*
G03*
X-32496Y-55802I-2286J764D01*
G01*
X-33517Y-55459D02*
G03*
X-32496Y-55802I859J867D01*
G01*
X-26986Y-65744D02*
G03*
X-26834Y-66284I1219J53D01*
G01*
X-29879Y-58953D02*
G03*
X-29909Y-59063I1161J-375D01*
G01*
X36735Y51300D02*
G03*
X35038Y52477I-2089J-1202D01*
G01*
X-26986Y-65744D02*
G03*
X-27593Y-62688I-9992J-396D01*
G01*
D02*
G03*
X-29897Y-59080I-9385J-3452D01*
G01*
D02*
G03*
X-29910Y-59067I-849J-848D01*
G01*
X34574Y52656D02*
G03*
X-44346Y-44737I-34574J-52656D01*
G01*
X3666Y67223D02*
G03*
X2617Y67863I-1098J-619D01*
G01*
X13508Y-66584D02*
G03*
X13501Y-66587I502J-1156D01*
G01*
X-63441Y24238D02*
G03*
X-52655Y-42892I63441J-24238D01*
G01*
X3666Y67223D02*
G03*
X7902Y66870I2239J1281D01*
G01*
X-13578Y66542D02*
G03*
X-40656Y54400I13578J-66542D01*
G01*
X9037Y67309D02*
G03*
X7902Y66870I-169J-1249D01*
G01*
X13501Y-66587D02*
G03*
X11575Y-71339I1510J-3379D01*
G01*
X-40656Y54400D02*
G03*
X-41147Y53573I756J-1008D01*
G01*
X46656Y12213D02*
G03*
X-28735Y38733I-46656J-12213D01*
G01*
D02*
G03*
X-29065Y38358I732J-976D01*
G01*
X-36887Y73992D02*
G03*
X-37038Y73904I559J-1129D01*
G01*
X-81509Y13849D02*
G03*
X-83661Y16732I-2523J362D01*
G01*
X48539Y66929D02*
G03*
X46548Y68328I-48539J-66929D01*
G01*
X48838Y66616D02*
G03*
X48539Y66929I-1018J-674D01*
G01*
X48838Y66616D02*
G03*
X50240Y65562I2147J1395D01*
G01*
X50626Y65364D02*
G03*
X50240Y65562I-740J-970D01*
G01*
X81053Y-16307D02*
G03*
X50626Y65364I-81053J16307D01*
G01*
X82835Y-16551D02*
G03*
X82112Y-16321I-725J-1030D01*
G01*
X81058Y-16308D02*
G03*
X81243Y-16321I185J1246D01*
G01*
X-81515Y13817D02*
G03*
X-81509Y13849I-1241J219D01*
G01*
X46548Y68328D02*
G03*
X-36887Y73992I-46548J-68328D01*
G01*
X49681Y72959D02*
G03*
X49704Y72873I1190J270D01*
G01*
X-81571Y13482D02*
G03*
X-43984Y-70007I81571J-13482D01*
G01*
X-47244Y75787D02*
G03*
X-37038Y73904I6055J4219D01*
G01*
X-81514Y13817D02*
G03*
X-81571Y13482I81514J-13817D01*
G01*
X-10800Y67049D02*
G03*
X-13578Y66542I10800J-67049D01*
G01*
X-34354Y40555D02*
G03*
X-34048Y40951I-793J928D01*
G01*
X-34354Y40555D02*
G03*
X-33623Y-41163I34354J-40555D01*
G01*
X51145Y14459D02*
G03*
X-31661Y42690I-51145J-14459D01*
G01*
X-37425Y-30419D02*
G03*
X-37406Y-30441I973J800D01*
G01*
X-31167Y36805D02*
G03*
X-37425Y-30419I31167J-36805D01*
G01*
X-33617Y-41168D02*
G03*
X-33623Y-41163I-784J-936D01*
G01*
X-30727Y37041D02*
G03*
X-29065Y38358I-785J2698D01*
G01*
X-32122Y42483D02*
G03*
X-34048Y40951I609J-2743D01*
G01*
X-32122Y42483D02*
G03*
X-31661Y42690I-260J1192D01*
G01*
X43035Y-31191D02*
G03*
X51145Y14459I-43035J31191D01*
G01*
X-30727Y37041D02*
G03*
X-31167Y36805I345J-1171D01*
G01*
X-37406Y-30441D02*
G03*
X-37348Y-30505I954J823D01*
G01*
X36735Y51300D02*
G03*
X37065Y50933I1054J616D01*
G01*
X39955Y48699D02*
G03*
X37065Y50933I-39955J-48699D01*
G01*
X48207Y-40547D02*
G03*
X39955Y48699I-48207J40547D01*
G01*
X-44337Y-44747D02*
G03*
X-44346Y-44738I-902J-880D01*
G01*
X48204Y-40551D02*
G03*
X47979Y-41764I967J-807D01*
G01*
X45065Y-44873D02*
G03*
X47979Y-41764I604J2354D01*
G01*
X45065Y-44873D02*
G03*
X43887Y-45188I-305J-1222D01*
G01*
X-44329Y-44754D02*
G03*
X-44337Y-44747I-891J-891D01*
G01*
X-40907Y-48177D02*
G03*
X-40554Y-48424I888J893D01*
G01*
X2575Y-69866D02*
G03*
X2208Y-70754I893J-888D01*
G01*
X6695Y-66057D02*
G03*
X6038Y-66402I233J-1238D01*
G01*
X2165Y-72244D02*
G03*
X2208Y-71922I-1217J327D01*
G01*
X6915Y-66013D02*
G03*
X7480Y-65748I-235J1238D01*
G01*
X-47612Y-47935D02*
G03*
X-46722Y-48303I889J892D01*
G01*
X-45282Y-48422D02*
G03*
X-45823Y-48303I-536J-1140D01*
G01*
X52651Y42896D02*
G03*
X9037Y67309I-52651J-42896D01*
G01*
X63529Y-24008D02*
G03*
X52651Y42896I-63529J24008D01*
G01*
X2617Y67863D02*
G03*
X-10800Y67049I-2617J-67863D01*
G01*
X13753Y-66506D02*
G03*
X63529Y-24008I-13753J66506D01*
G01*
X13753Y-66506D02*
G03*
X13508Y-66584I257J-1233D01*
G01*
X-43177Y51411D02*
G03*
X-41147Y53571I-524J2526D01*
G01*
X-43177Y51411D02*
G03*
X-43557Y51263I260J-1233D01*
G01*
X-44585Y50925D02*
G03*
X-43557Y51263I-275J2565D01*
G01*
X-45280Y50616D02*
G03*
X-63441Y24238I45280J-50616D01*
G01*
X-52672Y-42911D02*
G03*
X-52660Y-42900I-805J969D01*
G01*
X-33525Y-41251D02*
G03*
X-33614Y-41170I-894J-888D01*
G01*
X-44585Y50925D02*
G03*
X-45280Y50616I140J-1252D01*
G01*
X46676Y12128D02*
G03*
X46659Y12203I-1237J-240D01*
G01*
X46783Y11719D02*
G03*
X46759Y11801I-1221J-311D01*
G01*
X46677Y12122D02*
G03*
X46757Y11808I2536J477D01*
G01*
X43731Y-20336D02*
G03*
X46783Y11719I-43731J20336D01*
G01*
X2165Y-72244D02*
G03*
X592Y-68445I-5374J0D01*
G01*
X21132Y-79931D02*
G03*
X43202Y-70492I-21132J79931D01*
G01*
D02*
G03*
X81053Y-16307I-43202J70492D01*
G01*
X-43984Y-70007D02*
G03*
X21132Y-79931I43984J70007D01*
G01*
X39872Y-48767D02*
G03*
X43887Y-45188I-39872J48767D01*
G01*
X-29910Y-59067D02*
X-29909Y-59063D01*
X-26986Y-65744D02*
X-26986Y-65744D01*
X-26834Y-66284D02*
X-26736Y-66460D01*
X-29879Y-58953D02*
X-29879Y-58953D01*
X-40547Y-48430D02*
X-33517Y-55459D01*
X-29910Y-59067D02*
X-29910Y-59067D01*
X-44346Y-44738D02*
X-44346Y-44737D01*
X3666Y67223D02*
X3666Y67223D01*
X9037Y67309D02*
Y67309D01*
X-63441Y24238D02*
X-63441D01*
X-14370Y69488D02*
X-13578Y66542D01*
X7902Y66870D02*
X7902Y66870D01*
X13501Y-66587D02*
X13501Y-66587D01*
X-52655Y-42892D02*
X-52653Y-42894D01*
X-45823Y-48303D02*
X-45823D01*
X2617Y67863D02*
Y67863D01*
X46656Y12213D02*
X46656D01*
X-29065Y38358D02*
X-29065Y38358D01*
X46656Y12213D02*
X46659Y12203D01*
X-81509Y13849D02*
X-81509D01*
X-83661Y16732D02*
Y16732D01*
X48539Y66929D02*
X48539Y66929D01*
X48838Y66616D02*
X48838Y66616D01*
X82835Y-16551D02*
X82835Y-16551D01*
X49680Y72964D02*
X49681Y72959D01*
X81053Y-16307D02*
X81058Y-16308D01*
X47539Y69755D02*
X49704Y72873D01*
X50240Y65562D02*
Y65562D01*
X46548Y68328D02*
X47539Y69755D01*
X50626Y65364D02*
X50626Y65364D01*
X21132Y-79931D02*
X22047Y-82677D01*
X-81515Y13817D02*
X-81514Y13817D01*
X81243Y-16321D02*
X82107Y-16321D01*
X82112Y-16321D01*
X-33617Y-41168D02*
X-33616Y-41168D01*
X-32122Y42483D02*
X-32122Y42483D01*
X-34048Y40951D02*
X-34048D01*
X-33623Y-41163D02*
X-33623Y-41163D01*
X-31661Y42690D02*
X-31661Y42690D01*
X48204Y-40551D02*
X48207Y-40547D01*
X47979Y-41764D02*
X47979Y-41764D01*
X45065Y-44873D02*
X45065Y-44873D01*
X-44337Y-44747D02*
X-44337Y-44747D01*
X-40554Y-48424D02*
X-40551Y-48425D01*
X-43341Y-45742D02*
X-40907Y-48177D01*
X-44329Y-44754D02*
X-43341Y-45742D01*
X-4781Y-72334D02*
Y-70242D01*
X-5056Y-72610D02*
X-4781Y-72334D01*
X2575Y-69866D02*
X6038Y-66402D01*
X6695Y-66057D02*
X6915Y-66013D01*
X2208Y-71922D02*
Y-70754D01*
X-31301Y-43475D02*
X-29735Y-45042D01*
X-33525Y-41251D02*
X-31301Y-43475D01*
X-29735Y-45042D02*
X-29416D01*
X-28747Y-45711D01*
X-31301Y-43475D02*
X-31301D01*
X-28747Y-45711D02*
X-28346D01*
X-33525Y-41251D02*
X-33525D01*
X-46722Y-48303D02*
X-46722Y-48303D01*
X-45282Y-48422D02*
X-45276Y-48425D01*
X-46722Y-48303D02*
X-45823Y-48303D01*
X52651Y42896D02*
X55997Y45697D01*
X63529Y-24008D02*
X67573Y-25646D01*
X13753Y-66506D02*
X13753Y-66506D01*
X11575Y-71339D02*
X11577Y-71343D01*
X-41147Y53571D02*
X-41147Y53573D01*
X-43177Y51411D02*
Y51411D01*
X-43557Y51263D02*
X-43557Y51263D01*
X-67573Y25646D02*
X-63441Y24238D01*
X-52660Y-42900D02*
X-52653Y-42894D01*
X-52672Y-42911D02*
X-52672Y-42911D01*
X-55997Y-45697D02*
X-52672Y-42911D01*
X-48860Y-46687D02*
X-47612Y-47935D01*
X-33616Y-41168D02*
X-33615Y-41169D01*
X-33614Y-41170D01*
X-52653Y-42894D02*
X-48860Y-46687D01*
X-28071Y-46952D02*
X-4781Y-70242D01*
X-28071Y-46952D02*
Y-46269D01*
X-28346Y-45993D02*
X-28071Y-46269D01*
X-37348Y-30505D02*
X-37343Y-30510D01*
X592Y-68445D01*
X-40551Y-48425D02*
X-40547Y-48430D01*
X46757Y11808D02*
X46759Y11801D01*
X46783Y11719D02*
X46783Y11719D01*
X46676Y12128D02*
X46677Y12122D01*
X43202Y-70492D02*
X46260Y-75787D01*
X-47244Y-74803D02*
X-43984Y-70007D01*
D63*
X-23918Y-64199D02*
G03*
X-23908Y-63896I-1185J191D01*
G01*
X-23433Y-66264D02*
G03*
X-23562Y-65984I-1145J-358D01*
G01*
X-23477Y-59636D02*
G03*
X-23847Y-60557I829J-868D01*
G01*
X-23952Y-62644D02*
G03*
X-23965Y-62827I1187J-173D01*
G01*
X-23952Y-62644D02*
G03*
X-23847Y-60557I-10336J1568D01*
G01*
X-23965Y-62828D02*
G03*
X-23909Y-63892I12016J100D01*
G01*
X-23477Y-59636D02*
G03*
X-23714Y-54707I-2255J2361D01*
G01*
X-23918Y-64199D02*
G03*
X-23562Y-65984I2514J-427D01*
G01*
X-23431Y-66268D02*
G03*
X-20454Y-71215I11483J3541D01*
G01*
X-53071Y23248D02*
G03*
X-53625Y21899I1839J-1543D01*
G01*
X-54538Y19281D02*
G03*
X-54479Y19572I-1137J385D01*
G01*
X-54047Y20779D02*
G03*
X-54479Y19572I1962J-1382D01*
G01*
X-53702Y21568D02*
G03*
X-53901Y21052I53221J-20753D01*
G01*
X-53071Y23248D02*
G03*
X-52890Y23541I-920J771D01*
G01*
X-54539Y19278D02*
G03*
X-40876Y-39575I54058J-18463D01*
G01*
X-53702Y21569D02*
G03*
X-53625Y21899I-1118J435D01*
G01*
X-40876Y-39575D02*
G03*
X-23714Y-54707I128917J128914D01*
G01*
X-29535Y49999D02*
G03*
X-52890Y23541I29053J-49184D01*
G01*
X-54047Y20779D02*
G03*
X-53901Y21052I-976J699D01*
G01*
X-28284Y49961D02*
G03*
X-29535Y49999I-657J-1004D01*
G01*
X25690Y51235D02*
G03*
X25652Y51318I-1110J-456D01*
G01*
X25734Y51107D02*
G03*
X25690Y51235I-1154J-331D01*
G01*
X25652Y51318D02*
G03*
X23765Y51694I-1090J-548D01*
G01*
X19140Y53925D02*
G03*
X23765Y51694I2809J-86D01*
G01*
X25738Y51094D02*
G03*
X29113Y49608I2313J678D01*
G01*
X-28280Y49958D02*
G03*
X-24583Y51708I1311J2010D01*
G01*
X-23996Y52599D02*
G03*
X-24583Y51708I605J-1036D01*
G01*
X-18370Y53392D02*
G03*
X-14998Y55367I850J2415D01*
G01*
X-23993Y52601D02*
G03*
X-23508Y53120I-612J1056D01*
G01*
X-18424Y53412D02*
G03*
X-18370Y53392I452J1134D01*
G01*
X-18885Y53737D02*
G03*
X-23507Y53124I-2104J-1863D01*
G01*
X-18880Y53731D02*
G03*
X-18424Y53412I909J814D01*
G01*
X18307Y55110D02*
G03*
X13582Y56460I-18307J-55110D01*
G01*
X19140Y53925D02*
G03*
X18307Y55110I-1220J28D01*
G01*
X40816Y65363D02*
G03*
X-31850Y69853I-40547J-65953D01*
G01*
X76134Y-7712D02*
G03*
X42599Y63580I-76149J7713D01*
G01*
X40627Y-65404D02*
G03*
X54287Y-54285I-47394J72171D01*
G01*
X13582Y56460D02*
G03*
X-8139Y57498I-13582J-56460D01*
G01*
X-14995Y55382D02*
G03*
X-14998Y55367I1198J-231D01*
G01*
X-14088Y56336D02*
G03*
X-14995Y55382I291J-1185D01*
G01*
X56653Y12755D02*
G03*
X30277Y49553I-56653J-12755D01*
G01*
D02*
G03*
X29113Y49608I-632J-1044D01*
G01*
X-11198Y56981D02*
G03*
X-14088Y56336I11198J-56981D01*
G01*
X-10669Y56967D02*
G03*
X-11193Y56982I-296J-1184D01*
G01*
X-10669Y56967D02*
G03*
X-8630Y57311I629J2482D01*
G01*
X-8139Y57498D02*
G03*
X-8630Y57311I177J-1208D01*
G01*
X58071Y0D02*
G03*
X56653Y12755I-58071J0D01*
G01*
X45940Y-34720D02*
G03*
X58071Y0I-43622J34720D01*
G01*
X45940Y-34720D02*
G03*
X45669Y-35495I989J-781D01*
G01*
X-76403Y7513D02*
G03*
X-69879Y-31794I76403J-7513D01*
G01*
X40338Y-65546D02*
G03*
X40627Y-65404I-404J1194D01*
G01*
X-68205Y-34793D02*
G03*
X-69410Y-32336I-2566J265D01*
G01*
X-52683Y-55711D02*
G03*
X-45619Y-58633I7064J7078D01*
G01*
X-69879Y-31794D02*
G03*
X-69413Y-32334I1148J519D01*
G01*
X-68205Y-34793D02*
G03*
X-68074Y-35494I1253J-129D01*
G01*
X-68074Y-35494D02*
G03*
X-57328Y-51063I68074J35494D01*
G01*
X38028Y-65916D02*
G03*
X40338Y-65546I0J7381D01*
G01*
X-57328Y-51063D02*
G03*
X-57276Y-51118I948J830D01*
G01*
X54287Y-54285D02*
G03*
X76381Y-7737I-54287J54285D01*
G01*
X-31850Y69853D02*
G03*
X-76403Y7513I31850J-69853D01*
G01*
X-23918Y-64199D02*
X-23918D01*
X-23433Y-66264D02*
X-23431Y-66268D01*
X-23909Y-63892D02*
X-23908Y-63896D01*
X-23965Y-62827D02*
X-23965Y-62828D01*
X-53702Y21568D02*
X-53702Y21569D01*
X-53625Y21899D02*
X-53625D01*
X-53901Y21052D02*
X-53901Y21052D01*
X-54539Y19278D02*
X-54538Y19281D01*
X-54479Y19572D02*
X-54479D01*
X-23714Y-54707D02*
X-23714Y-54707D01*
X-20454Y-71215D02*
X-14341D01*
X23765Y51694D02*
X23765Y51694D01*
X25690Y51235D02*
X25690Y51235D01*
X25734Y51107D02*
X25738Y51094D01*
X25734Y51107D02*
X25734Y51107D01*
X-28284Y49961D02*
X-28280Y49958D01*
X-23996Y52599D02*
X-23993Y52601D01*
X-24583Y51708D02*
X-24583Y51708D01*
X-23508Y53120D02*
X-23507Y53124D01*
X18307Y55110D02*
Y55110D01*
X19140Y53925D02*
X19140D01*
X29647Y-65916D02*
X38028D01*
X38028Y-65916D01*
X40338Y-65546D02*
X40338Y-65546D01*
Y-65546D02*
Y-65546D01*
X39598Y59541D02*
X42320Y63164D01*
X76134Y-7712D02*
X76381Y-7737D01*
X71909Y-7283D02*
X76134Y-7712D01*
X40816Y65363D02*
X42599Y63580D01*
X13189Y54245D02*
X13582Y56460D01*
X-18885Y53737D02*
X-18880Y53731D01*
X-14088Y56336D02*
Y56336D01*
X-11198Y56981D02*
X-11193Y56982D01*
X-8139Y57498D02*
Y57498D01*
X56653Y12755D02*
X58661Y13386D01*
X45669Y-42520D02*
Y-35495D01*
X-68074Y-35494D02*
X-68074Y-35494D01*
X-69413Y-32334D02*
X-69410Y-32336D01*
X-57328Y-51063D02*
X-57328Y-51063D01*
X-68074Y-35494D02*
X-68074D01*
X-68205Y-34793D02*
X-68205Y-34793D01*
X-45619Y-58633D02*
X-42261D01*
X-57276Y-51118D02*
X-52683Y-55711D01*
X-76403Y7513D02*
X-71909Y7283D01*
X-31850Y69853D02*
X-29647Y65916D01*
D68*
X78740Y-62992D02*
D03*
X76772Y59055D02*
D03*
X74803Y47244D02*
D03*
Y-47244D02*
D03*
Y-55118D02*
D03*
X76772Y-59055D02*
D03*
X74803Y-62992D02*
D03*
X70866Y62992D02*
D03*
X72835Y-51181D02*
D03*
X70866Y-55118D02*
D03*
X72835Y-59055D02*
D03*
X68898Y66929D02*
D03*
Y-59055D02*
D03*
X66929Y-62992D02*
D03*
X68898Y-66929D02*
D03*
X62992Y78740D02*
D03*
X64961Y74803D02*
D03*
X62992Y70866D02*
D03*
X64961Y66929D02*
D03*
X62992Y-62992D02*
D03*
X64961Y-66929D02*
D03*
X62992Y-70866D02*
D03*
X64961Y-74803D02*
D03*
X62992Y-78740D02*
D03*
X61024Y74803D02*
D03*
X59055Y70866D02*
D03*
X61024Y-66929D02*
D03*
X59055Y-70866D02*
D03*
X61024Y-74803D02*
D03*
X57087Y74803D02*
D03*
X55118Y70866D02*
D03*
Y-70866D02*
D03*
X57087Y-74803D02*
D03*
X53150Y74803D02*
D03*
Y-74803D02*
D03*
X39370Y7874D02*
D03*
X41339Y-27559D02*
D03*
X35433Y15748D02*
D03*
X37402Y11811D02*
D03*
X35433Y-31496D02*
D03*
X31496Y15748D02*
D03*
Y0D02*
D03*
Y-7874D02*
D03*
X27559Y31496D02*
D03*
X29528Y27559D02*
D03*
X27559Y23622D02*
D03*
X29528Y19685D02*
D03*
Y3937D02*
D03*
Y-3937D02*
D03*
Y-11811D02*
D03*
Y-19685D02*
D03*
X27559Y-23622D02*
D03*
X25591Y27559D02*
D03*
X23622Y23622D02*
D03*
X21654Y27559D02*
D03*
X-13779D02*
D03*
X-17716D02*
D03*
X-19685Y23622D02*
D03*
X-21653Y82677D02*
D03*
Y27559D02*
D03*
X-23622Y23622D02*
D03*
X-25590Y82677D02*
D03*
X-27559Y23622D02*
D03*
X-25590Y19685D02*
D03*
X-27559Y15748D02*
D03*
X-31496Y23622D02*
D03*
X-29527Y19685D02*
D03*
X-31496Y15748D02*
D03*
X-29527Y11811D02*
D03*
X-31496Y7874D02*
D03*
X-29527Y3937D02*
D03*
X-31496Y0D02*
D03*
X-29527Y-3937D02*
D03*
X-35433Y23622D02*
D03*
X-33464Y19685D02*
D03*
X-35433Y15748D02*
D03*
X-33464Y11811D02*
D03*
X-35433Y7874D02*
D03*
X-33464Y3937D02*
D03*
X-35433Y0D02*
D03*
X-33464Y-3937D02*
D03*
X-37401Y19685D02*
D03*
X-39370Y15748D02*
D03*
X-37401Y11811D02*
D03*
X-39370Y7874D02*
D03*
X-37401Y3937D02*
D03*
X-41338Y11811D02*
D03*
X-43307Y7874D02*
D03*
X-41338Y3937D02*
D03*
X-53149Y74803D02*
D03*
X-55118Y70866D02*
D03*
Y-70866D02*
D03*
X-53149Y-74803D02*
D03*
X-57086Y74803D02*
D03*
X-59055Y70866D02*
D03*
Y-62992D02*
D03*
X-57086Y-66929D02*
D03*
X-59055Y-70866D02*
D03*
X-62992Y78740D02*
D03*
Y70866D02*
D03*
X-61023Y66929D02*
D03*
X-62992Y62992D02*
D03*
Y-62992D02*
D03*
X-61023Y-66929D02*
D03*
X-62992Y-70866D02*
D03*
X-61023Y-74803D02*
D03*
X-62992Y-78740D02*
D03*
X-64960Y74803D02*
D03*
Y66929D02*
D03*
X-66929Y62992D02*
D03*
Y-62992D02*
D03*
X-64960Y-66929D02*
D03*
Y-74803D02*
D03*
X-68897Y66929D02*
D03*
X-70866Y62992D02*
D03*
X-68897Y59055D02*
D03*
X-70866Y55118D02*
D03*
Y-55118D02*
D03*
X-68897Y-59055D02*
D03*
X-70866Y-62992D02*
D03*
X-68897Y-66929D02*
D03*
X-74803Y62992D02*
D03*
X-72834Y59055D02*
D03*
X-74803Y55118D02*
D03*
X-72834Y51181D02*
D03*
X-74803Y47244D02*
D03*
Y-47244D02*
D03*
X-72834Y-51181D02*
D03*
X-74803Y-55118D02*
D03*
X-72834Y-59055D02*
D03*
X-74803Y-62992D02*
D03*
X-78740Y62992D02*
D03*
X-76771Y59055D02*
D03*
X-78740Y-62992D02*
D03*
X-25197Y-56595D02*
D03*
X-32165Y-58189D02*
D03*
X-27748Y-56259D02*
D03*
X-31137Y-64151D02*
D03*
X-8407Y50001D02*
D03*
X-4528Y45177D02*
D03*
X4232Y36220D02*
D03*
X-3248Y36417D02*
D03*
X-11909Y36319D02*
D03*
X8661Y36909D02*
D03*
X-22933Y67126D02*
D03*
X-17686Y47557D02*
D03*
X-26969Y51968D02*
D03*
X22244Y68110D02*
D03*
X13159Y49003D02*
D03*
X23228Y-36220D02*
D03*
X19291D02*
D03*
X21260Y-38189D02*
D03*
X29134Y-40551D02*
D03*
X45669Y-42520D02*
D03*
X70866Y-63386D02*
D03*
X-8268Y-70866D02*
D03*
X-32283Y28346D02*
D03*
X-28346D02*
D03*
X0Y-31496D02*
D03*
X39370Y-3937D02*
D03*
Y1181D02*
D03*
X32677Y-48819D02*
D03*
X32283Y-43701D02*
D03*
X33465Y-40551D02*
D03*
X-60236Y74410D02*
D03*
X76378Y62205D02*
D03*
X-56299Y-75984D02*
D03*
X-75984Y-57874D02*
D03*
D69*
X-26736Y-66460D02*
D03*
X49680Y72964D02*
D03*
X39598Y59541D02*
D03*
X-14370Y69488D02*
D03*
X13189Y54245D02*
D03*
X-5056Y-72610D02*
D03*
X7480Y-65748D02*
D03*
X-28346Y-45711D02*
D03*
X-39984Y48440D02*
D03*
X-40551Y-48425D02*
D03*
X39872Y-48767D02*
D03*
X43198Y45847D02*
D03*
X-14341Y-71215D02*
D03*
X58661Y13386D02*
D03*
X43731Y-20336D02*
D03*
X43035Y-31191D02*
D03*
X48425Y21654D02*
D03*
X4821Y52930D02*
D03*
X22047Y-82677D02*
D03*
X-45276Y-48425D02*
D03*
X67573Y-25646D02*
D03*
X-40566Y-26084D02*
D03*
X40410Y26325D02*
D03*
X-42218Y23315D02*
D03*
X-1374Y48209D02*
D03*
X-42220Y39871D02*
D03*
X-48646Y-21412D02*
D03*
X-55804Y-16067D02*
D03*
X-43444Y30619D02*
D03*
X-62195Y-9991D02*
D03*
X62124Y10422D02*
D03*
X-47244Y-74803D02*
D03*
X-83661Y16732D02*
D03*
X-47244Y75787D02*
D03*
X82835Y-16551D02*
D03*
X46260Y-75787D02*
D03*
X-42261Y-58633D02*
D03*
X-55997Y-45697D02*
D03*
X-71909Y7283D02*
D03*
X-67573Y25646D02*
D03*
X-29647Y65916D02*
D03*
X55997Y45697D02*
D03*
X71909Y-7283D02*
D03*
X29647Y-65916D02*
D03*
X11577Y-71343D02*
D03*
X2165Y-72244D02*
D03*
M02*
